mtllib hyena.mtl
usemtl tex0_0
v 4.681410 -5.443640 104.843002
vn -0.624196 -0.328349 -0.708919
v -4.631250 -5.443640 104.843002
vn 0.890801 -0.231417 -0.391049
v 7.846580 -3.981030 72.282799
vn -0.976176 -0.210550 -0.052438
v 4.665840 2.363180 71.980202
vn -0.892262 -0.449419 -0.043480
v -4.615680 2.363180 71.980202
vn 0.888812 -0.457681 -0.023259
v -7.796420 -3.981030 72.282799
vn 0.981473 -0.187672 -0.038606
v 7.846580 -5.917740 18.101200
vn -0.980237 -0.194971 0.033500
v 4.665840 0.000002 18.101200
vn -0.862159 -0.503722 0.054280
v -4.615680 0.000002 18.101200
vn 0.862521 -0.502730 0.057628
v -7.796420 -5.917740 18.101200
vn 0.967811 -0.248207 0.041655
v 4.687220 -6.113700 -23.228100
vn -0.957466 -0.278711 0.074690
v -4.637060 -6.113700 -23.228100
vn 0.902949 -0.422307 0.079631
v 5.080640 -21.217199 104.759003
vn -0.932922 0.260671 -0.248409
v -4.631250 -17.030600 107.925003
vn 0.586235 0.093449 -0.804733
v 7.846580 -21.395901 75.149597
vn -0.951097 0.306623 -0.037363
v 4.665840 -27.449900 64.559700
vn -0.846525 0.531727 -0.025722
v -4.615680 -27.449900 64.559700
vn 0.845366 0.533557 -0.025929
v -7.796420 -21.395901 75.149597
vn 0.983854 0.167602 -0.062772
v 7.846580 -21.395901 18.018200
vn -0.985698 0.163749 0.039820
v 4.665840 -27.280001 4.089460
vn -0.873784 0.486156 0.012425
v -4.615680 -27.280001 4.089460
vn 0.883530 0.467939 0.020207
v -7.796420 -21.395901 18.018200
vn 0.974557 0.223205 0.020425
v 4.687220 -21.233601 -34.082401
vn -0.984460 0.164964 0.060211
v -4.637060 -21.233601 -34.082401
vn 0.992222 0.105557 0.065985
v 3.526720 -29.136900 63.062698
vn -0.829404 0.558647 0.001570
v -3.476560 -29.136900 63.062698
vn 0.829403 0.558649 0.001569
v 3.526720 -28.975401 5.576940
vn -0.829405 0.558645 0.001569
v -3.476560 -28.975401 5.576950
vn 0.829404 0.558647 0.001570
v 2.900970 2.204370 15.436400
vn -0.963340 -0.265481 0.038687
v -2.850810 2.204370 15.436400
vn 0.905129 -0.420628 0.061754
v 2.919990 -3.232240 -21.315701
vn -0.905201 -0.420476 0.061731
v -2.869830 -3.232240 -21.315701
vn 0.963370 -0.265375 0.038671
v 1.724390 11.839200 6.789380
vn -0.994060 -0.107772 0.015176
v -1.674230 11.839200 6.789380
vn 0.994115 -0.107254 0.015225
v 1.741830 8.493410 -15.828500
vn -0.994097 -0.107415 0.015249
v -1.691670 8.493410 -15.828500
vn 0.994152 -0.106933 0.015052
v 4.681410 -17.030600 107.925003
vn -0.579538 0.271745 -0.768303
v 4.679920 -21.791500 104.768997
vn -0.645755 0.603987 -0.467120
v -5.030470 -21.217199 104.759003
vn 0.877158 0.414899 -0.241769
v -4.629760 -21.791500 104.768997
vn 0.413938 0.600905 -0.683790
v -30.378500 -10.181500 -8.083980
vn -0.960499 -0.005942 -0.278221
v -49.014900 -10.181500 -8.083980
vn 0.960868 -0.003483 -0.276984
v -26.232201 -10.250700 -22.396700
vn -0.982491 -0.002357 -0.186294
v -53.161201 -10.250700 -22.396700
vn 0.995612 -0.000363 -0.093574
v -26.232201 -10.211700 -61.219601
vn -0.997652 -0.000702 0.068481
v -53.161201 -10.211700 -61.219601
vn 0.990530 -0.000561 0.137295
v -30.370899 -10.190300 -81.032204
vn -0.978767 -0.000829 0.204975
v -49.022499 -10.190300 -81.032097
vn 0.978871 0.000431 0.204480
v -30.378500 -18.122299 -7.914380
vn -0.960863 -0.003505 -0.277001
v -49.014900 -18.122299 -7.914380
vn 0.961221 -0.005889 -0.275718
v -26.232201 -18.304501 -22.365499
vn -0.995691 -0.000359 -0.092729
v -53.161201 -18.304501 -22.365499
vn 0.982493 -0.002343 -0.186283
v -26.232201 -18.304501 -61.302502
vn -0.990529 -0.000556 0.137299
v -53.161201 -18.304501 -61.302502
vn 0.997629 -0.000705 0.068812
v -30.370899 -18.159800 -81.015297
vn -0.978663 0.000436 0.205473
v -49.022499 -18.159800 -81.015297
vn 0.978768 -0.000837 0.204968
v 0.775082 2.413470 24.842699
vn -1.000000 0.000000 0.000000
v 0.775082 22.111799 14.599600
vn -1.000000 0.000000 0.000000
v 0.775082 57.568699 12.826800
vn -1.000000 0.000000 0.000000
v 0.775082 58.750599 -2.537890
vn -1.000000 0.000000 0.000000
v 0.775082 2.019510 -29.721500
vn -1.000000 0.000000 0.000000
v 0.775082 -3.496010 -27.751699
vn -1.000000 0.000000 0.000000
v -0.724918 2.413470 24.842699
vn 1.000000 0.000000 0.000000
v -0.724918 22.111799 14.599600
vn 1.000000 0.000000 0.000000
v -0.724918 57.568699 12.826800
vn 1.000000 0.000000 0.000000
v -0.724918 58.750599 -2.537890
vn 1.000000 0.000000 0.000000
v -0.724918 2.019510 -29.721500
vn 1.000000 0.000000 0.000000
v -0.724918 -3.496010 -27.751699
vn 1.000000 0.000000 0.000000
v 9.223240 -26.738300 -0.410079
vn 0.000000 0.999152 0.041168
v -9.173070 -26.738300 -0.410079
vn 0.000000 0.999097 -0.042495
v 5.879240 -21.622499 -41.359200
vn 0.000000 0.948079 0.318036
v -5.829070 -21.622499 -41.359200
vn 0.000000 0.975133 0.221620
v 8.902210 -23.327200 26.602100
vn 0.000000 0.992121 -0.125285
v -8.852040 -23.327200 26.602100
vn 0.000000 0.992121 -0.125285
v 4.879380 -19.415701 -46.263302
vn 0.000000 0.911925 0.410357
v -4.829210 -19.415701 -46.263302
vn 0.000000 0.911925 0.410357
v 9.223080 -2.463450 -0.410078
vn 0.000000 -0.999640 -0.026823
v -9.172910 -2.463450 -0.410078
vn 0.000000 -0.999640 -0.026823
v 5.879080 -5.415340 -41.359200
vn 0.000000 -0.969550 0.244891
v -5.828910 -5.415340 -41.359200
vn 0.000000 -0.969550 0.244891
v 8.908530 -5.874520 26.602100
vn 0.000000 -0.992121 -0.125284
v -8.858370 -5.874520 26.602100
vn 0.000000 -0.992121 -0.125284
v 4.882850 -7.622180 -46.263302
vn 0.000000 -0.911922 0.410364
v -4.832680 -7.622180 -46.263302
vn 0.000000 -0.911922 0.410364
v -14.850000 -7.670670 -0.410078
vn 0.640651 -0.767720 0.013093
v 11.556100 -10.622600 -41.359200
vn -0.784335 -0.477790 0.395645
v -11.506000 -10.622600 -41.359200
vn 0.730984 -0.504086 0.459956
v -14.850000 -21.504299 -0.410078
vn 0.674172 0.738535 -0.007575
v 11.556100 -16.388599 -41.359200
vn -0.726182 0.498492 0.473462
v -11.506000 -16.388599 -41.359200
vn 0.779121 0.472186 0.412323
v 14.900100 -7.670670 -0.410079
vn -0.672831 -0.739394 -0.024391
v 14.900100 -21.504299 -0.410079
vn -0.641275 0.766410 0.037167
v -11.131900 -9.083790 26.602100
vn 0.713424 -0.636979 -0.292033
v -11.131900 -20.096300 26.602100
vn 0.715159 0.395167 -0.576533
v 11.182100 -9.083790 26.602100
vn -0.714862 -0.395608 -0.576599
v 11.182100 -20.096300 26.602100
vn -0.713757 0.636605 -0.292035
v -17.669701 -9.881550 -0.320702
vn 0.926275 -0.374668 -0.040480
v 14.534400 -12.676500 -39.350899
vn -0.873000 -0.183734 0.451787
v -14.484200 -12.676500 -39.350899
vn 0.822371 -0.462182 0.331803
v -17.674299 -19.290501 -0.258236
vn 0.852705 0.521780 0.025293
v 14.534400 -14.439600 -39.350899
vn -0.816499 0.456413 0.353576
v -14.484200 -14.439600 -39.350899
vn 0.869229 0.182152 0.459632
v 17.719801 -9.881550 -0.320702
vn -0.852138 -0.523266 0.007322
v 17.724400 -19.290501 -0.258238
vn -0.926861 0.373853 -0.034110
v -14.217500 -11.179100 24.735201
vn 0.778667 -0.231870 -0.583021
v -14.217500 -18.000700 24.735201
vn 0.871859 0.367757 -0.323445
v 14.267700 -11.179100 24.735201
vn -0.871841 -0.367886 -0.323346
v 14.267700 -18.000700 24.735201
vn -0.778584 0.231808 -0.583157
v 9.150670 -11.536800 -46.263302
vn -0.752737 -0.473405 0.457466
v -9.100500 -11.536800 -46.263302
vn 0.854125 -0.236703 0.463080
v 9.150670 -15.477700 -46.263302
vn -0.854394 0.236045 0.462918
v -9.100500 -15.477700 -46.263302
vn 0.753633 0.472091 0.457347
v 30.428699 -10.181500 -8.083980
vn 0.960497 -0.005942 -0.278227
v 49.064999 -10.181500 -8.083980
vn -0.960866 -0.003483 -0.276990
v 26.282301 -10.250700 -22.396700
vn 0.982490 -0.002358 -0.186299
v 53.211399 -10.250700 -22.396700
vn -0.995612 -0.000363 -0.093576
v 26.282301 -10.211700 -61.219601
vn 0.997652 -0.000702 0.068483
v 53.211399 -10.211700 -61.219601
vn -0.990530 -0.000561 0.137294
v 30.421101 -10.190300 -81.032204
vn 0.978766 -0.000829 0.204980
v 49.072701 -10.190300 -81.032097
vn -0.978871 0.000431 0.204480
v 30.428699 -18.122299 -7.914380
vn 0.960861 -0.003505 -0.277007
v 49.064999 -18.122299 -7.914380
vn -0.961219 -0.005889 -0.275724
v 26.282301 -18.304501 -22.365499
vn 0.995691 -0.000359 -0.092731
v 53.211399 -18.304501 -22.365499
vn -0.982493 -0.002343 -0.186287
v 26.282301 -18.304501 -61.302502
vn 0.990529 -0.000556 0.137302
v 53.211399 -18.304501 -61.302502
vn -0.997629 -0.000705 0.068812
v 30.421101 -18.159800 -81.015297
vn 0.978662 0.000436 0.205478
v 49.072701 -18.159800 -81.015297
vn -0.978768 -0.000837 0.204968
v 30.449100 -21.455299 -22.375601
vn 0.252957 0.963670 -0.085749
v 49.044601 -21.455299 -22.375601
vn -0.318199 0.941470 -0.111284
v 30.449100 -21.467100 -61.355701
vn 0.318821 0.944291 0.081657
v 49.044601 -21.467100 -61.355701
vn -0.254373 0.965073 0.062675
v -30.398899 -21.455299 -22.375601
vn -0.252961 0.963669 -0.085749
v -48.994499 -21.455299 -22.375601
vn 0.318205 0.941468 -0.111284
v -30.398899 -21.467100 -61.355701
vn -0.318826 0.944289 0.081657
v -48.994499 -21.467100 -61.355701
vn 0.254377 0.965072 0.062676
v -5.165950 -15.084400 31.565701
vn 0.000000 1.000000 0.000000
v -9.974920 -15.084400 31.565701
vn 0.000000 1.000000 0.000000
v -89.974899 -15.084400 1.565730
vn 0.000000 1.000000 0.000000
v -89.974899 -15.084400 -18.434299
vn 0.000000 1.000000 0.000000
v -17.559900 -15.084400 -28.434299
vn 0.000000 1.000000 0.000000
v -7.559950 -15.084400 -92.615997
vn 0.000000 1.000000 0.000000
v -5.165950 -15.084400 -92.615997
vn 0.000000 1.000000 0.000000
v 30.449100 -6.873180 -22.307501
vn 0.266252 -0.960038 -0.086235
v 49.044601 -6.873180 -22.307501
vn -0.334278 -0.935759 -0.112311
v 30.449100 -6.840150 -61.219601
vn 0.333740 -0.939121 0.081664
v 49.044601 -6.840150 -61.219601
vn -0.265791 -0.962013 0.062341
v -30.398899 -6.873180 -22.307501
vn -0.266256 -0.960037 -0.086235
v -48.994499 -6.873180 -22.307501
vn 0.334284 -0.935757 -0.112311
v -30.398899 -6.840150 -61.219601
vn -0.333746 -0.939119 0.081664
v -48.994499 -6.840150 -61.219601
vn 0.265795 -0.962012 0.062341
v -32.956699 -12.756900 -71.976402
vn 0.417586 0.835927 0.356158
v -46.436699 -12.756900 -71.976402
vn -0.835171 0.418341 0.357046
v -32.956699 -15.554800 -71.970497
vn 0.835170 -0.416826 0.358814
v -46.436699 -15.554800 -71.970497
vn -0.417584 -0.834409 0.359701
v 5.216110 -13.261300 31.565701
vn 0.000000 -1.000000 0.000000
v 10.025100 -13.261300 31.565701
vn 0.000000 -1.000000 0.000000
v 90.025101 -13.261300 1.565730
vn 0.000000 -1.000000 0.000000
v 90.025101 -13.261300 -18.434299
vn 0.000000 -1.000000 0.000000
v 17.610100 -13.261300 -28.434299
vn 0.000000 -1.000000 0.000000
v 7.610110 -13.261300 -92.615997
vn 0.000000 -1.000000 0.000000
v 5.216110 -13.261300 -92.615997
vn 0.000000 -1.000000 0.000000
v -5.165950 -13.261300 31.565701
vn 0.000000 -1.000000 0.000000
v -9.974920 -13.261300 31.565701
vn 0.000000 -1.000000 0.000000
v -89.974899 -13.261300 1.565730
vn 0.000000 -1.000000 0.000000
v -89.974899 -13.261300 -18.434299
vn 0.000000 -1.000000 0.000000
v -17.559900 -13.261300 -28.434299
vn 0.000000 -1.000000 0.000000
v -7.559950 -13.261300 -92.615997
vn 0.000000 -1.000000 0.000000
v -5.165950 -13.261300 -92.615997
vn 0.000000 -1.000000 0.000000
v 33.006901 -12.756900 -71.976402
vn -0.417586 0.835927 0.356158
v 46.486900 -12.756900 -71.976402
vn 0.835170 0.418341 0.357045
v 33.006901 -15.554800 -71.970497
vn -0.835170 -0.416826 0.358814
v 46.486900 -15.554800 -71.970497
vn 0.417584 -0.834409 0.359701
v 5.216110 -15.084400 31.565701
vn 0.000000 1.000000 0.000000
v 10.025100 -15.084400 31.565701
vn 0.000000 1.000000 0.000000
v 90.025101 -15.084400 1.565730
vn 0.000000 1.000000 0.000000
v 90.025101 -15.084400 -18.434299
vn 0.000000 1.000000 0.000000
v 17.610100 -15.084400 -28.434299
vn 0.000000 1.000000 0.000000
v 7.610110 -15.084400 -92.615997
vn 0.000000 1.000000 0.000000
v 5.216110 -15.084400 -92.615997
vn 0.000000 1.000000 0.000000
v 36.278500 -16.191900 -10.413100
vn 0.333333 -0.666667 0.666667
v 37.528500 -16.191900 -10.413100
vn -0.816497 -0.408248 0.408248
v 36.278500 -17.441900 -10.413100
vn 0.816497 0.408248 0.408248
v 37.528500 -17.441900 -10.413100
vn -0.333333 0.666667 0.666667
v 36.278500 -16.191900 -2.413140
vn 0.666667 -0.333333 -0.666667
v 37.528500 -16.191900 -2.413140
vn -0.408248 -0.816497 -0.408248
v 36.278500 -17.441900 -2.413140
vn 0.408248 0.816497 -0.408248
v 37.528500 -17.441900 -2.413140
vn -0.666667 0.333333 -0.666667
v 32.176300 -16.145700 -8.657800
vn 0.333333 -0.666667 0.666667
v 33.426300 -16.145700 -8.657800
vn -0.816497 -0.408248 0.408248
v 32.176300 -17.395700 -8.657800
vn 0.816497 0.408248 0.408248
v 33.426300 -17.395700 -8.657800
vn -0.333333 0.666667 0.666667
v 32.176300 -16.145700 -0.657802
vn 0.666667 -0.333333 -0.666667
v 33.426300 -16.145700 -0.657802
vn -0.408248 -0.816497 -0.408248
v 32.176300 -17.395700 -0.657802
vn 0.408248 0.816497 -0.408248
v 33.426300 -17.395700 -0.657802
vn -0.666667 0.333333 -0.666667
v -32.278999 -16.145700 -8.657800
vn -0.333333 -0.666667 0.666667
v -33.528999 -16.145700 -8.657800
vn 0.816497 -0.408248 0.408248
v -32.278999 -17.395700 -8.657800
vn -0.816497 0.408248 0.408248
v -33.528999 -17.395700 -8.657800
vn 0.333333 0.666667 0.666667
v -32.278999 -16.145700 -0.657800
vn -0.666667 -0.333333 -0.666667
v -33.528999 -16.145700 -0.657800
vn 0.408248 -0.816496 -0.408248
v -32.278999 -17.395700 -0.657801
vn -0.408248 0.816497 -0.408248
v -33.528999 -17.395700 -0.657801
vn 0.666667 0.333334 -0.666667
v -36.381199 -16.191900 -10.413100
vn -0.333333 -0.666667 0.666667
v -37.631199 -16.191900 -10.413100
vn 0.816497 -0.408248 0.408248
v -36.381199 -17.441900 -10.413100
vn -0.816497 0.408248 0.408248
v -37.631199 -17.441900 -10.413100
vn 0.333333 0.666667 0.666667
v -36.381199 -16.191900 -2.413140
vn -0.666667 -0.333333 -0.666667
v -37.631199 -16.191900 -2.413140
vn 0.408248 -0.816497 -0.408248
v -36.381199 -17.441900 -2.413140
vn -0.408248 0.816497 -0.408248
v -37.631199 -17.441900 -2.413140
vn 0.666667 0.333333 -0.666667
v 4.679920 -21.791500 104.768997
vn 0.000000 0.990243 -0.139351
v -4.629760 -21.791500 104.768997
vn 0.000000 0.990243 -0.139351
v -4.615680 -27.449900 64.559700
vn 0.000000 0.990243 -0.139351
v -4.615680 -27.449900 64.559700
vn 0.000000 0.990243 -0.139351
v 4.665840 -27.449900 64.559700
vn 0.000000 0.990243 -0.139351
v 4.679920 -21.791500 104.768997
vn 0.000000 0.990243 -0.139351
v 3.526720 -29.136900 63.062698
vn 0.000000 0.999996 0.002809
v -3.476560 -29.136900 63.062698
vn 0.000000 0.999996 0.002809
v -3.476560 -28.975401 5.576950
vn 0.000000 0.999996 0.002809
v -3.476560 -28.975401 5.576950
vn 0.000000 0.999996 0.002809
v 3.526720 -28.975401 5.576940
vn 0.000000 0.999996 0.002809
v 3.526720 -29.136900 63.062698
vn 0.000000 0.999996 0.002809
v 4.665840 -27.280001 4.089460
vn 0.000000 0.987686 0.156449
v -4.615680 -27.280001 4.089460
vn 0.000000 0.987686 0.156449
v -4.637060 -21.233601 -34.082401
vn 0.000000 0.987686 0.156449
v -4.637060 -21.233601 -34.082401
vn 0.000000 0.987686 0.156449
v 4.687220 -21.233601 -34.082401
vn 0.000000 0.987686 0.156449
v 4.665840 -27.280001 4.089460
vn 0.000000 0.987686 0.156449
v 4.665840 -27.449900 64.559700
vn 0.000000 0.663731 -0.747971
v -4.615680 -27.449900 64.559700
vn 0.000000 0.663731 -0.747971
v -3.476560 -29.136900 63.062698
vn 0.000000 0.663731 -0.747971
v -3.476560 -29.136900 63.062698
vn 0.000000 0.663731 -0.747971
v 3.526720 -29.136900 63.062698
vn 0.000000 0.663731 -0.747971
v 4.665840 -27.449900 64.559700
vn 0.000000 0.663731 -0.747971
v -4.615680 -27.280001 4.089460
vn 0.000000 0.659510 0.751696
v 4.665840 -27.280001 4.089460
vn 0.000000 0.659510 0.751696
v 3.526720 -28.975401 5.576940
vn 0.000000 0.659510 0.751696
v 3.526720 -28.975401 5.576940
vn 0.000001 0.659513 0.751693
v -3.476560 -28.975401 5.576950
vn 0.000001 0.659513 0.751693
v -4.615680 -27.280001 4.089460
vn 0.000001 0.659513 0.751693
v 4.681410 -5.443640 104.843002
vn 0.000000 -0.972924 -0.231126
v 4.665840 2.363180 71.980202
vn 0.000000 -0.972924 -0.231126
v -4.615680 2.363180 71.980202
vn 0.000000 -0.972924 -0.231126
v -4.615680 2.363180 71.980202
vn 0.000000 -0.972924 -0.231126
v -4.631250 -5.443640 104.843002
vn 0.000000 -0.972924 -0.231126
v 4.681410 -5.443640 104.843002
vn 0.000000 -0.972924 -0.231126
v 4.665840 2.363180 71.980202
vn 0.000000 -0.999040 0.043819
v 4.665840 0.000002 18.101200
vn 0.000000 -0.999040 0.043819
v -4.615680 0.000002 18.101200
vn 0.000000 -0.999040 0.043819
v -4.615680 0.000002 18.101200
vn 0.000000 -0.999040 0.043819
v -4.615680 2.363180 71.980202
vn 0.000000 -0.999040 0.043819
v 4.665840 2.363180 71.980202
vn 0.000000 -0.999040 0.043819
v 1.724390 11.839200 6.789380
vn 0.000000 -0.989235 0.146334
v 1.741830 8.493410 -15.828500
vn 0.000000 -0.989235 0.146334
v -1.691670 8.493410 -15.828500
vn 0.000000 -0.989235 0.146334
v -1.691670 8.493410 -15.828500
vn 0.000000 -0.989235 0.146334
v -1.674230 11.839200 6.789380
vn 0.000000 -0.989235 0.146334
v 1.724390 11.839200 6.789380
vn 0.000000 -0.989235 0.146334
v -4.637060 -6.113700 -23.228100
vn 0.000000 -0.583171 0.812349
v 4.687220 -6.113700 -23.228100
vn 0.000000 -0.583171 0.812349
v 4.687220 -21.233601 -34.082401
vn 0.000000 -0.583171 0.812349
v 4.687220 -21.233601 -34.082401
vn 0.000000 -0.583171 0.812349
v -4.637060 -21.233601 -34.082401
vn 0.000000 -0.583171 0.812349
v -4.637060 -6.113700 -23.228100
vn 0.000000 -0.583171 0.812349
v -4.615680 0.000002 18.101200
vn 0.000000 -0.770534 -0.637399
v 4.665840 0.000002 18.101200
vn 0.000000 -0.770534 -0.637399
v 2.900970 2.204370 15.436400
vn 0.000000 -0.770534 -0.637399
v 2.900970 2.204370 15.436400
vn 0.000000 -0.770534 -0.637399
v -2.850810 2.204370 15.436400
vn 0.000000 -0.770534 -0.637399
v -4.615680 0.000002 18.101200
vn 0.000000 -0.770534 -0.637399
v 4.687220 -6.113700 -23.228100
vn 0.000000 -0.552983 0.833193
v -4.637060 -6.113700 -23.228100
vn 0.000000 -0.552983 0.833193
v -2.869830 -3.232240 -21.315701
vn 0.000000 -0.552983 0.833193
v -2.869830 -3.232240 -21.315701
vn 0.000000 -0.552983 0.833193
v 2.919990 -3.232240 -21.315701
vn 0.000000 -0.552983 0.833193
v 4.687220 -6.113700 -23.228100
vn 0.000000 -0.552983 0.833193
v 2.919990 -3.232240 -21.315701
vn 0.000000 -0.423851 0.905732
v -2.869830 -3.232240 -21.315701
vn 0.000000 -0.423851 0.905732
v -1.691670 8.493410 -15.828500
vn 0.000000 -0.423851 0.905732
v -1.691670 8.493410 -15.828500
vn 0.000000 -0.423851 0.905732
v 1.741830 8.493410 -15.828500
vn 0.000000 -0.423851 0.905732
v 2.919990 -3.232240 -21.315701
vn 0.000000 -0.423851 0.905732
v -2.850810 2.204370 15.436400
vn 0.000000 -0.667926 -0.744228
v 2.900970 2.204370 15.436400
vn 0.000000 -0.667926 -0.744228
v 1.724390 11.839200 6.789380
vn 0.000000 -0.667926 -0.744228
v 1.724390 11.839200 6.789380
vn 0.000000 -0.667926 -0.744228
v -1.674230 11.839200 6.789380
vn 0.000000 -0.667926 -0.744228
v -2.850810 2.204370 15.436400
vn 0.000000 -0.667926 -0.744228
v 9.223080 -2.463450 -0.410078
vn -0.672025 -0.732656 0.107694
v 5.879080 -5.415340 -41.359200
vn -0.672025 -0.732656 0.107694
v 5.879080 -5.415340 -41.359200
vn -0.672028 -0.732653 0.107695
v -9.172910 -2.463450 -0.410078
vn 0.672020 -0.732660 0.107695
v -5.828910 -5.415340 -41.359200
vn 0.672023 -0.732657 0.107694
v -9.172910 -2.463450 -0.410078
vn 0.672023 -0.732657 0.107694
v -9.173070 -26.738300 -0.410079
vn 0.670617 0.727368 0.145635
v -5.829070 -21.622499 -41.359200
vn 0.670617 0.727368 0.145635
v -5.829070 -21.622499 -41.359200
vn 0.670610 0.727374 0.145633
v 9.223240 -26.738300 -0.410079
vn -0.670621 0.727364 0.145633
v 5.879240 -21.622499 -41.359200
vn -0.670614 0.727370 0.145635
v 9.223240 -26.738300 -0.410079
vn -0.670614 0.727370 0.145635
v -9.172910 -2.463450 -0.410078
vn 0.670174 -0.730647 -0.130470
v -8.858370 -5.874520 26.602100
vn 0.813226 -0.576110 -0.082220
v -9.172910 -2.463450 -0.410078
vn 0.813226 -0.576110 -0.082220
v 9.223240 -26.738300 -0.410079
vn -0.672052 0.728915 -0.130497
v 8.902210 -23.327200 26.602100
vn -0.814289 0.574604 -0.082239
v 9.223240 -26.738300 -0.410079
vn -0.814289 0.574604 -0.082239
v 9.223080 -2.463450 -0.410078
vn -0.672539 -0.733217 -0.100421
v 8.908530 -5.874520 26.602100
vn -0.672539 -0.733217 -0.100421
v 8.908530 -5.874520 26.602100
vn -0.807817 -0.572289 -0.141128
v -9.173070 -26.738300 -0.410079
vn 0.674419 0.731492 -0.100388
v -8.852040 -23.327200 26.602100
vn 0.674419 0.731492 -0.100388
v -8.852040 -23.327200 26.602100
vn 0.808887 0.570785 -0.141091
v 5.879080 -5.415340 -41.359200
vn -0.612011 -0.667222 0.424568
v 4.882850 -7.622180 -46.263302
vn -0.612005 -0.667224 0.424574
v 5.879080 -5.415340 -41.359200
vn -0.612005 -0.667224 0.424574
v -5.829070 -21.622499 -41.359200
vn 0.613684 0.665630 0.424652
v -4.829210 -19.415701 -46.263302
vn 0.613689 0.665628 0.424647
v -5.829070 -21.622499 -41.359200
vn 0.613689 0.665628 0.424647
v -5.828910 -5.415340 -41.359200
vn 0.612005 -0.667224 0.424574
v -4.832680 -7.622180 -46.263302
vn 0.612005 -0.667224 0.424574
v -4.832680 -7.622180 -46.263302
vn 0.612005 -0.667223 0.424574
v 5.879240 -21.622499 -41.359200
vn -0.613690 0.665628 0.424647
v 4.879380 -19.415701 -46.263302
vn -0.613690 0.665628 0.424647
v 4.879380 -19.415701 -46.263302
vn -0.613689 0.665628 0.424646
v 30.428699 -18.122299 -7.914380
vn 0.593010 0.784808 -0.180045
v 26.282301 -18.304501 -22.365499
vn 0.593010 0.784808 -0.180045
v 30.428699 -18.122299 -7.914380
vn 0.000000 0.974453 -0.224591
v 49.064999 -18.122299 -7.914380
vn 0.000000 0.974453 -0.224591
v 30.428699 -18.122299 -7.914380
vn 0.000000 0.974453 -0.224591
v 53.211399 -18.304501 -22.365499
vn -0.593010 0.784808 -0.180045
v 49.064999 -18.122299 -7.914380
vn -0.593010 0.784808 -0.180045
v 26.282301 -18.304501 -22.365499
vn 0.603143 0.797633 -0.000241
v 26.282301 -18.304501 -22.365499
vn 0.604578 0.796546 0.000000
v 26.282301 -18.304501 -61.302502
vn 0.604578 0.796546 0.000000
v 53.211399 -18.304501 -61.302502
vn -0.603144 0.797632 0.000000
v 53.211399 -18.304501 -22.365499
vn -0.603144 0.797632 0.000000
v 53.211399 -18.304501 -61.302502
vn -0.604576 0.796547 -0.000241
v 26.282301 -18.304501 -61.302502
vn 0.600368 0.788782 0.131840
v 30.421101 -18.159800 -81.015297
vn 0.600368 0.788782 0.131840
v 49.072701 -18.159800 -81.015297
vn 0.000000 0.986143 0.165897
v 49.072701 -18.159800 -81.015297
vn 0.000000 0.986143 0.165897
v 30.421101 -18.159800 -81.015297
vn 0.000000 0.986143 0.165897
v 49.072701 -18.159800 -81.015297
vn -0.600369 0.788782 0.131837
v 53.211399 -18.304501 -61.302502
vn -0.600369 0.788782 0.131837
v -26.232201 -18.304501 -22.365499
vn -0.593019 0.784801 -0.180043
v -30.378500 -18.122299 -7.914380
vn -0.593019 0.784801 -0.180043
v -30.378500 -18.122299 -7.914380
vn 0.000000 0.974453 -0.224591
v -49.014900 -18.122299 -7.914380
vn 0.000000 0.974453 -0.224591
v -30.378500 -18.122299 -7.914380
vn 0.000000 0.974453 -0.224590
v -53.161201 -18.304501 -22.365499
vn 0.593019 0.784801 -0.180043
v -49.014900 -18.122299 -7.914380
vn 0.593019 0.784801 -0.180043
v -26.232201 -18.304501 -22.365499
vn -0.603153 0.797626 -0.000241
v -26.232201 -18.304501 -61.302502
vn -0.604587 0.796539 0.000000
v -26.232201 -18.304501 -22.365499
vn -0.604587 0.796539 0.000000
v -53.161201 -18.304501 -22.365499
vn 0.603153 0.797626 0.000000
v -53.161201 -18.304501 -61.302502
vn 0.603153 0.797626 0.000000
v -53.161201 -18.304501 -61.302502
vn 0.604585 0.796541 -0.000241
v -26.232201 -18.304501 -61.302502
vn -0.600377 0.788775 0.131839
v -30.370899 -18.159800 -81.015297
vn -0.600377 0.788775 0.131839
v -49.022499 -18.159800 -81.015297
vn 0.000000 0.986143 0.165897
v -49.022499 -18.159800 -81.015297
vn 0.000000 0.986143 0.165897
v -30.370899 -18.159800 -81.015297
vn 0.000000 0.986143 0.165897
v -53.161201 -18.304501 -61.302502
vn 0.600377 0.788775 0.131839
v -49.022499 -18.159800 -81.015297
vn 0.600377 0.788775 0.131839
v 30.428699 -10.181500 -8.083980
vn 0.622082 -0.762792 -0.176529
v 26.282301 -10.250700 -22.396700
vn 0.622082 -0.762792 -0.176529
v 30.428699 -10.181500 -8.083980
vn 0.000000 -0.974000 -0.226548
v 30.428699 -10.181500 -8.083980
vn 0.000000 -0.974000 -0.226548
v 49.064999 -10.181500 -8.083980
vn 0.000000 -0.974000 -0.226548
v 49.064999 -10.181500 -8.083980
vn -0.622082 -0.762792 -0.176529
v 53.211399 -10.250700 -22.396700
vn -0.622082 -0.762792 -0.176529
v 26.282301 -10.250700 -22.396700
vn 0.629021 -0.777388 -0.000781
v 26.282301 -10.211700 -61.219601
vn 0.629021 -0.777388 -0.000781
v 26.282301 -10.250700 -22.396700
vn 0.629702 -0.776837 -0.000659
v 53.211399 -10.211700 -61.219601
vn -0.629021 -0.777388 -0.000660
v 53.211399 -10.211700 -61.219601
vn -0.629703 -0.776835 -0.000780
v 53.211399 -10.250700 -22.396700
vn -0.629703 -0.776835 -0.000780
v 30.421101 -10.190300 -81.032204
vn 0.623727 -0.770846 0.129462
v 26.282301 -10.211700 -61.219601
vn 0.623727 -0.770846 0.129462
v 49.072701 -10.190300 -81.032097
vn -0.000001 -0.986003 0.166725
v 30.421101 -10.190300 -81.032204
vn -0.000001 -0.986003 0.166725
v 49.072701 -10.190300 -81.032097
vn 0.000000 -0.986003 0.166726
v 49.072701 -10.190300 -81.032097
vn -0.623728 -0.770846 0.129460
v 53.211399 -10.211700 -61.219601
vn -0.623728 -0.770846 0.129460
v -30.378500 -10.181500 -8.083980
vn -0.622091 -0.762785 -0.176528
v -26.232201 -10.250700 -22.396700
vn -0.622091 -0.762785 -0.176528
v -30.378500 -10.181500 -8.083980
vn 0.000000 -0.974000 -0.226548
v -49.014900 -10.181500 -8.083980
vn 0.000000 -0.974000 -0.226548
v -30.378500 -10.181500 -8.083980
vn 0.000000 -0.974000 -0.226548
v -49.014900 -10.181500 -8.083980
vn 0.622091 -0.762785 -0.176528
v -53.161201 -10.250700 -22.396700
vn 0.622091 -0.762785 -0.176528
v -26.232201 -10.250700 -22.396700
vn -0.629030 -0.777381 -0.000781
v -26.232201 -10.211700 -61.219601
vn -0.629030 -0.777381 -0.000781
v -26.232201 -10.250700 -22.396700
vn -0.629711 -0.776829 -0.000659
v -53.161201 -10.211700 -61.219601
vn 0.629030 -0.777381 -0.000660
v -53.161201 -10.211700 -61.219601
vn 0.629712 -0.776828 -0.000780
v -53.161201 -10.250700 -22.396700
vn 0.629712 -0.776828 -0.000780
v -30.370899 -10.190300 -81.032204
vn -0.623737 -0.770839 0.129461
v -26.232201 -10.211700 -61.219601
vn -0.623737 -0.770839 0.129461
v -30.370899 -10.190300 -81.032204
vn 0.000001 -0.986003 0.166725
v -49.022499 -10.190300 -81.032097
vn 0.000001 -0.986003 0.166725
v -49.022499 -10.190300 -81.032097
vn 0.000000 -0.986003 0.166726
v -49.022499 -10.190300 -81.032097
vn 0.623736 -0.770839 0.129462
v -53.161201 -10.211700 -61.219601
vn 0.623736 -0.770839 0.129462
v -49.022499 -10.190300 -81.032097
vn 0.000002 0.962105 0.272681
v -30.370899 -10.190300 -81.032204
vn 0.000002 0.962105 0.272681
v -49.022499 -10.190300 -81.032097
vn 0.000000 0.962104 0.272683
v -30.370899 -18.159800 -81.015297
vn 0.000000 -0.960939 0.276761
v -49.022499 -18.159800 -81.015297
vn 0.000000 -0.960939 0.276761
v -30.370899 -18.159800 -81.015297
vn 0.000000 -0.960939 0.276761
v -49.022499 -18.159800 -81.015297
vn -0.961524 0.000579 0.274722
v -49.022499 -10.190300 -81.032097
vn -0.961524 0.000579 0.274722
v -49.022499 -18.159800 -81.015297
vn -0.961524 0.000580 0.274721
v -30.370899 -10.190300 -81.032204
vn 0.961524 0.000583 0.274720
v -30.370899 -18.159800 -81.015297
vn 0.961524 0.000583 0.274720
v -30.370899 -10.190300 -81.032204
vn 0.961524 0.000580 0.274719
v 49.072701 -10.190300 -81.032097
vn -0.000002 0.962105 0.272681
v 30.421101 -10.190300 -81.032204
vn -0.000002 0.962105 0.272681
v 49.072701 -10.190300 -81.032097
vn 0.000000 0.962104 0.272683
v 30.421101 -18.159800 -81.015297
vn 0.000000 -0.960939 0.276761
v 49.072701 -18.159800 -81.015297
vn 0.000000 -0.960939 0.276761
v 30.421101 -18.159800 -81.015297
vn 0.000000 -0.960939 0.276761
v 49.072701 -18.159800 -81.015297
vn 0.961524 0.000579 0.274722
v 49.072701 -10.190300 -81.032097
vn 0.961524 0.000579 0.274722
v 49.072701 -18.159800 -81.015297
vn 0.961524 0.000580 0.274721
v 30.421101 -10.190300 -81.032204
vn -0.961524 0.000583 0.274720
v 30.421101 -18.159800 -81.015297
vn -0.961524 0.000583 0.274720
v 30.421101 -10.190300 -81.032204
vn -0.961524 0.000580 0.274719
v -4.832680 -7.622180 -46.263302
vn 0.000000 0.000000 1.000000
v 9.150670 -11.536800 -46.263302
vn 0.000000 0.000000 1.000000
v 9.150670 -15.477700 -46.263302
vn 0.000000 0.000000 1.000000
v 4.879380 -19.415701 -46.263302
vn 0.000000 0.000000 1.000000
v -9.100500 -15.477700 -46.263302
vn 0.000000 0.000000 1.000000
v -9.100500 -11.536800 -46.263302
vn 0.000000 0.000000 1.000000
v -4.832680 -7.622180 -46.263302
vn 0.000000 0.000000 1.000000
v 4.882850 -7.622180 -46.263302
vn 0.000000 0.000000 1.000000
v 9.150670 -11.536800 -46.263302
vn 0.000000 0.000000 1.000000
v 4.879380 -19.415701 -46.263302
vn 0.000000 0.000000 1.000000
v -4.829210 -19.415701 -46.263302
vn 0.000000 0.000000 1.000000
v -9.100500 -15.477700 -46.263302
vn 0.000000 0.000000 1.000000
v -9.100500 -11.536800 -46.263302
vn 0.000000 0.000000 1.000000
v -4.832680 -7.622180 -46.263302
vn 0.000000 0.000000 1.000000
v 4.879380 -19.415701 -46.263302
vn 0.000000 0.000000 1.000000
v 9.150670 -15.477700 -46.263302
vn 0.000000 0.000000 1.000000
v 4.879380 -19.415701 -46.263302
vn 0.000000 0.000000 1.000000
v -4.832680 -7.622180 -46.263302
vn 0.000000 0.000000 1.000000
v -30.378500 -10.181500 -8.083980
vn 0.000000 -0.021353 -0.999772
v -49.014900 -10.181500 -8.083980
vn 0.000000 -0.021353 -0.999772
v -49.014900 -18.122299 -7.914380
vn 0.000000 -0.021353 -0.999772
v -49.014900 -18.122299 -7.914380
vn 0.000000 -0.021353 -0.999772
v -30.378500 -18.122299 -7.914380
vn 0.000000 -0.021353 -0.999772
v -30.378500 -10.181500 -8.083980
vn 0.000000 -0.021353 -0.999772
v 30.428699 -10.181500 -8.083980
vn 0.000000 -0.021353 -0.999772
v 49.064999 -18.122299 -7.914380
vn 0.000000 -0.021353 -0.999772
v 49.064999 -10.181500 -8.083980
vn 0.000000 -0.021353 -0.999772
v 49.064999 -18.122299 -7.914380
vn 0.000000 -0.021353 -0.999772
v 30.428699 -10.181500 -8.083980
vn 0.000000 -0.021353 -0.999772
v 30.428699 -18.122299 -7.914380
vn 0.000000 -0.021353 -0.999772
v 8.908530 -5.874520 26.602100
vn 0.000000 0.000000 -1.000000
v -11.131900 -9.083790 26.602100
vn 0.000000 0.000000 -1.000000
v -11.131900 -20.096300 26.602100
vn 0.000000 0.000000 -1.000000
v -8.852040 -23.327200 26.602100
vn 0.000000 0.000000 -1.000000
v 11.182100 -20.096300 26.602100
vn 0.000000 0.000000 -1.000000
v 11.182100 -9.083790 26.602100
vn 0.000000 0.000000 -1.000000
v 8.908530 -5.874520 26.602100
vn 0.000000 0.000000 -1.000000
v -8.858370 -5.874520 26.602100
vn 0.000000 0.000000 -1.000000
v -11.131900 -9.083790 26.602100
vn 0.000000 0.000000 -1.000000
v -8.852040 -23.327200 26.602100
vn 0.000000 0.000000 -1.000000
v 8.902210 -23.327200 26.602100
vn 0.000000 0.000000 -1.000000
v 11.182100 -20.096300 26.602100
vn 0.000000 0.000000 -1.000000
v 11.182100 -9.083790 26.602100
vn 0.000000 0.000000 -1.000000
v 8.908530 -5.874520 26.602100
vn 0.000000 0.000000 -1.000000
v -8.852040 -23.327200 26.602100
vn 0.000000 0.000000 -1.000000
v -11.131900 -20.096300 26.602100
vn 0.000000 0.000000 -1.000000
v -8.852040 -23.327200 26.602100
vn 0.000000 0.000000 -1.000000
v 8.908530 -5.874520 26.602100
vn 0.000000 0.000000 -1.000000
v -5.165950 -15.084400 -92.615997
vn 0.000000 0.000000 1.000000
v -7.559950 -15.084400 -92.615997
vn 0.000000 0.000000 1.000000
v -7.559950 -13.261300 -92.615997
vn 0.000000 0.000000 1.000000
v -7.559950 -13.261300 -92.615997
vn 0.000000 0.000000 1.000000
v -5.165950 -13.261300 -92.615997
vn 0.000000 0.000000 1.000000
v -5.165950 -15.084400 -92.615997
vn 0.000000 0.000000 1.000000
v -5.165950 -15.084400 31.565701
vn -1.000000 0.000000 0.000000
v -5.165950 -15.084400 -92.615997
vn -1.000000 0.000000 0.000000
v -5.165950 -13.261300 -92.615997
vn -1.000000 0.000000 0.000000
v -5.165950 -13.261300 -92.615997
vn -1.000000 0.000000 0.000000
v -5.165950 -13.261300 31.565701
vn -1.000000 0.000000 0.000000
v -5.165950 -15.084400 31.565701
vn -1.000000 0.000000 0.000000
v -7.559950 -15.084400 -92.615997
vn 0.988079 0.000000 0.153949
v -17.559900 -15.084400 -28.434299
vn 0.988079 0.000000 0.153949
v -17.559900 -13.261300 -28.434299
vn 0.988079 0.000000 0.153949
v -17.559900 -13.261300 -28.434299
vn 0.988079 0.000000 0.153949
v -7.559950 -13.261300 -92.615997
vn 0.988079 0.000000 0.153949
v -7.559950 -15.084400 -92.615997
vn 0.988079 0.000000 0.153949
v -9.974920 -15.084400 31.565701
vn 0.000000 0.000000 -1.000000
v -5.165950 -15.084400 31.565701
vn 0.000000 0.000000 -1.000000
v -5.165950 -13.261300 31.565701
vn 0.000000 0.000000 -1.000000
v -5.165950 -13.261300 31.565701
vn 0.000000 0.000000 -1.000000
v -9.974920 -13.261300 31.565701
vn 0.000000 0.000000 -1.000000
v -9.974920 -15.084400 31.565701
vn 0.000000 0.000000 -1.000000
v -89.974899 -15.084400 1.565730
vn 0.351123 0.000000 -0.936329
v -9.974920 -15.084400 31.565701
vn 0.351123 0.000000 -0.936329
v -9.974920 -13.261300 31.565701
vn 0.351123 0.000000 -0.936329
v -9.974920 -13.261300 31.565701
vn 0.351123 0.000000 -0.936329
v -89.974899 -13.261300 1.565730
vn 0.351123 0.000000 -0.936329
v -89.974899 -15.084400 1.565730
vn 0.351123 0.000000 -0.936329
v -17.559900 -15.084400 -28.434299
vn 0.136795 0.000000 0.990599
v -89.974899 -15.084400 -18.434299
vn 0.136795 0.000000 0.990599
v -89.974899 -13.261300 -18.434299
vn 0.136795 0.000000 0.990599
v -89.974899 -13.261300 -18.434299
vn 0.136795 0.000000 0.990599
v -17.559900 -13.261300 -28.434299
vn 0.136795 0.000000 0.990599
v -17.559900 -15.084400 -28.434299
vn 0.136795 0.000000 0.990599
v -89.974899 -15.084400 -18.434299
vn 1.000000 0.000000 0.000000
v -89.974899 -15.084400 1.565730
vn 1.000000 0.000000 0.000000
v -89.974899 -13.261300 1.565730
vn 1.000000 0.000000 0.000000
v -89.974899 -13.261300 1.565730
vn 1.000000 0.000000 0.000000
v -89.974899 -13.261300 -18.434299
vn 1.000000 0.000000 0.000000
v -89.974899 -15.084400 -18.434299
vn 1.000000 0.000000 0.000000
v 5.216110 -15.084400 -92.615997
vn 0.000000 0.000000 1.000000
v 7.610110 -13.261300 -92.615997
vn 0.000000 0.000000 1.000000
v 7.610110 -15.084400 -92.615997
vn 0.000000 0.000000 1.000000
v 7.610110 -13.261300 -92.615997
vn 0.000000 0.000000 1.000000
v 5.216110 -15.084400 -92.615997
vn 0.000000 0.000000 1.000000
v 5.216110 -13.261300 -92.615997
vn 0.000000 0.000000 1.000000
v 5.216110 -15.084400 31.565701
vn 1.000000 0.000000 0.000000
v 5.216110 -13.261300 -92.615997
vn 1.000000 0.000000 0.000000
v 5.216110 -15.084400 -92.615997
vn 1.000000 0.000000 0.000000
v 5.216110 -13.261300 -92.615997
vn 1.000000 0.000000 0.000000
v 5.216110 -15.084400 31.565701
vn 1.000000 0.000000 0.000000
v 5.216110 -13.261300 31.565701
vn 1.000000 0.000000 0.000000
v 7.610110 -15.084400 -92.615997
vn -0.988079 0.000000 0.153950
v 17.610100 -13.261300 -28.434299
vn -0.988079 0.000000 0.153950
v 17.610100 -15.084400 -28.434299
vn -0.988079 0.000000 0.153950
v 17.610100 -13.261300 -28.434299
vn -0.988079 0.000000 0.153950
v 7.610110 -15.084400 -92.615997
vn -0.988079 0.000000 0.153950
v 7.610110 -13.261300 -92.615997
vn -0.988079 0.000000 0.153950
v 10.025100 -15.084400 31.565701
vn 0.000000 0.000000 -1.000000
v 5.216110 -13.261300 31.565701
vn 0.000000 0.000000 -1.000000
v 5.216110 -15.084400 31.565701
vn 0.000000 0.000000 -1.000000
v 5.216110 -13.261300 31.565701
vn 0.000000 0.000000 -1.000000
v 10.025100 -15.084400 31.565701
vn 0.000000 0.000000 -1.000000
v 10.025100 -13.261300 31.565701
vn 0.000000 0.000000 -1.000000
v 90.025101 -15.084400 1.565730
vn -0.351123 0.000000 -0.936329
v 10.025100 -13.261300 31.565701
vn -0.351123 0.000000 -0.936329
v 10.025100 -15.084400 31.565701
vn -0.351123 0.000000 -0.936329
v 10.025100 -13.261300 31.565701
vn -0.351123 0.000000 -0.936329
v 90.025101 -15.084400 1.565730
vn -0.351123 0.000000 -0.936329
v 90.025101 -13.261300 1.565730
vn -0.351123 0.000000 -0.936329
v 17.610100 -15.084400 -28.434299
vn -0.136795 0.000000 0.990599
v 90.025101 -13.261300 -18.434299
vn -0.136795 0.000000 0.990599
v 90.025101 -15.084400 -18.434299
vn -0.136795 0.000000 0.990599
v 90.025101 -13.261300 -18.434299
vn -0.136795 0.000000 0.990599
v 17.610100 -15.084400 -28.434299
vn -0.136795 0.000000 0.990599
v 17.610100 -13.261300 -28.434299
vn -0.136795 0.000000 0.990599
v 90.025101 -15.084400 -18.434299
vn -1.000000 0.000000 0.000000
v 90.025101 -13.261300 1.565730
vn -1.000000 0.000000 0.000000
v 90.025101 -15.084400 1.565730
vn -1.000000 0.000000 0.000000
v 90.025101 -13.261300 1.565730
vn -1.000000 0.000000 0.000000
v 90.025101 -15.084400 -18.434299
vn -1.000000 0.000000 0.000000
v 90.025101 -13.261300 -18.434299
vn -1.000000 0.000000 0.000000
v -0.724918 2.413470 24.842699
vn 0.000000 0.993747 -0.111657
v -0.724918 -3.496010 -27.751699
vn 0.000000 0.993747 -0.111657
v 0.775082 -3.496010 -27.751699
vn 0.000000 0.993747 -0.111657
v 0.775082 -3.496010 -27.751699
vn 0.000000 0.993747 -0.111657
v 0.775082 2.413470 24.842699
vn 0.000000 0.993747 -0.111657
v -0.724918 2.413470 24.842699
vn 0.000000 0.993747 -0.111657
v -0.724918 22.111799 14.599600
vn 0.000000 -0.461352 -0.887217
v -0.724918 2.413470 24.842699
vn 0.000000 -0.461352 -0.887217
v 0.775082 2.413470 24.842699
vn 0.000000 -0.461352 -0.887217
v 0.775082 2.413470 24.842699
vn 0.000000 -0.461352 -0.887217
v 0.775082 22.111799 14.599600
vn 0.000000 -0.461352 -0.887217
v -0.724918 22.111799 14.599600
vn 0.000000 -0.461352 -0.887217
v -0.724918 -3.496010 -27.751699
vn 0.000000 0.336332 0.941743
v -0.724918 2.019510 -29.721500
vn 0.000000 0.336332 0.941743
v 0.775082 2.019510 -29.721500
vn 0.000000 0.336332 0.941743
v 0.775082 2.019510 -29.721500
vn 0.000000 0.336332 0.941743
v 0.775082 -3.496010 -27.751699
vn 0.000000 0.336332 0.941743
v -0.724918 -3.496010 -27.751699
vn 0.000000 0.336332 0.941743
v -0.724918 2.019510 -29.721500
vn 0.000000 -0.432120 0.901816
v -0.724918 58.750599 -2.537890
vn 0.000000 -0.432120 0.901816
v 0.775082 58.750599 -2.537890
vn 0.000000 -0.432120 0.901816
v 0.775082 58.750599 -2.537890
vn 0.000000 -0.432120 0.901816
v 0.775082 2.019510 -29.721500
vn 0.000000 -0.432120 0.901816
v -0.724918 2.019510 -29.721500
vn 0.000000 -0.432120 0.901816
v -0.724918 57.568699 12.826800
vn 0.000000 -0.049936 -0.998752
v -0.724918 22.111799 14.599600
vn 0.000000 -0.049936 -0.998752
v 0.775082 22.111799 14.599600
vn 0.000000 -0.049936 -0.998752
v 0.775082 22.111799 14.599600
vn 0.000000 -0.049936 -0.998752
v 0.775082 57.568699 12.826800
vn 0.000000 -0.049936 -0.998752
v -0.724918 57.568699 12.826800
vn 0.000000 -0.049936 -0.998752
v -0.724918 58.750599 -2.537890
vn 0.000000 -0.997055 -0.076697
v -0.724918 57.568699 12.826800
vn 0.000000 -0.997055 -0.076697
v 0.775082 57.568699 12.826800
vn 0.000000 -0.997055 -0.076697
v 0.775082 57.568699 12.826800
vn 0.000000 -0.997055 -0.076697
v 0.775082 58.750599 -2.537890
vn 0.000000 -0.997055 -0.076697
v -0.724918 58.750599 -2.537890
vn 0.000000 -0.997055 -0.076697
v -46.436699 -12.756900 -71.976402
vn 0.000000 0.002111 0.999998
v -32.956699 -12.756900 -71.976402
vn 0.000000 0.002111 0.999998
v -32.956699 -15.554800 -71.970497
vn 0.000000 0.002111 0.999998
v -32.956699 -15.554800 -71.970497
vn 0.000000 0.002111 0.999998
v -46.436699 -15.554800 -71.970497
vn 0.000000 0.002111 0.999998
v -46.436699 -12.756900 -71.976402
vn 0.000000 0.002111 0.999998
v 46.486900 -12.756900 -71.976402
vn 0.000000 0.002111 0.999998
v 33.006901 -15.554800 -71.970497
vn 0.000000 0.002111 0.999998
v 33.006901 -12.756900 -71.976402
vn 0.000000 0.002111 0.999998
v 33.006901 -15.554800 -71.970497
vn 0.000000 0.002111 0.999998
v 46.486900 -12.756900 -71.976402
vn 0.000000 0.002111 0.999998
v 46.486900 -15.554800 -71.970497
vn 0.000000 0.002111 0.999998
vt 0.601989 0.639958
vt 0.608629 0.491028
vt 0.637428 0.489644
f 1/1/1 3/2/3 4/3/4
vt 0.601989 0.639958
vt 0.637428 0.489644
vt 0.608629 0.491028
f 2/4/2 5/5/5 6/6/6
vt 0.608629 0.491028
vt 0.599837 0.243200
vt 0.626700 0.243199
f 3/7/3 7/8/7 8/9/8
vt 0.626700 0.243199
vt 0.637428 0.489644
vt 0.608629 0.491028
f 8/10/8 4/11/4 3/12/3
vt 0.637428 0.489644
vt 0.626700 0.243199
vt 0.599837 0.243199
f 5/13/5 9/14/9 10/15/10
vt 0.599837 0.243199
vt 0.608629 0.491028
vt 0.637428 0.489644
f 10/16/10 6/17/6 5/18/5
vt 0.598948 0.054158
vt 0.626700 0.243199
vt 0.599837 0.243200
f 11/19/11 8/20/8 7/21/7
vt 0.598948 0.054158
vt 0.599837 0.243199
vt 0.626700 0.243199
f 12/22/12 10/23/10 9/24/9
vt 0.502675 0.455702
vt 0.529576 0.504141
vt 0.527780 0.639620
f 16/25/16 15/26/15 38/27/38
vt 0.529576 0.504141
vt 0.502675 0.455703
vt 0.530387 0.639574
f 18/28/18 17/29/17 39/30/39
vt 0.529576 0.504141
vt 0.502675 0.455702
vt 0.504375 0.186658
f 15/31/15 16/32/16 20/33/20
vt 0.504375 0.186658
vt 0.529576 0.242820
vt 0.529576 0.504141
f 20/34/20 19/35/19 15/36/15
vt 0.502675 0.455703
vt 0.529576 0.504141
vt 0.529576 0.242820
f 17/37/17 18/38/18 22/39/22
vt 0.529576 0.242820
vt 0.504375 0.186658
vt 0.502675 0.455703
f 22/40/22 21/41/21 17/42/17
vt 0.529576 0.242820
vt 0.504375 0.186658
vt 0.532577 0.007529
f 19/43/19 20/44/20 23/45/23
vt 0.504375 0.186658
vt 0.529576 0.242820
vt 0.532577 0.007529
f 21/46/21 22/47/22 24/48/24
vt 0.601989 0.639958
vt 0.601989 0.639958
vt 0.549392 0.654058
f 1/49/1 2/50/2 14/51/14
vt 0.549392 0.654058
vt 0.549392 0.654058
vt 0.601989 0.639958
f 14/52/14 37/53/37 1/54/1
vt 0.601989 0.639958
vt 0.608629 0.491028
vt 0.529576 0.504141
f 2/55/2 6/56/6 18/57/18
vt 0.529576 0.504141
vt 0.549392 0.654058
vt 0.601989 0.639958
f 18/58/18 14/59/14 2/60/2
vt 0.608629 0.491028
vt 0.599837 0.243199
vt 0.529576 0.242820
f 6/61/6 10/62/10 22/63/22
vt 0.529576 0.242820
vt 0.529576 0.504141
vt 0.608629 0.491028
f 22/64/22 18/65/18 6/66/6
vt 0.599837 0.243199
vt 0.598948 0.054158
vt 0.532577 0.007529
f 10/67/10 12/68/12 24/69/24
vt 0.532577 0.007529
vt 0.529576 0.242820
vt 0.599837 0.243199
f 24/70/24 22/71/22 10/72/10
vt 0.598948 0.054158
vt 0.599837 0.243200
vt 0.529576 0.242820
f 11/73/11 7/74/7 19/75/19
vt 0.529576 0.242820
vt 0.532577 0.007529
vt 0.598948 0.054158
f 19/76/19 23/77/23 11/78/11
vt 0.599837 0.243200
vt 0.608629 0.491028
vt 0.529576 0.504141
f 7/79/7 3/80/3 15/81/15
vt 0.529576 0.504141
vt 0.529576 0.242820
vt 0.599837 0.243200
f 15/82/15 19/83/19 7/84/7
vt 0.608629 0.491028
vt 0.601989 0.639958
vt 0.549392 0.654058
f 3/85/3 1/86/1 37/87/37
vt 0.530387 0.639574
vt 0.529576 0.504141
vt 0.608629 0.491028
f 13/88/13 15/89/15 3/90/3
vt 0.504375 0.186658
vt 0.502675 0.455702
vt 0.494436 0.448855
f 20/91/20 16/92/16 25/93/25
vt 0.494436 0.448855
vt 0.496679 0.189687
vt 0.504375 0.186658
f 25/94/25 27/95/27 20/96/20
vt 0.502675 0.455703
vt 0.504375 0.186658
vt 0.496679 0.189687
f 17/97/17 21/98/21 28/99/28
vt 0.496679 0.189687
vt 0.494436 0.448855
vt 0.502675 0.455703
f 28/100/28 26/101/26 17/102/17
vt 0.626700 0.243199
vt 0.598948 0.054158
vt 0.612028 0.062905
f 8/103/8 11/104/11 31/105/31
vt 0.612028 0.062905
vt 0.636707 0.231011
vt 0.626700 0.243199
f 31/106/31 29/107/29 8/108/8
vt 0.598948 0.054158
vt 0.626700 0.243199
vt 0.636707 0.231011
f 12/109/12 9/110/9 30/111/30
vt 0.636707 0.231011
vt 0.612028 0.062905
vt 0.598948 0.054158
f 30/112/30 32/113/32 12/114/12
vt 0.636707 0.231011
vt 0.612028 0.062905
vt 0.665255 0.088004
f 29/115/29 31/116/31 35/117/35
vt 0.665255 0.088004
vt 0.680443 0.191459
vt 0.636707 0.231011
f 35/118/35 33/119/33 29/120/29
vt 0.612028 0.062905
vt 0.636707 0.231011
vt 0.680443 0.191459
f 32/121/32 30/122/30 34/123/34
vt 0.680443 0.191459
vt 0.665255 0.088004
vt 0.612028 0.062905
f 34/124/34 36/125/36 32/126/32
vt 0.530387 0.639574
vt 0.549392 0.654058
vt 0.527780 0.639620
f 13/127/13 37/128/37 38/129/38
vt 0.549392 0.654058
vt 0.530387 0.639574
vt 0.527780 0.639620
f 14/130/14 39/131/39 40/132/40
vt 0.527780 0.639620
vt 0.529576 0.504141
vt 0.530387 0.639574
f 38/133/38 15/134/15 13/135/13
vt 0.530387 0.639574
vt 0.502675 0.455703
vt 0.527780 0.639620
f 39/136/39 17/137/17 40/138/40
vt 0.529576 0.504141
vt 0.530387 0.639574
vt 0.549392 0.654058
f 18/139/18 39/140/39 14/141/14
vt 0.527780 0.639620
vt 0.549392 0.654058
vt 0.527780 0.639620
f 38/142/38 37/143/37 40/144/40
vt 0.549392 0.654058
vt 0.527780 0.639620
vt 0.549392 0.654058
f 14/145/14 40/146/40 37/147/37
vt 0.608629 0.491028
vt 0.549392 0.654058
vt 0.530387 0.639574
f 3/148/3 37/149/37 13/150/13
vt 0.288179 0.974321
vt 0.288610 0.904856
vt 0.338635 0.905007
f 42/151/42 44/152/44 52/153/52
vt 0.338635 0.905007
vt 0.337503 0.975145
vt 0.288179 0.974321
f 52/154/52 50/155/50 42/156/42
vt 0.288610 0.904856
vt 0.288367 0.716431
vt 0.338635 0.716029
f 44/157/44 46/158/46 54/159/54
vt 0.338635 0.716029
vt 0.338635 0.905007
vt 0.288610 0.904856
f 54/160/54 52/161/52 44/162/44
vt 0.288367 0.716431
vt 0.288234 0.620273
vt 0.337736 0.620355
f 46/163/46 48/164/48 56/165/56
vt 0.337736 0.620355
vt 0.338635 0.716029
vt 0.288367 0.716431
f 56/166/56 54/167/54 46/168/46
vt 0.288234 0.620273
vt 0.288367 0.716431
vt 0.338635 0.716029
f 47/169/47 45/170/45 53/171/53
vt 0.338635 0.716029
vt 0.337736 0.620355
vt 0.288234 0.620273
f 53/172/53 55/173/55 47/174/47
vt 0.288367 0.716431
vt 0.288610 0.904856
vt 0.338635 0.905007
f 45/175/45 43/176/43 51/177/51
vt 0.338635 0.905007
vt 0.338635 0.716029
vt 0.288367 0.716431
f 51/178/51 53/179/53 45/180/45
vt 0.288610 0.904856
vt 0.288179 0.974321
vt 0.337503 0.975145
f 43/181/43 41/182/41 49/183/49
vt 0.337503 0.975145
vt 0.338635 0.905007
vt 0.288610 0.904856
f 49/184/49 51/185/51 43/186/43
vt 0.626380 0.656677
vt 0.350022 0.689463
vt 0.399602 0.787694
f 68/187/68 63/188/63 64/189/64
vt 0.399602 0.787694
vt 0.409950 0.978031
vt 0.499628 0.984078
f 64/190/64 65/191/65 66/192/66
vt 0.399602 0.787694
vt 0.499628 0.984078
vt 0.637878 0.684896
f 64/193/64 66/194/66 67/195/67
vt 0.626380 0.656677
vt 0.399602 0.787694
vt 0.637878 0.684896
f 68/196/68 64/197/64 67/198/67
vt 0.626380 0.656677
vt 0.637878 0.684896
vt 0.499628 0.984078
f 62/199/62 61/200/61 60/201/60
vt 0.499628 0.984078
vt 0.409950 0.978031
vt 0.399602 0.787694
f 60/202/60 59/203/59 58/204/58
vt 0.626380 0.656677
vt 0.499628 0.984078
vt 0.399602 0.787694
f 62/205/62 60/206/60 58/207/58
vt 0.626380 0.656677
vt 0.399602 0.787694
vt 0.350022 0.689463
f 62/208/62 58/209/58 57/210/57
vt 0.818827 0.680804
vt 0.857279 0.680804
vt 0.857221 0.505661
f 213/211/213 214/212/214 215/213/215
vt 0.857221 0.505661
vt 0.818885 0.505661
vt 0.818827 0.680804
f 216/214/216 217/215/217 218/216/218
vt 0.823590 0.499140
vt 0.852516 0.499140
vt 0.852517 0.248743
f 219/217/219 220/218/220 221/219/221
vt 0.852517 0.248743
vt 0.823590 0.248743
vt 0.823590 0.499140
f 222/220/222 223/221/223 224/222/224
vt 0.818885 0.242264
vt 0.857221 0.242264
vt 0.857310 0.075995
f 225/223/225 226/224/226 227/225/227
vt 0.857310 0.075995
vt 0.818797 0.075995
vt 0.818885 0.242264
f 228/226/228 229/227/229 230/228/230
vt 0.818885 0.505661
vt 0.857221 0.505661
vt 0.852516 0.499140
f 231/229/231 232/230/232 233/231/233
vt 0.852516 0.499140
vt 0.823590 0.499140
vt 0.818885 0.505661
f 234/232/234 235/233/235 236/234/236
vt 0.857221 0.242264
vt 0.818885 0.242264
vt 0.823590 0.248743
f 237/235/237 238/236/238 239/237/239
vt 0.823590 0.248743
vt 0.852517 0.248743
vt 0.857221 0.242264
f 240/238/240 241/239/241 242/240/242
vt 0.800061 0.222665
vt 0.876045 0.222665
vt 0.862233 0.044298
f 69/241/69 70/242/70 72/243/72
vt 0.862233 0.044298
vt 0.813874 0.044298
vt 0.800061 0.222665
f 72/244/72 71/245/71 69/246/69
vt 0.876045 0.222665
vt 0.800061 0.222665
vt 0.801387 0.340325
f 70/247/70 69/248/69 73/249/73
vt 0.801387 0.340325
vt 0.874719 0.340325
vt 0.876045 0.222665
f 73/250/73 74/251/74 70/252/70
vt 0.813874 0.044298
vt 0.862233 0.044298
vt 0.858104 0.022937
f 71/253/71 72/254/72 76/255/76
vt 0.858104 0.022937
vt 0.818003 0.022937
vt 0.813874 0.044298
f 76/256/76 75/257/75 71/258/71
vt 0.753440 0.026995
vt 0.753372 0.176539
vt 0.712937 0.176539
f 243/259/243 244/260/244 245/261/245
vt 0.712937 0.176539
vt 0.712869 0.026995
vt 0.753440 0.026995
f 246/262/246 247/263/247 248/264/248
vt 0.753372 0.176539
vt 0.753372 0.421722
vt 0.712936 0.421722
f 249/265/249 250/266/250 251/267/251
vt 0.712936 0.421722
vt 0.712937 0.176539
vt 0.753372 0.176539
f 252/268/252 253/269/253 254/270/254
vt 0.740557 0.473197
vt 0.740633 0.576122
vt 0.725675 0.576122
f 255/271/255 256/272/256 257/273/257
vt 0.725675 0.576122
vt 0.725751 0.473197
vt 0.740557 0.473197
f 258/274/258 259/275/259 260/276/260
vt 0.712843 0.609795
vt 0.753465 0.609795
vt 0.753465 0.659189
f 261/277/261 262/278/262 263/279/263
vt 0.753465 0.659189
vt 0.712843 0.659189
vt 0.712843 0.609795
f 264/280/264 265/281/265 266/282/266
vt 0.712936 0.421722
vt 0.753372 0.421722
vt 0.745683 0.433848
f 267/283/267 268/284/268 269/285/269
vt 0.745683 0.433848
vt 0.720625 0.433848
vt 0.712936 0.421722
f 270/286/270 271/287/271 272/288/272
vt 0.753465 0.609795
vt 0.712843 0.609795
vt 0.720542 0.601092
f 273/289/273 274/290/274 275/291/275
vt 0.720542 0.601092
vt 0.745766 0.601092
vt 0.753465 0.609795
f 276/292/276 277/293/277 278/294/278
vt 0.745766 0.601092
vt 0.720542 0.601092
vt 0.725675 0.576122
f 279/295/279 280/296/280 281/297/281
vt 0.725675 0.576122
vt 0.740633 0.576122
vt 0.745766 0.601092
f 282/298/282 283/299/283 284/300/284
vt 0.720625 0.433848
vt 0.745683 0.433848
vt 0.740557 0.473197
f 285/301/285 286/302/286 287/303/287
vt 0.740557 0.473197
vt 0.725751 0.473197
vt 0.720625 0.433848
f 288/304/288 289/305/289 290/306/290
vt 0.773225 0.505959
vt 0.758657 0.692303
vt 0.707651 0.692303
f 77/307/77 79/308/79 80/309/80
vt 0.707651 0.692303
vt 0.693083 0.505959
vt 0.773225 0.505959
f 80/310/80 78/311/78 77/312/77
vt 0.773225 0.505959
vt 0.693083 0.505959
vt 0.694453 0.383037
f 77/313/77 78/314/78 82/315/82
vt 0.694453 0.383037
vt 0.771855 0.383037
vt 0.773225 0.505959
f 82/316/82 81/317/81 77/318/77
vt 0.707651 0.692303
vt 0.758657 0.692303
vt 0.754317 0.714620
f 80/319/80 79/320/79 83/321/83
vt 0.754317 0.714620
vt 0.711991 0.714620
vt 0.707651 0.692303
f 83/322/83 84/323/84 80/324/80
vt 0.731882 0.920646
vt 0.931678 0.905483
vt 0.931678 0.896395
f 97/325/97 99/326/99 102/327/102
vt 0.931678 0.896395
vt 0.731566 0.872143
vt 0.731882 0.920646
f 102/328/102 100/329/100 97/330/97
vt 0.931678 0.905483
vt 0.731882 0.920646
vt 0.731566 0.872143
f 98/331/98 103/332/103 104/333/104
vt 0.731566 0.872143
vt 0.931678 0.896394
vt 0.931678 0.905483
f 104/334/104 101/335/101 98/336/98
vt 0.732335 0.958886
vt 0.732335 0.932043
vt 0.941842 0.942914
f 291/337/291 91/338/91 292/339/292
vt 0.941842 0.916071
vt 0.941842 0.942914
vt 0.732335 0.932043
f 86/340/86 293/341/293 91/342/91
vt 0.732335 0.932043
vt 0.732335 0.958886
vt 0.941842 0.916071
f 85/343/85 294/344/294 87/345/87
vt 0.941842 0.942914
vt 0.941842 0.916071
vt 0.732335 0.958886
f 295/346/295 87/347/87 296/348/296
vt 0.732335 0.833750
vt 0.732335 0.860731
vt 0.941842 0.859367
f 297/349/297 88/350/88 298/351/298
vt 0.941842 0.886348
vt 0.941842 0.859367
vt 0.732335 0.860731
f 90/352/90 299/353/299 88/354/88
vt 0.732335 0.860731
vt 0.732335 0.833750
vt 0.941842 0.886348
f 92/355/92 300/356/300 89/357/89
vt 0.941842 0.859367
vt 0.941842 0.886348
vt 0.732335 0.833750
f 301/358/301 89/359/89 302/360/302
vt 0.731882 0.920646
vt 0.731566 0.872143
vt 0.605075 0.878792
f 97/361/97 100/362/100 106/363/106
vt 0.605075 0.878792
vt 0.605075 0.913957
vt 0.731882 0.920646
f 106/364/106 105/365/105 97/366/97
vt 0.731566 0.872143
vt 0.731882 0.920646
vt 0.605075 0.913957
f 104/367/104 103/368/103 107/369/107
vt 0.605075 0.913957
vt 0.605075 0.878792
vt 0.731566 0.872143
f 107/370/107 108/371/108 104/372/104
vt 0.732335 0.958886
vt 0.732335 0.932043
vt 0.595626 0.924758
f 303/373/303 85/374/85 93/375/93
vt 0.595626 0.924758
vt 0.595626 0.941302
vt 0.732335 0.958886
f 93/376/93 304/377/304 305/378/305
vt 0.732335 0.833750
vt 0.732335 0.860731
vt 0.595626 0.867989
f 306/379/306 92/380/92 96/381/96
vt 0.595626 0.867989
vt 0.595626 0.851334
vt 0.732335 0.833750
f 96/382/96 307/383/307 308/384/308
vt 0.732335 0.932043
vt 0.732335 0.958886
vt 0.595626 0.941302
f 91/385/91 309/386/309 310/387/310
vt 0.595626 0.941302
vt 0.595626 0.924758
vt 0.732335 0.932043
f 311/388/311 95/389/95 91/390/91
vt 0.732335 0.860731
vt 0.732335 0.833750
vt 0.595626 0.851334
f 88/391/88 312/392/312 313/393/313
vt 0.595626 0.851334
vt 0.595626 0.867989
vt 0.732335 0.860731
f 314/394/314 94/395/94 88/396/88
vt 0.595626 0.867989
vt 0.595626 0.924758
vt 0.605075 0.913957
f 94/397/94 93/398/93 105/399/105
vt 0.605075 0.913957
vt 0.605075 0.878792
vt 0.595626 0.867989
f 105/400/105 106/401/106 94/402/94
vt 0.595626 0.924758
vt 0.595626 0.867989
vt 0.605075 0.878792
f 95/403/95 96/404/96 108/405/108
vt 0.605075 0.878792
vt 0.605075 0.913957
vt 0.595626 0.924758
f 108/406/108 107/407/107 95/408/95
vt 0.732335 0.932043
vt 0.941842 0.916071
vt 0.931678 0.905483
f 85/409/85 87/410/87 99/411/99
vt 0.931678 0.905483
vt 0.731882 0.920646
vt 0.732335 0.932043
f 99/412/99 97/413/97 85/414/85
vt 0.941842 0.916071
vt 0.941842 0.886348
vt 0.931678 0.896395
f 87/415/87 90/416/90 102/417/102
vt 0.931678 0.896395
vt 0.931678 0.905483
vt 0.941842 0.916071
f 102/418/102 99/419/99 87/420/87
vt 0.941842 0.886348
vt 0.732335 0.860731
vt 0.731566 0.872143
f 90/421/90 88/422/88 100/423/100
vt 0.731566 0.872143
vt 0.931678 0.896395
vt 0.941842 0.886348
f 100/424/100 102/425/102 90/426/90
vt 0.941842 0.886348
vt 0.941842 0.916071
vt 0.931678 0.905483
f 89/427/89 86/428/86 98/429/98
vt 0.931678 0.905483
vt 0.931678 0.896394
vt 0.941842 0.886348
f 98/430/98 101/431/101 89/432/89
vt 0.941842 0.916071
vt 0.732335 0.932043
vt 0.731882 0.920646
f 86/433/86 91/434/91 103/435/103
vt 0.731882 0.920646
vt 0.931678 0.905483
vt 0.941842 0.916071
f 103/436/103 98/437/98 86/438/86
vt 0.732335 0.860731
vt 0.941842 0.886348
vt 0.931678 0.896394
f 92/439/92 89/440/89 101/441/101
vt 0.931678 0.896394
vt 0.731566 0.872143
vt 0.732335 0.860731
f 101/442/101 104/443/104 92/444/92
vt 0.732335 0.860731
vt 0.595626 0.867989
vt 0.605075 0.878792
f 88/445/88 94/446/94 106/447/106
vt 0.605075 0.878792
vt 0.731566 0.872143
vt 0.732335 0.860731
f 106/448/106 100/449/100 88/450/88
vt 0.595626 0.924758
vt 0.732335 0.932043
vt 0.731882 0.920646
f 93/451/93 85/452/85 97/453/97
vt 0.731882 0.920646
vt 0.605075 0.913957
vt 0.595626 0.924758
f 97/454/97 105/455/105 93/456/93
vt 0.732335 0.932043
vt 0.595626 0.924758
vt 0.605075 0.913957
f 91/457/91 95/458/95 107/459/107
vt 0.605075 0.913957
vt 0.731882 0.920646
vt 0.732335 0.932043
f 107/460/107 103/461/103 91/462/91
vt 0.595626 0.867989
vt 0.732335 0.860731
vt 0.731566 0.872143
f 96/463/96 92/464/92 104/465/104
vt 0.731566 0.872143
vt 0.605075 0.878792
vt 0.595626 0.867989
f 104/466/104 108/467/108 96/468/96
vt 0.941842 0.916071
vt 0.941842 0.886348
vt 0.966662 0.891043
f 86/469/86 89/470/89 111/471/111
vt 0.966662 0.891043
vt 0.966662 0.911358
vt 0.941842 0.916071
f 111/472/111 109/473/109 86/474/86
vt 0.941842 0.886348
vt 0.941842 0.916071
vt 0.966662 0.911358
f 90/475/90 87/476/87 110/477/110
vt 0.966662 0.911358
vt 0.966662 0.891043
vt 0.941842 0.886348
f 110/478/110 112/479/112 90/480/90
vt 0.941842 0.942914
vt 0.941842 0.916071
vt 0.966662 0.911358
f 315/481/315 86/482/86 109/483/109
vt 0.966662 0.911358
vt 0.966662 0.931538
vt 0.941842 0.942914
f 109/484/109 316/485/316 317/486/317
vt 0.941842 0.859367
vt 0.941842 0.886348
vt 0.966662 0.891043
f 318/487/318 90/488/90 112/489/112
vt 0.966662 0.891043
vt 0.966662 0.870743
vt 0.941842 0.859367
f 112/490/112 319/491/319 320/492/320
vt 0.941842 0.916071
vt 0.941842 0.942914
vt 0.966662 0.931538
f 87/493/87 321/494/321 322/495/322
vt 0.966662 0.931538
vt 0.966662 0.911358
vt 0.941842 0.916071
f 323/496/323 110/497/110 87/498/87
vt 0.941842 0.886348
vt 0.941842 0.859367
vt 0.966662 0.870743
f 89/499/89 324/500/324 325/501/325
vt 0.966662 0.870743
vt 0.966662 0.891043
vt 0.941842 0.886348
f 326/502/326 111/503/111 89/504/89
vt 0.288179 0.974321
vt 0.338635 0.905007
vt 0.288610 0.904856
f 114/505/114 124/506/124 116/507/116
vt 0.338635 0.905007
vt 0.288179 0.974321
vt 0.337503 0.975145
f 124/508/124 114/509/114 122/510/122
vt 0.288610 0.904856
vt 0.338635 0.716029
vt 0.288367 0.716431
f 116/511/116 126/512/126 118/513/118
vt 0.338635 0.716029
vt 0.288610 0.904856
vt 0.338635 0.905007
f 126/514/126 116/515/116 124/516/124
vt 0.288367 0.716431
vt 0.337736 0.620355
vt 0.288234 0.620273
f 118/517/118 128/518/128 120/519/120
vt 0.337736 0.620355
vt 0.288367 0.716431
vt 0.338635 0.716029
f 128/520/128 118/521/118 126/522/126
vt 0.288234 0.620273
vt 0.338635 0.716029
vt 0.288367 0.716431
f 119/523/119 125/524/125 117/525/117
vt 0.338635 0.716029
vt 0.288234 0.620273
vt 0.337736 0.620355
f 125/526/125 119/527/119 127/528/127
vt 0.288367 0.716431
vt 0.338635 0.905007
vt 0.288610 0.904856
f 117/529/117 123/530/123 115/531/115
vt 0.338635 0.905007
vt 0.288367 0.716431
vt 0.338635 0.716029
f 123/532/123 117/533/117 125/534/125
vt 0.288610 0.904856
vt 0.337503 0.975145
vt 0.288179 0.974321
f 115/535/115 121/536/121 113/537/113
vt 0.337503 0.975145
vt 0.288610 0.904856
vt 0.338635 0.905007
f 121/538/121 115/539/115 123/540/123
vt 0.027560 0.905982
vt 0.027464 0.975872
vt 0.007947 0.906031
f 129/541/129 327/542/327 328/543/328
vt 0.027464 0.975872
vt 0.115088 0.905982
vt 0.115184 0.975872
f 329/544/329 130/545/130 330/546/330
vt 0.115088 0.905982
vt 0.027464 0.975872
vt 0.027560 0.905982
f 130/547/130 331/548/331 129/549/129
vt 0.134701 0.906031
vt 0.115184 0.975872
vt 0.115088 0.905982
f 332/550/332 333/551/333 130/552/130
vt 0.007947 0.906031
vt 0.027560 0.717594
vt 0.027560 0.905982
f 334/553/334 131/554/131 129/555/129
vt 0.027560 0.717594
vt 0.007947 0.906031
vt 0.007947 0.717851
f 131/556/131 335/557/335 336/558/336
vt 0.027560 0.905982
vt 0.115088 0.717594
vt 0.115088 0.905982
f 129/559/129 132/560/132 130/561/130
vt 0.115088 0.717594
vt 0.027560 0.905982
vt 0.027560 0.717594
f 132/562/132 129/563/129 131/564/131
vt 0.115088 0.905982
vt 0.134701 0.717851
vt 0.134701 0.906031
f 130/565/130 337/566/337 338/567/338
vt 0.134701 0.717851
vt 0.115088 0.905982
vt 0.115088 0.717594
f 339/568/339 130/569/130 132/570/132
vt 0.007947 0.717851
vt 0.027428 0.622580
vt 0.027560 0.717594
f 340/571/340 341/572/341 131/573/131
vt 0.027560 0.717594
vt 0.115220 0.622580
vt 0.115088 0.717594
f 131/574/131 342/575/342 132/576/132
vt 0.115220 0.622580
vt 0.027560 0.717594
vt 0.027428 0.622580
f 343/577/343 131/578/131 344/579/344
vt 0.115088 0.717594
vt 0.115220 0.622580
vt 0.134701 0.717851
f 132/580/132 345/581/345 346/582/346
vt 0.027560 0.905982
vt 0.007947 0.906031
vt 0.027464 0.975872
f 133/583/133 347/584/347 348/585/348
vt 0.027464 0.975872
vt 0.115184 0.975872
vt 0.115088 0.905982
f 349/586/349 350/587/350 134/588/134
vt 0.115088 0.905982
vt 0.027560 0.905982
vt 0.027464 0.975872
f 134/589/134 133/590/133 351/591/351
vt 0.134701 0.906031
vt 0.115088 0.905982
vt 0.115184 0.975872
f 352/592/352 134/593/134 353/594/353
vt 0.007947 0.906031
vt 0.027560 0.905982
vt 0.027560 0.717594
f 354/595/354 133/596/133 135/597/135
vt 0.027560 0.717594
vt 0.007947 0.717851
vt 0.007947 0.906031
f 135/598/135 355/599/355 356/600/356
vt 0.027560 0.905982
vt 0.115088 0.905982
vt 0.115088 0.717594
f 133/601/133 134/602/134 136/603/136
vt 0.115088 0.717594
vt 0.027560 0.717594
vt 0.027560 0.905982
f 136/604/136 135/605/135 133/606/133
vt 0.115088 0.905982
vt 0.134701 0.906031
vt 0.134701 0.717851
f 134/607/134 357/608/357 358/609/358
vt 0.134701 0.717851
vt 0.115088 0.717594
vt 0.115088 0.905982
f 359/610/359 136/611/136 134/612/134
vt 0.007947 0.717851
vt 0.027560 0.717594
vt 0.027428 0.622580
f 360/613/360 135/614/135 361/615/361
vt 0.027560 0.717594
vt 0.115088 0.717594
vt 0.115220 0.622580
f 135/616/135 136/617/136 362/618/362
vt 0.115220 0.622580
vt 0.027428 0.622580
vt 0.027560 0.717594
f 363/619/363 364/620/364 135/621/135
vt 0.115088 0.717594
vt 0.134701 0.717851
vt 0.115220 0.622580
f 136/622/136 365/623/365 366/624/366
vt 0.018015 -0.001340
vt 0.006316 -0.000060
vt 0.008867 0.608431
f 142/625/142 143/626/143 137/627/137
vt 0.413253 0.458829
vt 0.413253 0.356967
vt 0.062908 0.315604
f 139/628/139 140/629/140 141/630/141
vt 0.038801 0.598225
vt 0.413253 0.458829
vt 0.062908 0.315604
f 138/631/138 139/632/139 141/633/141
vt 0.008867 0.608431
vt 0.038801 0.598225
vt 0.062908 0.315604
f 137/634/137 138/635/138 141/636/141
vt 0.018015 -0.001340
vt 0.008867 0.608431
vt 0.062908 0.315604
f 142/637/142 137/638/137 141/639/141
vt 0.164318 0.973766
vt 0.164414 0.905787
vt 0.144939 0.905360
f 367/640/367 144/641/144 368/642/368
vt 0.164318 0.973766
vt 0.251328 0.905787
vt 0.164414 0.905787
f 369/643/369 145/644/145 144/645/144
vt 0.251328 0.905787
vt 0.164318 0.973766
vt 0.251423 0.973766
f 145/646/145 370/647/370 371/648/371
vt 0.251423 0.973766
vt 0.270803 0.905360
vt 0.251328 0.905787
f 372/649/372 373/650/373 145/651/145
vt 0.144939 0.905360
vt 0.164414 0.719812
vt 0.144939 0.719812
f 374/652/374 146/653/146 375/654/375
vt 0.164414 0.719812
vt 0.144939 0.905360
vt 0.164414 0.905787
f 146/655/146 376/656/376 144/657/144
vt 0.164414 0.905787
vt 0.251328 0.719812
vt 0.164414 0.719812
f 144/658/144 147/659/147 146/660/146
vt 0.251328 0.719812
vt 0.164414 0.905787
vt 0.251328 0.905787
f 147/661/147 144/662/144 145/663/145
vt 0.251328 0.905787
vt 0.270803 0.719812
vt 0.251328 0.719812
f 145/664/145 377/665/377 147/666/147
vt 0.270803 0.719812
vt 0.251328 0.905787
vt 0.270803 0.905360
f 378/667/378 145/668/145 379/669/379
vt 0.164283 0.625121
vt 0.144939 0.719812
vt 0.164414 0.719812
f 380/670/380 381/671/381 146/672/146
vt 0.164414 0.719812
vt 0.251459 0.625121
vt 0.164283 0.625121
f 146/673/146 382/674/382 383/675/383
vt 0.251459 0.625121
vt 0.164414 0.719812
vt 0.251328 0.719812
f 384/676/384 146/677/146 147/678/147
vt 0.251459 0.625121
vt 0.251328 0.719812
vt 0.270803 0.719812
f 385/679/385 147/680/147 386/681/386
vt 0.164318 0.973766
vt 0.144939 0.905360
vt 0.164414 0.905787
f 387/682/387 388/683/388 148/684/148
vt 0.164318 0.973766
vt 0.164414 0.905787
vt 0.251328 0.905787
f 389/685/389 148/686/148 149/687/149
vt 0.251328 0.905787
vt 0.251423 0.973766
vt 0.164318 0.973766
f 149/688/149 390/689/390 391/690/391
vt 0.251423 0.973766
vt 0.251328 0.905787
vt 0.270803 0.905360
f 392/691/392 149/692/149 393/693/393
vt 0.144939 0.905360
vt 0.144939 0.719812
vt 0.164414 0.719812
f 394/694/394 395/695/395 150/696/150
vt 0.164414 0.719812
vt 0.164414 0.905787
vt 0.144939 0.905360
f 150/697/150 148/698/148 396/699/396
vt 0.164414 0.905787
vt 0.164414 0.719812
vt 0.251328 0.719812
f 148/700/148 150/701/150 151/702/151
vt 0.251328 0.719812
vt 0.251328 0.905787
vt 0.164414 0.905787
f 151/703/151 149/704/149 148/705/148
vt 0.251328 0.905787
vt 0.251328 0.719812
vt 0.270803 0.719812
f 149/706/149 151/707/151 397/708/397
vt 0.270803 0.719812
vt 0.270803 0.905360
vt 0.251328 0.905787
f 398/709/398 399/710/399 149/711/149
vt 0.164283 0.625121
vt 0.164414 0.719812
vt 0.144939 0.719812
f 400/712/400 150/713/150 401/714/401
vt 0.164414 0.719812
vt 0.164283 0.625121
vt 0.251459 0.625121
f 150/715/150 402/716/402 403/717/403
vt 0.251459 0.625121
vt 0.251328 0.719812
vt 0.164414 0.719812
f 404/718/404 151/719/151 150/720/150
vt 0.251459 0.625121
vt 0.270803 0.719812
vt 0.251328 0.719812
f 405/721/405 406/722/406 151/723/151
vt 0.251544 0.559819
vt 0.160891 0.559819
vt 0.162082 0.616848
f 407/724/407 408/725/408 152/726/152
vt 0.162082 0.616848
vt 0.251863 0.616848
vt 0.251544 0.559819
f 152/727/152 153/728/153 409/729/409
vt 0.160891 0.559894
vt 0.251544 0.559894
vt 0.251863 0.616874
f 410/730/410 411/731/411 155/732/155
vt 0.251863 0.616874
vt 0.162082 0.616874
vt 0.160891 0.559894
f 155/733/155 154/734/154 412/735/412
vt 0.251544 0.559894
vt 0.251544 0.559819
vt 0.251863 0.616848
f 413/736/413 414/737/414 153/738/153
vt 0.251863 0.616848
vt 0.251863 0.616874
vt 0.251544 0.559894
f 153/739/153 155/740/155 415/741/415
vt 0.160891 0.559819
vt 0.160891 0.559894
vt 0.162082 0.616874
f 416/742/416 417/743/417 154/744/154
vt 0.162082 0.616874
vt 0.162082 0.616848
vt 0.160891 0.559819
f 154/745/154 152/746/152 418/747/418
vt 0.424786 0.348426
vt 0.079021 0.203950
vt 0.077746 0.300693
f 160/748/160 158/749/158 159/750/159
vt 0.079021 0.203950
vt 0.484538 0.051819
vt 0.459374 0.060749
f 158/751/158 156/752/156 157/753/157
vt 0.424786 0.348426
vt 0.484538 0.051819
vt 0.079021 0.203950
f 160/754/160 156/755/156 158/756/158
vt 0.472011 0.661910
vt 0.484538 0.051819
vt 0.424786 0.348426
f 161/757/161 156/758/156 160/759/160
vt 0.472011 0.661910
vt 0.484538 0.661910
vt 0.484538 0.051819
f 161/760/161 162/761/162 156/762/156
vt 0.424786 0.348426
vt 0.077746 0.300693
vt 0.079021 0.203950
f 167/763/167 166/764/166 165/765/165
vt 0.079021 0.203950
vt 0.459374 0.060749
vt 0.484538 0.051819
f 165/766/165 164/767/164 163/768/163
vt 0.424786 0.348426
vt 0.079021 0.203950
vt 0.484538 0.051819
f 167/769/167 165/770/165 163/771/163
vt 0.472011 0.661910
vt 0.424786 0.348426
vt 0.484538 0.051819
f 168/772/168 167/773/167 163/774/163
vt 0.472011 0.661910
vt 0.484538 0.051819
vt 0.484538 0.661910
f 168/775/168 163/776/163 169/777/169
vt 0.251544 0.559819
vt 0.162082 0.616848
vt 0.160891 0.559819
f 419/778/419 170/779/170 420/780/420
vt 0.162082 0.616848
vt 0.251544 0.559819
vt 0.251863 0.616848
f 170/781/170 421/782/421 171/783/171
vt 0.160891 0.559894
vt 0.251863 0.616874
vt 0.251544 0.559894
f 422/784/422 173/785/173 423/786/423
vt 0.251863 0.616874
vt 0.160891 0.559894
vt 0.162082 0.616874
f 173/787/173 424/788/424 172/789/172
vt 0.251544 0.559894
vt 0.251863 0.616848
vt 0.251544 0.559819
f 425/790/425 171/791/171 426/792/426
vt 0.251863 0.616848
vt 0.251544 0.559894
vt 0.251863 0.616874
f 171/793/171 427/794/427 173/795/173
vt 0.160891 0.559819
vt 0.162082 0.616874
vt 0.160891 0.559894
f 428/796/428 172/797/172 429/798/429
vt 0.162082 0.616874
vt 0.160891 0.559819
vt 0.162082 0.616848
f 172/799/172 430/800/430 170/801/170
vt 0.018015 -0.001340
vt 0.008867 0.608431
vt 0.006316 -0.000060
f 179/802/179 174/803/174 180/804/180
vt 0.413253 0.458829
vt 0.062908 0.315604
vt 0.413253 0.356967
f 176/805/176 178/806/178 177/807/177
vt 0.038801 0.598225
vt 0.062908 0.315604
vt 0.413253 0.458829
f 175/808/175 178/809/178 176/810/176
vt 0.008867 0.608431
vt 0.062908 0.315604
vt 0.038801 0.598225
f 174/811/174 178/812/178 175/813/175
vt 0.018015 -0.001340
vt 0.062908 0.315604
vt 0.008867 0.608431
f 179/814/179 178/815/178 174/816/174
vt 0.866680 0.793900
vt 0.809981 0.774760
vt 0.809981 0.755490
f 431/817/431 432/818/432 433/819/433
vt 0.827300 0.736235
vt 0.883985 0.755490
vt 0.883985 0.774759
f 434/820/434 435/821/435 436/822/436
vt 0.866680 0.793900
vt 0.827286 0.793900
vt 0.809981 0.774760
f 437/823/437 438/824/438 439/825/439
vt 0.827300 0.736235
vt 0.866666 0.736235
vt 0.883985 0.755490
f 440/826/440 441/827/441 442/828/442
vt 0.883985 0.774759
vt 0.866680 0.793900
vt 0.827300 0.736235
f 443/829/443 444/830/444 445/831/445
vt 0.809981 0.755490
vt 0.827300 0.736235
vt 0.866680 0.793900
f 446/832/446 447/833/447 448/834/448
vt 0.339153 0.625033
vt 0.339153 0.522945
vt 0.288351 0.522945
f 449/835/449 450/836/450 451/837/451
vt 0.288351 0.522945
vt 0.288351 0.625033
vt 0.339153 0.625033
f 452/838/452 453/839/453 454/840/454
vt 0.339153 0.625033
vt 0.288351 0.522945
vt 0.339153 0.522945
f 455/841/455 456/842/456 457/843/457
vt 0.288351 0.522945
vt 0.339153 0.625033
vt 0.288351 0.625033
f 458/844/458 459/845/459 460/846/460
vt 0.760320 0.465615
vt 0.697139 0.479214
vt 0.697139 0.525879
f 461/847/461 462/848/462 463/849/463
vt 0.704327 0.539569
vt 0.767488 0.525879
vt 0.767488 0.479214
f 464/850/464 465/851/465 466/852/466
vt 0.760320 0.465615
vt 0.704307 0.465615
vt 0.697139 0.479214
f 467/853/467 468/854/468 469/855/469
vt 0.704327 0.539569
vt 0.760301 0.539569
vt 0.767488 0.525879
f 470/856/470 471/857/471 472/858/472
vt 0.767488 0.479214
vt 0.760320 0.465615
vt 0.704327 0.539569
f 473/859/473 474/860/474 475/861/475
vt 0.697139 0.525879
vt 0.704327 0.539569
vt 0.760320 0.465615
f 476/862/476 477/863/477 478/864/478
vt 0.296025 0.594020
vt 0.305773 0.529295
vt 0.296025 0.529295
f 181/865/181 184/866/184 183/867/183
vt 0.305773 0.529295
vt 0.296025 0.594020
vt 0.305773 0.594020
f 184/868/184 181/869/181 182/870/182
vt 0.296025 0.594020
vt 0.305773 0.529295
vt 0.305773 0.594020
f 185/871/185 188/872/188 186/873/186
vt 0.305773 0.529295
vt 0.296025 0.594020
vt 0.296025 0.529295
f 188/874/188 185/875/185 187/876/187
vt 0.296025 0.594020
vt 0.305773 0.594020
vt 0.305773 0.594020
f 181/877/181 186/878/186 182/879/182
vt 0.305773 0.594020
vt 0.296025 0.594020
vt 0.296025 0.594020
f 186/880/186 181/881/181 185/882/185
vt 0.305773 0.594020
vt 0.305773 0.529295
vt 0.305773 0.529295
f 182/883/182 188/884/188 184/885/184
vt 0.305773 0.529295
vt 0.305773 0.594020
vt 0.305773 0.594020
f 188/886/188 182/887/182 186/888/186
vt 0.305773 0.529295
vt 0.296025 0.529295
vt 0.296025 0.529295
f 184/889/184 187/890/187 183/891/183
vt 0.296025 0.529295
vt 0.305773 0.529295
vt 0.305773 0.529295
f 187/892/187 184/893/184 188/894/188
vt 0.296025 0.529295
vt 0.296025 0.594020
vt 0.296025 0.594020
f 183/895/183 185/896/185 181/897/181
vt 0.296025 0.594020
vt 0.296025 0.529295
vt 0.296025 0.529295
f 185/898/185 183/899/183 187/900/187
vt 0.296025 0.594020
vt 0.305773 0.529295
vt 0.296025 0.529295
f 189/901/189 192/902/192 191/903/191
vt 0.305773 0.529295
vt 0.296025 0.594020
vt 0.305773 0.594020
f 192/904/192 189/905/189 190/906/190
vt 0.296025 0.594020
vt 0.305773 0.529295
vt 0.305773 0.594020
f 193/907/193 196/908/196 194/909/194
vt 0.305773 0.529295
vt 0.296025 0.594020
vt 0.296025 0.529295
f 196/910/196 193/911/193 195/912/195
vt 0.296025 0.594020
vt 0.305773 0.594020
vt 0.305773 0.594020
f 189/913/189 194/914/194 190/915/190
vt 0.305773 0.594020
vt 0.296025 0.594020
vt 0.296025 0.594020
f 194/916/194 189/917/189 193/918/193
vt 0.305773 0.594020
vt 0.305773 0.529295
vt 0.305773 0.529295
f 190/919/190 196/920/196 192/921/192
vt 0.305773 0.529295
vt 0.305773 0.594020
vt 0.305773 0.594020
f 196/922/196 190/923/190 194/924/194
vt 0.305773 0.529295
vt 0.296025 0.529295
vt 0.296025 0.529295
f 192/925/192 195/926/195 191/927/191
vt 0.296025 0.529295
vt 0.305773 0.529295
vt 0.305773 0.529295
f 195/928/195 192/929/192 196/930/196
vt 0.296025 0.529295
vt 0.296025 0.594020
vt 0.296025 0.594020
f 191/931/191 193/932/193 189/933/189
vt 0.296025 0.594020
vt 0.296025 0.529295
vt 0.296025 0.529295
f 193/934/193 191/935/191 195/936/195
vt 0.296025 0.594020
vt 0.296025 0.529295
vt 0.305773 0.529295
f 197/937/197 199/938/199 200/939/200
vt 0.305773 0.529295
vt 0.305773 0.594020
vt 0.296025 0.594020
f 200/940/200 198/941/198 197/942/197
vt 0.296025 0.594020
vt 0.305773 0.594020
vt 0.305773 0.529295
f 201/943/201 202/944/202 204/945/204
vt 0.305773 0.529295
vt 0.296025 0.529295
vt 0.296025 0.594020
f 204/946/204 203/947/203 201/948/201
vt 0.296025 0.594020
vt 0.305773 0.594020
vt 0.305773 0.594020
f 197/949/197 198/950/198 202/951/202
vt 0.305773 0.594020
vt 0.296025 0.594020
vt 0.296025 0.594020
f 202/952/202 201/953/201 197/954/197
vt 0.305773 0.594020
vt 0.305773 0.529295
vt 0.305773 0.529295
f 198/955/198 200/956/200 204/957/204
vt 0.305773 0.529295
vt 0.305773 0.594020
vt 0.305773 0.594020
f 204/958/204 202/959/202 198/960/198
vt 0.305773 0.529295
vt 0.296025 0.529295
vt 0.296025 0.529295
f 200/961/200 199/962/199 203/963/203
vt 0.296025 0.529295
vt 0.305773 0.529295
vt 0.305773 0.529295
f 203/964/203 204/965/204 200/966/200
vt 0.296025 0.529295
vt 0.296025 0.594020
vt 0.296025 0.594020
f 199/967/199 197/968/197 201/969/201
vt 0.296025 0.594020
vt 0.296025 0.529295
vt 0.296025 0.529295
f 201/970/201 203/971/203 199/972/199
vt 0.296025 0.594020
vt 0.296025 0.529295
vt 0.305773 0.529295
f 205/973/205 207/974/207 208/975/208
vt 0.305773 0.529295
vt 0.305773 0.594020
vt 0.296025 0.594020
f 208/976/208 206/977/206 205/978/205
vt 0.296025 0.594020
vt 0.305773 0.594020
vt 0.305773 0.529295
f 209/979/209 210/980/210 212/981/212
vt 0.305773 0.529295
vt 0.296025 0.529295
vt 0.296025 0.594020
f 212/982/212 211/983/211 209/984/209
vt 0.296025 0.594020
vt 0.305773 0.594020
vt 0.305773 0.594020
f 205/985/205 206/986/206 210/987/210
vt 0.305773 0.594020
vt 0.296025 0.594020
vt 0.296025 0.594020
f 210/988/210 209/989/209 205/990/205
vt 0.305773 0.594020
vt 0.305773 0.529295
vt 0.305773 0.529295
f 206/991/206 208/992/208 212/993/212
vt 0.305773 0.529295
vt 0.305773 0.594020
vt 0.305773 0.594020
f 212/994/212 210/995/210 206/996/206
vt 0.305773 0.529295
vt 0.296025 0.529295
vt 0.296025 0.529295
f 208/997/208 207/998/207 211/999/211
vt 0.296025 0.529295
vt 0.305773 0.529295
vt 0.305773 0.529295
f 211/1000/211 212/1001/212 208/1002/208
vt 0.296025 0.529295
vt 0.296025 0.594020
vt 0.296025 0.594020
f 207/1003/207 205/1004/205 209/1005/209
vt 0.296025 0.594020
vt 0.296025 0.529295
vt 0.296025 0.529295
f 209/1006/209 211/1007/211 207/1008/207
vt 0.391890 0.509234
vt 0.391890 0.513267
vt 0.377689 0.513267
f 479/1009/479 480/1010/480 481/1011/481
vt 0.377689 0.513267
vt 0.377689 0.509234
vt 0.391890 0.509234
f 482/1012/482 483/1013/483 484/1014/484
vt 0.391890 0.509234
vt 0.391890 0.509234
vt 0.377689 0.509234
f 485/1015/485 486/1016/486 487/1017/487
vt 0.377689 0.509234
vt 0.377689 0.509234
vt 0.391890 0.509234
f 488/1018/488 489/1019/489 490/1020/490
vt 0.391890 0.513267
vt 0.391890 0.530113
vt 0.377689 0.530113
f 491/1021/491 492/1022/492 493/1023/493
vt 0.377689 0.530113
vt 0.377689 0.513267
vt 0.391890 0.513267
f 494/1024/494 495/1025/495 496/1026/496
vt 0.391890 0.517335
vt 0.391890 0.509234
vt 0.377689 0.509234
f 497/1027/497 498/1028/498 499/1029/499
vt 0.377689 0.509234
vt 0.377689 0.517335
vt 0.391890 0.517335
f 500/1030/500 501/1031/501 502/1032/502
vt 0.391890 0.652101
vt 0.391890 0.517335
vt 0.377689 0.517335
f 503/1033/503 504/1034/504 505/1035/505
vt 0.377689 0.517335
vt 0.377689 0.652101
vt 0.391890 0.652101
f 506/1036/506 507/1037/507 508/1038/508
vt 0.391890 0.530113
vt 0.391890 0.652101
vt 0.377689 0.652101
f 509/1039/509 510/1040/510 511/1041/511
vt 0.377689 0.652101
vt 0.377689 0.530113
vt 0.391890 0.530113
f 512/1042/512 513/1043/513 514/1044/514
vt 0.391890 0.652101
vt 0.391890 0.652101
vt 0.377689 0.652101
f 515/1045/515 516/1046/516 517/1047/517
vt 0.377689 0.652101
vt 0.377689 0.652101
vt 0.391890 0.652101
f 518/1048/518 519/1049/519 520/1050/520
vt 0.391890 0.509686
vt 0.377689 0.513719
vt 0.391890 0.513719
f 521/1051/521 522/1052/522 523/1053/523
vt 0.377689 0.513719
vt 0.391890 0.509686
vt 0.377689 0.509686
f 524/1054/524 525/1055/525 526/1056/526
vt 0.391890 0.509687
vt 0.377689 0.509686
vt 0.391890 0.509686
f 527/1057/527 528/1058/528 529/1059/529
vt 0.377689 0.509686
vt 0.391890 0.509687
vt 0.377689 0.509687
f 530/1060/530 531/1061/531 532/1062/532
vt 0.391890 0.513719
vt 0.377689 0.530565
vt 0.391890 0.530565
f 533/1063/533 534/1064/534 535/1065/535
vt 0.377689 0.530565
vt 0.391890 0.513719
vt 0.377689 0.513719
f 536/1066/536 537/1067/537 538/1068/538
vt 0.391890 0.517788
vt 0.377689 0.509687
vt 0.391890 0.509687
f 539/1069/539 540/1070/540 541/1071/541
vt 0.377689 0.509687
vt 0.391890 0.517788
vt 0.377689 0.517788
f 542/1072/542 543/1073/543 544/1074/544
vt 0.391890 0.652554
vt 0.377689 0.517788
vt 0.391890 0.517788
f 545/1075/545 546/1076/546 547/1077/547
vt 0.377689 0.517788
vt 0.391890 0.652554
vt 0.377689 0.652554
f 548/1078/548 549/1079/549 550/1080/550
vt 0.391890 0.530565
vt 0.377689 0.652554
vt 0.391890 0.652554
f 551/1081/551 552/1082/552 553/1083/553
vt 0.377689 0.652554
vt 0.391890 0.530565
vt 0.377689 0.530565
f 554/1084/554 555/1085/555 556/1086/556
vt 0.391890 0.652554
vt 0.377689 0.652554
vt 0.391890 0.652554
f 557/1087/557 558/1088/558 559/1089/559
vt 0.377689 0.652554
vt 0.391890 0.652554
vt 0.377689 0.652554
f 560/1090/560 561/1091/561 562/1092/562
vt 0.391005 0.532709
vt 0.391009 0.519738
vt 0.377781 0.519738
f 563/1093/563 564/1094/564 565/1095/565
vt 0.377781 0.519738
vt 0.377777 0.532709
vt 0.391005 0.532709
f 566/1096/566 567/1097/567 568/1098/568
vt 0.391005 0.575945
vt 0.391005 0.532709
vt 0.377777 0.532709
f 569/1099/569 570/1100/570 571/1101/571
vt 0.377777 0.532709
vt 0.377778 0.575945
vt 0.391005 0.575945
f 572/1102/572 573/1103/573 574/1104/574
vt 0.391009 0.519738
vt 0.391009 0.531844
vt 0.377782 0.531844
f 575/1105/575 576/1106/576 577/1107/577
vt 0.377782 0.531844
vt 0.377781 0.519738
vt 0.391009 0.519738
f 578/1108/578 579/1109/579 580/1110/580
vt 0.391009 0.531844
vt 0.391007 0.656364
vt 0.377779 0.656364
f 581/1111/581 582/1112/582 583/1113/583
vt 0.377779 0.656364
vt 0.377782 0.531844
vt 0.391009 0.531844
f 584/1114/584 585/1115/585 586/1116/586
vt 0.391006 0.653770
vt 0.391005 0.575945
vt 0.377778 0.575945
f 587/1117/587 588/1118/588 589/1119/589
vt 0.377778 0.575945
vt 0.377778 0.653770
vt 0.391006 0.653770
f 590/1120/590 591/1121/591 592/1122/592
vt 0.391007 0.656364
vt 0.391006 0.653770
vt 0.377778 0.653770
f 593/1123/593 594/1124/594 595/1125/595
vt 0.377778 0.653770
vt 0.377779 0.656364
vt 0.391007 0.656364
f 596/1126/596 597/1127/597 598/1128/598
vt 0.462175 0.668673
vt 0.393662 0.668673
vt 0.393662 0.639506
f 599/1129/599 600/1130/600 601/1131/601
vt 0.393662 0.639506
vt 0.462175 0.639505
vt 0.462175 0.668673
f 602/1132/602 603/1133/603 604/1134/604
vt 0.394306 0.669958
vt 0.462819 0.640790
vt 0.462819 0.669958
f 605/1135/605 606/1136/606 607/1137/607
vt 0.462819 0.640790
vt 0.394306 0.669958
vt 0.394306 0.640790
f 608/1138/608 609/1139/609 610/1140/610
