mtllib kafka.mtl
usemtl tex0_0
v -1.213360 0.498712 1.898980
vn 0.400857 0.902981 0.154718
v -0.945006 1.484260 3.136710
vn 0.537135 -0.767434 -0.350045
v 0.944569 1.424260 3.129080
vn -0.492125 -0.802171 -0.338136
v 1.212930 0.498712 1.898980
vn -0.408500 0.900879 0.146778
v -1.313020 0.422136 0.099130
vn 0.223122 0.890375 -0.396799
v -1.268410 1.927600 0.337960
vn 0.268970 -0.943133 0.195333
v 1.267970 1.927600 0.337960
vn -0.230709 -0.941463 0.245805
v 1.317460 0.421813 0.099130
vn -0.299726 0.875244 -0.379622
v -0.996129 -0.314336 3.414440
vn 0.404292 0.728860 0.552549
v 0.995692 -0.314336 3.414440
vn -0.412298 0.733713 0.540070
v 0.835056 -0.042957 4.855180
vn -0.563367 -0.311952 -0.765051
v -0.424002 -1.469830 5.248880
vn 0.606863 0.341362 -0.717767
v -0.435960 -1.534850 4.600100
vn 0.272505 0.767249 0.580577
v 0.435523 -1.534850 4.600100
vn -0.283311 0.763856 0.579879
v 0.423565 -1.469830 5.248880
vn -0.571969 0.320006 -0.755280
v 1.329740 0.323456 -4.738300
vn -0.079223 0.875554 0.476580
v -1.247140 0.328022 -4.738300
vn 0.041880 0.870412 0.490540
v -1.040260 1.899680 -4.809580
vn 0.308156 -0.878827 0.364285
v 1.039830 1.899680 -4.809580
vn -0.289360 -0.888361 0.356491
v -1.987240 1.178920 0.142296
vn 0.933332 -0.267000 -0.240004
v 1.986800 1.178920 0.142296
vn -0.924192 -0.285845 -0.253302
v -1.806360 1.257670 -5.106410
vn 0.510212 -0.381346 0.770882
v 1.814180 1.257160 -5.106410
vn -0.543784 -0.342680 0.766074
v -2.420500 0.423851 -1.455100
vn 0.944271 0.213065 -0.250909
v -2.420500 0.421816 -4.731370
vn 0.910401 -0.128066 0.393406
v -1.949760 0.257612 -4.541730
vn -0.501708 0.835885 0.222677
v -1.949760 0.267789 -1.644740
vn -0.308195 0.934760 -0.176746
v 2.421890 0.421695 -4.731370
vn -0.934784 -0.076042 0.346982
v 2.420070 0.423851 -1.455100
vn -0.943549 0.163208 -0.288233
v 1.951150 0.267668 -1.644740
vn 0.359124 0.916668 -0.175356
v 1.960290 0.256887 -4.541730
vn 0.488877 0.841710 0.229181
v -2.759570 -0.144110 -1.349690
vn 0.732885 -0.653327 -0.189851
v -2.694900 -0.144110 -3.931750
vn 0.940726 -0.224377 0.254343
v -2.334380 -0.182821 -3.931750
vn -0.670402 0.723986 0.162498
v -2.334380 -0.182821 -1.698220
vn -0.912603 0.318328 -0.256559
v 2.694460 -0.144110 -3.931750
vn -0.946049 -0.179055 0.270057
v 2.759140 -0.144110 -1.349690
vn -0.544608 -0.798153 -0.257593
v 2.333950 -0.182821 -1.698220
vn 0.913378 0.315184 -0.257681
v 2.333950 -0.182821 -3.931750
vn 0.654953 0.734677 0.176880
v -3.399300 -1.566550 0.472500
vn 0.972071 0.006548 -0.234594
v -3.536770 -1.636980 -1.928690
vn 0.959876 0.264642 0.092745
v -3.174760 -1.478170 -1.928690
vn -0.852975 -0.485618 0.191334
v -3.078130 -1.436310 0.472500
vn -0.832577 -0.495508 -0.247563
v 3.536330 -1.636980 -1.928690
vn -0.946352 0.310390 0.089865
v 3.398870 -1.566550 0.472500
vn -0.969313 -0.009582 -0.245645
v 3.077690 -1.436310 0.472500
vn 0.833858 -0.493543 -0.247178
v 3.174330 -1.478170 -1.928690
vn 0.898222 -0.370497 0.236495
v -0.557230 -1.458030 4.933000
vn 0.812064 0.572274 -0.114256
v 0.556793 -1.458030 4.933000
vn -0.828882 0.548567 -0.109681
v 1.414230 1.011730 2.669180
vn -0.952876 -0.263303 -0.150660
v 1.171950 -0.176366 4.242790
vn -0.965305 0.142039 -0.219114
v -1.414660 1.011730 2.669180
vn 0.949296 -0.263100 -0.172089
v -1.172390 -0.176366 4.242790
vn 0.965759 0.133088 -0.222704
v -2.248590 -2.129110 1.288650
vn 0.246627 0.965671 -0.081576
v -2.264770 -2.134510 -1.673580
vn 0.054821 0.997092 0.052929
v -2.008480 -1.958460 -1.673580
vn -0.445187 -0.892098 0.077267
v -2.024970 -1.939920 1.288650
vn -0.074655 -0.996717 0.031345
v 2.264330 -2.134510 -1.673580
vn -0.084410 0.995287 0.047732
v 2.248160 -2.129110 1.288650
vn -0.330947 0.940958 -0.071227
v 2.024530 -1.939920 1.288650
vn 0.172619 -0.981747 -0.079842
v 2.008040 -1.958460 -1.673580
vn 0.419572 -0.903668 0.085698
v 0.750179 -2.376730 1.726410
vn -0.075489 0.997004 -0.016854
v -0.750616 -2.376730 1.726410
vn 0.089972 0.994072 -0.061039
v 0.673472 -2.219530 1.726410
vn 0.085646 -0.986732 -0.137927
v -0.673909 -2.219530 1.726410
vn -0.064129 -0.986700 -0.149368
v 0.673472 -2.101410 -0.844379
vn 0.069536 -0.995066 0.070774
v -0.673909 -2.101410 -0.844379
vn -0.068728 -0.994906 0.073752
v 0.750179 -2.258600 -0.844379
vn -0.023819 0.986528 0.161848
v -0.750616 -2.258600 -0.844379
vn 0.026255 0.988110 0.151488
v 3.134240 -1.690420 -4.025430
vn 0.050090 -0.682488 0.729178
v 3.357310 -1.806850 -4.026190
vn -0.622913 0.522514 0.582202
v 2.549220 -2.035700 -4.025190
vn -0.031015 0.533224 0.845405
v 2.356210 -1.919260 -4.024500
vn 0.345700 -0.359677 0.866674
v -2.549660 -2.035700 -4.025190
vn 0.040249 0.681226 0.730966
v -3.357750 -1.806850 -4.026190
vn 0.620991 0.521598 0.585070
v -3.134680 -1.690420 -4.025430
vn -0.039823 -0.536103 0.843213
v -2.356650 -1.919260 -4.024500
vn -0.345625 -0.359573 0.866747
v -0.000219 1.556790 3.200300
vn -0.000509 -0.921420 -0.388567
v -0.000219 2.126290 0.260350
vn 0.000026 -0.998153 -0.060745
v -0.000219 -0.046049 5.056080
vn 0.004596 -0.427139 -0.904174
v -0.000219 -1.553510 5.316140
vn -0.047080 0.066014 -0.996707
v -0.000219 2.106390 -4.652940
vn -0.010446 -0.945978 0.324063
v -1.301420 1.965590 -2.518650
vn -0.343621 -0.939108 -0.000229
v 1.300980 1.965590 -2.518650
vn 0.343078 -0.939307 -0.000229
v -2.172470 1.188380 -2.587610
vn 0.826850 -0.562423 0.000000
v 2.172030 1.188380 -2.587610
vn -0.826844 -0.562431 0.000000
v -0.000219 2.172100 -2.595170
vn -0.000000 -1.000000 -0.000000
v -0.000219 0.434857 1.784820
vn 0.001806 0.987375 0.158393
v -1.192280 0.559263 0.913601
vn 0.343783 0.889717 -0.300360
v -0.555269 1.530130 3.193180
vn 0.186935 -0.895605 -0.403666
v -1.035440 1.813630 1.689860
vn 0.498866 -0.844533 -0.194668
v 1.035010 1.813630 1.689860
vn -0.521154 -0.832627 -0.187431
v 1.191850 0.559263 0.913601
vn -0.313322 0.893095 -0.322818
v -1.848460 0.755404 0.362388
vn 0.744758 0.589733 -0.312329
v -0.000219 0.366735 0.796666
vn 0.000048 0.734423 -0.678692
v -0.662369 2.088670 0.296038
vn 0.470508 -0.854777 0.219039
v 1.694840 1.594860 0.320978
vn -0.740926 -0.652627 -0.158451
v -0.907491 0.800057 4.261530
vn 0.532482 -0.627945 -0.567580
v -0.000219 -0.334046 3.273440
vn -0.000034 0.759531 0.650471
v -1.154870 0.225062 2.648290
vn 0.427297 0.807551 0.406545
v 1.154440 0.225062 2.648290
vn -0.452448 0.803432 0.387024
v -0.500529 -0.036928 5.007820
vn 0.238730 -0.412237 -0.879243
v 0.907053 0.800057 4.203020
vn -0.522333 -0.629066 -0.575713
v -0.544546 -1.509610 4.634900
vn 0.634739 0.730225 0.252741
v -0.641613 -0.848769 5.163910
vn 0.572162 -0.004954 -0.820126
v -0.000219 -1.543270 4.539320
vn 0.010221 0.745651 0.666258
v -0.716444 -0.970135 4.078950
vn 0.375887 0.713145 0.591721
v 0.493745 -1.460570 5.161280
vn -0.785007 0.455862 -0.419468
v 0.716007 -0.970135 4.078950
vn -0.372734 0.718123 0.587681
v -0.260972 -1.518970 5.316910
vn 0.256138 0.185892 -0.948598
v 0.641176 -0.848769 5.163910
vn -0.570643 -0.000012 -0.821198
v 1.518760 0.275894 -2.399200
vn -0.026709 0.999546 -0.013970
v -1.353770 1.660000 -5.106410
vn 0.274656 -0.445605 0.852057
v -1.475330 0.278796 -2.399200
vn -0.093164 0.995579 -0.011910
v 0.509781 2.033910 -4.704600
vn -0.093022 -0.903609 0.418136
v -1.301420 1.965590 -1.159060
vn -0.171659 -0.984950 0.020186
v 1.448440 0.680485 -5.106410
vn 0.050258 0.240806 0.969271
v 1.300980 1.965590 -1.159060
vn 0.343936 -0.938993 -0.000797
v -1.695280 1.594860 0.320978
vn 0.731134 -0.658567 -0.178135
v 1.848020 0.755404 0.362388
vn -0.720172 0.606093 -0.337644
v -1.397720 0.682954 -5.106410
vn -0.058086 0.289700 0.955353
v 1.353420 1.659910 -5.106410
vn -0.226065 -0.390082 0.892598
v -2.172470 1.188380 -3.901070
vn 0.791017 -0.605106 0.090218
v 2.172030 1.188380 -3.901070
vn -0.822677 -0.561535 0.088775
v -2.497140 0.455752 -3.851790
vn 0.962481 -0.265833 0.054424
v -2.291420 0.729547 -0.821714
vn 0.942034 0.191687 -0.275369
v -2.185450 0.337597 -5.024560
vn 0.200438 0.614214 0.763260
v -2.291420 0.721406 -4.859140
vn 0.829672 -0.319757 0.457602
v -1.871200 0.236378 -3.093230
vn -0.481384 0.876502 -0.003833
v -1.728320 0.350052 -4.570750
vn -0.166512 0.963693 0.208736
v -2.185450 0.345738 -1.161910
vn 0.369120 0.844415 -0.388220
v -1.728320 0.390759 -1.110100
vn 0.001920 0.988992 -0.147958
v 2.496710 0.455752 -2.334680
vn -0.976235 -0.210389 -0.051973
v 2.298300 0.720922 -4.859140
vn -0.846242 -0.299248 0.440822
v 2.185020 0.345738 -1.161910
vn -0.318543 0.843294 -0.432881
v 2.290990 0.729547 -0.821714
vn -0.943454 0.184693 -0.275287
v 1.878070 0.235895 -3.093230
vn 0.511807 0.859087 -0.004847
v 1.735190 0.390275 -1.110100
vn -0.002166 0.986304 -0.164921
v 2.192330 0.337113 -5.024560
vn -0.262867 0.652899 0.710369
v 1.771740 0.347150 -4.570750
vn 0.096161 0.977466 0.187918
v -2.819240 -0.131429 -2.814980
vn 0.838194 -0.545372 0.000753
v -2.514960 -0.164565 -4.304000
vn 0.304137 0.726138 0.616623
v -2.274190 -0.188906 -2.814980
vn -0.802669 0.596424 0.000593
v -2.514960 -0.164565 -1.325970
vn -0.242595 -0.622888 -0.743746
v 2.818800 -0.131429 -2.814980
vn -0.860366 -0.509398 0.016846
v 2.514530 -0.164565 -1.325970
vn 0.513554 -0.587900 -0.625008
v 2.273750 -0.188906 -2.814980
vn 0.806365 0.591406 -0.003706
v 2.514530 -0.164565 -4.304000
vn -0.325502 0.714915 0.618825
v -3.452830 -1.588260 -0.618400
vn 0.961538 0.274327 -0.013775
v -3.147360 -0.852249 -0.652623
vn 0.798911 -0.579198 -0.162083
v -3.417150 -1.449940 -2.415100
vn 0.730089 -0.476537 0.489779
v -3.147360 -0.852249 -2.802230
vn 0.955424 -0.157687 0.249598
v -3.024600 -1.414600 -0.618400
vn -0.985449 -0.168705 0.020726
v -2.806680 -0.802845 -2.802230
vn -0.707496 0.693206 0.137535
v -3.238710 -1.501430 0.836134
vn 0.131286 -0.735117 -0.665106
v -2.806680 -0.802845 -0.652623
vn -0.958042 0.125761 -0.257566
v 3.452390 -1.588260 -0.618400
vn -0.981717 0.187018 -0.035433
v 3.146930 -0.852249 -2.802230
vn -0.945514 -0.195081 0.260667
v 3.238280 -1.501430 0.836134
vn -0.140312 -0.733010 -0.665590
v 3.146930 -0.852249 -0.652623
vn -0.688299 -0.678631 -0.256330
v 3.024160 -1.414600 -0.618400
vn 0.962127 -0.272084 -0.016772
v 2.806250 -0.802845 -0.652623
vn 0.957657 0.126347 -0.258706
v 3.416720 -1.449940 -2.415100
vn -0.423184 0.147599 0.893941
v 2.806250 -0.802845 -2.802230
vn 0.717822 0.677634 0.159823
v -0.494183 -1.460570 5.161280
vn 0.794449 0.460595 -0.395856
v 0.544109 -1.509610 4.634900
vn -0.667619 0.704821 0.239819
v 1.207300 1.233260 2.993230
vn -0.784022 -0.573121 -0.238415
v 1.007940 -0.097526 4.686930
vn -0.863179 -0.099611 -0.494975
v 1.489990 0.722277 2.241470
vn -0.941498 0.337011 0.002071
v 1.224280 -0.255206 3.707710
vn -0.874509 0.467616 0.128725
v 1.327620 0.509928 3.607820
vn -0.971792 -0.110171 -0.208525
v 0.854511 -0.902534 4.663130
vn -0.916067 0.353214 -0.189896
v 1.524450 1.184430 1.337860
vn -0.935474 -0.257284 -0.242265
v -1.207740 1.233260 2.993230
vn 0.808853 -0.532619 -0.249147
v -1.008380 -0.097526 4.686930
vn 0.855873 -0.107917 -0.505802
v -1.490420 0.722277 2.241470
vn 0.938723 0.344561 0.008801
v -1.224720 -0.255206 3.707710
vn 0.874152 0.463133 0.146174
v -1.328060 0.509928 3.607820
vn 0.972658 -0.083333 -0.216775
v -0.854948 -0.902534 4.663130
vn 0.921495 0.336086 -0.194661
v -1.524880 1.184430 1.337860
vn 0.942428 -0.243490 -0.229219
v -0.146855 -1.788650 4.874750
vn 0.124981 0.917831 0.376783
v 0.146418 -1.788650 4.874750
vn -0.083549 0.972906 0.215577
v 0.169008 -1.781050 5.200560
vn -0.238301 0.919553 -0.312464
v -0.169445 -1.781050 5.200560
vn 0.261712 0.925936 -0.272302
v -2.285860 -2.146870 -0.111508
vn 0.177767 0.984061 0.004696
v -2.990530 -1.941960 0.947712
vn 0.538893 0.808846 -0.235292
v -1.958340 -2.082320 -2.052580
vn -0.859208 0.387495 0.334081
v -3.037340 -1.968150 -1.672850
vn 0.336296 0.941233 -0.031386
v -1.987690 -1.937280 -0.111508
vn -0.233527 -0.972236 -0.014898
v -2.662870 -1.758570 -1.672850
vn -0.419723 -0.907143 0.030414
v -2.709680 -1.784760 0.947712
vn -0.368621 -0.914304 -0.167831
v 2.285430 -2.146870 -0.111508
vn -0.199523 0.979880 -0.005056
v 3.036910 -1.968150 -1.672850
vn -0.378069 0.925594 -0.018429
v 2.990100 -1.941960 0.947712
vn -0.589302 0.775909 -0.225141
v 1.987260 -1.937280 -0.111508
vn 0.195767 -0.980597 -0.010191
v 2.709240 -1.784760 0.947712
vn 0.308297 -0.933464 -0.183295
v 1.957900 -2.082320 -2.052580
vn 0.836990 0.403937 0.369165
v 2.662430 -1.758570 -1.672850
vn 0.314287 -0.948693 0.034736
v 1.500580 -2.278660 1.547940
vn -0.063109 0.997829 0.018852
v 1.347160 -2.089470 1.547940
vn 0.294105 -0.954577 -0.047805
v 1.347160 -2.053970 -1.021430
vn 0.179604 -0.978508 0.101316
v 1.500580 -2.211160 -1.021430
vn -0.035840 0.991051 0.128583
v -0.000219 -2.409410 1.753680
vn -0.001918 0.998663 -0.051666
v -1.501010 -2.278660 1.547940
vn 0.024532 0.998943 0.038885
v -0.000219 -2.252220 1.753680
vn -0.002625 -0.988869 -0.148765
v -1.347600 -2.089470 1.547940
vn -0.285619 -0.956936 -0.051916
v -0.000219 -2.117220 -0.840484
vn -0.000282 -0.997894 0.064862
v -1.347600 -2.053970 -1.021430
vn -0.185877 -0.978107 0.093573
v -0.000219 -2.274410 -0.840484
vn 0.000145 0.985747 0.168235
v -1.501010 -2.211160 -1.021430
vn -0.004344 0.991782 0.127866
v 0.711825 -2.317820 2.154880
vn -0.105069 -0.510892 -0.853199
v -0.712263 -2.317820 2.154880
vn 0.213789 0.029021 -0.976449
v 0.660688 -2.134270 0.441017
vn 0.089138 -0.995338 -0.036846
v -0.661125 -2.134270 0.441017
vn -0.069478 -0.996700 -0.041972
v 0.711825 -2.160320 -1.216880
vn 0.177113 -0.040222 0.983368
v -0.712263 -2.160320 -1.216880
vn -0.164365 -0.029203 0.985967
v 0.762963 -2.343860 0.441017
vn -0.059145 0.997529 0.037909
v -0.763400 -2.343860 0.441017
vn 0.057897 0.997368 0.043647
v 3.385170 -1.709020 -4.025980
vn -0.573075 -0.457939 0.679615
v 3.227650 -1.630300 -3.079090
vn 0.299216 -0.940927 0.158512
v 2.990280 -1.942090 -4.025820
vn -0.188039 0.664144 0.723570
v 3.542320 -1.787490 -3.079090
vn -0.765958 0.640387 0.056685
v 2.314540 -2.017960 -4.024680
vn 0.293082 0.175089 0.939919
v 2.437870 -2.096420 -3.079090
vn -0.060734 0.997530 0.035295
v 2.709430 -1.784900 -4.024840
vn 0.159067 -0.521284 0.838428
v 2.190840 -1.939230 -3.079090
vn 0.677686 -0.729167 0.095172
v -2.990710 -1.942090 -4.025820
vn 0.239943 0.845517 0.476999
v -2.438310 -2.096420 -3.079090
vn 0.061014 0.997535 0.034651
v -3.385600 -1.709020 -4.025980
vn 0.398489 -0.320920 0.859195
v -3.542760 -1.787490 -3.079090
vn 0.858029 0.512541 0.032997
v -2.709860 -1.784900 -4.024840
vn -0.158955 -0.520921 0.838674
v -3.228090 -1.630300 -3.079090
vn -0.071494 -0.995643 0.059860
v -2.314970 -2.017960 -4.024680
vn -0.293361 0.175339 0.939785
v -2.191270 -1.939230 -3.079090
vn -0.690278 -0.717321 0.094694
v 0.554831 1.530130 3.193180
vn -0.185572 -0.904096 -0.384933
v 0.661931 2.088670 0.296038
vn -0.420009 -0.868220 0.264170
v 0.500091 -0.036928 5.007820
vn -0.233797 -0.404339 -0.884222
v 0.260535 -1.518970 5.316910
vn -0.284993 0.138014 -0.948542
v -0.510219 2.033910 -4.704600
vn 0.087867 -0.891050 0.445318
v -0.000219 1.988850 1.788430
vn 0.000012 -0.985151 -0.171692
v -0.000219 0.867065 4.385340
vn 0.001361 -0.750523 -0.660843
v -0.000219 -0.908293 5.288850
vn 0.000846 -0.130066 -0.991505
v -0.000219 2.172100 -1.271470
vn -0.000000 -0.999887 -0.015036
v -0.000219 -1.778630 5.281410
vn -0.047744 0.856974 -0.513144
v -1.301420 1.965590 -3.878230
vn 0.133207 -0.964029 -0.230008
v 1.300980 1.965590 -3.878230
vn -0.133087 -0.968891 -0.208657
v -2.172470 1.188380 -1.274150
vn 0.847509 -0.528556 -0.048547
v 2.172030 1.188380 -1.274150
vn -0.846246 -0.530029 -0.054197
v -2.497140 0.455752 -2.334680
vn 0.975691 -0.210503 -0.060955
v 2.496710 0.455752 -3.851790
vn -0.960121 -0.272893 0.060807
v -0.000219 2.172100 -3.918860
vn 0.000203 -0.998414 0.056290
v 0.679781 2.133490 -2.564560
vn -0.810589 -0.585615 -0.000000
v 1.804570 1.616290 -2.503340
vn -0.669728 -0.742606 0.000000
v -1.805010 1.616290 -2.503340
vn 0.669728 -0.742606 0.000000
v -2.385270 0.784655 -2.840420
vn 0.918522 -0.395370 0.000000
v 2.384840 0.784655 -2.840420
vn -0.918518 -0.395379 0.000000
v -0.680219 2.133490 -2.564560
vn 0.810589 -0.585616 0.000212
v -0.000219 0.478831 0.850631
vn -0.000344 0.858000 -0.513650
v 0.608381 1.954190 1.767570
vn -0.172990 -0.969646 -0.172804
v -0.000219 0.184367 2.506490
vn 0.000587 0.891949 0.452136
v -0.537419 0.856539 4.343180
vn 0.200026 -0.733566 -0.649515
v -0.000219 -0.979792 3.972060
vn 0.000022 0.717402 0.696659
v -0.389859 -0.880620 5.262300
vn 0.224750 -0.100614 -0.969208
v 0.029005 0.682982 -5.106410
vn 0.000669 0.572441 0.819946
v 0.679781 2.133490 -1.226510
vn -0.867765 -0.492711 -0.064966
v 1.804570 1.616290 -1.136580
vn -0.673458 -0.738123 -0.040354
v -0.000302 1.662010 -5.106410
vn 0.001412 -0.400591 0.916256
v -1.805010 1.616290 -3.870110
vn 0.663539 -0.740547 0.106328
v -1.629590 0.854559 1.102510
vn 0.892375 0.417664 -0.170949
v -1.321630 1.530580 1.540130
vn 0.786612 -0.575552 -0.223566
v -2.385270 0.784655 -3.883230
vn 0.896319 -0.439714 0.057132
v -2.009870 0.531658 -5.147520
vn 0.158828 0.468476 0.869082
v -1.634470 0.311227 -2.840420
vn -0.117840 0.993008 -0.007043
v -2.009870 0.564224 -0.533327
vn 0.431218 0.848371 -0.307111
v 2.384840 0.784655 -1.797620
vn -0.943150 -0.328012 -0.053629
v 2.009440 0.564224 -0.533327
vn -0.403731 0.852564 -0.331866
v 1.663270 0.309293 -2.840420
vn 0.061478 0.998058 -0.010006
v 2.038680 0.529724 -5.147520
vn -0.195307 0.469931 0.860825
v -3.204140 -0.860483 -1.727420
vn 0.909474 -0.415757 0.001640
v -2.977020 -0.827547 -3.160490
vn 0.276681 0.758156 0.590463
v -2.749900 -0.794610 -1.727420
vn -0.850926 0.525286 -0.000391
v -2.977020 -0.827547 -0.294356
vn -0.158211 -0.779135 -0.606562
v 3.203710 -0.860483 -1.727420
vn -0.911962 -0.409940 0.016592
v 2.976590 -0.827547 -0.294356
vn 0.382989 -0.699147 -0.603749
v 2.749470 -0.794610 -1.727420
vn 0.863306 0.504663 -0.004211
v 2.976590 -0.827547 -3.160490
vn -0.296852 0.701839 0.647535
v 1.321190 1.530580 1.540130
vn -0.799740 -0.564861 -0.203341
v 0.883744 -0.941163 4.252090
vn -0.798842 0.574902 0.177029
v 1.406250 0.347148 3.073690
vn -0.939990 0.333485 0.072158
v 1.142410 0.700709 4.014750
vn -0.828744 -0.393681 -0.397743
v 0.767651 -0.863904 5.008030
vn -0.851369 0.196215 -0.486487
v 1.629160 0.854559 1.102510
vn -0.860331 0.455191 -0.229419
v -1.142840 0.700709 4.014750
vn 0.841560 -0.370723 -0.392864
v -0.884182 -0.941163 4.252090
vn 0.812981 0.554940 0.176360
v -1.406690 0.347148 3.073690
vn 0.927603 0.361938 0.092482
v -0.768089 -0.863904 5.008030
vn 0.854315 0.184270 -0.485995
v -0.225322 -1.787730 4.913970
vn 0.308683 0.930250 0.198370
v -0.000219 -1.788950 4.861670
vn 0.010805 0.947400 0.319871
v 0.245207 -1.784950 5.033400
vn -0.317786 0.947755 -0.027811
v 0.224885 -1.782510 5.138010
vn -0.299614 0.938314 -0.172620
v -0.090579 -1.779460 5.261150
vn 0.126661 0.900500 -0.416001
v -0.245645 -1.784950 5.033400
vn 0.364806 0.930520 -0.032375
v -0.225322 -1.782510 5.138010
vn 0.308362 0.938911 -0.152836
v 0.224885 -1.787730 4.913970
vn -0.222327 0.969606 0.102148
v -3.037340 -1.968150 -0.191485
vn 0.447435 0.894073 -0.020884
v -2.662870 -1.758570 -0.191485
vn -0.506714 -0.862049 0.010603
v -2.850110 -1.863360 1.327440
vn 0.512175 0.092043 -0.853935
v 3.036910 -1.968150 -0.191485
vn -0.484492 0.873937 -0.038736
v 2.849670 -1.863360 1.327440
vn -0.340323 -0.510000 -0.789987
v 2.662430 -1.758570 -0.191485
vn 0.408831 -0.912391 -0.019974
v 1.321590 -2.061520 0.228911
vn 0.151371 -0.988369 -0.014648
v 1.423870 -2.121320 -1.438210
vn 0.539338 0.062595 0.839760
v -1.526580 -2.271110 0.228911
vn 0.097289 0.994786 0.030577
v -0.000219 -2.353320 2.186040
vn -0.010605 0.045311 -0.998917
v -0.000219 -2.158520 0.456599
vn -0.002647 -0.998800 -0.048909
v -1.322030 -2.061520 0.228911
vn -0.146494 -0.988910 -0.024420
v -0.000219 -2.173320 -1.193980
vn -0.000300 -0.054747 0.998500
v -1.424310 -2.121320 -1.438210
vn -0.612469 0.055255 0.788561
v 1.526150 -2.271110 0.228911
vn -0.132090 0.991104 0.016278
v -0.000219 -2.368110 0.456599
vn -0.000031 0.998721 0.050556
v 3.563430 -1.657400 -3.079090
vn -0.687065 -0.661850 0.299827
v 3.036910 -1.968150 -3.079090
vn -0.273520 0.961638 0.020965
v 2.135910 -2.069320 -3.079090
vn 0.841094 0.513150 0.170988
v 2.662430 -1.758570 -3.079090
vn 0.273306 -0.960361 0.054872
v -3.037340 -1.968150 -3.079090
vn 0.273720 0.961748 -0.010909
v -3.563860 -1.657400 -3.079090
vn 0.630887 -0.766540 0.119992
v -2.662870 -1.758570 -3.079090
vn -0.290191 -0.956738 0.021010
v -2.136350 -2.069320 -3.079090
vn -0.841240 0.513377 0.169586
v -0.608819 1.954190 1.767570
vn 0.193860 -0.964643 -0.178555
v 0.536981 0.856539 4.343180
vn -0.201790 -0.731313 -0.651507
v 0.389421 -0.880620 5.262300
vn -0.223246 -0.120440 -0.967293
v -0.680219 2.133490 -3.902610
vn 0.425088 -0.874184 -0.234737
v 0.090142 -1.779460 5.261150
vn -0.161381 0.882761 -0.441236
v 0.679781 2.133490 -3.902610
vn -0.424367 -0.873350 -0.239107
v 1.804570 1.616290 -3.870110
vn -0.663103 -0.739535 0.115683
v -1.805010 1.616290 -1.136580
vn 0.672056 -0.739860 -0.030771
v -2.385270 0.784655 -1.797620
vn 0.944429 -0.323648 -0.057492
v 2.384840 0.784655 -3.883230
vn -0.918561 -0.391668 0.053316
v -0.680219 2.133490 -1.226510
vn 0.809647 -0.586236 -0.028259
v -1.202820 0.533987 1.406290
vn 0.380084 0.923274 0.055691
v -0.990225 1.648940 2.413280
vn 0.525748 -0.815941 -0.240477
v 0.989788 1.648940 2.413280
vn -0.509620 -0.822550 -0.252386
v 1.202390 0.533987 1.406290
vn -0.363349 0.930965 0.035817
v -0.926249 1.142160 3.699120
vn 0.519375 -0.724723 -0.452799
v -1.184120 0.393887 2.273630
vn 0.425044 0.855694 0.295170
v 1.183680 0.393887 2.273630
vn -0.437430 0.851824 0.288184
v 0.925811 1.142160 3.699120
vn -0.493215 -0.747623 -0.444746
v -0.738553 -0.445863 5.041340
vn 0.567055 -0.168960 -0.806164
v -0.856287 -0.642235 3.755600
vn 0.385577 0.721233 0.575459
v 0.855849 -0.642235 3.755600
vn -0.393603 0.725890 0.564057
v 0.738116 -0.445863 5.041340
vn -0.565049 -0.152033 -0.810929
v 1.249790 0.166781 3.925310
vn -0.973657 0.010327 -0.227782
v -1.250220 0.166781 3.925310
vn 0.971262 0.023673 -0.236832
v -1.013670 -0.539450 4.452960
vn 0.942566 0.265752 -0.202351
v -1.469770 1.098080 2.003520
vn 0.943500 -0.296312 -0.148344
v -0.000219 1.802820 2.498180
vn -0.000014 -0.957583 -0.288158
v -0.000219 1.241930 3.825890
vn -0.000533 -0.862775 -0.505588
v -0.000219 -0.477171 5.204260
vn 0.004838 -0.268670 -0.963220
v -0.871492 0.378550 4.590150
vn 0.549909 -0.462016 -0.695803
v -1.075500 -0.044637 3.096240
vn 0.420922 0.756752 0.500151
v 1.075060 -0.044637 3.096240
vn -0.444303 0.755912 0.480824
v 0.871055 0.378550 4.590150
vn -0.546124 -0.471424 -0.692465
v 1.370920 0.760830 3.138500
vn -0.959032 -0.211696 -0.188264
v 1.013230 -0.539450 4.452960
vn -0.942507 0.270229 -0.196615
v 1.469340 1.098080 2.003520
vn -0.951443 -0.275526 -0.137266
v -1.371360 0.760830 3.138500
vn 0.959896 -0.199717 -0.196757
v -0.000219 0.410508 4.781760
vn 0.001403 -0.589917 -0.807462
v -0.000219 0.461844 1.317720
vn 0.001510 0.998493 0.054859
v 0.581606 1.772160 2.484190
vn -0.191266 -0.938490 -0.287497
v -0.000219 0.341612 2.145650
vn 0.000129 0.944908 0.327335
v -0.000219 -0.074840 2.954840
vn 0.000463 0.823316 0.567584
v -0.546344 1.223340 3.801250
vn 0.182156 -0.836834 -0.516264
v -0.518974 0.409806 4.736560
vn 0.221150 -0.569045 -0.792011
v -0.000219 -0.656919 3.631650
vn -0.000052 0.734401 0.678716
v -0.445194 -0.458774 5.166860
vn 0.240342 -0.253084 -0.937115
v -1.540580 0.804418 1.671990
vn 0.926964 0.372582 -0.043813
v -1.264680 1.401920 2.289570
vn 0.787130 -0.589979 -0.179864
v 1.264240 1.401920 2.289570
vn -0.789781 -0.586995 -0.177996
v 1.054010 -0.598185 3.979900
vn -0.830315 0.535796 0.153299
v 1.448120 0.550712 2.657580
vn -0.947111 0.317639 0.045666
v 1.315260 0.045971 3.390700
vn -0.919824 0.379312 0.100236
v 1.085460 0.287591 4.397900
vn -0.849461 -0.245757 -0.466926
v 1.174850 0.972983 3.557410
vn -0.797350 -0.511765 -0.319890
v 0.898085 -0.480715 4.880550
vn -0.860628 0.058366 -0.505879
v 1.540150 0.804418 1.671990
vn -0.918581 0.389446 -0.067385
v -1.175290 0.972983 3.557410
vn 0.818989 -0.478916 -0.316064
v -1.085900 0.287591 4.397900
vn 0.851447 -0.222925 -0.474702
v -1.054450 -0.598185 3.979900
vn 0.830445 0.533041 0.161952
v -1.315700 0.045971 3.390700
vn 0.910648 0.393267 0.126736
v -1.448560 0.550712 2.657580
vn 0.943353 0.327621 0.052436
v -0.898522 -0.480715 4.880550
vn 0.862751 0.041429 -0.503928
v -0.582044 1.772160 2.484190
vn 0.190953 -0.940111 -0.282360
v 0.545906 1.223340 3.801250
vn -0.181498 -0.846059 -0.501241
v 0.518536 0.409806 4.736560
vn -0.222339 -0.571714 -0.789752
v 0.444756 -0.458774 5.166860
vn -0.233965 -0.252843 -0.938792
v -1.668220 -0.429010 3.074120
vn 0.357871 -0.440640 -0.823265
v -1.668220 -1.430990 3.074120
vn 0.357871 0.440639 -0.823265
v 1.667780 -1.430990 3.074120
vn -0.357871 0.440639 -0.823265
v 1.667780 -0.429010 3.074120
vn -0.357871 -0.440640 -0.823265
v -2.212450 -1.430990 2.527440
vn 0.824549 0.439826 -0.355910
v -2.212450 -0.429010 2.527440
vn 0.824549 -0.439827 -0.355910
v -2.212450 -0.429010 -4.112450
vn 0.824549 -0.439827 0.355910
v -2.212450 -1.430990 -4.112450
vn 0.824549 0.439826 0.355910
v -1.668220 -0.028842 2.527440
vn 0.380576 -0.881734 -0.278761
v 1.667780 -0.028842 2.527440
vn -0.418330 -0.862996 -0.283262
v 1.667780 -0.028842 -4.112450
vn -0.589476 -0.638287 0.495083
v -1.668220 -0.028842 -4.112450
vn 0.541977 -0.681034 0.492396
v -1.668220 -1.430990 -4.659130
vn 0.357871 0.440639 0.823265
v -1.668220 -0.429010 -4.659130
vn 0.357871 -0.440640 0.823265
v 1.667780 -0.429010 -4.659130
vn -0.357871 -0.440640 0.823265
v 1.667780 -1.430990 -4.659130
vn -0.357871 0.440639 0.823265
v 2.212010 -0.429010 2.527440
vn -0.824549 -0.439827 -0.355910
v 2.212010 -1.430990 2.527440
vn -0.824549 0.439826 -0.355910
v 2.212010 -1.430990 -4.112450
vn -0.824549 0.439826 0.355910
v 2.212010 -0.429010 -4.112450
vn -0.824549 -0.439827 0.355910
v 1.667780 -1.831160 2.527440
vn -0.301719 0.904761 -0.300621
v -1.668220 -1.831160 2.527440
vn 0.301719 0.904761 -0.300621
v -1.668220 -1.831160 -4.112450
vn 0.301719 0.904761 0.300621
v 1.667780 -1.831160 -4.112450
vn -0.301719 0.904761 0.300621
v 2.496710 0.455752 -3.093230
vn -0.962826 -0.270122 0.001024
v -2.497140 0.455752 -3.093230
vn 0.963222 -0.268706 -0.001013
v -2.497840 0.223825 -1.909810
vn 0.936963 0.286157 -0.200536
v -2.501470 0.192573 -2.007120
vn 0.948200 -0.106341 -0.299348
v -2.499610 0.196013 -4.316050
vn 0.925918 0.270240 0.263904
v -2.496450 0.227264 -4.441680
vn 0.948322 0.176287 0.263835
v -2.084700 0.139008 -4.432730
vn -0.421665 0.895677 0.141282
v -2.126910 0.116059 -4.315590
vn -0.494065 0.856128 0.151474
v -2.089050 0.135941 -1.913240
vn -0.413356 0.898333 -0.148777
v -2.129380 0.112798 -2.006670
vn -0.659213 0.724378 -0.201781
v 2.496130 0.227278 -4.441710
vn -0.946731 0.246000 0.207808
v 2.499170 0.196013 -4.316050
vn -0.928360 0.264111 0.261522
v 2.501030 0.192573 -2.007120
vn -0.938850 -0.182148 -0.292202
v 2.497400 0.223825 -1.909810
vn -0.939538 0.248964 -0.235128
v 2.088710 0.135965 -1.913170
vn 0.402786 0.905482 -0.133664
v 2.128950 0.112798 -2.006670
vn 0.665986 0.718213 -0.201575
v 2.084870 0.139424 -4.433180
vn 0.452494 0.877223 0.160402
v 2.126470 0.116059 -4.315590
vn 0.486747 0.860635 0.149614
v -2.555160 0.273205 -3.168850
vn 0.995738 -0.092216 -0.001691
v -2.555820 0.230551 -3.161550
vn 0.993109 -0.117187 -0.001194
v -2.314110 0.152509 -4.700980
vn 0.296846 0.863721 0.407269
v -2.292000 0.180131 -4.851380
vn 0.264070 0.866860 0.422873
v -2.065670 0.102500 -3.160440
vn -0.638656 0.769493 -0.000312
v -2.015540 0.125513 -3.168480
vn -0.529186 0.848505 0.000580
v -2.316980 0.148075 -1.622510
vn 0.145810 0.624145 -0.767582
v -2.294890 0.176381 -1.497430
vn 0.296341 0.892474 -0.340105
v 2.554720 0.273205 -3.168850
vn -0.995594 -0.093751 0.001927
v 2.555390 0.230551 -3.161550
vn -0.992868 -0.119196 0.002177
v 2.316540 0.148075 -1.622510
vn -0.015240 0.595739 -0.803034
v 2.294460 0.176381 -1.497430
vn -0.272532 0.892977 -0.358215
v 2.065230 0.102500 -3.160440
vn 0.641577 0.767058 -0.000513
v 2.015440 0.125826 -3.168230
vn 0.535125 0.844773 -0.000749
v 2.313680 0.152509 -4.700980
vn -0.308884 0.861854 0.402242
v 2.292080 0.180305 -4.851620
vn -0.275712 0.883357 0.379030
v -2.528470 0.254868 -3.804120
vn 0.994921 -0.087387 0.049962
v -2.529150 0.250525 -2.538350
vn 0.995624 -0.073148 -0.058153
v 2.528710 0.250525 -2.538350
vn -0.996051 -0.074453 -0.048357
v 2.528030 0.254868 -3.804120
vn -0.993845 -0.094255 0.058213
v 2.530200 0.209500 -2.597670
vn -0.959208 -0.277699 -0.052948
v -2.530640 0.209500 -2.597670
vn 0.959732 -0.275657 -0.054104
v -2.528840 0.208586 -3.755370
vn 0.983187 -0.174913 0.052421
v 2.528400 0.208586 -3.755370
vn -0.983136 -0.175186 0.052470
v -2.189460 -2.128310 1.500040
vn 0.158867 0.637643 -0.753772
v -2.084230 -1.925310 1.500500
vn 0.021893 -0.771215 -0.636199
v -2.309360 -2.007370 1.601050
vn 0.278720 -0.321926 -0.904808
v 2.083790 -1.925310 1.500500
vn 0.096566 -0.586980 -0.803822
v 2.189020 -2.128310 1.500040
vn -0.306571 0.690841 -0.654792
v 2.308920 -2.007370 1.601050
vn -0.314651 0.302081 -0.899857
v 1.388670 -2.090870 1.773450
vn -0.075705 -0.802579 -0.591723
v 1.233780 -2.239750 2.015480
vn 0.013018 -0.508805 -0.860783
v 1.459410 -2.292230 1.771620
vn -0.325456 0.824038 -0.463724
v -1.459840 -2.292230 1.771620
vn 0.353024 0.741314 -0.570814
v -1.234210 -2.239750 2.015480
vn 0.081029 -0.045682 -0.995664
v -1.389100 -2.090870 1.773450
vn 0.064239 -0.806966 -0.587094
v 1.222180 1.674050 -2.518650
vn 0.498112 -0.867113 -0.000188
v 1.222870 1.673860 -1.163720
vn 0.497934 -0.865260 0.058198
v 0.600981 1.841950 -2.564560
vn -0.866819 -0.498624 -0.000001
v 0.601671 1.841770 -1.231160
vn -0.920754 -0.390103 0.005647
v 1.222180 1.674050 -3.878230
vn 0.422509 -0.704859 -0.569790
v 0.600981 1.841950 -3.902610
vn -0.695729 -0.417715 -0.584359
v 0.584549 2.022900 0.286732
vn -0.687272 -0.168134 0.706674
v 1.190590 1.861830 0.328655
vn 0.340374 -0.692400 0.636182
v -1.222610 1.674050 -2.518650
vn -0.498611 -0.866826 -0.000185
v -1.223300 1.673860 -1.163720
vn -0.342904 -0.936656 0.071357
v -0.601418 1.841950 -2.564560
vn 0.866819 -0.498623 0.000191
v -0.602108 1.841770 -1.231160
vn 0.867464 -0.496817 0.026059
v -0.601418 1.841950 -3.902610
vn 0.695730 -0.417713 -0.584359
v -1.222610 1.674050 -3.878230
vn -0.422499 -0.704870 -0.569784
v -1.191030 1.861830 0.328655
vn -0.134898 -0.815323 0.563073
v -0.584986 2.022900 0.286732
vn 0.708699 -0.403265 0.578898
v -0.818455 -0.067227 4.869370
vn 0.556498 -0.319893 -0.766797
vt 0.011544 0.263247
vt 0.125728 0.263247
vt 0.068530 0.293621
f 5/1/5 8/2/8 95/3/95
vt 0.430580 0.569048
vt 0.640607 0.569049
vt 0.539155 0.578464
f 8/4/8 16/5/16 112/6/112
vt 0.433930 0.845340
vt 0.490315 0.867777
vt 0.428288 0.867573
f 16/7/16 264/8/264 117/9/117
vt 0.433930 0.845340
vt 0.402218 0.862400
vt 0.415364 0.837440
f 16/10/16 278/11/278 140/12/140
vt 0.545691 0.845628
vt 0.579737 0.862639
vt 0.552670 0.867808
f 17/13/17 272/14/272 121/15/121
vt 0.569895 0.893271
vt 0.550325 0.910395
vt 0.552670 0.867808
f 22/16/22 113/17/113 121/18/121
vt 0.648384 0.235486
vt 0.655257 0.268187
vt 0.636222 0.265952
f 22/19/22 272/20/272 128/21/128
vt 0.412870 0.893029
vt 0.428288 0.867573
vt 0.432747 0.910263
f 23/22/23 117/23/117 122/24/122
vt 0.412870 0.893029
vt 0.402218 0.862400
vt 0.428288 0.867573
f 23/25/23 278/26/278 117/27/117
vt 0.532180 0.557828
vt 0.430580 0.548365
vt 0.640622 0.548365
f 114/28/114 17/29/17 5/30/5
vt 0.428288 0.867573
vt 0.402218 0.862400
vt 0.433930 0.845340
f 117/31/117 278/32/278 16/33/16
vt 0.944844 0.252987
vt 0.890296 0.261226
vt 0.931372 0.235904
f 120/34/120 136/35/136 21/36/21
vt 0.552670 0.867808
vt 0.490315 0.867777
vt 0.545691 0.845628
f 121/37/121 264/38/264 17/39/17
vt 0.552670 0.867808
vt 0.579737 0.862639
vt 0.569895 0.893271
f 121/40/121 272/41/272 22/42/22
vt 0.461138 0.262508
vt 0.406583 0.254279
vt 0.420053 0.237191
f 126/43/126 94/44/94 20/45/20
vt 0.566009 0.837585
vt 0.579737 0.862639
vt 0.545691 0.845628
f 130/46/130 272/47/272 17/48/17
vt 0.715234 0.264909
vt 0.696829 0.267621
vt 0.703078 0.234475
f 134/49/134 278/50/278 23/51/23
vt 0.490315 0.867777
vt 0.433930 0.845340
vt 0.545691 0.845628
f 264/52/264 16/53/16 17/54/17
vt 0.443865 0.270464
vt 0.406583 0.254279
vt 0.461138 0.262508
f 274/55/274 94/56/94 126/57/126
vt 0.907568 0.269178
vt 0.890296 0.261226
vt 0.944844 0.252987
f 276/58/276 136/59/136 120/60/120
vt 0.043919 0.360350
vt 0.016369 0.341318
vt 0.043919 0.331027
f 401/61/401 396/62/396 404/63/404
vt 0.332141 0.301704
vt 0.359691 0.311994
vt 0.332141 0.331027
f 405/64/405 399/65/399 412/66/412
vt 0.359691 0.341317
vt 0.332141 0.360349
vt 0.332141 0.331027
f 409/67/409 402/68/402 407/69/407
vt 0.016369 0.311994
vt 0.043919 0.301704
vt 0.043919 0.331027
f 410/70/410 406/71/406 415/72/415
vt 0.332184 0.442766
vt 0.359733 0.461798
vt 0.332184 0.472088
f 413/73/413 398/74/398 416/75/416
vt 0.332184 0.616897
vt 0.359733 0.627187
vt 0.332184 0.646219
f 417/76/417 397/77/397 400/78/400
vt 0.043961 0.616897
vt 0.043961 0.646219
vt 0.016412 0.627187
f 418/79/418 403/80/403 408/81/408
vt 0.043961 0.472088
vt 0.016412 0.461798
vt 0.043961 0.442766
f 419/82/419 411/83/411 414/84/414
vt 0.878712 0.522493
vt 0.882201 0.527011
vt 0.871639 0.525315
f 462/85/462 463/86/463 464/87/464
vt 0.918721 0.500051
vt 0.922210 0.495532
vt 0.929283 0.498355
f 465/88/465 466/89/466 467/90/467
vt 0.873256 0.495869
vt 0.887667 0.495532
vt 0.885514 0.499537
f 469/91/469 470/92/470 468/93/468
vt 0.927666 0.522829
vt 0.915409 0.526497
vt 0.913256 0.522493
f 472/94/472 473/95/473 471/96/471
vt 0.975530 0.857531
vt 0.956791 0.867159
vt 0.959989 0.842230
vt 0.981451 0.837413
f 1/97/1 176/98/176 376/99/376 340/100/340
vt 0.810897 0.377525
vt 0.791253 0.370046
vt 0.805177 0.319785
vt 0.824383 0.326738
f 1/101/1 340/102/340 368/103/368 88/104/88
vt 0.554362 0.605101
vt 0.571403 0.608448
vt 0.563164 0.634318
vt 0.549048 0.633194
f 2/105/2 174/106/174 386/107/386 344/108/344
vt 0.554362 0.605101
vt 0.549048 0.633194
vt 0.532045 0.632658
vt 0.536949 0.603619
f 2/109/2 344/110/344 372/111/372 90/112/90
vt 0.942367 0.766972
vt 0.927596 0.762942
vt 0.926241 0.731546
vt 0.942675 0.734542
f 3/113/3 167/114/167 378/115/378 342/116/342
vt 0.717518 0.606868
vt 0.735341 0.603991
vt 0.740715 0.632852
vt 0.723863 0.633537
f 3/117/3 235/118/235 393/119/393 347/120/347
vt 0.818913 0.413955
vt 0.831976 0.463290
vt 0.813120 0.470199
vt 0.799921 0.421005
f 4/121/4 88/122/88 368/123/368 343/124/343
vt 0.636651 0.599959
vt 0.659010 0.600634
vt 0.666948 0.619482
vt 0.645043 0.615497
f 4/125/4 169/126/169 380/127/380 346/128/346
vt 0.735767 0.356748
vt 0.771528 0.362745
vt 0.775352 0.386286
vt 0.742245 0.386048
f 5/129/5 89/130/89 269/131/269 94/132/94
vt 0.735767 0.356748
vt 0.678997 0.364127
vt 0.603593 0.344683
vt 0.624447 0.341341
f 5/133/5 132/134/132 273/135/273 114/136/114
vt 0.026125 0.263239
vt 0.010736 0.156034
vt 0.155522 0.156034
vt 0.140329 0.263247
f 5/137/5 404/138/404 405/139/405 8/140/8
vt 0.919482 0.774412
vt 0.909984 0.833459
vt 0.890540 0.836191
vt 0.892266 0.772188
f 6/141/6 91/142/91 329/143/329 96/144/96
vt 0.919482 0.774412
vt 0.942964 0.775308
vt 0.928156 0.829116
vt 0.909984 0.833459
f 6/145/6 119/146/119 270/147/270 91/148/91
vt 0.793206 0.981221
vt 0.793668 0.968372
vt 0.857313 0.970458
vt 0.857001 0.983485
f 6/149/6 488/150/488 483/151/483 116/152/116
vt 0.932333 0.643606
vt 0.941841 0.702652
vt 0.923672 0.698340
vt 0.908823 0.644510
f 7/153/7 92/154/92 287/155/287 97/156/97
vt 0.932333 0.643606
vt 0.959568 0.641383
vt 0.961268 0.705395
vt 0.941841 0.702652
f 7/157/7 236/158/236 259/159/259 92/160/92
vt 0.859112 0.890106
vt 0.846323 0.891067
vt 0.844394 0.864380
vt 0.857053 0.863492
f 7/161/7 481/162/481 480/163/480 236/164/236
vt 0.744936 0.432338
vt 0.753294 0.403337
vt 0.785724 0.404912
vt 0.780685 0.427741
f 8/165/8 120/166/120 292/167/292 93/168/93
vt 0.121772 0.409967
vt 0.016369 0.385205
vt 0.304589 0.385205
vt 0.331762 0.406347
f 8/169/8 405/170/405 406/171/406 16/172/16
vt 0.883354 0.392804
vt 0.893462 0.351352
vt 0.912964 0.358290
vt 0.904015 0.393689
f 9/173/9 99/174/99 374/175/374 349/176/349
vt 0.883354 0.392804
vt 0.865692 0.390374
vt 0.876806 0.345452
vt 0.893462 0.351352
f 9/177/9 360/178/360 371/179/371 99/180/99
vt 0.764960 0.712813
vt 0.760688 0.729532
vt 0.739440 0.726603
vt 0.742348 0.713149
f 10/181/10 170/182/170 379/183/379 350/184/350
vt 0.888186 0.398708
vt 0.907842 0.397407
vt 0.917312 0.431177
vt 0.898748 0.438370
f 10/185/10 350/186/350 374/187/374 99/188/99
vt 0.661056 0.674939
vt 0.658304 0.655883
vt 0.675588 0.658885
vt 0.677674 0.678834
f 10/189/10 361/190/361 381/191/381 170/192/170
vt 0.722675 0.773981
vt 0.709379 0.784359
vt 0.694106 0.771458
vt 0.705358 0.763918
f 11/193/11 237/194/237 395/195/395 351/196/351
vt 0.729338 0.703650
vt 0.729591 0.681912
vt 0.745510 0.684937
vt 0.745433 0.707780
f 11/197/11 362/198/362 394/199/394 237/200/237
vt 0.611261 0.737700
vt 0.607466 0.735456
vt 0.622435 0.725684
vt 0.625578 0.728189
f 12/201/12 165/202/165 303/203/303 184/204/184
vt 0.611261 0.737700
vt 0.625578 0.728189
vt 0.629465 0.731083
vt 0.618472 0.739258
f 12/205/12 184/206/184 301/207/301 110/208/110
vt 0.957984 0.394795
vt 0.963103 0.377210
vt 0.978433 0.383944
vt 0.976543 0.389418
f 13/209/13 106/210/106 298/211/298 181/212/181
vt 0.957984 0.394795
vt 0.924036 0.394609
vt 0.931743 0.365188
vt 0.963103 0.377210
f 13/213/13 107/214/107 262/215/262 106/216/106
vt 0.596315 0.713186
vt 0.617922 0.712852
vt 0.616810 0.716701
vt 0.594453 0.717854
f 13/217/13 181/218/181 297/219/297 104/220/104
vt 0.684280 0.713139
vt 0.686145 0.717807
vt 0.663780 0.716662
vt 0.662666 0.712813
f 14/221/14 166/222/166 304/223/304 182/224/182
vt 0.959490 0.394545
vt 0.977987 0.399319
vt 0.979976 0.404927
vt 0.964946 0.411469
f 14/225/14 182/226/182 298/227/298 106/228/106
vt 0.669340 0.737665
vt 0.655014 0.728158
vt 0.658157 0.725651
vt 0.673134 0.735418
f 15/229/15 183/230/183 300/231/300 108/232/108
vt 0.669340 0.737665
vt 0.662128 0.739227
vt 0.651126 0.731056
vt 0.655014 0.728158
f 15/233/15 238/234/238 333/235/333 183/236/183
vt 0.182255 0.285777
vt 0.167582 0.254602
vt 0.312390 0.254602
vt 0.294112 0.285875
f 16/237/16 406/238/406 407/239/407 17/240/17
vt 0.523090 0.311191
vt 0.624447 0.341341
vt 0.603593 0.344683
vt 0.526294 0.333855
f 17/241/17 114/242/114 273/243/273 130/244/130
vt 0.016369 0.384111
vt 0.043565 0.360351
vt 0.331774 0.360350
vt 0.226389 0.385205
f 17/245/17 407/246/407 404/247/404 5/248/5
vt 0.536689 0.926930
vt 0.513639 0.934170
vt 0.491548 0.910357
vt 0.550325 0.910395
f 18/249/18 239/250/239 267/251/267 113/252/113
vt 0.536689 0.926930
vt 0.551642 0.966249
vt 0.523800 0.968530
vt 0.513639 0.934170
f 18/253/18 245/254/245 332/255/332 239/256/239
vt 0.446336 0.926826
vt 0.432747 0.910263
vt 0.491548 0.910357
vt 0.469384 0.934128
f 19/257/19 122/258/122 267/259/267 115/260/115
vt 0.713141 0.189816
vt 0.755100 0.194495
vt 0.756854 0.220850
vt 0.701617 0.207937
f 19/261/19 246/262/246 335/263/335 122/264/122
vt 0.965929 0.770822
vt 0.947219 0.823690
vt 0.928156 0.829116
vt 0.942964 0.775308
f 20/265/20 180/266/180 270/267/270 119/268/119
vt 0.420053 0.237191
vt 0.481870 0.243121
vt 0.503829 0.263570
vt 0.461138 0.262508
f 20/269/20 247/270/247 337/271/337 126/272/126
vt 0.885824 0.640034
vt 0.908823 0.644510
vt 0.923672 0.698340
vt 0.904592 0.692944
f 21/273/21 97/274/97 287/275/287 173/276/173
vt 0.885824 0.640034
vt 0.904592 0.692944
vt 0.887368 0.686862
vt 0.872016 0.656655
f 21/277/21 173/278/173 292/279/292 120/280/120
vt 0.931372 0.235904
vt 0.869562 0.241845
vt 0.874946 0.217343
vt 0.938499 0.213477
f 21/281/21 248/282/248 266/283/266 97/284/97
vt 0.648384 0.235486
vt 0.636222 0.265952
vt 0.594338 0.265637
vt 0.595188 0.246176
f 22/285/22 128/286/128 271/287/271 123/288/123
vt 0.487973 0.278459
vt 0.526675 0.279485
vt 0.535284 0.288873
vt 0.507528 0.288682
f 24/289/24 249/290/249 455/291/455 422/292/422
vt 0.487973 0.278459
vt 0.507528 0.288682
vt 0.487203 0.290803
vt 0.471650 0.282901
f 24/293/24 422/294/422 445/295/445 131/296/131
vt 0.631380 0.279808
vt 0.648573 0.279979
vt 0.640588 0.289309
vt 0.619334 0.289603
f 25/297/25 127/298/127 441/299/441 425/300/425
vt 0.631380 0.279808
vt 0.636222 0.265952
vt 0.655257 0.268187
vt 0.648573 0.279979
f 25/301/25 128/302/128 272/303/272 127/304/127
vt 0.631380 0.279808
vt 0.619334 0.289603
vt 0.591140 0.289608
vt 0.593113 0.280696
f 25/305/25 425/306/425 454/307/454 125/308/125
vt 0.525648 0.344701
vt 0.590285 0.353484
vt 0.585425 0.360877
vt 0.529126 0.353491
f 26/309/26 129/310/129 443/311/443 426/312/426
vt 0.525648 0.344701
vt 0.526294 0.333855
vt 0.603593 0.344683
vt 0.590285 0.353484
f 26/313/26 130/314/130 273/315/273 129/316/129
vt 0.575738 0.834301
vt 0.581701 0.827581
vt 0.593263 0.843997
vt 0.588340 0.853832
f 26/317/26 426/318/426 441/319/441 127/320/127
vt 0.820387 0.585864
vt 0.843948 0.585864
vt 0.832011 0.597945
vt 0.811811 0.597324
f 27/321/27 131/322/131 445/323/445 428/324/428
vt 0.653131 0.369699
vt 0.678997 0.364127
vt 0.702070 0.382329
vt 0.672269 0.383521
f 27/325/27 132/326/132 274/327/274 131/328/131
vt 0.653131 0.369699
vt 0.639498 0.375311
vt 0.585425 0.360877
vt 0.590285 0.353484
f 27/329/27 428/330/428 443/331/443 129/332/129
vt 0.720068 0.278670
vt 0.758339 0.279461
vt 0.760323 0.288370
vt 0.732135 0.288416
f 28/333/28 250/334/250 457/335/457 430/336/430
vt 0.720068 0.278670
vt 0.732135 0.288416
vt 0.710896 0.288234
vt 0.703008 0.279014
f 28/337/28 430/338/430 453/339/453 139/340/139
vt 0.863467 0.277181
vt 0.879789 0.281619
vt 0.864239 0.289523
vt 0.843916 0.287407
f 29/341/29 135/342/135 449/343/449 433/344/433
vt 0.863467 0.277181
vt 0.890296 0.261226
vt 0.907568 0.269178
vt 0.879789 0.281619
f 29/345/29 136/346/136 276/347/276 135/348/135
vt 0.863467 0.277181
vt 0.843916 0.287407
vt 0.816164 0.287606
vt 0.824769 0.278216
f 29/349/29 433/350/433 456/351/456 133/352/133
vt 0.660681 0.411469
vt 0.593948 0.422010
vt 0.589689 0.414136
vt 0.647116 0.404509
f 30/353/30 137/354/137 451/355/451 434/356/434
vt 0.660681 0.411469
vt 0.686927 0.419565
vt 0.606787 0.431501
vt 0.593948 0.422010
f 30/357/30 138/358/138 277/359/277 137/360/137
vt 0.660681 0.411469
vt 0.647116 0.404509
vt 0.665358 0.394545
vt 0.682063 0.399315
f 30/361/30 434/362/434 449/363/449 135/364/135
vt 0.407021 0.834228
vt 0.394475 0.853617
vt 0.389902 0.843809
vt 0.401514 0.827581
f 31/365/31 139/366/139 453/367/453 436/368/436
vt 0.407021 0.834228
vt 0.415364 0.837440
vt 0.402218 0.862400
vt 0.394475 0.853617
f 31/369/31 140/370/140 278/371/278 139/372/139
vt 0.525713 0.424184
vt 0.530303 0.415855
vt 0.589689 0.414136
vt 0.593948 0.422010
f 31/373/31 436/374/436 451/375/451 137/376/137
vt 0.325296 0.140064
vt 0.262217 0.143027
vt 0.306998 0.104595
vt 0.353957 0.103484
f 32/377/32 141/378/141 279/379/279 150/380/150
vt 0.325296 0.140064
vt 0.353957 0.103484
vt 0.370613 0.107300
vt 0.330281 0.148487
f 32/381/32 150/382/150 282/383/282 144/384/144
vt 0.214129 0.148219
vt 0.196480 0.150481
vt 0.243712 0.112840
vt 0.260400 0.108733
f 33/385/33 142/386/142 280/387/280 152/388/152
vt 0.214129 0.148219
vt 0.260400 0.108733
vt 0.306998 0.104595
vt 0.262217 0.143027
f 33/389/33 152/390/152 279/391/279 141/392/141
vt 0.214129 0.148219
vt 0.197972 0.166384
vt 0.179082 0.165788
vt 0.196480 0.150481
f 33/393/33 424/394/424 440/395/440 142/396/142
vt 0.946954 0.153249
vt 0.898602 0.153678
vt 0.851866 0.119232
vt 0.898863 0.118339
f 34/397/34 143/398/143 281/399/281 154/400/154
vt 0.946954 0.153249
vt 0.898863 0.118339
vt 0.915160 0.112797
vt 0.964020 0.148268
f 34/401/34 154/402/154 280/403/280 142/404/142
vt 0.946954 0.153249
vt 0.963493 0.169142
vt 0.913305 0.169437
vt 0.898602 0.153678
f 34/405/34 427/406/427 442/407/442 143/408/143
vt 0.850071 0.151393
vt 0.832241 0.149223
vt 0.787509 0.113961
vt 0.804612 0.116886
f 35/409/35 144/410/144 282/411/282 156/412/156
vt 0.850071 0.151393
vt 0.804612 0.116886
vt 0.851866 0.119232
vt 0.898602 0.153678
f 35/413/35 156/414/156 281/415/281 143/416/143
vt 0.850071 0.151393
vt 0.863081 0.167585
vt 0.844783 0.164878
vt 0.832241 0.149223
f 35/417/35 429/418/429 444/419/444 144/420/144
vt 0.788883 0.162487
vt 0.740892 0.156462
vt 0.696785 0.117259
vt 0.743304 0.122205
f 36/421/36 145/422/145 283/423/283 158/424/158
vt 0.788883 0.162487
vt 0.743304 0.122205
vt 0.759918 0.126601
vt 0.806490 0.165054
f 36/425/36 158/426/158 286/427/286 148/428/148
vt 0.677875 0.152406
vt 0.672744 0.160741
vt 0.633133 0.118861
vt 0.649852 0.115334
f 37/429/37 146/430/146 284/431/284 160/432/160
vt 0.677875 0.152406
vt 0.649852 0.115334
vt 0.696785 0.117259
vt 0.740892 0.156462
f 37/433/37 160/434/160 283/435/283 145/436/145
vt 0.677875 0.152406
vt 0.704344 0.173622
vt 0.685898 0.176300
vt 0.672744 0.160741
f 37/437/37 432/438/432 448/439/448 146/440/146
vt 0.470907 0.149079
vt 0.422376 0.151363
vt 0.469112 0.116917
vt 0.516366 0.114572
f 38/441/38 147/442/147 285/443/285 162/444/162
vt 0.470907 0.149079
vt 0.516366 0.114572
vt 0.533469 0.111646
vt 0.488737 0.146909
f 38/445/38 162/446/162 284/447/284 146/448/146
vt 0.470907 0.149079
vt 0.457898 0.165271
vt 0.407673 0.167122
vt 0.422376 0.151363
f 38/449/38 435/450/435 450/451/450 147/452/147
vt 0.374025 0.150935
vt 0.356958 0.145954
vt 0.405819 0.110483
vt 0.422115 0.116024
f 39/453/39 148/454/148 286/455/286 164/456/164
vt 0.374025 0.150935
vt 0.422115 0.116024
vt 0.469112 0.116917
vt 0.422376 0.151363
f 39/457/39 164/458/164 285/459/285 147/460/147
vt 0.374025 0.150935
vt 0.357486 0.166828
vt 0.339538 0.161586
vt 0.356958 0.145954
f 39/461/39 437/462/437 452/463/452 148/464/148
vt 0.019780 0.889197
vt 0.018234 0.837060
vt 0.044967 0.857240
vt 0.046645 0.910693
f 40/465/40 149/466/149 305/467/305 186/468/186
vt 0.400710 0.067856
vt 0.353957 0.103484
vt 0.306998 0.104595
vt 0.353478 0.068790
f 40/469/40 150/470/150 279/471/279 149/472/149
vt 0.019780 0.889197
vt 0.046645 0.910693
vt 0.050520 0.929690
vt 0.022381 0.908616
f 40/473/40 186/474/186 307/475/307 155/476/155
vt 0.016843 0.774627
vt 0.005252 0.752210
vt 0.014956 0.719566
vt 0.020747 0.719869
f 41/477/41 151/478/151 326/479/326 230/480/230
vt 0.296240 0.068349
vt 0.260400 0.108733
vt 0.243712 0.112840
vt 0.275725 0.079165
f 41/481/41 152/482/152 280/483/280 151/484/151
vt 0.016843 0.774627
vt 0.045160 0.786921
vt 0.044967 0.857240
vt 0.018234 0.837060
f 41/485/41 188/486/188 305/487/305 149/488/149
vt 0.016843 0.774627
vt 0.020747 0.719869
vt 0.045739 0.720241
vt 0.045160 0.786921
f 41/489/41 230/490/230 325/491/325 188/492/188
vt 0.347318 0.774630
vt 0.343663 0.837972
vt 0.319941 0.858820
vt 0.319383 0.787043
f 42/493/42 153/494/153 306/495/306 190/496/190
vt 0.861431 0.084503
vt 0.898863 0.118339
vt 0.851866 0.119232
vt 0.804678 0.088498
f 42/497/42 154/498/154 281/499/281 153/500/153
vt 0.347318 0.774630
vt 0.346964 0.718498
vt 0.362884 0.717553
vt 0.358400 0.751166
f 42/501/42 232/502/232 326/503/326 151/504/151
vt 0.345937 0.890238
vt 0.351291 0.908532
vt 0.327670 0.933296
vt 0.322367 0.914122
f 43/505/43 155/506/155 307/507/307 191/508/191
vt 0.758007 0.083067
vt 0.804612 0.116886
vt 0.787509 0.113961
vt 0.741039 0.078864
f 43/509/43 156/510/156 282/511/282 155/512/155
vt 0.345937 0.890238
vt 0.322367 0.914122
vt 0.319941 0.858820
vt 0.343663 0.837972
f 43/513/43 191/514/191 306/515/306 153/516/153
vt 0.363851 0.774628
vt 0.362460 0.837061
vt 0.335727 0.857241
vt 0.335534 0.786922
f 44/517/44 157/518/157 308/519/308 193/520/193
vt 0.708170 0.081205
vt 0.743304 0.122205
vt 0.696785 0.117259
vt 0.650933 0.080654
f 44/521/44 158/522/158 283/523/283 157/524/157
vt 0.363851 0.774628
vt 0.359947 0.719869
vt 0.365738 0.719567
vt 0.375442 0.752211
f 44/525/44 222/526/222 321/527/321 163/528/163
vt 0.360914 0.889198
vt 0.358313 0.908616
vt 0.330173 0.929691
vt 0.334048 0.910694
f 45/529/45 159/530/159 309/531/309 194/532/194
vt 0.603723 0.078900
vt 0.649852 0.115334
vt 0.633133 0.118861
vt 0.586941 0.083604
f 45/533/45 160/534/160 284/535/284 159/536/159
vt 0.360914 0.889198
vt 0.334048 0.910694
vt 0.335727 0.857241
vt 0.362460 0.837061
f 45/537/45 194/538/194 308/539/308 157/540/157
vt 0.032646 0.890238
vt 0.034920 0.837973
vt 0.058642 0.858820
vt 0.056217 0.914123
f 46/541/46 161/542/161 310/543/310 196/544/196
vt 0.562971 0.080752
vt 0.516366 0.114572
vt 0.469112 0.116917
vt 0.516300 0.086183
f 46/545/46 162/546/162 285/547/285 161/548/161
vt 0.032646 0.890238
vt 0.056217 0.914123
vt 0.050913 0.933296
vt 0.027292 0.908533
f 46/549/46 196/550/196 309/551/309 159/552/159
vt 0.031265 0.774630
vt 0.020183 0.751166
vt 0.015698 0.717553
vt 0.031619 0.718498
f 47/553/47 163/554/163 321/555/321 220/556/220
vt 0.459547 0.082188
vt 0.422115 0.116024
vt 0.405819 0.110483
vt 0.436759 0.076549
f 47/557/47 164/558/164 286/559/286 163/560/163
vt 0.031265 0.774630
vt 0.059200 0.787043
vt 0.058642 0.858820
vt 0.034920 0.837973
f 47/561/47 198/562/198 310/563/310 161/564/161
vt 0.031265 0.774630
vt 0.031619 0.718498
vt 0.059378 0.718988
vt 0.059200 0.787043
f 47/565/47 220/566/220 324/567/324 198/568/198
vt 0.600607 0.728904
vt 0.573344 0.737728
vt 0.562004 0.723914
vt 0.594453 0.717854
f 48/569/48 179/570/179 294/571/294 104/572/104
vt 0.600607 0.728904
vt 0.619343 0.721677
vt 0.622435 0.725684
vt 0.607466 0.735456
f 48/573/48 302/574/302 303/575/303 165/576/165
vt 0.679993 0.728861
vt 0.661249 0.721641
vt 0.663780 0.716662
vt 0.686145 0.717807
f 49/577/49 299/578/299 304/579/304 166/580/166
vt 0.682194 0.605170
vt 0.689030 0.627994
vt 0.666948 0.619482
vt 0.659010 0.600634
f 50/581/50 363/582/363 380/583/380 169/584/169
vt 0.912116 0.751459
vt 0.908277 0.722415
vt 0.926241 0.731546
vt 0.927596 0.762942
f 50/585/50 365/586/365 378/587/378 167/588/167
vt 0.745369 0.749201
vt 0.725912 0.743243
vt 0.739440 0.726603
vt 0.760688 0.729532
f 51/589/51 364/590/364 379/591/379 170/592/170
vt 0.940032 0.882136
vt 0.924767 0.893793
vt 0.925695 0.862382
vt 0.943628 0.853135
f 52/593/52 174/594/174 377/595/377 355/596/355
vt 0.940032 0.882136
vt 0.943628 0.853135
vt 0.959989 0.842230
vt 0.956791 0.867159
f 52/597/52 355/598/355 376/599/376 176/600/176
vt 0.591135 0.604958
vt 0.584189 0.627754
vt 0.563164 0.634318
vt 0.571403 0.608448
f 52/601/52 366/602/366 386/603/386 174/604/174
vt 0.574274 0.691103
vt 0.554705 0.700579
vt 0.556069 0.679301
vt 0.576132 0.670159
f 53/605/53 175/606/175 387/607/387 353/608/353
vt 0.574274 0.691103
vt 0.576132 0.670159
vt 0.597550 0.658691
vt 0.595445 0.678611
f 53/609/53 353/610/353 389/611/389 177/612/177
vt 0.082223 0.927621
vt 0.046645 0.910693
vt 0.044967 0.857240
vt 0.081489 0.861212
f 54/613/54 186/614/186 305/615/305 185/616/185
vt 0.082223 0.927621
vt 0.118423 0.940455
vt 0.120004 0.951305
vt 0.084254 0.938124
f 54/617/54 204/618/204 471/619/471 462/620/462
vt 0.082734 0.787072
vt 0.045160 0.786921
vt 0.045739 0.720241
vt 0.074608 0.720390
f 55/621/55 188/622/188 325/623/325 228/624/228
vt 0.082734 0.787072
vt 0.119068 0.818245
vt 0.117757 0.877689
vt 0.081489 0.861212
f 55/625/55 210/626/210 313/627/313 185/628/185
vt 0.286186 0.787149
vt 0.319383 0.787043
vt 0.319941 0.858820
vt 0.286152 0.862983
f 56/629/56 190/630/190 306/631/306 189/632/189
vt 0.286186 0.787149
vt 0.254282 0.819215
vt 0.257063 0.798831
vt 0.280884 0.768484
f 56/633/56 208/634/208 318/635/318 187/636/187
vt 0.288033 0.930701
vt 0.254688 0.943545
vt 0.253451 0.879706
vt 0.286152 0.862983
f 57/637/57 206/638/206 316/639/316 189/640/189
vt 0.288033 0.930701
vt 0.290549 0.941074
vt 0.256427 0.954715
vt 0.254688 0.943545
f 57/641/57 463/642/463 473/643/473 206/644/206
vt 0.297960 0.787073
vt 0.299205 0.861213
vt 0.262937 0.877689
vt 0.261626 0.818245
f 58/645/58 192/646/192 319/647/319 202/648/202
vt 0.297960 0.787073
vt 0.335534 0.786922
vt 0.335727 0.857241
vt 0.299205 0.861213
f 58/649/58 193/650/193 308/651/308 192/652/192
vt 0.297960 0.787073
vt 0.261626 0.818245
vt 0.257985 0.798041
vt 0.283319 0.768998
f 58/653/58 202/654/202 312/655/312 197/656/197
vt 0.298470 0.927622
vt 0.262271 0.940455
vt 0.262937 0.877689
vt 0.299205 0.861213
f 59/657/59 199/658/199 319/659/319 192/660/192
vt 0.298470 0.927622
vt 0.296439 0.938125
vt 0.260689 0.951305
vt 0.262271 0.940455
f 59/661/59 466/662/466 470/663/470 199/664/199
vt 0.090551 0.930701
vt 0.092431 0.862983
vt 0.125133 0.879706
vt 0.123895 0.943545
f 60/665/60 195/666/195 311/667/311 200/668/200
vt 0.090551 0.930701
vt 0.056217 0.914123
vt 0.058642 0.858820
vt 0.092431 0.862983
f 60/669/60 196/670/196 310/671/310 195/672/195
vt 0.090551 0.930701
vt 0.123895 0.943545
vt 0.122156 0.954715
vt 0.088034 0.941074
f 60/673/60 200/674/200 468/675/468 465/676/465
vt 0.092397 0.787149
vt 0.097699 0.768484
vt 0.121520 0.798832
vt 0.124302 0.819215
f 61/677/61 197/678/197 312/679/312 201/680/201
vt 0.092397 0.787149
vt 0.059200 0.787043
vt 0.059378 0.718988
vt 0.083607 0.719135
f 61/681/61 198/682/198 324/683/324 226/684/226
vt 0.092397 0.787149
vt 0.124302 0.819215
vt 0.125133 0.879706
vt 0.092431 0.862983
f 61/685/61 201/686/201 311/687/311 195/688/195
vt 0.226207 0.949259
vt 0.224716 0.970028
vt 0.190347 0.971650
vt 0.190347 0.950685
f 62/689/62 211/690/211 314/691/314 203/692/203
vt 0.154486 0.949259
vt 0.190347 0.950685
vt 0.190347 0.971650
vt 0.155978 0.970028
f 63/693/63 203/694/203 314/695/314 212/696/212
vt 0.156679 0.952486
vt 0.123895 0.943545
vt 0.125133 0.879706
vt 0.157277 0.890166
f 64/697/64 200/698/200 311/699/311 213/700/213
vt 0.156679 0.952486
vt 0.157277 0.890166
vt 0.189292 0.891002
vt 0.189292 0.953946
f 64/701/64 213/702/213 315/703/315 205/704/205
vt 0.221904 0.952486
vt 0.189292 0.953946
vt 0.189292 0.891002
vt 0.221307 0.890166
f 65/705/65 205/706/205 315/707/315 214/708/214
vt 0.221904 0.952486
vt 0.223568 0.973682
vt 0.189292 0.975396
vt 0.189292 0.953946
f 65/709/65 212/710/212 314/711/314 205/712/205
vt 0.221904 0.952486
vt 0.221307 0.890166
vt 0.253451 0.879706
vt 0.254688 0.943545
f 65/713/65 214/714/214 316/715/316 206/716/206
vt 0.156823 0.828043
vt 0.124302 0.819215
vt 0.121520 0.798832
vt 0.155254 0.809946
f 66/717/66 201/718/201 312/719/312 215/720/215
vt 0.156823 0.828043
vt 0.157277 0.890166
vt 0.125133 0.879706
vt 0.124302 0.819215
f 66/721/66 213/722/213 311/723/311 201/724/201
vt 0.156823 0.828043
vt 0.155254 0.809946
vt 0.189292 0.811143
vt 0.189292 0.828315
f 66/725/66 215/726/215 317/727/317 207/728/207
vt 0.221760 0.828043
vt 0.189292 0.828315
vt 0.189292 0.811143
vt 0.223329 0.809946
f 67/729/67 207/730/207 317/731/317 216/732/216
vt 0.221760 0.828043
vt 0.221307 0.890166
vt 0.189292 0.891002
vt 0.189292 0.828315
f 67/733/67 214/734/214 315/735/315 207/736/207
vt 0.221760 0.828043
vt 0.223329 0.809946
vt 0.257063 0.798831
vt 0.254282 0.819215
f 67/737/67 216/738/216 318/739/318 208/740/208
vt 0.225973 0.826837
vt 0.224208 0.808547
vt 0.257985 0.798041
vt 0.261626 0.818245
f 68/741/68 215/742/215 312/743/312 202/744/202
vt 0.225973 0.826837
vt 0.226617 0.888020
vt 0.190347 0.888855
vt 0.190347 0.827098
f 68/745/68 217/746/217 320/747/320 209/748/209
vt 0.154721 0.826837
vt 0.156486 0.808547
vt 0.190347 0.809626
vt 0.190347 0.827098
f 69/749/69 216/750/216 317/751/317 209/752/209
vt 0.154721 0.826837
vt 0.154077 0.888020
vt 0.117757 0.877689
vt 0.119068 0.818245
f 69/753/69 218/754/218 313/755/313 210/756/210
vt 0.037612 0.673397
vt 0.031619 0.718498
vt 0.015698 0.717553
vt 0.025688 0.672921
f 70/757/70 220/758/220 321/759/321 219/760/219
vt 0.351535 0.675784
vt 0.359947 0.719869
vt 0.334955 0.720241
vt 0.333125 0.675781
f 71/761/71 222/762/222 322/763/322 221/764/221
vt 0.311834 0.675755
vt 0.306086 0.720390
vt 0.291759 0.720274
vt 0.300708 0.675595
f 72/765/72 224/766/224 323/767/323 223/768/223
vt 0.076333 0.673989
vt 0.083607 0.719135
vt 0.059378 0.718988
vt 0.058310 0.673804
f 73/769/73 226/770/226 324/771/324 225/772/225
vt 0.068861 0.675755
vt 0.074608 0.720390
vt 0.045739 0.720241
vt 0.047569 0.675780
f 74/773/74 228/774/228 325/775/325 227/776/227
vt 0.029159 0.675783
vt 0.020747 0.719869
vt 0.014956 0.719566
vt 0.024419 0.675272
f 75/777/75 230/778/230 326/779/326 229/780/229
vt 0.340971 0.673397
vt 0.346964 0.718498
vt 0.319205 0.718988
vt 0.320273 0.673804
f 76/781/76 232/782/232 327/783/327 231/784/231
vt 0.302250 0.673989
vt 0.294976 0.719135
vt 0.288262 0.718672
vt 0.297151 0.673607
f 77/785/77 234/786/234 328/787/328 233/788/233
vt 0.512929 0.599959
vt 0.536949 0.603619
vt 0.532045 0.632658
vt 0.508615 0.630279
f 78/789/78 90/790/90 372/791/372 357/792/357
vt 0.759299 0.599959
vt 0.764061 0.630202
vt 0.740715 0.632852
vt 0.735341 0.603991
f 78/793/78 357/794/357 393/795/393 235/796/235
vt 0.988392 0.640034
vt 0.987588 0.706668
vt 0.961268 0.705395
vt 0.959568 0.641383
f 79/797/79 240/798/240 259/799/259 236/800/236
vt 0.588967 0.798438
vt 0.571273 0.784433
vt 0.586522 0.771506
vt 0.602339 0.782959
f 80/801/80 102/802/102 375/803/375 358/804/358
vt 0.691701 0.798394
vt 0.678301 0.782931
vt 0.694106 0.771458
vt 0.709379 0.784359
f 80/805/80 358/806/358 395/807/395 237/808/237
vt 0.505766 0.709646
vt 0.505138 0.686042
vt 0.527675 0.684788
vt 0.527962 0.707620
f 80/809/80 367/810/367 373/811/373 102/812/102
vt 0.629010 0.743127
vt 0.618472 0.739258
vt 0.629465 0.731083
vt 0.633429 0.733066
f 81/813/81 110/814/110 301/815/301 244/816/244
vt 0.629010 0.743127
vt 0.614209 0.767269
vt 0.599756 0.758807
vt 0.618472 0.739258
f 81/817/81 242/818/242 263/819/263 110/820/110
vt 0.651589 0.743105
vt 0.647162 0.733042
vt 0.651126 0.731056
vt 0.662128 0.739227
f 81/821/81 244/822/244 333/823/333 238/824/238
vt 0.491514 0.937937
vt 0.469384 0.934128
vt 0.491548 0.910357
vt 0.513639 0.934170
f 82/825/82 115/826/115 267/827/267 239/828/239
vt 0.431411 0.466902
vt 0.463403 0.466768
vt 0.464104 0.496331
vt 0.428963 0.489232
f 82/829/82 251/830/251 334/831/334 115/832/115
vt 0.916315 0.984369
vt 0.916375 0.971070
vt 0.976731 0.970834
vt 0.976856 0.984266
f 83/833/83 482/834/482 487/835/487 245/836/245
vt 0.814189 0.192335
vt 0.873494 0.190707
vt 0.874946 0.217343
vt 0.815689 0.218948
f 84/837/84 118/838/118 266/839/266 253/840/253
vt 0.814189 0.192335
vt 0.815689 0.218948
vt 0.756854 0.220850
vt 0.755100 0.194495
f 84/841/84 253/842/253 335/843/335 246/844/246
vt 0.723623 0.906058
vt 0.723508 0.892855
vt 0.782390 0.892394
vt 0.782587 0.905419
f 84/845/84 474/846/474 475/847/475 118/848/118
vt 0.538686 0.244794
vt 0.595188 0.246176
vt 0.594338 0.265637
vt 0.549151 0.264939
f 85/849/85 123/850/123 271/851/271 255/852/255
vt 0.538686 0.244794
vt 0.535741 0.220212
vt 0.594569 0.222106
vt 0.595188 0.246176
f 85/853/85 254/854/254 268/855/268 123/856/123
vt 0.538686 0.244794
vt 0.549151 0.264939
vt 0.503829 0.263570
vt 0.481870 0.243121
f 85/857/85 255/858/255 337/859/337 247/860/247
vt 0.812749 0.243531
vt 0.815689 0.218948
vt 0.874946 0.217343
vt 0.869562 0.241845
f 86/861/86 253/862/253 266/863/266 248/864/248
vt 0.520858 0.466775
vt 0.578313 0.466782
vt 0.580261 0.496346
vt 0.522182 0.496338
f 87/865/87 243/866/243 265/867/265 252/868/252
vt 0.520858 0.466775
vt 0.522182 0.496338
vt 0.464104 0.496331
vt 0.463403 0.466768
f 87/869/87 252/870/252 334/871/334 251/872/251
vt 0.824383 0.326738
vt 0.839657 0.332267
vt 0.826904 0.381750
vt 0.810897 0.377525
f 88/873/88 370/874/370 345/875/345 1/876/1
vt 0.988245 0.817565
vt 0.981451 0.837413
vt 0.959989 0.842230
vt 0.964407 0.817595
f 89/877/89 340/878/340 376/879/376 269/880/269
vt 0.891308 0.900311
vt 0.890679 0.867902
vt 0.909162 0.865536
vt 0.908288 0.897727
f 90/881/90 392/882/392 341/883/341 2/884/2
vt 0.909984 0.833459
vt 0.909162 0.865536
vt 0.890679 0.867902
vt 0.890540 0.836191
f 91/885/91 341/886/341 392/887/392 329/888/329
vt 0.941841 0.702652
vt 0.942675 0.734542
vt 0.926241 0.731546
vt 0.923672 0.698340
f 92/889/92 342/890/342 378/891/378 287/892/287
vt 0.780685 0.427741
vt 0.793991 0.476855
vt 0.790667 0.478558
vt 0.744936 0.432338
f 93/893/93 258/894/258 95/895/95 8/896/8
vt 0.780685 0.427741
vt 0.799921 0.421005
vt 0.813120 0.470199
vt 0.793991 0.476855
f 93/897/93 343/898/343 368/899/368 258/900/258
vt 0.979730 0.787418
vt 0.964407 0.817595
vt 0.947219 0.823690
vt 0.965929 0.770822
f 94/901/94 269/902/269 180/903/180 20/904/20
vt 0.742245 0.386048
vt 0.702070 0.382329
vt 0.678997 0.364127
vt 0.735767 0.356748
f 94/905/94 274/906/274 132/907/132 5/908/5
vt 0.782531 0.311191
vt 0.785857 0.312946
vt 0.771528 0.362745
vt 0.735767 0.356748
f 95/909/95 258/910/258 89/911/89 5/912/5
vt 0.892266 0.772188
vt 0.890540 0.836191
vt 0.864215 0.837411
vt 0.863463 0.770822
f 96/913/96 329/914/329 240/915/240 79/916/79
vt 0.783189 0.940683
vt 0.795979 0.941767
vt 0.793668 0.968372
vt 0.780894 0.967274
f 96/917/96 489/918/489 488/919/488 6/920/6
vt 0.938499 0.213477
vt 0.874946 0.217343
vt 0.873494 0.190707
vt 0.938977 0.189816
f 97/921/97 266/922/266 118/923/118 7/924/7
vt 0.544180 0.659791
vt 0.557874 0.655837
vt 0.556069 0.679301
vt 0.543575 0.681623
f 98/925/98 293/926/293 387/927/387 359/928/359
vt 0.544180 0.659791
vt 0.549048 0.633194
vt 0.563164 0.634318
vt 0.557874 0.655837
f 98/929/98 344/930/344 386/931/386 293/932/293
vt 0.898748 0.438370
vt 0.882762 0.444386
vt 0.871356 0.401354
vt 0.888186 0.398708
f 99/933/99 371/934/371 361/935/361 10/936/10
vt 0.843691 0.386282
vt 0.855697 0.337977
vt 0.876806 0.345452
vt 0.865692 0.390374
f 100/937/100 260/938/260 371/939/371 360/940/360
vt 0.843691 0.386282
vt 0.826904 0.381750
vt 0.839657 0.332267
vt 0.855697 0.337977
f 100/941/100 345/942/345 370/943/370 260/944/260
vt 0.652161 0.632747
vt 0.674115 0.639074
vt 0.675588 0.658885
vt 0.658304 0.655883
f 101/945/101 289/946/289 381/947/381 361/948/361
vt 0.652161 0.632747
vt 0.645043 0.615497
vt 0.666948 0.619482
vt 0.674115 0.639074
f 101/949/101 346/950/346 380/951/380 289/952/289
vt 0.571273 0.784433
vt 0.559358 0.773790
vt 0.575254 0.763973
vt 0.586522 0.771506
f 102/953/102 490/954/490 348/955/348 375/956/375
vt 0.727972 0.658280
vt 0.744258 0.659973
vt 0.745510 0.684937
vt 0.729591 0.681912
f 103/957/103 330/958/330 394/959/394 362/960/362
vt 0.727972 0.658280
vt 0.723863 0.633537
vt 0.740715 0.632852
vt 0.744258 0.659973
f 103/961/103 347/962/347 393/963/393 330/964/330
vt 0.594453 0.717854
vt 0.562004 0.723914
vt 0.560210 0.713336
vt 0.596315 0.713186
f 104/965/104 294/966/294 107/967/107 13/968/13
vt 0.594453 0.717854
vt 0.616810 0.716701
vt 0.619343 0.721677
vt 0.600607 0.728904
f 104/969/104 297/970/297 302/971/302 48/972/48
vt 0.589850 0.753765
vt 0.583520 0.748620
vt 0.607466 0.735456
vt 0.611261 0.737700
f 105/973/105 296/974/296 165/975/165 12/976/12
vt 0.589850 0.753765
vt 0.575254 0.763973
vt 0.568157 0.757342
vt 0.583520 0.748620
f 105/977/105 348/978/348 391/979/391 296/980/296
vt 0.964946 0.411469
vt 0.935137 0.423959
vt 0.926889 0.395946
vt 0.959490 0.394545
f 106/981/106 262/982/262 109/983/109 14/984/14
vt 0.924036 0.394609
vt 0.904015 0.393689
vt 0.912964 0.358290
vt 0.931743 0.365188
f 107/985/107 349/986/349 374/987/374 262/988/262
vt 0.673134 0.735418
vt 0.697090 0.748571
vt 0.690763 0.753720
vt 0.669340 0.737665
f 108/989/108 291/990/291 111/991/111 15/992/15
vt 0.673134 0.735418
vt 0.658157 0.725651
vt 0.661249 0.721641
vt 0.679993 0.728861
f 108/993/108 300/994/300 299/995/299 49/996/49
vt 0.720392 0.713283
vt 0.718598 0.723862
vt 0.686145 0.717807
vt 0.684280 0.713139
f 109/997/109 288/998/288 166/999/166 14/1000/14
vt 0.720392 0.713283
vt 0.742348 0.713149
vt 0.739440 0.726603
vt 0.718598 0.723862
f 109/1001/109 350/1002/350 379/1003/379 288/1004/288
vt 0.618472 0.739258
vt 0.599756 0.758807
vt 0.589850 0.753765
vt 0.611261 0.737700
f 110/1005/110 263/1006/263 105/1007/105 12/1008/12
vt 0.690763 0.753720
vt 0.680860 0.758770
vt 0.662128 0.739227
vt 0.669340 0.737665
f 111/1009/111 331/1010/331 238/1011/238 15/1012/15
vt 0.690763 0.753720
vt 0.705358 0.763918
vt 0.694106 0.771458
vt 0.680860 0.758770
f 111/1013/111 351/1014/351 395/1015/395 331/1016/331
vt 0.628087 0.436426
vt 0.606787 0.431501
vt 0.686927 0.419565
vt 0.744936 0.432338
f 112/1017/112 277/1018/277 138/1019/138 8/1020/8
vt 0.649802 0.209220
vt 0.594569 0.222106
vt 0.596329 0.195755
vt 0.638289 0.191099
f 113/1021/113 268/1022/268 245/1023/245 18/1024/18
vt 0.469384 0.934128
vt 0.459100 0.968531
vt 0.431203 0.966198
vt 0.446336 0.926826
f 115/1025/115 334/1026/334 246/1027/246 19/1028/19
vt 0.477929 0.191979
vt 0.476480 0.218618
vt 0.412920 0.214764
vt 0.412438 0.191100
f 116/1029/116 336/1030/336 119/1031/119 6/1032/6
vt 0.857001 0.983485
vt 0.857313 0.970458
vt 0.916375 0.971070
vt 0.916315 0.984369
f 116/1033/116 483/1034/483 482/1035/482 83/1036/83
vt 0.782587 0.905419
vt 0.782390 0.892394
vt 0.846323 0.891067
vt 0.846621 0.903961
f 118/1037/118 475/1038/475 481/1039/481 7/1040/7
vt 0.412920 0.214764
vt 0.476480 0.218618
vt 0.481870 0.243121
vt 0.420053 0.237191
f 119/1041/119 336/1042/336 247/1043/247 20/1044/20
vt 0.701617 0.207937
vt 0.756854 0.220850
vt 0.756232 0.244928
vt 0.703078 0.234475
f 122/1045/122 335/1046/335 124/1047/124 23/1048/23
vt 0.595188 0.246176
vt 0.594569 0.222106
vt 0.649802 0.209220
vt 0.648384 0.235486
f 123/1049/123 268/1050/268 113/1051/113 22/1052/22
vt 0.756232 0.244928
vt 0.756854 0.220850
vt 0.815689 0.218948
vt 0.812749 0.243531
f 124/1053/124 335/1054/335 253/1055/253 86/1056/86
vt 0.756232 0.244928
vt 0.757095 0.264398
vt 0.715234 0.264909
vt 0.703078 0.234475
f 124/1057/124 338/1058/338 134/1059/134 23/1060/23
vt 0.593113 0.280696
vt 0.594338 0.265637
vt 0.636222 0.265952
vt 0.631380 0.279808
f 125/1061/125 271/1062/271 128/1063/128 25/1064/25
vt 0.593113 0.280696
vt 0.591140 0.289608
vt 0.563071 0.288804
vt 0.559884 0.280352
f 125/1065/125 454/1066/454 438/1067/438 421/1068/421
vt 0.461138 0.262508
vt 0.503829 0.263570
vt 0.526675 0.279485
vt 0.487973 0.278459
f 126/1069/126 337/1070/337 249/1071/249 24/1072/24
vt 0.588340 0.853832
vt 0.579737 0.862639
vt 0.566009 0.837585
vt 0.575738 0.834301
f 127/1073/127 272/1074/272 130/1075/130 26/1076/26
vt 0.590285 0.353484
vt 0.603593 0.344683
vt 0.678997 0.364127
vt 0.653131 0.369699
f 129/1077/129 273/1078/273 132/1079/132 27/1080/27
vt 0.471650 0.282901
vt 0.443865 0.270464
vt 0.461138 0.262508
vt 0.487973 0.278459
f 131/1081/131 274/1082/274 126/1083/126 24/1084/24
vt 0.824769 0.278216
vt 0.847609 0.262297
vt 0.890296 0.261226
vt 0.863467 0.277181
f 133/1085/133 275/1086/275 136/1087/136 29/1088/29
vt 0.824769 0.278216
vt 0.816164 0.287606
vt 0.788383 0.287547
vt 0.791565 0.279095
f 133/1089/133 456/1090/456 446/1091/446 420/1092/420
vt 0.715234 0.264909
vt 0.757095 0.264398
vt 0.758339 0.279461
vt 0.720068 0.278670
f 134/1093/134 338/1094/338 250/1095/250 28/1096/28
vt 0.682063 0.399315
vt 0.712478 0.403514
vt 0.686927 0.419565
vt 0.660681 0.411469
f 135/1097/135 276/1098/276 138/1099/138 30/1100/30
vt 0.890296 0.261226
vt 0.847609 0.262297
vt 0.869562 0.241845
vt 0.931372 0.235904
f 136/1101/136 275/1102/275 248/1103/248 21/1104/21
vt 0.593948 0.422010
vt 0.606787 0.431501
vt 0.525083 0.434053
vt 0.525713 0.424184
f 137/1105/137 277/1106/277 140/1107/140 31/1108/31
vt 0.686927 0.419565
vt 0.712478 0.403514
vt 0.753294 0.403337
vt 0.744936 0.432338
f 138/1109/138 276/1110/276 120/1111/120 8/1112/8
vt 0.703008 0.279014
vt 0.696829 0.267621
vt 0.715234 0.264909
vt 0.720068 0.278670
f 139/1113/139 278/1114/278 134/1115/134 28/1116/28
vt 0.525083 0.434053
vt 0.606787 0.431501
vt 0.628087 0.436426
vt 0.519123 0.455457
f 140/1117/140 277/1118/277 112/1119/112 16/1120/16
vt 0.964020 0.148268
vt 0.981440 0.163896
vt 0.963493 0.169142
vt 0.946954 0.153249
f 142/1121/142 440/1122/440 427/1123/427 34/1124/34
vt 0.898602 0.153678
vt 0.913305 0.169437
vt 0.863081 0.167585
vt 0.850071 0.151393
f 143/1125/143 442/1126/442 429/1127/429 35/1128/35
vt 0.330281 0.148487
vt 0.316860 0.163816
vt 0.298463 0.160818
vt 0.325296 0.140064
f 144/1129/144 444/1130/444 423/1131/423 32/1132/32
vt 0.488737 0.146909
vt 0.476196 0.162563
vt 0.457898 0.165271
vt 0.470907 0.149079
f 146/1133/146 448/1134/448 435/1135/435 38/1136/38
vt 0.422376 0.151363
vt 0.407673 0.167122
vt 0.357486 0.166828
vt 0.374025 0.150935
f 147/1137/147 450/1138/450 437/1139/437 39/1140/39
vt 0.806490 0.165054
vt 0.823620 0.180657
vt 0.804723 0.180930
vt 0.788883 0.162487
f 148/1141/148 452/1142/452 431/1143/431 36/1144/36
vt 0.353478 0.068790
vt 0.306998 0.104595
vt 0.260400 0.108733
vt 0.296240 0.068349
f 149/1145/149 279/1146/279 152/1147/152 41/1148/41
vt 0.884219 0.078864
vt 0.915160 0.112797
vt 0.898863 0.118339
vt 0.861431 0.084503
f 151/1149/151 280/1150/280 154/1151/154 42/1152/42
vt 0.804678 0.088498
vt 0.851866 0.119232
vt 0.804612 0.116886
vt 0.758007 0.083067
f 153/1153/153 281/1154/281 156/1155/156 43/1156/43
vt 0.417408 0.072850
vt 0.370613 0.107300
vt 0.353957 0.103484
vt 0.400710 0.067856
f 155/1157/155 282/1158/282 150/1159/150 40/1160/40
vt 0.650933 0.080654
vt 0.696785 0.117259
vt 0.649852 0.115334
vt 0.603723 0.078900
f 157/1161/157 283/1162/283 160/1163/160 45/1164/45
vt 0.579939 0.076549
vt 0.533469 0.111646
vt 0.516366 0.114572
vt 0.562971 0.080752
f 159/1165/159 284/1166/284 162/1167/162 46/1168/46
vt 0.516300 0.086183
vt 0.469112 0.116917
vt 0.422115 0.116024
vt 0.459547 0.082188
f 161/1169/161 285/1170/285 164/1171/164 47/1172/47
vt 0.728494 0.092375
vt 0.759918 0.126601
vt 0.743304 0.122205
vt 0.708170 0.081205
f 163/1173/163 286/1174/286 158/1175/158 44/1176/44
vt 0.607466 0.735456
vt 0.583520 0.748620
vt 0.573344 0.737728
vt 0.600607 0.728904
f 165/1177/165 296/1178/296 179/1179/179 48/1180/48
vt 0.686145 0.717807
vt 0.718598 0.723862
vt 0.707261 0.737676
vt 0.679993 0.728861
f 166/1181/166 288/1182/288 172/1183/172 49/1184/49
vt 0.701918 0.608773
vt 0.709931 0.634618
vt 0.689030 0.627994
vt 0.682194 0.605170
f 167/1185/167 383/1186/383 363/1187/363 50/1188/50
vt 0.718402 0.700855
vt 0.717097 0.679538
vt 0.729591 0.681912
vt 0.729338 0.703650
f 168/1189/168 382/1190/382 362/1191/362 11/1192/11
vt 0.730317 0.765420
vt 0.712456 0.757273
vt 0.725912 0.743243
vt 0.745369 0.749201
f 168/1193/168 384/1194/384 364/1195/364 51/1196/51
vt 0.895172 0.736551
vt 0.891851 0.711549
vt 0.908277 0.722415
vt 0.912116 0.751459
f 169/1197/169 385/1198/385 365/1199/365 50/1200/50
vt 0.677674 0.678834
vt 0.675588 0.658885
vt 0.697010 0.670385
vt 0.698841 0.691336
f 170/1201/170 381/1202/381 352/1203/352 51/1204/51
vt 0.696025 0.650016
vt 0.674115 0.639074
vt 0.666948 0.619482
vt 0.689030 0.627994
f 171/1205/171 289/1206/289 380/1207/380 363/1208/363
vt 0.696025 0.650016
vt 0.697010 0.670385
vt 0.675588 0.658885
vt 0.674115 0.639074
f 171/1209/171 352/1210/352 381/1211/381 289/1212/289
vt 0.707261 0.737676
vt 0.718598 0.723862
vt 0.739440 0.726603
vt 0.725912 0.743243
f 172/1213/172 288/1214/288 379/1215/379 364/1216/364
vt 0.707261 0.737676
vt 0.697090 0.748571
vt 0.673134 0.735418
vt 0.679993 0.728861
f 172/1217/172 291/1218/291 108/1219/108 49/1220/49
vt 0.904592 0.692944
vt 0.923672 0.698340
vt 0.926241 0.731546
vt 0.908277 0.722415
f 173/1221/173 287/1222/287 378/1223/378 365/1224/365
vt 0.554705 0.700579
vt 0.543375 0.704636
vt 0.543575 0.681623
vt 0.556069 0.679301
f 175/1225/175 490/1226/490 359/1227/359 387/1228/387
vt 0.614321 0.600526
vt 0.606311 0.619321
vt 0.584189 0.627754
vt 0.591135 0.604958
f 176/1229/176 390/1230/390 366/1231/366 52/1232/52
vt 0.519914 0.729571
vt 0.541163 0.726651
vt 0.554688 0.743297
vt 0.535223 0.749246
f 177/1233/177 388/1234/388 354/1235/354 53/1236/53
vt 0.595445 0.678611
vt 0.597550 0.658691
vt 0.614829 0.655726
vt 0.612045 0.674736
f 177/1237/177 389/1238/389 360/1239/360 9/1240/9
vt 0.577118 0.649788
vt 0.557874 0.655837
vt 0.563164 0.634318
vt 0.584189 0.627754
f 178/1241/178 293/1242/293 386/1243/386 366/1244/366
vt 0.577118 0.649788
vt 0.576132 0.670159
vt 0.556069 0.679301
vt 0.557874 0.655837
f 178/1245/178 353/1246/353 387/1247/387 293/1248/293
vt 0.573344 0.737728
vt 0.554688 0.743297
vt 0.541163 0.726651
vt 0.562004 0.723914
f 179/1249/179 354/1250/354 388/1251/388 294/1252/294
vt 0.947219 0.823690
vt 0.943628 0.853135
vt 0.925695 0.862382
vt 0.928156 0.829116
f 180/1253/180 355/1254/355 377/1255/377 270/1256/270
vt 0.081489 0.861212
vt 0.044967 0.857240
vt 0.045160 0.786921
vt 0.082734 0.787072
f 185/1257/185 305/1258/305 188/1259/188 55/1260/55
vt 0.081489 0.861212
vt 0.117757 0.877689
vt 0.118423 0.940455
vt 0.082223 0.927621
f 185/1261/185 313/1262/313 204/1263/204 54/1264/54
vt 0.097375 0.768997
vt 0.122709 0.798041
vt 0.119068 0.818245
vt 0.082734 0.787072
f 187/1265/187 318/1266/318 210/1267/210 55/1268/55
vt 0.280884 0.768484
vt 0.288262 0.718672
vt 0.294976 0.719135
vt 0.286186 0.787149
f 187/1269/187 328/1270/328 234/1271/234 56/1272/56
vt 0.286152 0.862983
vt 0.319941 0.858820
vt 0.322367 0.914122
vt 0.288033 0.930701
f 189/1273/189 306/1274/306 191/1275/191 57/1276/57
vt 0.286152 0.862983
vt 0.253451 0.879706
vt 0.254282 0.819215
vt 0.286186 0.787149
f 189/1277/189 316/1278/316 208/1279/208 56/1280/56
vt 0.319383 0.787043
vt 0.319205 0.718988
vt 0.346964 0.718498
vt 0.347318 0.774630
f 190/1281/190 327/1282/327 232/1283/232 42/1284/42
vt 0.299205 0.861213
vt 0.335727 0.857241
vt 0.334048 0.910694
vt 0.298470 0.927622
f 192/1285/192 308/1286/308 194/1287/194 59/1288/59
vt 0.335534 0.786922
vt 0.334955 0.720241
vt 0.359947 0.719869
vt 0.363851 0.774628
f 193/1289/193 322/1290/322 222/1291/222 44/1292/44
vt 0.092431 0.862983
vt 0.058642 0.858820
vt 0.059200 0.787043
vt 0.092397 0.787149
f 195/1293/195 310/1294/310 198/1295/198 61/1296/61
vt 0.283319 0.768998
vt 0.291759 0.720274
vt 0.306086 0.720390
vt 0.297960 0.787073
f 197/1297/197 323/1298/323 224/1299/224 58/1300/58
vt 0.261626 0.818245
vt 0.262937 0.877689
vt 0.226617 0.888020
vt 0.225973 0.826837
f 202/1301/202 319/1302/319 217/1303/217 68/1304/68
vt 0.190347 0.950685
vt 0.190347 0.888855
vt 0.226617 0.888020
vt 0.226207 0.949259
f 203/1305/203 320/1306/320 217/1307/217 62/1308/62
vt 0.118423 0.940455
vt 0.117757 0.877689
vt 0.154077 0.888020
vt 0.154486 0.949259
f 204/1309/204 313/1310/313 218/1311/218 63/1312/63
vt 0.189292 0.953946
vt 0.189292 0.975396
vt 0.155015 0.973682
vt 0.156679 0.952486
f 205/1313/205 314/1314/314 211/1315/211 64/1316/64
vt 0.189292 0.828315
vt 0.189292 0.891002
vt 0.157277 0.890166
vt 0.156823 0.828043
f 207/1317/207 315/1318/315 213/1319/213 66/1320/66
vt 0.254282 0.819215
vt 0.253451 0.879706
vt 0.221307 0.890166
vt 0.221760 0.828043
f 208/1321/208 316/1322/316 214/1323/214 67/1324/67
vt 0.190347 0.827098
vt 0.190347 0.809626
vt 0.224208 0.808547
vt 0.225973 0.826837
f 209/1325/209 317/1326/317 215/1327/215 68/1328/68
vt 0.190347 0.827098
vt 0.190347 0.888855
vt 0.154077 0.888020
vt 0.154721 0.826837
f 209/1329/209 320/1330/320 218/1331/218 69/1332/69
vt 0.119068 0.818245
vt 0.122709 0.798041
vt 0.156486 0.808547
vt 0.154721 0.826837
f 210/1333/210 318/1334/318 216/1335/216 69/1336/69
vt 0.226617 0.888020
vt 0.262937 0.877689
vt 0.262271 0.940455
vt 0.226207 0.949259
f 217/1337/217 319/1338/319 199/1339/199 62/1340/62
vt 0.154077 0.888020
vt 0.190347 0.888855
vt 0.190347 0.950685
vt 0.154486 0.949259
f 218/1341/218 320/1342/320 203/1343/203 63/1344/63
vt 0.356276 0.675273
vt 0.365738 0.719567
vt 0.359947 0.719869
vt 0.351535 0.675784
f 219/1345/219 321/1346/321 222/1347/222 71/1348/71
vt 0.333125 0.675781
vt 0.334955 0.720241
vt 0.306086 0.720390
vt 0.311834 0.675755
f 221/1349/221 322/1350/322 224/1351/224 72/1352/72
vt 0.081432 0.673607
vt 0.090321 0.718672
vt 0.083607 0.719135
vt 0.076333 0.673989
f 223/1353/223 323/1354/323 226/1355/226 73/1356/73
vt 0.306086 0.720390
vt 0.334955 0.720241
vt 0.335534 0.786922
vt 0.297960 0.787073
f 224/1357/224 322/1358/322 193/1359/193 58/1360/58
vt 0.058310 0.673804
vt 0.059378 0.718988
vt 0.031619 0.718498
vt 0.037612 0.673397
f 225/1361/225 324/1362/324 220/1363/220 70/1364/70
vt 0.083607 0.719135
vt 0.090321 0.718672
vt 0.097699 0.768484
vt 0.092397 0.787149
f 226/1365/226 323/1366/323 197/1367/197 61/1368/61
vt 0.047569 0.675780
vt 0.045739 0.720241
vt 0.020747 0.719869
vt 0.029159 0.675783
f 227/1369/227 325/1370/325 230/1371/230 75/1372/75
vt 0.074608 0.720390
vt 0.088935 0.720274
vt 0.097375 0.768997
vt 0.082734 0.787072
f 228/1373/228 328/1374/328 187/1375/187 55/1376/55
vt 0.352895 0.672920
vt 0.362884 0.717553
vt 0.346964 0.718498
vt 0.340971 0.673397
f 229/1377/229 326/1378/326 232/1379/232 76/1380/76
vt 0.320273 0.673804
vt 0.319205 0.718988
vt 0.294976 0.719135
vt 0.302250 0.673989
f 231/1381/231 327/1382/327 234/1383/234 77/1384/77
vt 0.079987 0.675594
vt 0.088935 0.720274
vt 0.074608 0.720390
vt 0.068861 0.675755
f 233/1385/233 328/1386/328 228/1387/228 74/1388/74
vt 0.294976 0.719135
vt 0.319205 0.718988
vt 0.319383 0.787043
vt 0.286186 0.787149
f 234/1389/234 327/1390/327 190/1391/190 56/1392/56
vt 0.959996 0.769366
vt 0.961033 0.737021
vt 0.986176 0.738566
vt 0.984092 0.770822
f 235/1393/235 369/1394/369 356/1395/356 78/1396/78
vt 0.646377 0.495689
vt 0.580261 0.496346
vt 0.578313 0.466782
vt 0.644831 0.466901
f 236/1397/236 265/1398/265 243/1399/243 79/1400/79
vt 0.844380 0.851494
vt 0.844394 0.864380
vt 0.779368 0.864582
vt 0.779338 0.851556
f 236/1401/236 480/1402/480 477/1403/477 265/1404/265
vt 0.745433 0.707780
vt 0.745510 0.684937
vt 0.768062 0.685972
vt 0.767665 0.709607
f 237/1405/237 394/1406/394 367/1407/367 80/1408/80
vt 0.662128 0.739227
vt 0.680860 0.758770
vt 0.666410 0.767246
vt 0.651589 0.743105
f 238/1409/238 331/1410/331 242/1411/242 81/1412/81
vt 0.646377 0.525221
vt 0.611236 0.532321
vt 0.611938 0.502757
vt 0.643930 0.502891
f 239/1413/239 332/1414/332 251/1415/251 82/1416/82
vt 0.987588 0.706668
vt 0.986176 0.738566
vt 0.961033 0.737021
vt 0.961268 0.705395
f 240/1417/240 356/1418/356 369/1419/369 259/1420/259
vt 0.505712 0.659495
vt 0.528673 0.659831
vt 0.527675 0.684788
vt 0.505138 0.686042
f 241/1421/241 261/1422/261 373/1423/373 367/1424/367
vt 0.505712 0.659495
vt 0.508615 0.630279
vt 0.532045 0.632658
vt 0.528673 0.659831
f 241/1425/241 357/1426/357 372/1427/372 261/1428/261
vt 0.614209 0.767269
vt 0.602339 0.782959
vt 0.586522 0.771506
vt 0.599756 0.758807
f 242/1429/242 358/1430/358 375/1431/375 263/1432/263
vt 0.497028 0.502772
vt 0.495080 0.532335
vt 0.428963 0.531678
vt 0.430509 0.502891
f 243/1433/243 339/1434/339 96/1435/96 79/1436/79
vt 0.596329 0.195755
vt 0.594569 0.222106
vt 0.535741 0.220212
vt 0.537238 0.193598
f 245/1437/245 268/1438/268 254/1439/254 83/1440/83
vt 0.990095 0.971195
vt 0.976731 0.970834
vt 0.977492 0.942328
vt 0.990874 0.942683
f 245/1441/245 487/1442/487 486/1443/486 332/1444/332
vt 0.663718 0.906547
vt 0.663602 0.893232
vt 0.723508 0.892855
vt 0.723623 0.906058
f 246/1445/246 478/1446/478 474/1447/474 84/1448/84
vt 0.481870 0.243121
vt 0.476480 0.218618
vt 0.535741 0.220212
vt 0.538686 0.244794
f 247/1449/247 336/1450/336 254/1451/254 85/1452/85
vt 0.869562 0.241845
vt 0.847609 0.262297
vt 0.802290 0.263679
vt 0.812749 0.243531
f 248/1453/248 275/1454/275 256/1455/256 86/1456/86
vt 0.611938 0.502757
vt 0.611236 0.532321
vt 0.553158 0.532328
vt 0.554483 0.502765
f 251/1457/251 332/1458/332 257/1459/257 87/1460/87
vt 0.721342 0.851551
vt 0.779338 0.851556
vt 0.779368 0.864582
vt 0.721358 0.864741
f 252/1461/252 265/1462/265 477/1463/477 476/1464/476
vt 0.535741 0.220212
vt 0.476480 0.218618
vt 0.477929 0.191979
vt 0.537238 0.193598
f 254/1465/254 336/1466/336 116/1467/116 83/1468/83
vt 0.802290 0.263679
vt 0.757095 0.264398
vt 0.756232 0.244928
vt 0.812749 0.243531
f 256/1469/256 338/1470/338 124/1471/124 86/1472/86
vt 0.802290 0.263679
vt 0.791565 0.279095
vt 0.758339 0.279461
vt 0.757095 0.264398
f 256/1473/256 420/1474/420 250/1475/250 338/1476/338
vt 0.918305 0.929676
vt 0.977338 0.928989
vt 0.977492 0.942328
vt 0.918371 0.942864
f 257/1477/257 332/1478/332 486/1479/486 484/1480/484
vt 0.553158 0.532328
vt 0.495080 0.532335
vt 0.497028 0.502772
vt 0.554483 0.502765
f 257/1481/257 339/1482/339 243/1483/243 87/1484/87
vt 0.785857 0.312946
vt 0.805177 0.319785
vt 0.791253 0.370046
vt 0.771528 0.362745
f 258/1485/258 368/1486/368 340/1487/340 89/1488/89
vt 0.961268 0.705395
vt 0.961033 0.737021
vt 0.942675 0.734542
vt 0.941841 0.702652
f 259/1489/259 369/1490/369 342/1491/342 92/1492/92
vt 0.862463 0.452015
vt 0.846861 0.457796
vt 0.834282 0.409870
vt 0.850391 0.405459
f 260/1493/260 370/1494/370 346/1495/346 101/1496/101
vt 0.528673 0.659831
vt 0.532045 0.632658
vt 0.549048 0.633194
vt 0.544180 0.659791
f 261/1497/261 372/1498/372 344/1499/344 98/1500/98
vt 0.935137 0.423959
vt 0.917312 0.431177
vt 0.907842 0.397407
vt 0.926889 0.395946
f 262/1501/262 374/1502/374 350/1503/350 109/1504/109
vt 0.599756 0.758807
vt 0.586522 0.771506
vt 0.575254 0.763973
vt 0.589850 0.753765
f 263/1505/263 375/1506/375 348/1507/348 105/1508/105
vt 0.964407 0.817595
vt 0.959989 0.842230
vt 0.943628 0.853135
vt 0.947219 0.823690
f 269/1509/269 376/1510/376 355/1511/355 180/1512/180
vt 0.928156 0.829116
vt 0.925695 0.862382
vt 0.909162 0.865536
vt 0.909984 0.833459
f 270/1513/270 377/1514/377 341/1515/341 91/1516/91
vt 0.594338 0.265637
vt 0.593113 0.280696
vt 0.559884 0.280352
vt 0.549151 0.264939
f 271/1517/271 125/1518/125 421/1519/421 255/1520/255
vt 0.847609 0.262297
vt 0.824769 0.278216
vt 0.791565 0.279095
vt 0.802290 0.263679
f 275/1521/275 133/1522/133 420/1523/420 256/1524/256
vt 0.715287 0.656060
vt 0.717097 0.679538
vt 0.697010 0.670385
vt 0.696025 0.650016
f 290/1525/290 382/1526/382 352/1527/352 171/1528/171
vt 0.715287 0.656060
vt 0.709931 0.634618
vt 0.723863 0.633537
vt 0.727972 0.658280
f 290/1529/290 383/1530/383 347/1531/347 103/1532/103
vt 0.697090 0.748571
vt 0.712456 0.757273
vt 0.705358 0.763918
vt 0.690763 0.753720
f 291/1533/291 384/1534/384 351/1535/351 111/1536/111
vt 0.887368 0.686862
vt 0.891851 0.711549
vt 0.870307 0.706777
vt 0.863463 0.686886
f 292/1537/292 385/1538/385 343/1539/343 93/1540/93
vt 0.562004 0.723914
vt 0.541163 0.726651
vt 0.538258 0.713197
vt 0.560210 0.713336
f 294/1541/294 388/1542/388 349/1543/349 107/1544/107
vt 0.599068 0.638885
vt 0.597550 0.658691
vt 0.576132 0.670159
vt 0.577118 0.649788
f 295/1545/295 389/1546/389 353/1547/353 178/1548/178
vt 0.599068 0.638885
vt 0.606311 0.619321
vt 0.628204 0.615427
vt 0.621047 0.632625
f 295/1549/295 390/1550/390 345/1551/345 100/1552/100
vt 0.583520 0.748620
vt 0.568157 0.757342
vt 0.554688 0.743297
vt 0.573344 0.737728
f 296/1553/296 391/1554/391 354/1555/354 179/1556/179
vt 0.890540 0.836191
vt 0.890679 0.867902
vt 0.865494 0.869268
vt 0.864215 0.837411
f 329/1557/329 392/1558/392 356/1559/356 240/1560/240
vt 0.744258 0.659973
vt 0.740715 0.632852
vt 0.764061 0.630202
vt 0.767227 0.659416
f 330/1561/330 393/1562/393 357/1563/357 241/1564/241
vt 0.680860 0.758770
vt 0.694106 0.771458
vt 0.678301 0.782931
vt 0.666410 0.767246
f 331/1565/331 395/1566/395 358/1567/358 242/1568/242
vt 0.649111 0.865264
vt 0.662484 0.864794
vt 0.663602 0.893232
vt 0.650096 0.893776
f 334/1569/334 479/1570/479 478/1571/478 246/1572/246
vt 0.503829 0.263570
vt 0.549151 0.264939
vt 0.559884 0.280352
vt 0.526675 0.279485
f 337/1573/337 255/1574/255 421/1575/421 249/1576/249
vt 0.860626 0.929812
vt 0.860528 0.942747
vt 0.795979 0.941767
vt 0.796237 0.928990
f 339/1577/339 485/1578/485 489/1579/489 96/1580/96
vt 0.909162 0.865536
vt 0.925695 0.862382
vt 0.924767 0.893793
vt 0.908288 0.897727
f 341/1581/341 377/1582/377 174/1583/174 2/1584/2
vt 0.942675 0.734542
vt 0.961033 0.737021
vt 0.959996 0.769366
vt 0.942367 0.766972
f 342/1585/342 369/1586/369 235/1587/235 3/1588/3
vt 0.870307 0.706777
vt 0.891851 0.711549
vt 0.895172 0.736551
vt 0.876319 0.726969
f 343/1589/343 385/1590/385 169/1591/169 4/1592/4
vt 0.628204 0.615427
vt 0.606311 0.619321
vt 0.614321 0.600526
vt 0.636651 0.599959
f 345/1593/345 390/1594/390 176/1595/176 1/1596/1
vt 0.834282 0.409870
vt 0.846861 0.457796
vt 0.831976 0.463290
vt 0.818913 0.413955
f 346/1597/346 370/1598/370 88/1599/88 4/1600/4
vt 0.723863 0.633537
vt 0.709931 0.634618
vt 0.701918 0.608773
vt 0.717518 0.606868
f 347/1601/347 383/1602/383 167/1603/167 3/1604/3
vt 0.538258 0.713197
vt 0.541163 0.726651
vt 0.519914 0.729571
vt 0.515648 0.712852
f 349/1605/349 388/1606/388 177/1607/177 9/1608/9
vt 0.705358 0.763918
vt 0.712456 0.757273
vt 0.730317 0.765420
vt 0.722675 0.773981
f 351/1609/351 384/1610/384 168/1611/168 11/1612/11
vt 0.697010 0.670385
vt 0.717097 0.679538
vt 0.718402 0.700855
vt 0.698841 0.691336
f 352/1613/352 382/1614/382 168/1615/168 51/1616/51
vt 0.554688 0.743297
vt 0.568157 0.757342
vt 0.550263 0.765478
vt 0.535223 0.749246
f 354/1617/354 391/1618/391 175/1619/175 53/1620/53
vt 0.865494 0.869268
vt 0.890679 0.867902
vt 0.891308 0.900311
vt 0.867219 0.901504
f 356/1621/356 392/1622/392 90/1623/90 78/1624/78
vt 0.543575 0.681623
vt 0.527675 0.684788
vt 0.528673 0.659831
vt 0.544180 0.659791
f 359/1625/359 373/1626/373 261/1627/261 98/1628/98
vt 0.614829 0.655726
vt 0.597550 0.658691
vt 0.599068 0.638885
vt 0.621047 0.632625
f 360/1629/360 389/1630/389 295/1631/295 100/1632/100
vt 0.871356 0.401354
vt 0.882762 0.444386
vt 0.862463 0.452015
vt 0.850391 0.405459
f 361/1633/361 371/1634/371 260/1635/260 101/1636/101
vt 0.729591 0.681912
vt 0.717097 0.679538
vt 0.715287 0.656060
vt 0.727972 0.658280
f 362/1637/362 382/1638/382 290/1639/290 103/1640/103
vt 0.689030 0.627994
vt 0.709931 0.634618
vt 0.715287 0.656060
vt 0.696025 0.650016
f 363/1641/363 383/1642/383 290/1643/290 171/1644/171
vt 0.725912 0.743243
vt 0.712456 0.757273
vt 0.697090 0.748571
vt 0.707261 0.737676
f 364/1645/364 384/1646/384 291/1647/291 172/1648/172
vt 0.908277 0.722415
vt 0.891851 0.711549
vt 0.887368 0.686862
vt 0.904592 0.692944
f 365/1649/365 385/1650/385 292/1651/292 173/1652/173
vt 0.584189 0.627754
vt 0.606311 0.619321
vt 0.599068 0.638885
vt 0.577118 0.649788
f 366/1653/366 390/1654/390 295/1655/295 178/1656/178
vt 0.768062 0.685972
vt 0.745510 0.684937
vt 0.744258 0.659973
vt 0.767227 0.659416
f 367/1657/367 394/1658/394 330/1659/330 241/1660/241
vt 0.527675 0.684788
vt 0.543575 0.681623
vt 0.543375 0.704636
vt 0.527962 0.707620
f 373/1661/373 359/1662/359 490/1663/490 102/1664/102
vt 0.568157 0.757342
vt 0.575254 0.763973
vt 0.559358 0.773790
vt 0.550263 0.765478
f 391/1665/391 348/1666/348 490/1667/490 175/1668/175
vt 1.000000 0.054715
vt 0.966516 0.054715
vt 0.966516 0.011221
vt 1.000000 0.011221
f 396/1669/396 401/1670/401 400/1671/400 397/1672/397
vt 0.000000 0.011221
vt 0.144808 0.011221
vt 0.144809 0.054715
vt 0.000000 0.054715
f 397/1673/397 398/1674/398 399/1675/399 396/1676/396
vt 0.361592 0.616897
vt 0.332184 0.616897
vt 0.332184 0.472088
vt 0.361592 0.472088
f 397/1677/397 417/1678/417 416/1679/416 398/1680/398
vt 0.144808 0.011221
vt 0.178293 0.011221
vt 0.178293 0.054715
vt 0.144809 0.054715
f 398/1681/398 413/1682/413 412/1683/412 399/1684/399
vt 0.312390 0.194181
vt 0.312390 0.223590
vt 0.167582 0.223590
vt 0.167582 0.194182
f 399/1685/399 405/1686/405 404/1687/404 396/1688/396
vt 0.966516 0.054715
vt 0.678293 0.054715
vt 0.678293 0.011221
vt 0.966516 0.011221
f 401/1689/401 402/1690/402 403/1691/403 400/1692/400
vt 0.043919 0.360350
vt 0.043919 0.331027
vt 0.332141 0.331027
vt 0.332141 0.360349
f 401/1693/401 404/1694/404 407/1695/407 402/1696/402
vt 0.678293 0.054715
vt 0.644808 0.054715
vt 0.644808 0.011221
vt 0.678293 0.011221
f 402/1697/402 409/1698/409 408/1699/408 403/1700/403
vt 0.043961 0.646219
vt 0.043961 0.616897
vt 0.332184 0.616897
vt 0.332184 0.646219
f 403/1701/403 418/1702/418 417/1703/417 400/1704/400
vt 0.332141 0.301704
vt 0.332141 0.331027
vt 0.043919 0.331027
vt 0.043919 0.301704
f 405/1705/405 412/1706/412 415/1707/415 406/1708/406
vt 0.312390 0.223590
vt 0.312390 0.252998
vt 0.167582 0.252999
vt 0.167582 0.223590
f 406/1709/406 410/1710/410 409/1711/409 407/1712/407
vt 0.644808 0.054715
vt 0.500000 0.054715
vt 0.500000 0.011221
vt 0.644808 0.011221
f 409/1713/409 410/1714/410 411/1715/411 408/1716/408
vt 0.500000 0.054715
vt 0.466516 0.054715
vt 0.466516 0.011221
vt 0.500000 0.011221
f 410/1717/410 415/1718/415 414/1719/414 411/1720/411
vt 0.014553 0.472088
vt 0.043961 0.472088
vt 0.043961 0.616897
vt 0.014553 0.616897
f 411/1721/411 419/1722/419 418/1723/418 408/1724/408
vt 0.178293 0.011221
vt 0.466516 0.011221
vt 0.466516 0.054715
vt 0.178293 0.054715
f 413/1725/413 414/1726/414 415/1727/415 412/1728/412
vt 0.332184 0.442766
vt 0.332184 0.472088
vt 0.043961 0.472088
vt 0.043961 0.442766
f 413/1729/413 416/1730/416 419/1731/419 414/1732/414
vt 0.332184 0.616897
vt 0.043961 0.616897
vt 0.043961 0.472088
vt 0.332184 0.472088
f 417/1733/417 418/1734/418 419/1735/419 416/1736/416
vt 0.791565 0.279095
vt 0.788383 0.287547
vt 0.760323 0.288370
vt 0.758339 0.279461
f 420/1737/420 446/1738/446 457/1739/457 250/1740/250
vt 0.559884 0.280352
vt 0.563071 0.288804
vt 0.535284 0.288873
vt 0.526675 0.279485
f 421/1741/421 438/1742/438 455/1743/455 249/1744/249
vt 0.302325 0.162802
vt 0.275367 0.163195
vt 0.272770 0.161519
vt 0.298463 0.160818
f 422/1745/422 455/1746/455 459/1747/459 423/1748/423
vt 0.298463 0.160818
vt 0.316860 0.163816
vt 0.321219 0.167182
vt 0.302325 0.162802
f 423/1749/423 444/1750/444 445/1751/445 422/1752/422
vt 0.197972 0.166384
vt 0.222786 0.164446
vt 0.220851 0.166622
vt 0.192732 0.168647
f 424/1753/424 460/1754/460 454/1755/454 425/1756/425
vt 0.192732 0.168647
vt 0.173022 0.168443
vt 0.179082 0.165788
vt 0.197972 0.166384
f 425/1757/425 441/1758/441 440/1759/440 424/1760/424
vt 0.968451 0.171492
vt 0.913620 0.171821
vt 0.913305 0.169437
vt 0.963493 0.169142
f 426/1761/426 443/1762/443 442/1763/442 427/1764/427
vt 0.963493 0.169142
vt 0.981440 0.163896
vt 0.987667 0.166028
vt 0.968451 0.171492
f 427/1765/427 440/1766/440 441/1767/441 426/1768/426
vt 0.859171 0.169818
vt 0.840120 0.167580
vt 0.844783 0.164878
vt 0.863081 0.167585
f 428/1769/428 445/1770/445 444/1771/444 429/1772/429
vt 0.863081 0.167585
vt 0.913305 0.169437
vt 0.913620 0.171821
vt 0.859171 0.169818
f 429/1773/429 442/1774/442 443/1775/443 428/1776/428
vt 0.809924 0.183285
vt 0.781843 0.180770
vt 0.779947 0.178561
vt 0.804723 0.180930
f 430/1777/430 457/1778/457 461/1779/461 431/1780/431
vt 0.804723 0.180930
vt 0.823620 0.180657
vt 0.829631 0.183439
vt 0.809924 0.183285
f 431/1781/431 452/1782/452 453/1783/453 430/1784/430
vt 0.704344 0.173622
vt 0.730021 0.174768
vt 0.727395 0.176399
vt 0.700448 0.175538
f 432/1785/432 458/1786/458 456/1787/456 433/1788/433
vt 0.700448 0.175538
vt 0.681480 0.179591
vt 0.685898 0.176300
vt 0.704344 0.173622
f 433/1789/433 449/1790/449 448/1791/448 432/1792/432
vt 0.461811 0.167501
vt 0.407369 0.169499
vt 0.407673 0.167122
vt 0.457898 0.165271
f 434/1793/434 451/1794/451 450/1795/450 435/1796/435
vt 0.457898 0.165271
vt 0.476196 0.162563
vt 0.480858 0.165266
vt 0.461811 0.167501
f 435/1797/435 448/1798/448 449/1799/449 434/1800/434
vt 0.352506 0.169162
vt 0.333295 0.163702
vt 0.339538 0.161586
vt 0.357486 0.166828
f 436/1801/436 453/1802/453 452/1803/452 437/1804/437
vt 0.357486 0.166828
vt 0.407673 0.167122
vt 0.407369 0.169499
vt 0.352506 0.169162
f 437/1805/437 450/1806/450 451/1807/451 436/1808/436
vt 0.248243 0.164987
vt 0.220851 0.166622
vt 0.222786 0.164446
vt 0.248447 0.163130
f 438/1809/438 454/1810/454 460/1811/460 439/1812/439
vt 0.248447 0.163130
vt 0.272770 0.161519
vt 0.275367 0.163195
vt 0.248243 0.164987
f 439/1813/439 459/1814/459 455/1815/455 438/1816/438
vt 0.754484 0.178661
vt 0.727395 0.176399
vt 0.730021 0.174768
vt 0.754312 0.176800
f 446/1817/446 456/1818/456 458/1819/458 447/1820/447
vt 0.754312 0.176800
vt 0.779947 0.178561
vt 0.781843 0.180770
vt 0.754484 0.178661
f 447/1821/447 461/1822/461 457/1823/457 446/1824/446
vt 0.882201 0.527011
vt 0.878712 0.522493
vt 0.913256 0.522493
vt 0.915409 0.526497
f 463/1825/463 462/1826/462 471/1827/471 473/1828/473
vt 0.922210 0.495532
vt 0.918721 0.500051
vt 0.885514 0.499537
vt 0.887667 0.495532
f 466/1829/466 465/1830/465 468/1831/468 470/1832/470
vt 0.723508 0.892855
vt 0.663602 0.893232
vt 0.662484 0.864794
vt 0.721358 0.864741
f 474/1833/474 478/1834/478 479/1835/479 476/1836/476
vt 0.782390 0.892394
vt 0.723508 0.892855
vt 0.721358 0.864741
vt 0.779368 0.864582
f 475/1837/475 474/1838/474 476/1839/476 477/1840/477
vt 0.721358 0.864741
vt 0.662484 0.864794
vt 0.662492 0.851494
vt 0.721342 0.851551
f 476/1841/476 479/1842/479 334/1843/334 252/1844/252
vt 0.779368 0.864582
vt 0.844394 0.864380
vt 0.846323 0.891067
vt 0.782390 0.892394
f 477/1845/477 480/1846/480 481/1847/481 475/1848/475
vt 0.857313 0.970458
vt 0.793668 0.968372
vt 0.795979 0.941767
vt 0.860528 0.942747
f 483/1849/483 488/1850/488 489/1851/489 485/1852/485
vt 0.918371 0.942864
vt 0.860528 0.942747
vt 0.860626 0.929812
vt 0.918305 0.929676
f 484/1853/484 485/1854/485 339/1855/339 257/1856/257
vt 0.918371 0.942864
vt 0.977492 0.942328
vt 0.976731 0.970834
vt 0.916375 0.971070
f 484/1857/484 486/1858/486 487/1859/487 482/1860/482
vt 0.860528 0.942747
vt 0.918371 0.942864
vt 0.916375 0.971070
vt 0.857313 0.970458
f 485/1861/485 484/1862/484 482/1863/482 483/1864/483
vt 0.325296 0.140064
vt 0.298463 0.160818
vt 0.272770 0.161519
f 32/1865/32 423/1866/423 459/1867/459
vt 0.248447 0.163130
f 32/1865/32 459/1867/459 439/1868/439
vt 0.262217 0.143027
f 32/1865/32 439/1868/439 141/1869/141
vt 0.788883 0.162487
vt 0.804723 0.180930
vt 0.779947 0.178561
f 36/1870/36 431/1871/431 461/1872/461
vt 0.754312 0.176800
f 36/1870/36 461/1872/461 447/1873/447
vt 0.740892 0.156462
f 36/1870/36 447/1873/447 145/1874/145
vt 0.226207 0.949259
vt 0.262271 0.940455
vt 0.260689 0.951305
f 62/1875/62 199/1876/199 470/1877/470
vt 0.250154 0.963301
f 62/1875/62 470/1877/470 469/1878/469
vt 0.224716 0.970028
f 62/1875/62 469/1878/469 211/1879/211
vt 0.154486 0.949259
vt 0.155978 0.970028
vt 0.130539 0.963301
f 63/1880/63 212/1881/212 472/1882/472
vt 0.120004 0.951305
f 63/1880/63 472/1882/472 471/1883/471
vt 0.118423 0.940455
f 63/1880/63 471/1883/471 204/1884/204
vt 0.156679 0.952486
vt 0.155015 0.973682
vt 0.129796 0.966644
f 64/1885/64 211/1886/211 469/1887/469
vt 0.122156 0.954715
f 64/1885/64 469/1887/469 468/1888/468
vt 0.123895 0.943545
f 64/1885/64 468/1888/468 200/1889/200
vt 0.782345 0.534026
vt 0.799149 0.531592
vt 0.818720 0.531592
f 71/1890/71 221/1891/221 72/1892/72
vt 0.828526 0.534460
f 71/1890/71 72/1892/72 223/1893/223
vt 0.825867 0.538275
f 71/1890/71 223/1893/223 73/1894/73
vt 0.809658 0.540797
f 71/1890/71 73/1894/73 225/1895/225
vt 0.790768 0.540981
f 71/1890/71 225/1895/225 70/1896/70
vt 0.780280 0.537929
f 71/1890/71 70/1896/70 219/1897/219
vt 0.826461 0.511813
vt 0.828526 0.515716
vt 0.818039 0.518768
f 75/1898/75 229/1899/229 76/1900/76
vt 0.799149 0.518584
f 75/1898/75 76/1900/76 231/1901/231
vt 0.782940 0.516062
f 75/1898/75 231/1901/231 77/1902/77
vt 0.780280 0.512247
f 75/1898/75 77/1902/77 233/1903/233
vt 0.790086 0.509379
f 75/1898/75 233/1903/233 74/1904/74
vt 0.809658 0.509379
f 75/1898/75 74/1904/74 227/1905/227
vt 0.552670 0.867808
vt 0.550325 0.910395
vt 0.491548 0.910357
f 121/1906/121 113/1907/113 267/1908/267
vt 0.432747 0.910263
f 121/1906/121 267/1908/267 122/1909/122
vt 0.428288 0.867573
f 121/1906/121 122/1909/122 117/1910/117
vt 0.490315 0.867777
f 121/1906/121 117/1910/117 264/1911/264
vt 0.262217 0.143027
vt 0.248447 0.163130
vt 0.222786 0.164446
f 141/1912/141 439/1913/439 460/1914/460
vt 0.197972 0.166384
f 141/1912/141 460/1914/460 424/1915/424
vt 0.214129 0.148219
f 141/1912/141 424/1915/424 33/1916/33
vt 0.740892 0.156462
vt 0.754312 0.176800
vt 0.730021 0.174768
f 145/1917/145 447/1918/447 458/1919/458
vt 0.704344 0.173622
f 145/1917/145 458/1919/458 432/1920/432
vt 0.677875 0.152406
f 145/1917/145 432/1920/432 37/1921/37
vt 0.976543 0.389418
vt 0.978433 0.383944
vt 0.981304 0.379206
f 181/1922/181 298/1923/298 182/1924/182
vt 0.983885 0.377230
f 181/1922/181 182/1924/182 304/1925/304
vt 0.988311 0.378375
f 181/1922/181 304/1925/304 299/1926/299
vt 0.991579 0.380759
f 181/1922/181 299/1926/299 300/1927/300
vt 0.992841 0.383678
f 181/1922/181 300/1927/300 183/1928/183
vt 0.993704 0.387337
f 181/1922/181 183/1928/183 333/1929/333
vt 0.992946 0.390781
f 181/1922/181 333/1929/333 244/1930/244
vt 0.990803 0.393601
f 181/1922/181 244/1930/244 301/1931/301
vt 0.987454 0.395360
f 181/1922/181 301/1931/301 184/1932/184
vt 0.984412 0.396279
f 181/1922/181 184/1932/184 303/1933/303
vt 0.980492 0.395383
f 181/1922/181 303/1933/303 302/1934/302
vt 0.976629 0.392741
f 181/1922/181 302/1934/302 297/1935/297
vt 0.322367 0.914122
vt 0.327670 0.933296
vt 0.301044 0.946217
f 191/1936/191 307/1937/307 464/1938/464
vt 0.290549 0.941074
f 191/1936/191 464/1938/464 463/1939/463
vt 0.288033 0.930701
f 191/1936/191 463/1939/463 57/1940/57
vt 0.334048 0.910694
vt 0.330173 0.929691
vt 0.303273 0.943271
f 194/1941/194 309/1942/309 467/1943/467
vt 0.296439 0.938125
f 194/1941/194 467/1943/467 466/1944/466
vt 0.298470 0.927622
f 194/1941/194 466/1944/466 59/1945/59
vt 0.254688 0.943545
vt 0.256427 0.954715
vt 0.248787 0.966644
f 206/1946/206 473/1947/473 472/1948/472
vt 0.223568 0.973682
f 206/1946/206 472/1948/472 212/1949/212
vt 0.221904 0.952486
f 206/1946/206 212/1949/212 65/1950/65
vt 0.084254 0.938124
vt 0.077421 0.943270
vt 0.050520 0.929690
f 462/1951/462 464/1952/464 307/1953/307
vt 0.046645 0.910693
f 462/1951/462 307/1953/307 186/1954/186
vt 0.082223 0.927621
f 462/1951/462 186/1954/186 54/1955/54
vt 0.088034 0.941074
vt 0.077539 0.946217
vt 0.050913 0.933296
f 465/1956/465 467/1957/467 309/1958/309
vt 0.056217 0.914123
f 465/1956/465 309/1958/309 196/1959/196
vt 0.090551 0.930701
f 465/1956/465 196/1959/196 60/1960/60
