mtllib sickle.mtl
usemtl tex0_0
v 0.000000 -0.900000 8.594037
vn 0.587785 0.809017 -0.000000
v -0.965452 -0.198558 4.016289
vn 0.587785 0.809017 -0.000000
v 0.000000 -0.900000 4.016289
vn 0.587785 0.809017 0.000000
v -1.176932 -0.044909 -1.977969
vn 0.587785 0.809017 0.000000
v 0.000000 -0.900000 -1.977969
vn 0.587785 0.809017 0.000000
v -0.698804 -0.392289 8.594037
vn 0.587785 0.809017 -0.000000
v 0.000000 -0.900000 13.500000
vn 0.587785 0.809017 -0.000000
v -0.698804 -0.392289 8.594037
vn 0.946222 -0.307446 -0.100700
v -0.596682 0.936400 4.016289
vn 0.948835 -0.308295 -0.068316
v -0.965452 -0.198558 4.016289
vn 0.949623 -0.308551 -0.054882
v -0.727384 1.338659 -1.977969
vn 0.949623 -0.308551 -0.054882
v -1.176932 -0.044909 -1.977969
vn 0.950240 -0.308752 -0.041439
v -0.431884 0.429204 8.594037
vn 0.944539 -0.306899 -0.116871
v 0.000000 -0.900000 13.500000
vn 0.937997 -0.304774 -0.165149
v -0.431884 0.429204 8.594037
vn 0.000000 -0.986953 -0.161009
v 0.596682 0.936400 4.016289
vn 0.000000 -0.993918 -0.110122
v -0.596682 0.936400 4.016289
vn 0.000000 -0.996071 -0.088560
v 0.727384 1.338659 -1.977969
vn 0.000000 -0.996071 -0.088560
v -0.727384 1.338659 -1.977969
vn 0.000000 -0.997756 -0.066957
v 0.431884 0.429204 8.594037
vn 0.000000 -0.982480 -0.186369
v 0.000000 -0.900000 13.500000
vn 0.000000 -0.965201 -0.261508
v 0.431884 0.429204 8.594037
vn -0.946222 -0.307446 -0.100700
v 0.965452 -0.198558 4.016289
vn -0.948835 -0.308295 -0.068316
v 0.596682 0.936400 4.016289
vn -0.949623 -0.308551 -0.054882
v 1.176932 -0.044909 -1.977969
vn -0.949623 -0.308551 -0.054882
v 0.727384 1.338659 -1.977969
vn -0.950240 -0.308752 -0.041439
v 0.698804 -0.392289 8.594037
vn -0.944539 -0.306899 -0.116871
v 0.000000 -0.900000 13.500000
vn -0.937997 -0.304774 -0.165149
v 0.000000 -0.900000 -1.977969
vn -0.587785 0.809017 0.000000
v 0.965452 -0.198558 4.016289
vn -0.587785 0.809017 0.000000
v 0.000000 -0.900000 4.016289
vn -0.587785 0.809017 -0.000000
v 0.698804 -0.392289 8.594037
vn -0.587785 0.809017 -0.000000
v 0.000000 -0.900000 8.594037
vn -0.587785 0.809017 0.000000
v 0.000000 -0.900000 13.500000
vn -0.587785 0.809017 0.000000
v 1.176932 -0.044909 -1.977969
vn -0.587785 0.809017 0.000000
v -1.176932 -0.044909 -1.977969
vn 0.000000 0.000000 1.000000
v 0.727384 1.338659 -1.977969
vn 0.000000 0.000000 1.000000
v 0.000000 -0.900000 -1.977969
vn 0.000000 0.000000 1.000000
v -0.727384 1.338659 -1.977969
vn 0.000000 0.000000 1.000000
v 1.176932 -0.044909 -1.977969
vn 0.000000 0.000000 1.000000
v -3.074148 1.381166 1.000000
vn 0.183207 -0.055921 -0.981483
v -3.015761 1.572453 1.000000
vn 0.183207 -0.055921 -0.981483
v -10.393350 3.728984 -0.500000
vn 0.183207 -0.055921 -0.981483
v -10.398479 3.712178 -0.500000
vn 0.183207 -0.055921 -0.981483
v -10.398479 3.712178 -0.500000
vn 0.884768 -0.270068 -0.379800
v -10.393350 3.728984 -0.500000
vn 0.884768 -0.270068 -0.379800
v -11.102733 3.936343 -2.300000
vn 0.884768 -0.270068 -0.379800
v -11.102742 3.936313 -2.300000
vn 0.884768 -0.270068 -0.379800
v -11.102742 3.936313 -2.300000
vn 0.562239 -0.175243 0.808194
v -11.102733 3.936343 -2.300000
vn 0.562239 -0.175243 0.808194
v -9.258336 3.397210 -3.700000
vn 0.562239 -0.175243 0.808194
v -9.271659 3.353560 -3.700000
vn 0.562239 -0.175243 0.808194
v -9.271659 3.353560 -3.700000
vn -0.956438 0.291934 0.000000
v -9.258336 3.397210 -3.700000
vn -0.956438 0.291934 0.000000
v -9.258336 3.397210 -1.800000
vn -0.956438 0.291934 0.000000
v -9.271659 3.353560 -1.800000
vn -0.956438 0.291934 0.000000
v -9.271659 3.353560 -1.800000
vn -0.073318 0.022379 0.997057
v -9.258336 3.397210 -1.800000
vn -0.073318 0.022379 0.997057
v -3.074148 1.381166 -1.300000
vn -0.073318 0.022379 0.997057
v -3.015761 1.572453 -1.300000
vn -0.073318 0.022379 0.997057
v -3.015761 1.572453 1.000000
vn -0.956437 0.291938 0.000000
v -3.074148 1.381166 1.000000
vn -0.956437 0.291938 0.000000
v -3.015761 1.572453 -1.300000
vn -0.956437 0.291938 0.000000
v -3.074148 1.381166 -1.300000
vn -0.956437 0.291938 0.000000
v -3.015761 1.572453 1.000000
vn -0.280568 -0.959834 0.000000
v -9.258336 3.397210 -1.800000
vn -0.280568 -0.959834 0.000000
v -10.393350 3.728984 -0.500000
vn -0.280568 -0.959834 0.000000
v -11.102733 3.936343 -2.300000
vn -0.280568 -0.959834 0.000000
v -9.258336 3.397210 -3.700000
vn -0.280568 -0.959834 0.000000
v -3.015761 1.572453 -1.300000
vn -0.280568 -0.959834 0.000000
v -10.398479 3.712178 -0.500000
vn 0.303268 0.952905 -0.000000
v -9.271659 3.353560 -1.800000
vn 0.303268 0.952905 -0.000000
v -3.074148 1.381166 1.000000
vn 0.303268 0.952905 -0.000000
v -11.102742 3.936313 -2.300000
vn 0.303268 0.952905 -0.000000
v -9.271659 3.353560 -3.700000
vn 0.303268 0.952905 0.000000
v -3.074148 1.381166 -1.300000
vn 0.303268 0.952905 -0.000000
v -0.982547 0.638181 3.500000
vn 0.360387 -0.110003 -0.926294
v -0.865771 1.020756 3.500000
vn 0.360387 -0.110003 -0.926294
v -2.373859 1.132407 2.900000
vn 0.360387 -0.110003 -0.926294
v -2.295923 1.387740 2.900000
vn 0.360387 -0.110003 -0.926294
v -2.373859 1.132407 2.900000
vn 0.868606 -0.265129 -0.418605
v -2.295923 1.387740 2.900000
vn 0.868606 -0.265129 -0.418605
v -3.010999 1.571231 1.300000
vn 0.868606 -0.265129 -0.418605
v -3.069516 1.379520 1.300000
vn 0.868606 -0.265129 -0.418605
v -3.069516 1.379520 1.300000
vn 0.956437 -0.291938 0.000000
v -3.010999 1.571231 1.300000
vn 0.956437 -0.291938 0.000000
v -3.010999 1.571231 -1.200000
vn 0.956437 -0.291938 0.000000
v -3.069516 1.379520 -1.200000
vn 0.956437 -0.291938 0.000000
v -3.069516 1.379520 -1.200000
vn 0.769746 -0.234953 0.593539
v -3.010999 1.571231 -1.200000
vn 0.769746 -0.234953 0.593539
v -1.723863 1.240946 -3.000000
vn 0.769746 -0.234953 0.593539
v -1.817334 0.934717 -3.000000
vn 0.769746 -0.234953 0.593539
v -1.817334 0.934717 -3.000000
vn 0.000000 0.000000 1.000000
v -1.723863 1.240946 -3.000000
vn 0.000000 0.000000 1.000000
v -0.865771 1.020756 -3.000000
vn 0.000000 0.000000 1.000000
v -0.982547 0.638181 -3.000000
vn 0.000000 0.000000 1.000000
v -0.865771 1.020756 3.500000
vn -0.956437 0.291938 0.000000
v -0.982547 0.638181 3.500000
vn -0.956437 0.291938 0.000000
v -0.982547 0.638181 -3.000000
vn -0.956437 0.291938 0.000000
v -0.865771 1.020756 -3.000000
vn -0.956437 0.291938 0.000000
v -2.295923 1.387740 2.900000
vn -0.248552 -0.968619 0.000000
v -0.865771 1.020756 3.500000
vn -0.248552 -0.968619 0.000000
v -3.010999 1.571231 1.300000
vn -0.248552 -0.968619 0.000000
v -3.010999 1.571231 -1.200000
vn -0.248552 -0.968619 0.000000
v -0.865771 1.020756 -3.000000
vn -0.248552 -0.968619 0.000000
v -1.723863 1.240946 -3.000000
vn -0.248552 -0.968619 0.000000
v -2.373859 1.132407 2.900000
vn 0.334731 0.942314 -0.000000
v -3.069516 1.379520 1.300000
vn 0.334731 0.942314 -0.000000
v -0.982547 0.638181 3.500000
vn 0.334731 0.942314 -0.000000
v -3.069516 1.379520 -1.200000
vn 0.334731 0.942314 0.000000
v -0.982547 0.638181 -3.000000
vn 0.334731 0.942314 -0.000000
v -1.817334 0.934717 -3.000000
vn 0.334731 0.942314 0.000000
v 0.982547 0.638181 3.500000
vn -0.360387 -0.110003 -0.926294
v 2.373859 1.132407 2.900000
vn -0.360387 -0.110003 -0.926294
v 0.865771 1.020756 3.500000
vn -0.360387 -0.110003 -0.926294
v 2.295923 1.387740 2.900000
vn -0.360387 -0.110003 -0.926294
v 2.373859 1.132407 2.900000
vn -0.868606 -0.265129 -0.418605
v 3.010999 1.571231 1.300000
vn -0.868606 -0.265129 -0.418605
v 2.295923 1.387740 2.900000
vn -0.868606 -0.265129 -0.418605
v 3.069516 1.379520 1.300000
vn -0.868606 -0.265129 -0.418605
v 3.069516 1.379520 1.300000
vn -0.956437 -0.291938 0.000000
v 3.010999 1.571231 -1.200000
vn -0.956437 -0.291938 0.000000
v 3.010999 1.571231 1.300000
vn -0.956437 -0.291938 0.000000
v 3.069516 1.379520 -1.200000
vn -0.956437 -0.291938 0.000000
v 3.069516 1.379520 -1.200000
vn -0.769746 -0.234953 0.593539
v 1.723863 1.240946 -3.000000
vn -0.769746 -0.234953 0.593539
v 3.010999 1.571231 -1.200000
vn -0.769746 -0.234953 0.593539
v 1.817334 0.934717 -3.000000
vn -0.769746 -0.234953 0.593539
v 1.817334 0.934717 -3.000000
vn 0.000000 0.000000 1.000000
v 0.865771 1.020756 -3.000000
vn 0.000000 0.000000 1.000000
v 1.723863 1.240946 -3.000000
vn 0.000000 0.000000 1.000000
v 0.982547 0.638181 -3.000000
vn 0.000000 0.000000 1.000000
v 0.865771 1.020756 3.500000
vn 0.956437 0.291938 0.000000
v 0.982547 0.638181 -3.000000
vn 0.956437 0.291938 0.000000
v 0.982547 0.638181 3.500000
vn 0.956437 0.291938 0.000000
v 0.865771 1.020756 -3.000000
vn 0.956437 0.291938 0.000000
v 2.295923 1.387740 2.900000
vn 0.248552 -0.968619 0.000000
v 3.010999 1.571231 1.300000
vn 0.248552 -0.968619 0.000000
v 0.865771 1.020756 3.500000
vn 0.248552 -0.968619 0.000000
v 3.010999 1.571231 -1.200000
vn 0.248552 -0.968619 0.000000
v 0.865771 1.020756 -3.000000
vn 0.248552 -0.968619 0.000000
v 1.723863 1.240946 -3.000000
vn 0.248552 -0.968619 0.000000
v 2.373859 1.132407 2.900000
vn -0.334731 0.942314 -0.000000
v 0.982547 0.638181 3.500000
vn -0.334731 0.942314 -0.000000
v 3.069516 1.379520 1.300000
vn -0.334731 0.942314 0.000000
v 3.069516 1.379520 -1.200000
vn -0.334731 0.942314 0.000000
v 0.982547 0.638181 -3.000000
vn -0.334731 0.942314 0.000000
v 1.817334 0.934717 -3.000000
vn -0.334731 0.942314 0.000000
v 3.074148 1.381166 1.000000
vn -0.183207 -0.055921 -0.981483
v 10.393350 3.728984 -0.500000
vn -0.183207 -0.055921 -0.981483
v 3.015761 1.572453 1.000000
vn -0.183207 -0.055921 -0.981483
v 10.398479 3.712178 -0.500000
vn -0.183207 -0.055921 -0.981483
v 10.398479 3.712178 -0.500000
vn -0.884768 -0.270068 -0.379800
v 11.102733 3.936343 -2.300000
vn -0.884768 -0.270068 -0.379800
v 10.393350 3.728984 -0.500000
vn -0.884768 -0.270068 -0.379800
v 11.102742 3.936313 -2.300000
vn -0.884768 -0.270068 -0.379800
v 11.102742 3.936313 -2.300000
vn -0.562239 -0.175243 0.808194
v 9.258336 3.397210 -3.700000
vn -0.562239 -0.175243 0.808194
v 11.102733 3.936343 -2.300000
vn -0.562239 -0.175243 0.808194
v 9.271659 3.353560 -3.700000
vn -0.562239 -0.175243 0.808194
v 9.271659 3.353560 -3.700000
vn 0.956438 0.291934 0.000000
v 9.258336 3.397210 -1.800000
vn 0.956438 0.291934 0.000000
v 9.258336 3.397210 -3.700000
vn 0.956438 0.291934 0.000000
v 9.271659 3.353560 -1.800000
vn 0.956438 0.291934 0.000000
v 9.271659 3.353560 -1.800000
vn 0.073318 0.022379 0.997057
v 3.074148 1.381166 -1.300000
vn 0.073318 0.022379 0.997057
v 9.258336 3.397210 -1.800000
vn 0.073318 0.022379 0.997057
v 3.015761 1.572453 -1.300000
vn 0.073318 0.022379 0.997057
v 3.015761 1.572453 1.000000
vn 0.956437 0.291938 0.000000
v 3.015761 1.572453 -1.300000
vn 0.956437 0.291938 0.000000
v 3.074148 1.381166 1.000000
vn 0.956437 0.291938 0.000000
v 3.074148 1.381166 -1.300000
vn 0.956437 0.291938 0.000000
v 3.015761 1.572453 1.000000
vn 0.280568 -0.959834 0.000000
v 10.393350 3.728984 -0.500000
vn 0.280568 -0.959834 0.000000
v 9.258336 3.397210 -1.800000
vn 0.280568 -0.959834 0.000000
v 11.102733 3.936343 -2.300000
vn 0.280568 -0.959834 0.000000
v 9.258336 3.397210 -3.700000
vn 0.280568 -0.959834 0.000000
v 3.015761 1.572453 -1.300000
vn 0.280568 -0.959834 0.000000
v 10.398479 3.712178 -0.500000
vn -0.303268 0.952905 -0.000000
v 3.074148 1.381166 1.000000
vn -0.303268 0.952905 -0.000000
v 9.271659 3.353560 -1.800000
vn -0.303268 0.952905 -0.000000
v 11.102742 3.936313 -2.300000
vn -0.303268 0.952905 -0.000000
v 9.271659 3.353560 -3.700000
vn -0.303268 0.952905 0.000000
v 3.074148 1.381166 -1.300000
vn -0.303268 0.952905 0.000000
v 2.112738 1.190646 1.300000
vn -0.220819 -0.067402 -0.972983
v 1.306728 0.944145 1.500000
vn -0.220819 -0.067402 -0.972983
v 1.353041 0.792416 1.500000
vn -0.220819 -0.067402 -0.972983
v 2.148474 1.073571 1.300000
vn -0.220819 -0.067402 -0.972983
v 2.918747 1.437147 1.100000
vn -0.220819 -0.067402 -0.972983
v 2.943905 1.354725 1.100000
vn -0.220819 -0.067402 -0.972983
v 2.076145 1.310529 1.300000
vn -0.220819 -0.067402 -0.972983
v 1.259305 1.099512 1.500000
vn -0.220821 -0.067402 -0.972982
v 2.892986 1.521546 1.100000
vn -0.220819 -0.067402 -0.972983
v 0.500000 0.700000 1.700000
vn -0.220819 -0.067402 -0.972983
v 0.497818 0.725567 1.698724
vn -0.220822 -0.067403 -0.972982
v 0.383225 1.082575 1.700000
vn -0.220824 -0.067403 -0.972982
v 0.492358 0.725036 1.700000
vn -0.220829 -0.067405 -0.972981
v 1.211079 1.257508 1.500000
vn -0.220819 -0.067402 -0.972983
v 2.038934 1.432441 1.300000
vn -0.220819 -0.067402 -0.972983
v 2.866788 1.607374 1.100000
vn -0.220819 -0.067402 -0.972983
v 3.694642 1.782307 0.900000
vn -0.220819 -0.067402 -0.972983
v 3.754501 1.586199 0.900000
vn -0.220819 -0.067402 -0.972983
v 2.970070 1.269005 1.100000
vn -0.220819 -0.067402 -0.972983
v 2.185638 0.951812 1.300000
vn -0.220819 -0.067402 -0.972983
v 1.401207 0.634619 1.500000
vn -0.220819 -0.067402 -0.972983
v 0.730054 0.374108 1.670365
vn -0.220819 -0.067401 -0.972983
v 0.729712 0.363093 1.671205
vn -0.220818 -0.067403 -0.972983
v 0.608876 0.343306 1.700000
vn -0.220820 -0.067400 -0.972983
v 3.754501 1.586199 0.900000
vn -0.956437 -0.291939 0.000000
v 3.754501 1.586199 0.300000
vn -0.956437 -0.291939 0.000000
v 3.694642 1.782307 0.900000
vn -0.956437 -0.291939 0.000000
v 3.694642 1.782307 0.300000
vn -0.956437 -0.291939 0.000000
v 3.754501 1.586199 0.300000
vn -0.086640 -0.026446 0.995889
v 1.535022 1.325960 0.100000
vn -0.086640 -0.026446 0.995889
v 3.694642 1.782307 0.300000
vn -0.086640 -0.026446 0.995889
v 1.708158 0.758738 0.100000
vn -0.086640 -0.026446 0.995889
v 1.708158 0.758738 0.100000
vn -0.956437 -0.291938 0.000000
v 1.535022 1.325960 -0.400000
vn -0.956437 -0.291938 0.000000
v 1.535022 1.325960 0.100000
vn -0.956437 -0.291938 0.000000
v 1.708158 0.758738 -0.400000
vn -0.956437 -0.291938 0.000000
v 1.708158 0.758738 -0.400000
vn -0.129298 -0.039466 -0.990820
v 3.694642 1.782307 -0.700000
vn -0.129298 -0.039466 -0.990820
v 1.535022 1.325960 -0.400000
vn -0.129298 -0.039466 -0.990820
v 3.754501 1.586199 -0.700000
vn -0.129298 -0.039466 -0.990820
v 3.754501 1.586199 -0.700000
vn -0.956437 -0.291939 0.000000
v 3.694642 1.782307 -1.200000
vn -0.956437 -0.291939 0.000000
v 3.694642 1.782307 -0.700000
vn -0.956437 -0.291939 0.000000
v 3.754501 1.586199 -1.200000
vn -0.956437 -0.291939 0.000000
v 0.734948 0.532037 -1.768735
vn -0.167580 -0.051152 0.984531
v 3.754501 1.586199 -1.200000
vn -0.167580 -0.051151 0.984531
v 0.794967 0.389479 -1.765926
vn -0.167580 -0.051152 0.984531
v 0.753910 1.143873 -1.733720
vn -0.167580 -0.051151 0.984531
v 3.694642 1.782307 -1.200000
vn -0.167580 -0.051151 0.984531
v 0.629736 1.134665 -1.755334
vn -0.167580 -0.051151 0.984531
v 0.500000 0.700000 1.700000
vn 0.956437 0.291938 0.000000
v 0.500000 0.700000 1.169807
vn 0.956437 0.291938 0.000000
v 0.608876 0.343306 1.700000
vn 0.956437 0.291938 0.000000
v 0.383225 1.082575 1.700000
vn 0.956437 0.291938 -0.000000
v 0.483106 0.755346 1.087540
vn 0.956437 0.291938 -0.000000
v 0.492358 0.725036 1.700000
vn 0.956437 0.291938 -0.000000
v 0.422852 0.952750 0.794118
vn 0.956437 0.291938 -0.000000
v 0.383225 1.082575 -1.273453
vn 0.956437 0.291938 0.000000
v 3.694642 1.782307 0.900000
vn 0.206743 -0.978395 0.000000
v 3.694642 1.782307 0.300000
vn 0.206743 -0.978395 0.000000
v 2.866788 1.607374 1.100000
vn 0.206744 -0.978395 -0.000000
v 1.535022 1.325960 0.100000
vn 0.206744 -0.978395 0.000000
v 2.038934 1.432441 1.300000
vn 0.206744 -0.978395 -0.000000
v 1.211079 1.257508 1.500000
vn 0.206743 -0.978395 0.000000
v 0.383225 1.082575 1.700000
vn 0.206744 -0.978395 0.000000
v 1.535022 1.325960 -0.400000
vn 0.206744 -0.978395 0.000000
v 0.383225 1.082575 -1.273453
vn 0.206744 -0.978395 0.000000
v 3.694642 1.782307 -0.700000
vn 0.206744 -0.978395 0.000000
v 3.694642 1.782307 -1.200000
vn 0.206744 -0.978395 0.000000
v 0.629736 1.134665 -1.755334
vn 0.206744 -0.978395 0.000000
v 3.754501 1.586199 0.900000
vn -0.374873 0.927076 0.000000
v 2.970070 1.269005 1.100000
vn -0.374873 0.927076 -0.000000
v 3.754501 1.586199 0.300000
vn -0.374873 0.927076 0.000000
v 2.185638 0.951812 1.300000
vn -0.374873 0.927076 -0.000000
v 1.708158 0.758738 0.100000
vn -0.374873 0.927076 -0.000000
v 1.401207 0.634619 1.500000
vn -0.374873 0.927076 -0.000000
v 0.729712 0.363093 1.671205
vn -0.374873 0.927076 -0.000000
v 1.708158 0.758738 -0.400000
vn -0.374873 0.927076 -0.000000
v 0.729712 0.363093 -0.340737
vn -0.374873 0.927076 0.000000
v 3.754501 1.586199 -0.700000
vn -0.374873 0.927076 -0.000000
v 3.754501 1.586199 -1.200000
vn -0.374873 0.927076 -0.000000
v 0.794967 0.389479 -1.765926
vn -0.374873 0.927076 -0.000000
v -2.112738 1.190646 1.300000
vn 0.220819 -0.067402 -0.972983
v -2.148474 1.073571 1.300000
vn 0.220819 -0.067402 -0.972983
v -1.353041 0.792416 1.500000
vn 0.220819 -0.067402 -0.972983
v -1.306728 0.944145 1.500000
vn 0.220819 -0.067402 -0.972983
v -2.918747 1.437147 1.100000
vn 0.220819 -0.067402 -0.972983
v -2.943905 1.354725 1.100000
vn 0.220819 -0.067402 -0.972983
v -2.076145 1.310529 1.300000
vn 0.220819 -0.067402 -0.972983
v -1.259305 1.099512 1.500000
vn 0.220821 -0.067402 -0.972982
v -2.892986 1.521546 1.100000
vn 0.220819 -0.067402 -0.972983
v -0.500000 0.700000 1.700000
vn 0.220819 -0.067402 -0.972983
v -0.497818 0.725567 1.698724
vn 0.220822 -0.067403 -0.972982
v -0.492358 0.725036 1.700000
vn 0.220829 -0.067405 -0.972981
v -0.383225 1.082575 1.700000
vn 0.220824 -0.067403 -0.972982
v -1.211079 1.257508 1.500000
vn 0.220819 -0.067402 -0.972983
v -2.038934 1.432441 1.300000
vn 0.220819 -0.067402 -0.972983
v -2.866788 1.607374 1.100000
vn 0.220819 -0.067402 -0.972983
v -3.694642 1.782307 0.900000
vn 0.220819 -0.067402 -0.972983
v -3.754501 1.586199 0.900000
vn 0.220819 -0.067402 -0.972983
v -2.970070 1.269005 1.100000
vn 0.220819 -0.067402 -0.972983
v -2.185638 0.951812 1.300000
vn 0.220819 -0.067402 -0.972983
v -1.401207 0.634619 1.500000
vn 0.220819 -0.067402 -0.972983
v -0.729712 0.363093 1.671205
vn 0.220818 -0.067403 -0.972983
v -0.730054 0.374108 1.670365
vn 0.220819 -0.067401 -0.972983
v -0.608876 0.343306 1.700000
vn 0.220820 -0.067400 -0.972983
v -3.754501 1.586199 0.900000
vn 0.956437 -0.291939 0.000000
v -3.694642 1.782307 0.900000
vn 0.956437 -0.291939 0.000000
v -3.754501 1.586199 0.300000
vn 0.956437 -0.291939 0.000000
v -3.694642 1.782307 0.300000
vn 0.956437 -0.291939 0.000000
v -3.754501 1.586199 0.300000
vn 0.086640 -0.026446 0.995889
v -3.694642 1.782307 0.300000
vn 0.086640 -0.026446 0.995889
v -1.535022 1.325960 0.100000
vn 0.086640 -0.026446 0.995889
v -1.708158 0.758738 0.100000
vn 0.086640 -0.026446 0.995889
v -1.708158 0.758738 0.100000
vn 0.956437 -0.291938 0.000000
v -1.535022 1.325960 0.100000
vn 0.956437 -0.291938 0.000000
v -1.535022 1.325960 -0.400000
vn 0.956437 -0.291938 0.000000
v -1.708158 0.758738 -0.400000
vn 0.956437 -0.291938 0.000000
v -1.708158 0.758738 -0.400000
vn 0.129298 -0.039466 -0.990820
v -1.535022 1.325960 -0.400000
vn 0.129298 -0.039466 -0.990820
v -3.694642 1.782307 -0.700000
vn 0.129298 -0.039466 -0.990820
v -3.754501 1.586199 -0.700000
vn 0.129298 -0.039466 -0.990820
v -3.754501 1.586199 -0.700000
vn 0.956437 -0.291939 0.000000
v -3.694642 1.782307 -0.700000
vn 0.956437 -0.291939 0.000000
v -3.694642 1.782307 -1.200000
vn 0.956437 -0.291939 0.000000
v -3.754501 1.586199 -1.200000
vn 0.956437 -0.291939 0.000000
v -0.734948 0.532037 -1.768735
vn 0.167580 -0.051151 0.984531
v -0.794967 0.389479 -1.765926
vn 0.167580 -0.051151 0.984531
v -3.754501 1.586199 -1.200000
vn 0.167580 -0.051151 0.984531
v -3.694642 1.782307 -1.200000
vn 0.167580 -0.051151 0.984531
v -0.753910 1.143873 -1.733720
vn 0.167580 -0.051151 0.984531
v -0.629736 1.134665 -1.755334
vn 0.167580 -0.051151 0.984531
v -0.500000 0.700000 1.700000
vn -0.956437 0.291938 0.000000
v -0.608876 0.343306 1.700000
vn -0.956437 0.291938 0.000000
v -0.500000 0.700000 1.169807
vn -0.956437 0.291938 0.000000
v -0.383225 1.082575 1.700000
vn -0.956437 0.291938 -0.000000
v -0.492358 0.725036 1.700000
vn -0.956437 0.291938 -0.000000
v -0.483106 0.755346 1.087540
vn -0.956437 0.291938 -0.000000
v -0.422852 0.952750 0.794118
vn -0.956437 0.291938 -0.000000
v -0.383225 1.082575 -1.273453
vn -0.956437 0.291938 0.000000
v -3.694642 1.782307 0.900000
vn -0.206743 -0.978395 0.000000
v -2.866788 1.607374 1.100000
vn -0.206744 -0.978395 -0.000000
v -3.694642 1.782307 0.300000
vn -0.206743 -0.978395 0.000000
v -2.038934 1.432441 1.300000
vn -0.206744 -0.978395 -0.000000
v -1.535022 1.325960 0.100000
vn -0.206744 -0.978395 0.000000
v -1.211079 1.257508 1.500000
vn -0.206743 -0.978395 0.000000
v -0.383225 1.082575 1.700000
vn -0.206744 -0.978395 0.000000
v -1.535022 1.325960 -0.400000
vn -0.206744 -0.978395 0.000000
v -0.383225 1.082575 -1.273453
vn -0.206744 -0.978395 0.000000
v -3.694642 1.782307 -0.700000
vn -0.206744 -0.978395 0.000000
v -3.694642 1.782307 -1.200000
vn -0.206744 -0.978395 0.000000
v -0.629736 1.134665 -1.755334
vn -0.206744 -0.978395 0.000000
v -3.754501 1.586199 0.900000
vn 0.374873 0.927076 0.000000
v -3.754501 1.586199 0.300000
vn 0.374873 0.927076 0.000000
v -2.970070 1.269005 1.100000
vn 0.374873 0.927076 -0.000000
v -1.708158 0.758738 0.100000
vn 0.374873 0.927076 -0.000000
v -2.185638 0.951812 1.300000
vn 0.374873 0.927076 -0.000000
v -1.401207 0.634619 1.500000
vn 0.374873 0.927076 -0.000000
v -0.729712 0.363093 1.671205
vn 0.374873 0.927076 -0.000000
v -1.708158 0.758738 -0.400000
vn 0.374873 0.927076 0.000000
v -0.729712 0.363093 -0.340737
vn 0.374873 0.927076 0.000000
v -3.754501 1.586199 -0.700000
vn 0.374873 0.927076 0.000000
v -3.754501 1.586199 -1.200000
vn 0.374873 0.927076 0.000000
v -0.794967 0.389479 -1.765926
vn 0.374873 0.927076 0.000000
v 0.725331 -0.538275 3.500000
vn -0.246452 0.285027 -0.926294
v 0.422755 -0.799901 3.500000
vn -0.246452 0.285027 -0.926294
v 1.639749 -1.697521 2.900000
vn -0.246452 0.285027 -0.926294
v 1.437808 -1.872131 2.900000
vn -0.246452 0.285027 -0.926294
v 1.639749 -1.697521 2.900000
vn -0.594000 0.686974 -0.418605
v 1.437808 -1.872131 2.900000
vn -0.594000 0.686974 -0.418605
v 1.945335 -2.408246 1.300000
vn -0.594000 0.686974 -0.418605
v 2.096958 -2.277144 1.300000
vn -0.594000 0.686974 -0.418605
v 2.096958 -2.277144 1.300000
vn -0.654064 0.756439 0.000000
v 1.945335 -2.408246 1.300000
vn -0.654064 0.756439 0.000000
v 1.945335 -2.408246 -1.200000
vn -0.654064 0.756439 0.000000
v 2.096958 -2.277144 -1.200000
vn -0.654064 0.756439 0.000000
v 2.096958 -2.277144 -1.200000
vn -0.526394 0.608786 0.593539
v 1.945335 -2.408246 -1.200000
vn -0.526394 0.608786 0.593539
v 1.031787 -1.443239 -3.000000
vn -0.526394 0.608786 0.593539
v 1.273982 -1.233823 -3.000000
vn -0.526394 0.608786 0.593539
v 1.273982 -1.233823 -3.000000
vn 0.000000 0.000000 1.000000
v 1.031787 -1.443239 -3.000000
vn 0.000000 0.000000 1.000000
v 0.422755 -0.799901 -3.000000
vn 0.000000 0.000000 1.000000
v 0.725331 -0.538275 -3.000000
vn 0.000000 0.000000 1.000000
v 0.422755 -0.799901 3.500000
vn 0.654064 -0.756439 0.000000
v 0.725331 -0.538275 3.500000
vn 0.654064 -0.756439 0.000000
v 0.725331 -0.538275 -3.000000
vn 0.654064 -0.756439 0.000000
v 0.422755 -0.799901 -3.000000
vn 0.654064 -0.756439 0.000000
v 1.437808 -1.872131 2.900000
vn 0.726204 0.687479 -0.000000
v 0.422755 -0.799901 3.500000
vn 0.726204 0.687479 -0.000000
v 1.945335 -2.408246 1.300000
vn 0.726204 0.687479 0.000000
v 1.945335 -2.408246 -1.200000
vn 0.726204 0.687479 0.000000
v 0.422755 -0.799901 -3.000000
vn 0.726204 0.687479 0.000000
v 1.031787 -1.443239 -3.000000
vn 0.726204 0.687479 0.000000
v 1.639749 -1.697521 2.900000
vn -0.785138 -0.619321 -0.000000
v 2.096958 -2.277144 1.300000
vn -0.785138 -0.619321 -0.000000
v 0.725331 -0.538275 3.500000
vn -0.785138 -0.619321 -0.000000
v 2.096958 -2.277144 -1.200000
vn -0.785138 -0.619321 0.000000
v 0.725331 -0.538275 -3.000000
vn -0.785138 -0.619321 -0.000000
v 1.273982 -1.233823 -3.000000
vn -0.785138 -0.619321 0.000000
v 2.100003 -2.281004 1.000000
vn -0.125287 0.144897 -0.981483
v 1.948715 -2.411816 1.000000
vn -0.125287 0.144897 -0.981483
v 7.044701 -8.165977 -0.500000
vn -0.125287 0.144897 -0.981483
v 7.057992 -8.154484 -0.500000
vn -0.125287 0.144897 -0.981483
v 7.057992 -8.154484 -0.500000
vn -0.605074 0.699741 -0.379801
v 7.044701 -8.165977 -0.500000
vn -0.605074 0.699741 -0.379801
v 7.534699 -8.719262 -2.300000
vn -0.605074 0.699741 -0.379801
v 7.534722 -8.719242 -2.300000
vn -0.605074 0.699741 -0.379801
v 7.534722 -8.719242 -2.300000
vn -0.385674 0.445009 0.808222
v 7.534699 -8.719262 -2.300000
vn -0.385674 0.445009 0.808222
v 6.260703 -7.280722 -3.700000
vn -0.385674 0.445009 0.808222
v 6.295225 -7.250872 -3.700000
vn -0.385674 0.445009 0.808222
v 6.295225 -7.250872 -3.700000
vn 0.654063 -0.756440 0.000000
v 6.260703 -7.280722 -3.700000
vn 0.654063 -0.756440 0.000000
v 6.260703 -7.280722 -1.800000
vn 0.654063 -0.756440 0.000000
v 6.295225 -7.250872 -1.800000
vn 0.654063 -0.756440 0.000000
v 6.295225 -7.250872 -1.800000
vn 0.050139 -0.057987 0.997057
v 6.260703 -7.280722 -1.800000
vn 0.050139 -0.057987 0.997057
v 2.100003 -2.281004 -1.300000
vn 0.050139 -0.057987 0.997057
v 1.948715 -2.411816 -1.300000
vn 0.050139 -0.057987 0.997057
v 1.948715 -2.411816 1.000000
vn 0.654064 -0.756439 0.000000
v 2.100003 -2.281004 1.000000
vn 0.654064 -0.756439 0.000000
v 1.948715 -2.411816 -1.300000
vn 0.654064 -0.756439 0.000000
v 2.100003 -2.281004 -1.300000
vn 0.654064 -0.756439 0.000000
v 1.948715 -2.411816 1.000000
vn 0.748624 0.662995 -0.000000
v 6.260703 -7.280722 -1.800000
vn 0.748624 0.662995 -0.000000
v 7.044701 -8.165977 -0.500000
vn 0.748624 0.662995 -0.000000
v 7.534699 -8.719262 -2.300000
vn 0.748624 0.662995 -0.000000
v 6.260703 -7.280722 -3.700000
vn 0.748624 0.662995 0.000000
v 1.948715 -2.411816 -1.300000
vn 0.748624 0.662995 0.000000
v 7.057992 -8.154484 -0.500000
vn -0.764148 -0.645041 0.000000
v 6.295225 -7.250872 -1.800000
vn -0.764148 -0.645041 0.000000
v 2.100003 -2.281004 1.000000
vn -0.764148 -0.645041 0.000000
v 7.534722 -8.719242 -2.300000
vn -0.764148 -0.645041 0.000000
v 6.295225 -7.250872 -3.700000
vn -0.764148 -0.645041 0.000000
v 2.100003 -2.281004 -1.300000
vn -0.764148 -0.645041 0.000000
v -2.100003 -2.281004 1.000000
vn 0.125287 0.144897 -0.981483
v -7.044701 -8.165977 -0.500000
vn 0.125287 0.144897 -0.981483
v -1.948715 -2.411816 1.000000
vn 0.125287 0.144897 -0.981483
v -7.057992 -8.154484 -0.500000
vn 0.125287 0.144897 -0.981483
v -7.057992 -8.154484 -0.500000
vn 0.605074 0.699741 -0.379801
v -7.534699 -8.719262 -2.300000
vn 0.605074 0.699741 -0.379801
v -7.044701 -8.165977 -0.500000
vn 0.605074 0.699741 -0.379801
v -7.534722 -8.719242 -2.300000
vn 0.605074 0.699741 -0.379801
v -7.534722 -8.719242 -2.300000
vn 0.385674 0.445009 0.808222
v -6.260703 -7.280722 -3.700000
vn 0.385674 0.445009 0.808222
v -7.534699 -8.719262 -2.300000
vn 0.385674 0.445009 0.808222
v -6.295225 -7.250872 -3.700000
vn 0.385674 0.445009 0.808222
v -6.295225 -7.250872 -3.700000
vn -0.654063 -0.756440 0.000000
v -6.260703 -7.280722 -1.800000
vn -0.654063 -0.756440 0.000000
v -6.260703 -7.280722 -3.700000
vn -0.654063 -0.756440 0.000000
v -6.295225 -7.250872 -1.800000
vn -0.654063 -0.756440 0.000000
v -6.295225 -7.250872 -1.800000
vn -0.050139 -0.057987 0.997057
v -2.100003 -2.281004 -1.300000
vn -0.050139 -0.057987 0.997057
v -6.260703 -7.280722 -1.800000
vn -0.050139 -0.057987 0.997057
v -1.948715 -2.411816 -1.300000
vn -0.050139 -0.057987 0.997057
v -1.948715 -2.411816 1.000000
vn -0.654064 -0.756439 0.000000
v -1.948715 -2.411816 -1.300000
vn -0.654064 -0.756439 0.000000
v -2.100003 -2.281004 1.000000
vn -0.654064 -0.756439 0.000000
v -2.100003 -2.281004 -1.300000
vn -0.654064 -0.756439 0.000000
v -1.948715 -2.411816 1.000000
vn -0.748624 0.662995 -0.000000
v -7.044701 -8.165977 -0.500000
vn -0.748624 0.662995 -0.000000
v -6.260703 -7.280722 -1.800000
vn -0.748624 0.662995 -0.000000
v -7.534699 -8.719262 -2.300000
vn -0.748624 0.662995 -0.000000
v -6.260703 -7.280722 -3.700000
vn -0.748624 0.662995 0.000000
v -1.948715 -2.411816 -1.300000
vn -0.748624 0.662995 0.000000
v -7.057992 -8.154484 -0.500000
vn 0.764148 -0.645041 0.000000
v -2.100003 -2.281004 1.000000
vn 0.764148 -0.645041 0.000000
v -6.295225 -7.250872 -1.800000
vn 0.764148 -0.645041 0.000000
v -7.534722 -8.719242 -2.300000
vn 0.764148 -0.645041 0.000000
v -6.295225 -7.250872 -3.700000
vn 0.764148 -0.645041 0.000000
v -2.100003 -2.281004 -1.300000
vn 0.764148 -0.645041 0.000000
v -0.725331 -0.538275 3.500000
vn 0.246452 0.285027 -0.926294
v -1.639749 -1.697521 2.900000
vn 0.246452 0.285027 -0.926294
v -0.422755 -0.799901 3.500000
vn 0.246452 0.285027 -0.926294
v -1.437808 -1.872131 2.900000
vn 0.246452 0.285027 -0.926294
v -1.639749 -1.697521 2.900000
vn 0.594000 0.686974 -0.418605
v -1.945335 -2.408246 1.300000
vn 0.594000 0.686974 -0.418605
v -1.437808 -1.872131 2.900000
vn 0.594000 0.686974 -0.418605
v -2.096958 -2.277144 1.300000
vn 0.594000 0.686974 -0.418605
v -2.096958 -2.277144 1.300000
vn 0.654064 0.756439 0.000000
v -1.945335 -2.408246 -1.200000
vn 0.654064 0.756439 0.000000
v -1.945335 -2.408246 1.300000
vn 0.654064 0.756439 0.000000
v -2.096958 -2.277144 -1.200000
vn 0.654064 0.756439 0.000000
v -2.096958 -2.277144 -1.200000
vn 0.526394 0.608786 0.593539
v -1.031787 -1.443239 -3.000000
vn 0.526394 0.608786 0.593539
v -1.945335 -2.408246 -1.200000
vn 0.526394 0.608786 0.593539
v -1.273982 -1.233823 -3.000000
vn 0.526394 0.608786 0.593539
v -1.273982 -1.233823 -3.000000
vn 0.000000 0.000000 1.000000
v -0.422755 -0.799901 -3.000000
vn 0.000000 0.000000 1.000000
v -1.031787 -1.443239 -3.000000
vn 0.000000 0.000000 1.000000
v -0.725331 -0.538275 -3.000000
vn 0.000000 0.000000 1.000000
v -0.422755 -0.799901 3.500000
vn -0.654064 -0.756439 0.000000
v -0.725331 -0.538275 -3.000000
vn -0.654064 -0.756439 0.000000
v -0.725331 -0.538275 3.500000
vn -0.654064 -0.756439 0.000000
v -0.422755 -0.799901 -3.000000
vn -0.654064 -0.756439 0.000000
v -1.437808 -1.872131 2.900000
vn -0.726204 0.687479 -0.000000
v -1.945335 -2.408246 1.300000
vn -0.726204 0.687479 -0.000000
v -0.422755 -0.799901 3.500000
vn -0.726204 0.687479 -0.000000
v -1.945335 -2.408246 -1.200000
vn -0.726204 0.687479 0.000000
v -0.422755 -0.799901 -3.000000
vn -0.726204 0.687479 -0.000000
v -1.031787 -1.443239 -3.000000
vn -0.726204 0.687479 0.000000
v -1.639749 -1.697521 2.900000
vn 0.785138 -0.619321 0.000000
v -0.725331 -0.538275 3.500000
vn 0.785138 -0.619321 0.000000
v -2.096958 -2.277144 1.300000
vn 0.785138 -0.619321 0.000000
v -2.096958 -2.277144 -1.200000
vn 0.785138 -0.619321 0.000000
v -0.725331 -0.538275 -3.000000
vn 0.785138 -0.619321 0.000000
v -1.273982 -1.233823 -3.000000
vn 0.785138 -0.619321 0.000000
v -0.776754 -0.335655 1.623156
vn 0.151008 0.174644 -0.972983
v -2.411568 -2.950969 0.900000
vn 0.151008 0.174644 -0.972983
v -0.169068 -0.777165 1.638222
vn 0.151008 0.174644 -0.972983
v -2.566668 -2.816860 0.900000
vn 0.151008 0.174644 -0.972983
v -2.566668 -2.816860 0.900000
vn 0.654064 0.756439 0.000000
v -2.566668 -2.816860 0.300000
vn 0.654064 0.756439 0.000000
v -2.411568 -2.950969 0.900000
vn 0.654064 0.756439 0.000000
v -2.411568 -2.950969 0.300000
vn 0.654064 0.756439 0.000000
v -2.566668 -2.816860 0.300000
vn 0.059249 0.068523 0.995889
v -0.826678 -1.414630 0.100000
vn 0.059249 0.068523 0.995889
v -2.411568 -2.950969 0.300000
vn 0.059249 0.068523 0.995889
v -1.275290 -1.026733 0.100000
vn 0.059249 0.068523 0.995889
v -1.275290 -1.026733 0.100000
vn 0.654064 0.756439 0.000000
v -0.826678 -1.414630 -0.400000
vn 0.654064 0.756439 0.000000
v -0.826678 -1.414630 0.100000
vn 0.654064 0.756439 0.000000
v -1.275290 -1.026733 -0.400000
vn 0.654064 0.756439 0.000000
v -1.275290 -1.026733 -0.400000
vn 0.088421 0.102261 -0.990820
v -2.411568 -2.950969 -0.700000
vn 0.088421 0.102261 -0.990820
v -0.826678 -1.414630 -0.400000
vn 0.088421 0.102261 -0.990820
v -2.566668 -2.816860 -0.700000
vn 0.088421 0.102261 -0.990820
v -2.566668 -2.816860 -0.700000
vn 0.654064 0.756439 0.000000
v -2.411568 -2.950969 -1.200000
vn 0.654064 0.756439 0.000000
v -2.411568 -2.950969 -0.700000
vn 0.654064 0.756439 0.000000
v -2.566668 -2.816860 -1.200000
vn 0.654064 0.756439 0.000000
v -0.169068 -0.777165 -1.753666
vn 0.114600 0.132537 0.984531
v -2.411568 -2.950969 -1.200000
vn 0.114600 0.132537 0.984531
v -0.776754 -0.335655 -1.742367
vn 0.114600 0.132537 0.984531
v -2.566668 -2.816860 -1.200000
vn 0.114600 0.132537 0.984531
v -2.411568 -2.950969 0.900000
vn -0.696024 0.718019 -0.000000
v -0.826678 -1.414630 0.100000
vn -0.696024 0.718019 -0.000000
v -0.169068 -0.777165 1.638222
vn -0.696024 0.718019 -0.000000
v -2.411568 -2.950969 0.300000
vn -0.696024 0.718019 -0.000000
v -0.826678 -1.414630 -0.400000
vn -0.696024 0.718019 -0.000000
v -0.169068 -0.777165 -1.753666
vn -0.696024 0.718019 -0.000000
v -2.411568 -2.950969 -0.700000
vn -0.696024 0.718019 0.000000
v -2.411568 -2.950969 -1.200000
vn -0.696024 0.718019 0.000000
v -2.566668 -2.816860 0.900000
vn 0.811000 -0.585046 -0.000000
v -0.776754 -0.335655 1.623156
vn 0.811000 -0.585046 -0.000000
v -1.275290 -1.026733 0.100000
vn 0.811000 -0.585046 -0.000000
v -2.566668 -2.816860 0.300000
vn 0.811000 -0.585046 -0.000000
v -1.275290 -1.026733 -0.400000
vn 0.811000 -0.585046 0.000000
v -0.776754 -0.335655 -1.742367
vn 0.811000 -0.585046 0.000000
v -2.566668 -2.816860 -0.700000
vn 0.811000 -0.585046 0.000000
v -2.566668 -2.816860 -1.200000
vn 0.811000 -0.585046 0.000000
v 0.776754 -0.335655 1.623156
vn -0.151008 0.174644 -0.972983
v 0.169068 -0.777165 1.638222
vn -0.151008 0.174644 -0.972983
v 2.411568 -2.950969 0.900000
vn -0.151008 0.174644 -0.972983
v 2.566668 -2.816860 0.900000
vn -0.151008 0.174644 -0.972983
v 2.566668 -2.816860 0.900000
vn -0.654064 0.756439 0.000000
v 2.411568 -2.950969 0.900000
vn -0.654064 0.756439 0.000000
v 2.566668 -2.816860 0.300000
vn -0.654064 0.756439 0.000000
v 2.411568 -2.950969 0.300000
vn -0.654064 0.756439 0.000000
v 2.566668 -2.816860 0.300000
vn -0.059249 0.068523 0.995889
v 2.411568 -2.950969 0.300000
vn -0.059249 0.068523 0.995889
v 0.826678 -1.414630 0.100000
vn -0.059249 0.068523 0.995889
v 1.275290 -1.026733 0.100000
vn -0.059249 0.068523 0.995889
v 1.275290 -1.026733 0.100000
vn -0.654064 0.756439 0.000000
v 0.826678 -1.414630 0.100000
vn -0.654064 0.756439 0.000000
v 0.826678 -1.414630 -0.400000
vn -0.654064 0.756439 0.000000
v 1.275290 -1.026733 -0.400000
vn -0.654064 0.756439 0.000000
v 1.275290 -1.026733 -0.400000
vn -0.088421 0.102261 -0.990820
v 0.826678 -1.414630 -0.400000
vn -0.088421 0.102261 -0.990820
v 2.411568 -2.950969 -0.700000
vn -0.088421 0.102261 -0.990820
v 2.566668 -2.816860 -0.700000
vn -0.088421 0.102261 -0.990820
v 2.566668 -2.816860 -0.700000
vn -0.654064 0.756439 0.000000
v 2.411568 -2.950969 -0.700000
vn -0.654064 0.756439 0.000000
v 2.411568 -2.950969 -1.200000
vn -0.654064 0.756439 0.000000
v 2.566668 -2.816860 -1.200000
vn -0.654064 0.756439 0.000000
v 0.169068 -0.777165 -1.753666
vn -0.114600 0.132537 0.984531
v 0.776754 -0.335655 -1.742367
vn -0.114600 0.132537 0.984531
v 2.411568 -2.950969 -1.200000
vn -0.114600 0.132537 0.984531
v 2.566668 -2.816860 -1.200000
vn -0.114600 0.132537 0.984531
v 2.411568 -2.950969 0.900000
vn 0.696024 0.718019 -0.000000
v 0.169068 -0.777165 1.638222
vn 0.696024 0.718019 -0.000000
v 0.826678 -1.414630 0.100000
vn 0.696024 0.718019 -0.000000
v 2.411568 -2.950969 0.300000
vn 0.696024 0.718019 -0.000000
v 0.826678 -1.414630 -0.400000
vn 0.696024 0.718019 0.000000
v 0.169068 -0.777165 -1.753666
vn 0.696024 0.718019 0.000000
v 2.411568 -2.950969 -0.700000
vn 0.696024 0.718019 0.000000
v 2.411568 -2.950969 -1.200000
vn 0.696024 0.718019 0.000000
v 2.566668 -2.816860 0.900000
vn -0.811000 -0.585046 -0.000000
v 1.275290 -1.026733 0.100000
vn -0.811000 -0.585046 -0.000000
v 0.776754 -0.335655 1.623156
vn -0.811000 -0.585046 -0.000000
v 2.566668 -2.816860 0.300000
vn -0.811000 -0.585046 -0.000000
v 1.275290 -1.026733 -0.400000
vn -0.811000 -0.585046 0.000000
v 0.776754 -0.335655 -1.742367
vn -0.811000 -0.585046 0.000000
v 2.566668 -2.816860 -0.700000
vn -0.811000 -0.585046 0.000000
v 2.566668 -2.816860 -1.200000
vn -0.811000 -0.585046 0.000000
vt 0.328531 0.748901
vt 0.235339 0.998535
vt 0.328531 0.998535
f 3/1/3 4/2/4 5/3/5
vt 0.786319 0.748901
vt 0.694135 0.998535
vt 0.786319 0.998535
f 10/4/10 11/5/11 12/6/12
vt 0.694135 0.748901
vt 0.786319 0.499268
vt 0.694135 0.499268
f 9/7/9 8/8/8 13/9/13
vt 0.694135 0.499268
vt 0.786319 0.499268
vt 0.786319 0.000000
f 13/10/13 8/11/8 14/12/14
vt 0.633387 0.748901
vt 0.541203 0.998535
vt 0.633387 0.998535
f 17/13/17 18/14/18 19/15/19
vt 0.541203 0.748901
vt 0.633387 0.499268
vt 0.541203 0.499268
f 16/16/16 15/17/15 20/18/20
vt 0.541203 0.499268
vt 0.633387 0.499268
vt 0.633387 0.000000
f 20/19/20 15/20/15 21/21/21
vt 0.939252 0.748901
vt 0.847068 0.998535
vt 0.939252 0.998535
f 24/22/24 25/23/25 26/24/26
vt 0.847068 0.748901
vt 0.939252 0.499268
vt 0.847068 0.499268
f 23/25/23 22/26/22 27/27/27
vt 0.847068 0.499268
vt 0.939252 0.499268
vt 0.939252 0.000000
f 27/28/27 22/29/22 28/30/28
vt 0.481463 0.748901
vt 0.388271 0.998535
vt 0.481463 0.998535
f 30/31/30 29/32/29 35/33/35
vt 0.089332 0.000000
vt 0.000000 0.122955
vt 0.233874 0.046965
f 40/34/40 38/35/38 37/36/37
vt 0.077603 0.648500
vt 0.281428 0.701536
vt 0.281428 0.500000
f 68/37/68 66/38/66 69/39/69
vt 0.281428 0.701536
vt 0.971295 0.998535
vt 0.971295 0.754571
f 66/40/66 65/41/65 70/42/70
vt 0.767471 0.000000
vt 0.767471 0.201535
vt 0.971295 0.148500
f 75/43/75 72/44/72 74/45/74
vt 0.077603 0.254571
vt 0.077603 0.498535
vt 0.767471 0.201535
f 76/46/76 73/47/73 72/48/72
vt 0.077603 0.648500
vt 0.281428 0.500000
vt 0.281428 0.701536
f 176/49/176 177/50/177 175/51/175
vt 0.281428 0.701536
vt 0.971295 0.754571
vt 0.971295 0.998535
f 175/52/175 178/53/178 173/54/173
vt 0.767471 0.000000
vt 0.971295 0.148500
vt 0.767471 0.201535
f 183/55/183 182/56/182 181/57/181
vt 0.077603 0.254571
vt 0.767471 0.201535
vt 0.077603 0.498535
f 184/58/184 181/59/181 180/60/180
vt 0.440751 0.609706
vt 0.442165 0.509113
vt 0.440751 0.508617
f 205/61/205 206/62/206 207/63/207
vt 0.521848 0.609706
vt 0.498492 0.492368
vt 0.494745 0.609706
f 192/64/192 195/65/195 186/66/186
vt 0.494745 0.845888
vt 0.549409 0.963980
vt 0.521848 0.845888
f 189/67/189 201/68/201 193/69/193
vt 0.049872 0.479698
vt 0.049872 0.408797
vt 0.000000 0.479698
f 235/70/235 236/71/236 237/72/237
vt 0.152004 0.276507
vt 0.170157 0.397656
vt 0.170157 0.000000
f 241/73/241 238/74/238 242/75/242
vt 0.859606 0.122537
vt 0.712914 0.319663
vt 0.888945 0.245075
f 245/76/245 246/77/246 247/78/247
vt 0.888945 0.245075
vt 0.712914 0.319663
vt 0.918283 0.367612
f 247/79/247 246/80/246 248/81/248
vt 0.882441 0.892026
vt 0.766347 0.919969
vt 0.695682 0.752312
f 256/82/256 258/83/258 259/84/259
vt 0.550874 0.971832
vt 0.550874 0.690734
vt 0.695682 0.752312
f 261/85/261 263/86/263 259/87/259
vt 0.440751 0.609706
vt 0.440751 0.508617
vt 0.442165 0.509113
f 287/88/287 288/89/288 289/90/289
vt 0.521848 0.609706
vt 0.494745 0.609706
vt 0.498492 0.492368
f 274/91/274 270/92/270 277/93/277
vt 0.494745 0.845888
vt 0.521848 0.845888
vt 0.549409 0.963980
f 271/94/271 275/95/275 283/96/283
vt 0.049872 0.479698
vt 0.000000 0.479698
vt 0.049872 0.408797
f 317/97/317 318/98/318 319/99/319
vt 0.152004 0.276507
vt 0.170157 0.000000
vt 0.170157 0.397656
f 323/100/323 324/101/324 320/102/320
vt 0.859606 0.122537
vt 0.888945 0.245075
vt 0.712914 0.319663
f 326/103/326 328/104/328 329/105/329
vt 0.888945 0.245075
vt 0.918283 0.367612
vt 0.712914 0.319663
f 328/106/328 330/107/330 329/108/329
vt 0.882441 0.892026
vt 0.695682 0.752312
vt 0.766347 0.919969
f 339/109/339 340/110/340 341/111/341
vt 0.550874 0.971832
vt 0.695682 0.752312
vt 0.550874 0.690734
f 343/112/343 340/113/340 345/114/345
vt 0.077603 0.648500
vt 0.281428 0.701536
vt 0.281428 0.500000
f 412/115/412 410/116/410 413/117/413
vt 0.281428 0.701536
vt 0.971295 0.998535
vt 0.971295 0.754571
f 410/118/410 409/119/409 414/120/414
vt 0.767471 0.000000
vt 0.767471 0.201535
vt 0.971295 0.148500
f 419/121/419 416/122/416 418/123/418
vt 0.077603 0.254571
vt 0.077603 0.498535
vt 0.767471 0.201535
f 420/124/420 417/125/417 416/126/416
vt 0.077603 0.648500
vt 0.281428 0.500000
vt 0.281428 0.701536
f 448/127/448 449/128/449 447/129/447
vt 0.281428 0.701536
vt 0.971295 0.754571
vt 0.971295 0.998535
f 447/130/447 450/131/450 445/132/445
vt 0.767471 0.000000
vt 0.971295 0.148500
vt 0.767471 0.201535
f 455/133/455 454/134/454 453/135/453
vt 0.077603 0.254571
vt 0.767471 0.201535
vt 0.077603 0.498535
f 456/136/456 453/137/453 452/138/452
vt 0.328531 0.748901
vt 0.328531 0.499268
vt 0.235339 0.748901
vt 0.235339 0.998535
f 3/139/3 1/140/1 2/141/2 4/142/4
vt 0.235339 0.499268
vt 0.235339 0.748901
vt 0.328531 0.499268
vt 0.328531 0.000000
f 6/143/6 2/144/2 1/145/1 7/146/7
vt 0.786319 0.748901
vt 0.786319 0.499268
vt 0.694135 0.748901
vt 0.694135 0.998535
f 10/147/10 8/148/8 9/149/9 11/150/11
vt 0.633387 0.748901
vt 0.633387 0.499268
vt 0.541203 0.748901
vt 0.541203 0.998535
f 17/151/17 15/152/15 16/153/16 18/154/18
vt 0.939252 0.748901
vt 0.939252 0.499268
vt 0.847068 0.748901
vt 0.847068 0.998535
f 24/155/24 22/156/22 23/157/23 25/158/25
vt 0.388271 0.499268
vt 0.388271 0.748901
vt 0.481463 0.499268
vt 0.481463 0.000000
f 33/159/33 31/160/31 32/161/32 34/162/34
vt 0.388271 0.748901
vt 0.388271 0.998535
vt 0.481463 0.748901
vt 0.481463 0.499268
f 31/163/31 29/164/29 30/165/30 32/166/32
vt 0.233874 0.046965
vt 0.000000 0.122955
vt 0.089332 0.245909
vt 0.233874 0.198945
f 37/167/37 38/168/38 36/169/36 39/170/39
vt 0.055708 0.000000
vt 0.077603 0.000000
vt 0.077603 0.857359
vt 0.055708 0.857359
f 41/171/41 42/172/42 43/173/43 44/174/44
vt 0.000000 0.000000
vt 0.001924 0.000000
vt 0.001924 0.213025
vt 0.000000 0.213025
f 45/175/45 46/176/46 47/177/47 48/178/48
vt 0.006920 0.000000
vt 0.011916 0.000000
vt 0.011916 0.260284
vt 0.006920 0.260284
f 49/179/49 50/180/50 51/181/51 52/182/52
vt 0.001924 0.000000
vt 0.006920 0.000000
vt 0.006920 0.208009
vt 0.001924 0.208009
f 53/183/53 54/184/54 55/185/55 56/186/56
vt 0.033812 0.714126
vt 0.033812 0.000000
vt 0.055708 0.000000
vt 0.055708 0.714126
f 59/187/59 57/188/57 58/189/58 60/190/60
vt 0.033812 0.000000
vt 0.033812 0.251800
vt 0.011916 0.251800
vt 0.011916 0.000000
f 63/191/63 61/192/61 62/193/62 64/194/64
vt 0.155997 0.839428
vt 0.971295 0.998535
vt 0.281428 0.701536
vt 0.077603 0.648500
f 67/195/67 65/196/65 66/197/66 68/198/68
vt 0.767471 0.201535
vt 0.077603 0.498535
vt 0.892901 0.339428
vt 0.971295 0.148500
f 72/199/72 73/200/73 71/201/71 74/202/74
vt 0.135172 0.242524
vt 0.135172 0.000000
vt 0.196041 0.000000
vt 0.196041 0.242524
f 79/203/79 77/204/77 78/205/78 80/206/80
vt 0.062334 0.000000
vt 0.102471 0.000000
vt 0.102471 0.264928
vt 0.062334 0.264928
f 81/207/81 82/208/82 83/209/83 84/210/84
vt 0.103936 0.000000
vt 0.135172 0.000000
vt 0.135172 0.389588
vt 0.103936 0.389588
f 85/211/85 86/212/86 87/213/87 88/214/88
vt 0.197506 0.000000
vt 0.245936 0.000000
vt 0.245936 0.338424
vt 0.197506 0.338424
f 89/215/89 90/216/90 91/217/91 92/218/92
vt 0.000000 0.000000
vt 0.060869 0.000000
vt 0.060869 0.134809
vt 0.000000 0.134809
f 93/219/93 94/220/94 95/221/95 96/222/96
vt 0.308270 0.989124
vt 0.247401 0.989124
vt 0.247401 0.000000
vt 0.308270 0.000000
f 97/223/97 98/224/98 99/225/99 100/226/100
vt 0.649963 0.276517
vt 0.649963 0.660569
vt 0.309735 0.000000
vt 0.445826 0.000000
f 104/227/104 103/228/103 105/229/105 106/230/106
vt 0.649963 0.660569
vt 0.536554 0.906363
vt 0.309735 0.998535
vt 0.309735 0.000000
f 103/231/103 101/232/101 102/233/102 105/234/105
vt 0.654868 0.000000
vt 0.995096 0.660569
vt 0.995096 0.276517
vt 0.790959 0.000000
f 111/235/111 108/236/108 110/237/110 112/238/112
vt 0.654868 0.998535
vt 0.881686 0.906363
vt 0.995096 0.660569
vt 0.654868 0.000000
f 109/239/109 107/240/107 108/241/108 111/242/111
vt 0.196041 0.000000
vt 0.135172 0.000000
vt 0.135172 0.242524
vt 0.196041 0.242524
f 115/243/115 113/244/113 114/245/114 116/246/116
vt 0.102471 0.264928
vt 0.102471 0.000000
vt 0.062334 0.000000
vt 0.062334 0.264928
f 118/247/118 119/248/119 117/249/117 120/250/120
vt 0.135172 0.389588
vt 0.135172 0.000000
vt 0.103936 0.000000
vt 0.103936 0.389588
f 122/251/122 123/252/123 121/253/121 124/254/124
vt 0.245936 0.338424
vt 0.245936 0.000000
vt 0.197506 0.000000
vt 0.197506 0.338424
f 126/255/126 127/256/127 125/257/125 128/258/128
vt 0.060869 0.134809
vt 0.060869 0.000000
vt 0.000000 0.000000
vt 0.000000 0.134809
f 130/259/130 131/260/131 129/261/129 132/262/132
vt 0.247401 0.000000
vt 0.247401 0.989124
vt 0.308270 0.989124
vt 0.308270 0.000000
f 134/263/134 135/264/135 133/265/133 136/266/136
vt 0.309735 0.000000
vt 0.649963 0.660569
vt 0.649963 0.276517
vt 0.445826 0.000000
f 141/267/141 138/268/138 140/269/140 142/270/142
vt 0.309735 0.998535
vt 0.536554 0.906363
vt 0.649963 0.660569
vt 0.309735 0.000000
f 139/271/139 137/272/137 138/273/138 141/274/141
vt 0.995096 0.276517
vt 0.995096 0.660569
vt 0.654868 0.000000
vt 0.790959 0.000000
f 146/275/146 145/276/145 147/277/147 148/278/148
vt 0.995096 0.660569
vt 0.881686 0.906363
vt 0.654868 0.998535
vt 0.654868 0.000000
f 145/279/145 143/280/143 144/281/144 147/282/147
vt 0.077603 0.857359
vt 0.077603 0.000000
vt 0.055708 0.000000
vt 0.055708 0.857359
f 150/283/150 151/284/151 149/285/149 152/286/152
vt 0.001924 0.213025
vt 0.001924 0.000000
vt 0.000000 0.000000
vt 0.000000 0.213025
f 154/287/154 155/288/155 153/289/153 156/290/156
vt 0.011916 0.260284
vt 0.011916 0.000000
vt 0.006920 0.000000
vt 0.006920 0.260284
f 158/291/158 159/292/159 157/293/157 160/294/160
vt 0.006920 0.208009
vt 0.006920 0.000000
vt 0.001924 0.000000
vt 0.001924 0.208009
f 162/295/162 163/296/163 161/297/161 164/298/164
vt 0.055708 0.000000
vt 0.033812 0.000000
vt 0.033812 0.714126
vt 0.055708 0.714126
f 167/299/167 165/300/165 166/301/166 168/302/168
vt 0.011916 0.251800
vt 0.033812 0.251800
vt 0.033812 0.000000
vt 0.011916 0.000000
f 171/303/171 169/304/169 170/305/170 172/306/172
vt 0.281428 0.701536
vt 0.971295 0.998535
vt 0.155997 0.839428
vt 0.077603 0.648500
f 175/307/175 173/308/173 174/309/174 176/310/176
vt 0.892901 0.339428
vt 0.077603 0.498535
vt 0.767471 0.201535
vt 0.971295 0.148500
f 179/311/179 180/312/180 181/313/181 182/314/182
vt 0.494745 0.727797
vt 0.494745 0.609706
vt 0.468277 0.609706
vt 0.468277 0.727797
f 185/315/185 186/316/186 187/317/187 188/318/188
vt 0.494745 0.845888
vt 0.494745 0.727797
vt 0.468277 0.727797
vt 0.468277 0.845888
f 189/319/189 185/320/185 188/321/188 190/322/190
vt 0.521848 0.727797
vt 0.521848 0.609706
vt 0.494745 0.609706
vt 0.494745 0.727797
f 191/323/191 192/324/192 186/325/186 185/326/185
vt 0.521848 0.845888
vt 0.521848 0.727797
vt 0.494745 0.727797
vt 0.494745 0.845888
f 193/327/193 191/328/191 185/329/185 189/330/189
vt 0.549409 0.845888
vt 0.549409 0.727797
vt 0.521848 0.845888
vt 0.549409 0.963980
f 200/331/200 199/332/199 193/333/193 201/334/201
vt 0.444426 0.491615
vt 0.442165 0.509113
vt 0.468277 0.609706
vt 0.495080 0.491615
f 208/335/208 206/336/206 187/337/187 194/338/194
vt 0.440751 0.727797
vt 0.440751 0.845888
vt 0.468277 0.727797
vt 0.468277 0.609706
f 204/339/204 203/340/203 188/341/188 187/342/187
vt 0.494745 0.609706
vt 0.498492 0.492368
vt 0.495080 0.491615
vt 0.468277 0.609706
f 186/343/186 195/344/195 194/345/194 187/346/187
vt 0.440751 0.963980
vt 0.549409 0.963980
vt 0.494745 0.845888
vt 0.468277 0.845888
f 202/347/202 201/348/201 189/349/189 190/350/190
vt 0.440751 0.845888
vt 0.440751 0.963980
vt 0.468277 0.845888
vt 0.468277 0.727797
f 203/351/203 202/352/202 190/353/190 188/354/188
vt 0.549409 0.609706
vt 0.549409 0.491615
vt 0.521848 0.609706
vt 0.521848 0.727797
f 198/355/198 196/356/196 192/357/192 191/358/191
vt 0.549409 0.727797
vt 0.549409 0.609706
vt 0.521848 0.727797
vt 0.521848 0.845888
f 199/359/199 198/360/198 191/361/191 193/362/193
vt 0.549409 0.491615
vt 0.498635 0.491615
vt 0.498492 0.492368
vt 0.521848 0.609706
f 196/363/196 197/364/197 195/365/195 192/366/192
vt 0.440751 0.609706
vt 0.440751 0.727797
vt 0.468277 0.609706
vt 0.442165 0.509113
f 205/367/205 204/368/204 187/369/187 206/370/206
vt 0.118699 0.244962
vt 0.118699 0.204399
vt 0.000000 0.204399
vt 0.000000 0.244962
f 211/371/211 209/372/209 210/373/210 212/374/212
vt 0.251794 0.299615
vt 0.251794 0.000000
vt 0.171622 0.000000
vt 0.171622 0.299615
f 214/375/214 215/376/215 213/377/213 216/378/216
vt 0.051337 0.488696
vt 0.118699 0.488696
vt 0.118699 0.408797
vt 0.051337 0.408797
f 218/379/218 219/380/219 217/381/217 220/382/220
vt 0.333430 0.301136
vt 0.333430 0.000000
vt 0.253259 0.000000
vt 0.253259 0.301136
f 222/383/222 223/384/223 221/385/221 224/386/224
vt 0.000000 0.048676
vt 0.118699 0.048676
vt 0.118699 0.000000
vt 0.000000 0.000000
f 226/387/226 227/388/227 225/389/225 228/390/228
vt 0.439286 0.000000
vt 0.334895 0.000000
vt 0.436908 0.415067
vt 0.439286 0.431876
f 233/391/233 230/392/230 232/393/232 234/394/234
vt 0.334895 0.000000
vt 0.334895 0.440113
vt 0.355972 0.442298
vt 0.436908 0.415067
f 230/395/230 231/396/231 229/397/229 232/398/232
vt 0.124402 0.315748
vt 0.120164 0.397656
vt 0.170157 0.397656
vt 0.152004 0.276507
f 239/399/239 240/400/240 238/401/238 241/402/241
vt 0.859606 0.122537
vt 0.830268 0.000000
vt 0.742252 0.000000
vt 0.712914 0.319663
f 245/403/245 243/404/243 244/405/244 246/406/246
vt 0.639568 0.319663
vt 0.595560 0.000000
vt 0.522214 0.000000
vt 0.440751 0.453662
f 250/407/250 252/408/252 253/409/253 254/410/254
vt 0.947621 0.490150
vt 0.918283 0.367612
vt 0.712914 0.319663
vt 0.511439 0.490150
f 249/411/249 248/412/248 246/413/246 251/414/251
vt 0.511439 0.490150
vt 0.712914 0.319663
vt 0.639568 0.319663
vt 0.440751 0.453662
f 251/415/251 246/416/246 250/417/250 254/418/254
vt 0.695682 0.752312
vt 0.766347 0.919969
vt 0.650253 0.947912
vt 0.550874 0.971832
f 259/419/259 258/420/258 260/421/260 261/422/261
vt 0.998535 0.780254
vt 0.998535 0.864083
vt 0.882441 0.892026
vt 0.695682 0.752312
f 257/423/257 255/424/255 256/425/256 259/426/259
vt 0.998535 0.570683
vt 0.998535 0.640540
vt 0.695682 0.682454
vt 0.560531 0.491615
f 265/427/265 264/428/264 262/429/262 266/430/266
vt 0.695682 0.682454
vt 0.695682 0.752312
vt 0.550874 0.690734
vt 0.560531 0.491615
f 262/431/262 259/432/259 263/433/263 266/434/266
vt 0.494745 0.727797
vt 0.468277 0.727797
vt 0.468277 0.609706
vt 0.494745 0.609706
f 267/435/267 268/436/268 269/437/269 270/438/270
vt 0.494745 0.845888
vt 0.468277 0.845888
vt 0.468277 0.727797
vt 0.494745 0.727797
f 271/439/271 272/440/272 268/441/268 267/442/267
vt 0.521848 0.727797
vt 0.494745 0.727797
vt 0.494745 0.609706
vt 0.521848 0.609706
f 273/443/273 267/444/267 270/445/270 274/446/274
vt 0.521848 0.845888
vt 0.494745 0.845888
vt 0.494745 0.727797
vt 0.521848 0.727797
f 275/447/275 271/448/271 267/449/267 273/450/273
vt 0.521848 0.845888
vt 0.549409 0.727797
vt 0.549409 0.845888
vt 0.549409 0.963980
f 275/451/275 281/452/281 282/453/282 283/454/283
vt 0.468277 0.609706
vt 0.442165 0.509113
vt 0.444426 0.491615
vt 0.495080 0.491615
f 269/455/269 289/456/289 290/457/290 276/458/276
vt 0.468277 0.727797
vt 0.440751 0.845888
vt 0.440751 0.727797
vt 0.468277 0.609706
f 268/459/268 285/460/285 286/461/286 269/462/269
vt 0.495080 0.491615
vt 0.498492 0.492368
vt 0.494745 0.609706
vt 0.468277 0.609706
f 276/463/276 277/464/277 270/465/270 269/466/269
vt 0.494745 0.845888
vt 0.549409 0.963980
vt 0.440751 0.963980
vt 0.468277 0.845888
f 271/467/271 283/468/283 284/469/284 272/470/272
vt 0.468277 0.845888
vt 0.440751 0.963980
vt 0.440751 0.845888
vt 0.468277 0.727797
f 272/471/272 284/472/284 285/473/285 268/474/268
vt 0.521848 0.609706
vt 0.549409 0.491615
vt 0.549409 0.609706
vt 0.521848 0.727797
f 274/475/274 279/476/279 280/477/280 273/478/273
vt 0.521848 0.727797
vt 0.549409 0.609706
vt 0.549409 0.727797
vt 0.521848 0.845888
f 273/479/273 280/480/280 281/481/281 275/482/275
vt 0.498492 0.492368
vt 0.498635 0.491615
vt 0.549409 0.491615
vt 0.521848 0.609706
f 277/483/277 278/484/278 279/485/279 274/486/274
vt 0.468277 0.609706
vt 0.440751 0.727797
vt 0.440751 0.609706
vt 0.442165 0.509113
f 269/487/269 286/488/286 287/489/287 289/490/289
vt 0.000000 0.204399
vt 0.118699 0.204399
vt 0.118699 0.244962
vt 0.000000 0.244962
f 293/491/293 291/492/291 292/493/292 294/494/294
vt 0.171622 0.000000
vt 0.251794 0.000000
vt 0.251794 0.299615
vt 0.171622 0.299615
f 295/495/295 296/496/296 297/497/297 298/498/298
vt 0.118699 0.408797
vt 0.118699 0.488696
vt 0.051337 0.488696
vt 0.051337 0.408797
f 299/499/299 300/500/300 301/501/301 302/502/302
vt 0.253259 0.000000
vt 0.333430 0.000000
vt 0.333430 0.301136
vt 0.253259 0.301136
f 303/503/303 304/504/304 305/505/305 306/506/306
vt 0.118699 0.000000
vt 0.118699 0.048676
vt 0.000000 0.048676
vt 0.000000 0.000000
f 307/507/307 308/508/308 309/509/309 310/510/310
vt 0.436908 0.415067
vt 0.334895 0.000000
vt 0.439286 0.000000
vt 0.439286 0.431876
f 315/511/315 313/512/313 314/513/314 316/514/316
vt 0.355972 0.442298
vt 0.334895 0.440113
vt 0.334895 0.000000
vt 0.436908 0.415067
f 311/515/311 312/516/312 313/517/313 315/518/315
vt 0.170157 0.397656
vt 0.120164 0.397656
vt 0.124402 0.315748
vt 0.152004 0.276507
f 320/519/320 321/520/321 322/521/322 323/522/323
vt 0.742252 0.000000
vt 0.830268 0.000000
vt 0.859606 0.122537
vt 0.712914 0.319663
f 327/523/327 325/524/325 326/525/326 329/526/329
vt 0.522214 0.000000
vt 0.595560 0.000000
vt 0.639568 0.319663
vt 0.440751 0.453662
f 335/527/335 334/528/334 332/529/332 336/530/336
vt 0.712914 0.319663
vt 0.918283 0.367612
vt 0.947621 0.490150
vt 0.511439 0.490150
f 329/531/329 330/532/330 331/533/331 333/534/333
vt 0.639568 0.319663
vt 0.712914 0.319663
vt 0.511439 0.490150
vt 0.440751 0.453662
f 332/535/332 329/536/329 333/537/333 336/538/336
vt 0.650253 0.947912
vt 0.766347 0.919969
vt 0.695682 0.752312
vt 0.550874 0.971832
f 342/539/342 341/540/341 340/541/340 343/542/343
vt 0.882441 0.892026
vt 0.998535 0.864083
vt 0.998535 0.780254
vt 0.695682 0.752312
f 339/543/339 337/544/337 338/545/338 340/546/340
vt 0.695682 0.682454
vt 0.998535 0.640540
vt 0.998535 0.570683
vt 0.560531 0.491615
f 344/547/344 346/548/346 347/549/347 348/550/348
vt 0.550874 0.690734
vt 0.695682 0.752312
vt 0.695682 0.682454
vt 0.560531 0.491615
f 345/551/345 340/552/340 344/553/344 348/554/348
vt 0.135172 0.242524
vt 0.135172 0.000000
vt 0.196041 0.000000
vt 0.196041 0.242524
f 351/555/351 349/556/349 350/557/350 352/558/352
vt 0.062334 0.000000
vt 0.102471 0.000000
vt 0.102471 0.264928
vt 0.062334 0.264928
f 353/559/353 354/560/354 355/561/355 356/562/356
vt 0.103936 0.000000
vt 0.135172 0.000000
vt 0.135172 0.389588
vt 0.103936 0.389588
f 357/563/357 358/564/358 359/565/359 360/566/360
vt 0.197506 0.000000
vt 0.245936 0.000000
vt 0.245936 0.338424
vt 0.197506 0.338424
f 361/567/361 362/568/362 363/569/363 364/570/364
vt 0.000000 0.000000
vt 0.060869 0.000000
vt 0.060869 0.134809
vt 0.000000 0.134809
f 365/571/365 366/572/366 367/573/367 368/574/368
vt 0.308270 0.989124
vt 0.247401 0.989124
vt 0.247401 0.000000
vt 0.308270 0.000000
f 369/575/369 370/576/370 371/577/371 372/578/372
vt 0.995096 0.276517
vt 0.995096 0.660569
vt 0.654868 0.000000
vt 0.790959 0.000000
f 376/579/376 375/580/375 377/581/377 378/582/378
vt 0.995096 0.660569
vt 0.881686 0.906363
vt 0.654868 0.998535
vt 0.654868 0.000000
f 375/583/375 373/584/373 374/585/374 377/586/377
vt 0.309735 0.000000
vt 0.649963 0.660569
vt 0.649963 0.276517
vt 0.445826 0.000000
f 383/587/383 380/588/380 382/589/382 384/590/384
vt 0.309735 0.998535
vt 0.536554 0.906363
vt 0.649963 0.660569
vt 0.309735 0.000000
f 381/591/381 379/592/379 380/593/380 383/594/383
vt 0.055708 0.000000
vt 0.077603 0.000000
vt 0.077603 0.857359
vt 0.055708 0.857359
f 385/595/385 386/596/386 387/597/387 388/598/388
vt 0.000000 0.000000
vt 0.001924 0.000000
vt 0.001924 0.213025
vt 0.000000 0.213025
f 389/599/389 390/600/390 391/601/391 392/602/392
vt 0.006920 0.000000
vt 0.011916 0.000000
vt 0.011916 0.260284
vt 0.006920 0.260284
f 393/603/393 394/604/394 395/605/395 396/606/396
vt 0.001924 0.000000
vt 0.006920 0.000000
vt 0.006920 0.208009
vt 0.001924 0.208009
f 397/607/397 398/608/398 399/609/399 400/610/400
vt 0.033812 0.714126
vt 0.033812 0.000000
vt 0.055708 0.000000
vt 0.055708 0.714126
f 403/611/403 401/612/401 402/613/402 404/614/404
vt 0.033812 0.000000
vt 0.033812 0.251800
vt 0.011916 0.251800
vt 0.011916 0.000000
f 407/615/407 405/616/405 406/617/406 408/618/408
vt 0.155997 0.839428
vt 0.971295 0.998535
vt 0.281428 0.701536
vt 0.077603 0.648500
f 411/619/411 409/620/409 410/621/410 412/622/412
vt 0.767471 0.201535
vt 0.077603 0.498535
vt 0.892901 0.339428
vt 0.971295 0.148500
f 416/623/416 417/624/417 415/625/415 418/626/418
vt 0.077603 0.857359
vt 0.077603 0.000000
vt 0.055708 0.000000
vt 0.055708 0.857359
f 422/627/422 423/628/423 421/629/421 424/630/424
vt 0.001924 0.213025
vt 0.001924 0.000000
vt 0.000000 0.000000
vt 0.000000 0.213025
f 426/631/426 427/632/427 425/633/425 428/634/428
vt 0.011916 0.260284
vt 0.011916 0.000000
vt 0.006920 0.000000
vt 0.006920 0.260284
f 430/635/430 431/636/431 429/637/429 432/638/432
vt 0.006920 0.208009
vt 0.006920 0.000000
vt 0.001924 0.000000
vt 0.001924 0.208009
f 434/639/434 435/640/435 433/641/433 436/642/436
vt 0.055708 0.000000
vt 0.033812 0.000000
vt 0.033812 0.714126
vt 0.055708 0.714126
f 439/643/439 437/644/437 438/645/438 440/646/440
vt 0.011916 0.251800
vt 0.033812 0.251800
vt 0.033812 0.000000
vt 0.011916 0.000000
f 443/647/443 441/648/441 442/649/442 444/650/444
vt 0.281428 0.701536
vt 0.971295 0.998535
vt 0.155997 0.839428
vt 0.077603 0.648500
f 447/651/447 445/652/445 446/653/446 448/654/448
vt 0.892901 0.339428
vt 0.077603 0.498535
vt 0.767471 0.201535
vt 0.971295 0.148500
f 451/655/451 452/656/452 453/657/453 454/658/454
vt 0.196041 0.000000
vt 0.135172 0.000000
vt 0.135172 0.242524
vt 0.196041 0.242524
f 459/659/459 457/660/457 458/661/458 460/662/460
vt 0.102471 0.264928
vt 0.102471 0.000000
vt 0.062334 0.000000
vt 0.062334 0.264928
f 462/663/462 463/664/463 461/665/461 464/666/464
vt 0.135172 0.389588
vt 0.135172 0.000000
vt 0.103936 0.000000
vt 0.103936 0.389588
f 466/667/466 467/668/467 465/669/465 468/670/468
vt 0.245936 0.338424
vt 0.245936 0.000000
vt 0.197506 0.000000
vt 0.197506 0.338424
f 470/671/470 471/672/471 469/673/469 472/674/472
vt 0.060869 0.134809
vt 0.060869 0.000000
vt 0.000000 0.000000
vt 0.000000 0.134809
f 474/675/474 475/676/475 473/677/473 476/678/476
vt 0.247401 0.000000
vt 0.247401 0.989124
vt 0.308270 0.989124
vt 0.308270 0.000000
f 478/679/478 479/680/479 477/681/477 480/682/480
vt 0.654868 0.000000
vt 0.995096 0.660569
vt 0.995096 0.276517
vt 0.790959 0.000000
f 485/683/485 482/684/482 484/685/484 486/686/486
vt 0.654868 0.998535
vt 0.881686 0.906363
vt 0.995096 0.660569
vt 0.654868 0.000000
f 483/687/483 481/688/481 482/689/482 485/690/485
vt 0.649963 0.276517
vt 0.649963 0.660569
vt 0.309735 0.000000
vt 0.445826 0.000000
f 490/691/490 489/692/489 491/693/491 492/694/492
vt 0.649963 0.660569
vt 0.536554 0.906363
vt 0.309735 0.998535
vt 0.309735 0.000000
f 489/695/489 487/696/487 488/697/488 491/698/491
vt 0.576643 0.745052
vt 0.576643 0.308737
vt 0.474125 0.317641
vt 0.474125 0.745052
f 494/699/494 495/700/495 493/701/493 496/702/496
vt 0.593076 0.082764
vt 0.593076 0.042114
vt 0.474125 0.042114
vt 0.474125 0.082764
f 499/703/499 497/704/497 498/705/498 500/706/500
vt 0.474125 0.307272
vt 0.923879 0.307272
vt 0.923879 0.186926
vt 0.474125 0.186926
f 502/707/502 503/708/503 501/709/501 504/710/504
vt 0.594199 0.185461
vt 0.594199 0.084228
vt 0.474125 0.084228
vt 0.474125 0.185461
f 506/711/506 507/712/507 505/713/505 508/714/508
vt 0.000000 0.125837
vt 0.472660 0.125837
vt 0.472660 0.000000
vt 0.000000 0.000000
f 510/715/510 511/716/511 509/717/509 512/718/512
vt 0.474125 0.040649
vt 0.573251 0.040649
vt 0.573251 0.000000
vt 0.474125 0.000000
f 514/719/514 515/720/515 513/721/513 516/722/516
vt 0.009646 0.132666
vt 0.000000 0.245033
vt 0.472660 0.245033
vt 0.472660 0.132666
f 519/723/519 517/724/517 518/725/518 520/726/520
vt 0.258309 0.604792
vt 0.472660 0.730698
vt 0.369789 0.301348
vt 0.286179 0.301348
f 522/727/522 523/728/523 521/729/521 524/730/524
vt 0.188634 0.604792
vt 0.146829 0.301348
vt 0.077154 0.301348
vt 0.000000 0.730698
f 525/731/525 527/732/527 528/733/528 526/734/526
vt 0.258309 0.604792
vt 0.188634 0.604792
vt 0.000000 0.730698
vt 0.472660 0.730698
f 522/735/522 525/736/525 526/737/526 523/738/523
vt 0.998535 0.671850
vt 0.578108 0.771226
vt 0.695208 0.561915
vt 0.998535 0.589399
f 529/739/529 530/740/530 531/741/531 532/742/532
vt 0.998535 0.383269
vt 0.998535 0.451979
vt 0.695208 0.493205
vt 0.578108 0.308737
f 536/743/536 535/744/535 533/745/533 534/746/534
vt 0.578108 0.308737
vt 0.695208 0.493205
vt 0.695208 0.561915
vt 0.578108 0.771226
f 534/747/534 533/748/533 531/749/531 530/750/530
vt 0.474125 0.317641
vt 0.576643 0.308737
vt 0.576643 0.745052
vt 0.474125 0.745052
f 537/751/537 538/752/538 539/753/539 540/754/540
vt 0.474125 0.042114
vt 0.593076 0.042114
vt 0.593076 0.082764
vt 0.474125 0.082764
f 543/755/543 541/756/541 542/757/542 544/758/544
vt 0.923879 0.186926
vt 0.923879 0.307272
vt 0.474125 0.307272
vt 0.474125 0.186926
f 545/759/545 546/760/546 547/761/547 548/762/548
vt 0.474125 0.084228
vt 0.594199 0.084228
vt 0.594199 0.185461
vt 0.474125 0.185461
f 549/763/549 550/764/550 551/765/551 552/766/552
vt 0.472660 0.000000
vt 0.472660 0.125837
vt 0.000000 0.125837
vt 0.000000 0.000000
f 553/767/553 554/768/554 555/769/555 556/770/556
vt 0.573251 0.000000
vt 0.573251 0.040649
vt 0.474125 0.040649
vt 0.474125 0.000000
f 557/771/557 558/772/558 559/773/559 560/774/560
vt 0.472660 0.245033
vt 0.000000 0.245033
vt 0.009646 0.132666
vt 0.472660 0.132666
f 563/775/563 561/776/561 562/777/562 564/778/564
vt 0.369789 0.301348
vt 0.472660 0.730698
vt 0.258309 0.604792
vt 0.286179 0.301348
f 565/779/565 566/780/566 567/781/567 568/782/568
vt 0.077154 0.301348
vt 0.146829 0.301348
vt 0.188634 0.604792
vt 0.000000 0.730698
f 572/783/572 571/784/571 569/785/569 570/786/570
vt 0.000000 0.730698
vt 0.188634 0.604792
vt 0.258309 0.604792
vt 0.472660 0.730698
f 570/787/570 569/788/569 567/789/567 566/790/566
vt 0.695208 0.561915
vt 0.578108 0.771226
vt 0.998535 0.671850
vt 0.998535 0.589399
f 574/791/574 575/792/575 573/793/573 576/794/576
vt 0.695208 0.493205
vt 0.998535 0.451979
vt 0.998535 0.383269
vt 0.578108 0.308737
f 577/795/577 579/796/579 580/797/580 578/798/578
vt 0.695208 0.561915
vt 0.695208 0.493205
vt 0.578108 0.308737
vt 0.578108 0.771226
f 574/799/574 577/800/577 578/801/578 575/802/575
