mtllib sartre.mtl
usemtl tex0_0
v 1.613350 0.548395 1.926280
vn -0.734410 -0.618674 -0.279078
v 1.787840 1.120190 -5.330400
vn -0.482228 -0.377932 0.790331
v 1.609950 0.320593 2.021460
vn -0.719228 0.678493 -0.149531
v 1.865550 0.206761 -5.147640
vn -0.377505 0.349280 0.857609
v -1.613350 0.548395 1.926280
vn 0.807227 -0.534370 -0.250665
v -1.787840 1.120190 -5.330400
vn 0.386443 -0.594828 0.704870
v -1.609950 0.320593 2.021460
vn 0.866397 0.429422 -0.254856
v -1.865550 0.206761 -5.147640
vn 0.270817 0.610224 0.744503
v 0.565732 1.973070 1.838630
vn -0.370538 -0.922105 -0.111467
v 0.573561 2.049930 -5.102720
vn -0.011666 -0.906032 0.423047
v 0.532185 -0.541031 2.190770
vn -0.328755 0.944281 -0.015947
v 0.544417 -0.480083 -5.386540
vn -0.261725 0.847242 0.462256
v 0.438073 0.057472 8.424750
vn -0.923719 -0.304847 -0.231972
v 0.437857 -0.017163 8.352410
vn -0.912293 0.337782 -0.231571
v -0.565732 1.973070 1.838630
vn 0.396956 -0.911102 -0.110994
v -0.573561 2.049930 -5.102720
vn -0.018819 -0.668994 0.743030
v -0.532185 -0.541031 2.190770
vn 0.326602 0.945029 -0.015840
v -0.544417 -0.480083 -5.386540
vn 0.297947 0.818480 0.491241
v -0.438073 0.057472 8.424750
vn 0.923462 -0.305973 -0.231513
v -0.437857 -0.017163 8.352410
vn 0.957508 0.070963 -0.279540
v 4.978400 0.701965 -4.553730
vn -0.363966 -0.841236 0.399813
v 4.987250 0.636965 -1.254390
vn -0.769073 -0.465472 -0.438021
v 4.987250 0.490943 -1.348390
vn -0.392055 0.896438 -0.206619
v 4.978400 0.490943 -4.553730
vn -0.256703 0.931375 0.258155
v -4.987250 0.636965 -1.254390
vn 0.607621 -0.700581 -0.374143
v -4.978400 0.701965 -4.553730
vn 0.366264 -0.860547 0.353990
v -4.978400 0.490943 -4.553730
vn 0.238582 0.932111 0.272486
v -4.987250 0.490943 -1.348390
vn 0.460213 0.856957 -0.232010
v 1.449940 1.743570 -3.002120
vn -0.992649 0.061175 -0.104431
v 1.449940 1.743570 -5.082380
vn -0.774768 0.532541 0.340786
v 1.173570 2.019940 -5.204960
vn 0.349025 -0.930464 0.111435
v 1.173570 2.019940 -3.002120
vn -0.143448 -0.971887 -0.186706
v -1.449940 1.743570 -5.082380
vn 0.851242 0.485117 0.200119
v -1.449940 1.743570 -3.002120
vn 0.972930 -0.133857 -0.188387
v -1.173570 2.019940 -3.002120
vn 0.003719 -0.991201 -0.132312
v -1.173570 2.019940 -5.204960
vn -0.657678 -0.586209 0.473095
v 2.368440 2.837450 -4.541180
vn -0.837588 0.513835 -0.185523
v 2.368440 2.837450 -5.325270
vn -0.750258 0.634223 0.186746
v 2.267450 2.938440 -5.486220
vn 0.423584 -0.694046 0.582131
v 2.267450 2.938440 -4.512250
vn 0.447991 -0.863336 -0.232284
v -2.368440 2.837450 -5.325270
vn 0.749130 0.634429 0.190537
v -2.368440 2.837450 -4.541180
vn 0.836993 0.516110 -0.181859
v -2.267450 2.938440 -4.512250
vn -0.470967 -0.854288 -0.219959
v -2.267450 2.938440 -5.486220
vn -0.022195 -0.456353 0.889522
v 2.179470 1.124000 -2.236750
vn -0.364723 -0.931043 -0.011685
v 1.638710 0.460194 1.899500
vn -0.891986 -0.023230 -0.451466
v 1.053430 1.548330 1.826860
vn -0.738160 -0.659532 -0.141908
v 0.998391 0.311553 5.962080
vn -0.899284 -0.381196 -0.214424
v 1.870700 0.556043 -5.302910
vn -0.186674 0.196633 0.962543
v 1.065670 1.635670 -5.532190
vn -0.004560 -0.513345 0.858170
v 1.121080 1.101530 -5.501230
vn -0.341108 0.009606 0.939975
v 2.092500 0.103530 -1.920000
vn -0.294785 0.955515 -0.009608
v 1.053430 -0.268159 1.938080
vn -0.563029 0.826278 -0.016200
v 0.998391 0.216614 5.962080
vn -0.954647 0.271727 -0.121709
v 1.065670 -0.223833 -5.373920
vn -0.459770 0.801469 0.382437
v 1.121080 0.193261 -5.479120
vn -0.293984 0.096108 0.950966
v -2.179470 1.124000 -2.236750
vn 0.375828 -0.926460 -0.020619
v -1.638710 0.460194 1.899500
vn 0.860350 -0.274291 -0.429607
v -1.053430 1.548330 1.826860
vn 0.743071 -0.657178 -0.126340
v -0.998391 0.311553 5.962080
vn 0.866410 -0.451540 -0.213177
v -1.870700 0.556043 -5.302910
vn 0.203207 0.098451 0.974174
v -1.065670 1.635670 -5.532190
vn -0.133326 -0.564198 0.814803
v -1.121080 1.101530 -5.501230
vn 0.073391 0.049980 0.996050
v -2.092500 0.103530 -1.920000
vn 0.304123 0.952450 -0.018649
v -1.053430 -0.268159 1.938080
vn 0.560049 0.828302 -0.016150
v -0.998391 0.216614 5.962080
vn 0.981487 0.061152 -0.181505
v -1.065670 -0.223833 -5.373920
vn 0.451344 0.762540 0.463489
v -1.121080 0.193261 -5.479120
vn 0.208432 0.063547 0.975970
v 0.469030 2.185970 -2.027750
vn -0.275607 -0.961270 0.000010
v 0.460739 0.909292 5.962080
vn -0.359343 -0.882577 -0.303201
v 0.000000 1.967990 1.881000
vn -0.030794 -0.990563 -0.133557
v 0.536169 1.686180 -5.513590
vn 0.115422 -0.272454 0.955221
v 0.000000 2.099000 -5.088750
vn -0.005623 -0.930472 0.366319
v 0.556000 -0.565500 -1.711000
vn -0.334279 0.942455 0.005948
v 0.403476 -0.430142 6.320060
vn -0.410937 0.908241 -0.078921
v 0.000000 -0.631989 2.275000
vn 0.001936 0.999723 -0.023454
v 0.536169 -0.276247 -5.469200
vn -0.050757 0.240522 0.969316
v 0.000000 -0.565500 -5.390750
vn -0.010938 0.792732 0.609473
v 0.000000 -0.020248 8.987300
vn -0.001241 -0.888608 -0.458665
v 0.000000 -0.022501 8.990590
vn 0.000000 0.184052 -0.982916
v -0.469030 2.185970 -2.027750
vn 0.291003 -0.956720 0.001955
v -0.460739 0.909292 5.962080
vn 0.359343 -0.882577 -0.303201
v -0.536169 1.686180 -5.513590
vn -0.000401 -0.112266 0.993678
v -0.556000 -0.565500 -1.711000
vn 0.332113 0.943197 0.008946
v -0.403476 -0.430142 6.320060
vn 0.378553 0.922392 -0.076745
v -0.536169 -0.276247 -5.469200
vn 0.074796 0.212280 0.974342
v 5.310930 0.706619 -3.058290
vn -0.354557 -0.934865 -0.017785
v 3.922630 0.801923 -4.869420
vn -0.197416 -0.901210 0.385807
v 4.991150 0.558564 -1.206880
vn -0.867588 -0.007363 -0.497229
v 3.889320 0.659423 0.055987
vn -0.855055 -0.292441 -0.428205
v 5.310930 0.485923 -3.058290
vn -0.265856 0.964011 0.001559
v 3.889320 0.401088 -0.138012
vn -0.293431 0.919867 -0.260275
v 5.063130 0.569032 -4.712270
vn -0.743182 0.056689 0.666683
v 3.922630 0.401088 -4.869420
vn -0.129175 0.909798 0.394439
v -5.310930 0.706619 -3.058290
vn 0.407002 -0.913253 -0.017822
v -3.889320 0.659423 0.055987
vn 0.801036 -0.256431 -0.540911
v -5.063130 0.569032 -4.712270
vn 0.741604 0.082646 0.665728
v -3.922630 0.801923 -4.869420
vn 0.176254 -0.927500 0.329663
v -5.310930 0.485923 -3.058290
vn 0.250836 0.968028 0.001569
v -3.922630 0.401088 -4.869420
vn 0.126702 0.949975 0.285471
v -4.991150 0.558564 -1.206880
vn 0.866013 0.018659 -0.499674
v -3.889320 0.401088 -0.138012
vn 0.476589 0.747423 -0.462840
v 1.496000 1.697510 -4.042250
vn -0.933665 0.357567 0.020392
v 1.372910 1.421090 -1.083420
vn -0.828551 -0.551533 -0.096512
v 1.311760 1.881760 -5.217090
vn -0.406110 0.085460 0.909819
v 1.372910 1.421090 -4.872580
vn -0.912592 0.211299 0.350041
v 1.127510 2.066000 -3.934490
vn 0.291118 -0.956580 -0.014314
v 0.851089 1.942910 -5.066580
vn -0.094019 -0.994436 -0.047508
v 1.311760 1.881760 -2.655410
vn -0.759037 -0.563281 -0.326462
v 0.851089 1.942910 -0.947420
vn -0.458514 -0.884278 -0.088419
v -1.496000 1.697510 -4.042250
vn 0.955743 0.293908 -0.013148
v -1.372910 1.421090 -4.872580
vn 0.981317 -0.043294 0.187463
v -1.311760 1.881760 -2.655410
vn 0.585656 -0.741394 -0.327631
v -1.372910 1.421090 -1.083420
vn 0.793325 -0.600555 -0.099843
v -1.127510 2.066000 -3.934490
vn -0.375321 -0.926863 0.007648
v -0.851089 1.942910 -0.947420
vn 0.435175 -0.896886 -0.078860
v -1.311760 1.881760 -5.217090
vn -0.168758 -0.312270 0.934884
v -0.851089 1.942910 -5.066580
vn -0.169232 -0.934442 0.313335
v 2.485720 2.934260 -4.994310
vn -0.805034 0.593229 0.000241
v 1.986360 2.405700 -4.116070
vn -0.841981 0.518618 -0.148675
v 2.424990 2.994990 -5.465880
vn -0.245986 -0.246687 0.937356
v 1.986360 2.405700 -5.285930
vn -0.695038 0.672421 0.254503
v 2.364260 3.055720 -5.036980
vn 0.591513 -0.806289 0.003363
v 1.835700 2.556360 -5.440670
vn 0.491527 -0.390500 0.778403
v 2.424990 2.994990 -4.522740
vn -0.540046 -0.539229 -0.646207
v 1.835700 2.556360 -4.019970
vn 0.435245 -0.871611 -0.225512
v -2.485720 2.934260 -4.994310
vn 0.805059 0.593195 0.000134
v -1.986360 2.405700 -5.285930
vn 0.722937 0.665504 0.185651
v -2.424990 2.994990 -4.522740
vn 0.539228 -0.540046 -0.646207
v -1.986360 2.405700 -4.116070
vn 0.863769 0.459197 -0.207463
v -2.364260 3.055720 -5.036980
vn -0.590876 -0.806762 0.000134
v -1.835700 2.556360 -4.019970
vn -0.449667 -0.868512 -0.208536
v -2.424990 2.994990 -5.465880
vn 0.246688 -0.245986 0.937356
v -1.835700 2.556360 -5.440670
vn -0.569821 -0.536251 0.622686
v 5.425900 0.567782 -3.122720
vn -0.994074 0.107195 0.018080
v -5.425900 0.567782 -3.122720
vn 0.999768 -0.011520 0.018199
v 2.612960 3.182960 -5.101580
vn -0.708291 -0.705814 0.012294
v 1.112000 -0.258000 -1.711000
vn -0.445463 0.895299 -0.001426
v 0.895293 0.917303 4.783330
vn -0.754679 -0.632617 -0.173940
v 0.974853 1.538900 -5.510470
vn 0.086604 -0.111709 0.989960
v 0.877739 -0.298636 4.951330
vn -0.701004 0.712316 -0.034622
v 0.974853 -0.169587 -5.471450
vn -0.181256 0.244306 0.952607
v 1.045820 0.554579 -5.489670
vn -0.223702 0.102420 0.969261
v -2.612960 3.182960 -5.101580
vn 0.706013 -0.708170 0.006373
v 0.000000 1.015950 5.905000
vn 0.000000 -0.962453 -0.271449
v 0.000000 2.238000 -2.015000
vn -0.024565 -0.999634 -0.011326
v 0.000000 -0.668000 -1.711000
vn 0.002907 0.999961 0.008390
v -1.112000 -0.258000 -1.711000
vn 0.442772 0.896634 -0.000283
v 0.000000 -0.311800 -5.468450
vn -0.007104 0.130930 0.991366
v -0.895293 0.917303 4.783330
vn 0.748212 -0.639123 -0.178046
v -0.974853 1.538900 -5.510470
vn -0.041829 0.062181 0.997188
v 0.000000 1.735280 -5.514620
vn -0.004747 -0.320702 0.947168
v -1.045820 0.554579 -5.489670
vn 0.186773 0.089087 0.978355
v -0.877739 -0.298636 4.951330
vn 0.712662 0.700923 -0.028621
v 0.000000 -0.509872 6.214770
vn -0.015794 0.992536 -0.120923
v -0.974853 -0.169587 -5.471450
vn 0.159549 0.191248 0.968488
v 3.922000 0.864888 -2.547000
vn -0.119741 -0.992098 -0.037471
v 3.725910 0.545282 0.142069
vn -0.729876 0.124613 -0.672125
v 3.922000 0.327362 -2.547000
vn -0.098507 0.995136 -0.000014
v 3.925770 0.569032 -5.106690
vn -0.208226 0.240527 0.948044
v -3.922000 0.864888 -2.547000
vn 0.121126 -0.991987 -0.035908
v -3.925770 0.569032 -5.106690
vn 0.241915 0.069121 0.967832
v -3.922000 0.327362 -2.547000
vn 0.110813 0.993778 -0.011261
v -3.725910 0.545282 0.142069
vn 0.744764 0.152733 -0.649615
v 1.459880 1.334120 -2.978000
vn -0.937203 -0.348276 0.018804
v 1.112000 1.682000 -5.504110
vn -0.590647 -0.126966 0.796879
v 0.764119 2.029880 -2.978000
vn -0.092194 -0.995741 -0.000610
v 1.112000 1.682000 -1.045890
vn -0.735168 -0.662895 -0.141765
v -1.459880 1.334120 -2.978000
vn 0.922651 -0.385624 0.002961
v -1.112000 1.682000 -1.045890
vn 0.684777 -0.717436 -0.127926
v -0.764119 2.029880 -2.978000
vn 0.130340 -0.991448 0.006509
v -1.112000 1.682000 -5.504110
vn 0.518694 -0.527171 0.673088
v 2.013760 2.378300 -4.701000
vn -0.770167 0.637789 0.008202
v 1.911030 2.481030 -5.498630
vn -0.117446 0.327243 0.937613
v 1.808300 2.583760 -4.623320
vn 0.627886 -0.778262 -0.008144
v 1.911030 2.481030 -3.797370
vn -0.597845 -0.481027 -0.641244
v -2.013760 2.378300 -4.701000
vn 0.778023 0.628185 -0.007940
v -1.911030 2.481030 -3.797370
vn 0.481027 -0.597845 -0.641244
v -1.808300 2.583760 -4.697320
vn -0.637797 -0.770172 0.007088
v -1.911030 2.481030 -5.498630
vn -0.327242 -0.117446 0.937613
v 0.530735 1.700480 3.213110
vn -0.135428 -0.965465 -0.222569
v 0.495737 1.309890 4.587600
vn -0.346822 -0.907517 -0.236911
v -0.530735 1.700480 3.213110
vn 0.206758 -0.953335 -0.220007
v -0.495737 1.309890 4.587600
vn 0.372453 -0.897835 -0.234884
v 0.000000 1.697980 3.222330
vn 0.053394 -0.978936 -0.197059
v 0.000000 1.427970 4.563670
vn 0.035313 -0.964812 -0.260557
v 0.521295 2.117950 -3.565230
vn -0.195634 -0.979882 0.039478
v -0.521295 2.117950 -3.565230
vn 0.201653 -0.978700 0.038507
v 0.000000 2.168500 -3.503870
vn 0.004577 -0.998997 0.044534
v 0.496462 -0.504328 4.076430
vn -0.227645 0.973068 -0.036294
v -0.496462 -0.504328 4.076430
vn 0.227645 0.973068 -0.036294
v 0.000000 -0.577972 4.037000
vn -0.000000 0.999604 -0.028134
v 0.678016 1.036300 5.237710
vn -0.585566 -0.778970 -0.224318
v -0.678016 1.036300 5.237710
vn 0.585566 -0.778970 -0.224318
v -5.211080 0.713297 -3.995150
vn 0.354902 -0.932036 0.073171
v -5.066250 0.523113 -4.662000
vn 0.474413 0.738513 0.479095
v -5.217170 0.489713 -2.057990
vn 0.335771 0.938146 -0.084500
v -4.984440 0.599055 -1.231900
vn 0.790466 -0.394904 -0.468204
v -5.217170 0.671422 -2.057990
vn 0.394802 -0.911577 -0.114708
v -4.563620 0.645816 -0.731070
vn 0.535026 -0.699328 -0.474013
v -5.066250 0.640930 -4.662000
vn 0.581754 -0.586505 0.563537
v -4.574180 0.747066 -4.761140
vn 0.239779 -0.886396 0.395991
v -5.211080 0.489713 -3.995150
vn 0.234193 0.969965 0.065738
v -4.574180 0.455945 -4.761140
vn 0.169993 0.927017 0.334278
v -4.984440 0.523113 -1.231900
vn 0.709637 0.584705 -0.393108
v -4.563620 0.455945 -0.825070
vn 0.368254 0.888391 -0.274135
v -5.295130 0.569032 -4.068930
vn 0.971046 0.032515 0.236670
v -5.414890 0.630690 -3.126260
vn 0.850545 -0.525853 0.007278
v -5.330970 0.564032 -2.141240
vn 0.975356 0.026759 -0.219007
v -5.414890 0.528353 -3.126260
vn 0.763793 0.645364 0.011168
v -3.922000 0.867396 -3.850160
vn 0.114903 -0.992896 0.030884
v -3.922000 0.772396 -1.243840
vn 0.126140 -0.988780 -0.080015
v -4.712470 0.785113 -2.840180
vn 0.123365 -0.991915 -0.029764
v -3.924510 0.473566 -5.022900
vn 0.162509 0.768785 0.618515
v -3.924510 0.690477 -5.022900
vn 0.212852 -0.571863 0.792254
v -4.540170 0.569032 -4.903110
vn 0.331201 0.078550 0.940285
v -3.922000 0.348604 -1.243840
vn 0.110070 0.992962 -0.043706
v -3.922000 0.348604 -3.850160
vn 0.102619 0.994258 0.030322
v -4.712470 0.414012 -2.840180
vn 0.113581 0.993529 0.000039
v -3.791270 0.595477 0.049153
vn 0.757526 0.098031 -0.645402
v -3.791270 0.473566 0.049153
vn 0.662446 0.223051 -0.715131
v -4.476820 0.552157 -0.598028
vn 0.737928 -0.033081 -0.674068
v -5.291920 0.634933 -4.047080
vn 0.825096 -0.533265 0.186666
v -5.315810 0.614933 -2.154850
vn 0.803201 -0.566731 -0.183530
v -5.315810 0.529110 -2.154850
vn 0.748340 0.639861 -0.174830
v -5.291920 0.529110 -4.047080
vn 0.732928 0.654443 0.185798
v -4.657680 0.723109 -1.712960
vn 0.126641 -0.989099 -0.075139
v -4.657680 0.790609 -3.926760
vn 0.117427 -0.992562 0.032119
v -4.542820 0.661948 -4.833750
vn 0.301266 -0.612989 0.730400
v -4.542820 0.502095 -4.833750
vn 0.233066 0.736590 0.634914
v -4.657680 0.425391 -3.926760
vn 0.106362 0.993794 0.032567
v -4.657680 0.425391 -1.712960
vn 0.128940 0.991127 -0.032287
v -4.500580 0.502095 -0.652491
vn 0.636488 0.530767 -0.559615
v -4.500580 0.594448 -0.652491
vn 0.707837 -0.276139 -0.650165
v 5.217170 0.671422 -2.057990
vn -0.508021 -0.845511 -0.164395
v 4.984440 0.523113 -1.231900
vn -0.689216 0.612054 -0.387778
v 5.211080 0.489713 -3.995150
vn -0.223639 0.973445 0.048889
v 5.066250 0.640930 -4.662000
vn -0.565470 -0.576441 0.589881
v 5.211080 0.713297 -3.995150
vn -0.367512 -0.924351 0.102516
v 4.574180 0.747066 -4.761140
vn -0.216266 -0.858067 0.465779
v 4.984440 0.599055 -1.231900
vn -0.847117 -0.219858 -0.483792
v 4.563620 0.645816 -0.731070
vn -0.648597 -0.527203 -0.548980
v 5.217170 0.489713 -2.057990
vn -0.296760 0.952477 -0.068715
v 4.563620 0.455945 -0.825070
vn -0.304043 0.926453 -0.221908
v 5.066250 0.523113 -4.662000
vn -0.497095 0.727768 0.472493
v 4.574180 0.455945 -4.761140
vn -0.196049 0.935902 0.292664
v 5.330970 0.564032 -2.141240
vn -0.972174 0.076209 -0.221519
v 5.414890 0.630690 -3.126260
vn -0.847654 -0.530512 0.006355
v 5.295130 0.569032 -4.068930
vn -0.969496 0.056631 0.238474
v 5.414890 0.528353 -3.126260
vn -0.729076 0.684336 0.011499
v 3.922000 0.772396 -1.243840
vn -0.098657 -0.991798 -0.081261
v 3.922000 0.867396 -3.850160
vn -0.114413 -0.993234 0.019896
v 4.712470 0.785113 -2.840180
vn -0.118063 -0.992564 -0.029621
v 3.791270 0.473566 0.049153
vn -0.561296 0.588673 -0.581731
v 3.791270 0.595477 0.049153
vn -0.769179 0.212100 -0.602808
v 4.476820 0.552157 -0.598028
vn -0.738751 -0.037075 -0.672958
v 3.922000 0.348604 -3.850160
vn -0.097082 0.994752 0.032317
v 3.922000 0.348604 -1.243840
vn -0.108551 0.993534 -0.033264
v 4.712470 0.414012 -2.840180
vn -0.113590 0.993528 0.000013
v 3.924510 0.690477 -5.022900
vn -0.225144 -0.403962 0.886637
v 3.924510 0.473566 -5.022900
vn -0.149443 0.685492 0.712578
v 4.540170 0.569032 -4.903110
vn -0.328829 0.079823 0.941010
v 5.315810 0.614933 -2.154850
vn -0.890715 -0.395291 -0.224435
v 5.291920 0.634933 -4.047080
vn -0.829777 -0.513696 0.218144
v 5.291920 0.529110 -4.047080
vn -0.718086 0.675765 0.166413
v 5.315810 0.529110 -2.154850
vn -0.710391 0.685031 -0.161488
v 4.657680 0.790609 -3.926760
vn -0.119978 -0.992230 0.032941
v 4.657680 0.723109 -1.712960
vn -0.126106 -0.989145 -0.075434
v 4.500580 0.594448 -0.652491
vn -0.741088 -0.025613 -0.670919
v 4.500580 0.502095 -0.652491
vn -0.598991 0.604304 -0.525382
v 4.657680 0.425391 -1.712960
vn -0.129207 0.991071 -0.032934
v 4.657680 0.425391 -3.926760
vn -0.106052 0.993867 0.031333
v 4.542820 0.502095 -4.833750
vn -0.257425 0.754764 0.603377
v 4.542820 0.661948 -4.833750
vn -0.270904 -0.567876 0.777256
v 1.979920 0.937197 -0.202237
vn -0.217294 -0.970486 -0.104598
v 1.983660 1.122090 -3.783570
vn -0.311370 -0.949587 0.036515
v 1.623200 0.390393 1.939480
vn -0.766493 0.473936 -0.433443
v 1.979020 0.155145 -3.533820
vn -0.214483 0.975844 0.041544
v 1.973640 0.212061 0.050732
vn -0.182350 0.982117 -0.046849
v 1.829270 0.838114 -5.316650
vn -0.164970 0.023811 0.986011
v 1.868120 0.381402 -5.225270
vn -0.130217 0.493529 0.859926
v -1.983660 1.122090 -3.783570
vn 0.311023 -0.949285 0.046065
v -1.979920 0.937197 -0.202237
vn 0.258700 -0.958583 -0.119132
v -1.868120 0.381402 -5.225270
vn 0.135127 0.681839 0.718914
v -1.829270 0.838114 -5.316650
vn 0.178000 -0.180715 0.967294
v -1.973640 0.212061 0.050732
vn 0.185233 0.980750 -0.061787
v -1.979020 0.155145 -3.533820
vn 0.225092 0.973708 0.035024
v -1.623200 0.390393 1.939480
vn 0.819644 -0.047681 -0.570885
v -2.447070 2.902160 -4.743970
vn 0.823563 0.558957 -0.096496
v -2.359980 2.989260 -4.528010
vn -0.254654 -0.888535 -0.381651
v -2.332160 3.017070 -5.280120
vn -0.461125 -0.842002 0.279994
v -2.419260 2.929980 -5.420240
vn 0.745728 0.534561 0.397662
v -2.447070 2.902160 -5.204280
vn 0.778785 0.619226 0.100263
v -2.214580 2.660230 -5.321490
vn 0.724227 0.661644 0.194222
v -2.419260 2.929980 -4.528010
vn 0.888821 0.292977 -0.352365
v -2.214580 2.660230 -4.356010
vn 0.819551 0.548336 -0.166325
v -2.332160 3.017070 -4.747080
vn -0.561816 -0.822857 -0.085262
v -2.090230 2.784580 -4.297820
vn -0.456100 -0.854374 -0.249034
v -2.359980 2.989260 -5.420240
vn -0.070539 -0.489894 0.868924
v -2.090230 2.784580 -5.481850
vn -0.425134 -0.440954 0.790456
v -2.565790 3.135790 -4.826760
vn 0.640242 -0.648567 -0.411644
v -2.597720 3.103860 -5.074670
vn 0.923649 0.383240 -0.000131
v -2.565790 3.135790 -5.322580
vn 0.576335 -0.568499 0.587066
v -2.533860 3.167720 -5.074670
vn -0.381731 -0.924265 0.003906
v -2.006910 2.385150 -4.381950
vn 0.806844 0.585482 -0.078823
v -2.006910 2.385150 -5.020050
vn 0.753900 0.654351 0.058823
v -2.274540 2.677960 -4.860920
vn 0.764675 0.644416 -0.000039
v -1.869940 2.522120 -3.850540
vn -0.204989 -0.894614 -0.397045
v -1.952120 2.439940 -3.850540
vn 0.890606 0.146618 -0.430493
v -2.191250 2.761250 -4.214190
vn 0.502551 -0.502395 -0.703592
v -1.815150 2.576910 -5.066790
vn -0.658293 -0.750389 0.059724
v -1.815150 2.576910 -4.327860
vn -0.594526 -0.801746 -0.061174
v -2.107960 2.844540 -4.882510
vn -0.644466 -0.764633 0.000110
v -1.952120 2.439940 -5.445460
vn 0.472062 0.550893 0.688240
v -1.869940 2.522120 -5.445460
vn -0.439670 -0.270683 0.856400
v -2.191250 2.761250 -5.507640
vn 0.045438 -0.043581 0.998016
v -2.551710 3.061090 -4.813960
vn 0.925025 0.326144 -0.194830
v -2.551710 3.061090 -5.284700
vn 0.861210 0.461957 0.211928
v -2.491090 3.121710 -5.284700
vn -0.251250 -0.879884 0.403334
v -2.491090 3.121710 -4.813960
vn -0.337021 -0.922668 -0.187353
v -2.250080 2.663570 -5.114510
vn 0.747509 0.660066 0.074458
v -2.250080 2.663570 -4.585160
vn 0.785299 0.614539 -0.075151
v -2.205910 2.707740 -4.242230
vn 0.870398 0.289470 -0.398265
v -2.137740 2.775910 -4.242230
vn -0.177760 -0.863921 -0.471213
v -2.093570 2.820080 -4.563180
vn -0.614686 -0.786179 -0.063901
v -2.093570 2.820080 -5.176160
vn -0.659491 -0.749699 0.054987
v -2.137740 2.775910 -5.457430
vn -0.214435 -0.212424 0.953359
v -2.205910 2.707740 -5.457430
vn 0.645184 0.586613 0.489512
v 2.447070 2.902160 -5.204280
vn -0.777548 0.621133 0.098045
v 2.359980 2.989260 -5.420240
vn 0.321360 -0.645325 0.693025
v 2.332160 3.017070 -4.747080
vn 0.549361 -0.829948 -0.096900
v 2.419260 2.929980 -4.528010
vn -0.887736 0.293480 -0.354675
v 2.447070 2.902160 -4.743970
vn -0.825598 0.555582 -0.098573
v 2.214580 2.660230 -4.356010
vn -0.828045 0.529142 -0.185339
v 2.419260 2.929980 -5.420240
vn -0.748271 0.532672 0.395413
v 2.214580 2.660230 -5.321490
vn -0.723992 0.660744 0.198122
v 2.332160 3.017070 -5.280120
vn 0.603161 -0.793529 0.080673
v 2.090230 2.784580 -5.481850
vn 0.269519 -0.381340 0.884273
v 2.359980 2.989260 -4.528010
vn 0.233564 -0.891178 -0.388907
v 2.090230 2.784580 -4.297820
vn 0.485258 -0.847475 -0.215198
v 2.565790 3.135790 -5.322580
vn -0.566633 -0.575048 0.590124
v 2.597720 3.103860 -5.074670
vn -0.923075 0.384580 0.005556
v 2.565790 3.135790 -4.826760
vn -0.649545 -0.640482 -0.409725
v 2.533860 3.167720 -5.074670
vn 0.382182 -0.924074 0.004928
v 2.006910 2.385150 -5.020050
vn -0.747563 0.659375 0.079833
v 2.006910 2.385150 -4.381950
vn -0.794369 0.604623 -0.058393
v 2.274540 2.677960 -4.860920
vn -0.764633 0.644466 0.000127
v 1.869940 2.522120 -5.445460
vn 0.089405 0.125234 0.988091
v 1.952120 2.439940 -5.445460
vn -0.525567 0.637043 0.563876
v 2.191250 2.761250 -5.507640
vn -0.043582 -0.045437 0.998016
v 1.815150 2.576910 -4.289860
vn 0.586156 -0.807019 -0.071705
v 1.815150 2.576910 -5.066790
vn 0.653191 -0.755904 0.044169
v 2.107960 2.844540 -4.882510
vn 0.644783 -0.764366 -0.000220
v 1.952120 2.439940 -3.850540
vn -0.896699 0.272339 -0.348946
v 1.869940 2.522120 -3.850540
vn 0.119852 -0.886561 -0.446816
v 2.191250 2.761250 -4.214190
vn -0.502395 -0.502550 -0.703592
v 2.551710 3.061090 -5.284700
vn -0.862830 0.458246 0.213390
v 2.551710 3.061090 -4.813960
vn -0.923823 0.330189 -0.193718
v 2.491090 3.121710 -4.813960
vn 0.314396 -0.927978 -0.200030
v 2.491090 3.121710 -5.284700
vn 0.444406 -0.872284 0.204019
v 2.250080 2.663570 -4.585160
vn -0.785623 0.614274 -0.073918
v 2.250080 2.663570 -5.114510
vn -0.746492 0.661075 0.075696
v 2.205910 2.707740 -5.457430
vn -0.643388 0.585548 0.493138
v 2.137740 2.775910 -5.457430
vn 0.068668 -0.135287 0.988424
v 2.093570 2.820080 -5.176160
vn 0.660890 -0.748490 0.054653
v 2.093570 2.820080 -4.563180
vn 0.612180 -0.788019 -0.065282
v 2.137740 2.775910 -4.242230
vn 0.215343 -0.869112 -0.445277
v 2.205910 2.707740 -4.242230
vn -0.871446 0.265302 -0.412549
v 1.472970 1.720540 -4.562310
vn -0.845227 0.528885 0.076629
v 1.472970 1.720540 -3.522190
vn -0.915820 0.398817 -0.047100
v 1.242670 1.950850 -5.255730
vn -0.200747 0.087173 0.975757
v 1.380850 1.812670 -5.255730
vn -0.542512 0.609711 0.577869
v 1.150540 2.042970 -3.332260
vn 0.381664 -0.921808 -0.067841
v 1.150540 2.042970 -4.536720
vn 0.435089 -0.899507 0.039815
v 1.380850 1.812670 -2.828770
vn -0.961555 0.041906 -0.271396
v 1.242670 1.950850 -2.828770
vn -0.197297 -0.906908 -0.372280
v -1.472970 1.720540 -3.522190
vn 0.926597 0.368898 -0.073025
v -1.472970 1.720540 -4.562310
vn 0.850489 0.523616 0.049950
v -1.242670 1.950850 -2.828770
vn -0.010208 -0.954804 -0.297062
v -1.380850 1.812670 -2.828770
vn 0.907157 -0.193101 -0.373869
v -1.150540 2.042970 -4.536720
vn -0.443129 -0.894732 0.055594
v -1.150540 2.042970 -3.332260
vn -0.346856 -0.935724 -0.064116
v -1.380850 1.812670 -5.255730
vn 0.297710 -0.060098 0.952763
v -1.242670 1.950850 -5.255730
vn -0.437612 -0.085111 0.895127
v 0.404467 0.467182 7.432530
vn -0.436840 -0.852540 -0.286962
v -0.404467 0.467182 7.432530
vn 0.448600 -0.847290 -0.284353
v 0.000000 0.547557 7.519970
vn 0.036737 -0.938259 -0.343976
v 0.570698 0.539634 6.863330
vn -0.779943 -0.583584 -0.226092
v -0.570698 0.539634 6.863330
vn 0.779943 -0.583584 -0.226092
v 0.624357 0.689966 6.192520
vn -0.662689 -0.666896 -0.340724
v -0.624357 0.689966 6.192520
vn 0.662689 -0.666896 -0.340724
v 0.233990 -0.004094 8.816340
vn -0.397404 -0.824639 -0.402543
v 0.233907 -0.006790 8.821150
vn -0.760455 0.136602 -0.634861
v 0.433900 -0.253987 7.416440
vn -0.641754 0.745928 -0.178168
v -0.233990 -0.004094 8.816340
vn 0.394455 -0.826755 -0.401101
v -0.233907 -0.006790 8.821150
vn 0.760455 0.136602 -0.634861
v -0.433900 -0.253987 7.416440
vn 0.611588 0.771353 -0.175998
v 0.000000 0.263471 8.281740
vn 0.018469 -0.933163 -0.358979
v 0.000000 -0.333645 7.630870
vn -0.008099 0.984947 -0.172665
v 0.230369 -0.495790 6.130540
vn -0.184687 0.981114 -0.057496
v -0.230369 -0.495790 6.130540
vn 0.188661 0.980434 -0.056188
v 0.434457 0.249705 7.969920
vn -0.500100 -0.810113 -0.305970
v -0.434457 0.249705 7.969920
vn 0.516417 -0.801394 -0.301796
v -0.231030 0.539415 7.421820
vn 0.239422 -0.922610 -0.302438
v 0.231030 0.539415 7.421820
vn -0.222723 -0.926832 -0.302286
v 0.231360 0.269701 8.146670
vn -0.289331 -0.893229 -0.344136
v -0.231360 0.269701 8.146670
vn 0.310783 -0.885399 -0.345662
v 0.231030 -0.319608 7.501900
vn -0.265278 0.948320 -0.174119
v -0.231030 -0.319608 7.501900
vn 0.270577 0.947741 -0.169043
v 0.938065 -0.097011 5.456710
vn -0.912404 0.401730 -0.078313
v -0.938065 -0.097011 5.456710
vn 0.924461 0.375717 -0.064875
v 0.248231 -0.541150 4.056710
vn -0.163697 0.986145 -0.026864
v -0.248231 -0.541150 4.056710
vn 0.163697 0.986145 -0.026864
v -0.230369 0.986623 5.933540
vn 0.172631 -0.945157 -0.277265
v 0.230369 0.986623 5.933540
vn -0.172631 -0.945157 -0.277265
v 0.478238 1.121590 5.274840
vn -0.263692 -0.922210 -0.282833
v -0.478238 1.121590 5.274840
vn 0.247792 -0.926207 -0.284149
v 0.000000 1.198960 5.234330
vn -0.010168 -0.957889 -0.286957
v 0.655208 0.884132 5.823110
vn -0.550885 -0.772832 -0.315050
v -0.655208 0.884132 5.823110
vn 0.550885 -0.772832 -0.315050
v 0.350861 0.008921 8.651710
vn -0.877926 0.227564 -0.421261
v -0.116954 -0.018012 8.942180
vn 0.564741 0.176193 -0.806240
v 0.000000 -0.178073 8.310730
vn -0.000179 0.974455 -0.224582
v 0.116954 -0.018012 8.942180
vn -0.564741 0.176193 -0.806240
v 0.464937 -0.131325 7.841790
vn -0.678310 0.706892 -0.200497
v -0.350861 0.008921 8.651710
vn 0.878149 0.225241 -0.422044
v -0.464937 -0.131325 7.841790
vn 0.691008 0.693759 -0.202994
v 0.115515 -0.329634 7.594020
vn -0.174058 0.969412 -0.173046
v 0.232468 -0.163199 8.161520
vn -0.331111 0.917750 -0.219319
v 0.346544 -0.305570 7.372920
vn -0.374969 0.911588 -0.168541
v -0.346544 -0.305570 7.372920
vn 0.322792 0.930953 -0.170680
v -0.232468 -0.163199 8.161520
vn 0.330619 0.918643 -0.216302
v -0.115515 -0.329634 7.594020
vn 0.156673 0.972859 -0.170291
v 0.116234 -0.173823 8.268100
vn -0.202050 0.953974 -0.221609
v 0.348703 -0.148325 8.012320
vn -0.408421 0.886701 -0.216687
v -0.348703 -0.148325 8.012320
vn 0.410644 0.885830 -0.216048
v -0.116234 -0.173823 8.268100
vn 0.193701 0.956020 -0.220242
v 0.350985 0.012060 8.645380
vn -0.567915 -0.748205 -0.343019
v -0.116995 -0.015632 8.938460
vn 0.258586 -0.858653 -0.442546
v 0.000000 0.121612 8.634520
vn -0.001106 -0.927539 -0.373724
v 0.116995 -0.015632 8.938460
vn -0.257948 -0.858258 -0.443685
v -0.350985 0.012060 8.645380
vn 0.562558 -0.752570 -0.342296
v 0.465349 0.156786 8.153620
vn -0.718499 -0.634346 -0.285246
v -0.465349 0.156786 8.153620
vn 0.719538 -0.633863 -0.283695
v 0.347040 0.275931 8.011600
vn -0.369398 -0.865755 -0.337660
v 0.232675 0.132804 8.481500
vn -0.330149 -0.874035 -0.356460
v 0.115680 0.265251 8.243140
vn -0.164478 -0.920679 -0.353973
v -0.115680 0.265251 8.243140
vn 0.204237 -0.913335 -0.352288
v -0.232675 0.132804 8.481500
vn 0.328213 -0.874639 -0.356766
v -0.347040 0.275931 8.011600
vn 0.387556 -0.858819 -0.335008
v 0.349012 0.143995 8.328490
vn -0.405555 -0.844840 -0.348956
v 0.116337 0.124809 8.590800
vn -0.195258 -0.909286 -0.367522
v -0.116337 0.124809 8.590800
vn 0.199311 -0.908532 -0.367213
v -0.349012 0.143995 8.328490
vn 0.400105 -0.847440 -0.348944
v -0.968228 0.059801 5.709400
vn 0.941202 0.325699 -0.089774
v 0.115515 0.543486 7.470900
vn -0.143533 -0.935742 -0.322155
v 0.317748 0.503299 7.427170
vn -0.348239 -0.887744 -0.301064
v -0.317748 0.503299 7.427170
vn 0.366103 -0.881770 -0.297407
v -0.115515 0.543486 7.470900
vn 0.192017 -0.928098 -0.319006
v 0.316923 -0.462966 6.225300
vn -0.343651 0.935083 -0.086739
v 0.115185 -0.502831 6.172660
vn -0.119577 0.988784 -0.089487
v -0.115185 -0.502831 6.172660
vn 0.107469 0.990347 -0.087537
v -0.316923 -0.462966 6.225300
vn 0.272406 0.957790 -0.091831
v 0.968228 0.059801 5.709400
vn -0.933102 0.347806 -0.091384
v 2.934810 0.994444 -2.391870
vn -0.157229 -0.986575 -0.044138
v -2.934810 0.994444 -2.391870
vn 0.153325 -0.987264 -0.042436
v -1.000820 1.992940 -4.941650
vn -0.240734 -0.969187 0.052194
v 1.000820 1.992940 -4.941650
vn 0.240734 -0.969187 0.052194
vt 0.757065 0.184752
vt 0.697798 0.173810
vt 0.757166 0.177498
f 2/1/2 260/2/260 280/3/280
vt 0.844967 0.185112
vt 0.905301 0.174744
vt 0.905310 0.179236
f 6/4/6 215/5/215 98/6/98
vt 0.309064 0.933968
vt 0.315530 0.840618
vt 0.341524 0.776408
f 19/7/19 389/8/389 60/9/60
vt 0.309064 0.933968
vt 0.309381 0.913841
vt 0.315530 0.840618
f 19/10/19 444/11/444 389/12/389
vt 0.248530 0.320063
vt 0.254204 0.327159
vt 0.248489 0.340969
f 31/13/31 468/14/468 374/15/374
vt 0.337449 0.320028
vt 0.331799 0.327157
vt 0.326090 0.313361
f 36/16/36 467/17/467 118/18/118
vt 0.210099 0.461621
vt 0.211100 0.540254
vt 0.165004 0.445620
f 45/19/45 275/20/275 465/21/465
vt 0.210099 0.461621
vt 0.165004 0.445620
vt 0.209098 0.382988
f 45/22/45 465/23/465 276/24/276
vt 0.615453 0.047319
vt 0.718919 0.051633
vt 0.718223 0.065678
f 48/25/48 46/26/46 1/27/1
vt 0.615453 0.047319
vt 0.616521 0.025744
vt 0.718919 0.051633
f 48/28/48 54/29/54 46/30/46
vt 0.244610 0.776420
vt 0.270625 0.840614
vt 0.277119 0.933954
f 48/31/48 388/32/388 13/33/13
vt 0.284848 0.030013
vt 0.388075 0.035987
vt 0.284147 0.044054
f 58/34/58 60/35/60 5/36/5
vt 0.341524 0.776408
vt 0.321996 0.747268
vt 0.332393 0.721584
f 60/37/60 194/38/194 150/39/150
vt 0.341524 0.776408
vt 0.320379 0.770606
vt 0.321996 0.747268
f 60/40/60 420/41/420 194/42/194
vt 0.274538 0.772951
vt 0.265755 0.770609
vt 0.264131 0.747274
f 70/43/70 419/44/419 193/45/193
vt 0.311598 0.772952
vt 0.312021 0.746116
vt 0.321996 0.747268
f 82/46/82 417/47/417 194/48/194
vt 0.697736 0.178243
vt 0.697798 0.173810
vt 0.757065 0.184752
f 88/49/88 260/50/260 2/51/2
vt 0.259919 0.313350
vt 0.254204 0.327159
vt 0.248530 0.320063
f 108/52/108 468/53/468 31/54/31
vt 0.326090 0.313361
vt 0.331799 0.327157
vt 0.325999 0.410596
f 118/55/118 467/56/467 171/57/171
vt 0.253725 0.721597
vt 0.264131 0.747274
vt 0.244610 0.776420
f 139/58/139 193/59/193 48/60/48
vt 0.221125 0.411246
vt 0.222398 0.511382
vt 0.210099 0.461621
f 165/61/165 104/62/104 45/63/45
vt 0.260041 0.410583
vt 0.254204 0.327159
vt 0.259919 0.313350
f 167/64/167 468/65/468 108/66/108
vt 0.364918 0.411263
vt 0.375953 0.461623
vt 0.363665 0.511381
f 169/67/169 57/68/57 114/69/114
vt 0.312443 0.719280
vt 0.321996 0.747268
vt 0.312021 0.746116
f 184/70/184 194/71/194 417/72/417
vt 0.264131 0.747274
vt 0.274108 0.746118
vt 0.274538 0.772951
f 193/73/193 416/74/416 70/75/70
vt 0.264131 0.747274
vt 0.265755 0.770609
vt 0.244610 0.776420
f 193/76/193 419/77/419 48/78/48
vt 0.321996 0.747268
vt 0.320379 0.770606
vt 0.311598 0.772952
f 194/79/194 420/80/420 82/81/82
vt 0.376938 0.383010
vt 0.421038 0.445616
vt 0.375953 0.461623
f 282/82/282 466/83/466 57/84/57
vt 0.844953 0.177764
vt 0.905301 0.174744
vt 0.844967 0.185112
f 285/85/285 215/86/215 6/87/6
vt 0.337508 0.340952
vt 0.331799 0.327157
vt 0.337449 0.320028
f 381/88/381 467/89/467 36/90/36
vt 0.310331 0.853460
vt 0.315530 0.840618
vt 0.309698 0.893714
f 386/91/386 389/92/389 403/93/403
vt 0.270625 0.840614
vt 0.244610 0.776420
vt 0.267378 0.793944
f 388/94/388 48/95/48 390/96/390
vt 0.270625 0.840614
vt 0.276796 0.913828
vt 0.277119 0.933954
f 388/97/388 443/98/443 13/99/13
vt 0.267378 0.793944
vt 0.244610 0.776420
vt 0.265755 0.770609
f 390/100/390 48/101/48 419/102/419
vt 0.318763 0.793943
vt 0.341524 0.776408
vt 0.315530 0.840618
f 391/103/391 60/104/60 389/105/389
vt 0.276474 0.893703
vt 0.270625 0.840614
vt 0.275828 0.853453
f 402/106/402 388/107/388 385/108/385
vt 0.309698 0.893714
vt 0.315530 0.840618
vt 0.309381 0.913841
f 403/109/403 389/110/389 444/111/444
vt 0.274108 0.746118
vt 0.264131 0.747274
vt 0.273677 0.719284
f 416/112/416 193/113/193 182/114/182
vt 0.320379 0.770606
vt 0.341524 0.776408
vt 0.318763 0.793943
f 420/115/420 60/116/60 391/117/391
vt 0.276796 0.913828
vt 0.270625 0.840614
vt 0.276474 0.893703
f 443/118/443 388/119/388 402/120/402
vt 0.421038 0.445616
vt 0.374969 0.540236
vt 0.375953 0.461623
f 466/121/466 283/122/283 57/123/57
vt 0.212100 0.618887
vt 0.121660 0.567389
vt 0.120784 0.498504
vt 0.211100 0.540254
f 1/124/1 90/125/90 251/126/251 275/127/275
vt 0.212100 0.618887
vt 0.222398 0.511382
vt 0.241280 0.509600
vt 0.242028 0.615418
f 1/128/1 104/129/104 168/130/168 47/131/47
vt 0.757065 0.184752
vt 0.772613 0.184023
vt 0.777077 0.194285
vt 0.771536 0.199781
f 2/132/2 51/133/51 140/134/140 50/135/50
vt 0.208098 0.304355
vt 0.209098 0.382988
vt 0.119033 0.360733
vt 0.118157 0.291848
f 2/136/2 276/137/276 252/138/252 88/139/88
vt 0.719615 0.037588
vt 0.719267 0.044610
vt 0.718919 0.051633
vt 0.616521 0.025744
f 3/140/3 277/141/277 46/142/46 54/143/54
vt 0.757467 0.155737
vt 0.757366 0.162991
vt 0.697922 0.164943
vt 0.697984 0.160509
f 4/144/4 281/145/281 261/146/261 94/147/94
vt 0.373984 0.618848
vt 0.341524 0.776408
vt 0.332393 0.721584
vt 0.344058 0.615392
f 5/148/5 60/149/60 150/150/150 59/151/59
vt 0.373984 0.618848
vt 0.363665 0.511381
vt 0.375953 0.461623
vt 0.374969 0.540236
f 5/152/5 114/153/114 57/154/57 283/155/283
vt 0.844967 0.185112
vt 0.842728 0.193885
vt 0.833532 0.203115
vt 0.830269 0.199865
f 6/156/6 112/157/112 172/158/172 62/159/62
vt 0.737246 0.614958
vt 0.826172 0.667028
vt 0.826218 0.735238
vt 0.737298 0.692824
f 7/160/7 102/161/102 217/162/217 286/163/286
vt 0.285549 0.015972
vt 0.285199 0.022992
vt 0.218936 0.022420
vt 0.219150 0.018124
f 7/164/7 288/165/288 221/166/221 102/167/102
vt 0.844911 0.155719
vt 0.829338 0.156654
vt 0.824901 0.148527
vt 0.830468 0.143996
f 8/168/8 68/169/68 156/170/156 67/171/67
vt 0.737457 0.926422
vt 0.737404 0.848556
vt 0.826310 0.871659
vt 0.826356 0.939870
f 8/172/8 287/173/287 218/174/218 100/175/100
vt 0.271957 0.611949
vt 0.242028 0.615418
vt 0.241280 0.509600
vt 0.260162 0.507817
f 9/176/9 47/177/47 168/178/168 110/179/110
vt 0.271957 0.611949
vt 0.293044 0.611943
vt 0.293052 0.665613
vt 0.272817 0.665617
f 9/180/9 71/181/71 185/182/185 181/183/181
vt 0.271957 0.611949
vt 0.260162 0.507817
vt 0.260041 0.410583
vt 0.271632 0.459293
f 9/184/9 110/185/110 167/186/167 69/187/69
vt 0.786006 0.214810
vt 0.771536 0.199781
vt 0.777077 0.194285
vt 0.787083 0.199052
f 10/188/10 50/189/50 140/190/140 72/191/72
vt 0.639652 0.615634
vt 0.661389 0.615634
vt 0.661390 0.771046
vt 0.639608 0.771046
f 11/192/11 76/193/76 147/194/147 74/195/74
vt 0.639563 0.926458
vt 0.639608 0.771046
vt 0.661390 0.771046
vt 0.661390 0.926458
f 12/196/12 74/197/74 147/198/147 78/199/78
vt 0.786145 0.132680
vt 0.801085 0.132476
vt 0.801076 0.145055
vt 0.787256 0.145179
f 12/200/12 78/201/78 149/202/149 77/203/77
vt 0.512682 0.028959
vt 0.513427 0.013900
vt 0.616521 0.025744
vt 0.615453 0.047319
f 13/204/13 14/205/14 54/206/54 48/207/48
vt 0.277119 0.933954
vt 0.276796 0.913828
vt 0.280869 0.913830
vt 0.281112 0.933955
f 13/208/13 443/209/443 451/210/451 438/211/438
vt 0.645324 0.298658
vt 0.644615 0.338280
vt 0.617447 0.470044
vt 0.615429 0.456809
f 14/212/14 425/213/425 464/214/464 54/215/54
vt 0.314132 0.611937
vt 0.293044 0.611943
vt 0.293032 0.459304
vt 0.314431 0.459315
f 15/216/15 71/217/71 146/218/146 81/219/81
vt 0.815571 0.214617
vt 0.800788 0.214714
vt 0.800878 0.199006
vt 0.814672 0.198959
f 16/220/16 73/221/73 152/222/152 83/223/83
vt 0.314731 0.306694
vt 0.314581 0.383005
vt 0.293026 0.382985
vt 0.293019 0.306666
f 16/224/16 188/225/188 189/226/189 73/227/73
vt 0.683127 0.615634
vt 0.710186 0.615296
vt 0.710262 0.770868
vt 0.683172 0.771046
f 17/228/17 65/229/65 148/230/148 84/231/84
vt 0.816026 0.132272
vt 0.830468 0.143996
vt 0.824901 0.148527
vt 0.814896 0.144930
f 18/232/18 67/233/67 156/234/156 86/235/86
vt 0.683218 0.926459
vt 0.683172 0.771046
vt 0.710262 0.770868
vt 0.710337 0.926440
f 18/236/18 84/237/84 148/238/148 67/239/67
vt 0.492756 0.012882
vt 0.495340 0.013009
vt 0.494588 0.028051
vt 0.492003 0.027921
f 20/240/20 426/241/426 442/242/442 19/243/19
vt 0.677451 0.298659
vt 0.678161 0.338281
vt 0.673968 0.338281
vt 0.673436 0.298659
f 20/244/20 427/245/427 436/246/436 426/247/426
vt 0.999689 0.068785
vt 0.962468 0.066912
vt 0.962546 0.065366
vt 0.999766 0.067241
f 21/248/21 239/249/239 264/250/264 238/251/238
vt 0.028216 0.279342
vt 0.073186 0.285595
vt 0.074000 0.349606
vt 0.028967 0.338479
f 21/252/21 240/253/240 267/254/267 239/255/239
vt 0.850805 0.061292
vt 0.850883 0.059740
vt 0.888104 0.061615
vt 0.888026 0.063166
f 22/256/22 241/257/241 263/258/263 235/259/235
vt 0.850805 0.061292
vt 0.817660 0.062389
vt 0.817805 0.059469
vt 0.850883 0.059740
f 22/260/22 242/261/242 269/262/269 241/263/241
vt 0.851116 0.055083
vt 0.888337 0.056964
vt 0.888260 0.058515
vt 0.851039 0.056635
f 23/264/23 243/265/243 266/266/266 236/267/236
vt 0.407683 0.719098
vt 0.452145 0.693063
vt 0.452103 0.756446
vt 0.407643 0.777653
f 23/268/23 244/269/244 271/270/271 243/271/243
vt 1.000000 0.062609
vt 0.999922 0.064153
vt 0.962701 0.062273
vt 0.962779 0.060727
f 24/272/24 245/273/245 265/274/265 237/275/237
vt 0.638501 0.165281
vt 0.668242 0.162895
vt 0.668200 0.165919
vt 0.638477 0.166894
f 24/276/24 246/277/246 273/278/273 245/279/245
vt 0.152441 0.026568
vt 0.114331 0.024727
vt 0.114408 0.023152
vt 0.152518 0.024995
f 25/280/25 199/281/199 224/282/224 198/283/198
vt 0.554809 0.515845
vt 0.509603 0.541596
vt 0.510406 0.477598
vt 0.555551 0.456719
f 25/284/25 200/285/200 227/286/227 199/287/199
vt 0.000000 0.019206
vt 0.000077 0.017625
vt 0.038187 0.019467
vt 0.038110 0.021046
f 26/288/26 201/289/201 223/290/223 195/291/195
vt 0.965653 0.173361
vt 0.935482 0.176298
vt 0.935475 0.173234
vt 0.965649 0.171723
f 26/292/26 202/293/202 229/294/229 201/295/201
vt 0.000306 0.012882
vt 0.038417 0.014730
vt 0.038340 0.016309
vt 0.000230 0.014463
f 27/296/27 203/297/203 226/298/226 196/299/196
vt 0.915256 0.953317
vt 0.870806 0.946594
vt 0.870763 0.883211
vt 0.915217 0.894762
f 27/300/27 204/301/204 231/302/231 203/303/203
vt 0.152750 0.020275
vt 0.152673 0.021849
vt 0.114562 0.020002
vt 0.114639 0.018427
f 28/304/28 205/305/205 225/306/225 197/307/197
vt 0.152750 0.020275
vt 0.185950 0.019199
vt 0.185804 0.022134
vt 0.152673 0.021849
f 28/308/28 206/309/206 233/310/233 205/311/205
vt 0.809981 0.336633
vt 0.776546 0.334475
vt 0.776609 0.332516
vt 0.810062 0.334135
f 29/312/29 120/313/120 354/314/354 375/315/375
vt 0.809981 0.336633
vt 0.802091 0.347859
vt 0.770361 0.343276
vt 0.776546 0.334475
f 29/316/29 370/317/370 346/318/346 120/319/120
vt 0.778422 0.381538
vt 0.751804 0.369681
vt 0.757989 0.360879
vt 0.786312 0.370312
f 30/320/30 122/321/122 345/322/345 369/323/369
vt 0.778422 0.381538
vt 0.777321 0.383782
vt 0.750941 0.371440
vt 0.751804 0.369681
f 30/324/30 372/325/372 349/326/349 122/327/122
vt 0.774019 0.390513
vt 0.748352 0.376717
vt 0.749215 0.374958
vt 0.775120 0.388269
f 31/328/31 124/329/124 348/330/348 371/331/371
vt 0.898452 0.398776
vt 0.891790 0.386781
vt 0.920949 0.380386
vt 0.926172 0.389791
f 31/332/31 374/333/374 352/334/352 124/335/124
vt 0.871803 0.350794
vt 0.905279 0.352173
vt 0.910502 0.361577
vt 0.878465 0.362790
f 32/336/32 126/337/126 351/338/351 373/339/373
vt 0.810303 0.326641
vt 0.810223 0.329139
vt 0.776736 0.328600
vt 0.776799 0.326641
f 32/340/32 376/341/376 355/342/355 126/343/126
vt 0.773546 0.494252
vt 0.800164 0.482394
vt 0.801028 0.484153
vt 0.774647 0.496495
f 33/344/33 128/345/128 314/346/314 383/347/383
vt 0.773546 0.494252
vt 0.765656 0.483025
vt 0.793979 0.473592
vt 0.800164 0.482394
f 33/348/33 378/349/378 306/350/306 128/351/128
vt 0.741987 0.449346
vt 0.775422 0.447188
vt 0.781608 0.455989
vt 0.749877 0.460572
f 34/352/34 130/353/130 305/354/305 377/355/377
vt 0.741987 0.449346
vt 0.741907 0.446848
vt 0.775359 0.445230
vt 0.775422 0.447188
f 34/356/34 380/357/380 309/358/309 130/359/130
vt 0.741665 0.439355
vt 0.775170 0.439355
vt 0.775233 0.441313
vt 0.741746 0.441852
f 35/360/35 132/361/132 308/362/308 379/363/379
vt 0.957216 0.440641
vt 0.950554 0.452637
vt 0.918517 0.451424
vt 0.923740 0.442020
f 35/364/35 382/365/382 312/366/312 132/367/132
vt 0.930567 0.488624
vt 0.902847 0.479638
vt 0.908070 0.470234
vt 0.937229 0.476628
f 36/368/36 134/369/134 311/370/311 381/371/381
vt 0.777950 0.503226
vt 0.776849 0.500983
vt 0.802754 0.487671
vt 0.803617 0.489430
f 36/372/36 384/373/384 315/374/315 134/375/134
vt 0.943719 0.350794
vt 0.947503 0.357608
vt 0.946262 0.358297
vt 0.942478 0.351483
f 37/376/37 333/377/333 358/378/358 332/379/332
vt 0.743111 0.332316
vt 0.759829 0.333395
vt 0.754495 0.340985
vt 0.738630 0.338693
f 37/380/37 334/381/334 361/382/361 333/383/333
vt 0.958856 0.378048
vt 0.957615 0.378737
vt 0.953831 0.371924
vt 0.955072 0.371235
f 38/384/38 335/385/335 357/386/357 329/387/329
vt 0.725186 0.357823
vt 0.738495 0.363752
vt 0.737751 0.365268
vt 0.724560 0.359097
f 38/388/38 336/389/336 363/390/363 335/391/335
vt 0.953892 0.380805
vt 0.950108 0.373991
vt 0.951349 0.373302
vt 0.955133 0.380116
f 39/392/39 337/393/337 360/394/360 330/395/330
vt 0.953892 0.380805
vt 0.940032 0.385298
vt 0.935528 0.377189
vt 0.950108 0.373991
f 39/396/39 338/397/338 365/398/365 337/399/337
vt 0.938755 0.353551
vt 0.939996 0.352862
vt 0.943780 0.359675
vt 0.942539 0.360365
f 40/400/40 339/401/339 359/402/359 331/403/331
vt 0.743294 0.326641
vt 0.760046 0.326641
vt 0.759992 0.328330
vt 0.743248 0.328060
f 40/404/40 340/405/340 367/406/367 339/407/339
vt 0.870163 0.467895
vt 0.873947 0.461082
vt 0.875188 0.461771
vt 0.871404 0.468585
f 41/408/41 293/409/293 318/410/318 292/411/292
vt 0.826783 0.470536
vt 0.813474 0.476465
vt 0.808140 0.468876
vt 0.822301 0.464160
f 41/412/41 294/413/294 321/414/321 293/415/293
vt 0.885300 0.440641
vt 0.886541 0.441331
vt 0.882757 0.448144
vt 0.881516 0.447455
f 42/416/42 295/417/295 317/418/317 289/419/289
vt 0.808857 0.445030
vt 0.792140 0.446109
vt 0.792085 0.444420
vt 0.808811 0.443611
f 42/420/42 296/421/296 323/422/323 295/423/295
vt 0.890264 0.443398
vt 0.886479 0.450212
vt 0.885238 0.449523
vt 0.889023 0.442709
f 43/424/43 297/425/297 320/426/320 290/427/290
vt 0.890264 0.443398
vt 0.907002 0.442709
vt 0.902498 0.450818
vt 0.886479 0.450212
f 43/428/43 298/429/298 325/430/325 297/431/297
vt 0.875127 0.470652
vt 0.873886 0.469963
vt 0.877670 0.463150
vt 0.878911 0.463839
f 44/432/44 299/433/299 319/434/319 291/435/291
vt 0.829284 0.475634
vt 0.816450 0.482532
vt 0.815706 0.481015
vt 0.828659 0.474359
f 44/436/44 300/437/300 327/438/327 299/439/299
vt 0.242028 0.615418
vt 0.253725 0.721597
vt 0.244610 0.776420
vt 0.212100 0.618887
f 47/440/47 139/441/139 48/442/48 1/443/1
vt 0.757266 0.170245
vt 0.697860 0.169376
vt 0.697922 0.164943
vt 0.757366 0.162991
f 49/444/49 160/445/160 261/446/261 281/447/281
vt 0.757266 0.170245
vt 0.757166 0.177498
vt 0.697798 0.173810
vt 0.697860 0.169376
f 49/448/49 280/449/280 260/450/260 160/451/160
vt 0.771536 0.199781
vt 0.768212 0.202981
vt 0.759158 0.193578
vt 0.757065 0.184752
f 50/452/50 166/453/166 106/454/106 2/455/2
vt 0.612444 0.926440
vt 0.612518 0.770868
vt 0.639608 0.771046
vt 0.639563 0.926458
f 55/456/55 138/457/138 74/458/74 12/459/12
vt 0.771806 0.144209
vt 0.777326 0.148699
vt 0.772917 0.156708
vt 0.757467 0.155737
f 55/460/55 142/461/142 56/462/56 4/463/4
vt 0.284848 0.030013
vt 0.218722 0.026717
vt 0.218936 0.022420
vt 0.285199 0.022992
f 58/464/58 164/465/164 221/466/221 288/467/288
vt 0.344058 0.615392
vt 0.344787 0.509605
vt 0.363665 0.511381
vt 0.373984 0.618848
f 59/468/59 170/469/170 114/470/114 5/471/5
vt 0.830269 0.199865
vt 0.824770 0.194344
vt 0.829370 0.184207
vt 0.844967 0.185112
f 62/472/62 151/473/151 63/474/63 6/475/6
vt 0.737351 0.770690
vt 0.826264 0.803449
vt 0.826310 0.871659
vt 0.737404 0.848556
f 64/476/64 163/477/163 218/478/218 287/479/287
vt 0.737351 0.770690
vt 0.737298 0.692824
vt 0.826218 0.735238
vt 0.826264 0.803449
f 64/480/64 286/481/286 217/482/217 163/483/163
vt 0.389152 0.014427
vt 0.284848 0.030013
vt 0.285199 0.022992
vt 0.285549 0.015972
f 66/484/66 58/485/58 288/486/288 7/487/7
vt 0.707349 0.456809
vt 0.705330 0.470044
vt 0.678161 0.338281
vt 0.677451 0.298659
f 66/488/66 455/489/455 427/490/427 20/491/20
vt 0.271632 0.459293
vt 0.293032 0.459304
vt 0.293044 0.611943
vt 0.271957 0.611949
f 69/492/69 146/493/146 71/494/71 9/495/9
vt 0.787083 0.199052
vt 0.800878 0.199006
vt 0.800788 0.214714
vt 0.786006 0.214810
f 72/496/72 152/497/152 73/498/73 10/499/10
vt 0.293019 0.306666
vt 0.293026 0.382985
vt 0.271470 0.382965
vt 0.271308 0.306637
f 73/500/73 189/501/189 187/502/187 10/503/10
vt 0.639608 0.771046
vt 0.612518 0.770868
vt 0.612593 0.615297
vt 0.639652 0.615634
f 74/504/74 138/505/138 53/506/53 11/507/11
vt 0.642488 0.457146
vt 0.623503 0.509750
vt 0.619466 0.483280
vt 0.643906 0.377902
f 75/508/75 141/509/141 410/510/410 394/511/394
vt 0.787256 0.145179
vt 0.777326 0.148699
vt 0.771806 0.144209
vt 0.786145 0.132680
f 77/512/77 142/513/142 55/514/55 12/515/12
vt 0.661390 0.926458
vt 0.661390 0.771046
vt 0.683172 0.771046
vt 0.683218 0.926459
f 78/516/78 147/517/147 84/518/84 18/519/18
vt 0.293092 0.933961
vt 0.293089 0.913835
vt 0.297162 0.913836
vt 0.297085 0.933962
f 79/520/79 440/521/440 453/522/453 439/523/439
vt 0.293092 0.933961
vt 0.289098 0.933959
vt 0.289016 0.913833
vt 0.293089 0.913835
f 79/524/79 441/525/441 452/526/452 440/527/440
vt 0.503091 0.013391
vt 0.505675 0.013518
vt 0.504927 0.028570
vt 0.502343 0.028440
f 80/528/80 424/529/424 441/530/441 79/531/79
vt 0.314431 0.459315
vt 0.293032 0.459304
vt 0.293026 0.382985
vt 0.314581 0.383005
f 81/532/81 146/533/146 189/534/189 188/535/188
vt 0.314431 0.459315
vt 0.325999 0.410596
vt 0.325908 0.507830
vt 0.314132 0.611937
f 81/536/81 171/537/171 116/538/116 15/539/15
vt 0.814672 0.198959
vt 0.824770 0.194344
vt 0.830269 0.199865
vt 0.815571 0.214617
f 83/540/83 151/541/151 62/542/62 16/543/16
vt 0.683172 0.771046
vt 0.661390 0.771046
vt 0.661389 0.615634
vt 0.683127 0.615634
f 84/544/84 147/545/147 76/546/76 17/547/17
vt 0.680289 0.457146
vt 0.675564 0.457146
vt 0.674500 0.377903
vt 0.678870 0.377903
f 85/548/85 463/549/463 431/550/431 397/551/397
vt 0.814896 0.144930
vt 0.801076 0.145055
vt 0.801085 0.132476
vt 0.816026 0.132272
f 86/552/86 149/553/149 78/554/78 18/555/18
vt 0.925247 0.065039
vt 0.888026 0.063166
vt 0.888104 0.061615
vt 0.925325 0.063490
f 87/556/87 235/557/235 263/558/263 248/559/248
vt 0.925247 0.065039
vt 0.925325 0.063490
vt 0.962546 0.065366
vt 0.962468 0.066912
f 87/560/87 248/561/248 264/562/264 239/563/239
vt 0.118157 0.291848
vt 0.119033 0.360733
vt 0.074000 0.349606
vt 0.073186 0.285595
f 88/564/88 252/565/252 267/566/267 240/567/240
vt 0.850961 0.058188
vt 0.851039 0.056635
vt 0.888260 0.058515
vt 0.888182 0.060065
f 89/568/89 236/569/236 266/570/266 247/571/247
vt 0.850961 0.058188
vt 0.888182 0.060065
vt 0.888104 0.061615
vt 0.850883 0.059740
f 89/572/89 247/573/247 263/574/263 241/575/241
vt 0.784514 0.063485
vt 0.784727 0.059198
vt 0.817805 0.059469
vt 0.817660 0.062389
f 90/576/90 255/577/255 269/578/269 242/579/242
vt 0.925558 0.058846
vt 0.962779 0.060727
vt 0.962701 0.062273
vt 0.925480 0.060394
f 91/580/91 237/581/237 265/582/265 250/583/250
vt 0.925558 0.058846
vt 0.925480 0.060394
vt 0.888260 0.058515
vt 0.888337 0.056964
f 91/584/91 250/585/250 266/586/266 243/587/243
vt 0.785366 0.046335
vt 0.785153 0.050623
vt 0.719267 0.044610
vt 0.719615 0.037588
f 92/588/92 254/589/254 277/590/277 3/591/3
vt 0.496608 0.667029
vt 0.496562 0.735239
vt 0.452103 0.756446
vt 0.452145 0.693063
f 92/592/92 258/593/258 271/594/271 244/595/244
vt 0.999844 0.065697
vt 0.999766 0.067241
vt 0.962546 0.065366
vt 0.962623 0.063820
f 93/596/93 238/597/238 264/598/264 249/599/249
vt 0.999844 0.065697
vt 0.962623 0.063820
vt 0.962701 0.062273
vt 0.999922 0.064153
f 93/600/93 249/601/249 265/602/265 245/603/245
vt 0.496425 0.939870
vt 0.496471 0.871659
vt 0.585376 0.848556
vt 0.585324 0.926421
f 94/604/94 257/605/257 278/606/278 4/607/4
vt 0.697984 0.160509
vt 0.697922 0.164943
vt 0.668200 0.165919
vt 0.668242 0.162895
f 94/608/94 261/609/261 273/610/273 246/611/246
vt 0.076220 0.022887
vt 0.038110 0.021046
vt 0.038187 0.019467
vt 0.076297 0.021310
f 95/612/95 195/613/195 223/614/223 208/615/208
vt 0.076220 0.022887
vt 0.076297 0.021310
vt 0.114408 0.023152
vt 0.114331 0.024727
f 95/616/95 208/617/208 224/618/224 199/619/199
vt 0.464397 0.567347
vt 0.465260 0.498478
vt 0.510406 0.477598
vt 0.509603 0.541596
f 96/620/96 212/621/212 227/622/227 200/623/200
vt 0.000153 0.016044
vt 0.000230 0.014463
vt 0.038340 0.016309
vt 0.038264 0.017888
f 97/624/97 196/625/196 226/626/226 207/627/207
vt 0.000153 0.016044
vt 0.038264 0.017888
vt 0.038187 0.019467
vt 0.000077 0.017625
f 97/628/97 207/629/207 223/630/223 201/631/201
vt 0.467851 0.291870
vt 0.466987 0.360739
vt 0.376938 0.383010
vt 0.377923 0.304397
f 98/632/98 211/633/211 282/634/282 6/635/6
vt 0.905310 0.179236
vt 0.905301 0.174744
vt 0.935475 0.173234
vt 0.935482 0.176298
f 98/636/98 215/637/215 229/638/229 202/639/202
vt 0.076528 0.016578
vt 0.114639 0.018427
vt 0.114562 0.020002
vt 0.076451 0.018156
f 99/640/99 197/641/197 225/642/225 210/643/210
vt 0.076528 0.016578
vt 0.076451 0.018156
vt 0.038340 0.016309
vt 0.038417 0.014730
f 99/644/99 210/645/210 226/646/226 203/647/203
vt 0.905274 0.161266
vt 0.905283 0.165758
vt 0.844925 0.163067
vt 0.844911 0.155719
f 100/648/100 214/649/214 284/650/284 8/651/8
vt 0.826356 0.939870
vt 0.826310 0.871659
vt 0.870763 0.883211
vt 0.870806 0.946594
f 100/652/100 218/653/218 231/654/231 204/655/204
vt 0.152595 0.023422
vt 0.152518 0.024995
vt 0.114408 0.023152
vt 0.114485 0.021577
f 101/656/101 198/657/198 224/658/224 209/659/209
vt 0.152595 0.023422
vt 0.114485 0.021577
vt 0.114562 0.020002
vt 0.152673 0.021849
f 101/660/101 209/661/209 225/662/225 205/663/205
vt 0.219150 0.018124
vt 0.218936 0.022420
vt 0.185804 0.022134
vt 0.185950 0.019199
f 102/664/102 221/665/221 233/666/233 206/667/206
vt 0.794202 0.359085
vt 0.764175 0.352078
vt 0.770361 0.343276
vt 0.802091 0.347859
f 103/668/103 173/669/173 346/670/346 370/671/370
vt 0.794202 0.359085
vt 0.786312 0.370312
vt 0.757989 0.360879
vt 0.764175 0.352078
f 103/672/103 369/673/369 345/674/345 173/675/173
vt 0.776220 0.386026
vt 0.750078 0.373199
vt 0.750941 0.371440
vt 0.777321 0.383782
f 105/676/105 174/677/174 349/678/349 372/679/372
vt 0.776220 0.386026
vt 0.775120 0.388269
vt 0.749215 0.374958
vt 0.750078 0.373199
f 105/680/105 371/681/371 348/682/348 174/683/174
vt 0.885128 0.374785
vt 0.915726 0.370982
vt 0.920949 0.380386
vt 0.891790 0.386781
f 107/684/107 175/685/175 352/686/352 374/687/374
vt 0.885128 0.374785
vt 0.878465 0.362790
vt 0.910502 0.361577
vt 0.915726 0.370982
f 107/688/107 373/689/373 351/690/351 175/691/175
vt 0.810142 0.331637
vt 0.776672 0.330558
vt 0.776736 0.328600
vt 0.810223 0.329139
f 109/692/109 176/693/176 355/694/355 376/695/376
vt 0.810142 0.331637
vt 0.810062 0.334135
vt 0.776609 0.332516
vt 0.776672 0.330558
f 109/696/109 375/697/375 354/698/354 176/699/176
vt 0.757767 0.471799
vt 0.787793 0.464791
vt 0.793979 0.473592
vt 0.765656 0.483025
f 111/700/111 177/701/177 306/702/306 378/703/378
vt 0.757767 0.471799
vt 0.749877 0.460572
vt 0.781608 0.455989
vt 0.787793 0.464791
f 111/704/111 377/705/377 305/706/305 177/707/177
vt 0.741826 0.444350
vt 0.775296 0.443271
vt 0.775359 0.445230
vt 0.741907 0.446848
f 113/708/113 178/709/178 309/710/309 380/711/380
vt 0.741826 0.444350
vt 0.741746 0.441852
vt 0.775233 0.441313
vt 0.775296 0.443271
f 113/712/113 379/713/379 308/714/308 178/715/178
vt 0.943891 0.464633
vt 0.913293 0.460829
vt 0.918517 0.451424
vt 0.950554 0.452637
f 115/716/115 179/717/179 312/718/312 382/719/382
vt 0.943891 0.464633
vt 0.937229 0.476628
vt 0.908070 0.470234
vt 0.913293 0.460829
f 115/720/115 381/721/381 311/722/311 179/723/179
vt 0.325908 0.507830
vt 0.344787 0.509605
vt 0.344058 0.615392
vt 0.314132 0.611937
f 116/724/116 170/725/170 59/726/59 15/727/15
vt 0.775748 0.498739
vt 0.801891 0.485912
vt 0.802754 0.487671
vt 0.776849 0.500983
f 117/728/117 180/729/180 315/730/315 384/731/384
vt 0.775748 0.498739
vt 0.774647 0.496495
vt 0.801028 0.484153
vt 0.801891 0.485912
f 117/732/117 383/733/383 314/734/314 180/735/180
vt 0.951288 0.364421
vt 0.955072 0.371235
vt 0.953831 0.371924
vt 0.950047 0.365110
f 119/736/119 329/737/329 357/738/357 342/739/342
vt 0.951288 0.364421
vt 0.950047 0.365110
vt 0.946262 0.358297
vt 0.947503 0.357608
f 119/740/119 342/741/342 358/742/358 333/743/333
vt 0.776546 0.334475
vt 0.770361 0.343276
vt 0.754495 0.340985
vt 0.759829 0.333395
f 120/744/120 346/745/346 361/746/361 334/747/334
vt 0.956374 0.379427
vt 0.955133 0.380116
vt 0.951349 0.373302
vt 0.952590 0.372613
f 121/748/121 330/749/330 360/750/360 341/751/341
vt 0.956374 0.379427
vt 0.952590 0.372613
vt 0.953831 0.371924
vt 0.957615 0.378737
f 121/752/121 341/753/341 357/754/357 335/755/335
vt 0.751804 0.369681
vt 0.750941 0.371440
vt 0.737751 0.365268
vt 0.738495 0.363752
f 122/756/122 349/757/349 363/758/363 336/759/336
vt 0.946324 0.367178
vt 0.942539 0.360365
vt 0.943780 0.359675
vt 0.947565 0.366489
f 123/760/123 331/761/331 359/762/359 344/763/344
vt 0.946324 0.367178
vt 0.947565 0.366489
vt 0.951349 0.373302
vt 0.950108 0.373991
f 123/764/123 344/765/344 360/766/360 337/767/337
vt 0.926172 0.389791
vt 0.920949 0.380386
vt 0.935528 0.377189
vt 0.940032 0.385298
f 124/768/124 352/769/352 365/770/365 338/771/338
vt 0.941237 0.352173
vt 0.942478 0.351483
vt 0.946262 0.358297
vt 0.945021 0.358986
f 125/772/125 332/773/332 358/774/358 343/775/343
vt 0.941237 0.352173
vt 0.945021 0.358986
vt 0.943780 0.359675
vt 0.939996 0.352862
f 125/776/125 343/777/343 359/778/359 339/779/339
vt 0.776799 0.326641
vt 0.776736 0.328600
vt 0.759992 0.328330
vt 0.760046 0.326641
f 126/780/126 355/781/355 367/782/367 340/783/340
vt 0.877731 0.454268
vt 0.881516 0.447455
vt 0.882757 0.448144
vt 0.878972 0.454958
f 127/784/127 289/785/289 317/786/317 302/787/302
vt 0.877731 0.454268
vt 0.878972 0.454958
vt 0.875188 0.461771
vt 0.873947 0.461082
f 127/788/127 302/789/302 318/790/318 293/791/293
vt 0.800164 0.482394
vt 0.793979 0.473592
vt 0.808140 0.468876
vt 0.813474 0.476465
f 128/792/128 306/793/306 321/794/321 294/795/294
vt 0.887782 0.442020
vt 0.889023 0.442709
vt 0.885238 0.449523
vt 0.883997 0.448833
f 129/796/129 290/797/290 320/798/320 301/799/301
vt 0.887782 0.442020
vt 0.883997 0.448833
vt 0.882757 0.448144
vt 0.886541 0.441331
f 129/800/129 301/801/301 317/802/317 295/803/295
vt 0.775422 0.447188
vt 0.775359 0.445230
vt 0.792085 0.444420
vt 0.792140 0.446109
f 130/804/130 309/805/309 323/806/323 296/807/296
vt 0.882695 0.457025
vt 0.878911 0.463839
vt 0.877670 0.463150
vt 0.881454 0.456336
f 131/808/131 291/809/291 319/810/319 304/811/304
vt 0.882695 0.457025
vt 0.881454 0.456336
vt 0.885238 0.449523
vt 0.886479 0.450212
f 131/812/131 304/813/304 320/814/320 297/815/297
vt 0.923740 0.442020
vt 0.918517 0.451424
vt 0.902498 0.450818
vt 0.907002 0.442709
f 132/816/132 312/817/312 325/818/325 298/819/298
vt 0.872645 0.469274
vt 0.871404 0.468585
vt 0.875188 0.461771
vt 0.876429 0.462460
f 133/820/133 292/821/292 318/822/318 303/823/303
vt 0.872645 0.469274
vt 0.876429 0.462460
vt 0.877670 0.463150
vt 0.873886 0.469963
f 133/824/133 303/825/303 319/826/319 299/827/299
vt 0.803617 0.489430
vt 0.802754 0.487671
vt 0.815706 0.481015
vt 0.816450 0.482532
f 134/828/134 315/829/315 327/830/327 300/831/300
vt 0.925403 0.061942
vt 0.925325 0.063490
vt 0.888104 0.061615
vt 0.888182 0.060065
f 135/832/135 248/833/248 263/834/263 247/835/247
vt 0.925403 0.061942
vt 0.962623 0.063820
vt 0.962546 0.065366
vt 0.925325 0.063490
f 135/836/135 249/837/249 264/838/264 248/839/248
vt 0.925403 0.061942
vt 0.925480 0.060394
vt 0.962701 0.062273
vt 0.962623 0.063820
f 135/840/135 250/841/250 265/842/265 249/843/249
vt 0.076374 0.019733
vt 0.076297 0.021310
vt 0.038187 0.019467
vt 0.038264 0.017888
f 136/844/136 208/845/208 223/846/223 207/847/207
vt 0.076374 0.019733
vt 0.114485 0.021577
vt 0.114408 0.023152
vt 0.076297 0.021310
f 136/848/136 209/849/209 224/850/224 208/851/208
vt 0.076374 0.019733
vt 0.076451 0.018156
vt 0.114562 0.020002
vt 0.114485 0.021577
f 136/852/136 210/853/210 225/854/225 209/855/209
vt 0.948806 0.365800
vt 0.950047 0.365110
vt 0.953831 0.371924
vt 0.952590 0.372613
f 137/856/137 342/857/342 357/858/357 341/859/341
vt 0.948806 0.365800
vt 0.945021 0.358986
vt 0.946262 0.358297
vt 0.950047 0.365110
f 137/860/137 343/861/343 358/862/358 342/863/342
vt 0.948806 0.365800
vt 0.947565 0.366489
vt 0.943780 0.359675
vt 0.945021 0.358986
f 137/864/137 344/865/344 359/866/359 343/867/343
vt 0.880213 0.455647
vt 0.878972 0.454958
vt 0.882757 0.448144
vt 0.883997 0.448833
f 144/868/144 302/869/302 317/870/317 301/871/301
vt 0.880213 0.455647
vt 0.876429 0.462460
vt 0.875188 0.461771
vt 0.878972 0.454958
f 144/872/144 303/873/303 318/874/318 302/875/302
vt 0.880213 0.455647
vt 0.881454 0.456336
vt 0.877670 0.463150
vt 0.876429 0.462460
f 144/876/144 304/877/304 319/878/319 303/879/303
vt 0.661389 0.457146
vt 0.656664 0.457146
vt 0.657018 0.377902
vt 0.661388 0.377902
f 155/880/155 461/881/461 428/882/428 399/883/399
vt 0.119909 0.429618
vt 0.074813 0.413617
vt 0.074000 0.349606
vt 0.119033 0.360733
f 157/884/157 253/885/253 267/886/267 252/887/252
vt 0.119909 0.429618
vt 0.165004 0.445620
vt 0.211100 0.540254
vt 0.120784 0.498504
f 157/888/157 465/889/465 275/890/275 251/891/251
vt 0.784940 0.054910
vt 0.817950 0.056549
vt 0.817805 0.059469
vt 0.784727 0.059198
f 158/892/158 256/893/256 269/894/269 255/895/255
vt 0.496516 0.803449
vt 0.496562 0.735239
vt 0.585481 0.692825
vt 0.585429 0.770690
f 159/896/159 258/897/258 279/898/279 52/899/52
vt 0.496516 0.803449
vt 0.452060 0.819828
vt 0.452103 0.756446
vt 0.496562 0.735239
f 159/900/159 259/901/259 271/902/271 258/903/258
vt 0.697860 0.169376
vt 0.668157 0.168942
vt 0.668200 0.165919
vt 0.697922 0.164943
f 160/904/160 262/905/262 273/906/273 261/907/261
vt 0.466124 0.429608
vt 0.511209 0.413601
vt 0.510406 0.477598
vt 0.465260 0.498478
f 161/908/161 213/909/213 227/910/227 212/911/212
vt 0.466124 0.429608
vt 0.421038 0.445616
vt 0.376938 0.383010
vt 0.466987 0.360739
f 161/912/161 466/913/466 282/914/282 211/915/211
vt 0.905292 0.170251
vt 0.905301 0.174744
vt 0.844953 0.177764
vt 0.844939 0.170416
f 162/916/162 215/917/215 285/918/285 61/919/61
vt 0.905292 0.170251
vt 0.935468 0.170169
vt 0.935475 0.173234
vt 0.905301 0.174744
f 162/920/162 216/921/216 229/922/229 215/923/215
vt 0.826264 0.803449
vt 0.870720 0.819828
vt 0.870763 0.883211
vt 0.826310 0.871659
f 163/924/163 219/925/219 231/926/231 218/927/218
vt 0.218722 0.026717
vt 0.185659 0.025069
vt 0.185804 0.022134
vt 0.218936 0.022420
f 164/928/164 222/929/222 233/930/233 221/931/221
vt 0.325999 0.410596
vt 0.331799 0.327157
vt 0.337508 0.340952
vt 0.337567 0.361876
f 171/932/171 467/933/467 381/934/381 115/935/115
vt 0.764175 0.352078
vt 0.749162 0.348574
vt 0.754495 0.340985
vt 0.770361 0.343276
f 173/936/173 347/937/347 361/938/361 346/939/346
vt 0.750078 0.373199
vt 0.737006 0.366785
vt 0.737751 0.365268
vt 0.750941 0.371440
f 174/940/174 350/941/350 363/942/363 349/943/349
vt 0.915726 0.370982
vt 0.931025 0.369080
vt 0.935528 0.377189
vt 0.920949 0.380386
f 175/944/175 353/945/353 365/946/365 352/947/352
vt 0.776672 0.330558
vt 0.759938 0.330018
vt 0.759992 0.328330
vt 0.776736 0.328600
f 176/948/176 356/949/356 367/950/367 355/951/355
vt 0.787793 0.464791
vt 0.802807 0.461287
vt 0.808140 0.468876
vt 0.793979 0.473592
f 177/952/177 307/953/307 321/954/321 306/955/306
vt 0.775296 0.443271
vt 0.792031 0.442732
vt 0.792085 0.444420
vt 0.775359 0.445230
f 178/956/178 310/957/310 323/958/323 309/959/309
vt 0.913293 0.460829
vt 0.897994 0.458927
vt 0.902498 0.450818
vt 0.918517 0.451424
f 179/960/179 313/961/313 325/962/325 312/963/312
vt 0.801891 0.485912
vt 0.814962 0.479499
vt 0.815706 0.481015
vt 0.802754 0.487671
f 180/964/180 316/965/316 327/966/327 315/967/315
vt 0.272817 0.665617
vt 0.293052 0.665613
vt 0.293060 0.719282
vt 0.273677 0.719284
f 181/968/181 185/969/185 186/970/186 182/971/182
vt 0.273677 0.719284
vt 0.293060 0.719282
vt 0.293064 0.746117
vt 0.274108 0.746118
f 182/972/182 186/973/186 418/974/418 416/975/416
vt 0.313287 0.665608
vt 0.293052 0.665613
vt 0.293044 0.611943
vt 0.314132 0.611937
f 183/976/183 185/977/185 71/978/71 15/979/15
vt 0.312443 0.719280
vt 0.293060 0.719282
vt 0.293052 0.665613
vt 0.313287 0.665608
f 184/980/184 186/981/186 185/982/185 183/983/183
vt 0.271470 0.382965
vt 0.293026 0.382985
vt 0.293032 0.459304
vt 0.271632 0.459293
f 187/984/187 189/985/189 146/986/146 69/987/69
vt 0.557036 0.338468
vt 0.512011 0.349604
vt 0.512814 0.285607
vt 0.557778 0.279343
f 195/988/195 228/989/228 202/990/202 26/991/26
vt 0.965640 0.168449
vt 0.935462 0.167104
vt 0.935455 0.164039
vt 0.965636 0.166812
f 196/992/196 230/993/230 204/994/204 27/995/27
vt 0.915137 0.777652
vt 0.870677 0.756445
vt 0.870635 0.693062
vt 0.915098 0.719097
f 197/996/197 232/997/232 206/998/206 28/999/28
vt 0.152518 0.024995
vt 0.185513 0.028004
vt 0.185367 0.030939
vt 0.152441 0.026568
f 198/1000/198 234/1001/234 200/1002/200 25/1003/25
vt 0.555551 0.456719
vt 0.510406 0.477598
vt 0.511209 0.413601
vt 0.556294 0.397594
f 199/1004/199 227/1005/227 213/1006/213 95/1007/95
vt 0.185367 0.030939
vt 0.185513 0.028004
vt 0.218508 0.031014
vt 0.218294 0.035311
f 200/1008/200 234/1009/234 220/1010/220 96/1011/96
vt 0.965649 0.171723
vt 0.935475 0.173234
vt 0.935468 0.170169
vt 0.965645 0.170086
f 201/1012/201 229/1013/229 216/1014/216 97/1015/97
vt 0.512814 0.285607
vt 0.512011 0.349604
vt 0.466987 0.360739
vt 0.467851 0.291870
f 202/1016/202 228/1017/228 211/1018/211 98/1019/98
vt 0.915217 0.894762
vt 0.870763 0.883211
vt 0.870720 0.819828
vt 0.915177 0.836207
f 203/1020/203 231/1021/231 219/1022/219 99/1023/99
vt 0.935455 0.164039
vt 0.935462 0.167104
vt 0.905283 0.165758
vt 0.905274 0.161266
f 204/1024/204 230/1025/230 214/1026/214 100/1027/100
vt 0.152673 0.021849
vt 0.185804 0.022134
vt 0.185659 0.025069
vt 0.152595 0.023422
f 205/1028/205 233/1029/233 222/1030/222 101/1031/101
vt 0.870635 0.693062
vt 0.870677 0.756445
vt 0.826218 0.735238
vt 0.826172 0.667028
f 206/1032/206 232/1033/232 217/1034/217 102/1035/102
vt 0.038264 0.017888
vt 0.038340 0.016309
vt 0.076451 0.018156
vt 0.076374 0.019733
f 207/1036/207 226/1037/226 210/1038/210 136/1039/136
vt 0.466987 0.360739
vt 0.512011 0.349604
vt 0.511209 0.413601
vt 0.466124 0.429608
f 211/1040/211 228/1041/228 213/1042/213 161/1043/161
vt 0.465260 0.498478
vt 0.374969 0.540236
vt 0.421038 0.445616
vt 0.466124 0.429608
f 212/1044/212 283/1045/283 466/1046/466 161/1047/161
vt 0.511209 0.413601
vt 0.512011 0.349604
vt 0.557036 0.338468
vt 0.556294 0.397594
f 213/1048/213 228/1049/228 195/1050/195 95/1051/95
vt 0.905283 0.165758
vt 0.935462 0.167104
vt 0.935468 0.170169
vt 0.905292 0.170251
f 214/1052/214 230/1053/230 216/1054/216 162/1055/162
vt 0.935468 0.170169
vt 0.935462 0.167104
vt 0.965640 0.168449
vt 0.965645 0.170086
f 216/1056/216 230/1057/230 196/1058/196 97/1059/97
vt 0.826218 0.735238
vt 0.870677 0.756445
vt 0.870720 0.819828
vt 0.826264 0.803449
f 217/1060/217 232/1061/232 219/1062/219 163/1063/163
vt 0.870720 0.819828
vt 0.870677 0.756445
vt 0.915137 0.777652
vt 0.915177 0.836207
f 219/1064/219 232/1065/232 197/1066/197 99/1067/99
vt 0.218508 0.031014
vt 0.185513 0.028004
vt 0.185659 0.025069
vt 0.218722 0.026717
f 220/1068/220 234/1069/234 222/1070/222 164/1071/164
vt 0.185659 0.025069
vt 0.185513 0.028004
vt 0.152518 0.024995
vt 0.152595 0.023422
f 222/1072/222 234/1073/234 198/1074/198 101/1075/101
vt 0.030469 0.456753
vt 0.075627 0.477629
vt 0.076440 0.541640
vt 0.031220 0.515891
f 235/1076/235 268/1077/268 242/1078/242 22/1079/22
vt 0.851039 0.056635
vt 0.818096 0.053629
vt 0.818241 0.050709
vt 0.851116 0.055083
f 236/1080/236 270/1081/270 244/1082/244 23/1083/23
vt 0.407565 0.894763
vt 0.452018 0.883211
vt 0.451975 0.946594
vt 0.407525 0.953318
f 237/1084/237 272/1085/272 246/1086/246 24/1087/24
vt 0.638431 0.170121
vt 0.668114 0.171965
vt 0.668072 0.174989
vt 0.638407 0.171735
f 238/1088/238 274/1089/274 240/1090/240 21/1091/21
vt 0.028967 0.338479
vt 0.074000 0.349606
vt 0.074813 0.413617
vt 0.029718 0.397616
f 239/1092/239 267/1093/267 253/1094/253 87/1095/87
vt 0.668072 0.174989
vt 0.668114 0.171965
vt 0.697798 0.173810
vt 0.697736 0.178243
f 240/1096/240 274/1097/274 260/1098/260 88/1099/88
vt 0.850883 0.059740
vt 0.817805 0.059469
vt 0.817950 0.056549
vt 0.850961 0.058188
f 241/1100/241 269/1101/269 256/1102/256 89/1103/89
vt 0.076440 0.541640
vt 0.075627 0.477629
vt 0.120784 0.498504
vt 0.121660 0.567389
f 242/1104/242 268/1105/268 251/1106/251 90/1107/90
vt 0.407643 0.777653
vt 0.452103 0.756446
vt 0.452060 0.819828
vt 0.407604 0.836208
f 243/1108/243 271/1109/271 259/1110/259 91/1111/91
vt 0.818241 0.050709
vt 0.818096 0.053629
vt 0.785153 0.050623
vt 0.785366 0.046335
f 244/1112/244 270/1113/270 254/1114/254 92/1115/92
vt 0.638477 0.166894
vt 0.668200 0.165919
vt 0.668157 0.168942
vt 0.638454 0.168508
f 245/1116/245 273/1117/273 262/1118/262 93/1119/93
vt 0.451975 0.946594
vt 0.452018 0.883211
vt 0.496471 0.871659
vt 0.496425 0.939870
f 246/1120/246 272/1121/272 257/1122/257 94/1123/94
vt 0.888182 0.060065
vt 0.888260 0.058515
vt 0.925480 0.060394
vt 0.925403 0.061942
f 247/1124/247 266/1125/266 250/1126/250 135/1127/135
vt 0.120784 0.498504
vt 0.075627 0.477629
vt 0.074813 0.413617
vt 0.119909 0.429618
f 251/1128/251 268/1129/268 253/1130/253 157/1131/157
vt 0.119033 0.360733
vt 0.209098 0.382988
vt 0.165004 0.445620
vt 0.119909 0.429618
f 252/1132/252 276/1133/276 465/1134/465 157/1135/157
vt 0.074813 0.413617
vt 0.075627 0.477629
vt 0.030469 0.456753
vt 0.029718 0.397616
f 253/1136/253 268/1137/268 235/1138/235 87/1139/87
vt 0.785153 0.050623
vt 0.818096 0.053629
vt 0.817950 0.056549
vt 0.784940 0.054910
f 254/1140/254 270/1141/270 256/1142/256 158/1143/158
vt 0.817950 0.056549
vt 0.818096 0.053629
vt 0.851039 0.056635
vt 0.850961 0.058188
f 256/1144/256 270/1145/270 236/1146/236 89/1147/89
vt 0.496471 0.871659
vt 0.452018 0.883211
vt 0.452060 0.819828
vt 0.496516 0.803449
f 257/1148/257 272/1149/272 259/1150/259 159/1151/159
vt 0.452060 0.819828
vt 0.452018 0.883211
vt 0.407565 0.894763
vt 0.407604 0.836208
f 259/1152/259 272/1153/272 237/1154/237 91/1155/91
vt 0.697798 0.173810
vt 0.668114 0.171965
vt 0.668157 0.168942
vt 0.697860 0.169376
f 260/1156/260 274/1157/274 262/1158/262 160/1159/160
vt 0.668157 0.168942
vt 0.668114 0.171965
vt 0.638431 0.170121
vt 0.638454 0.168508
f 262/1160/262 274/1161/274 238/1162/238 93/1163/93
vt 0.211100 0.540254
vt 0.210099 0.461621
vt 0.222398 0.511382
vt 0.212100 0.618887
f 275/1164/275 45/1165/45 104/1166/104 1/1167/1
vt 0.719267 0.044610
vt 0.785153 0.050623
vt 0.784940 0.054910
vt 0.718919 0.051633
f 277/1168/277 254/1169/254 158/1170/158 46/1171/46
vt 0.585376 0.848556
vt 0.496471 0.871659
vt 0.496516 0.803449
vt 0.585429 0.770690
f 278/1172/278 257/1173/257 159/1174/159 52/1175/52
vt 0.585481 0.692825
vt 0.496562 0.735239
vt 0.496608 0.667029
vt 0.585533 0.614959
f 279/1176/279 258/1177/258 92/1178/92 3/1179/3
vt 0.374969 0.540236
vt 0.465260 0.498478
vt 0.464397 0.567347
vt 0.373984 0.618848
f 283/1180/283 212/1181/212 96/1182/96 5/1183/5
vt 0.844925 0.163067
vt 0.905283 0.165758
vt 0.905292 0.170251
vt 0.844939 0.170416
f 284/1184/284 214/1185/214 162/1186/162 61/1187/61
vt 0.813338 0.451406
vt 0.797473 0.453698
vt 0.792140 0.446109
vt 0.808857 0.445030
f 289/1188/289 322/1189/322 296/1190/296 42/1191/42
vt 0.808720 0.440773
vt 0.791976 0.441043
vt 0.791922 0.439355
vt 0.808674 0.439355
f 290/1192/290 324/1193/324 298/1194/298 43/1195/43
vt 0.878911 0.463839
vt 0.893490 0.467036
vt 0.888987 0.475145
vt 0.875127 0.470652
f 291/1196/291 326/1197/326 300/1198/300 44/1199/44
vt 0.827408 0.471811
vt 0.814218 0.477982
vt 0.813474 0.476465
vt 0.826783 0.470536
f 292/1200/292 328/1201/328 294/1202/294 41/1203/41
vt 0.822301 0.464160
vt 0.808140 0.468876
vt 0.802807 0.461287
vt 0.817820 0.457783
f 293/1204/293 321/1205/321 307/1206/307 127/1207/127
vt 0.813474 0.476465
vt 0.814218 0.477982
vt 0.801028 0.484153
vt 0.800164 0.482394
f 294/1208/294 328/1209/328 314/1210/314 128/1211/128
vt 0.808811 0.443611
vt 0.792085 0.444420
vt 0.792031 0.442732
vt 0.808766 0.442192
f 295/1212/295 323/1213/323 310/1214/310 129/1215/129
vt 0.792140 0.446109
vt 0.797473 0.453698
vt 0.781608 0.455989
vt 0.775422 0.447188
f 296/1216/296 322/1217/322 305/1218/305 130/1219/130
vt 0.886479 0.450212
vt 0.902498 0.450818
vt 0.897994 0.458927
vt 0.882695 0.457025
f 297/1220/297 325/1221/325 313/1222/313 131/1223/131
vt 0.791922 0.439355
vt 0.791976 0.441043
vt 0.775233 0.441313
vt 0.775170 0.439355
f 298/1224/298 324/1225/324 308/1226/308 132/1227/132
vt 0.828659 0.474359
vt 0.815706 0.481015
vt 0.814962 0.479499
vt 0.828033 0.473085
f 299/1228/299 327/1229/327 316/1230/316 133/1231/133
vt 0.888987 0.475145
vt 0.893490 0.467036
vt 0.908070 0.470234
vt 0.902847 0.479638
f 300/1232/300 326/1233/326 311/1234/311 134/1235/134
vt 0.883997 0.448833
vt 0.885238 0.449523
vt 0.881454 0.456336
vt 0.880213 0.455647
f 301/1236/301 320/1237/320 304/1238/304 144/1239/144
vt 0.781608 0.455989
vt 0.797473 0.453698
vt 0.802807 0.461287
vt 0.787793 0.464791
f 305/1240/305 322/1241/322 307/1242/307 177/1243/177
vt 0.802807 0.461287
vt 0.797473 0.453698
vt 0.813338 0.451406
vt 0.817820 0.457783
f 307/1244/307 322/1245/322 289/1246/289 127/1247/127
vt 0.775233 0.441313
vt 0.791976 0.441043
vt 0.792031 0.442732
vt 0.775296 0.443271
f 308/1248/308 324/1249/324 310/1250/310 178/1251/178
vt 0.792031 0.442732
vt 0.791976 0.441043
vt 0.808720 0.440773
vt 0.808766 0.442192
f 310/1252/310 324/1253/324 290/1254/290 129/1255/129
vt 0.908070 0.470234
vt 0.893490 0.467036
vt 0.897994 0.458927
vt 0.913293 0.460829
f 311/1256/311 326/1257/326 313/1258/313 179/1259/179
vt 0.897994 0.458927
vt 0.893490 0.467036
vt 0.878911 0.463839
vt 0.882695 0.457025
f 313/1260/313 326/1261/326 291/1262/291 131/1263/131
vt 0.801028 0.484153
vt 0.814218 0.477982
vt 0.814962 0.479499
vt 0.801891 0.485912
f 314/1264/314 328/1265/328 316/1266/316 180/1267/180
vt 0.814962 0.479499
vt 0.814218 0.477982
vt 0.827408 0.471811
vt 0.828033 0.473085
f 316/1268/316 328/1269/328 292/1270/292 133/1271/133
vt 0.729667 0.351446
vt 0.743828 0.356163
vt 0.738495 0.363752
vt 0.725186 0.357823
f 329/1272/329 362/1273/362 336/1274/336 38/1275/38
vt 0.723310 0.361646
vt 0.736262 0.368302
vt 0.735518 0.369819
vt 0.722684 0.362920
f 330/1276/330 364/1277/364 338/1278/338 39/1279/39
vt 0.942539 0.360365
vt 0.926521 0.360971
vt 0.922017 0.352862
vt 0.938755 0.353551
f 331/1280/331 366/1281/366 340/1282/340 40/1283/40
vt 0.743157 0.330898
vt 0.759883 0.331707
vt 0.759829 0.333395
vt 0.743111 0.332316
f 332/1284/332 368/1285/368 334/1286/334 37/1287/37
vt 0.738630 0.338693
vt 0.754495 0.340985
vt 0.749162 0.348574
vt 0.734148 0.345070
f 333/1288/333 361/1289/361 347/1290/347 119/1291/119
vt 0.759829 0.333395
vt 0.759883 0.331707
vt 0.776609 0.332516
vt 0.776546 0.334475
f 334/1292/334 368/1293/368 354/1294/354 120/1295/120
vt 0.724560 0.359097
vt 0.737751 0.365268
vt 0.737006 0.366785
vt 0.723935 0.360372
f 335/1296/335 363/1297/363 350/1298/350 121/1299/121
vt 0.738495 0.363752
vt 0.743828 0.356163
vt 0.757989 0.360879
vt 0.751804 0.369681
f 336/1300/336 362/1301/362 345/1302/345 122/1303/122
vt 0.950108 0.373991
vt 0.935528 0.377189
vt 0.931025 0.369080
vt 0.946324 0.367178
f 337/1304/337 365/1305/365 353/1306/353 123/1307/123
vt 0.735518 0.369819
vt 0.736262 0.368302
vt 0.749215 0.374958
vt 0.748352 0.376717
f 338/1308/338 364/1309/364 348/1310/348 124/1311/124
vt 0.743248 0.328060
vt 0.759992 0.328330
vt 0.759938 0.330018
vt 0.743203 0.329479
f 339/1312/339 367/1313/367 356/1314/356 125/1315/125
vt 0.922017 0.352862
vt 0.926521 0.360971
vt 0.910502 0.361577
vt 0.905279 0.352173
f 340/1316/340 366/1317/366 351/1318/351 126/1319/126
vt 0.952590 0.372613
vt 0.951349 0.373302
vt 0.947565 0.366489
vt 0.948806 0.365800
f 341/1320/341 360/1321/360 344/1322/344 137/1323/137
vt 0.757989 0.360879
vt 0.743828 0.356163
vt 0.749162 0.348574
vt 0.764175 0.352078
f 345/1324/345 362/1325/362 347/1326/347 173/1327/173
vt 0.749162 0.348574
vt 0.743828 0.356163
vt 0.729667 0.351446
vt 0.734148 0.345070
f 347/1328/347 362/1329/362 329/1330/329 119/1331/119
vt 0.749215 0.374958
vt 0.736262 0.368302
vt 0.737006 0.366785
vt 0.750078 0.373199
f 348/1332/348 364/1333/364 350/1334/350 174/1335/174
vt 0.737006 0.366785
vt 0.736262 0.368302
vt 0.723310 0.361646
vt 0.723935 0.360372
f 350/1336/350 364/1337/364 330/1338/330 121/1339/121
vt 0.910502 0.361577
vt 0.926521 0.360971
vt 0.931025 0.369080
vt 0.915726 0.370982
f 351/1340/351 366/1341/366 353/1342/353 175/1343/175
vt 0.931025 0.369080
vt 0.926521 0.360971
vt 0.942539 0.360365
vt 0.946324 0.367178
f 353/1344/353 366/1345/366 331/1346/331 123/1347/123
vt 0.776609 0.332516
vt 0.759883 0.331707
vt 0.759938 0.330018
vt 0.776672 0.330558
f 354/1348/354 368/1349/368 356/1350/356 176/1351/176
vt 0.759938 0.330018
vt 0.759883 0.331707
vt 0.743157 0.330898
vt 0.743203 0.329479
f 356/1352/356 368/1353/368 332/1354/332 125/1355/125
vt 0.248489 0.340969
vt 0.254204 0.327159
vt 0.260041 0.410583
vt 0.248449 0.361874
f 374/1356/374 468/1357/468 167/1358/167 107/1359/107
vt 0.275828 0.853453
vt 0.280141 0.853454
vt 0.280627 0.893704
vt 0.276474 0.893703
f 385/1360/385 457/1361/457 445/1362/445 402/1363/402
vt 0.293080 0.853456
vt 0.293086 0.893708
vt 0.288933 0.893707
vt 0.288767 0.853455
f 387/1364/387 398/1365/398 447/1366/447 456/1367/456
vt 0.293080 0.853456
vt 0.297393 0.853457
vt 0.297239 0.893710
vt 0.293086 0.893708
f 387/1368/387 459/1369/459 448/1370/448 398/1371/398
vt 0.285105 0.933957
vt 0.281112 0.933955
vt 0.280869 0.913830
vt 0.284942 0.913832
f 392/1372/392 438/1373/438 451/1374/451 446/1375/446
vt 0.285105 0.933957
vt 0.284942 0.913832
vt 0.289016 0.913833
vt 0.289098 0.933959
f 392/1376/392 446/1377/446 452/1378/452 441/1379/441
vt 0.508259 0.013645
vt 0.510843 0.013773
vt 0.510097 0.028829
vt 0.507512 0.028700
f 393/1380/393 421/1381/421 438/1382/438 392/1383/392
vt 0.643906 0.377902
vt 0.619466 0.483280
vt 0.617447 0.470044
vt 0.644615 0.338280
f 394/1384/394 410/1385/410 464/1386/464 425/1387/425
vt 0.643906 0.377902
vt 0.648277 0.377902
vt 0.647213 0.457146
vt 0.642488 0.457146
f 394/1388/394 430/1389/430 460/1390/460 75/1391/75
vt 0.301078 0.933964
vt 0.297085 0.933962
vt 0.297162 0.913836
vt 0.301235 0.913838
f 395/1392/395 439/1393/439 453/1394/453 449/1395/449
vt 0.301078 0.933964
vt 0.301235 0.913838
vt 0.305308 0.913839
vt 0.305071 0.933966
f 395/1396/395 449/1397/449 454/1398/454 442/1399/442
vt 0.497923 0.013137
vt 0.500507 0.013264
vt 0.499758 0.028311
vt 0.497173 0.028181
f 396/1400/396 422/1401/422 439/1402/439 395/1403/395
vt 0.678870 0.377903
vt 0.703312 0.483280
vt 0.699275 0.509750
vt 0.680289 0.457146
f 397/1404/397 411/1405/411 154/1406/154 85/1407/85
vt 0.678870 0.377903
vt 0.674500 0.377903
vt 0.673968 0.338281
vt 0.678161 0.338281
f 397/1408/397 431/1409/431 436/1410/436 427/1411/427
vt 0.293086 0.893708
vt 0.293089 0.913835
vt 0.289016 0.913833
vt 0.288933 0.893707
f 398/1412/398 440/1413/440 452/1414/452 447/1415/447
vt 0.661388 0.377902
vt 0.661388 0.338280
vt 0.665581 0.338280
vt 0.665759 0.377902
f 399/1416/399 423/1417/423 437/1418/437 433/1419/433
vt 0.661388 0.377902
vt 0.665759 0.377902
vt 0.666114 0.457146
vt 0.661389 0.457146
f 399/1420/399 433/1421/433 462/1422/462 155/1423/155
vt 0.651938 0.457146
vt 0.652647 0.377902
vt 0.657018 0.377902
vt 0.656664 0.457146
f 400/1424/400 408/1425/408 428/1426/428 461/1427/461
vt 0.651938 0.457146
vt 0.647213 0.457146
vt 0.648277 0.377902
vt 0.652647 0.377902
f 400/1428/400 460/1429/460 430/1430/430 408/1431/408
vt 0.276474 0.893703
vt 0.280627 0.893704
vt 0.280869 0.913830
vt 0.276796 0.913828
f 402/1432/402 445/1433/445 451/1434/451 443/1435/443
vt 0.309698 0.893714
vt 0.305545 0.893712
vt 0.306018 0.853459
vt 0.310331 0.853460
f 403/1436/403 450/1437/450 458/1438/458 386/1439/386
vt 0.301706 0.853458
vt 0.301392 0.893711
vt 0.297239 0.893710
vt 0.297393 0.853457
f 404/1440/404 407/1441/407 448/1442/448 459/1443/459
vt 0.301706 0.853458
vt 0.306018 0.853459
vt 0.305545 0.893712
vt 0.301392 0.893711
f 404/1444/404 458/1445/458 450/1446/450 407/1447/407
vt 0.284454 0.853454
vt 0.284780 0.893706
vt 0.280627 0.893704
vt 0.280141 0.853454
f 405/1448/405 406/1449/406 445/1450/445 457/1451/457
vt 0.284454 0.853454
vt 0.288767 0.853455
vt 0.288933 0.893707
vt 0.284780 0.893706
f 405/1452/405 456/1453/456 447/1454/447 406/1455/406
vt 0.284780 0.893706
vt 0.284942 0.913832
vt 0.280869 0.913830
vt 0.280627 0.893704
f 406/1456/406 446/1457/446 451/1458/451 445/1459/445
vt 0.284780 0.893706
vt 0.288933 0.893707
vt 0.289016 0.913833
vt 0.284942 0.913832
f 406/1460/406 447/1461/447 452/1462/452 446/1463/446
vt 0.301392 0.893711
vt 0.301235 0.913838
vt 0.297162 0.913836
vt 0.297239 0.893710
f 407/1464/407 449/1465/449 453/1466/453 448/1467/448
vt 0.301392 0.893711
vt 0.305545 0.893712
vt 0.305308 0.913839
vt 0.301235 0.913838
f 407/1468/407 450/1469/450 454/1470/454 449/1471/449
vt 0.652647 0.377902
vt 0.653002 0.338280
vt 0.657195 0.338280
vt 0.657018 0.377902
f 408/1472/408 429/1473/429 434/1474/434 428/1475/428
vt 0.652647 0.377902
vt 0.648277 0.377902
vt 0.648809 0.338280
vt 0.653002 0.338280
f 408/1476/408 430/1477/430 435/1478/435 429/1479/429
vt 0.670129 0.377902
vt 0.674500 0.377903
vt 0.675564 0.457146
vt 0.670839 0.457146
f 409/1480/409 431/1481/431 463/1482/463 401/1483/401
vt 0.670129 0.377902
vt 0.669774 0.338281
vt 0.673968 0.338281
vt 0.674500 0.377903
f 409/1484/409 432/1485/432 436/1486/436 431/1487/431
vt 0.670129 0.377902
vt 0.665759 0.377902
vt 0.665581 0.338280
vt 0.669774 0.338281
f 409/1488/409 433/1489/433 437/1490/437 432/1491/432
vt 0.312021 0.746116
vt 0.293064 0.746117
vt 0.293060 0.719282
vt 0.312443 0.719280
f 417/1492/417 418/1493/418 186/1494/186 184/1495/184
vt 0.649340 0.298658
vt 0.648809 0.338280
vt 0.644615 0.338280
vt 0.645324 0.298658
f 421/1496/421 435/1497/435 425/1498/425 14/1499/14
vt 0.665404 0.298659
vt 0.665581 0.338280
vt 0.661388 0.338280
vt 0.661388 0.298658
f 422/1500/422 437/1501/437 423/1502/423 80/1503/80
vt 0.661388 0.338280
vt 0.657195 0.338280
vt 0.657372 0.298658
vt 0.661388 0.298658
f 423/1504/423 434/1505/434 424/1506/424 80/1507/80
vt 0.657372 0.298658
vt 0.657195 0.338280
vt 0.653002 0.338280
vt 0.653356 0.298658
f 424/1508/424 434/1509/434 429/1510/429 393/1511/393
vt 0.644615 0.338280
vt 0.648809 0.338280
vt 0.648277 0.377902
vt 0.643906 0.377902
f 425/1512/425 435/1513/435 430/1514/430 394/1515/394
vt 0.673436 0.298659
vt 0.673968 0.338281
vt 0.669774 0.338281
vt 0.669420 0.298659
f 426/1516/426 436/1517/436 432/1518/432 396/1519/396
vt 0.678161 0.338281
vt 0.705330 0.470044
vt 0.703312 0.483280
vt 0.678870 0.377903
f 427/1520/427 455/1521/455 411/1522/411 397/1523/397
vt 0.657018 0.377902
vt 0.657195 0.338280
vt 0.661388 0.338280
vt 0.661388 0.377902
f 428/1524/428 434/1525/434 423/1526/423 399/1527/399
vt 0.653002 0.338280
vt 0.648809 0.338280
vt 0.649340 0.298658
vt 0.653356 0.298658
f 429/1528/429 435/1529/435 421/1530/421 393/1531/393
vt 0.669774 0.338281
vt 0.665581 0.338280
vt 0.665404 0.298659
vt 0.669420 0.298659
f 432/1532/432 437/1533/437 422/1534/422 396/1535/396
vt 0.510097 0.028829
vt 0.510843 0.013773
vt 0.513427 0.013900
vt 0.512682 0.028959
f 438/1536/438 421/1537/421 14/1538/14 13/1539/13
vt 0.499758 0.028311
vt 0.500507 0.013264
vt 0.503091 0.013391
vt 0.502343 0.028440
f 439/1540/439 422/1541/422 80/1542/80 79/1543/79
vt 0.504927 0.028570
vt 0.505675 0.013518
vt 0.508259 0.013645
vt 0.507512 0.028700
f 441/1544/441 424/1545/424 393/1546/393 392/1547/392
vt 0.494588 0.028051
vt 0.495340 0.013009
vt 0.497923 0.013137
vt 0.497173 0.028181
f 442/1548/442 426/1549/426 396/1550/396 395/1551/395
vt 0.305071 0.933966
vt 0.305308 0.913839
vt 0.309381 0.913841
vt 0.309064 0.933968
f 442/1552/442 454/1553/454 444/1554/444 19/1555/19
vt 0.309381 0.913841
vt 0.305308 0.913839
vt 0.305545 0.893712
vt 0.309698 0.893714
f 444/1556/444 454/1557/454 450/1558/450 403/1559/403
vt 0.297239 0.893710
vt 0.297162 0.913836
vt 0.293089 0.913835
vt 0.293086 0.893708
f 448/1560/448 453/1561/453 440/1562/440 398/1563/398
vt 0.666114 0.457146
vt 0.665759 0.377902
vt 0.670129 0.377902
vt 0.670839 0.457146
f 462/1564/462 433/1565/433 409/1566/409 401/1567/401
vt 0.718223 0.065678
vt 0.718919 0.051633
vt 0.784940 0.054910
f 1/1568/1 46/1569/46 158/1570/158
vt 0.784727 0.059198
f 1/1568/1 158/1570/158 255/1571/255
vt 0.784514 0.063485
f 1/1568/1 255/1571/255 90/1572/90
vt 0.585533 0.614959
vt 0.612593 0.615297
vt 0.612518 0.770868
f 3/1573/3 53/1574/53 138/1575/138
vt 0.585429 0.770690
f 3/1573/3 138/1575/138 52/1576/52
vt 0.585481 0.692825
f 3/1573/3 52/1576/52 279/1577/279
vt 0.585533 0.614959
vt 0.615429 0.456809
vt 0.617447 0.470044
f 3/1578/3 54/1579/54 464/1580/464
vt 0.619466 0.483280
f 3/1578/3 464/1580/464 410/1581/410
vt 0.623503 0.509750
f 3/1578/3 410/1581/410 141/1582/141
vt 0.612593 0.615297
f 3/1578/3 141/1582/141 53/1583/53
vt 0.585324 0.926421
vt 0.585376 0.848556
vt 0.585429 0.770690
f 4/1584/4 278/1585/278 52/1586/52
vt 0.612518 0.770868
f 4/1584/4 52/1586/52 138/1587/138
vt 0.612444 0.926440
f 4/1584/4 138/1587/138 55/1588/55
vt 0.284147 0.044054
vt 0.218294 0.035311
vt 0.218508 0.031014
f 5/1589/5 96/1590/96 220/1591/220
vt 0.218722 0.026717
f 5/1589/5 220/1591/220 164/1592/164
vt 0.284848 0.030013
f 5/1589/5 164/1592/164 58/1593/58
vt 0.844967 0.185112
vt 0.829370 0.184207
vt 0.829354 0.170430
f 6/1594/6 63/1595/63 153/1596/153
vt 0.844939 0.170416
f 6/1594/6 153/1596/153 61/1597/61
vt 0.844953 0.177764
f 6/1594/6 61/1597/61 285/1598/285
vt 0.377923 0.304397
vt 0.376938 0.383010
vt 0.375953 0.461623
f 6/1599/6 282/1600/282 57/1601/57
vt 0.364918 0.411263
f 6/1599/6 57/1601/57 169/1602/169
vt 0.366170 0.311145
f 6/1599/6 169/1602/169 112/1603/112
vt 0.844911 0.155719
vt 0.844925 0.163067
vt 0.844939 0.170416
f 8/1604/8 284/1605/284 61/1606/61
vt 0.829354 0.170430
f 8/1604/8 61/1606/61 153/1607/153
vt 0.829338 0.156654
f 8/1604/8 153/1607/153 68/1608/68
vt 0.271308 0.306637
vt 0.271470 0.382965
vt 0.271632 0.459293
f 10/1609/10 187/1610/187 69/1611/69
vt 0.260041 0.410583
f 10/1609/10 69/1611/69 167/1612/167
vt 0.259919 0.313350
f 10/1609/10 167/1612/167 108/1613/108
vt 0.639652 0.615634
vt 0.612593 0.615297
vt 0.623503 0.509750
f 11/1614/11 53/1615/53 141/1616/141
vt 0.642488 0.457146
f 11/1614/11 141/1616/141 75/1617/75
vt 0.641070 0.536390
f 11/1614/11 75/1617/75 190/1618/190
vt 0.314132 0.611937
vt 0.344058 0.615392
vt 0.332393 0.721584
f 15/1619/15 59/1620/59 150/1621/150
vt 0.321996 0.747268
f 15/1619/15 150/1621/150 194/1622/194
vt 0.312443 0.719280
f 15/1619/15 194/1622/194 184/1623/184
vt 0.313287 0.665608
f 15/1619/15 184/1623/184 183/1624/183
vt 0.815571 0.214617
vt 0.830269 0.199865
vt 0.833532 0.203115
f 16/1625/16 62/1626/62 172/1627/172
vt 0.836795 0.206366
f 16/1625/16 172/1627/172 117/1628/117
vt 0.834947 0.208220
f 16/1625/16 117/1628/117 384/1629/384
vt 0.833100 0.210074
f 16/1625/16 384/1629/384 36/1630/36
vt 0.824335 0.212346
f 16/1625/16 36/1630/36 118/1631/118
vt 0.683127 0.615634
vt 0.661389 0.615634
vt 0.661389 0.536390
f 17/1632/17 76/1633/76 192/1634/192
vt 0.671548 0.536390
f 17/1632/17 192/1634/192 413/1635/413
vt 0.681708 0.536390
f 17/1632/17 413/1635/413 191/1636/191
vt 0.772613 0.184023
vt 0.772765 0.170365
vt 0.772917 0.156708
f 51/1637/51 143/1638/143 56/1639/56
vt 0.777326 0.148699
f 51/1637/51 56/1639/56 142/1640/142
vt 0.787256 0.145179
f 51/1637/51 142/1640/142 77/1641/77
vt 0.801076 0.145055
f 51/1637/51 77/1641/77 149/1642/149
vt 0.814896 0.144930
f 51/1637/51 149/1642/149 86/1643/86
vt 0.824901 0.148527
f 51/1637/51 86/1643/86 156/1644/156
vt 0.829338 0.156654
f 51/1637/51 156/1644/156 68/1645/68
vt 0.829354 0.170430
f 51/1637/51 68/1645/68 153/1646/153
vt 0.829370 0.184207
f 51/1637/51 153/1646/153 63/1647/63
vt 0.824770 0.194344
f 51/1637/51 63/1647/63 151/1648/151
vt 0.814672 0.198959
f 51/1637/51 151/1648/151 83/1649/83
vt 0.800878 0.199006
f 51/1637/51 83/1649/83 152/1650/152
vt 0.787083 0.199052
f 51/1637/51 152/1650/152 72/1651/72
vt 0.777077 0.194285
f 51/1637/51 72/1651/72 140/1652/140
vt 0.772917 0.156708
vt 0.772765 0.170365
vt 0.757266 0.170245
f 56/1653/56 143/1654/143 49/1655/49
vt 0.757366 0.162991
f 56/1653/56 49/1655/49 281/1656/281
vt 0.757467 0.155737
f 56/1653/56 281/1656/281 4/1657/4
vt 0.388075 0.035987
vt 0.284848 0.030013
vt 0.389152 0.014427
f 60/1658/60 58/1659/58 66/1660/66
vt 0.492756 0.012882
f 60/1658/60 66/1660/66 20/1661/20
vt 0.492003 0.027921
f 60/1658/60 20/1661/20 19/1662/19
vt 0.710186 0.615296
vt 0.699275 0.509750
vt 0.703312 0.483280
f 65/1663/65 154/1664/154 411/1665/411
vt 0.705330 0.470044
f 65/1663/65 411/1665/411 455/1666/455
vt 0.707349 0.456809
f 65/1663/65 455/1666/455 66/1667/66
vt 0.737246 0.614958
f 65/1663/65 66/1667/66 7/1668/7
vt 0.710337 0.926440
vt 0.710262 0.770868
vt 0.737351 0.770690
f 67/1669/67 148/1670/148 64/1671/64
vt 0.737404 0.848556
f 67/1669/67 64/1671/64 287/1672/287
vt 0.737457 0.926422
f 67/1669/67 287/1672/287 8/1673/8
vt 0.274538 0.772951
vt 0.274108 0.746118
vt 0.293064 0.746117
f 70/1674/70 416/1675/416 418/1676/418
vt 0.293068 0.772952
f 70/1674/70 418/1676/418 145/1677/145
vt 0.283803 0.772952
f 70/1674/70 145/1677/145 415/1678/415
vt 0.311598 0.772952
vt 0.310331 0.853460
vt 0.306018 0.853459
f 82/1679/82 386/1680/386 458/1681/458
vt 0.301706 0.853458
f 82/1679/82 458/1681/458 404/1682/404
vt 0.302333 0.772952
f 82/1679/82 404/1682/404 414/1683/414
vt 0.680289 0.457146
vt 0.681708 0.536390
vt 0.671548 0.536390
f 85/1684/85 191/1685/191 413/1686/413
vt 0.670839 0.457146
f 85/1684/85 413/1686/413 401/1687/401
vt 0.675564 0.457146
f 85/1684/85 401/1687/401 463/1688/463
vt 0.219852 0.311109
vt 0.221125 0.411246
vt 0.210099 0.461621
f 106/1689/106 165/1690/165 45/1691/45
vt 0.209098 0.382988
f 106/1689/106 45/1691/45 276/1692/276
vt 0.208098 0.304355
f 106/1689/106 276/1692/276 2/1693/2
vt 0.326090 0.313361
vt 0.325999 0.410596
vt 0.314431 0.459315
f 118/1694/118 171/1695/171 81/1696/81
vt 0.314581 0.383005
f 118/1694/118 81/1696/81 188/1697/188
vt 0.314731 0.306694
f 118/1694/118 188/1697/188 16/1698/16
vt 0.293068 0.772952
vt 0.302333 0.772952
vt 0.301706 0.853458
f 145/1699/145 414/1700/414 404/1701/404
vt 0.297393 0.853457
f 145/1699/145 404/1701/404 459/1702/459
vt 0.293080 0.853456
f 145/1699/145 459/1702/459 387/1703/387
vt 0.661389 0.457146
vt 0.666114 0.457146
vt 0.670839 0.457146
f 155/1704/155 462/1705/462 401/1706/401
vt 0.671548 0.536390
f 155/1704/155 401/1706/401 413/1707/413
vt 0.661389 0.536390
f 155/1704/155 413/1707/413 192/1708/192
vt 0.272817 0.665617
vt 0.273677 0.719284
vt 0.264131 0.747274
f 181/1709/181 182/1710/182 193/1711/193
vt 0.253725 0.721597
f 181/1709/181 193/1711/193 139/1712/139
vt 0.242028 0.615418
f 181/1709/181 139/1712/139 47/1713/47
vt 0.271957 0.611949
f 181/1709/181 47/1713/47 9/1714/9
vt 0.641070 0.536390
vt 0.651230 0.536390
vt 0.661389 0.536390
f 190/1715/190 412/1716/412 192/1717/192
vt 0.661389 0.615634
f 190/1715/190 192/1717/192 76/1718/76
vt 0.639652 0.615634
f 190/1715/190 76/1718/76 11/1719/11
vt 0.681708 0.536390
vt 0.680289 0.457146
vt 0.699275 0.509750
f 191/1720/191 85/1721/85 154/1722/154
vt 0.710186 0.615296
f 191/1720/191 154/1722/154 65/1723/65
vt 0.683127 0.615634
f 191/1720/191 65/1723/65 17/1724/17
vt 0.661389 0.536390
vt 0.651230 0.536390
vt 0.651938 0.457146
f 192/1725/192 412/1726/412 400/1727/400
vt 0.656664 0.457146
f 192/1725/192 400/1727/400 461/1728/461
vt 0.661389 0.457146
f 192/1725/192 461/1728/461 155/1729/155
vt 0.757166 0.177498
vt 0.757266 0.170245
vt 0.772765 0.170365
f 280/1730/280 49/1731/49 143/1732/143
vt 0.772613 0.184023
f 280/1730/280 143/1732/143 51/1733/51
vt 0.757065 0.184752
f 280/1730/280 51/1733/51 2/1734/2
vt 0.737298 0.692824
vt 0.737351 0.770690
vt 0.710262 0.770868
f 286/1735/286 64/1736/64 148/1737/148
vt 0.710186 0.615296
f 286/1735/286 148/1737/148 65/1738/65
vt 0.737246 0.614958
f 286/1735/286 65/1738/65 7/1739/7
vt 0.231879 0.339367
vt 0.232152 0.360871
vt 0.221125 0.411246
f 369/1740/369 103/1741/103 165/1742/165
vt 0.219852 0.311109
f 369/1740/369 165/1742/165 106/1743/106
vt 0.231607 0.317864
f 369/1740/369 106/1743/106 30/1744/30
vt 0.232424 0.382374
vt 0.232696 0.403878
vt 0.222398 0.511382
f 370/1745/370 29/1746/29 104/1747/104
vt 0.221125 0.411246
f 370/1745/370 104/1747/104 165/1748/165
vt 0.232152 0.360871
f 370/1745/370 165/1748/165 103/1749/103
vt 0.766707 0.208070
vt 0.764888 0.206181
vt 0.768212 0.202981
f 371/1750/371 105/1751/105 166/1752/166
vt 0.771536 0.199781
f 371/1750/371 166/1752/166 50/1753/50
vt 0.786006 0.214810
f 371/1750/371 50/1753/50 10/1754/10
vt 0.777266 0.212385
f 371/1750/371 10/1754/10 108/1755/108
vt 0.768526 0.209959
f 371/1750/371 108/1755/108 31/1756/31
vt 0.763070 0.204292
vt 0.761251 0.202403
vt 0.759158 0.193578
f 372/1757/372 30/1758/30 106/1759/106
vt 0.768212 0.202981
f 372/1757/372 106/1759/106 166/1760/166
vt 0.764888 0.206181
f 372/1757/372 166/1760/166 105/1761/105
vt 0.248408 0.382779
vt 0.248449 0.361874
vt 0.260041 0.410583
f 373/1762/373 107/1763/107 167/1764/167
vt 0.260162 0.507817
f 373/1762/373 167/1764/167 110/1765/110
vt 0.248367 0.403685
f 373/1762/373 110/1765/110 32/1766/32
vt 0.236614 0.403829
vt 0.240532 0.403781
vt 0.241280 0.509600
f 375/1767/375 109/1768/109 168/1769/168
vt 0.222398 0.511382
f 375/1767/375 168/1769/168 104/1770/104
vt 0.232696 0.403878
f 375/1767/375 104/1770/104 29/1771/29
vt 0.244450 0.403733
vt 0.248367 0.403685
vt 0.260162 0.507817
f 376/1772/376 32/1773/32 110/1774/110
vt 0.241280 0.509600
f 376/1772/376 110/1774/110 168/1775/168
vt 0.240532 0.403781
f 376/1772/376 168/1775/168 109/1776/109
vt 0.353614 0.382408
vt 0.353882 0.360903
vt 0.364918 0.411263
f 377/1777/377 111/1778/111 169/1779/169
vt 0.363665 0.511381
f 377/1777/377 169/1779/169 114/1780/114
vt 0.353346 0.403914
f 377/1777/377 114/1780/114 34/1781/34
vt 0.354150 0.339398
vt 0.354418 0.317892
vt 0.366170 0.311145
f 378/1782/378 33/1783/33 112/1784/112
vt 0.364918 0.411263
f 378/1782/378 112/1784/112 169/1785/169
vt 0.353882 0.360903
f 378/1782/378 169/1785/169 111/1786/111
vt 0.341600 0.403771
vt 0.345515 0.403818
vt 0.344787 0.509605
f 379/1787/379 113/1788/113 170/1789/170
vt 0.325908 0.507830
f 379/1787/379 170/1789/170 116/1790/116
vt 0.337684 0.403723
f 379/1787/379 116/1790/116 35/1791/35
vt 0.349431 0.403866
vt 0.353346 0.403914
vt 0.363665 0.511381
f 380/1792/380 34/1793/34 114/1794/114
vt 0.344787 0.509605
f 380/1792/380 114/1794/114 170/1795/170
vt 0.345515 0.403818
f 380/1792/380 170/1795/170 113/1796/113
vt 0.337625 0.382799
vt 0.337684 0.403723
vt 0.325908 0.507830
f 382/1797/382 35/1798/35 116/1799/116
vt 0.325999 0.410596
f 382/1797/382 116/1799/116 171/1800/171
vt 0.337567 0.361876
f 382/1797/382 171/1800/171 115/1801/115
vt 0.838642 0.204512
vt 0.836795 0.206366
vt 0.833532 0.203115
f 383/1802/383 117/1803/117 172/1804/172
vt 0.842728 0.193885
f 383/1802/383 172/1804/172 112/1805/112
vt 0.840490 0.202657
f 383/1802/383 112/1805/112 33/1806/33
vt 0.293080 0.853456
vt 0.288767 0.853455
vt 0.284454 0.853454
f 387/1807/387 456/1808/456 405/1809/405
vt 0.283803 0.772952
f 387/1807/387 405/1809/405 415/1810/415
vt 0.293068 0.772952
f 387/1807/387 415/1810/415 145/1811/145
vt 0.315530 0.840618
vt 0.310331 0.853460
vt 0.311598 0.772952
f 389/1812/389 386/1813/386 82/1814/82
vt 0.320379 0.770606
f 389/1812/389 82/1814/82 420/1815/420
vt 0.318763 0.793943
f 389/1812/389 420/1815/420 391/1816/391
vt 0.267378 0.793944
vt 0.265755 0.770609
vt 0.274538 0.772951
f 390/1817/390 419/1818/419 70/1819/70
vt 0.275828 0.853453
f 390/1817/390 70/1819/70 385/1820/385
vt 0.270625 0.840614
f 390/1817/390 385/1820/385 388/1821/388
vt 0.302333 0.772952
vt 0.293068 0.772952
vt 0.293064 0.746117
f 414/1822/414 145/1823/145 418/1824/418
vt 0.312021 0.746116
f 414/1822/414 418/1824/418 417/1825/417
vt 0.311598 0.772952
f 414/1822/414 417/1825/417 82/1826/82
vt 0.283803 0.772952
vt 0.284454 0.853454
vt 0.280141 0.853454
f 415/1827/415 405/1828/405 457/1829/457
vt 0.275828 0.853453
f 415/1827/415 457/1829/457 385/1830/385
vt 0.274538 0.772951
f 415/1827/415 385/1830/385 70/1831/70
vt 0.647213 0.457146
vt 0.651938 0.457146
vt 0.651230 0.536390
f 460/1832/460 400/1833/400 412/1834/412
vt 0.641070 0.536390
f 460/1832/460 412/1834/412 190/1835/190
vt 0.642488 0.457146
f 460/1832/460 190/1835/190 75/1836/75
