mtllib entourage-shield.mtl
usemtl tex0_0
v -3.337742 0.001946 -0.624845
vn -0.970173 -0.052981 0.236554
v -2.883861 0.001946 0.659472
vn -0.910080 -0.057315 0.410451
v -2.713315 0.341283 0.368098
vn -0.554836 0.804055 0.213664
v -3.164107 0.234528 -0.698359
vn -0.610200 0.779489 0.141609
v 3.264752 0.341283 -1.851044
vn 0.558011 0.829204 0.032320
v 2.232286 0.623408 -0.506027
vn 0.297566 0.952669 0.062260
v 3.194716 0.234528 -0.698359
vn 0.610200 0.779489 0.141609
v 2.743924 0.341283 0.368098
vn 0.554836 0.804055 0.213664
v 3.264752 -0.333615 -2.065015
vn 0.537741 -0.842745 0.024812
v 3.608907 0.001946 -2.299383
vn 0.999702 0.006775 -0.023469
v 3.368351 0.001946 -0.624845
vn 0.970173 -0.052981 0.236554
v 3.194716 -0.228957 -0.793457
vn 0.562890 -0.816136 0.130682
v -3.234143 0.341283 -1.851044
vn -0.558011 0.829204 0.032320
v -3.578298 0.001946 -2.299383
vn -0.999702 0.006775 -0.023469
v -3.234143 -0.333615 -2.065015
vn -0.537741 -0.842745 0.024812
v -2.201677 -0.604411 -1.361909
vn -0.265730 -0.962906 0.046908
v -3.164107 -0.228957 -0.793457
vn -0.562890 -0.816136 0.130682
v -2.713315 -0.333615 0.154127
vn -0.492767 -0.851859 0.177531
v -0.937845 0.001946 -4.551498
vn -0.087711 0.219645 -0.971629
v -2.238214 0.001946 -4.387584
vn -0.384726 0.152047 -0.910422
v -2.115382 0.339227 -4.141012
vn -0.219338 0.800136 -0.558277
v -0.907138 0.362224 -4.191973
vn -0.026887 0.856304 -0.515772
v -0.490422 -0.206080 4.464056
vn -0.700929 -0.175087 0.691407
v 0.015304 -0.235799 4.851966
vn 0.000000 -0.153387 0.988166
v 0.015304 0.082148 4.510381
vn 0.000000 0.812792 0.582554
v -0.506127 0.107697 4.181717
vn -0.465329 0.712321 0.525421
v -0.815014 -0.639180 -4.094097
vn -0.043275 -0.890961 -0.452012
v 0.015304 -0.664015 -4.087285
vn 0.000000 -0.889173 -0.457572
v 0.015304 -0.887529 -3.300971
vn 0.000000 -0.987750 -0.156044
v -0.904854 -0.821716 -3.301597
vn -0.109532 -0.986184 -0.124272
v -0.553240 -0.708406 2.156349
vn -0.153053 -0.981005 0.119177
v -1.137896 -0.615022 2.045166
vn -0.247359 -0.959891 0.131996
v -1.606782 -0.636866 0.510227
vn -0.249918 -0.964668 0.083408
v -0.752606 -0.839023 0.020987
vn -0.130071 -0.990059 0.053529
v -0.928711 -0.872628 -1.825275
vn -0.141793 -0.989893 0.002686
v 0.015304 -0.962033 -1.979730
vn 0.000000 -0.999929 -0.011902
v 0.015304 -0.906408 -0.142093
vn 0.000000 -0.998857 0.047793
v -0.815014 0.707171 -3.113399
vn -0.037599 0.980908 -0.190804
v -1.746888 0.615185 -3.401298
vn -0.101751 0.971701 -0.213177
v -2.106248 0.678564 -2.376271
vn -0.185768 0.980236 -0.068027
v -0.904854 0.910842 -1.665614
vn -0.114782 0.991258 -0.065066
v -0.553240 0.464881 3.204991
vn -0.212354 0.924981 0.315143
v 0.015304 0.473516 3.337383
vn 0.000000 0.956613 0.291363
v 0.015304 0.820098 1.748679
vn 0.000000 0.986570 0.163340
v -0.752606 0.760940 1.673956
vn -0.164011 0.974243 0.154764
v -0.928711 0.908616 -0.006525
vn -0.167519 0.984695 0.048098
v -2.201677 0.623408 -0.506027
vn -0.297566 0.952669 0.062260
v -1.606782 0.583466 1.449787
vn -0.312388 0.935182 0.166876
v 0.015304 -0.348516 -4.476423
vn 0.000000 -0.575310 -0.817935
v 0.015304 0.001946 -4.606136
vn 0.000000 0.222695 -0.974888
v 0.937747 -0.342307 -4.437148
vn 0.063479 -0.555784 -0.828900
v 0.968454 0.001946 -4.551498
vn 0.087711 0.219645 -0.971629
v -0.907138 -0.342307 -4.437148
vn -0.063479 -0.555784 -0.828900
v 0.015304 -0.502351 4.150267
vn 0.000000 -0.956798 0.290754
v 0.015304 -0.739534 2.193410
vn 0.000000 -0.994532 0.104437
v 0.536736 -0.477699 3.854701
vn 0.364671 -0.879341 0.306227
v 0.583849 -0.708406 2.156349
vn 0.153053 -0.981005 0.119177
v -0.506127 -0.477699 3.854701
vn -0.364671 -0.879341 0.306227
v 0.015304 0.369889 -4.208960
vn 0.000000 0.863477 -0.504389
v 0.015304 0.737832 -3.017432
vn 0.000000 0.980016 -0.198921
v 0.845623 0.707171 -3.113399
vn 0.037599 0.980908 -0.190804
v 0.937747 0.362224 -4.191973
vn 0.026887 0.856304 -0.515772
v 0.521031 -0.206080 4.464056
vn 0.700929 -0.175087 0.691407
v 1.355335 -0.116926 3.300323
vn 0.816271 -0.185008 0.547242
v 0.536736 0.107697 4.181717
vn 0.465329 0.712321 0.525421
v 1.308627 0.184344 3.195726
vn 0.606824 0.641432 0.469393
v 0.845623 -0.639180 -4.094097
vn 0.043275 -0.890961 -0.452012
v 1.777497 -0.564676 -4.114534
vn 0.191568 -0.889597 -0.414630
v 0.935463 -0.821716 -3.301597
vn 0.109532 -0.986184 -0.124272
v 2.136857 -0.624279 -3.303477
vn 0.265179 -0.949444 -0.168037
v 0.783215 -0.839023 0.020987
vn 0.130071 -0.990059 0.053529
v 0.959320 -0.872628 -1.825275
vn 0.141793 -0.989893 0.002686
v 2.232286 -0.604411 -1.361909
vn 0.265730 -0.962906 0.046908
v 1.637391 -0.636866 0.510227
vn 0.249918 -0.964668 0.083408
v 0.015304 0.988267 -1.428728
vn 0.000000 0.997979 -0.063542
v 0.015304 1.003685 0.159976
vn 0.000000 0.998566 0.053531
v 0.959320 0.908616 -0.006525
vn 0.167519 0.984695 0.048098
v 0.935463 0.910842 -1.665614
vn 0.114782 0.991258 -0.065066
v 0.583849 0.464881 3.204991
vn 0.212354 0.924981 0.315143
v 1.168505 0.438974 2.807815
vn 0.342919 0.889312 0.302541
v 0.783215 0.760940 1.673956
vn 0.164011 0.974243 0.154764
v 1.637391 0.583466 1.449787
vn 0.312388 0.935182 0.166876
v -2.115382 -0.323681 -4.319321
vn -0.309162 -0.671488 -0.673441
v -2.106248 -0.624279 -3.303477
vn -0.265179 -0.949444 -0.168037
v -3.009230 -0.338582 -3.643062
vn -0.493586 -0.762062 -0.419088
v -1.278018 -0.403745 2.968004
vn -0.481105 -0.825331 0.295579
v -1.324726 -0.116926 3.300323
vn -0.816271 -0.185008 0.547242
v -2.213805 -0.027772 1.864288
vn -0.859977 -0.110480 0.498230
v -2.062049 -0.358598 1.521141
vn -0.502132 -0.831861 0.236371
v -3.009230 0.355072 -3.411261
vn -0.433921 0.842603 -0.318956
v -3.310224 0.001946 -3.756257
vn -0.818711 0.063267 -0.570710
v -1.278018 0.184344 3.195726
vn -0.606824 0.641432 0.469393
v -2.062049 0.303590 1.765296
vn -0.603796 0.718030 0.346212
v 2.145991 -0.323681 -4.319321
vn 0.309162 -0.671488 -0.673441
v 2.268823 0.001946 -4.387584
vn 0.384726 0.152047 -0.910422
v 3.039839 -0.338582 -3.643062
vn 0.493586 -0.762062 -0.419088
v 3.340832 0.001946 -3.756257
vn 0.818711 0.063267 -0.570710
v 1.308627 -0.403745 2.968004
vn 0.481105 -0.825331 0.295579
v 2.743924 -0.333615 0.154127
vn 0.492767 -0.851859 0.177531
v 2.914470 0.001946 0.659472
vn 0.910080 -0.057315 0.410451
v 2.092658 -0.358598 1.521141
vn 0.502132 -0.831861 0.236371
v 2.244414 -0.027772 1.864288
vn 0.859977 -0.110480 0.498230
v 2.136857 0.678564 -2.376271
vn 0.185768 0.980236 -0.068027
v 3.039839 0.355072 -3.411261
vn 0.433921 0.842603 -0.318956
v 2.145991 0.339227 -4.141012
vn 0.219338 0.800136 -0.558277
v 2.092658 0.303590 1.765296
vn 0.603796 0.718030 0.346212
v -1.746888 -0.564676 -4.114534
vn -0.191568 -0.889597 -0.414630
v -1.137896 0.438974 2.807815
vn -0.342919 0.889312 0.302541
v 1.168505 -0.615022 2.045166
vn 0.247359 -0.959891 0.131996
v 1.777497 0.615185 -3.401298
vn 0.101751 0.971701 -0.213177
vt 0.000000 1.000000
vt 0.000000 1.000000
vt 0.000000 1.000000
f 1/1/1 2/2/2 3/3/3
vt 0.000000 1.000000
vt 0.000000 1.000000
vt 0.000000 1.000000
f 1/4/1 3/5/3 4/6/4
vt 0.000000 1.000000
vt 0.000000 1.000000
vt 0.000000 1.000000
f 5/7/5 6/8/6 7/9/7
vt 0.000000 1.000000
vt 0.000000 1.000000
vt 0.000000 1.000000
f 6/10/6 8/11/8 7/12/7
vt 0.000000 1.000000
vt 0.000000 1.000000
vt 0.000000 1.000000
f 9/13/9 10/14/10 11/15/11
vt 0.000000 1.000000
vt 0.000000 1.000000
vt 0.000000 1.000000
f 9/16/9 11/17/11 12/18/12
vt 0.000000 1.000000
vt 0.000000 1.000000
vt 0.000000 1.000000
f 13/19/13 14/20/14 1/21/1
vt 0.000000 1.000000
vt 0.000000 1.000000
vt 0.000000 1.000000
f 13/22/13 1/23/1 4/24/4
vt 0.000000 1.000000
vt 0.000000 1.000000
vt 0.000000 1.000000
f 15/25/15 16/26/16 17/27/17
vt 0.000000 1.000000
vt 0.000000 1.000000
vt 0.000000 1.000000
f 16/28/16 18/29/18 17/30/17
vt 0.000000 1.000000
vt 0.000000 1.000000
vt 0.000000 1.000000
f 19/31/19 20/32/20 21/33/21
vt 0.000000 1.000000
vt 0.000000 1.000000
vt 0.000000 1.000000
f 19/34/19 21/35/21 22/36/22
vt 0.000000 1.000000
vt 0.000000 1.000000
vt 0.000000 1.000000
f 23/37/23 24/38/24 25/39/25
vt 0.000000 1.000000
vt 0.000000 1.000000
vt 0.000000 1.000000
f 23/40/23 25/41/25 26/42/26
vt 0.000000 1.000000
vt 0.000000 1.000000
vt 0.000000 1.000000
f 27/43/27 28/44/28 29/45/29
vt 0.000000 1.000000
vt 0.000000 1.000000
vt 0.000000 1.000000
f 27/46/27 29/47/29 30/48/30
vt 0.000000 1.000000
vt 0.000000 1.000000
vt 0.000000 1.000000
f 31/49/31 32/50/32 33/51/33
vt 0.000000 1.000000
vt 0.000000 1.000000
vt 0.000000 1.000000
f 31/52/31 33/53/33 34/54/34
vt 0.000000 1.000000
vt 0.000000 1.000000
vt 0.000000 1.000000
f 35/55/35 36/56/36 37/57/37
vt 0.000000 1.000000
vt 0.000000 1.000000
vt 0.000000 1.000000
f 35/58/35 37/59/37 34/60/34
vt 0.000000 1.000000
vt 0.000000 1.000000
vt 0.000000 1.000000
f 38/61/38 39/62/39 40/63/40
vt 0.000000 1.000000
vt 0.000000 1.000000
vt 0.000000 1.000000
f 38/64/38 40/65/40 41/66/41
vt 0.000000 1.000000
vt 0.000000 1.000000
vt 0.000000 1.000000
f 42/67/42 43/68/43 44/69/44
vt 0.000000 1.000000
vt 0.000000 1.000000
vt 0.000000 1.000000
f 42/70/42 44/71/44 45/72/45
vt 0.000000 1.000000
vt 0.000000 1.000000
vt 0.000000 1.000000
f 46/73/46 47/74/47 48/75/48
vt 0.000000 1.000000
vt 0.000000 1.000000
vt 0.000000 1.000000
f 46/76/46 48/77/48 45/78/45
vt 0.000000 1.000000
vt 0.000000 1.000000
vt 0.000000 1.000000
f 49/79/49 50/80/50 51/81/51
vt 0.000000 1.000000
vt 0.000000 1.000000
vt 0.000000 1.000000
f 50/82/50 52/83/52 51/84/51
vt 0.000000 1.000000
vt 0.000000 1.000000
vt 0.000000 1.000000
f 49/85/49 28/86/28 27/87/27
vt 0.000000 1.000000
vt 0.000000 1.000000
vt 0.000000 1.000000
f 49/88/49 27/89/27 53/90/53
vt 0.000000 1.000000
vt 0.000000 1.000000
vt 0.000000 1.000000
f 54/91/54 55/92/55 56/93/56
vt 0.000000 1.000000
vt 0.000000 1.000000
vt 0.000000 1.000000
f 55/94/55 57/95/57 56/96/56
vt 0.000000 1.000000
vt 0.000000 1.000000
vt 0.000000 1.000000
f 54/97/54 24/98/24 23/99/23
vt 0.000000 1.000000
vt 0.000000 1.000000
vt 0.000000 1.000000
f 54/100/54 23/101/23 58/102/58
vt 0.000000 1.000000
vt 0.000000 1.000000
vt 0.000000 1.000000
f 59/103/59 60/104/60 61/105/61
vt 0.000000 1.000000
vt 0.000000 1.000000
vt 0.000000 1.000000
f 59/106/59 61/107/61 62/108/62
vt 0.000000 1.000000
vt 0.000000 1.000000
vt 0.000000 1.000000
f 52/109/52 50/110/50 62/111/62
vt 0.000000 1.000000
vt 0.000000 1.000000
vt 0.000000 1.000000
f 50/112/50 59/113/59 62/114/62
vt 0.000000 1.000000
vt 0.000000 1.000000
vt 0.000000 1.000000
f 25/115/25 43/116/43 26/117/26
vt 0.000000 1.000000
vt 0.000000 1.000000
vt 0.000000 1.000000
f 43/118/43 42/119/42 26/120/26
vt 0.000000 1.000000
vt 0.000000 1.000000
vt 0.000000 1.000000
f 63/121/63 64/122/64 65/123/65
vt 0.000000 1.000000
vt 0.000000 1.000000
vt 0.000000 1.000000
f 64/124/64 66/125/66 65/126/65
vt 0.000000 1.000000
vt 0.000000 1.000000
vt 0.000000 1.000000
f 29/127/29 36/128/36 30/129/30
vt 0.000000 1.000000
vt 0.000000 1.000000
vt 0.000000 1.000000
f 36/130/36 35/131/35 30/132/30
vt 0.000000 1.000000
vt 0.000000 1.000000
vt 0.000000 1.000000
f 67/133/67 68/134/68 69/135/69
vt 0.000000 1.000000
vt 0.000000 1.000000
vt 0.000000 1.000000
f 68/136/68 70/137/70 69/138/69
vt 0.000000 1.000000
vt 0.000000 1.000000
vt 0.000000 1.000000
f 57/139/57 55/140/55 71/141/71
vt 0.000000 1.000000
vt 0.000000 1.000000
vt 0.000000 1.000000
f 55/142/55 37/143/37 71/144/71
vt 0.000000 1.000000
vt 0.000000 1.000000
vt 0.000000 1.000000
f 72/145/72 73/146/73 71/147/71
vt 0.000000 1.000000
vt 0.000000 1.000000
vt 0.000000 1.000000
f 73/148/73 74/149/74 71/150/71
vt 0.000000 1.000000
vt 0.000000 1.000000
vt 0.000000 1.000000
f 75/151/75 76/152/76 77/153/77
vt 0.000000 1.000000
vt 0.000000 1.000000
vt 0.000000 1.000000
f 75/154/75 77/155/77 78/156/78
vt 0.000000 1.000000
vt 0.000000 1.000000
vt 0.000000 1.000000
f 61/157/61 60/158/60 78/159/78
vt 0.000000 1.000000
vt 0.000000 1.000000
vt 0.000000 1.000000
f 60/160/60 75/161/75 78/162/78
vt 0.000000 1.000000
vt 0.000000 1.000000
vt 0.000000 1.000000
f 79/163/79 80/164/80 81/165/81
vt 0.000000 1.000000
vt 0.000000 1.000000
vt 0.000000 1.000000
f 80/166/80 82/167/82 81/168/81
vt 0.000000 1.000000
vt 0.000000 1.000000
vt 0.000000 1.000000
f 77/169/77 76/170/76 81/171/81
vt 0.000000 1.000000
vt 0.000000 1.000000
vt 0.000000 1.000000
f 76/172/76 44/173/44 81/174/81
vt 0.000000 1.000000
vt 0.000000 1.000000
vt 0.000000 1.000000
f 83/175/83 20/176/20 19/177/19
vt 0.000000 1.000000
vt 0.000000 1.000000
vt 0.000000 1.000000
f 83/178/83 19/179/19 53/180/53
vt 0.000000 1.000000
vt 0.000000 1.000000
vt 0.000000 1.000000
f 84/181/84 16/182/16 15/183/15
vt 0.000000 1.000000
vt 0.000000 1.000000
vt 0.000000 1.000000
f 84/184/84 15/185/15 85/186/85
vt 0.000000 1.000000
vt 0.000000 1.000000
vt 0.000000 1.000000
f 86/187/86 87/188/87 88/189/88
vt 0.000000 1.000000
vt 0.000000 1.000000
vt 0.000000 1.000000
f 86/190/86 88/191/88 89/192/89
vt 0.000000 1.000000
vt 0.000000 1.000000
vt 0.000000 1.000000
f 86/193/86 32/194/32 31/195/31
vt 0.000000 1.000000
vt 0.000000 1.000000
vt 0.000000 1.000000
f 86/196/86 31/197/31 58/198/58
vt 0.000000 1.000000
vt 0.000000 1.000000
vt 0.000000 1.000000
f 33/199/33 32/200/32 89/201/89
vt 0.000000 1.000000
vt 0.000000 1.000000
vt 0.000000 1.000000
f 32/202/32 86/203/86 89/204/89
vt 0.000000 1.000000
vt 0.000000 1.000000
vt 0.000000 1.000000
f 18/205/18 2/206/2 1/207/1
vt 0.000000 1.000000
vt 0.000000 1.000000
vt 0.000000 1.000000
f 18/208/18 1/209/1 17/210/17
vt 0.000000 1.000000
vt 0.000000 1.000000
vt 0.000000 1.000000
f 18/211/18 16/212/16 33/213/33
vt 0.000000 1.000000
vt 0.000000 1.000000
vt 0.000000 1.000000
f 18/214/18 33/215/33 89/216/89
vt 0.000000 1.000000
vt 0.000000 1.000000
vt 0.000000 1.000000
f 21/217/21 39/218/39 22/219/22
vt 0.000000 1.000000
vt 0.000000 1.000000
vt 0.000000 1.000000
f 39/220/39 38/221/38 22/222/22
vt 0.000000 1.000000
vt 0.000000 1.000000
vt 0.000000 1.000000
f 40/223/40 39/224/39 90/225/90
vt 0.000000 1.000000
vt 0.000000 1.000000
vt 0.000000 1.000000
f 39/226/39 21/227/21 90/228/90
vt 0.000000 1.000000
vt 0.000000 1.000000
vt 0.000000 1.000000
f 40/229/40 47/230/47 41/231/41
vt 0.000000 1.000000
vt 0.000000 1.000000
vt 0.000000 1.000000
f 47/232/47 46/233/46 41/234/41
vt 0.000000 1.000000
vt 0.000000 1.000000
vt 0.000000 1.000000
f 91/235/91 14/236/14 90/237/90
vt 0.000000 1.000000
vt 0.000000 1.000000
vt 0.000000 1.000000
f 14/238/14 13/239/13 90/240/90
vt 0.000000 1.000000
vt 0.000000 1.000000
vt 0.000000 1.000000
f 88/241/88 87/242/87 92/243/92
vt 0.000000 1.000000
vt 0.000000 1.000000
vt 0.000000 1.000000
f 88/244/88 92/245/92 93/246/93
vt 0.000000 1.000000
vt 0.000000 1.000000
vt 0.000000 1.000000
f 3/247/3 2/248/2 93/249/93
vt 0.000000 1.000000
vt 0.000000 1.000000
vt 0.000000 1.000000
f 2/250/2 88/251/88 93/252/93
vt 0.000000 1.000000
vt 0.000000 1.000000
vt 0.000000 1.000000
f 94/253/94 95/254/95 96/255/96
vt 0.000000 1.000000
vt 0.000000 1.000000
vt 0.000000 1.000000
f 95/256/95 97/257/97 96/258/96
vt 0.000000 1.000000
vt 0.000000 1.000000
vt 0.000000 1.000000
f 94/259/94 68/260/68 51/261/51
vt 0.000000 1.000000
vt 0.000000 1.000000
vt 0.000000 1.000000
f 68/262/68 67/263/67 51/264/51
vt 0.000000 1.000000
vt 0.000000 1.000000
vt 0.000000 1.000000
f 70/265/70 68/266/68 94/267/94
vt 0.000000 1.000000
vt 0.000000 1.000000
vt 0.000000 1.000000
f 70/268/70 94/269/94 96/270/96
vt 0.000000 1.000000
vt 0.000000 1.000000
vt 0.000000 1.000000
f 70/271/70 73/272/73 72/273/72
vt 0.000000 1.000000
vt 0.000000 1.000000
vt 0.000000 1.000000
f 70/274/70 72/275/72 69/276/69
vt 0.000000 1.000000
vt 0.000000 1.000000
vt 0.000000 1.000000
f 98/277/98 64/278/64 56/279/56
vt 0.000000 1.000000
vt 0.000000 1.000000
vt 0.000000 1.000000
f 64/280/64 63/281/63 56/282/56
vt 0.000000 1.000000
vt 0.000000 1.000000
vt 0.000000 1.000000
f 99/283/99 100/284/100 101/285/101
vt 0.000000 1.000000
vt 0.000000 1.000000
vt 0.000000 1.000000
f 100/286/100 102/287/102 101/288/101
vt 0.000000 1.000000
vt 0.000000 1.000000
vt 0.000000 1.000000
f 103/289/103 6/290/6 5/291/5
vt 0.000000 1.000000
vt 0.000000 1.000000
vt 0.000000 1.000000
f 103/292/103 5/293/5 104/294/104
vt 0.000000 1.000000
vt 0.000000 1.000000
vt 0.000000 1.000000
f 97/295/97 10/296/10 96/297/96
vt 0.000000 1.000000
vt 0.000000 1.000000
vt 0.000000 1.000000
f 10/298/10 9/299/9 96/300/96
vt 0.000000 1.000000
vt 0.000000 1.000000
vt 0.000000 1.000000
f 97/301/97 95/302/95 104/303/104
vt 0.000000 1.000000
vt 0.000000 1.000000
vt 0.000000 1.000000
f 95/304/95 105/305/105 104/306/104
vt 0.000000 1.000000
vt 0.000000 1.000000
vt 0.000000 1.000000
f 66/307/66 80/308/80 79/309/79
vt 0.000000 1.000000
vt 0.000000 1.000000
vt 0.000000 1.000000
f 66/310/66 79/311/79 65/312/65
vt 0.000000 1.000000
vt 0.000000 1.000000
vt 0.000000 1.000000
f 66/313/66 106/314/106 80/315/80
vt 0.000000 1.000000
vt 0.000000 1.000000
vt 0.000000 1.000000
f 106/316/106 82/317/82 80/318/80
vt 0.000000 1.000000
vt 0.000000 1.000000
vt 0.000000 1.000000
f 82/319/82 106/320/106 8/321/8
vt 0.000000 1.000000
vt 0.000000 1.000000
vt 0.000000 1.000000
f 82/322/82 8/323/8 6/324/6
vt 0.000000 1.000000
vt 0.000000 1.000000
vt 0.000000 1.000000
f 7/325/7 11/326/11 5/327/5
vt 0.000000 1.000000
vt 0.000000 1.000000
vt 0.000000 1.000000
f 11/328/11 10/329/10 5/330/5
vt 0.000000 1.000000
vt 0.000000 1.000000
vt 0.000000 1.000000
f 7/331/7 8/332/8 11/333/11
vt 0.000000 1.000000
vt 0.000000 1.000000
vt 0.000000 1.000000
f 8/334/8 100/335/100 11/336/11
vt 0.000000 1.000000
vt 0.000000 1.000000
vt 0.000000 1.000000
f 12/337/12 11/338/11 99/339/99
vt 0.000000 1.000000
vt 0.000000 1.000000
vt 0.000000 1.000000
f 11/340/11 100/341/100 99/342/99
vt 0.000000 1.000000
vt 0.000000 1.000000
vt 0.000000 1.000000
f 12/343/12 99/344/99 73/345/73
vt 0.000000 1.000000
vt 0.000000 1.000000
vt 0.000000 1.000000
f 12/346/12 73/347/73 9/348/9
vt 0.000000 1.000000
vt 0.000000 1.000000
vt 0.000000 1.000000
f 4/349/4 3/350/3 47/351/47
vt 0.000000 1.000000
vt 0.000000 1.000000
vt 0.000000 1.000000
f 4/352/4 47/353/47 13/354/13
vt 0.000000 1.000000
vt 0.000000 1.000000
vt 0.000000 1.000000
f 17/355/17 1/356/1 15/357/15
vt 0.000000 1.000000
vt 0.000000 1.000000
vt 0.000000 1.000000
f 1/358/1 14/359/14 15/360/15
vt 0.000000 1.000000
vt 0.000000 1.000000
vt 0.000000 1.000000
f 53/361/53 19/362/19 50/363/50
vt 0.000000 1.000000
vt 0.000000 1.000000
vt 0.000000 1.000000
f 53/364/53 50/365/50 49/366/49
vt 0.000000 1.000000
vt 0.000000 1.000000
vt 0.000000 1.000000
f 53/367/53 27/368/27 107/369/107
vt 0.000000 1.000000
vt 0.000000 1.000000
vt 0.000000 1.000000
f 53/370/53 107/371/107 83/372/83
vt 0.000000 1.000000
vt 0.000000 1.000000
vt 0.000000 1.000000
f 58/373/58 23/374/23 87/375/87
vt 0.000000 1.000000
vt 0.000000 1.000000
vt 0.000000 1.000000
f 58/376/58 87/377/87 86/378/86
vt 0.000000 1.000000
vt 0.000000 1.000000
vt 0.000000 1.000000
f 58/379/58 31/380/31 55/381/55
vt 0.000000 1.000000
vt 0.000000 1.000000
vt 0.000000 1.000000
f 58/382/58 55/383/55 54/384/54
vt 0.000000 1.000000
vt 0.000000 1.000000
vt 0.000000 1.000000
f 22/385/22 38/386/38 59/387/59
vt 0.000000 1.000000
vt 0.000000 1.000000
vt 0.000000 1.000000
f 38/388/38 60/389/60 59/390/59
vt 0.000000 1.000000
vt 0.000000 1.000000
vt 0.000000 1.000000
f 22/391/22 59/392/59 50/393/50
vt 0.000000 1.000000
vt 0.000000 1.000000
vt 0.000000 1.000000
f 22/394/22 50/395/50 19/396/19
vt 0.000000 1.000000
vt 0.000000 1.000000
vt 0.000000 1.000000
f 26/397/26 42/398/42 92/399/92
vt 0.000000 1.000000
vt 0.000000 1.000000
vt 0.000000 1.000000
f 42/400/42 108/401/108 92/402/92
vt 0.000000 1.000000
vt 0.000000 1.000000
vt 0.000000 1.000000
f 26/403/26 92/404/92 87/405/87
vt 0.000000 1.000000
vt 0.000000 1.000000
vt 0.000000 1.000000
f 26/406/26 87/407/87 23/408/23
vt 0.000000 1.000000
vt 0.000000 1.000000
vt 0.000000 1.000000
f 30/409/30 35/410/35 84/411/84
vt 0.000000 1.000000
vt 0.000000 1.000000
vt 0.000000 1.000000
f 35/412/35 16/413/16 84/414/84
vt 0.000000 1.000000
vt 0.000000 1.000000
vt 0.000000 1.000000
f 30/415/30 84/416/84 107/417/107
vt 0.000000 1.000000
vt 0.000000 1.000000
vt 0.000000 1.000000
f 30/418/30 107/419/107 27/420/27
vt 0.000000 1.000000
vt 0.000000 1.000000
vt 0.000000 1.000000
f 34/421/34 37/422/37 55/423/55
vt 0.000000 1.000000
vt 0.000000 1.000000
vt 0.000000 1.000000
f 34/424/34 55/425/55 31/426/31
vt 0.000000 1.000000
vt 0.000000 1.000000
vt 0.000000 1.000000
f 34/427/34 33/428/33 16/429/16
vt 0.000000 1.000000
vt 0.000000 1.000000
vt 0.000000 1.000000
f 34/430/34 16/431/16 35/432/35
vt 0.000000 1.000000
vt 0.000000 1.000000
vt 0.000000 1.000000
f 41/433/41 46/434/46 75/435/75
vt 0.000000 1.000000
vt 0.000000 1.000000
vt 0.000000 1.000000
f 46/436/46 76/437/76 75/438/75
vt 0.000000 1.000000
vt 0.000000 1.000000
vt 0.000000 1.000000
f 41/439/41 75/440/75 60/441/60
vt 0.000000 1.000000
vt 0.000000 1.000000
vt 0.000000 1.000000
f 41/442/41 60/443/60 38/444/38
vt 0.000000 1.000000
vt 0.000000 1.000000
vt 0.000000 1.000000
f 45/445/45 44/446/44 76/447/76
vt 0.000000 1.000000
vt 0.000000 1.000000
vt 0.000000 1.000000
f 45/448/45 76/449/76 46/450/46
vt 0.000000 1.000000
vt 0.000000 1.000000
vt 0.000000 1.000000
f 45/451/45 48/452/48 108/453/108
vt 0.000000 1.000000
vt 0.000000 1.000000
vt 0.000000 1.000000
f 45/454/45 108/455/108 42/456/42
vt 0.000000 1.000000
vt 0.000000 1.000000
vt 0.000000 1.000000
f 51/457/51 52/458/52 94/459/94
vt 0.000000 1.000000
vt 0.000000 1.000000
vt 0.000000 1.000000
f 52/460/52 95/461/95 94/462/94
vt 0.000000 1.000000
vt 0.000000 1.000000
vt 0.000000 1.000000
f 51/463/51 67/464/67 49/465/49
vt 0.000000 1.000000
vt 0.000000 1.000000
vt 0.000000 1.000000
f 67/466/67 28/467/28 49/468/49
vt 0.000000 1.000000
vt 0.000000 1.000000
vt 0.000000 1.000000
f 56/469/56 63/470/63 54/471/54
vt 0.000000 1.000000
vt 0.000000 1.000000
vt 0.000000 1.000000
f 63/472/63 24/473/24 54/474/54
vt 0.000000 1.000000
vt 0.000000 1.000000
vt 0.000000 1.000000
f 56/475/56 57/476/57 98/477/98
vt 0.000000 1.000000
vt 0.000000 1.000000
vt 0.000000 1.000000
f 57/478/57 109/479/109 98/480/98
vt 0.000000 1.000000
vt 0.000000 1.000000
vt 0.000000 1.000000
f 62/481/62 61/482/61 110/483/110
vt 0.000000 1.000000
vt 0.000000 1.000000
vt 0.000000 1.000000
f 62/484/62 110/485/110 105/486/105
vt 0.000000 1.000000
vt 0.000000 1.000000
vt 0.000000 1.000000
f 62/487/62 105/488/105 52/489/52
vt 0.000000 1.000000
vt 0.000000 1.000000
vt 0.000000 1.000000
f 105/490/105 95/491/95 52/492/52
vt 0.000000 1.000000
vt 0.000000 1.000000
vt 0.000000 1.000000
f 65/493/65 25/494/25 63/495/63
vt 0.000000 1.000000
vt 0.000000 1.000000
vt 0.000000 1.000000
f 25/496/25 24/497/24 63/498/63
vt 0.000000 1.000000
vt 0.000000 1.000000
vt 0.000000 1.000000
f 65/499/65 79/500/79 43/501/43
vt 0.000000 1.000000
vt 0.000000 1.000000
vt 0.000000 1.000000
f 65/502/65 43/503/43 25/504/25
vt 0.000000 1.000000
vt 0.000000 1.000000
vt 0.000000 1.000000
f 69/505/69 29/506/29 67/507/67
vt 0.000000 1.000000
vt 0.000000 1.000000
vt 0.000000 1.000000
f 29/508/29 28/509/28 67/510/67
vt 0.000000 1.000000
vt 0.000000 1.000000
vt 0.000000 1.000000
f 69/511/69 72/512/72 36/513/36
vt 0.000000 1.000000
vt 0.000000 1.000000
vt 0.000000 1.000000
f 69/514/69 36/515/36 29/516/29
vt 0.000000 1.000000
vt 0.000000 1.000000
vt 0.000000 1.000000
f 71/517/71 37/518/37 72/519/72
vt 0.000000 1.000000
vt 0.000000 1.000000
vt 0.000000 1.000000
f 37/520/37 36/521/36 72/522/72
vt 0.000000 1.000000
vt 0.000000 1.000000
vt 0.000000 1.000000
f 71/523/71 74/524/74 57/525/57
vt 0.000000 1.000000
vt 0.000000 1.000000
vt 0.000000 1.000000
f 74/526/74 109/527/109 57/528/57
vt 0.000000 1.000000
vt 0.000000 1.000000
vt 0.000000 1.000000
f 78/529/78 77/530/77 6/531/6
vt 0.000000 1.000000
vt 0.000000 1.000000
vt 0.000000 1.000000
f 78/532/78 6/533/6 103/534/103
vt 0.000000 1.000000
vt 0.000000 1.000000
vt 0.000000 1.000000
f 78/535/78 103/536/103 61/537/61
vt 0.000000 1.000000
vt 0.000000 1.000000
vt 0.000000 1.000000
f 103/538/103 110/539/110 61/540/61
vt 0.000000 1.000000
vt 0.000000 1.000000
vt 0.000000 1.000000
f 81/541/81 44/542/44 79/543/79
vt 0.000000 1.000000
vt 0.000000 1.000000
vt 0.000000 1.000000
f 44/544/44 43/545/43 79/546/79
vt 0.000000 1.000000
vt 0.000000 1.000000
vt 0.000000 1.000000
f 81/547/81 82/548/82 77/549/77
vt 0.000000 1.000000
vt 0.000000 1.000000
vt 0.000000 1.000000
f 82/550/82 6/551/6 77/552/77
vt 0.000000 1.000000
vt 0.000000 1.000000
vt 0.000000 1.000000
f 85/553/85 15/554/15 14/555/14
vt 0.000000 1.000000
vt 0.000000 1.000000
vt 0.000000 1.000000
f 85/556/85 14/557/14 91/558/91
vt 0.000000 1.000000
vt 0.000000 1.000000
vt 0.000000 1.000000
f 85/559/85 83/560/83 84/561/84
vt 0.000000 1.000000
vt 0.000000 1.000000
vt 0.000000 1.000000
f 83/562/83 107/563/107 84/564/84
vt 0.000000 1.000000
vt 0.000000 1.000000
vt 0.000000 1.000000
f 85/565/85 91/566/91 20/567/20
vt 0.000000 1.000000
vt 0.000000 1.000000
vt 0.000000 1.000000
f 85/568/85 20/569/20 83/570/83
vt 0.000000 1.000000
vt 0.000000 1.000000
vt 0.000000 1.000000
f 89/571/89 88/572/88 2/573/2
vt 0.000000 1.000000
vt 0.000000 1.000000
vt 0.000000 1.000000
f 89/574/89 2/575/2 18/576/18
vt 0.000000 1.000000
vt 0.000000 1.000000
vt 0.000000 1.000000
f 90/577/90 13/578/13 40/579/40
vt 0.000000 1.000000
vt 0.000000 1.000000
vt 0.000000 1.000000
f 13/580/13 47/581/47 40/582/40
vt 0.000000 1.000000
vt 0.000000 1.000000
vt 0.000000 1.000000
f 90/583/90 21/584/21 20/585/20
vt 0.000000 1.000000
vt 0.000000 1.000000
vt 0.000000 1.000000
f 90/586/90 20/587/20 91/588/91
vt 0.000000 1.000000
vt 0.000000 1.000000
vt 0.000000 1.000000
f 93/589/93 92/590/92 108/591/108
vt 0.000000 1.000000
vt 0.000000 1.000000
vt 0.000000 1.000000
f 93/592/93 108/593/108 48/594/48
vt 0.000000 1.000000
vt 0.000000 1.000000
vt 0.000000 1.000000
f 93/595/93 48/596/48 3/597/3
vt 0.000000 1.000000
vt 0.000000 1.000000
vt 0.000000 1.000000
f 48/598/48 47/599/47 3/600/3
vt 0.000000 1.000000
vt 0.000000 1.000000
vt 0.000000 1.000000
f 96/601/96 9/602/9 70/603/70
vt 0.000000 1.000000
vt 0.000000 1.000000
vt 0.000000 1.000000
f 9/604/9 73/605/73 70/606/70
vt 0.000000 1.000000
vt 0.000000 1.000000
vt 0.000000 1.000000
f 101/607/101 98/608/98 109/609/109
vt 0.000000 1.000000
vt 0.000000 1.000000
vt 0.000000 1.000000
f 101/610/101 109/611/109 74/612/74
vt 0.000000 1.000000
vt 0.000000 1.000000
vt 0.000000 1.000000
f 101/613/101 74/614/74 99/615/99
vt 0.000000 1.000000
vt 0.000000 1.000000
vt 0.000000 1.000000
f 74/616/74 73/617/73 99/618/99
vt 0.000000 1.000000
vt 0.000000 1.000000
vt 0.000000 1.000000
f 101/619/101 102/620/102 98/621/98
vt 0.000000 1.000000
vt 0.000000 1.000000
vt 0.000000 1.000000
f 102/622/102 64/623/64 98/624/98
vt 0.000000 1.000000
vt 0.000000 1.000000
vt 0.000000 1.000000
f 104/625/104 5/626/5 10/627/10
vt 0.000000 1.000000
vt 0.000000 1.000000
vt 0.000000 1.000000
f 104/628/104 10/629/10 97/630/97
vt 0.000000 1.000000
vt 0.000000 1.000000
vt 0.000000 1.000000
f 104/631/104 105/632/105 110/633/110
vt 0.000000 1.000000
vt 0.000000 1.000000
vt 0.000000 1.000000
f 104/634/104 110/635/110 103/636/103
vt 0.000000 1.000000
vt 0.000000 1.000000
vt 0.000000 1.000000
f 106/637/106 66/638/66 102/639/102
vt 0.000000 1.000000
vt 0.000000 1.000000
vt 0.000000 1.000000
f 66/640/66 64/641/64 102/642/102
vt 0.000000 1.000000
vt 0.000000 1.000000
vt 0.000000 1.000000
f 106/643/106 102/644/102 100/645/100
vt 0.000000 1.000000
vt 0.000000 1.000000
vt 0.000000 1.000000
f 106/646/106 100/647/100 8/648/8
