mtllib beholder.mtl
usemtl tex0_0
v 0.067114 -0.003941 -15.311109
vn 0.000000 0.000000 1.000000
v 0.048944 0.150891 -15.311109
vn 0.384084 -0.580831 0.717715
v 0.067114 0.156353 -15.311109
vn 0.069584 -0.669195 0.739822
v 0.030328 0.134878 -15.311109
vn 0.536116 -0.480153 0.694286
v 0.009301 0.109404 -15.311109
vn 0.573299 -0.447193 0.686547
v -0.017447 0.076206 -15.311109
vn 0.560986 -0.465393 0.684620
v -0.052246 0.037546 -15.311109
vn 0.541232 -0.493316 0.680961
v -0.093179 -0.003941 -15.311109
vn 0.607543 0.179656 0.773703
v -0.052246 -0.045428 -15.311109
vn 0.545357 0.484200 0.684205
v -0.017447 -0.084087 -15.311109
vn 0.566763 0.455275 0.686662
v 0.009301 -0.117285 -15.311109
vn 0.568530 0.450531 0.688328
v 0.030328 -0.142759 -15.311109
vn 0.501655 0.509144 0.699367
v 0.048944 -0.158772 -15.311109
vn 0.290374 0.623681 0.725745
v 0.067114 -0.164234 -15.311109
vn -0.069583 0.669193 0.739823
v 0.085284 -0.158772 -15.311109
vn -0.384086 0.580831 0.717714
v 0.067114 -0.003941 -15.311109
vn 0.000000 0.000000 1.000000
v 0.103900 -0.142759 -15.311109
vn -0.536111 0.480157 0.694287
v 0.067114 -0.003941 -15.311109
vn 0.000000 0.000000 1.000000
v 0.124927 -0.117285 -15.311109
vn -0.573299 0.447193 0.686547
v 0.067114 -0.003941 -15.311109
vn 0.000000 0.000000 1.000000
v 0.151675 -0.084087 -15.311109
vn -0.560987 0.465392 0.684620
v 0.067114 -0.003941 -15.311109
vn 0.000000 0.000000 1.000000
v 0.186475 -0.045428 -15.311109
vn -0.541231 0.493317 0.680961
v 0.067114 -0.003941 -15.311109
vn 0.000000 0.000000 1.000000
v 0.227408 -0.003941 -15.311109
vn -0.607542 -0.179655 0.773703
v 0.067114 -0.003941 -15.311109
vn 0.000000 0.000000 1.000000
v 0.186475 0.037546 -15.311109
vn -0.545356 -0.484200 0.684205
v 0.067114 -0.003941 -15.311109
vn 0.000000 0.000000 1.000000
v 0.151675 0.076206 -15.311109
vn -0.566763 -0.455274 0.686662
v 0.067114 -0.003941 -15.311109
vn 0.000000 0.000000 1.000000
v 0.124927 0.109404 -15.311109
vn -0.568531 -0.450530 0.688328
v 0.067114 -0.003941 -15.311109
vn 0.000000 0.000000 1.000000
v 0.103900 0.134878 -15.311109
vn -0.501660 -0.509140 0.699367
v 0.067114 -0.003941 -15.311109
vn 0.000000 0.000000 1.000000
v 0.085284 0.150891 -15.311109
vn -0.290370 -0.623681 0.725746
v -0.530931 5.167117 -1.152820
vn 0.480735 -0.873996 0.070884
v 0.067114 5.349532 -1.165067
vn -0.001424 -0.997862 0.065337
v -1.137307 4.632303 -1.098317
vn 0.715016 -0.695705 0.068896
v -1.819412 3.781536 -0.954463
vn 0.775941 -0.626406 0.074376
v -2.700145 2.672795 -0.661657
vn 0.761735 -0.642551 0.082997
v -3.873981 1.381639 -0.170447
vn 0.727170 -0.680945 0.086818
v -5.286359 -0.003942 0.536497
vn 0.992885 0.011712 0.118496
v -3.873980 -1.389523 -0.170448
vn 0.727298 0.681288 0.082970
v -2.700144 -2.680678 -0.661657
vn 0.761979 0.642997 0.077094
v -1.819412 -3.789419 -0.954463
vn 0.776821 0.626289 0.065657
v -1.137306 -4.640186 -1.098317
vn 0.716834 0.695122 0.054359
v -0.530931 -5.175000 -1.152820
vn 0.483447 0.873767 0.053017
v 0.067114 -5.357415 -1.165068
vn 0.001429 0.997862 0.065337
v 0.665159 -5.174999 -1.152820
vn -0.480740 0.873994 0.070884
v 1.271535 -4.640185 -1.098317
vn -0.715014 0.695707 0.068897
v 1.953641 -3.789418 -0.954463
vn -0.775940 0.626406 0.074376
v 2.834373 -2.680677 -0.661656
vn -0.761735 0.642550 0.082997
v 4.008209 -1.389522 -0.170447
vn -0.727171 0.680945 0.086818
v 5.420587 -0.003941 0.536498
vn -0.992885 -0.011711 0.118496
v 4.008208 1.381640 -0.170448
vn -0.727298 -0.681288 0.082969
v 2.834372 2.672796 -0.661657
vn -0.761979 -0.642997 0.077094
v 1.953640 3.781537 -0.954463
vn -0.776821 -0.626289 0.065657
v 1.271534 4.632303 -1.098317
vn -0.716835 -0.695121 0.054359
v 0.665159 5.167117 -1.152820
vn -0.483449 -0.873765 0.053016
v -0.501702 4.776024 0.663344
vn 0.414331 -0.879965 -0.232360
v 0.067114 4.944643 0.621488
vn -0.016336 -0.964761 -0.262619
v -1.088495 4.281659 0.823366
vn 0.644879 -0.742768 -0.180072
v -1.752308 3.495237 1.192575
vn 0.713866 -0.686186 -0.139801
v -2.586500 2.470351 1.885042
vn 0.706793 -0.698303 -0.113207
v -3.651436 1.276846 2.992806
vn 0.676743 -0.729759 -0.097317
v -4.881471 -0.003942 4.542302
vn 0.990368 0.008758 -0.138182
v -3.651435 -1.284730 2.992806
vn 0.671859 0.734211 -0.097671
v -2.586499 -2.478235 1.885041
vn 0.702036 0.702911 -0.114289
v -1.752308 -3.503120 1.192575
vn 0.712197 0.687520 -0.141745
v -1.088495 -4.289542 0.823366
vn 0.649963 0.737641 -0.182849
v -0.501701 -4.783908 0.663344
vn 0.433819 0.869914 -0.234628
v 0.067114 -4.952527 0.621488
vn 0.016336 0.964761 -0.262619
v 0.635930 -4.783908 0.663344
vn -0.414331 0.879965 -0.232359
v 1.222723 -4.289542 0.823367
vn -0.644880 0.742768 -0.180072
v 1.886536 -3.503119 1.192576
vn -0.713866 0.686186 -0.139801
v 2.720727 -2.478234 1.885042
vn -0.706793 0.698303 -0.113207
v 3.785663 -1.284729 2.992807
vn -0.676743 0.729759 -0.097317
v 5.015698 -0.003941 4.542303
vn -0.990368 -0.008758 -0.138182
v 3.785662 1.276847 2.992806
vn -0.671859 -0.734211 -0.097672
v 2.720727 2.470352 1.885041
vn -0.702036 -0.702911 -0.114289
v 1.886535 3.495237 1.192575
vn -0.712197 -0.687520 -0.141745
v 1.222723 4.281659 0.823366
vn -0.649963 -0.737641 -0.182850
v 0.635929 4.776025 0.663344
vn -0.433819 -0.869914 -0.234628
v -0.444604 3.882662 3.576073
vn 0.321726 -0.914243 -0.246276
v 0.067114 4.019767 3.466650
vn -0.023761 -0.964014 -0.264786
v -0.981315 3.480692 3.940131
vn 0.535349 -0.819785 -0.203356
v -1.581172 2.841249 4.652163
vn 0.621870 -0.765626 -0.164603
v -2.285671 2.007912 5.825043
vn 0.641694 -0.754666 -0.136776
v -3.101945 1.037470 7.540235
vn 0.638563 -0.760138 -0.120113
v -3.956594 -0.003942 9.799001
vn 0.984177 0.004536 -0.177128
v -3.101943 -1.045354 7.540234
vn 0.631754 0.766256 -0.117210
v -2.285671 -2.015796 5.825040
vn 0.636767 0.759742 -0.131600
v -1.581172 -2.849134 4.652161
vn 0.622016 0.767048 -0.157269
v -0.981314 -3.488576 3.940129
vn 0.545512 0.815101 -0.195003
v -0.444604 -3.890546 3.576072
vn 0.352332 0.904792 -0.239194
v 0.067114 -4.027650 3.466649
vn 0.023761 0.964014 -0.264786
v 0.578832 -3.890545 3.576073
vn -0.321726 0.914243 -0.246276
v 1.115542 -3.488576 3.940129
vn -0.535350 0.819785 -0.203356
v 1.715400 -2.849133 4.652162
vn -0.621870 0.765626 -0.164603
v 2.419899 -2.015795 5.825042
vn -0.641694 0.754666 -0.136776
v 3.236171 -1.045354 7.540235
vn -0.638563 0.760138 -0.120113
v 4.090822 -0.003941 9.799003
vn -0.984177 -0.004536 -0.177128
v 3.236171 1.037471 7.540235
vn -0.631754 -0.766256 -0.117210
v 2.419898 2.007913 5.825042
vn -0.636767 -0.759743 -0.131600
v 1.715399 2.841250 4.652162
vn -0.622016 -0.767048 -0.157269
v 1.115542 3.480692 3.940130
vn -0.545512 -0.815102 -0.195003
v 0.578832 3.882662 3.576073
vn -0.352331 -0.904792 -0.239194
v -0.361125 2.674506 9.025088
vn 0.089284 -0.954147 -0.285712
v 0.067114 2.768992 8.833913
vn -0.053299 -0.953188 -0.297643
v -0.802967 2.397489 9.617831
vn 0.223933 -0.940260 -0.256446
v -1.269740 1.956818 10.659838
vn 0.326486 -0.919376 -0.219441
v -1.762808 1.382525 12.200430
vn 0.400787 -0.897275 -0.185114
v -2.260403 0.713746 14.254954
vn 0.454949 -0.875902 -0.160678
v -2.705820 -0.003942 16.771482
vn 0.950004 0.065241 -0.305346
v -2.260402 -0.721630 14.254949
vn 0.436295 0.884297 -0.166331
v -1.762807 -1.390409 12.200424
vn 0.385529 0.902593 -0.191558
v -1.269739 -1.964703 10.659833
vn 0.326603 0.917792 -0.225807
v -0.802967 -2.405373 9.617827
vn 0.255677 0.930734 -0.261465
v -0.361125 -2.682391 9.025085
vn 0.167525 0.942742 -0.288398
v 0.067114 -2.776876 8.833910
vn 0.053299 0.953188 -0.297644
v 0.495352 -2.682391 9.025085
vn -0.089284 0.954147 -0.285713
v 0.937194 -2.405373 9.617827
vn -0.223933 0.940260 -0.256446
v 1.403967 -1.964702 10.659835
vn -0.326486 0.919376 -0.219441
v 1.897035 -1.390409 12.200427
vn -0.400786 0.897275 -0.185114
v 2.394630 -0.721630 14.254951
vn -0.454949 0.875902 -0.160678
v 2.840047 -0.003942 16.771484
vn -0.950004 -0.065240 -0.305346
v 2.394630 0.713746 14.254953
vn -0.436295 -0.884297 -0.166331
v 1.897035 1.382525 12.200429
vn -0.385529 -0.902593 -0.191558
v 1.403967 1.956818 10.659837
vn -0.326603 -0.917792 -0.225807
v 0.937194 2.397489 9.617831
vn -0.255678 -0.930734 -0.261465
v 0.495352 2.674506 9.025088
vn -0.167525 -0.942742 -0.288398
v -0.219339 1.405235 12.307509
vn -0.024527 -0.959883 -0.279327
v 0.067113 1.454945 12.098415
vn -0.010267 -0.959128 -0.282787
v -0.502288 1.259491 12.933795
vn -0.011013 -0.965563 -0.259937
v -0.775650 1.027647 13.970797
vn 0.041516 -0.971700 -0.232540
v -1.028250 0.725501 15.397308
vn 0.119187 -0.971558 -0.204621
v -1.241975 0.373646 17.165569
vn 0.200565 -0.962631 -0.181978
v -1.391774 -0.003942 19.191269
vn 0.728555 -0.511469 -0.455639
v -1.241974 -0.381530 17.165554
vn 0.256707 0.951176 -0.171363
v -1.028250 -0.733386 15.397295
vn 0.189876 0.963497 -0.188734
v -0.775649 -1.035532 13.970787
vn 0.112110 0.970415 -0.213836
v -0.502287 -1.267376 12.933784
vn 0.042738 0.969186 -0.242593
v -0.219339 -1.413119 12.307498
vn 0.006702 0.963284 -0.268401
v 0.067113 -1.462830 12.098405
vn 0.010266 0.959128 -0.282787
v 0.353565 -1.413119 12.307498
vn 0.024528 0.959882 -0.279328
v 0.636514 -1.267376 12.933784
vn 0.011013 0.965563 -0.259937
v 0.909876 -1.035531 13.970786
vn -0.041516 0.971700 -0.232540
v 1.162476 -0.733386 15.397295
vn -0.119187 0.971558 -0.204622
v 1.376200 -0.381530 17.165556
vn -0.200564 0.962631 -0.181978
v 1.526000 -0.003942 19.191269
vn -0.728554 0.511470 -0.455640
v 1.376201 0.373646 17.165567
vn -0.256707 -0.951176 -0.171363
v 1.162476 0.725502 15.397305
vn -0.189876 -0.963497 -0.188734
v 0.909876 1.027647 13.970798
vn -0.112110 -0.970415 -0.213836
v 0.636514 1.259491 12.933795
vn -0.042738 -0.969186 -0.242593
v 0.353565 1.405235 12.307509
vn -0.006702 -0.963284 -0.268401
v 0.067113 -0.003942 21.645327
vn 0.000000 -0.000000 -1.000000
vt 0.000000 0.500000
vt 0.441879 0.004741
vt 0.499999 0.001381
f 1/1/1 2/2/2 3/3/3
vt 0.000000 0.500000
vt 0.372238 0.017877
vt 0.441879 0.004741
f 1/4/1 4/5/4 2/6/2
vt 0.000000 0.500000
vt 0.273309 0.055570
vt 0.372238 0.017877
f 1/7/1 5/8/5 4/9/4
vt 0.000000 0.500000
vt 0.137829 0.156735
vt 0.273309 0.055570
f 1/10/1 6/11/6 5/12/5
vt 0.000000 0.500000
vt 0.028743 0.336202
vt 0.137829 0.156735
f 1/13/1 7/14/7 6/15/6
vt 0.000000 0.500000
vt 0.001381 0.499999
vt 0.028743 0.336202
f 1/16/1 8/17/8 7/18/7
vt 0.000000 0.500000
vt 0.028742 0.663797
vt 0.001381 0.499999
f 1/19/1 9/20/9 8/21/8
vt 0.000000 0.500000
vt 0.137828 0.843263
vt 0.028742 0.663797
f 1/22/1 10/23/10 9/24/9
vt 0.000000 0.500000
vt 0.273309 0.944430
vt 0.137828 0.843263
f 1/25/1 11/26/11 10/27/10
vt 0.000000 0.500000
vt 0.372238 0.982123
vt 0.273309 0.944430
f 1/28/1 12/29/12 11/30/11
vt 0.000000 0.500000
vt 0.441878 0.995259
vt 0.372238 0.982123
f 1/31/1 13/32/13 12/33/12
vt 0.000000 0.500000
vt 0.499998 0.998619
vt 0.441878 0.995259
f 1/34/1 14/35/14 13/36/13
vt 0.000000 0.500000
vt 0.558119 0.995259
vt 0.499998 0.998619
f 1/37/1 15/38/15 14/39/14
vt 1.000000 0.500000
vt 0.627759 0.982123
vt 0.558119 0.995259
f 16/40/16 17/41/17 15/42/15
vt 1.000000 0.500000
vt 0.726688 0.944431
vt 0.627759 0.982123
f 18/43/18 19/44/19 17/45/17
vt 1.000000 0.500000
vt 0.862170 0.843265
vt 0.726688 0.944431
f 20/46/20 21/47/21 19/48/19
vt 1.000000 0.500000
vt 0.971257 0.663798
vt 0.862170 0.843265
f 22/49/22 23/50/23 21/51/21
vt 1.000000 0.500000
vt 0.998619 0.499999
vt 0.971257 0.663798
f 24/52/24 25/53/25 23/54/23
vt 1.000000 0.500000
vt 0.971257 0.336201
vt 0.998619 0.499999
f 26/55/26 27/56/27 25/57/25
vt 1.000000 0.500000
vt 0.862169 0.156733
vt 0.971257 0.336201
f 28/58/28 29/59/29 27/60/27
vt 1.000000 0.500000
vt 0.726687 0.055569
vt 0.862169 0.156733
f 30/61/30 31/62/31 29/63/29
vt 1.000000 0.500000
vt 0.627759 0.017877
vt 0.726687 0.055569
f 32/64/32 33/65/33 31/66/31
vt 1.000000 0.500000
vt 0.558119 0.004741
vt 0.627759 0.017877
f 34/67/34 35/68/35 33/69/33
vt 0.000000 0.500000
vt 0.499999 0.001381
vt 0.558119 0.004741
f 1/70/1 3/71/3 35/72/35
vt 0.499999 0.001381
vt 0.458613 0.142140
vt 0.500000 0.141720
f 3/73/3 36/74/36 37/75/37
vt 0.499999 0.001381
vt 0.441879 0.004741
vt 0.458613 0.142140
f 3/76/3 2/77/2 36/78/36
vt 0.441879 0.004741
vt 0.408027 0.145963
vt 0.458613 0.142140
f 2/79/2 38/80/38 36/81/36
vt 0.441879 0.004741
vt 0.372238 0.017877
vt 0.408027 0.145963
f 2/82/2 4/83/4 38/84/38
vt 0.372238 0.017877
vt 0.333653 0.166211
vt 0.408027 0.145963
f 4/85/4 39/86/39 38/87/38
vt 0.372238 0.017877
vt 0.273309 0.055570
vt 0.333653 0.166211
f 4/88/4 5/89/5 39/90/39
vt 0.273309 0.055570
vt 0.230780 0.239586
vt 0.333653 0.166211
f 5/91/5 40/92/40 39/93/39
vt 0.273309 0.055570
vt 0.137829 0.156735
vt 0.230780 0.239586
f 5/94/5 6/95/6 40/96/40
vt 0.137829 0.156735
vt 0.162940 0.381499
vt 0.230780 0.239586
f 6/97/6 41/98/41 40/99/40
vt 0.137829 0.156735
vt 0.028743 0.336202
vt 0.162940 0.381499
f 6/100/6 7/101/7 41/102/41
vt 0.028743 0.336202
vt 0.177309 0.500000
vt 0.162940 0.381499
f 7/103/7 42/104/42 41/105/41
vt 0.028743 0.336202
vt 0.001381 0.499999
vt 0.177309 0.500000
f 7/106/7 8/107/8 42/108/42
vt 0.001381 0.499999
vt 0.162940 0.618501
vt 0.177309 0.500000
f 8/109/8 43/110/43 42/111/42
vt 0.001381 0.499999
vt 0.028742 0.663797
vt 0.162940 0.618501
f 8/112/8 9/113/9 43/114/43
vt 0.028742 0.663797
vt 0.230780 0.760414
vt 0.162940 0.618501
f 9/115/9 44/116/44 43/117/43
vt 0.028742 0.663797
vt 0.137828 0.843263
vt 0.230780 0.760414
f 9/118/9 10/119/10 44/120/44
vt 0.137828 0.843263
vt 0.333653 0.833789
vt 0.230780 0.760414
f 10/121/10 45/122/45 44/123/44
vt 0.137828 0.843263
vt 0.273309 0.944430
vt 0.333653 0.833789
f 10/124/10 11/125/11 45/126/45
vt 0.273309 0.944430
vt 0.408027 0.854037
vt 0.333653 0.833789
f 11/127/11 46/128/46 45/129/45
vt 0.273309 0.944430
vt 0.372238 0.982123
vt 0.408027 0.854037
f 11/130/11 12/131/12 46/132/46
vt 0.372238 0.982123
vt 0.458613 0.857860
vt 0.408027 0.854037
f 12/133/12 47/134/47 46/135/46
vt 0.372238 0.982123
vt 0.441878 0.995259
vt 0.458613 0.857860
f 12/136/12 13/137/13 47/138/47
vt 0.441878 0.995259
vt 0.500000 0.858280
vt 0.458613 0.857860
f 13/139/13 48/140/48 47/141/47
vt 0.441878 0.995259
vt 0.499998 0.998619
vt 0.500000 0.858280
f 13/142/13 14/143/14 48/144/48
vt 0.499998 0.998619
vt 0.541387 0.857860
vt 0.500000 0.858280
f 14/145/14 49/146/49 48/147/48
vt 0.499998 0.998619
vt 0.558119 0.995259
vt 0.541387 0.857860
f 14/148/14 15/149/15 49/150/49
vt 0.558119 0.995259
vt 0.591973 0.854037
vt 0.541387 0.857860
f 15/151/15 50/152/50 49/153/49
vt 0.558119 0.995259
vt 0.627759 0.982123
vt 0.591973 0.854037
f 15/154/15 17/155/17 50/156/50
vt 0.627759 0.982123
vt 0.666347 0.833789
vt 0.591973 0.854037
f 17/157/17 51/158/51 50/159/50
vt 0.627759 0.982123
vt 0.726688 0.944431
vt 0.666347 0.833789
f 17/160/17 19/161/19 51/162/51
vt 0.726688 0.944431
vt 0.769220 0.760414
vt 0.666347 0.833789
f 19/163/19 52/164/52 51/165/51
vt 0.726688 0.944431
vt 0.862170 0.843265
vt 0.769220 0.760414
f 19/166/19 21/167/21 52/168/52
vt 0.862170 0.843265
vt 0.837060 0.618501
vt 0.769220 0.760414
f 21/169/21 53/170/53 52/171/52
vt 0.862170 0.843265
vt 0.971257 0.663798
vt 0.837060 0.618501
f 21/172/21 23/173/23 53/174/53
vt 0.971257 0.663798
vt 0.822691 0.500000
vt 0.837060 0.618501
f 23/175/23 54/176/54 53/177/53
vt 0.971257 0.663798
vt 0.998619 0.499999
vt 0.822691 0.500000
f 23/178/23 25/179/25 54/180/54
vt 0.998619 0.499999
vt 0.837060 0.381499
vt 0.822691 0.500000
f 25/181/25 55/182/55 54/183/54
vt 0.998619 0.499999
vt 0.971257 0.336201
vt 0.837060 0.381499
f 25/184/25 27/185/27 55/186/55
vt 0.971257 0.336201
vt 0.769220 0.239586
vt 0.837060 0.381499
f 27/187/27 56/188/56 55/189/55
vt 0.971257 0.336201
vt 0.862169 0.156733
vt 0.769220 0.239586
f 27/190/27 29/191/29 56/192/56
vt 0.862169 0.156733
vt 0.666347 0.166211
vt 0.769220 0.239586
f 29/193/29 57/194/57 56/195/56
vt 0.862169 0.156733
vt 0.726687 0.055569
vt 0.666347 0.166211
f 29/196/29 31/197/31 57/198/57
vt 0.726687 0.055569
vt 0.591973 0.145963
vt 0.666347 0.166211
f 31/199/31 58/200/58 57/201/57
vt 0.726687 0.055569
vt 0.627759 0.017877
vt 0.591973 0.145963
f 31/202/31 33/203/33 58/204/58
vt 0.627759 0.017877
vt 0.541387 0.142140
vt 0.591973 0.145963
f 33/205/33 59/206/59 58/207/58
vt 0.627759 0.017877
vt 0.558119 0.004741
vt 0.541387 0.142140
f 33/208/33 35/209/35 59/210/59
vt 0.558119 0.004741
vt 0.500000 0.141720
vt 0.541387 0.142140
f 35/211/35 37/212/37 59/213/59
vt 0.558119 0.004741
vt 0.499999 0.001381
vt 0.500000 0.141720
f 35/214/35 3/215/3 37/216/37
vt 0.500000 0.141720
vt 0.461438 0.175952
vt 0.500000 0.174384
f 37/217/37 60/218/60 61/219/61
vt 0.500000 0.141720
vt 0.458613 0.142140
vt 0.461438 0.175952
f 37/220/37 36/221/36 60/222/60
vt 0.458613 0.142140
vt 0.414782 0.183968
vt 0.461438 0.175952
f 36/223/36 62/224/62 60/225/60
vt 0.458613 0.142140
vt 0.408027 0.145963
vt 0.414782 0.183968
f 36/226/36 38/227/38 62/228/62
vt 0.408027 0.145963
vt 0.350589 0.212648
vt 0.414782 0.183968
f 38/229/38 63/230/63 62/231/62
vt 0.408027 0.145963
vt 0.333653 0.166211
vt 0.350589 0.212648
f 38/232/38 39/233/39 63/234/63
vt 0.333653 0.166211
vt 0.277615 0.292643
vt 0.350589 0.212648
f 39/235/39 64/236/64 63/237/63
vt 0.333653 0.166211
vt 0.230780 0.239586
vt 0.277615 0.292643
f 39/238/39 40/239/40 64/240/64
vt 0.230780 0.239586
vt 0.256963 0.416290
vt 0.277615 0.292643
f 40/241/40 65/242/65 64/243/64
vt 0.230780 0.239586
vt 0.162940 0.381499
vt 0.256963 0.416290
f 40/244/40 41/245/41 65/246/65
vt 0.162940 0.381499
vt 0.293140 0.500000
vt 0.256963 0.416290
f 41/247/41 66/248/66 65/249/65
vt 0.162940 0.381499
vt 0.177309 0.500000
vt 0.293140 0.500000
f 41/250/41 42/251/42 66/252/66
vt 0.177309 0.500000
vt 0.256963 0.583710
vt 0.293140 0.500000
f 42/253/42 67/254/67 66/255/66
vt 0.177309 0.500000
vt 0.162940 0.618501
vt 0.256963 0.583710
f 42/256/42 43/257/43 67/258/67
vt 0.162940 0.618501
vt 0.277615 0.707357
vt 0.256963 0.583710
f 43/259/43 68/260/68 67/261/67
vt 0.162940 0.618501
vt 0.230780 0.760414
vt 0.277615 0.707357
f 43/262/43 44/263/44 68/264/68
vt 0.230780 0.760414
vt 0.350589 0.787352
vt 0.277615 0.707357
f 44/265/44 69/266/69 68/267/68
vt 0.230780 0.760414
vt 0.333653 0.833789
vt 0.350589 0.787352
f 44/268/44 45/269/45 69/270/69
vt 0.333653 0.833789
vt 0.414782 0.816032
vt 0.350589 0.787352
f 45/271/45 70/272/70 69/273/69
vt 0.333653 0.833789
vt 0.408027 0.854037
vt 0.414782 0.816032
f 45/274/45 46/275/46 70/276/70
vt 0.408027 0.854037
vt 0.461438 0.824048
vt 0.414782 0.816032
f 46/277/46 71/278/71 70/279/70
vt 0.408027 0.854037
vt 0.458613 0.857860
vt 0.461438 0.824048
f 46/280/46 47/281/47 71/282/71
vt 0.458613 0.857860
vt 0.500000 0.825616
vt 0.461438 0.824048
f 47/283/47 72/284/72 71/285/71
vt 0.458613 0.857860
vt 0.500000 0.858280
vt 0.500000 0.825616
f 47/286/47 48/287/48 72/288/72
vt 0.500000 0.858280
vt 0.538562 0.824048
vt 0.500000 0.825616
f 48/289/48 73/290/73 72/291/72
vt 0.500000 0.858280
vt 0.541387 0.857860
vt 0.538562 0.824048
f 48/292/48 49/293/49 73/294/73
vt 0.541387 0.857860
vt 0.585218 0.816032
vt 0.538562 0.824048
f 49/295/49 74/296/74 73/297/73
vt 0.541387 0.857860
vt 0.591973 0.854037
vt 0.585218 0.816032
f 49/298/49 50/299/50 74/300/74
vt 0.591973 0.854037
vt 0.649411 0.787352
vt 0.585218 0.816032
f 50/301/50 75/302/75 74/303/74
vt 0.591973 0.854037
vt 0.666347 0.833789
vt 0.649411 0.787352
f 50/304/50 51/305/51 75/306/75
vt 0.666347 0.833789
vt 0.722385 0.707357
vt 0.649411 0.787352
f 51/307/51 76/308/76 75/309/75
vt 0.666347 0.833789
vt 0.769220 0.760414
vt 0.722385 0.707357
f 51/310/51 52/311/52 76/312/76
vt 0.769220 0.760414
vt 0.743037 0.583710
vt 0.722385 0.707357
f 52/313/52 77/314/77 76/315/76
vt 0.769220 0.760414
vt 0.837060 0.618501
vt 0.743037 0.583710
f 52/316/52 53/317/53 77/318/77
vt 0.837060 0.618501
vt 0.706860 0.500000
vt 0.743037 0.583710
f 53/319/53 78/320/78 77/321/77
vt 0.837060 0.618501
vt 0.822691 0.500000
vt 0.706860 0.500000
f 53/322/53 54/323/54 78/324/78
vt 0.822691 0.500000
vt 0.743037 0.416290
vt 0.706860 0.500000
f 54/325/54 79/326/79 78/327/78
vt 0.822691 0.500000
vt 0.837060 0.381499
vt 0.743037 0.416290
f 54/328/54 55/329/55 79/330/79
vt 0.837060 0.381499
vt 0.722385 0.292643
vt 0.743037 0.416290
f 55/331/55 80/332/80 79/333/79
vt 0.837060 0.381499
vt 0.769220 0.239586
vt 0.722385 0.292643
f 55/334/55 56/335/56 80/336/80
vt 0.769220 0.239586
vt 0.649411 0.212648
vt 0.722385 0.292643
f 56/337/56 81/338/81 80/339/80
vt 0.769220 0.239586
vt 0.666347 0.166211
vt 0.649411 0.212648
f 56/340/56 57/341/57 81/342/81
vt 0.666347 0.166211
vt 0.585218 0.183968
vt 0.649411 0.212648
f 57/343/57 82/344/82 81/345/81
vt 0.666347 0.166211
vt 0.591973 0.145963
vt 0.585218 0.183968
f 57/346/57 58/347/58 82/348/82
vt 0.591973 0.145963
vt 0.538562 0.175952
vt 0.585218 0.183968
f 58/349/58 83/350/83 82/351/82
vt 0.591973 0.145963
vt 0.541387 0.142140
vt 0.538562 0.175952
f 58/352/58 59/353/59 83/354/83
vt 0.541387 0.142140
vt 0.500000 0.174384
vt 0.538562 0.175952
f 59/355/59 61/356/61 83/357/83
vt 0.541387 0.142140
vt 0.500000 0.141720
vt 0.500000 0.174384
f 59/358/59 37/359/37 61/360/61
vt 0.500000 0.174384
vt 0.469526 0.268541
vt 0.500000 0.261826
f 61/361/61 84/362/84 85/363/85
vt 0.500000 0.174384
vt 0.461438 0.175952
vt 0.469526 0.268541
f 61/364/61 60/365/60 84/366/84
vt 0.461438 0.175952
vt 0.437570 0.292502
vt 0.469526 0.268541
f 60/367/60 86/368/86 84/369/84
vt 0.461438 0.175952
vt 0.414782 0.183968
vt 0.437570 0.292502
f 60/370/60 62/371/62 86/372/86
vt 0.414782 0.183968
vt 0.408524 0.342099
vt 0.437570 0.292502
f 62/373/62 87/374/87 86/375/86
vt 0.414782 0.183968
vt 0.350589 0.212648
vt 0.408524 0.342099
f 62/376/62 63/377/63 87/378/87
vt 0.350589 0.212648
vt 0.395812 0.410909
vt 0.408524 0.342099
f 63/379/63 88/380/88 87/381/87
vt 0.350589 0.212648
vt 0.277615 0.292643
vt 0.395812 0.410909
f 63/382/63 64/383/64 88/384/88
vt 0.277615 0.292643
vt 0.401472 0.467622
vt 0.395812 0.410909
f 64/385/64 89/386/89 88/387/88
vt 0.277615 0.292643
vt 0.256963 0.416290
vt 0.401472 0.467622
f 64/388/64 65/389/65 89/390/89
vt 0.256963 0.416290
vt 0.413205 0.500000
vt 0.401472 0.467622
f 65/391/65 90/392/90 89/393/89
vt 0.256963 0.416290
vt 0.293140 0.500000
vt 0.413205 0.500000
f 65/394/65 66/395/66 90/396/90
vt 0.293140 0.500000
vt 0.401472 0.532378
vt 0.413205 0.500000
f 66/397/66 91/398/91 90/399/90
vt 0.293140 0.500000
vt 0.256963 0.583710
vt 0.401472 0.532378
f 66/400/66 67/401/67 91/402/91
vt 0.256963 0.583710
vt 0.395812 0.589091
vt 0.401472 0.532378
f 67/403/67 92/404/92 91/405/91
vt 0.256963 0.583710
vt 0.277615 0.707357
vt 0.395812 0.589091
f 67/406/67 68/407/68 92/408/92
vt 0.277615 0.707357
vt 0.408524 0.657901
vt 0.395812 0.589091
f 68/409/68 93/410/93 92/411/92
vt 0.277615 0.707357
vt 0.350589 0.787352
vt 0.408524 0.657901
f 68/412/68 69/413/69 93/414/93
vt 0.350589 0.787352
vt 0.437570 0.707498
vt 0.408524 0.657901
f 69/415/69 94/416/94 93/417/93
vt 0.350589 0.787352
vt 0.414782 0.816032
vt 0.437570 0.707498
f 69/418/69 70/419/70 94/420/94
vt 0.414782 0.816032
vt 0.469526 0.731459
vt 0.437570 0.707498
f 70/421/70 95/422/95 94/423/94
vt 0.414782 0.816032
vt 0.461438 0.824048
vt 0.469526 0.731459
f 70/424/70 71/425/71 95/426/95
vt 0.461438 0.824048
vt 0.500000 0.738174
vt 0.469526 0.731459
f 71/427/71 96/428/96 95/429/95
vt 0.461438 0.824048
vt 0.500000 0.825616
vt 0.500000 0.738174
f 71/430/71 72/431/72 96/432/96
vt 0.500000 0.825616
vt 0.530474 0.731459
vt 0.500000 0.738174
f 72/433/72 97/434/97 96/435/96
vt 0.500000 0.825616
vt 0.538562 0.824048
vt 0.530474 0.731459
f 72/436/72 73/437/73 97/438/97
vt 0.538562 0.824048
vt 0.562430 0.707498
vt 0.530474 0.731459
f 73/439/73 98/440/98 97/441/97
vt 0.538562 0.824048
vt 0.585218 0.816032
vt 0.562430 0.707498
f 73/442/73 74/443/74 98/444/98
vt 0.585218 0.816032
vt 0.591476 0.657901
vt 0.562430 0.707498
f 74/445/74 99/446/99 98/447/98
vt 0.585218 0.816032
vt 0.649411 0.787352
vt 0.591476 0.657901
f 74/448/74 75/449/75 99/450/99
vt 0.649411 0.787352
vt 0.604188 0.589091
vt 0.591476 0.657901
f 75/451/75 100/452/100 99/453/99
vt 0.649411 0.787352
vt 0.722385 0.707357
vt 0.604188 0.589091
f 75/454/75 76/455/76 100/456/100
vt 0.722385 0.707357
vt 0.598528 0.532378
vt 0.604188 0.589091
f 76/457/76 101/458/101 100/459/100
vt 0.722385 0.707357
vt 0.743037 0.583710
vt 0.598528 0.532378
f 76/460/76 77/461/77 101/462/101
vt 0.743037 0.583710
vt 0.586795 0.500000
vt 0.598528 0.532378
f 77/463/77 102/464/102 101/465/101
vt 0.743037 0.583710
vt 0.706860 0.500000
vt 0.586795 0.500000
f 77/466/77 78/467/78 102/468/102
vt 0.706860 0.500000
vt 0.598528 0.467622
vt 0.586795 0.500000
f 78/469/78 103/470/103 102/471/102
vt 0.706860 0.500000
vt 0.743037 0.416290
vt 0.598528 0.467622
f 78/472/78 79/473/79 103/474/103
vt 0.743037 0.416290
vt 0.604188 0.410909
vt 0.598528 0.467622
f 79/475/79 104/476/104 103/477/103
vt 0.743037 0.416290
vt 0.722385 0.292643
vt 0.604188 0.410909
f 79/478/79 80/479/80 104/480/104
vt 0.722385 0.292643
vt 0.591476 0.342099
vt 0.604188 0.410909
f 80/481/80 105/482/105 104/483/104
vt 0.722385 0.292643
vt 0.649411 0.212648
vt 0.591476 0.342099
f 80/484/80 81/485/81 105/486/105
vt 0.649411 0.212648
vt 0.562430 0.292502
vt 0.591476 0.342099
f 81/487/81 106/488/106 105/489/105
vt 0.649411 0.212648
vt 0.585218 0.183968
vt 0.562430 0.292502
f 81/490/81 82/491/82 106/492/106
vt 0.585218 0.183968
vt 0.530474 0.268541
vt 0.562430 0.292502
f 82/493/82 107/494/107 106/495/106
vt 0.585218 0.183968
vt 0.538562 0.175952
vt 0.530474 0.268541
f 82/496/82 83/497/83 107/498/107
vt 0.538562 0.175952
vt 0.500000 0.261826
vt 0.530474 0.268541
f 83/499/83 85/500/85 107/501/107
vt 0.538562 0.175952
vt 0.500000 0.174384
vt 0.500000 0.261826
f 83/502/83 61/503/61 85/504/85
vt 0.500000 0.261826
vt 0.489104 0.431849
vt 0.500000 0.427573
f 85/505/85 108/506/108 109/507/109
vt 0.500000 0.261826
vt 0.469526 0.268541
vt 0.489104 0.431849
f 85/508/85 84/509/84 108/510/108
vt 0.469526 0.268541
vt 0.479560 0.443585
vt 0.489104 0.431849
f 84/511/84 110/512/110 108/513/108
vt 0.469526 0.268541
vt 0.437570 0.292502
vt 0.479560 0.443585
f 84/514/84 86/515/86 110/516/110
vt 0.437570 0.292502
vt 0.472500 0.459665
vt 0.479560 0.443585
f 86/517/86 111/518/111 110/519/110
vt 0.437570 0.292502
vt 0.408524 0.342099
vt 0.472500 0.459665
f 86/520/86 87/521/87 111/522/111
vt 0.408524 0.342099
vt 0.468428 0.476079
vt 0.472500 0.459665
f 87/523/87 112/524/112 111/525/111
vt 0.408524 0.342099
vt 0.395812 0.410909
vt 0.468428 0.476079
f 87/526/87 88/527/88 112/528/112
vt 0.395812 0.410909
vt 0.467113 0.489859
vt 0.468428 0.476079
f 88/529/88 113/530/113 112/531/112
vt 0.395812 0.410909
vt 0.401472 0.467622
vt 0.467113 0.489859
f 88/532/88 89/533/89 113/534/113
vt 0.401472 0.467622
vt 0.467998 0.500000
vt 0.467113 0.489859
f 89/535/89 114/536/114 113/537/113
vt 0.401472 0.467622
vt 0.413205 0.500000
vt 0.467998 0.500000
f 89/538/89 90/539/90 114/540/114
vt 0.413205 0.500000
vt 0.467113 0.510141
vt 0.467998 0.500000
f 90/541/90 115/542/115 114/543/114
vt 0.413205 0.500000
vt 0.401472 0.532378
vt 0.467113 0.510141
f 90/544/90 91/545/91 115/546/115
vt 0.401472 0.532378
vt 0.468428 0.523921
vt 0.467113 0.510141
f 91/547/91 116/548/116 115/549/115
vt 0.401472 0.532378
vt 0.395812 0.589091
vt 0.468428 0.523921
f 91/550/91 92/551/92 116/552/116
vt 0.395812 0.589091
vt 0.472500 0.540335
vt 0.468428 0.523921
f 92/553/92 117/554/117 116/555/116
vt 0.395812 0.589091
vt 0.408524 0.657901
vt 0.472500 0.540335
f 92/556/92 93/557/93 117/558/117
vt 0.408524 0.657901
vt 0.479560 0.556415
vt 0.472500 0.540335
f 93/559/93 118/560/118 117/561/117
vt 0.408524 0.657901
vt 0.437570 0.707498
vt 0.479560 0.556415
f 93/562/93 94/563/94 118/564/118
vt 0.437570 0.707498
vt 0.489104 0.568151
vt 0.479560 0.556415
f 94/565/94 119/566/119 118/567/118
vt 0.437570 0.707498
vt 0.469526 0.731459
vt 0.489104 0.568151
f 94/568/94 95/569/95 119/570/119
vt 0.469526 0.731459
vt 0.500000 0.572427
vt 0.489104 0.568151
f 95/571/95 120/572/120 119/573/119
vt 0.469526 0.731459
vt 0.500000 0.738174
vt 0.500000 0.572427
f 95/574/95 96/575/96 120/576/120
vt 0.500000 0.738174
vt 0.510896 0.568151
vt 0.500000 0.572427
f 96/577/96 121/578/121 120/579/120
vt 0.500000 0.738174
vt 0.530474 0.731459
vt 0.510896 0.568151
f 96/580/96 97/581/97 121/582/121
vt 0.530474 0.731459
vt 0.520440 0.556415
vt 0.510896 0.568151
f 97/583/97 122/584/122 121/585/121
vt 0.530474 0.731459
vt 0.562430 0.707498
vt 0.520440 0.556415
f 97/586/97 98/587/98 122/588/122
vt 0.562430 0.707498
vt 0.527500 0.540335
vt 0.520440 0.556415
f 98/589/98 123/590/123 122/591/122
vt 0.562430 0.707498
vt 0.591476 0.657901
vt 0.527500 0.540335
f 98/592/98 99/593/99 123/594/123
vt 0.591476 0.657901
vt 0.531572 0.523921
vt 0.527500 0.540335
f 99/595/99 124/596/124 123/597/123
vt 0.591476 0.657901
vt 0.604188 0.589091
vt 0.531572 0.523921
f 99/598/99 100/599/100 124/600/124
vt 0.604188 0.589091
vt 0.532887 0.510141
vt 0.531572 0.523921
f 100/601/100 125/602/125 124/603/124
vt 0.604188 0.589091
vt 0.598528 0.532378
vt 0.532887 0.510141
f 100/604/100 101/605/101 125/606/125
vt 0.598528 0.532378
vt 0.532002 0.500000
vt 0.532887 0.510141
f 101/607/101 126/608/126 125/609/125
vt 0.598528 0.532378
vt 0.586795 0.500000
vt 0.532002 0.500000
f 101/610/101 102/611/102 126/612/126
vt 0.586795 0.500000
vt 0.532887 0.489859
vt 0.532002 0.500000
f 102/613/102 127/614/127 126/615/126
vt 0.586795 0.500000
vt 0.598528 0.467622
vt 0.532887 0.489859
f 102/616/102 103/617/103 127/618/127
vt 0.598528 0.467622
vt 0.531572 0.476079
vt 0.532887 0.489859
f 103/619/103 128/620/128 127/621/127
vt 0.598528 0.467622
vt 0.604188 0.410909
vt 0.531572 0.476079
f 103/622/103 104/623/104 128/624/128
vt 0.604188 0.410909
vt 0.527500 0.459665
vt 0.531572 0.476079
f 104/625/104 129/626/129 128/627/128
vt 0.604188 0.410909
vt 0.591476 0.342099
vt 0.527500 0.459665
f 104/628/104 105/629/105 129/630/129
vt 0.591476 0.342099
vt 0.520440 0.443585
vt 0.527500 0.459665
f 105/631/105 130/632/130 129/633/129
vt 0.591476 0.342099
vt 0.562430 0.292502
vt 0.520440 0.443585
f 105/634/105 106/635/106 130/636/130
vt 0.562430 0.292502
vt 0.510896 0.431849
vt 0.520440 0.443585
f 106/637/106 131/638/131 130/639/130
vt 0.562430 0.292502
vt 0.530474 0.268541
vt 0.510896 0.431849
f 106/640/106 107/641/107 131/642/131
vt 0.530474 0.268541
vt 0.500000 0.427573
vt 0.510896 0.431849
f 107/643/107 109/644/109 131/645/131
vt 0.530474 0.268541
vt 0.500000 0.261826
vt 0.500000 0.427573
f 107/646/107 85/647/85 109/648/109
vt 0.500000 0.427573
vt 0.495053 0.475663
vt 0.500000 0.474230
f 109/649/109 132/650/132 133/651/133
vt 0.500000 0.427573
vt 0.489104 0.431849
vt 0.495053 0.475663
f 109/652/109 108/653/108 132/654/132
vt 0.489104 0.431849
vt 0.490783 0.479548
vt 0.495053 0.475663
f 108/655/108 134/656/134 132/657/132
vt 0.489104 0.431849
vt 0.479560 0.443585
vt 0.490783 0.479548
f 108/658/108 110/659/110 134/660/134
vt 0.479560 0.443585
vt 0.487647 0.484879
vt 0.490783 0.479548
f 110/661/110 135/662/135 134/663/134
vt 0.479560 0.443585
vt 0.472500 0.459665
vt 0.487647 0.484879
f 110/664/110 111/665/111 135/666/135
vt 0.472500 0.459665
vt 0.485800 0.490544
vt 0.487647 0.484879
f 111/667/111 136/668/136 135/669/135
vt 0.472500 0.459665
vt 0.468428 0.476079
vt 0.485800 0.490544
f 111/670/111 112/671/112 136/672/136
vt 0.468428 0.476079
vt 0.485163 0.495721
vt 0.485800 0.490544
f 112/673/112 137/674/137 136/675/136
vt 0.468428 0.476079
vt 0.467113 0.489859
vt 0.485163 0.495721
f 112/676/112 113/677/113 137/678/137
vt 0.467113 0.489859
vt 0.485550 0.500000
vt 0.485163 0.495721
f 113/679/113 138/680/138 137/681/137
vt 0.467113 0.489859
vt 0.467998 0.500000
vt 0.485550 0.500000
f 113/682/113 114/683/114 138/684/138
vt 0.467998 0.500000
vt 0.485163 0.504279
vt 0.485550 0.500000
f 114/685/114 139/686/139 138/687/138
vt 0.467998 0.500000
vt 0.467113 0.510141
vt 0.485163 0.504279
f 114/688/114 115/689/115 139/690/139
vt 0.467113 0.510141
vt 0.485800 0.509456
vt 0.485163 0.504279
f 115/691/115 140/692/140 139/693/139
vt 0.467113 0.510141
vt 0.468428 0.523921
vt 0.485800 0.509456
f 115/694/115 116/695/116 140/696/140
vt 0.468428 0.523921
vt 0.487647 0.515121
vt 0.485800 0.509456
f 116/697/116 141/698/141 140/699/140
vt 0.468428 0.523921
vt 0.472500 0.540335
vt 0.487647 0.515121
f 116/700/116 117/701/117 141/702/141
vt 0.472500 0.540335
vt 0.490783 0.520452
vt 0.487647 0.515121
f 117/703/117 142/704/142 141/705/141
vt 0.472500 0.540335
vt 0.479560 0.556415
vt 0.490783 0.520452
f 117/706/117 118/707/118 142/708/142
vt 0.479560 0.556415
vt 0.495053 0.524338
vt 0.490783 0.520452
f 118/709/118 143/710/143 142/711/142
vt 0.479560 0.556415
vt 0.489104 0.568151
vt 0.495053 0.524338
f 118/712/118 119/713/119 143/714/143
vt 0.489104 0.568151
vt 0.500000 0.525770
vt 0.495053 0.524338
f 119/715/119 144/716/144 143/717/143
vt 0.489104 0.568151
vt 0.500000 0.572427
vt 0.500000 0.525770
f 119/718/119 120/719/120 144/720/144
vt 0.500000 0.572427
vt 0.504947 0.524338
vt 0.500000 0.525770
f 120/721/120 145/722/145 144/723/144
vt 0.500000 0.572427
vt 0.510896 0.568151
vt 0.504947 0.524338
f 120/724/120 121/725/121 145/726/145
vt 0.510896 0.568151
vt 0.509217 0.520452
vt 0.504947 0.524338
f 121/727/121 146/728/146 145/729/145
vt 0.510896 0.568151
vt 0.520440 0.556415
vt 0.509217 0.520452
f 121/730/121 122/731/122 146/732/146
vt 0.520440 0.556415
vt 0.512353 0.515121
vt 0.509217 0.520452
f 122/733/122 147/734/147 146/735/146
vt 0.520440 0.556415
vt 0.527500 0.540335
vt 0.512353 0.515121
f 122/736/122 123/737/123 147/738/147
vt 0.527500 0.540335
vt 0.514200 0.509456
vt 0.512353 0.515121
f 123/739/123 148/740/148 147/741/147
vt 0.527500 0.540335
vt 0.531572 0.523921
vt 0.514200 0.509456
f 123/742/123 124/743/124 148/744/148
vt 0.531572 0.523921
vt 0.514837 0.504279
vt 0.514200 0.509456
f 124/745/124 149/746/149 148/747/148
vt 0.531572 0.523921
vt 0.532887 0.510141
vt 0.514837 0.504279
f 124/748/124 125/749/125 149/750/149
vt 0.532887 0.510141
vt 0.514450 0.500000
vt 0.514837 0.504279
f 125/751/125 150/752/150 149/753/149
vt 0.532887 0.510141
vt 0.532002 0.500000
vt 0.514450 0.500000
f 125/754/125 126/755/126 150/756/150
vt 0.532002 0.500000
vt 0.514837 0.495721
vt 0.514450 0.500000
f 126/757/126 151/758/151 150/759/150
vt 0.532002 0.500000
vt 0.532887 0.489859
vt 0.514837 0.495721
f 126/760/126 127/761/127 151/762/151
vt 0.532887 0.489859
vt 0.514200 0.490544
vt 0.514837 0.495721
f 127/763/127 152/764/152 151/765/151
vt 0.532887 0.489859
vt 0.531572 0.476079
vt 0.514200 0.490544
f 127/766/127 128/767/128 152/768/152
vt 0.531572 0.476079
vt 0.512353 0.484879
vt 0.514200 0.490544
f 128/769/128 153/770/153 152/771/152
vt 0.531572 0.476079
vt 0.527500 0.459665
vt 0.512353 0.484879
f 128/772/128 129/773/129 153/774/153
vt 0.527500 0.459665
vt 0.509217 0.479548
vt 0.512353 0.484879
f 129/775/129 154/776/154 153/777/153
vt 0.527500 0.459665
vt 0.520440 0.443585
vt 0.509217 0.479548
f 129/778/129 130/779/130 154/780/154
vt 0.520440 0.443585
vt 0.504947 0.475663
vt 0.509217 0.479548
f 130/781/130 155/782/155 154/783/154
vt 0.520440 0.443585
vt 0.510896 0.431849
vt 0.504947 0.475663
f 130/784/130 131/785/131 155/786/155
vt 0.510896 0.431849
vt 0.500000 0.474230
vt 0.504947 0.475663
f 131/787/131 133/788/133 155/789/155
vt 0.510896 0.431849
vt 0.500000 0.427573
vt 0.500000 0.474230
f 131/790/131 109/791/109 133/792/133
vt 0.500000 0.500000
vt 0.500000 0.474230
vt 0.495053 0.475663
f 156/793/156 133/794/133 132/795/132
vt 0.500000 0.500000
vt 0.495053 0.475663
vt 0.490783 0.479548
f 156/796/156 132/797/132 134/798/134
vt 0.500000 0.500000
vt 0.490783 0.479548
vt 0.487647 0.484879
f 156/799/156 134/800/134 135/801/135
vt 0.500000 0.500000
vt 0.487647 0.484879
vt 0.485800 0.490544
f 156/802/156 135/803/135 136/804/136
vt 0.500000 0.500000
vt 0.485800 0.490544
vt 0.485163 0.495721
f 156/805/156 136/806/136 137/807/137
vt 0.500000 0.500000
vt 0.485163 0.495721
vt 0.485550 0.500000
f 156/808/156 137/809/137 138/810/138
vt 0.500000 0.500000
vt 0.485550 0.500000
vt 0.485163 0.504279
f 156/811/156 138/812/138 139/813/139
vt 0.500000 0.500000
vt 0.485163 0.504279
vt 0.485800 0.509456
f 156/814/156 139/815/139 140/816/140
vt 0.500000 0.500000
vt 0.485800 0.509456
vt 0.487647 0.515121
f 156/817/156 140/818/140 141/819/141
vt 0.500000 0.500000
vt 0.487647 0.515121
vt 0.490783 0.520452
f 156/820/156 141/821/141 142/822/142
vt 0.500000 0.500000
vt 0.490783 0.520452
vt 0.495053 0.524338
f 156/823/156 142/824/142 143/825/143
vt 0.500000 0.500000
vt 0.495053 0.524338
vt 0.500000 0.525770
f 156/826/156 143/827/143 144/828/144
vt 0.500000 0.500000
vt 0.500000 0.525770
vt 0.504947 0.524338
f 156/829/156 144/830/144 145/831/145
vt 0.500000 0.500000
vt 0.504947 0.524338
vt 0.509217 0.520452
f 156/832/156 145/833/145 146/834/146
vt 0.500000 0.500000
vt 0.509217 0.520452
vt 0.512353 0.515121
f 156/835/156 146/836/146 147/837/147
vt 0.500000 0.500000
vt 0.512353 0.515121
vt 0.514200 0.509456
f 156/838/156 147/839/147 148/840/148
vt 0.500000 0.500000
vt 0.514200 0.509456
vt 0.514837 0.504279
f 156/841/156 148/842/148 149/843/149
vt 0.500000 0.500000
vt 0.514837 0.504279
vt 0.514450 0.500000
f 156/844/156 149/845/149 150/846/150
vt 0.500000 0.500000
vt 0.514450 0.500000
vt 0.514837 0.495721
f 156/847/156 150/848/150 151/849/151
vt 0.500000 0.500000
vt 0.514837 0.495721
vt 0.514200 0.490544
f 156/850/156 151/851/151 152/852/152
vt 0.500000 0.500000
vt 0.514200 0.490544
vt 0.512353 0.484879
f 156/853/156 152/854/152 153/855/153
vt 0.500000 0.500000
vt 0.512353 0.484879
vt 0.509217 0.479548
f 156/856/156 153/857/153 154/858/154
vt 0.500000 0.500000
vt 0.509217 0.479548
vt 0.504947 0.475663
f 156/859/156 154/860/154 155/861/155
vt 0.500000 0.500000
vt 0.504947 0.475663
vt 0.500000 0.474230
f 156/862/156 155/863/155 133/864/133
usemtl tex1_0
v 0.067114 0.000000 -6.764301
vn -0.000000 0.000000 1.000000
v -0.118580 1.582355 -6.764301
vn 0.348239 -0.520244 0.779792
v 0.067114 1.638175 -6.764301
vn 0.062178 -0.590096 0.804935
v -0.308837 1.418701 -6.764301
vn 0.494836 -0.437512 0.750813
v -0.523729 1.158365 -6.764301
vn 0.535612 -0.410522 0.737964
v -0.797086 0.819088 -6.764301
vn 0.530024 -0.430221 0.730742
v -1.152733 0.423991 -6.764301
vn 0.518143 -0.460889 0.720492
v -1.571060 0.000000 -6.764301
vn 0.573588 0.160282 0.803310
v -1.152733 -0.423990 -6.764301
vn 0.516412 0.449685 0.728768
v -0.797085 -0.819087 -6.764301
vn 0.530279 0.419105 0.736991
v -0.523729 -1.158364 -6.764301
vn 0.526903 0.412743 0.742978
v -0.308836 -1.418700 -6.764301
vn 0.458726 0.462092 0.758974
v -0.118580 -1.582354 -6.764301
vn 0.260255 0.554654 0.790333
v 0.067114 -1.638174 -6.764301
vn -0.062178 0.590096 0.804935
v 0.252809 -1.582354 -6.764301
vn -0.348239 0.520244 0.779792
v 0.067114 0.000000 -6.764301
vn 0.000000 0.000000 1.000000
v 0.443065 -1.418700 -6.764301
vn -0.494836 0.437512 0.750813
v 0.067114 0.000000 -6.764301
vn 0.000000 0.000000 1.000000
v 0.657957 -1.158364 -6.764301
vn -0.535613 0.410521 0.737964
v 0.067114 0.000000 -6.764301
vn 0.000000 0.000000 1.000000
v 0.931314 -0.819087 -6.764301
vn -0.530024 0.430221 0.730742
v 0.067114 0.000000 -6.764301
vn 0.000000 0.000000 1.000000
v 1.286962 -0.423990 -6.764301
vn -0.518143 0.460890 0.720492
v 0.067114 0.000000 -6.764301
vn 0.000000 0.000000 1.000000
v 1.705289 0.000001 -6.764301
vn -0.573588 -0.160282 0.803310
v 0.067114 0.000000 -6.764301
vn 0.000000 0.000000 1.000000
v 1.286961 0.423991 -6.764301
vn -0.516412 -0.449685 0.728768
v 0.067114 0.000000 -6.764301
vn 0.000000 0.000000 1.000000
v 0.931314 0.819088 -6.764301
vn -0.530279 -0.419105 0.736991
v 0.067114 0.000000 -6.764301
vn 0.000000 0.000000 1.000000
v 0.657957 1.158365 -6.764301
vn -0.526903 -0.412743 0.742978
v 0.067114 0.000000 -6.764301
vn 0.000000 0.000000 1.000000
v 0.443065 1.418701 -6.764301
vn -0.458726 -0.462092 0.758974
v 0.067114 0.000000 -6.764301
vn 0.000000 0.000000 1.000000
v 0.252808 1.582355 -6.764301
vn -0.260255 -0.554654 0.790333
v 0.067114 0.000000 -6.764301
vn 0.000000 0.000000 1.000000
v -0.357031 3.667417 -2.972834
vn 0.481024 -0.864032 0.148541
v 0.067114 3.796790 -2.981520
vn 0.002042 -0.988833 0.149014
v -0.787085 3.288116 -2.934179
vn 0.713563 -0.687547 0.134566
v -1.270848 2.684736 -2.832155
vn 0.775200 -0.617661 0.132515
v -1.895481 1.898395 -2.624491
vn 0.762659 -0.632235 0.136493
v -2.727989 0.982681 -2.276115
vn 0.730305 -0.669705 0.134718
v -3.729675 -0.000000 -1.774736
vn 0.984777 0.016129 0.173071
v -2.727988 -0.982682 -2.276116
vn 0.730253 0.671310 0.126781
v -1.895480 -1.898395 -2.624491
vn 0.763159 0.633472 0.127679
v -1.270848 -2.684736 -2.832155
vn 0.776426 0.618340 0.121726
v -0.787085 -3.288116 -2.934179
vn 0.715347 0.688863 0.117245
v -0.357031 -3.667417 -2.972834
vn 0.480904 0.867478 0.127333
v 0.067114 -3.796790 -2.981520
vn -0.002042 0.988833 0.149014
v 0.491260 -3.667417 -2.972834
vn -0.481025 0.864032 0.148541
v 0.921313 -3.288116 -2.934179
vn -0.713563 0.687547 0.134566
v 1.405076 -2.684735 -2.832155
vn -0.775200 0.617661 0.132515
v 2.029709 -1.898394 -2.624490
vn -0.762659 0.632235 0.136493
v 2.862217 -0.982681 -2.276115
vn -0.730305 0.669705 0.134718
v 3.863903 0.000001 -1.774736
vn -0.984777 -0.016129 0.173071
v 2.862216 0.982682 -2.276116
vn -0.730253 -0.671310 0.126781
v 2.029708 1.898395 -2.624491
vn -0.763159 -0.633472 0.127679
v 1.405076 2.684736 -2.832155
vn -0.776426 -0.618340 0.121726
v 0.921313 3.288116 -2.934179
vn -0.715347 -0.688863 0.117245
v 0.491259 3.667417 -2.972834
vn -0.480904 -0.867478 0.127333
v -0.336301 3.390047 -1.684774
vn 0.414331 -0.879965 -0.232360
v 0.067114 3.509634 -1.714459
vn -0.016336 -0.964761 -0.262619
v -0.752467 3.039433 -1.571283
vn 0.644879 -0.742768 -0.180072
v -1.223256 2.481687 -1.309433
vn 0.713866 -0.686186 -0.139801
v -1.814882 1.754817 -0.818322
vn 0.706793 -0.698303 -0.113207
v -2.570155 0.908360 -0.032673
vn 0.676743 -0.729759 -0.097317
v -3.442521 -0.000000 1.066260
vn 0.990368 0.008758 -0.138182
v -2.570155 -0.908361 -0.032673
vn 0.671859 0.734211 -0.097672
v -1.814881 -1.754818 -0.818323
vn 0.702036 0.702911 -0.114289
v -1.223256 -2.481687 -1.309433
vn 0.712197 0.687520 -0.141745
v -0.752467 -3.039433 -1.571283
vn 0.649963 0.737641 -0.182849
v -0.336301 -3.390048 -1.684774
vn 0.433819 0.869914 -0.234628
v 0.067114 -3.509635 -1.714459
vn 0.016337 0.964761 -0.262619
v 0.470529 -3.390048 -1.684774
vn -0.414331 0.879965 -0.232359
v 0.886695 -3.039433 -1.571283
vn -0.644880 0.742768 -0.180072
v 1.357484 -2.481686 -1.309433
vn -0.713866 0.686186 -0.139801
v 1.949109 -1.754817 -0.818322
vn -0.706793 0.698303 -0.113207
v 2.704383 -0.908360 -0.032673
vn -0.676743 0.729759 -0.097317
v 3.576748 0.000000 1.066260
vn -0.990368 -0.008758 -0.138182
v 2.704382 0.908361 -0.032673
vn -0.671859 -0.734211 -0.097672
v 1.949109 1.754818 -0.818322
vn -0.702036 -0.702911 -0.114289
v 1.357484 2.481687 -1.309433
vn -0.712197 -0.687520 -0.141745
v 0.886695 3.039433 -1.571283
vn -0.649963 -0.737641 -0.182850
v 0.470529 3.390047 -1.684774
vn -0.433819 -0.869914 -0.234628
v -0.295807 2.756457 0.380991
vn 0.321726 -0.914243 -0.246276
v 0.067114 2.853694 0.303386
vn -0.023761 -0.964014 -0.264786
v -0.676452 2.471371 0.639188
vn 0.535349 -0.819785 -0.203356
v -1.101883 2.017866 1.144176
vn 0.621870 -0.765626 -0.164603
v -1.601528 1.426847 1.976005
vn 0.641694 -0.754666 -0.136776
v -2.180445 0.738590 3.192454
vn 0.638563 -0.760138 -0.120113
v -2.786580 -0.000000 4.794415
vn 0.984177 0.004536 -0.177128
v -2.180444 -0.738591 3.192453
vn 0.631754 0.766256 -0.117210
v -1.601528 -1.426847 1.976004
vn 0.636767 0.759742 -0.131600
v -1.101883 -2.017867 1.144174
vn 0.622016 0.767048 -0.157269
v -0.676452 -2.471372 0.639187
vn 0.545512 0.815102 -0.195003
v -0.295806 -2.756457 0.380990
vn 0.352331 0.904792 -0.239195
v 0.067114 -2.853694 0.303385
vn 0.023761 0.964014 -0.264786
v 0.430035 -2.756457 0.380991
vn -0.321726 0.914243 -0.246276
v 0.810680 -2.471372 0.639187
vn -0.535350 0.819785 -0.203356
v 1.236111 -2.017866 1.144175
vn -0.621870 0.765626 -0.164603
v 1.735756 -1.426847 1.976004
vn -0.641694 0.754666 -0.136776
v 2.314673 -0.738590 3.192453
vn -0.638563 0.760138 -0.120113
v 2.920808 0.000000 4.794417
vn -0.984177 -0.004536 -0.177128
v 2.314672 0.738590 3.192454
vn -0.631754 -0.766256 -0.117210
v 1.735755 1.426847 1.976005
vn -0.636767 -0.759743 -0.131600
v 1.236111 2.017867 1.144175
vn -0.622016 -0.767048 -0.157269
v 0.810680 2.471371 0.639188
vn -0.545512 -0.815102 -0.195003
v 0.430034 2.756457 0.380991
vn -0.352331 -0.904792 -0.239194
v -0.236602 1.899608 4.245542
vn 0.238549 -0.956180 -0.169747
v 0.067114 1.966619 4.109956
vn -0.022390 -0.984155 -0.175893
v -0.549965 1.703142 4.665926
vn 0.429284 -0.890531 -0.150565
v -0.881009 1.390610 5.404938
vn 0.537929 -0.832865 -0.130265
v -1.230703 0.983309 6.497556
vn 0.595460 -0.795139 -0.114808
v -1.583607 0.508998 7.954666
vn 0.630831 -0.768575 -0.106511
v -1.899506 -0.000001 9.739438
vn 0.987252 -0.004514 -0.159102
v -1.583607 -0.508999 7.954662
vn 0.622608 0.775668 -0.103432
v -1.230702 -0.983310 6.497552
vn 0.590645 0.799459 -0.109564
v -0.881009 -1.390611 5.404935
vn 0.539433 0.832991 -0.123039
v -0.549965 -1.703143 4.665924
vn 0.441598 0.885803 -0.142631
v -0.236602 -1.899609 4.245539
vn 0.269731 0.948919 -0.163701
v 0.067114 -1.966620 4.109953
vn 0.022390 0.984155 -0.175893
v 0.370829 -1.899609 4.245539
vn -0.238550 0.956180 -0.169747
v 0.684192 -1.703143 4.665924
vn -0.429284 0.890531 -0.150565
v 1.015236 -1.390610 5.404935
vn -0.537929 0.832864 -0.130265
v 1.364930 -0.983310 6.497554
vn -0.595460 0.795139 -0.114808
v 1.717834 -0.508999 7.954663
vn -0.630830 0.768576 -0.106511
v 2.033733 -0.000000 9.739440
vn -0.987252 0.004515 -0.159102
v 1.717834 0.508999 7.954666
vn -0.622608 -0.775668 -0.103432
v 1.364930 0.983310 6.497556
vn -0.590645 -0.799459 -0.109564
v 1.015236 1.390610 5.404937
vn -0.539433 -0.832991 -0.123039
v 0.684192 1.703142 4.665926
vn -0.441598 -0.885803 -0.142631
v 0.370829 1.899609 4.245542
vn -0.269731 -0.948919 -0.163701
v -0.136044 0.999416 11.462440
vn -0.156220 -0.924366 -0.348056
v 0.067113 1.034671 11.314148
vn -0.035823 -0.920474 -0.389158
v -0.336717 0.896052 11.906615
vn -0.142629 -0.948524 -0.282770
v -0.530591 0.731623 12.642077
vn -0.067922 -0.968670 -0.238882
v -0.709740 0.517335 13.653788
vn 0.014175 -0.978250 -0.206944
v -0.861318 0.267792 14.907874
vn 0.097089 -0.978441 -0.182281
v -0.967559 -0.000001 16.344542
vn 0.478875 -0.667644 -0.570027
v -0.861317 -0.267794 14.907863
vn 0.111648 0.976843 -0.182518
v -0.709740 -0.517337 13.653778
vn 0.035589 0.977988 -0.205603
v -0.530591 -0.731624 12.642070
vn -0.036714 0.970633 -0.237748
v -0.336717 -0.896053 11.906608
vn -0.099894 0.953477 -0.284434
v -0.136044 -0.999417 11.462433
vn -0.097022 0.930609 -0.352922
v 0.067114 -1.034673 11.314140
vn 0.035823 0.920475 -0.389157
v 0.270271 -0.999417 11.462433
vn 0.156219 0.924366 -0.348055
v 0.470944 -0.896053 11.906608
vn 0.142628 0.948524 -0.282770
v 0.664817 -0.731624 12.642070
vn 0.067921 0.968670 -0.238882
v 0.843966 -0.517337 13.653778
vn -0.014176 0.978250 -0.206944
v 0.995544 -0.267793 14.907865
vn -0.097090 0.978441 -0.182280
v 1.101785 -0.000001 16.344542
vn -0.478872 0.667649 -0.570024
v 0.995544 0.267792 14.907872
vn -0.111648 -0.976843 -0.182519
v 0.843967 0.517335 13.653786
vn -0.035588 -0.977988 -0.205603
v 0.664818 0.731623 12.642077
vn 0.036715 -0.970633 -0.237748
v 0.470944 0.896052 11.906615
vn 0.099895 -0.953477 -0.284435
v 0.270271 0.999416 11.462440
vn 0.097023 -0.930608 -0.352923
v 0.067113 -0.000001 12.217906
vn -0.000000 0.000003 -1.000000
vt 0.000000 0.500000
vt 0.444265 0.025067
vt 0.500000 0.022415
f 157/865/157 158/866/158 159/867/159
vt 0.000000 0.500000
vt 0.377073 0.036120
vt 0.444265 0.025067
f 157/868/157 160/869/160 158/870/158
vt 0.000000 0.500000
vt 0.280918 0.070483
vt 0.377073 0.036120
f 157/871/157 161/872/161 160/873/160
vt 0.000000 0.500000
vt 0.148964 0.167288
vt 0.280918 0.070483
f 157/874/157 162/875/162 161/876/161
vt 0.000000 0.500000
vt 0.044448 0.341661
vt 0.148964 0.167288
f 157/877/157 163/878/163 162/879/162
vt 0.000000 0.500000
vt 0.022415 0.500000
vt 0.044448 0.341661
f 157/880/157 164/881/164 163/882/163
vt 0.000000 0.500000
vt 0.044448 0.658339
vt 0.022415 0.500000
f 157/883/157 165/884/165 164/885/164
vt 0.000000 0.500000
vt 0.148963 0.832712
vt 0.044448 0.658339
f 157/886/157 166/887/166 165/888/165
vt 0.000000 0.500000
vt 0.280918 0.929517
vt 0.148963 0.832712
f 157/889/157 167/890/167 166/891/166
vt 0.000000 0.500000
vt 0.377073 0.963880
vt 0.280918 0.929517
f 157/892/157 168/893/168 167/894/167
vt 0.000000 0.500000
vt 0.444265 0.974933
vt 0.377073 0.963880
f 157/895/157 169/896/169 168/897/168
vt 0.000000 0.500000
vt 0.500000 0.977585
vt 0.444265 0.974933
f 157/898/157 170/899/170 169/900/169
vt 0.000000 0.500000
vt 0.555735 0.974933
vt 0.500000 0.977585
f 157/901/157 171/902/171 170/903/170
vt 1.000000 0.500000
vt 0.622927 0.963880
vt 0.555735 0.974933
f 172/904/172 173/905/173 171/906/171
vt 1.000000 0.500000
vt 0.719082 0.929517
vt 0.622927 0.963880
f 174/907/174 175/908/175 173/909/173
vt 1.000000 0.500000
vt 0.851036 0.832712
vt 0.719082 0.929517
f 176/910/176 177/911/177 175/912/175
vt 1.000000 0.500000
vt 0.955552 0.658339
vt 0.851036 0.832712
f 178/913/178 179/914/179 177/915/177
vt 1.000000 0.500000
vt 0.977585 0.500000
vt 0.955552 0.658339
f 180/916/180 181/917/181 179/918/179
vt 1.000000 0.500000
vt 0.955552 0.341661
vt 0.977585 0.500000
f 182/919/182 183/920/183 181/921/181
vt 1.000000 0.500000
vt 0.851036 0.167288
vt 0.955552 0.341661
f 184/922/184 185/923/185 183/924/183
vt 1.000000 0.500000
vt 0.719082 0.070483
vt 0.851036 0.167288
f 186/925/186 187/926/187 185/927/185
vt 1.000000 0.500000
vt 0.622927 0.036120
vt 0.719082 0.070483
f 188/928/188 189/929/189 187/930/187
vt 1.000000 0.500000
vt 0.555735 0.025067
vt 0.622927 0.036120
f 190/931/190 191/932/191 189/933/189
vt 1.000000 0.500000
vt 0.500000 0.022415
vt 0.555735 0.025067
f 192/934/192 159/935/159 191/936/191
vt 0.500000 0.022415
vt 0.450674 0.073494
vt 0.500000 0.072327
f 159/937/159 193/938/193 194/939/194
vt 0.500000 0.022415
vt 0.444265 0.025067
vt 0.450674 0.073494
f 159/940/159 158/941/158 193/942/193
vt 0.444265 0.025067
vt 0.390863 0.079891
vt 0.450674 0.073494
f 158/943/158 195/944/195 193/945/193
vt 0.444265 0.025067
vt 0.377073 0.036120
vt 0.390863 0.079891
f 158/946/158 160/947/160 195/948/195
vt 0.377073 0.036120
vt 0.303597 0.105899
vt 0.390863 0.079891
f 160/949/160 196/950/196 195/951/195
vt 0.377073 0.036120
vt 0.280918 0.070483
vt 0.303597 0.105899
f 160/952/160 161/953/161 196/954/196
vt 0.280918 0.070483
vt 0.180982 0.191417
vt 0.303597 0.105899
f 161/955/161 197/956/197 196/957/196
vt 0.280918 0.070483
vt 0.148964 0.167288
vt 0.180982 0.191417
f 161/958/161 162/959/162 197/960/197
vt 0.148964 0.167288
vt 0.087914 0.355122
vt 0.180982 0.191417
f 162/961/162 198/962/198 197/963/197
vt 0.148964 0.167288
vt 0.044448 0.341661
vt 0.087914 0.355122
f 162/964/162 163/965/163 198/966/198
vt 0.044448 0.341661
vt 0.083453 0.500000
vt 0.087914 0.355122
f 163/967/163 199/968/199 198/969/198
vt 0.044448 0.341661
vt 0.022415 0.500000
vt 0.083453 0.500000
f 163/970/163 164/971/164 199/972/199
vt 0.022415 0.500000
vt 0.087914 0.644878
vt 0.083453 0.500000
f 164/973/164 200/974/200 199/975/199
vt 0.022415 0.500000
vt 0.044448 0.658339
vt 0.087914 0.644878
f 164/976/164 165/977/165 200/978/200
vt 0.044448 0.658339
vt 0.180982 0.808583
vt 0.087914 0.644878
f 165/979/165 201/980/201 200/981/200
vt 0.044448 0.658339
vt 0.148963 0.832712
vt 0.180982 0.808583
f 165/982/165 166/983/166 201/984/201
vt 0.148963 0.832712
vt 0.303596 0.894101
vt 0.180982 0.808583
f 166/985/166 202/986/202 201/987/201
vt 0.148963 0.832712
vt 0.280918 0.929517
vt 0.303596 0.894101
f 166/988/166 167/989/167 202/990/202
vt 0.280918 0.929517
vt 0.390862 0.920109
vt 0.303596 0.894101
f 167/991/167 203/992/203 202/993/202
vt 0.280918 0.929517
vt 0.377073 0.963880
vt 0.390862 0.920109
f 167/994/167 168/995/168 203/996/203
vt 0.377073 0.963880
vt 0.450674 0.926506
vt 0.390862 0.920109
f 168/997/168 204/998/204 203/999/203
vt 0.377073 0.963880
vt 0.444265 0.974933
vt 0.450674 0.926506
f 168/1000/168 169/1001/169 204/1002/204
vt 0.444265 0.974933
vt 0.500000 0.927673
vt 0.450674 0.926506
f 169/1003/169 205/1004/205 204/1005/204
vt 0.444265 0.974933
vt 0.500000 0.977585
vt 0.500000 0.927673
f 169/1006/169 170/1007/170 205/1008/205
vt 0.500000 0.977585
vt 0.549326 0.926506
vt 0.500000 0.927673
f 170/1009/170 206/1010/206 205/1011/205
vt 0.500000 0.977585
vt 0.555735 0.974933
vt 0.549326 0.926506
f 170/1012/170 171/1013/171 206/1014/206
vt 0.555735 0.974933
vt 0.609138 0.920109
vt 0.549326 0.926506
f 171/1015/171 207/1016/207 206/1017/206
vt 0.555735 0.974933
vt 0.622927 0.963880
vt 0.609138 0.920109
f 171/1018/171 173/1019/173 207/1020/207
vt 0.622927 0.963880
vt 0.696404 0.894101
vt 0.609138 0.920109
f 173/1021/173 208/1022/208 207/1023/207
vt 0.622927 0.963880
vt 0.719082 0.929517
vt 0.696404 0.894101
f 173/1024/173 175/1025/175 208/1026/208
vt 0.719082 0.929517
vt 0.819018 0.808583
vt 0.696404 0.894101
f 175/1027/175 209/1028/209 208/1029/208
vt 0.719082 0.929517
vt 0.851036 0.832712
vt 0.819018 0.808583
f 175/1030/175 177/1031/177 209/1032/209
vt 0.851036 0.832712
vt 0.912086 0.644878
vt 0.819018 0.808583
f 177/1033/177 210/1034/210 209/1035/209
vt 0.851036 0.832712
vt 0.955552 0.658339
vt 0.912086 0.644878
f 177/1036/177 179/1037/179 210/1038/210
vt 0.955552 0.658339
vt 0.916547 0.500000
vt 0.912086 0.644878
f 179/1039/179 211/1040/211 210/1041/210
vt 0.955552 0.658339
vt 0.977585 0.500000
vt 0.916547 0.500000
f 179/1042/179 181/1043/181 211/1044/211
vt 0.977585 0.500000
vt 0.912086 0.355122
vt 0.916547 0.500000
f 181/1045/181 212/1046/212 211/1047/211
vt 0.977585 0.500000
vt 0.955552 0.341661
vt 0.912086 0.355122
f 181/1048/181 183/1049/183 212/1050/212
vt 0.955552 0.341661
vt 0.819018 0.191417
vt 0.912086 0.355122
f 183/1051/183 213/1052/213 212/1053/212
vt 0.955552 0.341661
vt 0.851036 0.167288
vt 0.819018 0.191417
f 183/1054/183 185/1055/185 213/1056/213
vt 0.851036 0.167288
vt 0.696404 0.105899
vt 0.819018 0.191417
f 185/1057/185 214/1058/214 213/1059/213
vt 0.851036 0.167288
vt 0.719082 0.070483
vt 0.696404 0.105899
f 185/1060/185 187/1061/187 214/1062/214
vt 0.719082 0.070483
vt 0.609138 0.079891
vt 0.696404 0.105899
f 187/1063/187 215/1064/215 214/1065/214
vt 0.719082 0.070483
vt 0.622927 0.036120
vt 0.609138 0.079891
f 187/1066/187 189/1067/189 215/1068/215
vt 0.622927 0.036120
vt 0.549326 0.073494
vt 0.609138 0.079891
f 189/1069/189 216/1070/216 215/1071/215
vt 0.622927 0.036120
vt 0.555735 0.025067
vt 0.549326 0.073494
f 189/1072/189 191/1073/191 216/1074/216
vt 0.555735 0.025067
vt 0.500000 0.072327
vt 0.549326 0.073494
f 191/1075/191 194/1076/194 216/1077/216
vt 0.555735 0.025067
vt 0.500000 0.022415
vt 0.500000 0.072327
f 191/1078/191 159/1079/159 194/1080/194
vt 0.500000 0.072327
vt 0.450042 0.080187
vt 0.500000 0.078749
f 194/1081/194 217/1082/217 218/1083/218
vt 0.500000 0.072327
vt 0.450674 0.073494
vt 0.450042 0.080187
f 194/1084/194 193/1085/193 217/1086/217
vt 0.450674 0.073494
vt 0.388866 0.087857
vt 0.450042 0.080187
f 193/1087/193 219/1088/219 217/1089/217
vt 0.450674 0.073494
vt 0.390863 0.079891
vt 0.388866 0.087857
f 193/1090/193 195/1091/195 219/1092/219
vt 0.390863 0.079891
vt 0.300907 0.117098
vt 0.388866 0.087857
f 195/1093/195 220/1094/220 219/1095/219
vt 0.390863 0.079891
vt 0.303597 0.105899
vt 0.300907 0.117098
f 195/1096/195 196/1097/196 220/1098/220
vt 0.303597 0.105899
vt 0.184378 0.205706
vt 0.300907 0.117098
f 196/1099/196 221/1100/221 220/1101/220
vt 0.303597 0.105899
vt 0.180982 0.191417
vt 0.184378 0.205706
f 196/1102/196 197/1103/197 221/1104/221
vt 0.180982 0.191417
vt 0.106161 0.364349
vt 0.184378 0.205706
f 197/1105/197 222/1106/222 221/1107/221
vt 0.180982 0.191417
vt 0.087914 0.355122
vt 0.106161 0.364349
f 197/1108/197 198/1109/198 222/1110/222
vt 0.087914 0.355122
vt 0.120288 0.500000
vt 0.106161 0.364349
f 198/1111/198 223/1112/223 222/1113/222
vt 0.087914 0.355122
vt 0.083453 0.500000
vt 0.120288 0.500000
f 198/1114/198 199/1115/199 223/1116/223
vt 0.083453 0.500000
vt 0.106161 0.635651
vt 0.120288 0.500000
f 199/1117/199 224/1118/224 223/1119/223
vt 0.083453 0.500000
vt 0.087914 0.644878
vt 0.106161 0.635651
f 199/1120/199 200/1121/200 224/1122/224
vt 0.087914 0.644878
vt 0.184378 0.794294
vt 0.106161 0.635651
f 200/1123/200 225/1124/225 224/1125/224
vt 0.087914 0.644878
vt 0.180982 0.808583
vt 0.184378 0.794294
f 200/1126/200 201/1127/201 225/1128/225
vt 0.180982 0.808583
vt 0.300907 0.882902
vt 0.184378 0.794294
f 201/1129/201 226/1130/226 225/1131/225
vt 0.180982 0.808583
vt 0.303596 0.894101
vt 0.300907 0.882902
f 201/1132/201 202/1133/202 226/1134/226
vt 0.303596 0.894101
vt 0.388866 0.912143
vt 0.300907 0.882902
f 202/1135/202 227/1136/227 226/1137/226
vt 0.303596 0.894101
vt 0.390862 0.920109
vt 0.388866 0.912143
f 202/1138/202 203/1139/203 227/1140/227
vt 0.390862 0.920109
vt 0.450042 0.919813
vt 0.388866 0.912143
f 203/1141/203 228/1142/228 227/1143/227
vt 0.390862 0.920109
vt 0.450674 0.926506
vt 0.450042 0.919813
f 203/1144/203 204/1145/204 228/1146/228
vt 0.450674 0.926506
vt 0.500000 0.921251
vt 0.450042 0.919813
f 204/1147/204 229/1148/229 228/1149/228
vt 0.450674 0.926506
vt 0.500000 0.927673
vt 0.500000 0.921251
f 204/1150/204 205/1151/205 229/1152/229
vt 0.500000 0.927673
vt 0.549958 0.919813
vt 0.500000 0.921251
f 205/1153/205 230/1154/230 229/1155/229
vt 0.500000 0.927673
vt 0.549326 0.926506
vt 0.549958 0.919813
f 205/1156/205 206/1157/206 230/1158/230
vt 0.549326 0.926506
vt 0.611134 0.912143
vt 0.549958 0.919813
f 206/1159/206 231/1160/231 230/1161/230
vt 0.549326 0.926506
vt 0.609138 0.920109
vt 0.611134 0.912143
f 206/1162/206 207/1163/207 231/1164/231
vt 0.609138 0.920109
vt 0.699093 0.882902
vt 0.611134 0.912143
f 207/1165/207 232/1166/232 231/1167/231
vt 0.609138 0.920109
vt 0.696404 0.894101
vt 0.699093 0.882902
f 207/1168/207 208/1169/208 232/1170/232
vt 0.696404 0.894101
vt 0.815622 0.794294
vt 0.699093 0.882902
f 208/1171/208 233/1172/233 232/1173/232
vt 0.696404 0.894101
vt 0.819018 0.808583
vt 0.815622 0.794294
f 208/1174/208 209/1175/209 233/1176/233
vt 0.819018 0.808583
vt 0.893839 0.635651
vt 0.815622 0.794294
f 209/1177/209 234/1178/234 233/1179/233
vt 0.819018 0.808583
vt 0.912086 0.644878
vt 0.893839 0.635651
f 209/1180/209 210/1181/210 234/1182/234
vt 0.912086 0.644878
vt 0.879712 0.500000
vt 0.893839 0.635651
f 210/1183/210 235/1184/235 234/1185/234
vt 0.912086 0.644878
vt 0.916547 0.500000
vt 0.879712 0.500000
f 210/1186/210 211/1187/211 235/1188/235
vt 0.916547 0.500000
vt 0.893839 0.364349
vt 0.879712 0.500000
f 211/1189/211 236/1190/236 235/1191/235
vt 0.916547 0.500000
vt 0.912086 0.355122
vt 0.893839 0.364349
f 211/1192/211 212/1193/212 236/1194/236
vt 0.912086 0.355122
vt 0.815622 0.205706
vt 0.893839 0.364349
f 212/1195/212 237/1196/237 236/1197/236
vt 0.912086 0.355122
vt 0.819018 0.191417
vt 0.815622 0.205706
f 212/1198/212 213/1199/213 237/1200/237
vt 0.819018 0.191417
vt 0.699093 0.117098
vt 0.815622 0.205706
f 213/1201/213 238/1202/238 237/1203/237
vt 0.819018 0.191417
vt 0.696404 0.105899
vt 0.699093 0.117098
f 213/1204/213 214/1205/214 238/1206/238
vt 0.696404 0.105899
vt 0.611134 0.087857
vt 0.699093 0.117098
f 214/1207/214 239/1208/239 238/1209/238
vt 0.696404 0.105899
vt 0.609138 0.079891
vt 0.611134 0.087857
f 214/1210/214 215/1211/215 239/1212/239
vt 0.609138 0.079891
vt 0.549958 0.080187
vt 0.611134 0.087857
f 215/1213/215 240/1214/240 239/1215/239
vt 0.609138 0.079891
vt 0.549326 0.073494
vt 0.549958 0.080187
f 215/1216/215 216/1217/216 240/1218/240
vt 0.549326 0.073494
vt 0.500000 0.078749
vt 0.549958 0.080187
f 216/1219/216 218/1220/218 240/1221/240
vt 0.549326 0.073494
vt 0.500000 0.072327
vt 0.500000 0.078749
f 216/1222/216 194/1223/194 218/1224/218
vt 0.500000 0.078749
vt 0.446420 0.093051
vt 0.500000 0.090160
f 218/1225/218 241/1226/241 242/1227/242
vt 0.500000 0.078749
vt 0.450042 0.080187
vt 0.446420 0.093051
f 218/1228/218 217/1229/217 241/1230/241
vt 0.450042 0.080187
vt 0.381450 0.105978
vt 0.446420 0.093051
f 217/1231/217 243/1232/243 241/1233/241
vt 0.450042 0.080187
vt 0.388866 0.087857
vt 0.381450 0.105978
f 217/1234/217 219/1235/219 243/1236/243
vt 0.388866 0.087857
vt 0.294759 0.145723
vt 0.381450 0.105978
f 219/1237/219 244/1238/244 243/1239/243
vt 0.388866 0.087857
vt 0.300907 0.117098
vt 0.294759 0.145723
f 219/1240/219 220/1241/220 244/1242/244
vt 0.300907 0.117098
vt 0.200129 0.243582
vt 0.294759 0.145723
f 220/1243/220 245/1244/245 244/1245/244
vt 0.300907 0.117098
vt 0.184378 0.205706
vt 0.200129 0.243582
f 220/1246/220 221/1247/221 245/1248/245
vt 0.184378 0.205706
vt 0.172688 0.392439
vt 0.200129 0.243582
f 221/1249/221 246/1250/246 245/1251/245
vt 0.184378 0.205706
vt 0.106161 0.364349
vt 0.172688 0.392439
f 221/1252/221 222/1253/222 246/1254/246
vt 0.106161 0.364349
vt 0.250240 0.500000
vt 0.172688 0.392439
f 222/1255/222 247/1256/247 246/1257/246
vt 0.106161 0.364349
vt 0.120288 0.500000
vt 0.250240 0.500000
f 222/1258/222 223/1259/223 247/1260/247
vt 0.120288 0.500000
vt 0.172688 0.607561
vt 0.250240 0.500000
f 223/1261/223 248/1262/248 247/1263/247
vt 0.120288 0.500000
vt 0.106161 0.635651
vt 0.172688 0.607561
f 223/1264/223 224/1265/224 248/1266/248
vt 0.106161 0.635651
vt 0.200129 0.756418
vt 0.172688 0.607561
f 224/1267/224 249/1268/249 248/1269/248
vt 0.106161 0.635651
vt 0.184378 0.794294
vt 0.200129 0.756418
f 224/1270/224 225/1271/225 249/1272/249
vt 0.184378 0.794294
vt 0.294759 0.854277
vt 0.200129 0.756418
f 225/1273/225 250/1274/250 249/1275/249
vt 0.184378 0.794294
vt 0.300907 0.882902
vt 0.294759 0.854277
f 225/1276/225 226/1277/226 250/1278/250
vt 0.300907 0.882902
vt 0.381450 0.894022
vt 0.294759 0.854277
f 226/1279/226 251/1280/251 250/1281/250
vt 0.300907 0.882902
vt 0.388866 0.912143
vt 0.381450 0.894022
f 226/1282/226 227/1283/227 251/1284/251
vt 0.388866 0.912143
vt 0.446420 0.906949
vt 0.381450 0.894022
f 227/1285/227 252/1286/252 251/1287/251
vt 0.388866 0.912143
vt 0.450042 0.919813
vt 0.446420 0.906949
f 227/1288/227 228/1289/228 252/1290/252
vt 0.450042 0.919813
vt 0.500000 0.909840
vt 0.446420 0.906949
f 228/1291/228 253/1292/253 252/1293/252
vt 0.450042 0.919813
vt 0.500000 0.921251
vt 0.500000 0.909840
f 228/1294/228 229/1295/229 253/1296/253
vt 0.500000 0.921251
vt 0.553580 0.906949
vt 0.500000 0.909840
f 229/1297/229 254/1298/254 253/1299/253
vt 0.500000 0.921251
vt 0.549958 0.919813
vt 0.553580 0.906949
f 229/1300/229 230/1301/230 254/1302/254
vt 0.549958 0.919813
vt 0.618550 0.894022
vt 0.553580 0.906949
f 230/1303/230 255/1304/255 254/1305/254
vt 0.549958 0.919813
vt 0.611134 0.912143
vt 0.618550 0.894022
f 230/1306/230 231/1307/231 255/1308/255
vt 0.611134 0.912143
vt 0.705241 0.854277
vt 0.618550 0.894022
f 231/1309/231 256/1310/256 255/1311/255
vt 0.611134 0.912143
vt 0.699093 0.882902
vt 0.705241 0.854277
f 231/1312/231 232/1313/232 256/1314/256
vt 0.699093 0.882902
vt 0.799871 0.756418
vt 0.705241 0.854277
f 232/1315/232 257/1316/257 256/1317/256
vt 0.699093 0.882902
vt 0.815622 0.794294
vt 0.799871 0.756418
f 232/1318/232 233/1319/233 257/1320/257
vt 0.815622 0.794294
vt 0.827312 0.607561
vt 0.799871 0.756418
f 233/1321/233 258/1322/258 257/1323/257
vt 0.815622 0.794294
vt 0.893839 0.635651
vt 0.827312 0.607561
f 233/1324/233 234/1325/234 258/1326/258
vt 0.893839 0.635651
vt 0.749760 0.500000
vt 0.827312 0.607561
f 234/1327/234 259/1328/259 258/1329/258
vt 0.893839 0.635651
vt 0.879712 0.500000
vt 0.749760 0.500000
f 234/1330/234 235/1331/235 259/1332/259
vt 0.879712 0.500000
vt 0.827312 0.392439
vt 0.749760 0.500000
f 235/1333/235 260/1334/260 259/1335/259
vt 0.879712 0.500000
vt 0.893839 0.364349
vt 0.827312 0.392439
f 235/1336/235 236/1337/236 260/1338/260
vt 0.893839 0.364349
vt 0.799871 0.243582
vt 0.827312 0.392439
f 236/1339/236 261/1340/261 260/1341/260
vt 0.893839 0.364349
vt 0.815622 0.205706
vt 0.799871 0.243582
f 236/1342/236 237/1343/237 261/1344/261
vt 0.815622 0.205706
vt 0.705241 0.145723
vt 0.799871 0.243582
f 237/1345/237 262/1346/262 261/1347/261
vt 0.815622 0.205706
vt 0.699093 0.117098
vt 0.705241 0.145723
f 237/1348/237 238/1349/238 262/1350/262
vt 0.699093 0.117098
vt 0.618550 0.105978
vt 0.705241 0.145723
f 238/1351/238 263/1352/263 262/1353/262
vt 0.699093 0.117098
vt 0.611134 0.087857
vt 0.618550 0.105978
f 238/1354/238 239/1355/239 263/1356/263
vt 0.611134 0.087857
vt 0.553580 0.093051
vt 0.618550 0.105978
f 239/1357/239 264/1358/264 263/1359/263
vt 0.611134 0.087857
vt 0.549958 0.080187
vt 0.553580 0.093051
f 239/1360/239 240/1361/240 264/1362/264
vt 0.549958 0.080187
vt 0.500000 0.090160
vt 0.553580 0.093051
f 240/1363/240 242/1364/242 264/1365/264
vt 0.549958 0.080187
vt 0.500000 0.078749
vt 0.500000 0.090160
f 240/1366/240 218/1367/218 242/1368/242
vt 0.500000 0.090160
vt 0.453599 0.209781
vt 0.500000 0.197005
f 242/1369/242 265/1370/265 266/1371/266
vt 0.500000 0.090160
vt 0.446420 0.093051
vt 0.453599 0.209781
f 242/1372/242 241/1373/241 265/1374/265
vt 0.446420 0.093051
vt 0.411127 0.254709
vt 0.453599 0.209781
f 241/1375/241 267/1376/267 265/1377/265
vt 0.446420 0.093051
vt 0.381450 0.105978
vt 0.411127 0.254709
f 241/1378/241 243/1379/243 267/1380/267
vt 0.381450 0.105978
vt 0.390569 0.339497
vt 0.411127 0.254709
f 243/1381/243 268/1382/268 267/1383/267
vt 0.381450 0.105978
vt 0.294759 0.145723
vt 0.390569 0.339497
f 243/1384/243 244/1385/244 268/1386/268
vt 0.294759 0.145723
vt 0.403378 0.426793
vt 0.390569 0.339497
f 244/1387/244 269/1388/269 268/1389/268
vt 0.294759 0.145723
vt 0.200129 0.243582
vt 0.403378 0.426793
f 244/1390/244 245/1391/245 269/1392/269
vt 0.200129 0.243582
vt 0.424007 0.476568
vt 0.403378 0.426793
f 245/1393/245 270/1394/270 269/1395/269
vt 0.200129 0.243582
vt 0.172688 0.392439
vt 0.424007 0.476568
f 245/1396/245 246/1397/246 270/1398/270
vt 0.172688 0.392439
vt 0.439804 0.500000
vt 0.424007 0.476568
f 246/1399/246 271/1400/271 270/1401/270
vt 0.172688 0.392439
vt 0.250240 0.500000
vt 0.439804 0.500000
f 246/1402/246 247/1403/247 271/1404/271
vt 0.250240 0.500000
vt 0.424007 0.523432
vt 0.439804 0.500000
f 247/1405/247 272/1406/272 271/1407/271
vt 0.250240 0.500000
vt 0.172688 0.607561
vt 0.424007 0.523432
f 247/1408/247 248/1409/248 272/1410/272
vt 0.172688 0.607561
vt 0.403378 0.573207
vt 0.424007 0.523432
f 248/1411/248 273/1412/273 272/1413/272
vt 0.172688 0.607561
vt 0.200129 0.756418
vt 0.403378 0.573207
f 248/1414/248 249/1415/249 273/1416/273
vt 0.200129 0.756418
vt 0.390569 0.660503
vt 0.403378 0.573207
f 249/1417/249 274/1418/274 273/1419/273
vt 0.200129 0.756418
vt 0.294759 0.854277
vt 0.390569 0.660503
f 249/1420/249 250/1421/250 274/1422/274
vt 0.294759 0.854277
vt 0.411127 0.745291
vt 0.390569 0.660503
f 250/1423/250 275/1424/275 274/1425/274
vt 0.294759 0.854277
vt 0.381450 0.894022
vt 0.411127 0.745291
f 250/1426/250 251/1427/251 275/1428/275
vt 0.381450 0.894022
vt 0.453599 0.790220
vt 0.411127 0.745291
f 251/1429/251 276/1430/276 275/1431/275
vt 0.381450 0.894022
vt 0.446420 0.906949
vt 0.453599 0.790220
f 251/1432/251 252/1433/252 276/1434/276
vt 0.446420 0.906949
vt 0.500000 0.802995
vt 0.453599 0.790220
f 252/1435/252 277/1436/277 276/1437/276
vt 0.446420 0.906949
vt 0.500000 0.909840
vt 0.500000 0.802995
f 252/1438/252 253/1439/253 277/1440/277
vt 0.500000 0.909840
vt 0.546401 0.790220
vt 0.500000 0.802995
f 253/1441/253 278/1442/278 277/1443/277
vt 0.500000 0.909840
vt 0.553580 0.906949
vt 0.546401 0.790220
f 253/1444/253 254/1445/254 278/1446/278
vt 0.553580 0.906949
vt 0.588873 0.745291
vt 0.546401 0.790220
f 254/1447/254 279/1448/279 278/1449/278
vt 0.553580 0.906949
vt 0.618550 0.894022
vt 0.588873 0.745291
f 254/1450/254 255/1451/255 279/1452/279
vt 0.618550 0.894022
vt 0.609431 0.660503
vt 0.588873 0.745291
f 255/1453/255 280/1454/280 279/1455/279
vt 0.618550 0.894022
vt 0.705241 0.854277
vt 0.609431 0.660503
f 255/1456/255 256/1457/256 280/1458/280
vt 0.705241 0.854277
vt 0.596622 0.573207
vt 0.609431 0.660503
f 256/1459/256 281/1460/281 280/1461/280
vt 0.705241 0.854277
vt 0.799871 0.756418
vt 0.596622 0.573207
f 256/1462/256 257/1463/257 281/1464/281
vt 0.799871 0.756418
vt 0.575993 0.523432
vt 0.596622 0.573207
f 257/1465/257 282/1466/282 281/1467/281
vt 0.799871 0.756418
vt 0.827312 0.607561
vt 0.575993 0.523432
f 257/1468/257 258/1469/258 282/1470/282
vt 0.827312 0.607561
vt 0.560196 0.500000
vt 0.575993 0.523432
f 258/1471/258 283/1472/283 282/1473/282
vt 0.827312 0.607561
vt 0.749760 0.500000
vt 0.560196 0.500000
f 258/1474/258 259/1475/259 283/1476/283
vt 0.749760 0.500000
vt 0.575993 0.476568
vt 0.560196 0.500000
f 259/1477/259 284/1478/284 283/1479/283
vt 0.749760 0.500000
vt 0.827312 0.392439
vt 0.575993 0.476568
f 259/1480/259 260/1481/260 284/1482/284
vt 0.827312 0.392439
vt 0.596622 0.426793
vt 0.575993 0.476568
f 260/1483/260 285/1484/285 284/1485/284
vt 0.827312 0.392439
vt 0.799871 0.243582
vt 0.596622 0.426793
f 260/1486/260 261/1487/261 285/1488/285
vt 0.799871 0.243582
vt 0.609431 0.339497
vt 0.596622 0.426793
f 261/1489/261 286/1490/286 285/1491/285
vt 0.799871 0.243582
vt 0.705241 0.145723
vt 0.609431 0.339497
f 261/1492/261 262/1493/262 286/1494/286
vt 0.705241 0.145723
vt 0.588873 0.254709
vt 0.609431 0.339497
f 262/1495/262 287/1496/287 286/1497/286
vt 0.705241 0.145723
vt 0.618550 0.105978
vt 0.588873 0.254709
f 262/1498/262 263/1499/263 287/1500/287
vt 0.618550 0.105978
vt 0.546401 0.209781
vt 0.588873 0.254709
f 263/1501/263 288/1502/288 287/1503/287
vt 0.618550 0.105978
vt 0.553580 0.093051
vt 0.546401 0.209781
f 263/1504/263 264/1505/264 288/1506/288
vt 0.553580 0.093051
vt 0.500000 0.197005
vt 0.546401 0.209781
f 264/1507/264 266/1508/266 288/1509/288
vt 0.553580 0.093051
vt 0.500000 0.090160
vt 0.500000 0.197005
f 264/1510/264 242/1511/242 266/1512/266
vt 0.500000 0.197005
vt 0.495191 0.476344
vt 0.500000 0.474967
f 266/1513/266 289/1514/289 290/1515/290
vt 0.500000 0.197005
vt 0.453599 0.209781
vt 0.495191 0.476344
f 266/1516/266 265/1517/265 289/1518/289
vt 0.453599 0.209781
vt 0.491025 0.480086
vt 0.495191 0.476344
f 265/1519/265 291/1520/291 289/1521/289
vt 0.453599 0.209781
vt 0.411127 0.254709
vt 0.491025 0.480086
f 265/1522/265 267/1523/267 291/1524/291
vt 0.411127 0.254709
vt 0.487943 0.485241
vt 0.491025 0.480086
f 267/1525/267 292/1526/292 291/1527/291
vt 0.411127 0.254709
vt 0.390569 0.339497
vt 0.487943 0.485241
f 267/1528/267 268/1529/268 292/1530/292
vt 0.390569 0.339497
vt 0.486102 0.490745
vt 0.487943 0.485241
f 268/1531/268 293/1532/293 292/1533/292
vt 0.390569 0.339497
vt 0.403378 0.426793
vt 0.486102 0.490745
f 268/1534/268 269/1535/269 293/1536/293
vt 0.403378 0.426793
vt 0.485440 0.495800
vt 0.486102 0.490745
f 269/1537/269 294/1538/294 293/1539/293
vt 0.403378 0.426793
vt 0.424007 0.476568
vt 0.485440 0.495800
f 269/1540/269 270/1541/270 294/1542/294
vt 0.424007 0.476568
vt 0.485786 0.500000
vt 0.485440 0.495800
f 270/1543/270 295/1544/295 294/1545/294
vt 0.424007 0.476568
vt 0.439804 0.500000
vt 0.485786 0.500000
f 270/1546/270 271/1547/271 295/1548/295
vt 0.439804 0.500000
vt 0.485440 0.504200
vt 0.485786 0.500000
f 271/1549/271 296/1550/296 295/1551/295
vt 0.439804 0.500000
vt 0.424007 0.523432
vt 0.485440 0.504200
f 271/1552/271 272/1553/272 296/1554/296
vt 0.424007 0.523432
vt 0.486102 0.509255
vt 0.485440 0.504200
f 272/1555/272 297/1556/297 296/1557/296
vt 0.424007 0.523432
vt 0.403378 0.573207
vt 0.486102 0.509255
f 272/1558/272 273/1559/273 297/1560/297
vt 0.403378 0.573207
vt 0.487943 0.514759
vt 0.486102 0.509255
f 273/1561/273 298/1562/298 297/1563/297
vt 0.403378 0.573207
vt 0.390569 0.660503
vt 0.487943 0.514759
f 273/1564/273 274/1565/274 298/1566/298
vt 0.390569 0.660503
vt 0.491025 0.519914
vt 0.487943 0.514759
f 274/1567/274 299/1568/299 298/1569/298
vt 0.390569 0.660503
vt 0.411127 0.745291
vt 0.491025 0.519914
f 274/1570/274 275/1571/275 299/1572/299
vt 0.411127 0.745291
vt 0.495191 0.523656
vt 0.491025 0.519914
f 275/1573/275 300/1574/300 299/1575/299
vt 0.411127 0.745291
vt 0.453599 0.790220
vt 0.495191 0.523656
f 275/1576/275 276/1577/276 300/1578/300
vt 0.453599 0.790220
vt 0.500000 0.525033
vt 0.495191 0.523656
f 276/1579/276 301/1580/301 300/1581/300
vt 0.453599 0.790220
vt 0.500000 0.802995
vt 0.500000 0.525033
f 276/1582/276 277/1583/277 301/1584/301
vt 0.500000 0.802995
vt 0.504809 0.523656
vt 0.500000 0.525033
f 277/1585/277 302/1586/302 301/1587/301
vt 0.500000 0.802995
vt 0.546401 0.790220
vt 0.504809 0.523656
f 277/1588/277 278/1589/278 302/1590/302
vt 0.546401 0.790220
vt 0.508975 0.519914
vt 0.504809 0.523656
f 278/1591/278 303/1592/303 302/1593/302
vt 0.546401 0.790220
vt 0.588873 0.745291
vt 0.508975 0.519914
f 278/1594/278 279/1595/279 303/1596/303
vt 0.588873 0.745291
vt 0.512057 0.514759
vt 0.508975 0.519914
f 279/1597/279 304/1598/304 303/1599/303
vt 0.588873 0.745291
vt 0.609431 0.660503
vt 0.512057 0.514759
f 279/1600/279 280/1601/280 304/1602/304
vt 0.609431 0.660503
vt 0.513898 0.509255
vt 0.512057 0.514759
f 280/1603/280 305/1604/305 304/1605/304
vt 0.609431 0.660503
vt 0.596622 0.573207
vt 0.513898 0.509255
f 280/1606/280 281/1607/281 305/1608/305
vt 0.596622 0.573207
vt 0.514560 0.504200
vt 0.513898 0.509255
f 281/1609/281 306/1610/306 305/1611/305
vt 0.596622 0.573207
vt 0.575993 0.523432
vt 0.514560 0.504200
f 281/1612/281 282/1613/282 306/1614/306
vt 0.575993 0.523432
vt 0.514214 0.500000
vt 0.514560 0.504200
f 282/1615/282 307/1616/307 306/1617/306
vt 0.575993 0.523432
vt 0.560196 0.500000
vt 0.514214 0.500000
f 282/1618/282 283/1619/283 307/1620/307
vt 0.560196 0.500000
vt 0.514560 0.495800
vt 0.514214 0.500000
f 283/1621/283 308/1622/308 307/1623/307
vt 0.560196 0.500000
vt 0.575993 0.476568
vt 0.514560 0.495800
f 283/1624/283 284/1625/284 308/1626/308
vt 0.575993 0.476568
vt 0.513898 0.490745
vt 0.514560 0.495800
f 284/1627/284 309/1628/309 308/1629/308
vt 0.575993 0.476568
vt 0.596622 0.426793
vt 0.513898 0.490745
f 284/1630/284 285/1631/285 309/1632/309
vt 0.596622 0.426793
vt 0.512057 0.485241
vt 0.513898 0.490745
f 285/1633/285 310/1634/310 309/1635/309
vt 0.596622 0.426793
vt 0.609431 0.339497
vt 0.512057 0.485241
f 285/1636/285 286/1637/286 310/1638/310
vt 0.609431 0.339497
vt 0.508975 0.480086
vt 0.512057 0.485241
f 286/1639/286 311/1640/311 310/1641/310
vt 0.609431 0.339497
vt 0.588873 0.254709
vt 0.508975 0.480086
f 286/1642/286 287/1643/287 311/1644/311
vt 0.588873 0.254709
vt 0.504809 0.476344
vt 0.508975 0.480086
f 287/1645/287 312/1646/312 311/1647/311
vt 0.588873 0.254709
vt 0.546401 0.209781
vt 0.504809 0.476344
f 287/1648/287 288/1649/288 312/1650/312
vt 0.546401 0.209781
vt 0.500000 0.474967
vt 0.504809 0.476344
f 288/1651/288 290/1652/290 312/1653/312
vt 0.546401 0.209781
vt 0.500000 0.197005
vt 0.500000 0.474967
f 288/1654/288 266/1655/266 290/1656/290
vt 0.500000 0.500000
vt 0.500000 0.474967
vt 0.495191 0.476344
f 313/1657/313 290/1658/290 289/1659/289
vt 0.500000 0.500000
vt 0.495191 0.476344
vt 0.491025 0.480086
f 313/1660/313 289/1661/289 291/1662/291
vt 0.500000 0.500000
vt 0.491025 0.480086
vt 0.487943 0.485241
f 313/1663/313 291/1664/291 292/1665/292
vt 0.500000 0.500000
vt 0.487943 0.485241
vt 0.486102 0.490745
f 313/1666/313 292/1667/292 293/1668/293
vt 0.500000 0.500000
vt 0.486102 0.490745
vt 0.485440 0.495800
f 313/1669/313 293/1670/293 294/1671/294
vt 0.500000 0.500000
vt 0.485440 0.495800
vt 0.485786 0.500000
f 313/1672/313 294/1673/294 295/1674/295
vt 0.500000 0.500000
vt 0.485786 0.500000
vt 0.485440 0.504200
f 313/1675/313 295/1676/295 296/1677/296
vt 0.500000 0.500000
vt 0.485440 0.504200
vt 0.486102 0.509255
f 313/1678/313 296/1679/296 297/1680/297
vt 0.500000 0.500000
vt 0.486102 0.509255
vt 0.487943 0.514759
f 313/1681/313 297/1682/297 298/1683/298
vt 0.500000 0.500000
vt 0.487943 0.514759
vt 0.491025 0.519914
f 313/1684/313 298/1685/298 299/1686/299
vt 0.500000 0.500000
vt 0.491025 0.519914
vt 0.495191 0.523656
f 313/1687/313 299/1688/299 300/1689/300
vt 0.500000 0.500000
vt 0.495191 0.523656
vt 0.500000 0.525033
f 313/1690/313 300/1691/300 301/1692/301
vt 0.500000 0.500000
vt 0.500000 0.525033
vt 0.504809 0.523656
f 313/1693/313 301/1694/301 302/1695/302
vt 0.500000 0.500000
vt 0.504809 0.523656
vt 0.508975 0.519914
f 313/1696/313 302/1697/302 303/1698/303
vt 0.500000 0.500000
vt 0.508975 0.519914
vt 0.512057 0.514759
f 313/1699/313 303/1700/303 304/1701/304
vt 0.500000 0.500000
vt 0.512057 0.514759
vt 0.513898 0.509255
f 313/1702/313 304/1703/304 305/1704/305
vt 0.500000 0.500000
vt 0.513898 0.509255
vt 0.514560 0.504200
f 313/1705/313 305/1706/305 306/1707/306
vt 0.500000 0.500000
vt 0.514560 0.504200
vt 0.514214 0.500000
f 313/1708/313 306/1709/306 307/1710/307
vt 0.500000 0.500000
vt 0.514214 0.500000
vt 0.514560 0.495800
f 313/1711/313 307/1712/307 308/1713/308
vt 0.500000 0.500000
vt 0.514560 0.495800
vt 0.513898 0.490745
f 313/1714/313 308/1715/308 309/1716/309
vt 0.500000 0.500000
vt 0.513898 0.490745
vt 0.512057 0.485241
f 313/1717/313 309/1718/309 310/1719/310
vt 0.500000 0.500000
vt 0.512057 0.485241
vt 0.508975 0.480086
f 313/1720/313 310/1721/310 311/1722/311
vt 0.500000 0.500000
vt 0.508975 0.480086
vt 0.504809 0.476344
f 313/1723/313 311/1724/311 312/1725/312
vt 0.500000 0.500000
vt 0.504809 0.476344
vt 0.500000 0.474967
f 313/1726/313 312/1727/312 290/1728/290
