mtllib hammer.mtl
usemtl tex0_0
v -15.355618 -2.400652 8.037944
vn -0.000000 1.000000 0.000000
v -15.355618 -2.400650 -11.174272
vn 0.894427 0.447214 0.000000
v -9.250785 -2.400649 -11.174272
vn -0.447214 0.894427 0.000000
v -9.250785 -2.400651 8.037944
vn -0.000000 1.000000 0.000000
v -15.355618 2.087953 8.037945
vn 0.707107 -0.707107 -0.000000
v -9.250785 2.087953 8.037945
vn -0.707107 -0.707107 -0.000000
v -9.250785 2.087955 -11.174270
vn 0.000000 -1.000000 -0.000000
v -15.355618 2.087955 -11.174270
vn 0.000000 -1.000000 -0.000000
v -15.355618 2.087955 -11.174270
vn 0.000000 -0.000000 1.000000
v -9.250785 2.087955 -11.174270
vn 0.000000 -0.000000 1.000000
v -9.250785 -2.400649 -11.174272
vn 0.000000 -0.000000 1.000000
v -9.250785 -2.400649 -11.174272
vn 0.000000 -0.000000 1.000000
v -15.355618 -2.400650 -11.174272
vn 0.000000 -0.000000 1.000000
v -15.355618 2.087955 -11.174270
vn 0.000000 -0.000000 1.000000
v -15.355618 2.087955 -11.174270
vn 1.000000 0.000000 0.000000
v -15.355618 -2.400652 8.037944
vn 1.000000 0.000000 0.000000
v -9.250785 2.087955 -11.174270
vn -1.000000 0.000000 0.000000
v -9.250785 -2.400651 8.037944
vn -1.000000 0.000000 0.000000
v -9.250785 -2.400651 8.037944
vn -1.000000 0.000000 0.000000
v -9.250785 2.087955 -11.174270
vn -1.000000 0.000000 0.000000
v -10.224907 -1.426530 9.151226
vn 0.331504 0.173103 -0.927438
v -14.381495 -1.426530 9.151226
vn 0.173102 -0.331503 -0.927438
v -15.355618 -2.400652 8.037944
vn -0.000000 0.752577 -0.658504
v -15.355618 -2.400652 8.037944
vn -0.000000 0.752577 -0.658504
v -9.250785 -2.400651 8.037944
vn -0.000000 0.752577 -0.658504
v -14.381495 1.113831 9.151227
vn -0.331503 -0.173102 -0.927438
v -10.224907 1.113831 9.151227
vn -0.173102 0.331504 -0.927438
v -9.250785 2.087953 8.037945
vn 0.000000 -0.752577 -0.658505
v -9.250785 2.087953 8.037945
vn 0.000000 -0.752577 -0.658505
v -15.355618 2.087953 8.037945
vn 0.000000 -0.752577 -0.658505
v -15.355618 2.087953 8.037945
vn 0.752577 0.000000 -0.658505
v -15.355618 2.087953 8.037945
vn 0.752577 0.000000 -0.658505
v -15.355618 -2.400652 8.037944
vn 0.752577 0.000000 -0.658505
v -9.250785 -2.400651 8.037944
vn -0.752577 0.000000 -0.658505
v -9.250785 -2.400651 8.037944
vn -0.752577 0.000000 -0.658505
v -9.250785 2.087953 8.037945
vn -0.752577 0.000000 -0.658505
v -10.503227 -1.148210 8.455424
vn 0.143793 -0.287586 -0.946899
v -14.103175 -1.148210 8.455424
vn -0.250570 -0.125285 -0.959958
v -10.503227 0.835511 8.455425
vn 0.198655 0.099328 -0.975023
v -14.103175 0.835511 8.455425
vn -0.110855 0.221711 -0.968791
v -13.050144 -0.252793 8.455424
vn -0.000000 0.000000 -1.000000
v -13.008183 -0.014815 8.455424
vn -0.000001 0.000000 -1.000000
v -13.008183 -0.490771 8.455424
vn 0.000000 0.000000 -1.000000
v -12.887358 -0.700045 8.455424
vn 0.000000 0.000000 -1.000000
v -12.702244 -0.855375 8.455424
vn 0.000000 0.000000 -1.000000
v -12.475168 -0.938023 8.455424
vn 0.000000 0.000000 -1.000000
v -12.233519 -0.938023 8.455424
vn 0.000000 0.000000 -1.000000
v -12.006443 -0.855374 8.455424
vn 0.000000 0.000000 -1.000000
v -11.821329 -0.700045 8.455424
vn 0.000001 -0.000000 -1.000000
v -11.700504 -0.490771 8.455424
vn 0.000002 -0.000001 -1.000000
v -11.658543 -0.252793 8.455424
vn 0.000001 -0.000000 -1.000000
v -11.700504 -0.014815 8.455424
vn 0.000001 0.000000 -1.000000
v -11.821329 0.194460 8.455424
vn -0.000000 0.000002 -1.000000
v -12.006443 0.349789 8.455425
vn -0.000001 0.000002 -1.000000
v -12.233519 0.432437 8.455425
vn 0.000000 0.000000 -1.000000
v -12.887359 0.194459 8.455424
vn 0.000000 0.000002 -1.000000
v -12.702244 0.349788 8.455425
vn 0.000001 0.000002 -1.000000
v -12.475168 0.432437 8.455425
vn 0.000000 0.000000 -1.000000
v -13.050144 -0.252793 1.004114
vn -0.593756 -0.034898 -0.803888
v -13.050144 -0.252793 3.342007
vn -1.000000 0.000000 0.000000
v -13.008183 -0.490771 3.342007
vn -0.939693 -0.342020 0.000000
v -13.008183 -0.490771 1.004114
vn -0.869700 -0.375699 -0.320112
v -12.887358 -0.700045 3.342007
vn -0.766044 -0.642788 0.000000
v -12.887358 -0.700045 1.004114
vn -0.321605 -0.303741 -0.896834
v -12.702244 -0.855375 3.342007
vn -0.500000 -0.866025 0.000000
v -12.702244 -0.855375 1.004114
vn -0.424734 -0.846835 -0.320112
v -12.475168 -0.938023 3.342007
vn -0.173648 -0.984808 0.000000
v -12.475168 -0.938023 1.004114
vn -0.081161 -0.697582 -0.711893
v -12.233519 -0.938023 3.342007
vn 0.173649 -0.984808 0.000000
v -12.233519 -0.938023 1.004114
vn 0.218970 -0.921727 -0.320112
v -12.006443 -0.855374 3.342007
vn 0.500001 -0.866025 0.000000
v -12.006443 -0.855374 1.004114
vn 0.280126 -0.425419 -0.860551
v -11.821329 -0.700045 3.342007
vn 0.766044 -0.642788 0.000000
v -11.821329 -0.700045 1.004114
vn 0.760215 -0.565333 -0.320112
v -11.700504 -0.490771 3.342007
vn 0.939693 -0.342020 0.000000
v -11.700504 -0.490771 1.004114
vn 0.672891 -0.201061 -0.711893
v -11.658543 -0.252793 3.342007
vn 1.000000 0.000000 0.000000
v -11.658543 -0.252793 1.004114
vn 0.945747 0.055587 -0.320112
v -11.700504 -0.014815 3.342007
vn 0.939693 0.342020 -0.000000
v -11.700504 -0.014815 1.004114
vn 0.406095 0.175428 -0.896834
v -11.821329 0.194460 3.342007
vn 0.766044 0.642788 -0.000000
v -11.821329 0.194460 1.004114
vn 0.688754 0.650497 -0.320112
v -12.006443 0.349789 3.342007
vn 0.500000 0.866025 0.000000
v -12.006443 0.349789 1.004114
vn 0.314853 0.627754 -0.711893
v -12.233519 0.432437 3.342007
vn 0.173648 0.984808 0.000000
v -12.233519 0.432437 1.004114
vn 0.109485 0.941032 -0.320112
v -12.475168 0.432437 3.342007
vn -0.173649 0.984808 0.000000
v -12.475168 0.432437 1.004114
vn -0.102245 0.430388 -0.896834
v -12.702244 0.349788 3.342007
vn -0.500000 0.866026 0.000000
v -12.702244 0.349788 1.004114
vn -0.521013 0.791248 -0.320112
v -12.887359 0.194459 3.342007
vn -0.766045 0.642787 0.000000
v -12.887359 0.194459 1.004114
vn -0.563544 0.419078 -0.711893
v -13.008183 -0.014815 3.342007
vn -0.939693 0.342018 0.000000
v -13.008183 -0.014815 1.004114
vn -0.907724 0.271229 -0.320112
v -13.050144 -0.252793 5.679900
vn -1.000000 0.000000 0.000000
v -13.008183 -0.490771 5.679900
vn -0.939693 -0.342020 0.000000
v -12.887358 -0.700045 5.679900
vn -0.766044 -0.642788 0.000000
v -12.702244 -0.855375 5.679900
vn -0.500000 -0.866025 0.000000
v -12.475168 -0.938023 5.679900
vn -0.173648 -0.984808 0.000000
v -12.233519 -0.938023 5.679900
vn 0.173649 -0.984808 0.000000
v -12.006443 -0.855374 5.679900
vn 0.500001 -0.866025 0.000000
v -11.821329 -0.700045 5.679900
vn 0.766044 -0.642788 0.000000
v -11.700504 -0.490771 5.679900
vn 0.939693 -0.342020 0.000000
v -11.658543 -0.252793 5.679900
vn 1.000000 0.000000 0.000000
v -11.700504 -0.014815 5.679900
vn 0.939693 0.342020 -0.000000
v -11.821329 0.194460 5.679900
vn 0.766044 0.642788 -0.000000
v -12.006443 0.349789 5.679900
vn 0.500000 0.866025 0.000000
v -12.233519 0.432437 5.679900
vn 0.173648 0.984808 0.000000
v -12.475168 0.432437 5.679900
vn -0.173649 0.984808 0.000000
v -12.702244 0.349788 5.679900
vn -0.500000 0.866026 0.000000
v -12.887359 0.194459 5.679900
vn -0.766045 0.642787 0.000000
v -13.008183 -0.014815 5.679900
vn -0.939693 0.342018 0.000000
v -13.050144 -0.252793 8.017793
vn -1.000000 0.000000 0.000000
v -13.008183 -0.490771 8.017793
vn -0.951163 -0.308689 0.000000
v -12.887358 -0.700045 8.017793
vn -0.802440 -0.596733 0.000000
v -12.702244 -0.855375 8.017793
vn -0.549952 -0.835196 0.000000
v -12.475168 -0.938023 8.017793
vn -0.231132 -0.972922 0.000000
v -12.233519 -0.938023 8.017793
vn 0.115566 -0.993300 0.000000
v -12.006443 -0.855374 8.017793
vn 0.448326 -0.893870 0.000000
v -11.821329 -0.700045 8.017793
vn 0.727010 -0.686627 0.000000
v -11.700504 -0.490771 8.017793
vn 0.918006 -0.396567 0.000000
v -11.658543 -0.252793 8.017793
vn 0.998277 -0.058674 0.000000
v -11.700504 -0.014815 8.017793
vn 0.958142 0.286295 -0.000000
v -11.821329 0.194460 8.017793
vn 0.802440 0.596733 -0.000000
v -12.006443 0.349789 8.017793
vn 0.549952 0.835196 0.000000
v -12.233519 0.432437 8.017793
vn 0.231132 0.972922 0.000000
v -12.475168 0.432437 8.017793
vn -0.115566 0.993300 0.000000
v -12.702244 0.349788 8.017793
vn -0.448325 0.893871 0.000000
v -12.887359 0.194459 8.017793
vn -0.727009 0.686628 0.000000
v -13.008183 -0.014815 8.017793
vn -0.930783 0.365573 0.000000
v -13.008183 -0.014815 8.455424
vn -0.984808 0.173647 0.000000
v -13.050144 -0.252793 8.455424
vn -0.984808 0.173647 0.000000
v -13.050144 -0.252793 8.455424
vn -0.984808 0.173647 0.000000
v -13.050144 -0.252793 8.455424
vn -0.984808 -0.173647 0.000000
v -13.008183 -0.490771 8.455424
vn -0.984808 -0.173647 0.000000
v -13.008183 -0.490771 8.455424
vn -0.984808 -0.173647 0.000000
v -13.008183 -0.490771 8.455424
vn -0.866025 -0.500001 0.000000
v -13.008183 -0.490771 8.455424
vn -0.866025 -0.500001 0.000000
v -12.887358 -0.700045 8.455424
vn -0.866025 -0.500001 0.000000
v -12.887358 -0.700045 8.455424
vn -0.642788 -0.766044 0.000000
v -12.887358 -0.700045 8.455424
vn -0.642788 -0.766044 0.000000
v -12.702244 -0.855375 8.455424
vn -0.642788 -0.766044 0.000000
v -12.702244 -0.855375 8.455424
vn -0.342021 -0.939692 0.000000
v -12.702244 -0.855375 8.455424
vn -0.342021 -0.939692 0.000000
v -12.475168 -0.938023 8.455424
vn -0.342021 -0.939692 0.000000
v -12.475168 -0.938023 8.455424
vn 0.000000 -1.000000 0.000000
v -12.475168 -0.938023 8.455424
vn 0.000000 -1.000000 0.000000
v -12.233519 -0.938023 8.455424
vn 0.000000 -1.000000 0.000000
v -12.233519 -0.938023 8.455424
vn 0.342021 -0.939692 0.000000
v -12.233519 -0.938023 8.455424
vn 0.342021 -0.939692 0.000000
v -12.006443 -0.855374 8.455424
vn 0.342021 -0.939692 0.000000
v -12.006443 -0.855374 8.455424
vn 0.642788 -0.766044 0.000000
v -12.006443 -0.855374 8.455424
vn 0.642788 -0.766044 0.000000
v -11.821329 -0.700045 8.455424
vn 0.642788 -0.766044 0.000000
v -11.821329 -0.700045 8.455424
vn 0.866025 -0.500001 0.000000
v -11.821329 -0.700045 8.455424
vn 0.866025 -0.500001 0.000000
v -11.700504 -0.490771 8.455424
vn 0.866025 -0.500001 0.000000
v -11.700504 -0.490771 8.455424
vn 0.984808 -0.173647 0.000000
v -11.700504 -0.490771 8.455424
vn 0.984808 -0.173647 0.000000
v -11.658543 -0.252793 8.455424
vn 0.984808 -0.173647 0.000000
v -11.658543 -0.252793 8.455424
vn 0.984808 0.173647 0.000000
v -11.658543 -0.252793 8.455424
vn 0.984808 0.173647 -0.000000
v -11.700504 -0.014815 8.455424
vn 0.984808 0.173647 -0.000000
v -11.700504 -0.014815 8.455424
vn 0.866025 0.500001 -0.000000
v -11.700504 -0.014815 8.455424
vn 0.866025 0.500001 0.000000
v -11.821329 0.194460 8.455424
vn 0.866025 0.500001 0.000000
v -11.821329 0.194460 8.455424
vn 0.642788 0.766044 0.000000
v -11.821329 0.194460 8.455424
vn 0.642788 0.766044 0.000000
v -12.006443 0.349789 8.455425
vn 0.642788 0.766044 0.000000
v -12.006443 0.349789 8.455425
vn 0.342020 0.939693 0.000000
v -12.006443 0.349789 8.455425
vn 0.342020 0.939693 0.000000
v -12.233519 0.432437 8.455425
vn 0.342020 0.939693 0.000000
v -12.233519 0.432437 8.455425
vn 0.000000 1.000000 0.000000
v -12.233519 0.432437 8.455425
vn 0.000000 1.000000 0.000000
v -12.475168 0.432437 8.455425
vn 0.000000 1.000000 0.000000
v -12.475168 0.432437 8.455425
vn -0.342021 0.939692 0.000000
v -12.475168 0.432437 8.455425
vn -0.342021 0.939692 0.000000
v -12.702244 0.349788 8.455425
vn -0.342021 0.939692 0.000000
v -12.702244 0.349788 8.455425
vn -0.642786 0.766046 0.000000
v -12.702244 0.349788 8.455425
vn -0.642786 0.766046 0.000000
v -12.887359 0.194459 8.455424
vn -0.642786 0.766046 0.000000
v -12.887359 0.194459 8.455424
vn -0.866027 0.499998 0.000000
v -12.887359 0.194459 8.455424
vn -0.866027 0.499998 0.000000
v -13.008183 -0.014815 8.455424
vn -0.866027 0.499998 0.000000
vt 0.000000 0.000000
vt 0.000000 1.000000
vt 1.000000 1.000000
f 1/1/1 2/2/2 3/3/3
vt 1.000000 1.000000
vt 1.000000 0.000000
vt 0.000000 0.000000
f 3/4/3 4/5/4 1/6/1
vt 1.000000 0.000000
vt 0.000000 0.000000
vt 0.000000 1.000000
f 5/7/5 6/8/6 7/9/7
vt 0.000000 1.000000
vt 1.000000 1.000000
vt 1.000000 0.000000
f 7/10/7 8/11/8 5/12/5
vt 1.000000 0.000000
vt 0.000000 0.000000
vt 0.000000 1.000000
f 9/13/9 10/14/10 11/15/11
vt 0.000000 1.000000
vt 1.000000 1.000000
vt 1.000000 0.000000
f 12/16/12 13/17/13 14/18/14
vt 1.000000 0.000000
vt 0.000000 0.000000
vt 0.000000 1.000000
f 5/19/5 15/20/15 2/21/2
vt 0.000000 1.000000
vt 1.000000 1.000000
vt 1.000000 0.000000
f 2/22/2 16/23/16 5/24/5
vt 1.000000 0.000000
vt 0.000000 0.000000
vt 0.000000 1.000000
f 17/25/17 6/26/6 18/27/18
vt 0.000000 1.000000
vt 1.000000 1.000000
vt 1.000000 0.000000
f 19/28/19 3/29/3 20/30/20
vt 1.000000 1.000000
vt 0.000000 1.000000
vt 0.000000 1.000000
f 21/31/21 22/32/22 23/33/23
vt 0.000000 1.000000
vt 1.000000 1.000000
vt 1.000000 1.000000
f 24/34/24 25/35/25 21/36/21
vt 0.000000 0.000000
vt 1.000000 0.000000
vt 1.000000 0.000000
f 26/37/26 27/38/27 28/39/28
vt 1.000000 0.000000
vt 0.000000 0.000000
vt 0.000000 0.000000
f 29/40/29 30/41/30 26/42/26
vt 0.000000 1.000000
vt 0.000000 0.000000
vt 0.000000 0.000000
f 22/43/22 26/44/26 31/45/31
vt 0.000000 0.000000
vt 0.000000 1.000000
vt 0.000000 1.000000
f 32/46/32 33/47/33 22/48/22
vt 1.000000 0.000000
vt 1.000000 1.000000
vt 1.000000 1.000000
f 27/49/27 21/50/21 34/51/34
vt 1.000000 1.000000
vt 1.000000 0.000000
vt 1.000000 0.000000
f 35/52/35 36/53/36 27/54/27
vt 1.000000 1.000000
vt 0.000000 1.000000
vt 0.000000 1.000000
f 37/55/37 38/56/38 22/57/22
vt 0.000000 1.000000
vt 1.000000 1.000000
vt 1.000000 1.000000
f 22/58/22 21/59/21 37/60/37
vt 1.000000 0.000000
vt 1.000000 1.000000
vt 1.000000 1.000000
f 39/61/39 37/62/37 21/63/21
vt 1.000000 1.000000
vt 1.000000 0.000000
vt 1.000000 0.000000
f 21/64/21 27/65/27 39/66/39
vt 0.000000 0.000000
vt 1.000000 0.000000
vt 1.000000 0.000000
f 40/67/40 39/68/39 27/69/27
vt 1.000000 0.000000
vt 0.000000 0.000000
vt 0.000000 0.000000
f 27/70/27 26/71/26 40/72/40
vt 0.000000 1.000000
vt 0.000000 0.000000
vt 0.000000 0.000000
f 38/73/38 40/74/40 26/75/26
vt 0.000000 0.000000
vt 0.000000 1.000000
vt 0.000000 1.000000
f 26/76/26 22/77/22 38/78/38
vt 0.292513 0.548617
vt 0.304169 0.428652
vt 0.000000 0.000000
f 41/79/41 42/80/42 40/81/40
vt 0.292513 0.548617
vt 0.000000 0.000000
vt 0.000000 1.000000
f 41/82/41 40/83/40 38/84/38
vt 0.304169 0.668583
vt 0.292513 0.548617
vt 0.000000 1.000000
f 43/85/43 41/86/41 38/87/38
vt 0.337732 0.774079
vt 0.304169 0.668583
vt 0.000000 1.000000
f 44/88/44 43/89/43 38/90/38
vt 0.389153 0.852381
vt 0.337732 0.774079
vt 0.000000 1.000000
f 45/91/45 44/92/44 38/93/38
vt 0.452231 0.894044
vt 0.389153 0.852381
vt 0.000000 1.000000
f 46/94/46 45/95/45 38/96/38
vt 0.452231 0.894044
vt 0.000000 1.000000
vt 1.000000 1.000000
f 46/97/46 38/98/38 37/99/37
vt 0.519356 0.894044
vt 0.452231 0.894044
vt 1.000000 1.000000
f 47/100/47 46/101/46 37/102/37
vt 0.582434 0.852381
vt 0.519356 0.894044
vt 1.000000 1.000000
f 48/103/48 47/104/47 37/105/37
vt 0.633855 0.774079
vt 0.582434 0.852381
vt 1.000000 1.000000
f 49/106/49 48/107/48 37/108/37
vt 0.633855 0.774079
vt 1.000000 1.000000
vt 1.000000 0.000000
f 49/109/49 37/110/37 39/111/39
vt 0.667418 0.668583
vt 0.633855 0.774079
vt 1.000000 0.000000
f 50/112/50 49/113/49 39/114/39
vt 0.679075 0.548617
vt 0.667418 0.668583
vt 1.000000 0.000000
f 51/115/51 50/116/50 39/117/39
vt 0.667418 0.428652
vt 0.679075 0.548617
vt 1.000000 0.000000
f 52/118/52 51/119/51 39/120/39
vt 0.633855 0.323156
vt 0.667418 0.428652
vt 1.000000 0.000000
f 53/121/53 52/122/52 39/123/39
vt 0.582434 0.244854
vt 0.633855 0.323156
vt 1.000000 0.000000
f 54/124/54 53/125/53 39/126/39
vt 0.519356 0.203191
vt 0.582434 0.244854
vt 1.000000 0.000000
f 55/127/55 54/128/54 39/129/39
vt 0.519356 0.203191
vt 1.000000 0.000000
vt 0.000000 0.000000
f 55/130/55 39/131/39 40/132/40
vt 0.000000 0.000000
vt 0.304169 0.428652
vt 0.337732 0.323156
f 40/133/40 42/134/42 56/135/56
vt 0.000000 0.000000
vt 0.337732 0.323156
vt 0.389153 0.244854
f 40/136/40 56/137/56 57/138/57
vt 0.000000 0.000000
vt 0.389153 0.244854
vt 0.452231 0.203191
f 40/139/40 57/140/57 58/141/58
vt 0.519356 0.203191
vt 0.000000 0.000000
vt 0.452231 0.203191
f 55/142/55 40/143/40 58/144/58
vt 4.137762 1.000000
vt 4.137762 1.000000
vt 3.888224 -0.415198
f 59/145/59 60/146/60 61/147/61
vt 3.888224 -0.415198
vt 3.888224 -0.415198
vt 4.137762 1.000000
f 61/148/61 62/149/62 59/150/59
vt 3.888224 -0.415198
vt 3.888224 -0.415198
vt 3.169709 -1.659702
f 62/151/62 61/152/61 63/153/63
vt 3.169709 -1.659702
vt 3.169709 -1.659702
vt 3.888224 -0.415198
f 63/154/63 64/155/64 62/156/62
vt 3.169709 -1.659702
vt 3.169709 -1.659702
vt 2.068881 -2.583407
f 64/157/64 63/158/63 65/159/65
vt 2.068881 -2.583407
vt 2.068881 -2.583407
vt 3.169709 -1.659702
f 65/160/65 66/161/66 64/162/64
vt 2.068881 -2.583407
vt 2.068881 -2.583407
vt 0.718515 -3.074900
f 66/163/66 65/164/65 67/165/67
vt 0.718515 -3.074900
vt 0.718515 -3.074900
vt 2.068881 -2.583407
f 67/166/67 68/167/68 66/168/66
vt 0.718515 -3.074900
vt 0.718515 -3.074900
vt -0.718515 -3.074900
f 68/169/68 67/170/67 69/171/69
vt -0.718515 -3.074900
vt -0.718515 -3.074900
vt 0.718515 -3.074900
f 69/172/69 70/173/70 68/174/68
vt -0.718515 -3.074900
vt -0.718515 -3.074900
vt -2.068882 -2.583407
f 70/175/70 69/176/69 71/177/71
vt -2.068882 -2.583407
vt -2.068882 -2.583407
vt -0.718515 -3.074900
f 71/178/71 72/179/72 70/180/70
vt -2.068882 -2.583407
vt -2.068882 -2.583407
vt -3.169710 -1.659702
f 72/181/72 71/182/71 73/183/73
vt -3.169710 -1.659702
vt -3.169710 -1.659702
vt -2.068882 -2.583407
f 73/184/73 74/185/74 72/186/72
vt -3.169710 -1.659702
vt -3.169710 -1.659702
vt -3.888225 -0.415197
f 74/187/74 73/188/73 75/189/75
vt -3.888225 -0.415197
vt -3.888225 -0.415197
vt -3.169710 -1.659702
f 75/190/75 76/191/76 74/192/74
vt -3.888225 -0.415197
vt -3.888225 -0.415197
vt -4.137762 1.000001
f 76/193/76 75/194/75 77/195/77
vt -4.137762 1.000001
vt -4.137762 1.000001
vt -3.888225 -0.415197
f 77/196/77 78/197/78 76/198/76
vt -4.137762 1.000001
vt -4.137762 1.000001
vt -3.888224 2.415199
f 78/199/78 77/200/77 79/201/79
vt -3.888224 2.415199
vt -3.888224 2.415199
vt -4.137762 1.000001
f 79/202/79 80/203/80 78/204/78
vt -3.888224 2.415199
vt -3.888224 2.415199
vt -3.169709 3.659703
f 80/205/80 79/206/79 81/207/81
vt -3.169709 3.659703
vt -3.169709 3.659703
vt -3.888224 2.415199
f 81/208/81 82/209/82 80/210/80
vt -3.169709 3.659703
vt -3.169709 3.659703
vt -2.068880 4.583407
f 82/211/82 81/212/81 83/213/83
vt -2.068880 4.583407
vt -2.068880 4.583407
vt -3.169709 3.659703
f 83/214/83 84/215/84 82/216/82
vt -2.068880 4.583407
vt -2.068880 4.583407
vt -0.718514 5.074900
f 84/217/84 83/218/83 85/219/85
vt -0.718514 5.074900
vt -0.718514 5.074900
vt -2.068880 4.583407
f 85/220/85 86/221/86 84/222/84
vt -0.718514 5.074900
vt -0.718514 5.074900
vt 0.718516 5.074900
f 86/223/86 85/224/85 87/225/87
vt 0.718516 5.074900
vt 0.718516 5.074900
vt -0.718514 5.074900
f 87/226/87 88/227/88 86/228/86
vt 0.718516 5.074900
vt 0.718516 5.074900
vt 2.068882 4.583406
f 88/229/88 87/230/87 89/231/89
vt 2.068882 4.583406
vt 2.068882 4.583406
vt 0.718516 5.074900
f 89/232/89 90/233/90 88/234/88
vt 2.068882 4.583406
vt 2.068882 4.583406
vt 3.169710 3.659701
f 90/235/90 89/236/89 91/237/91
vt 3.169710 3.659701
vt 3.169710 3.659701
vt 2.068882 4.583406
f 91/238/91 92/239/92 90/240/90
vt 3.169710 3.659701
vt 3.169710 3.659701
vt 3.888225 2.415197
f 92/241/92 91/242/91 93/243/93
vt 3.888225 2.415197
vt 3.888225 2.415197
vt 3.169710 3.659701
f 93/244/93 94/245/94 92/246/92
vt 3.888225 2.415197
vt 3.888225 2.415197
vt 4.137762 1.000000
f 94/247/94 93/248/93 60/249/60
vt 4.137762 1.000000
vt 4.137762 1.000000
vt 3.888225 2.415197
f 60/250/60 59/251/59 94/252/94
vt 4.137762 1.000000
vt 4.137762 1.000000
vt 3.888224 -0.415198
f 60/253/60 95/254/95 96/255/96
vt 3.888224 -0.415198
vt 3.888224 -0.415198
vt 4.137762 1.000000
f 96/256/96 61/257/61 60/258/60
vt 3.888224 -0.415198
vt 3.888224 -0.415198
vt 3.169709 -1.659702
f 61/259/61 96/260/96 97/261/97
vt 3.169709 -1.659702
vt 3.169709 -1.659702
vt 3.888224 -0.415198
f 97/262/97 63/263/63 61/264/61
vt 3.169709 -1.659702
vt 3.169709 -1.659702
vt 2.068881 -2.583407
f 63/265/63 97/266/97 98/267/98
vt 2.068881 -2.583407
vt 2.068881 -2.583407
vt 3.169709 -1.659702
f 98/268/98 65/269/65 63/270/63
vt 2.068881 -2.583407
vt 2.068881 -2.583407
vt 0.718515 -3.074900
f 65/271/65 98/272/98 99/273/99
vt 0.718515 -3.074900
vt 0.718515 -3.074900
vt 2.068881 -2.583407
f 99/274/99 67/275/67 65/276/65
vt 0.718515 -3.074900
vt 0.718515 -3.074900
vt -0.718515 -3.074900
f 67/277/67 99/278/99 100/279/100
vt -0.718515 -3.074900
vt -0.718515 -3.074900
vt 0.718515 -3.074900
f 100/280/100 69/281/69 67/282/67
vt -0.718515 -3.074900
vt -0.718515 -3.074900
vt -2.068882 -2.583407
f 69/283/69 100/284/100 101/285/101
vt -2.068882 -2.583407
vt -2.068882 -2.583407
vt -0.718515 -3.074900
f 101/286/101 71/287/71 69/288/69
vt -2.068882 -2.583407
vt -2.068882 -2.583407
vt -3.169710 -1.659702
f 71/289/71 101/290/101 102/291/102
vt -3.169710 -1.659702
vt -3.169710 -1.659702
vt -2.068882 -2.583407
f 102/292/102 73/293/73 71/294/71
vt -3.169710 -1.659702
vt -3.169710 -1.659702
vt -3.888225 -0.415197
f 73/295/73 102/296/102 103/297/103
vt -3.888225 -0.415197
vt -3.888225 -0.415197
vt -3.169710 -1.659702
f 103/298/103 75/299/75 73/300/73
vt -3.888225 -0.415197
vt -3.888225 -0.415197
vt -4.137762 1.000001
f 75/301/75 103/302/103 104/303/104
vt -4.137762 1.000001
vt -4.137762 1.000001
vt -3.888225 -0.415197
f 104/304/104 77/305/77 75/306/75
vt -4.137762 1.000001
vt -4.137762 1.000001
vt -3.888224 2.415199
f 77/307/77 104/308/104 105/309/105
vt -3.888224 2.415199
vt -3.888224 2.415199
vt -4.137762 1.000001
f 105/310/105 79/311/79 77/312/77
vt -3.888224 2.415199
vt -3.888224 2.415199
vt -3.169709 3.659703
f 79/313/79 105/314/105 106/315/106
vt -3.169709 3.659703
vt -3.169709 3.659703
vt -3.888224 2.415199
f 106/316/106 81/317/81 79/318/79
vt -3.169709 3.659703
vt -3.169709 3.659703
vt -2.068880 4.583407
f 81/319/81 106/320/106 107/321/107
vt -2.068880 4.583407
vt -2.068880 4.583407
vt -3.169709 3.659703
f 107/322/107 83/323/83 81/324/81
vt -2.068880 4.583407
vt -2.068880 4.583407
vt -0.718514 5.074900
f 83/325/83 107/326/107 108/327/108
vt -0.718514 5.074900
vt -0.718514 5.074900
vt -2.068880 4.583407
f 108/328/108 85/329/85 83/330/83
vt -0.718514 5.074900
vt -0.718514 5.074900
vt 0.718516 5.074900
f 85/331/85 108/332/108 109/333/109
vt 0.718516 5.074900
vt 0.718516 5.074900
vt -0.718514 5.074900
f 109/334/109 87/335/87 85/336/85
vt 0.718516 5.074900
vt 0.718516 5.074900
vt 2.068882 4.583406
f 87/337/87 109/338/109 110/339/110
vt 2.068882 4.583406
vt 2.068882 4.583406
vt 0.718516 5.074900
f 110/340/110 89/341/89 87/342/87
vt 2.068882 4.583406
vt 2.068882 4.583406
vt 3.169710 3.659701
f 89/343/89 110/344/110 111/345/111
vt 3.169710 3.659701
vt 3.169710 3.659701
vt 2.068882 4.583406
f 111/346/111 91/347/91 89/348/89
vt 3.169710 3.659701
vt 3.169710 3.659701
vt 3.888225 2.415197
f 91/349/91 111/350/111 112/351/112
vt 3.888225 2.415197
vt 3.888225 2.415197
vt 3.169710 3.659701
f 112/352/112 93/353/93 91/354/91
vt 3.888225 2.415197
vt 3.888225 2.415197
vt 4.137762 1.000000
f 93/355/93 112/356/112 95/357/95
vt 4.137762 1.000000
vt 4.137762 1.000000
vt 3.888225 2.415197
f 95/358/95 60/359/60 93/360/93
vt 4.137762 1.000000
vt 4.137762 1.000000
vt 3.888224 -0.415198
f 95/361/95 113/362/113 114/363/114
vt 3.888224 -0.415198
vt 3.888224 -0.415198
vt 4.137762 1.000000
f 114/364/114 96/365/96 95/366/95
vt 3.888224 -0.415198
vt 3.888224 -0.415198
vt 3.169709 -1.659702
f 96/367/96 114/368/114 115/369/115
vt 3.169709 -1.659702
vt 3.169709 -1.659702
vt 3.888224 -0.415198
f 115/370/115 97/371/97 96/372/96
vt 3.169709 -1.659702
vt 3.169709 -1.659702
vt 2.068881 -2.583407
f 97/373/97 115/374/115 116/375/116
vt 2.068881 -2.583407
vt 2.068881 -2.583407
vt 3.169709 -1.659702
f 116/376/116 98/377/98 97/378/97
vt 2.068881 -2.583407
vt 2.068881 -2.583407
vt 0.718515 -3.074900
f 98/379/98 116/380/116 117/381/117
vt 0.718515 -3.074900
vt 0.718515 -3.074900
vt 2.068881 -2.583407
f 117/382/117 99/383/99 98/384/98
vt 0.718515 -3.074900
vt 0.718515 -3.074900
vt -0.718515 -3.074900
f 99/385/99 117/386/117 118/387/118
vt -0.718515 -3.074900
vt -0.718515 -3.074900
vt 0.718515 -3.074900
f 118/388/118 100/389/100 99/390/99
vt -0.718515 -3.074900
vt -0.718515 -3.074900
vt -2.068882 -2.583407
f 100/391/100 118/392/118 119/393/119
vt -2.068882 -2.583407
vt -2.068882 -2.583407
vt -0.718515 -3.074900
f 119/394/119 101/395/101 100/396/100
vt -2.068882 -2.583407
vt -2.068882 -2.583407
vt -3.169710 -1.659702
f 101/397/101 119/398/119 120/399/120
vt -3.169710 -1.659702
vt -3.169710 -1.659702
vt -2.068882 -2.583407
f 120/400/120 102/401/102 101/402/101
vt -3.169710 -1.659702
vt -3.169710 -1.659702
vt -3.888225 -0.415197
f 102/403/102 120/404/120 121/405/121
vt -3.888225 -0.415197
vt -3.888225 -0.415197
vt -3.169710 -1.659702
f 121/406/121 103/407/103 102/408/102
vt -3.888225 -0.415197
vt -3.888225 -0.415197
vt -4.137762 1.000001
f 103/409/103 121/410/121 122/411/122
vt -4.137762 1.000001
vt -4.137762 1.000001
vt -3.888225 -0.415197
f 122/412/122 104/413/104 103/414/103
vt -4.137762 1.000001
vt -4.137762 1.000001
vt -3.888224 2.415199
f 104/415/104 122/416/122 123/417/123
vt -3.888224 2.415199
vt -3.888224 2.415199
vt -4.137762 1.000001
f 123/418/123 105/419/105 104/420/104
vt -3.888224 2.415199
vt -3.888224 2.415199
vt -3.169709 3.659703
f 105/421/105 123/422/123 124/423/124
vt -3.169709 3.659703
vt -3.169709 3.659703
vt -3.888224 2.415199
f 124/424/124 106/425/106 105/426/105
vt -3.169709 3.659703
vt -3.169709 3.659703
vt -2.068880 4.583407
f 106/427/106 124/428/124 125/429/125
vt -2.068880 4.583407
vt -2.068880 4.583407
vt -3.169709 3.659703
f 125/430/125 107/431/107 106/432/106
vt -2.068880 4.583407
vt -2.068880 4.583407
vt -0.718514 5.074900
f 107/433/107 125/434/125 126/435/126
vt -0.718514 5.074900
vt -0.718514 5.074900
vt -2.068880 4.583407
f 126/436/126 108/437/108 107/438/107
vt -0.718514 5.074900
vt -0.718514 5.074900
vt 0.718516 5.074900
f 108/439/108 126/440/126 127/441/127
vt 0.718516 5.074900
vt 0.718516 5.074900
vt -0.718514 5.074900
f 127/442/127 109/443/109 108/444/108
vt 0.718516 5.074900
vt 0.718516 5.074900
vt 2.068882 4.583406
f 109/445/109 127/446/127 128/447/128
vt 2.068882 4.583406
vt 2.068882 4.583406
vt 0.718516 5.074900
f 128/448/128 110/449/110 109/450/109
vt 2.068882 4.583406
vt 2.068882 4.583406
vt 3.169710 3.659701
f 110/451/110 128/452/128 129/453/129
vt 3.169710 3.659701
vt 3.169710 3.659701
vt 2.068882 4.583406
f 129/454/129 111/455/111 110/456/110
vt 3.169710 3.659701
vt 3.169710 3.659701
vt 3.888225 2.415197
f 111/457/111 129/458/129 130/459/130
vt 3.888225 2.415197
vt 3.888225 2.415197
vt 3.169710 3.659701
f 130/460/130 112/461/112 111/462/111
vt 3.888225 2.415197
vt 3.888225 2.415197
vt 4.137762 1.000000
f 112/463/112 130/464/130 113/465/113
vt 4.137762 1.000000
vt 4.137762 1.000000
vt 3.888225 2.415197
f 113/466/113 95/467/95 112/468/112
vt 3.888225 2.415197
vt 3.888225 2.415197
vt 4.137762 1.000000
f 130/469/130 131/470/131 132/471/132
vt 4.137762 1.000000
vt 4.137762 1.000000
vt 3.888225 2.415197
f 133/472/133 113/473/113 130/474/130
vt 4.137762 1.000000
vt 3.888224 -0.415198
vt 3.169709 -1.659702
f 59/475/59 62/476/62 64/477/64
vt 3.169709 -1.659702
vt 2.068881 -2.583407
vt 0.718515 -3.074900
f 64/478/64 66/479/66 68/480/68
vt 0.718515 -3.074900
vt -0.718515 -3.074900
vt -2.068882 -2.583407
f 68/481/68 70/482/70 72/483/72
vt 3.169709 -1.659702
vt 0.718515 -3.074900
vt -2.068882 -2.583407
f 64/484/64 68/485/68 72/486/72
vt -2.068882 -2.583407
vt -3.169710 -1.659702
vt -3.888225 -0.415197
f 72/487/72 74/488/74 76/489/76
vt -3.888225 -0.415197
vt -4.137762 1.000001
vt -3.888224 2.415199
f 76/490/76 78/491/78 80/492/80
vt -2.068882 -2.583407
vt -3.888225 -0.415197
vt -3.888224 2.415199
f 72/493/72 76/494/76 80/495/80
vt 3.169709 -1.659702
vt -2.068882 -2.583407
vt -3.888224 2.415199
f 64/496/64 72/497/72 80/498/80
vt -3.888224 2.415199
vt -3.169709 3.659703
vt -2.068880 4.583407
f 80/499/80 82/500/82 84/501/84
vt -2.068880 4.583407
vt -0.718514 5.074900
vt 0.718516 5.074900
f 84/502/84 86/503/86 88/504/88
vt -3.888224 2.415199
vt -2.068880 4.583407
vt 0.718516 5.074900
f 80/505/80 84/506/84 88/507/88
vt 3.169709 -1.659702
vt -3.888224 2.415199
vt 0.718516 5.074900
f 64/508/64 80/509/80 88/510/88
vt 4.137762 1.000000
vt 3.169709 -1.659702
vt 0.718516 5.074900
f 59/511/59 64/512/64 88/513/88
vt 0.718516 5.074900
vt 2.068882 4.583406
vt 3.169710 3.659701
f 88/514/88 90/515/90 92/516/92
vt 4.137762 1.000000
vt 0.718516 5.074900
vt 3.169710 3.659701
f 59/517/59 88/518/88 92/519/92
vt 3.888225 2.415197
vt 4.137762 1.000000
vt 3.169710 3.659701
f 94/520/94 59/521/59 92/522/92
vt 4.137762 1.000000
vt 4.137762 1.000000
vt 3.888224 -0.415198
f 113/523/113 134/524/134 135/525/135
vt 3.888224 -0.415198
vt 3.888224 -0.415198
vt 4.137762 1.000000
f 136/526/136 114/527/114 113/528/113
vt 3.169709 -1.659702
vt 3.888224 -0.415198
vt 3.888224 -0.415198
f 115/529/115 114/530/114 137/531/137
vt 3.888224 -0.415198
vt 3.169709 -1.659702
vt 3.169709 -1.659702
f 138/532/138 139/533/139 115/534/115
vt 2.068881 -2.583407
vt 3.169709 -1.659702
vt 3.169709 -1.659702
f 116/535/116 115/536/115 140/537/140
vt 3.169709 -1.659702
vt 2.068881 -2.583407
vt 2.068881 -2.583407
f 141/538/141 142/539/142 116/540/116
vt 0.718515 -3.074900
vt 2.068881 -2.583407
vt 2.068881 -2.583407
f 117/541/117 116/542/116 143/543/143
vt 2.068881 -2.583407
vt 0.718515 -3.074900
vt 0.718515 -3.074900
f 144/544/144 145/545/145 117/546/117
vt -0.718515 -3.074900
vt 0.718515 -3.074900
vt 0.718515 -3.074900
f 118/547/118 117/548/117 146/549/146
vt 0.718515 -3.074900
vt -0.718515 -3.074900
vt -0.718515 -3.074900
f 147/550/147 148/551/148 118/552/118
vt -2.068882 -2.583407
vt -0.718515 -3.074900
vt -0.718515 -3.074900
f 119/553/119 118/554/118 149/555/149
vt -0.718515 -3.074900
vt -2.068882 -2.583407
vt -2.068882 -2.583407
f 150/556/150 151/557/151 119/558/119
vt -3.169710 -1.659702
vt -2.068882 -2.583407
vt -2.068882 -2.583407
f 120/559/120 119/560/119 152/561/152
vt -2.068882 -2.583407
vt -3.169710 -1.659702
vt -3.169710 -1.659702
f 153/562/153 154/563/154 120/564/120
vt -3.888225 -0.415197
vt -3.169710 -1.659702
vt -3.169710 -1.659702
f 121/565/121 120/566/120 155/567/155
vt -3.169710 -1.659702
vt -3.888225 -0.415197
vt -3.888225 -0.415197
f 156/568/156 157/569/157 121/570/121
vt -4.137762 1.000001
vt -3.888225 -0.415197
vt -3.888225 -0.415197
f 122/571/122 121/572/121 158/573/158
vt -3.888225 -0.415197
vt -4.137762 1.000001
vt -4.137762 1.000001
f 159/574/159 160/575/160 122/576/122
vt -3.888224 2.415199
vt -4.137762 1.000001
vt -4.137762 1.000001
f 123/577/123 122/578/122 161/579/161
vt -4.137762 1.000001
vt -3.888224 2.415199
vt -3.888224 2.415199
f 162/580/162 163/581/163 123/582/123
vt -3.169709 3.659703
vt -3.888224 2.415199
vt -3.888224 2.415199
f 124/583/124 123/584/123 164/585/164
vt -3.888224 2.415199
vt -3.169709 3.659703
vt -3.169709 3.659703
f 165/586/165 166/587/166 124/588/124
vt -2.068880 4.583407
vt -3.169709 3.659703
vt -3.169709 3.659703
f 125/589/125 124/590/124 167/591/167
vt -3.169709 3.659703
vt -2.068880 4.583407
vt -2.068880 4.583407
f 168/592/168 169/593/169 125/594/125
vt -0.718514 5.074900
vt -2.068880 4.583407
vt -2.068880 4.583407
f 126/595/126 125/596/125 170/597/170
vt -2.068880 4.583407
vt -0.718514 5.074900
vt -0.718514 5.074900
f 171/598/171 172/599/172 126/600/126
vt 0.718516 5.074900
vt -0.718514 5.074900
vt -0.718514 5.074900
f 127/601/127 126/602/126 173/603/173
vt -0.718514 5.074900
vt 0.718516 5.074900
vt 0.718516 5.074900
f 174/604/174 175/605/175 127/606/127
vt 2.068882 4.583406
vt 0.718516 5.074900
vt 0.718516 5.074900
f 128/607/128 127/608/127 176/609/176
vt 0.718516 5.074900
vt 2.068882 4.583406
vt 2.068882 4.583406
f 177/610/177 178/611/178 128/612/128
vt 3.169710 3.659701
vt 2.068882 4.583406
vt 2.068882 4.583406
f 129/613/129 128/614/128 179/615/179
vt 2.068882 4.583406
vt 3.169710 3.659701
vt 3.169710 3.659701
f 180/616/180 181/617/181 129/618/129
vt 3.888225 2.415197
vt 3.169710 3.659701
vt 3.169710 3.659701
f 130/619/130 129/620/129 182/621/182
vt 3.169710 3.659701
vt 3.888225 2.415197
vt 3.888225 2.415197
f 183/622/183 184/623/184 130/624/130
usemtl tex1_0
v 1.064449 3.891330 18.320490
vn 0.000000 -0.791970 0.610560
v 1.766442 2.139816 17.859682
vn 0.000000 0.610560 0.791970
v -1.700097 2.139816 17.859682
vn 0.000000 -0.254433 0.967090
v -0.998104 3.891330 18.320490
vn 0.000000 -0.254433 0.967090
v 1.010523 3.891330 22.763922
vn 0.000000 -0.699167 -0.714959
v -0.944178 3.891330 22.763922
vn 0.000000 -0.699167 -0.714958
v -1.379939 2.139816 24.476749
vn 0.604610 -0.640601 -0.473368
v 1.446284 2.139816 24.476749
vn -0.610328 -0.626236 -0.485106
v -0.998104 3.891330 18.320490
vn 0.000000 -1.000000 -0.000000
v -0.944178 3.891330 22.763922
vn 0.000000 -1.000000 -0.000000
v -0.944178 3.891330 22.763922
vn 0.000000 -1.000000 0.000000
v 1.010523 3.891330 22.763922
vn 0.000000 -1.000000 0.000000
v -0.998104 3.891330 18.320490
vn 0.931318 -0.361410 -0.045061
v -1.700097 2.139816 17.859682
vn 0.931318 -0.361410 -0.045061
v -0.944178 3.891330 22.763922
vn 0.967600 -0.252214 -0.011743
v -0.998104 3.891330 18.320490
vn 0.967600 -0.252214 -0.011743
v -1.700097 2.139816 17.859682
vn 0.000000 1.000000 0.000000
v 1.446284 2.139816 24.476749
vn 0.000000 1.000000 0.000000
v 1.446284 2.139816 24.476749
vn 0.000000 1.000000 0.000000
v -1.379939 2.139816 24.476749
vn 0.000000 1.000000 0.000000
v -1.700097 2.139816 17.859682
vn 0.000000 1.000000 0.000000
v 1.766442 2.139816 17.859682
vn -0.929185 -0.369443 -0.011277
v 1.064449 3.891330 18.320490
vn -0.929185 -0.369443 -0.011277
v 1.010523 3.891330 22.763922
vn -0.929185 -0.369443 -0.011277
v 1.010523 3.891330 22.763922
vn -0.957818 -0.283616 -0.046343
v 1.766442 2.139816 17.859682
vn -0.957818 -0.283616 -0.046343
vt 0.000000 1.000000
vt 1.000000 1.000000
vt 1.000000 0.000000
f 185/625/185 186/626/186 187/627/187
vt 1.000000 0.000000
vt 0.000000 0.000000
vt 0.000000 1.000000
f 187/628/187 188/629/188 185/630/185
vt 0.000000 1.000000
vt 1.000000 1.000000
vt 1.000000 0.000000
f 189/631/189 190/632/190 191/633/191
vt 1.000000 0.000000
vt 0.000000 0.000000
vt 0.000000 1.000000
f 191/634/191 192/635/192 189/636/189
vt 0.000000 1.000000
vt 1.000000 1.000000
vt 1.000000 0.000000
f 185/637/185 193/638/193 194/639/194
vt 1.000000 0.000000
vt 0.000000 0.000000
vt 0.000000 1.000000
f 195/640/195 196/641/196 185/642/185
vt 0.000000 1.000000
vt 1.000000 1.000000
vt 1.000000 0.000000
f 197/643/197 198/644/198 191/645/191
vt 1.000000 0.000000
vt 0.000000 0.000000
vt 0.000000 1.000000
f 191/646/191 199/647/199 200/648/200
vt 0.000000 1.000000
vt 1.000000 1.000000
vt 1.000000 0.000000
f 201/649/201 186/650/186 202/651/202
vt 1.000000 0.000000
vt 0.000000 0.000000
vt 0.000000 1.000000
f 203/652/203 204/653/204 205/654/205
vt 0.000000 1.000000
vt 1.000000 1.000000
vt 1.000000 0.000000
f 206/655/206 207/656/207 208/657/208
vt 1.000000 0.000000
vt 0.000000 0.000000
vt 0.000000 1.000000
f 209/658/209 192/659/192 210/660/210
usemtl tex2_0
v 2.672559 -3.362009 -1.365908
vn -0.199135 0.979841 -0.016006
v 2.672559 -3.362009 -10.846002
vn -0.184148 0.982898 0.000000
v 20.141718 -0.089120 -18.347322
vn -0.293128 0.487783 0.822280
v 17.602407 -0.089121 -1.365907
vn -0.214023 0.976304 -0.032004
v -2.443682 -3.362009 -1.365908
vn -0.000000 1.000000 0.000000
v -2.443682 -3.362009 -10.846002
vn -0.000000 1.000000 0.000000
v 2.672559 -3.362009 -10.846002
vn -0.000000 1.000000 0.000000
v 2.672559 -3.362009 -10.846002
vn -0.000000 1.000000 0.000000
v 2.672559 -3.362009 -1.365908
vn -0.000000 1.000000 0.000000
v -9.619937 -1.308867 -1.365907
vn 0.275937 0.961176 0.000713
v -9.619937 -1.300894 -6.736148
vn 0.276807 0.960924 0.001427
v -2.443682 -3.362009 -10.846002
vn 0.276807 0.960924 0.001427
v -2.443682 -3.362009 -10.846002
vn 0.275066 0.961425 0.000000
v -2.443682 -3.362009 -1.365908
vn 0.275066 0.961425 0.000000
v 2.672559 -3.362009 8.114186
vn -0.310795 0.935800 -0.166386
v 2.672559 -3.362009 -1.365908
vn -0.214133 0.976805 0.000000
v 17.602407 -0.089121 -1.365907
vn -0.214133 0.976805 0.000000
v 17.602407 -0.089121 -1.365907
vn -0.395427 0.858572 -0.326331
v 9.778842 -0.089119 8.114184
vn -0.395427 0.858572 -0.326331
v -2.443682 -3.362009 8.114186
vn -0.000000 1.000000 0.000000
v -2.443682 -3.362009 -1.365908
vn -0.000000 1.000000 0.000000
v 2.672559 -3.362009 -1.365908
vn -0.000000 1.000000 0.000000
v 2.672559 -3.362009 -1.365908
vn -0.000000 1.000000 0.000000
v 2.672559 -3.362009 8.114186
vn -0.000000 1.000000 0.000000
v -9.619937 -1.270021 4.004338
vn 0.277465 0.960729 -0.003477
v -9.619937 -1.308867 -1.365907
vn 0.275059 0.961402 -0.006954
v -2.443682 -3.362009 -1.365908
vn 0.275059 0.961402 -0.006954
v -2.443682 -3.362009 -1.365908
vn 0.279866 0.960039 0.000000
v -2.443682 -3.362009 8.114186
vn 0.279866 0.960039 0.000000
v 2.241780 -2.816527 22.913177
vn -0.727563 0.637677 -0.253023
v 2.672559 -3.362009 8.114186
vn -0.417892 0.907351 -0.045609
v 9.778842 -0.089119 8.114184
vn -0.417892 0.907351 -0.045609
v 9.778842 -0.089119 8.114184
vn -0.883252 0.233045 -0.406887
v 5.411655 -0.089119 17.594278
vn -0.883252 0.233045 -0.406887
v -2.021755 -2.816527 22.913177
vn -0.000000 0.999321 -0.036834
v -2.443682 -3.362009 8.114186
vn -0.000000 0.999321 -0.036834
v 2.672559 -3.362009 8.114186
vn -0.000000 0.999321 -0.036834
v 2.672559 -3.362009 8.114186
vn -0.000000 0.999321 -0.036834
v 2.241780 -2.816527 22.913177
vn -0.000000 0.999321 -0.036834
v -5.191634 -3.119573 17.594278
vn 0.110402 0.993865 0.006585
v -9.619937 -1.270021 4.004338
vn 0.253661 0.966060 0.048822
v -2.443682 -3.362009 8.114186
vn 0.253661 0.966060 0.048822
v -2.443682 -3.362009 8.114186
vn -0.035404 0.998732 -0.035803
v -2.021755 -2.816527 22.913177
vn -0.035404 0.998732 -0.035803
v 2.672559 3.183771 -1.365908
vn -0.199135 -0.979841 -0.016006
v 17.602407 -0.089121 -1.365907
vn -0.214023 -0.976304 -0.032004
v 2.672559 3.183771 -10.846002
vn -0.184149 -0.982898 0.000000
v -9.619937 1.130624 -1.365907
vn 0.275937 -0.961175 0.000713
v -2.443682 3.183771 -1.365908
vn 0.275066 -0.961425 0.000000
v -2.443682 3.183771 -10.846002
vn 0.383537 -0.906877 0.174564
v -9.619937 1.122652 -6.736148
vn 0.276808 -0.960924 0.001426
v 2.672559 3.183771 8.114186
vn -0.310795 -0.935800 -0.166386
v 9.778842 -0.089119 8.114184
vn -0.395427 -0.858572 -0.326331
v 17.602407 -0.089121 -1.365907
vn -0.395427 -0.858572 -0.326331
v 17.602407 -0.089121 -1.365907
vn -0.214133 -0.976804 0.000000
v 2.672559 3.183771 -1.365908
vn -0.214133 -0.976804 0.000000
v -9.619937 1.091778 4.004336
vn 0.277466 -0.960729 -0.003477
v -2.443682 3.183771 8.114186
vn 0.279867 -0.960039 0.000000
v -2.443682 3.183771 -1.365908
vn 0.279867 -0.960039 0.000000
v -2.443682 3.183771 -1.365908
vn 0.275060 -0.961402 -0.006954
v -9.619937 1.130624 -1.365907
vn 0.275060 -0.961402 -0.006954
v 2.241780 2.638288 22.913177
vn -0.727563 -0.637677 -0.253023
v 5.411655 -0.089119 17.594278
vn -0.883252 -0.233045 -0.406887
v 9.778842 -0.089119 8.114184
vn -0.883252 -0.233045 -0.406887
v 9.778842 -0.089119 8.114184
vn -0.417892 -0.907351 -0.045609
v 2.672559 3.183771 8.114186
vn -0.417892 -0.907351 -0.045609
v -2.021755 2.638288 22.913177
vn 0.000000 -0.999321 -0.036834
v 2.241780 2.638288 22.913177
vn 0.000000 -0.999321 -0.036834
v 2.672559 3.183771 8.114186
vn 0.000000 -0.999321 -0.036834
v 2.672559 3.183771 8.114186
vn 0.000000 -0.999321 -0.036834
v -2.443682 3.183771 8.114186
vn 0.000000 -0.999321 -0.036834
v -5.191634 2.941334 17.594278
vn 0.110403 -0.993865 0.006586
v -2.021755 2.638288 22.913177
vn -0.035404 -0.998731 -0.035803
v -2.443682 3.183771 8.114186
vn -0.035404 -0.998731 -0.035803
v -2.443682 3.183771 8.114186
vn 0.253661 -0.966060 0.048822
v -9.619937 1.091778 4.004336
vn 0.253661 -0.966060 0.048822
v 2.672559 -3.362009 -10.846002
vn 0.064888 0.850386 0.522142
v 2.672559 -1.180083 -14.399593
vn 0.064888 0.850386 0.522142
v -2.443682 -1.180083 -14.399593
vn -0.000000 0.852182 0.523245
v 2.672559 -1.180083 -14.399593
vn 0.000000 0.852182 0.523245
v 2.672559 -3.362009 -10.846002
vn 0.000000 0.852182 0.523245
v 2.672559 -3.362009 -10.846002
vn -0.000000 0.852182 0.523245
v -2.443682 -3.362009 -10.846002
vn -0.000000 0.852182 0.523245
v -9.619937 -0.493046 -6.736148
vn 0.570365 0.395010 0.720174
v -2.443682 -1.180083 -14.399593
vn 0.539265 0.717654 0.440643
v -2.443682 -3.362009 -10.846002
vn 0.539265 0.717654 0.440643
v -2.443682 -3.362009 -10.846002
vn 0.496972 0.000000 0.867767
v -9.619937 -1.300894 -6.736148
vn 0.496972 0.000000 0.867767
v 2.672559 -1.180083 -14.399593
vn 0.220425 0.000000 0.975404
v 2.672559 1.001843 -14.399593
vn 0.083067 -0.642288 0.761949
v -2.443682 1.001843 -14.399593
vn 0.350226 -0.216978 0.911187
v 2.672559 1.001843 -14.399593
vn 0.000000 0.000000 1.000000
v 2.672559 -1.180083 -14.399593
vn 0.000000 0.000000 1.000000
v 2.672559 -1.180083 -14.399593
vn 0.000000 0.000000 1.000000
v -2.443682 -1.180083 -14.399593
vn 0.000000 0.000000 1.000000
v -9.619937 0.314803 -6.736148
vn 0.930034 0.000000 0.367472
v -2.443682 1.001843 -14.399593
vn 0.729928 0.000000 0.683524
v -2.443682 -1.180083 -14.399593
vn 0.729928 0.000000 0.683524
v -2.443682 -1.180083 -14.399593
vn 0.729928 0.000000 0.683524
v -9.619937 -0.493046 -6.736148
vn 0.729928 0.000000 0.683524
v 20.141718 -0.089120 -18.347322
vn 0.064888 -0.850386 0.522142
v 2.672559 1.001843 -14.399593
vn 0.064888 -0.850386 0.522142
v 2.672559 3.183771 -10.846002
vn 0.064888 -0.850386 0.522142
v 2.672559 3.183771 -10.846002
vn 0.000000 -0.852182 0.523245
v -2.443682 1.001843 -14.399593
vn 0.000000 -0.852182 0.523245
v -9.619937 1.122652 -6.736148
vn 0.478153 -0.748452 0.459554
v -2.443682 3.183771 -10.846002
vn 0.478153 -0.748452 0.459554
v -9.619937 0.314803 -6.736148
vn 0.729928 0.000000 0.683524
v -9.619937 1.122652 -6.736148
vn 0.729928 0.000000 0.683524
v -9.619937 -0.495703 -1.365907
vn 1.000000 0.000000 0.000000
v -9.619937 -0.493046 -6.736148
vn 1.000000 0.000000 0.000000
v -9.619937 -1.300894 -6.736148
vn 1.000000 0.000000 0.000000
v -9.619937 -1.300894 -6.736148
vn 1.000000 0.000000 0.000000
v -9.619937 -1.308867 -1.365907
vn 1.000000 0.000000 0.000000
v -9.619937 -0.482754 4.004336
vn 1.000000 0.000000 0.000000
v -9.619937 -0.495703 -1.365907
vn 1.000000 0.000000 0.000000
v -9.619937 -1.308867 -1.365907
vn 1.000000 0.000000 0.000000
v -9.619937 -1.308867 -1.365907
vn 1.000000 0.000000 0.000000
v -9.619937 -1.270021 4.004338
vn 1.000000 0.000000 0.000000
v -5.191634 -1.099271 17.594278
vn 0.950796 -0.000000 -0.309818
v -9.619937 -0.482754 4.004336
vn 0.950796 -0.000001 -0.309818
v -9.619937 -1.270021 4.004338
vn 0.950796 -0.000001 -0.309818
v -9.619937 -1.270021 4.004338
vn 0.950796 0.000000 -0.309818
v -5.191634 -3.119573 17.594278
vn 0.950796 0.000000 -0.309818
v -9.619937 0.317461 -1.365907
vn 1.000000 0.000000 0.000000
v -9.619937 0.314803 -6.736148
vn 1.000000 0.000000 0.000000
v -9.619937 -0.493046 -6.736148
vn 1.000000 0.000000 0.000000
v -9.619937 -0.493046 -6.736148
vn 1.000000 0.000000 0.000000
v -9.619937 -0.495703 -1.365907
vn 1.000000 0.000000 0.000000
v -9.619937 0.304512 4.004336
vn 0.987622 0.000000 -0.156851
v -9.619937 0.317461 -1.365907
vn 1.000000 0.000000 0.000000
v -9.619937 -0.495703 -1.365907
vn 1.000000 0.000000 0.000000
v -9.619937 -0.495703 -1.365907
vn 1.000000 0.000000 0.000000
v -9.619937 -0.482754 4.004336
vn 1.000000 0.000000 0.000000
v -5.191634 0.921031 17.594278
vn 0.910533 0.000000 -0.413436
v -9.619937 0.304512 4.004336
vn 0.950796 0.000000 -0.309818
v -9.619937 -0.482754 4.004336
vn 0.950796 0.000000 -0.309818
v -9.619937 -0.482754 4.004336
vn 0.950796 0.000000 -0.309818
v -5.191634 -1.099271 17.594278
vn 0.950796 0.000000 -0.309818
v -9.619937 1.130624 -1.365907
vn 1.000000 0.000000 0.000000
v -9.619937 1.122652 -6.736148
vn 1.000000 0.000000 0.000000
v -9.619937 0.317461 -1.365907
vn 1.000000 0.000000 0.000000
v -9.619937 1.130624 -1.365907
vn 1.000000 0.000000 0.000000
v -9.619937 1.091778 4.004336
vn 1.000000 0.000000 0.000000
v -9.619937 1.130624 -1.365907
vn 1.000000 0.000000 0.000000
v -9.619937 0.304512 4.004336
vn 1.000000 0.000000 0.000000
v -9.619937 1.091778 4.004336
vn 1.000000 0.000000 0.000000
v -5.191634 2.941334 17.594278
vn 0.950796 0.000000 -0.309818
v -9.619937 1.091778 4.004336
vn 0.950796 0.000000 -0.309818
v -5.191634 0.921031 17.594278
vn 0.950796 0.000000 -0.309818
v -5.191634 2.941334 17.594278
vn 0.950796 0.000000 -0.309818
v -2.021755 -0.998255 22.913177
vn 0.859018 0.000000 -0.511945
v -5.191634 -1.099271 17.594278
vn 0.859018 0.000000 -0.511945
v -5.191634 -3.119573 17.594278
vn 0.859018 0.000000 -0.511945
v -5.191634 -3.119573 17.594278
vn 0.859018 0.000000 -0.511945
v -2.021755 -2.816527 22.913177
vn 0.859018 0.000000 -0.511945
v 1.265476 -0.581890 28.783243
vn -0.595416 0.472490 -0.649794
v -1.045451 -0.581890 28.783243
vn -0.000000 0.584867 -0.811129
v -0.941270 -1.300851 28.264833
vn -0.000000 0.584867 -0.811129
v 1.161295 -1.300851 28.264833
vn -0.000000 0.584867 -0.811129
v 5.411655 -0.089119 17.594278
vn -0.859019 0.000000 -0.511945
v 2.241780 -0.998255 22.913177
vn -0.859019 0.000000 -0.511945
v 2.241780 -2.816527 22.913177
vn -0.859019 0.000000 -0.511945
v -2.021755 0.820016 22.913177
vn 0.859018 0.000000 -0.511945
v -5.191634 0.921031 17.594278
vn 0.859018 0.000000 -0.511945
v -5.191634 -1.099271 17.594278
vn 0.859018 0.000000 -0.511945
v -5.191634 -1.099271 17.594278
vn 0.859018 0.000000 -0.511945
v -2.021755 -0.998255 22.913177
vn 0.859018 0.000000 -0.511945
v 1.265476 0.403651 28.783243
vn -0.646504 0.000000 -0.762911
v -1.045451 0.403651 28.783243
vn 0.000000 0.000000 -1.000000
v -1.045451 -0.581890 28.783243
vn 0.000000 0.000000 -1.000000
v -1.045451 -0.581890 28.783243
vn 0.000000 0.000000 -1.000000
v 1.265476 -0.581890 28.783243
vn 0.000000 0.000000 -1.000000
v -2.021755 2.638288 22.913177
vn 0.859018 0.000000 -0.511945
v -5.191634 2.941334 17.594278
vn 0.859018 0.000000 -0.511945
v -2.021755 0.820016 22.913177
vn 0.859018 0.000000 -0.511945
v -2.021755 2.638288 22.913177
vn 0.859018 0.000000 -0.511945
v 0.737232 1.122613 29.738995
vn -0.000000 0.799137 -0.601149
v -0.517207 1.122613 29.738995
vn 0.000000 0.799137 -0.601149
v -1.045451 0.403651 28.783243
vn 0.000000 0.799137 -0.601149
v -1.045451 0.403651 28.783243
vn -0.000000 0.799137 -0.601149
v 1.265476 0.403651 28.783243
vn -0.000000 0.799137 -0.601149
v 1.161295 -1.300851 28.264833
vn -0.000000 0.962156 -0.272498
v -0.941270 -1.300851 28.264833
vn -0.000000 0.962156 -0.272498
v -2.021755 -2.816527 22.913177
vn -0.000000 0.962156 -0.272498
v -2.021755 -2.816527 22.913177
vn -0.000000 0.962156 -0.272498
v 2.241780 -2.816527 22.913177
vn -0.000000 0.962156 -0.272498
v 1.161295 -1.300851 28.264833
vn -0.000000 0.962156 -0.272498
v -0.517207 1.122613 29.738995
vn 0.000000 -0.976223 -0.216771
v 0.737232 1.122613 29.738995
vn 0.000000 -0.976223 -0.216771
v 2.241780 2.638288 22.913177
vn 0.000000 -0.976223 -0.216771
v 2.241780 2.638288 22.913177
vn 0.000000 -0.976223 -0.216771
v -2.021755 2.638288 22.913177
vn 0.000000 -0.976223 -0.216771
v -0.517207 1.122613 29.738995
vn 0.000000 -0.976223 -0.216771
v -0.941270 -1.300851 28.264833
vn 0.948074 0.264612 -0.176452
v -1.045451 -0.581890 28.783243
vn 0.948074 0.264612 -0.176452
v -2.021755 -0.998255 22.913177
vn 0.948074 0.264612 -0.176452
v -2.021755 -0.998255 22.913177
vn 0.980221 0.000000 -0.197904
v -2.021755 -2.816527 22.913177
vn 0.980221 0.000000 -0.197904
v -0.941270 -1.300851 28.264833
vn 0.980221 0.000000 -0.197904
v 1.161295 -1.300851 28.264833
vn -0.902977 0.329612 -0.275660
v 2.241780 -2.816527 22.913177
vn -0.902977 0.329612 -0.275660
v 2.241780 -2.816527 22.913177
vn -0.986449 0.000000 -0.164065
v 2.241780 -0.998255 22.913177
vn -0.986449 0.000000 -0.164065
v -1.045451 -0.581890 28.783243
vn 0.986449 0.000000 -0.164065
v -1.045451 0.403651 28.783243
vn 0.986449 0.000000 -0.164065
v -2.021755 0.820016 22.913177
vn 0.986449 0.000000 -0.164065
v -2.021755 0.820016 22.913177
vn 0.986449 0.000000 -0.164065
v -2.021755 -0.998255 22.913177
vn 0.986449 0.000000 -0.164065
v -1.045451 -0.581890 28.783243
vn 0.986449 0.000000 -0.164065
v 1.265476 -0.581890 28.783243
vn -0.986449 0.000000 -0.164065
v 2.241780 -0.998255 22.913177
vn -0.986449 0.000000 -0.164065
v 2.241780 -0.998255 22.913177
vn -0.986449 0.000000 -0.164065
v 2.241780 0.820017 22.913177
vn -0.986449 0.000000 -0.164065
v -1.045451 0.403651 28.783243
vn 0.911347 -0.310811 -0.269895
v -0.517207 1.122613 29.738995
vn 0.911347 -0.310811 -0.269895
v -2.021755 2.638288 22.913177
vn 0.911347 -0.310811 -0.269895
v -2.021755 2.638288 22.913177
vn 0.986449 0.000000 -0.164065
v -2.021755 0.820016 22.913177
vn 0.986449 0.000000 -0.164065
v -1.045451 0.403651 28.783243
vn 0.986449 0.000000 -0.164065
v 0.737232 1.122613 29.738995
vn -0.890814 -0.418129 -0.177817
v 1.265476 0.403651 28.783243
vn -0.890814 -0.418129 -0.177817
v 2.241780 0.820017 22.913177
vn -0.890814 -0.418129 -0.177817
v 2.241780 0.820017 22.913177
vn -0.976558 -0.000000 -0.215253
v 2.241780 2.638288 22.913177
vn -0.976558 -0.000000 -0.215253
v 0.737232 1.122613 29.738995
vn -0.976558 -0.000000 -0.215253
v 0.830694 6.290346 -10.845997
vn -0.770121 -0.635207 -0.058529
v 0.114438 5.452639 -1.365907
vn -0.659106 -0.743134 -0.115465
v 2.672559 3.183771 -1.365908
vn -0.659106 -0.743134 -0.115465
v 2.672559 3.183771 -1.365908
vn -0.860178 -0.509993 0.000000
v 2.672559 3.183771 -10.846002
vn -0.860178 -0.509993 0.000000
v -0.572827 6.290346 -10.845997
vn 0.000000 -0.000002 1.000000
v 0.830694 6.290346 -10.845997
vn 0.000000 -0.000002 1.000000
v 2.672559 3.183771 -10.846002
vn 0.000000 -0.000002 1.000000
v 2.672559 3.183771 -10.846002
vn 0.000000 -0.000002 1.000000
v -2.443682 3.183771 -10.846002
vn 0.000000 -0.000002 1.000000
v 0.114438 5.452639 -1.365907
vn 0.851726 -0.512931 -0.107071
v -0.572827 6.290346 -10.845997
vn 0.851726 -0.512931 -0.107071
v -2.443682 3.183771 -1.365908
vn 0.663544 -0.748137 0.000000
v 0.114438 5.452639 -1.365907
vn 0.663544 -0.748137 0.000000
v 0.114438 5.452639 -1.365907
vn 0.026646 -0.970538 -0.239469
v 0.114438 3.113538 8.114184
vn 0.026646 -0.970538 -0.239469
v 2.672559 3.183771 8.114186
vn 0.026646 -0.970538 -0.239469
v 2.672559 3.183771 8.114186
vn -0.663544 -0.748137 0.000000
v 2.672559 3.183771 -1.365908
vn -0.663544 -0.748137 0.000000
v 0.114438 5.452639 -1.365907
vn -0.663544 -0.748137 0.000000
v 0.114438 3.113538 8.114184
vn 0.652520 -0.735708 -0.181527
v 0.114438 5.452639 -1.365907
vn 0.652520 -0.735708 -0.181527
v -2.443682 3.183771 -1.365908
vn 0.652520 -0.735708 -0.181527
v -2.443682 3.183771 -1.365908
vn -0.027445 -0.999623 -0.000000
v -2.443682 3.183771 8.114186
vn -0.027445 -0.999623 -0.000000
v 0.114438 3.113538 8.114184
vn -0.027445 -0.999623 -0.000000
v -2.443682 3.183771 8.114186
vn 0.000000 -0.000027 1.000000
v 2.672559 3.183771 8.114186
vn 0.000000 -0.000027 1.000000
v 0.114438 3.113538 8.114184
vn 0.000000 -0.000027 1.000000
v 0.830694 6.290346 -10.845997
vn 0.000000 0.677987 0.735074
v -0.572827 6.290346 -10.845997
vn 0.000000 0.677987 0.735074
v 0.114438 8.845557 -13.202765
vn -0.794122 0.276558 0.541190
v 0.114438 5.452639 -1.365907
vn 0.934673 -0.341746 -0.097958
v 0.114438 8.845557 -13.202765
vn 0.934673 -0.341746 -0.097958
v -0.572827 6.290346 -10.845997
vn 0.934673 -0.341746 -0.097958
v 0.114438 5.452639 -1.365907
vn -0.929626 -0.354238 -0.101539
v 0.830694 6.290346 -10.845997
vn -0.929626 -0.354238 -0.101539
v 3.037494 0.340128 19.620455
vn 0.563543 0.419079 -0.711893
v 2.959841 0.405286 19.620455
vn 0.521013 0.791248 -0.320112
v 2.864585 0.439957 19.620455
vn 0.102245 0.430389 -0.896834
v 2.763216 0.439957 19.620455
vn -0.109485 0.941032 -0.320112
v 2.667960 0.405286 19.620455
vn -0.314853 0.627754 -0.711893
v 2.590307 0.340128 19.620455
vn -0.688753 0.650497 -0.320112
v 2.539623 0.252340 19.620455
vn -0.406095 0.175428 -0.896834
v 2.522020 0.152511 19.620455
vn -0.969257 0.000001 -0.246052
v 2.539623 0.052682 19.620455
vn -0.644704 -0.278504 -0.711893
v 2.590307 -0.035106 19.620455
vn -0.688754 -0.650497 -0.320112
v 2.667960 -0.100265 19.620455
vn -0.228360 -0.455306 -0.860551
v 2.763216 -0.134935 19.620455
vn -0.109485 -0.941032 -0.320112
v 2.864585 -0.134935 19.620455
vn 0.162321 -0.683272 -0.711893
v 2.959841 -0.100265 19.620455
vn 0.521014 -0.791248 -0.320112
v 3.037494 -0.035106 19.620455
vn 0.354973 -0.263975 -0.896834
v 3.088178 0.052682 19.620455
vn 0.907723 -0.271231 -0.320112
v 3.105781 0.152511 19.620455
vn 0.441753 -0.000000 -0.897137
v 3.088178 0.252340 19.620455
vn 0.907724 0.271231 -0.320112
v 3.088178 0.052682 21.492962
vn 0.918006 -0.396567 -0.000000
v 3.037494 -0.035106 21.578009
vn 0.727010 -0.686627 -0.000000
v 3.105781 0.152511 21.463425
vn 1.000000 -0.000001 0.000000
v 2.959841 -0.100265 21.708305
vn 0.448325 -0.893871 -0.000000
v 2.864585 -0.134935 21.868141
vn 0.115566 -0.993300 0.000000
v 2.763216 -0.134935 22.038233
vn -0.231132 -0.972922 0.000000
v 2.667960 -0.100265 22.198069
vn -0.549952 -0.835196 0.000000
v 2.590307 -0.035106 22.328365
vn -0.802440 -0.596733 -0.000000
v 2.539623 0.052682 22.413412
vn -0.958142 -0.286294 0.000000
v 2.539623 0.252340 22.413412
vn -0.958141 0.286295 0.000000
v 2.522020 0.152511 22.442949
vn -1.000000 0.000001 -0.000000
v 2.667960 0.405286 22.198067
vn -0.549952 0.835196 -0.000000
v 2.590307 0.340128 22.328365
vn -0.802439 0.596734 0.000000
v 2.864585 0.439957 21.868141
vn 0.115566 0.993300 0.000000
v 2.763216 0.439957 22.038233
vn -0.231132 0.972922 0.000000
v 3.037494 0.340128 21.578009
vn 0.727009 0.686627 0.000000
v 2.959841 0.405286 21.708305
vn 0.448325 0.893870 0.000000
v 3.088178 0.252340 21.492962
vn 0.918005 0.396568 0.000000
v 5.411655 -0.089119 17.594278
vn -0.859018 0.000012 -0.511946
v 3.973782 0.323270 20.006962
vn -0.859018 0.000012 -0.511946
v 4.014733 0.252340 19.938246
vn -0.859018 -0.000001 -0.511945
v 4.025661 0.190365 19.919910
vn -0.859019 -0.000005 -0.511944
v 5.411655 -0.089119 17.594278
vn -0.859019 -0.000014 -0.511943
v 3.088178 0.052682 21.492962
vn -0.859019 -0.000001 -0.511944
v 3.479983 0.028770 20.835531
vn -0.859019 -0.000006 -0.511944
v 3.466178 0.052682 20.858696
vn -0.859019 0.000002 -0.511944
v 3.088178 0.052682 21.492962
vn -0.859019 0.000005 -0.511944
v 3.455028 0.115913 20.877405
vn -0.859018 0.000001 -0.511945
v 3.088178 0.052682 21.492962
vn -0.859018 -0.000004 -0.511945
v 3.105781 0.152511 21.463425
vn -0.859018 -0.000004 -0.511945
v 3.037494 -0.035106 21.578009
vn -0.859018 0.000055 -0.511945
v 3.530221 -0.046316 20.751234
vn -0.859018 0.000019 -0.511945
v 3.516862 -0.035106 20.773651
vn -0.859019 0.000013 -0.511944
v 3.088178 0.052682 21.492962
vn -0.859018 -0.000004 -0.511945
v 3.037494 -0.035106 21.578009
vn -0.859018 -0.000004 -0.511945
v 3.088178 0.052682 21.492962
vn -0.859019 -0.000010 -0.511944
v 2.959841 -0.100265 21.708305
vn -0.859021 0.000006 -0.511941
v 2.864585 -0.134935 21.868141
vn -0.859021 0.000006 -0.511941
v 2.241780 -0.998255 22.913177
vn -0.859021 0.000006 -0.511941
v 2.864585 -0.134935 21.868141
vn -0.859018 -0.000001 -0.511946
v 2.763216 -0.134935 22.038233
vn -0.859018 -0.000001 -0.511946
v 2.241780 -0.998255 22.913177
vn -0.859018 -0.000001 -0.511946
v 2.763216 -0.134935 22.038233
vn -0.859020 0.000003 -0.511943
v 2.667960 -0.100265 22.198069
vn -0.859020 0.000003 -0.511943
v 2.241780 -0.998255 22.913177
vn -0.859020 0.000003 -0.511943
v 2.667960 -0.100265 22.198069
vn -0.859016 -0.000003 -0.511948
v 2.590307 -0.035106 22.328365
vn -0.859016 -0.000003 -0.511948
v 2.241780 -0.998255 22.913177
vn -0.859016 -0.000003 -0.511948
v 2.590307 -0.035106 22.328365
vn -0.859020 0.000001 -0.511943
v 2.539623 0.052682 22.413412
vn -0.859020 0.000001 -0.511943
v 2.241780 -0.998255 22.913177
vn -0.859020 0.000001 -0.511943
v 2.539623 0.052682 22.413412
vn -0.859011 0.000011 -0.511957
v 2.522020 0.152511 22.442949
vn -0.859011 0.000011 -0.511957
v 2.241780 0.820017 22.913177
vn -0.859011 0.000011 -0.511957
v 2.241780 0.820017 22.913177
vn -0.859018 0.000000 -0.511945
v 2.241780 -0.998255 22.913177
vn -0.859018 0.000000 -0.511945
v 2.539623 0.052682 22.413412
vn -0.859018 0.000000 -0.511945
v 2.522020 0.152511 22.442949
vn -0.859020 -0.000003 -0.511943
v 2.539623 0.252340 22.413412
vn -0.859020 -0.000003 -0.511943
v 2.241780 0.820017 22.913177
vn -0.859020 -0.000003 -0.511943
v 2.539623 0.252340 22.413412
vn -0.859019 -0.000002 -0.511943
v 2.590307 0.340128 22.328365
vn -0.859019 -0.000002 -0.511943
v 2.241780 0.820017 22.913177
vn -0.859019 -0.000002 -0.511943
v 2.590307 0.340128 22.328365
vn -0.859019 -0.000001 -0.511944
v 2.667960 0.405286 22.198067
vn -0.859019 -0.000001 -0.511944
v 2.241780 0.820017 22.913177
vn -0.859019 -0.000001 -0.511944
v 2.667960 0.405286 22.198067
vn -0.859018 0.000002 -0.511945
v 2.763216 0.439957 22.038233
vn -0.859018 0.000002 -0.511945
v 2.241780 0.820017 22.913177
vn -0.859018 0.000002 -0.511945
v 2.763216 0.439957 22.038233
vn -0.859018 0.000003 -0.511946
v 2.864585 0.439957 21.868141
vn -0.859018 0.000003 -0.511946
v 2.241780 0.820017 22.913177
vn -0.859018 0.000003 -0.511946
v 4.030924 0.160516 19.911079
vn -0.859017 0.000022 -0.511946
v 5.411655 -0.089119 17.594278
vn -0.859018 0.000004 -0.511945
v 4.015130 0.054931 19.937580
vn -0.859019 -0.000005 -0.511945
v 3.983197 -0.001941 19.991163
vn -0.859019 -0.000009 -0.511944
v 5.411655 -0.089119 17.594278
vn -0.859019 -0.000009 -0.511944
v 4.025646 0.114569 19.919935
vn -0.859018 0.000005 -0.511945
v 5.411655 -0.089119 17.594278
vn -0.859018 -0.000001 -0.511945
v 4.032336 0.152511 19.908710
vn -0.859017 0.000025 -0.511947
v 5.411655 -0.089119 17.594278
vn -0.859018 0.000010 -0.511945
v 5.411655 -0.089119 17.594278
vn -0.859017 0.000040 -0.511948
v 5.411655 -0.089119 17.594278
vn -0.859018 0.000005 -0.511945
v 3.983197 -0.001941 19.991163
vn -0.859018 0.000005 -0.511945
v 3.964049 -0.035106 20.023293
vn -0.859018 -0.000002 -0.511945
v 3.939590 -0.055629 20.064333
vn -0.859019 -0.000006 -0.511945
v 5.411655 -0.089119 17.594278
vn -0.859019 -0.000009 -0.511944
v 3.037494 -0.035106 21.578009
vn -0.859019 0.000010 -0.511944
v 2.959841 -0.100265 21.708305
vn -0.859019 0.000010 -0.511944
v 3.594516 -0.100265 20.643353
vn -0.859019 -0.000000 -0.511944
v 2.959841 -0.100265 21.708305
vn -0.859018 -0.000007 -0.511945
v 2.959841 -0.100265 21.708305
vn -0.859018 -0.000001 -0.511945
v 2.241780 -0.998255 22.913177
vn -0.859018 -0.000001 -0.511945
v 3.689771 -0.134935 20.483517
vn -0.859019 0.000002 -0.511944
v 2.241780 -0.998255 22.913177
vn -0.859020 0.000008 -0.511942
v 3.791140 -0.134935 20.313425
vn -0.859018 0.000003 -0.511945
v 2.241780 -0.998255 22.913177
vn -0.859018 -0.000005 -0.511946
v 2.241780 -0.998255 22.913177
vn -0.859018 -0.000000 -0.511945
v 5.411655 -0.089119 17.594278
vn -0.859018 -0.000000 -0.511945
v 5.411655 -0.089119 17.594278
vn -0.859019 -0.000004 -0.511945
v 3.886396 -0.100265 20.153591
vn -0.859019 0.000005 -0.511945
v 5.411655 -0.089119 17.594278
vn -0.859019 0.000013 -0.511944
v 3.471553 0.261650 20.849676
vn -0.859019 0.000009 -0.511944
v 3.037494 0.340128 21.578009
vn -0.859019 0.000003 -0.511944
v 3.088178 0.252340 21.492962
vn -0.859019 0.000003 -0.511944
v 3.105781 0.152511 21.463425
vn -0.859018 0.000002 -0.511945
v 3.448575 0.152511 20.888233
vn -0.859018 0.000002 -0.511945
v 3.088178 0.252340 21.492962
vn -0.859018 0.000004 -0.511945
v 3.105781 0.152511 21.463425
vn -0.859018 0.000004 -0.511945
v 3.088178 0.252340 21.492962
vn -0.859018 -0.000000 -0.511945
v 3.456630 0.198192 20.874718
vn -0.859019 -0.000005 -0.511944
v 3.088178 0.252340 21.492962
vn -0.859019 -0.000010 -0.511944
v 3.466178 0.252340 20.858696
vn -0.859019 0.000000 -0.511944
v 3.088178 0.252340 21.492962
vn -0.859019 0.000011 -0.511944
v 2.959841 0.405286 21.708305
vn -0.859018 -0.000000 -0.511945
v 3.492472 0.297882 20.814577
vn -0.859018 -0.000000 -0.511945
v 3.516862 0.340128 20.773651
vn -0.859018 0.000008 -0.511945
v 2.864585 0.439957 21.868141
vn -0.859017 0.000037 -0.511947
v 2.959841 0.405286 21.708305
vn -0.859017 0.000037 -0.511947
v 2.241780 0.820017 22.913177
vn -0.859019 -0.000002 -0.511944
v 2.864585 0.439957 21.868141
vn -0.859019 -0.000002 -0.511944
v 2.241780 0.820017 22.913177
vn -0.859019 -0.000002 -0.511944
v 3.594515 0.405286 20.643353
vn -0.859018 0.000004 -0.511945
v 3.635634 0.420252 20.574358
vn -0.859018 0.000010 -0.511946
v 2.241780 0.820017 22.913177
vn -0.859018 0.000010 -0.511946
v 3.964049 0.340128 20.023293
vn -0.859020 -0.000010 -0.511943
v 3.973782 0.323270 20.006962
vn -0.859021 -0.000026 -0.511941
v 5.411655 -0.089119 17.594278
vn -0.859021 -0.000026 -0.511941
v 5.411655 -0.089119 17.594278
vn -0.859018 -0.000000 -0.511945
v 2.241780 2.638288 22.913177
vn -0.859018 -0.000000 -0.511945
v 3.886396 0.405287 20.153591
vn -0.859019 -0.000001 -0.511944
v 2.241780 2.638288 22.913177
vn -0.859020 -0.000004 -0.511942
v 3.791140 0.439957 20.313425
vn -0.859019 -0.000006 -0.511944
v 2.241780 2.638288 22.913177
vn -0.859018 0.000002 -0.511946
v 2.241780 2.638288 22.913177
vn -0.859019 -0.000000 -0.511945
v 2.241780 0.820017 22.913177
vn -0.859019 -0.000000 -0.511945
v 2.241780 0.820017 22.913177
vn -0.859019 -0.000002 -0.511944
v 3.635634 0.420252 20.574358
vn -0.859019 -0.000002 -0.511944
v 3.689771 0.439957 20.483519
vn -0.859019 -0.000011 -0.511943
v 2.241780 0.820017 22.913177
vn -0.859020 -0.000020 -0.511942
v 2.959841 0.405286 21.708305
vn -0.859019 -0.000014 -0.511944
v 3.037494 0.340128 21.578009
vn -0.859019 -0.000014 -0.511944
v 3.037494 0.340128 21.578009
vn -0.859018 0.000013 -0.511945
v 3.448575 0.152511 18.841955
vn -0.701674 -0.000000 -0.712498
v 3.466178 0.052682 18.841955
vn -0.910803 -0.331506 -0.246052
v 3.516862 -0.035106 18.841955
vn -0.420425 -0.352778 -0.835937
v 3.594516 -0.100265 18.841955
vn -0.484628 -0.839401 -0.246052
v 3.689771 -0.134935 18.841955
vn -0.095302 -0.540487 -0.835937
v 3.791140 -0.134935 18.841955
vn 0.109485 -0.941032 -0.320112
v 3.886396 -0.100265 18.841955
vn 0.372153 -0.595113 -0.712280
v 3.964049 -0.035106 18.841955
vn 0.796156 -0.553208 -0.245146
v 4.014733 0.052682 18.841955
vn 0.672972 -0.201085 -0.711810
v 4.032336 0.152511 18.841955
vn 0.934272 0.164730 -0.316228
v 4.014733 0.252340 18.841955
vn 0.515727 0.187710 -0.835937
v 3.964049 0.340128 18.841955
vn 0.760215 0.565333 -0.320112
v 3.886396 0.405287 18.841955
vn 0.386225 0.586548 -0.711893
v 3.791140 0.439957 18.841955
vn 0.218970 0.921727 -0.320112
v 3.689771 0.439957 18.841955
vn -0.051123 0.439403 -0.896834
v 3.594515 0.405286 18.841955
vn -0.409133 0.878924 -0.245159
v 3.516862 0.340128 18.841955
vn -0.510570 0.482210 -0.711893
v 3.466178 0.252340 18.841955
vn -0.905178 0.391027 -0.166586
v 3.973782 0.323270 20.006962
vn 0.866025 0.500001 -0.000000
v 3.964049 0.340128 20.023293
vn 0.866025 0.500001 -0.000000
v 3.973782 0.323270 20.006962
vn 0.866026 0.500000 -0.000000
v 3.973782 0.323270 20.006962
vn 0.866026 0.499999 0.000000
v 4.014733 0.252340 19.938246
vn 0.866026 0.499999 0.000000
v 3.964049 0.340128 20.023293
vn 0.642787 0.766045 -0.000000
v 3.964049 0.340128 20.023293
vn 0.642787 0.766045 -0.000000
v 3.886396 0.405287 20.153591
vn 0.642787 0.766045 -0.000000
v 3.886396 0.405287 20.153591
vn 0.342020 0.939693 -0.000000
v 3.886396 0.405287 20.153591
vn 0.342020 0.939693 0.000000
v 3.791140 0.439957 20.313425
vn 0.342020 0.939693 0.000000
v 3.791140 0.439957 20.313425
vn -0.000001 1.000000 0.000000
v 3.791140 0.439957 20.313425
vn -0.000001 1.000000 0.000000
v 3.689771 0.439957 20.483519
vn -0.000001 1.000000 0.000000
v 3.635634 0.420252 20.574358
vn -0.342019 0.939693 -0.000000
v 3.594515 0.405286 20.643353
vn -0.342019 0.939693 -0.000000
v 3.689771 0.439957 20.483519
vn -0.342021 0.939692 0.000000
v 3.635634 0.420252 20.574358
vn -0.342021 0.939692 0.000000
v 3.689771 0.439957 20.483519
vn -0.342021 0.939692 0.000000
v 3.455028 0.115913 20.877405
vn -0.984807 -0.173651 -0.000000
v 3.466178 0.052682 20.858696
vn -0.984807 -0.173651 -0.000000
v 3.455028 0.115913 20.877405
vn -0.984807 -0.173650 -0.000000
v 3.448575 0.152511 20.888233
vn -0.984808 -0.173647 0.000000
v 3.455028 0.115913 20.877405
vn -0.984808 -0.173647 0.000000
v 4.025646 0.114569 19.919935
vn 0.984808 -0.173645 0.000000
v 4.032336 0.152511 19.908710
vn 0.984808 -0.173645 0.000000
v 4.032336 0.152511 18.841955
vn 0.984808 -0.173645 0.000000
v 4.025646 0.114569 19.919935
vn 0.984808 -0.173647 -0.000000
v 4.032336 0.152511 18.841955
vn 0.984808 -0.173647 -0.000000
v 4.015130 0.054931 19.937580
vn 0.984808 -0.173645 -0.000000
v 4.025646 0.114569 19.919935
vn 0.984808 -0.173645 -0.000000
v 4.015130 0.054931 19.937580
vn 0.866025 -0.500000 0.000713
v 3.964049 -0.035106 20.023293
vn 0.866024 -0.500002 0.000000
v 3.983197 -0.001941 19.991163
vn 0.866024 -0.500002 0.000000
v 4.015130 0.054931 19.937580
vn 0.871794 -0.489873 -0.000388
v 3.983197 -0.001941 19.991163
vn 0.871794 -0.489873 -0.000388
v 3.456630 0.198192 20.874718
vn -0.984808 0.173647 -0.000000
v 3.448575 0.152511 20.888233
vn -0.984808 0.173647 -0.000000
v 3.456630 0.198192 20.874718
vn -0.984808 0.173647 -0.000000
v 3.456630 0.198192 20.874718
vn -0.984808 0.173648 0.000000
v 3.466178 0.252340 20.858696
vn -0.984808 0.173648 0.000000
v 4.025661 0.190365 19.919910
vn 0.984807 0.173653 0.000000
v 4.014733 0.252340 19.938246
vn 0.984807 0.173653 0.000000
v 4.025661 0.190365 19.919910
vn 0.984808 0.173647 -0.000000
v 4.032336 0.152511 19.908710
vn 0.984810 0.173636 0.000000
v 4.030924 0.160516 19.911079
vn 0.984810 0.173636 0.000000
v 4.025661 0.190365 19.919910
vn 0.984810 0.173638 -0.000000
v 4.030924 0.160516 19.911079
vn 0.984810 0.173638 -0.000000
v 3.594515 0.405286 20.643353
vn -0.642788 0.766044 0.000000
v 3.516862 0.340128 20.773651
vn -0.642788 0.766044 0.000000
v 3.594515 0.405286 20.643353
vn -0.642788 0.766044 -0.000000
v 3.471553 0.261650 20.849676
vn -0.866018 0.500014 0.000000
v 3.466178 0.252340 20.858696
vn -0.866018 0.500014 0.000000
v 3.492472 0.297882 20.814577
vn -0.866026 0.499998 0.000000
v 3.471553 0.261650 20.849676
vn -0.866026 0.499998 0.000000
v 3.516862 0.340128 20.773651
vn -0.866027 0.499998 0.000000
v 3.492472 0.297882 20.814577
vn -0.866027 0.499998 0.000000
v 3.516862 0.340128 20.773651
vn -0.866026 0.500000 0.000000
v 3.479983 0.028770 20.835531
vn -0.866025 -0.500000 -0.000000
v 3.516862 -0.035106 20.773651
vn -0.866025 -0.500000 -0.000000
v 3.479983 0.028770 20.835531
vn -0.866026 -0.500000 -0.000000
v 3.466178 0.052682 20.858696
vn -0.866027 -0.499998 -0.000000
v 3.479983 0.028770 20.835531
vn -0.866027 -0.499998 -0.000000
v 3.530221 -0.046316 20.751234
vn -0.642787 -0.766045 0.000000
v 3.594516 -0.100265 20.643353
vn -0.642787 -0.766045 0.000000
v 3.530221 -0.046316 20.751234
vn -0.642787 -0.766045 -0.000000
v 3.516862 -0.035106 20.773651
vn -0.642789 -0.766043 -0.000000
v 3.530221 -0.046316 20.751234
vn -0.642789 -0.766043 -0.000000
v 3.964049 -0.035106 20.023293
vn 0.642789 -0.766043 0.000000
v 3.939590 -0.055629 20.064333
vn 0.642788 -0.766044 0.000000
v 3.964049 -0.035106 20.023293
vn 0.642788 -0.766044 0.000000
v 3.939590 -0.055629 20.064333
vn 0.642790 -0.766043 0.000000
v 3.886396 -0.100265 20.153591
vn 0.642790 -0.766043 0.000000
v 3.594516 -0.100265 20.643353
vn -0.342020 -0.939693 0.000000
v 3.689771 -0.134935 20.483517
vn -0.342020 -0.939693 0.000000
v 3.689771 -0.134935 20.483517
vn -0.342020 -0.939693 -0.000000
v 3.689771 -0.134935 20.483517
vn 0.000000 -1.000000 -0.000000
v 3.689771 -0.134935 20.483517
vn -0.000000 -1.000000 -0.000000
v 3.791140 -0.134935 20.313425
vn -0.000000 -1.000000 -0.000000
v 3.791140 -0.134935 20.313425
vn 0.342020 -0.939693 -0.000000
v 3.791140 -0.134935 20.313425
vn 0.342020 -0.939693 0.000000
v 3.886396 -0.100265 20.153591
vn 0.342020 -0.939693 0.000000
vt 1.000000 0.000000
vt 0.442309 -0.090504
vt 0.000000 1.000000
f 211/661/211 212/662/212 213/663/213
vt 0.000000 1.000000
vt 1.000000 1.000000
vt 1.000000 0.000000
f 213/664/213 214/665/214 211/666/211
vt 1.000000 0.000000
vt -0.000000 0.000000
vt 0.000000 1.000000
f 215/667/215 216/668/216 217/669/217
vt 0.000000 1.000000
vt 1.000000 1.000000
vt 1.000000 0.000000
f 218/670/218 219/671/219 215/672/215
vt 1.000000 0.000000
vt 0.433524 -0.000294
vt 0.000000 1.000000
f 220/673/220 221/674/221 222/675/222
vt 0.000000 1.000000
vt 1.000000 1.000000
vt 1.000000 0.000000
f 223/676/223 224/677/224 220/678/220
vt 1.000000 0.000000
vt 0.000000 0.000000
vt 0.000000 1.000000
f 225/679/225 226/680/226 227/681/227
vt 0.000000 1.000000
vt 1.000000 0.500006
vt 1.000000 0.000000
f 228/682/228 229/683/229 225/684/225
vt 1.000000 0.000000
vt -0.000000 0.000000
vt 0.000000 1.000000
f 230/685/230 231/686/231 232/687/232
vt 0.000000 1.000000
vt 1.000000 1.000000
vt 1.000000 0.000000
f 233/688/233 234/689/234 230/690/230
vt 1.000000 0.000000
vt 0.432894 0.001454
vt 0.000000 1.000000
f 235/691/235 236/692/236 237/693/237
vt 0.000000 1.000000
vt 1.000000 1.000000
vt 1.000000 0.000000
f 238/694/238 239/695/239 235/696/235
vt 1.000000 0.000000
vt 0.000000 0.000000
vt 0.000000 1.000000
f 240/697/240 241/698/241 242/699/242
vt 0.000000 1.000000
vt 0.644882 0.506435
vt 1.000000 0.000000
f 243/700/243 244/701/244 240/702/240
vt 1.000000 0.000000
vt 0.000000 0.000000
vt 0.000000 1.000000
f 245/703/245 246/704/246 247/705/247
vt 0.000000 1.000000
vt 1.000000 0.833333
vt 1.000000 0.000000
f 248/706/248 249/707/249 245/708/245
vt 1.000000 0.000000
vt 0.000000 0.000000
vt 0.000000 1.000000
f 250/709/250 251/710/251 252/711/252
vt 0.000000 1.000000
vt 1.328785 0.190883
vt 1.000000 0.000000
f 253/712/253 254/713/254 250/714/250
vt 1.000000 0.000000
vt 0.000000 0.000000
vt 0.000000 1.000000
f 255/715/255 256/716/256 213/717/213
vt 0.000000 1.000000
vt 1.090505 0.557691
vt 1.000000 0.000000
f 213/718/213 257/719/257 255/720/255
vt 1.000000 0.000000
vt 0.000000 0.000000
vt 0.000000 1.000000
f 258/721/258 259/722/259 260/723/260
vt 0.000000 1.000000
vt 1.000294 0.566476
vt 1.000000 0.000000
f 260/724/260 261/725/261 258/726/258
vt 1.000000 0.000000
vt 0.499994 0.000000
vt 0.000000 1.000000
f 262/727/262 263/728/263 264/729/264
vt 0.000000 1.000000
vt 1.000000 1.000000
vt 1.000000 0.000000
f 265/730/265 266/731/266 262/732/262
vt 1.000000 0.000000
vt 0.000000 0.000000
vt 0.000000 1.000000
f 267/733/267 268/734/268 269/735/269
vt 0.000000 1.000000
vt 0.998546 0.567106
vt 1.000000 0.000000
f 270/736/270 271/737/271 267/738/267
vt 1.000000 0.000000
vt 0.493565 0.355118
vt 0.000000 1.000000
f 272/739/272 273/740/273 274/741/274
vt 0.000000 1.000000
vt 1.000000 1.000000
vt 1.000000 0.000000
f 275/742/275 276/743/276 272/744/272
vt 1.000000 0.000000
vt 0.166667 -0.000000
vt 0.000000 1.000000
f 277/745/277 278/746/278 279/747/279
vt 0.000000 1.000000
vt 1.000000 1.000000
vt 1.000000 0.000000
f 280/748/280 281/749/281 277/750/277
vt 1.000000 0.000000
vt 0.809117 -0.328785
vt 0.000000 1.000000
f 282/751/282 283/752/283 284/753/284
vt 0.000000 1.000000
vt 1.000000 1.000000
vt 1.000000 0.000000
f 285/754/285 286/755/286 282/756/282
vt 0.000000 1.000000
vt 1.000000 1.000000
vt 1.000000 0.000000
f 213/757/213 287/758/287 288/759/288
vt 1.000000 0.000000
vt 0.000000 0.000000
vt 0.000000 1.000000
f 289/760/289 290/761/290 291/762/291
vt 0.000000 1.000000
vt 1.000000 1.000000
vt 1.000000 0.000000
f 292/763/292 293/764/293 289/765/289
vt 1.000000 0.000000
vt 0.000000 0.000000
vt 0.000000 1.000000
f 294/766/294 295/767/295 296/768/296
vt 0.000000 1.000000
vt 0.956434 0.165841
vt 1.000000 0.000000
f 297/769/297 298/770/298 294/771/294
vt 0.000000 1.000000
vt 1.000000 1.000000
vt 1.000000 0.000000
f 213/772/213 299/773/299 300/774/300
vt 1.000000 0.000000
vt -0.000000 0.000000
vt 0.000000 1.000000
f 301/775/301 302/776/302 303/777/303
vt 0.000000 1.000000
vt 1.000000 1.000000
vt 1.000000 0.000000
f 304/778/304 305/779/305 301/780/301
vt 1.000000 0.000000
vt 0.000000 0.000000
vt 0.000000 1.000000
f 306/781/306 307/782/307 308/783/308
vt 0.000000 1.000000
vt 1.000000 0.370246
vt 1.000000 0.000000
f 309/784/309 310/785/310 306/786/306
vt 1.000000 0.000000
vt 0.000000 0.000000
vt 0.000000 1.000000
f 311/787/311 312/788/312 313/789/313
vt 0.000000 1.000000
vt 1.000000 1.000000
vt 1.000000 0.000000
f 260/790/260 314/791/314 300/792/300
vt 1.000000 0.000000
vt 0.000000 0.000000
vt 0.000000 1.000000
f 300/793/300 315/794/315 260/795/260
vt 0.000000 1.000000
vt 1.000000 1.000000
vt 1.000000 0.000000
f 316/796/316 317/797/317 301/798/301
vt 1.000000 0.000000
vt -0.040287 0.875215
vt 0.000000 1.000000
f 301/799/301 318/800/318 319/801/319
vt 1.000000 0.000000
vt 0.000000 0.006536
vt 0.000000 1.000000
f 320/802/320 321/803/321 322/804/322
vt 0.000000 1.000000
vt 1.000000 1.000000
vt 1.000000 0.000000
f 323/805/323 324/806/324 320/807/320
vt 1.000000 0.000000
vt 0.000000 0.000000
vt 0.000000 1.000000
f 325/808/325 326/809/326 327/810/327
vt 0.000000 1.000000
vt 1.000000 0.968153
vt 1.000000 0.000000
f 328/811/328 329/812/329 325/813/325
vt 1.000000 0.000000
vt -0.000000 0.610323
vt 0.000000 1.000000
f 330/814/330 331/815/331 332/816/332
vt 0.000000 1.000000
vt 1.000000 1.000000
vt 1.000000 0.000000
f 333/817/333 334/818/334 330/819/330
vt 1.000000 0.000000
vt -0.000000 0.006536
vt 0.000000 1.000000
f 335/820/335 336/821/336 337/822/337
vt 0.000000 1.000000
vt 1.000000 1.000000
vt 1.000000 0.000000
f 338/823/338 339/824/339 335/825/335
vt 1.000000 0.000000
vt 0.000000 0.000000
vt 0.000000 1.000000
f 340/826/340 341/827/341 342/828/342
vt 0.000000 1.000000
vt 1.000000 0.968153
vt 1.000000 0.000000
f 343/829/343 344/830/344 340/831/340
vt 1.000000 0.000000
vt 0.000000 0.610322
vt 0.000000 1.000000
f 345/832/345 346/833/346 347/834/347
vt 0.000000 1.000000
vt 1.000000 1.000000
vt 1.000000 0.000000
f 348/835/348 349/836/349 345/837/345
vt 0.000000 1.000000
vt 1.000000 0.993464
vt 1.000000 0.000000
f 350/838/350 351/839/351 306/840/306
vt 1.000000 0.000000
vt 0.000000 0.000000
vt 0.000000 1.000000
f 306/841/306 352/842/352 353/843/353
vt 0.000000 1.000000
vt 1.000000 1.000000
vt 1.000000 0.000000
f 354/844/354 355/845/355 335/846/335
vt 1.000000 0.000000
vt -0.000000 0.031848
vt 0.000000 1.000000
f 335/847/335 356/848/356 357/849/357
vt 0.000000 1.000000
vt 1.000000 0.389677
vt 1.000000 0.000000
f 358/850/358 359/851/359 340/852/340
vt 1.000000 0.000000
vt 0.000000 0.000000
vt 0.000000 1.000000
f 340/853/340 360/854/360 361/855/361
vt 1.000000 0.000000
vt 0.000000 0.000000
vt 0.000000 1.000000
f 362/856/362 363/857/363 364/858/364
vt 0.000000 1.000000
vt 1.000000 0.900000
vt 1.000000 0.000000
f 365/859/365 366/860/366 362/861/362
vt 1.000000 0.000000
vt 0.000000 0.000000
vt 0.000000 1.000000
f 367/862/367 368/863/368 369/864/369
vt 0.000000 1.000000
vt 0.909836 1.000000
vt 1.000000 0.000000
f 369/865/369 370/866/370 367/867/367
vt 1.000000 0.000000
vt 0.000000 0.000000
vt 0.000000 1.000000
f 371/868/371 372/869/372 373/870/373
vt 1.000000 0.000000
vt 0.000000 0.000000
vt 0.000000 1.000000
f 374/871/374 375/872/375 376/873/376
vt 0.000000 1.000000
vt 1.000000 0.900000
vt 1.000000 0.000000
f 377/874/377 378/875/378 374/876/374
vt 1.000000 0.000000
vt 0.000000 0.000000
vt 0.000000 1.000000
f 379/877/379 380/878/380 381/879/381
vt 0.000000 1.000000
vt 1.000000 1.000000
vt 1.000000 0.000000
f 382/880/382 383/881/383 379/882/379
vt 0.000000 1.000000
vt 1.000000 1.000000
vt 1.000000 0.000000
f 384/883/384 385/884/385 345/885/345
vt 1.000000 0.000000
vt -0.000000 0.100000
vt 0.000000 1.000000
f 345/886/345 386/887/386 387/888/387
vt 0.000000 1.000000
vt 0.542829 1.000000
vt 1.000000 0.000000
f 388/889/388 389/890/389 390/891/390
vt 1.000000 0.000000
vt 0.000000 0.000000
vt 0.000000 1.000000
f 391/892/391 392/893/392 388/894/388
vt 1.000000 0.000000
vt 0.506849 0.000000
vt 0.000000 1.000000
f 393/895/393 394/896/394 395/897/395
vt 0.000000 1.000000
vt 1.000000 1.000000
vt 1.000000 0.000000
f 396/898/396 397/899/397 398/900/398
vt 1.000000 0.000000
vt 0.705775 0.000000
vt 0.000000 1.000000
f 399/901/399 400/902/400 401/903/401
vt 0.000000 1.000000
vt 1.000000 1.000000
vt 1.000000 0.000000
f 402/904/402 403/905/403 404/906/404
vt 1.000000 0.000000
vt 0.679029 -0.089298
vt 0.000000 1.000000
f 405/907/405 406/908/406 407/909/407
vt 0.000000 1.000000
vt 1.000000 1.000000
vt 1.000000 0.000000
f 408/910/408 409/911/409 410/912/410
vt 1.000000 0.000000
vt 0.623612 0.083064
vt 0.000000 1.000000
f 367/913/367 411/914/411 412/915/412
vt 0.000000 1.000000
vt 1.000000 1.000000
vt 1.000000 0.000000
f 413/916/413 414/917/414 367/918/367
vt 1.000000 0.000000
vt 0.457979 0.000000
vt 0.000000 1.000000
f 415/919/415 416/920/416 417/921/417
vt 0.000000 1.000000
vt 1.000000 1.000000
vt 1.000000 0.000000
f 418/922/418 419/923/419 420/924/420
vt 1.000000 0.000000
vt 0.457979 0.000000
vt 0.000000 1.000000
f 379/925/379 421/926/421 422/927/422
vt 0.000000 1.000000
vt 1.000000 1.000000
vt 1.000000 0.000000
f 423/928/423 424/929/424 379/930/379
vt 1.000000 0.000000
vt 0.564976 -0.173000
vt 0.000000 1.000000
f 425/931/425 426/932/426 427/933/427
vt 0.000000 1.000000
vt 1.000000 1.000000
vt 1.000000 0.000000
f 428/934/428 429/935/429 430/936/430
vt 1.000000 0.000000
vt 0.479720 0.149800
vt 0.000000 1.000000
f 431/937/431 432/938/432 433/939/433
vt 0.000000 1.000000
vt 1.000000 1.000000
vt 1.000000 0.000000
f 434/940/434 435/941/435 436/942/436
vt 1.000000 0.000000
vt 0.000000 0.098376
vt 0.000000 1.000000
f 437/943/437 438/944/438 439/945/439
vt 0.000000 1.000000
vt 1.000000 1.000000
vt 1.000000 0.000000
f 440/946/440 441/947/441 437/948/437
vt 1.000000 0.000000
vt 0.725674 0.000000
vt 0.000000 1.000000
f 442/949/442 443/950/443 444/951/444
vt 0.000000 1.000000
vt 1.000000 1.000000
vt 1.000000 0.000000
f 445/952/445 446/953/446 442/954/442
vt 1.000000 0.000000
vt 0.000000 0.000000
vt 0.000000 1.000000
f 447/955/447 448/956/448 260/957/260
vt 0.000000 1.000000
vt 0.988536 0.901031
vt 1.000000 0.000000
f 260/958/260 449/959/449 450/960/450
vt 1.000000 0.000000
vt 0.000000 0.453920
vt 0.000000 1.000000
f 451/961/451 452/962/452 453/963/453
vt 0.000000 1.000000
vt 1.000000 1.000000
vt 1.000000 0.000000
f 454/964/454 455/965/455 456/966/456
vt 1.000000 0.000000
vt 0.000000 0.000000
vt 0.000000 1.000000
f 457/967/457 458/968/458 459/969/459
vt 0.000000 1.000000
vt 0.967048 0.561038
vt 1.000000 0.000000
f 460/970/460 461/971/461 462/972/462
vt 0.000000 1.000000
vt 1.000000 1.000000
vt 1.000000 0.000000
f 463/973/463 464/974/464 465/975/465
vt 0.000000 1.000000
vt 1.000000 1.000000
vt 1.000000 0.000000
f 466/976/466 467/977/467 468/978/468
vt 1.000000 0.000000
vt 0.000000 0.000000
vt 0.000000 1.000000
f 469/979/469 470/980/470 471/981/471
vt 0.000000 1.000000
vt 1.000000 1.000000
vt 1.000000 0.000000
f 472/982/472 473/983/473 468/984/468
vt 1.329656 2.115713
vt 0.867871 2.503196
vt 0.301409 2.709372
f 474/985/474 475/986/475 476/987/476
vt 0.301409 2.709372
vt -0.301408 2.709372
vt -0.867871 2.503197
f 476/988/476 477/989/477 478/990/478
vt -0.867871 2.503197
vt -1.329655 2.115714
vt -1.631064 1.593659
f 478/991/478 479/992/479 480/993/480
vt 0.301409 2.709372
vt -0.867871 2.503197
vt -1.631064 1.593659
f 476/994/476 478/995/478 480/996/480
vt -1.631064 1.593659
vt -1.735742 1.000000
vt -1.631064 0.406342
f 480/997/480 481/998/481 482/999/482
vt -1.631064 0.406342
vt -1.329656 -0.115713
vt -0.867871 -0.503197
f 482/1000/482 483/1001/483 484/1002/484
vt -1.631064 1.593659
vt -1.631064 0.406342
vt -0.867871 -0.503197
f 480/1003/480 482/1004/482 484/1005/484
vt -0.867871 -0.503197
vt -0.301409 -0.709372
vt 0.301408 -0.709372
f 484/1006/484 485/1007/485 486/1008/486
vt 0.301408 -0.709372
vt 0.867871 -0.503197
vt 1.329655 -0.115713
f 486/1009/486 487/1010/487 488/1011/488
vt -0.867871 -0.503197
vt 0.301408 -0.709372
vt 1.329655 -0.115713
f 484/1012/484 486/1013/486 488/1014/488
vt -1.631064 1.593659
vt -0.867871 -0.503197
vt 1.329655 -0.115713
f 480/1015/480 484/1016/484 488/1017/488
vt 0.301409 2.709372
vt -1.631064 1.593659
vt 1.329655 -0.115713
f 476/1018/476 480/1019/480 488/1020/488
vt 1.329655 -0.115713
vt 1.631064 0.406341
vt 1.735742 1.000000
f 488/1021/488 489/1022/489 490/1023/490
vt 0.301409 2.709372
vt 1.329655 -0.115713
vt 1.735742 1.000000
f 476/1024/476 488/1025/488 490/1026/490
vt 1.329656 2.115713
vt 0.301409 2.709372
vt 1.735742 1.000000
f 474/1027/474 476/1028/476 490/1029/490
vt 1.631064 1.593658
vt 1.329656 2.115713
vt 1.735742 1.000000
f 491/1030/491 474/1031/474 490/1032/490
vt 1.631064 0.406341
vt 1.631064 0.406341
vt 1.329655 -0.115713
f 492/1033/492 489/1034/489 488/1035/488
vt 1.329655 -0.115713
vt 1.329655 -0.115713
vt 1.631064 0.406341
f 488/1036/488 493/1037/493 492/1038/492
vt 1.735742 1.000000
vt 1.735742 1.000000
vt 1.631064 0.406341
f 494/1039/494 490/1040/490 489/1041/489
vt 1.631064 0.406341
vt 1.631064 0.406341
vt 1.735742 1.000000
f 489/1042/489 492/1043/492 494/1044/494
vt 0.867871 -0.503197
vt 0.867871 -0.503197
vt 0.301408 -0.709372
f 495/1045/495 487/1046/487 486/1047/486
vt 0.301408 -0.709372
vt 0.301408 -0.709372
vt 0.867871 -0.503197
f 486/1048/486 496/1049/496 495/1050/495
vt 1.329655 -0.115713
vt 1.329655 -0.115713
vt 0.867871 -0.503197
f 493/1051/493 488/1052/488 487/1053/487
vt 0.867871 -0.503197
vt 0.867871 -0.503197
vt 1.329655 -0.115713
f 487/1054/487 495/1055/495 493/1056/493
vt -0.301409 -0.709372
vt -0.301409 -0.709372
vt -0.867871 -0.503197
f 497/1057/497 485/1058/485 484/1059/484
vt -0.867871 -0.503197
vt -0.867871 -0.503197
vt -0.301409 -0.709372
f 484/1060/484 498/1061/498 497/1062/497
vt 0.301408 -0.709372
vt 0.301408 -0.709372
vt -0.301409 -0.709372
f 496/1063/496 486/1064/486 485/1065/485
vt -0.301409 -0.709372
vt -0.301409 -0.709372
vt 0.301408 -0.709372
f 485/1066/485 497/1067/497 496/1068/496
vt -1.329656 -0.115713
vt -1.329656 -0.115713
vt -1.631064 0.406342
f 499/1069/499 483/1070/483 482/1071/482
vt -1.631064 0.406342
vt -1.631064 0.406342
vt -1.329656 -0.115713
f 482/1072/482 500/1073/500 499/1074/499
vt -0.867871 -0.503197
vt -0.867871 -0.503197
vt -1.329656 -0.115713
f 498/1075/498 484/1076/484 483/1077/483
vt -1.329656 -0.115713
vt -1.329656 -0.115713
vt -0.867871 -0.503197
f 483/1078/483 499/1079/499 498/1080/498
vt -1.735742 1.000000
vt -1.631064 1.593659
vt -1.631064 1.593659
f 481/1081/481 480/1082/480 501/1083/501
vt -1.631064 1.593659
vt -1.735742 1.000000
vt -1.735742 1.000000
f 501/1084/501 502/1085/502 481/1086/481
vt -1.631064 0.406342
vt -1.631064 0.406342
vt -1.735742 1.000000
f 500/1087/500 482/1088/482 481/1089/481
vt -1.735742 1.000000
vt -1.735742 1.000000
vt -1.631064 0.406342
f 481/1090/481 502/1091/502 500/1092/500
vt -1.329655 2.115714
vt -0.867871 2.503197
vt -0.867871 2.503197
f 479/1093/479 478/1094/478 503/1095/503
vt -0.867871 2.503197
vt -1.329655 2.115714
vt -1.329655 2.115714
f 503/1096/503 504/1097/504 479/1098/479
vt -1.631064 1.593659
vt -1.329655 2.115714
vt -1.329655 2.115714
f 480/1099/480 479/1100/479 504/1101/504
vt -1.329655 2.115714
vt -1.631064 1.593659
vt -1.631064 1.593659
f 504/1102/504 501/1103/501 480/1104/480
vt -0.301408 2.709372
vt 0.301409 2.709372
vt 0.301409 2.709372
f 477/1105/477 476/1106/476 505/1107/505
vt 0.301409 2.709372
vt -0.301408 2.709372
vt -0.301408 2.709372
f 505/1108/505 506/1109/506 477/1110/477
vt -0.867871 2.503197
vt -0.301408 2.709372
vt -0.301408 2.709372
f 478/1111/478 477/1112/477 506/1113/506
vt -0.301408 2.709372
vt -0.867871 2.503197
vt -0.867871 2.503197
f 506/1114/506 503/1115/503 478/1116/478
vt 0.867871 2.503196
vt 1.329656 2.115713
vt 1.329656 2.115713
f 475/1117/475 474/1118/474 507/1119/507
vt 1.329656 2.115713
vt 0.867871 2.503196
vt 0.867871 2.503196
f 507/1120/507 508/1121/508 475/1122/475
vt 0.301409 2.709372
vt 0.867871 2.503196
vt 0.867871 2.503196
f 476/1123/476 475/1124/475 508/1125/508
vt 0.867871 2.503196
vt 0.301409 2.709372
vt 0.301409 2.709372
f 508/1126/508 505/1127/505 476/1128/476
vt 1.631064 1.593658
vt 1.735742 1.000000
vt 1.735742 1.000000
f 491/1129/491 490/1130/490 494/1131/494
vt 1.735742 1.000000
vt 1.631064 1.593658
vt 1.631064 1.593658
f 494/1132/494 509/1133/509 491/1134/491
vt 1.329656 2.115713
vt 1.631064 1.593658
vt 1.631064 1.593658
f 474/1135/474 491/1136/491 509/1137/509
vt 1.631064 1.593658
vt 1.329656 2.115713
vt 1.329656 2.115713
f 509/1138/509 507/1139/507 474/1140/474
vt 1.000000 0.000000
vt 0.546394 0.000000
vt 0.559313 0.032550
f 510/1141/510 511/1142/511 512/1143/512
vt 0.559313 0.032550
vt 0.562761 0.064911
vt 1.000000 0.000000
f 512/1144/512 513/1145/513 514/1146/514
vt 0.267013 0.288507
vt 0.390616 0.239856
vt 0.386261 0.228883
f 515/1147/515 516/1148/516 517/1149/517
vt 0.267013 0.288507
vt 0.386261 0.228883
vt 0.382743 0.195866
f 518/1150/518 517/1151/517 519/1152/519
vt 0.267013 0.288507
vt 0.382743 0.195866
vt 0.272566 0.230827
f 520/1153/520 519/1154/519 521/1155/521
vt 0.251024 0.344783
vt 0.406464 0.273227
vt 0.402250 0.269169
f 522/1156/522 523/1157/523 524/1158/524
vt 0.267013 0.288507
vt 0.251024 0.344783
vt 0.402250 0.269169
f 525/1159/525 526/1160/526 524/1161/524
vt 0.267013 0.288507
vt 0.402250 0.269169
vt 0.390616 0.239856
f 527/1162/527 524/1163/524 516/1164/516
vt 0.226527 0.392867
vt 0.196476 0.426959
vt 0.000000 1.000000
f 528/1165/528 529/1166/529 530/1167/530
vt 0.196476 0.426959
vt 0.164497 0.442949
vt 0.000000 1.000000
f 531/1168/531 532/1169/532 533/1170/533
vt 0.164497 0.442949
vt 0.134447 0.438906
vt 0.000000 1.000000
f 534/1171/534 535/1172/535 536/1173/536
vt 0.134447 0.438906
vt 0.109950 0.415319
vt 0.000000 1.000000
f 537/1174/537 538/1175/538 539/1176/539
vt 0.109950 0.415319
vt 0.093960 0.375033
vt 0.000000 1.000000
f 540/1177/540 541/1178/541 542/1179/542
vt 0.093960 0.375033
vt 0.088407 0.322906
vt 0.000000 0.000000
f 543/1180/543 544/1181/544 545/1182/545
vt 0.000000 0.000000
vt 0.000000 1.000000
vt 0.093960 0.375033
f 546/1183/546 547/1184/547 548/1185/548
vt 0.088407 0.322906
vt 0.093960 0.265226
vt 0.000000 0.000000
f 549/1186/549 550/1187/550 551/1188/551
vt 0.093960 0.265226
vt 0.109950 0.208951
vt 0.000000 0.000000
f 552/1189/552 553/1190/553 554/1191/554
vt 0.109950 0.208951
vt 0.134447 0.160867
vt 0.000000 0.000000
f 555/1192/555 556/1193/556 557/1194/557
vt 0.134447 0.160867
vt 0.164497 0.126774
vt 0.000000 0.000000
f 558/1195/558 559/1196/559 560/1197/560
vt 0.164497 0.126774
vt 0.196476 0.110785
vt 0.000000 0.000000
f 561/1198/561 562/1199/562 563/1200/563
vt 0.564421 0.080497
vt 1.000000 0.000000
vt 0.562761 0.064911
f 564/1201/564 565/1202/565 513/1203/513
vt 0.559564 0.139758
vt 0.549615 0.174765
vt 1.000000 0.000000
f 566/1204/566 567/1205/567 568/1206/568
vt 0.562756 0.106599
vt 0.559564 0.139758
vt 1.000000 0.000000
f 569/1207/569 566/1208/566 570/1209/570
vt 0.564866 0.084677
vt 0.562756 0.106599
vt 1.000000 0.000000
f 571/1210/571 569/1211/569 572/1212/572
vt 0.564866 0.084677
vt 1.000000 0.000000
vt 0.564421 0.080497
f 571/1213/571 573/1214/573 564/1215/564
vt 1.000000 0.000000
vt 0.549365 0.177372
vt 0.543324 0.198632
f 574/1216/574 575/1217/575 576/1218/576
vt 0.543324 0.198632
vt 0.535608 0.213777
vt 1.000000 0.000000
f 576/1219/576 577/1220/577 578/1221/578
vt 0.406464 0.273227
vt 0.251024 0.344783
vt 0.226527 0.392867
f 523/1222/523 579/1223/579 580/1224/580
vt 0.426747 0.292756
vt 0.406464 0.273227
vt 0.226527 0.392867
f 581/1225/581 523/1226/523 582/1227/582
vt 0.426747 0.292756
vt 0.226527 0.392867
vt 0.000000 1.000000
f 581/1228/581 583/1229/583 584/1230/584
vt 0.456798 0.296799
vt 0.426747 0.292756
vt 0.000000 1.000000
f 585/1231/585 581/1232/581 586/1233/586
vt 0.488776 0.280809
vt 0.456798 0.296799
vt 0.000000 1.000000
f 587/1234/587 585/1235/585 588/1236/588
vt 0.488776 0.280809
vt 0.000000 1.000000
vt 1.000000 0.000000
f 587/1237/587 589/1238/589 590/1239/590
vt 1.000000 0.000000
vt 0.535608 0.213777
vt 0.518827 0.246717
f 591/1240/591 577/1241/577 592/1242/592
vt 0.488776 0.280809
vt 1.000000 0.000000
vt 0.518827 0.246717
f 587/1243/587 593/1244/593 592/1245/592
vt 0.387956 0.113108
vt 0.251024 0.138414
vt 0.267013 0.178700
f 594/1246/594 595/1247/595 596/1248/596
vt 0.272566 0.230827
vt 0.382743 0.195866
vt 0.380708 0.176756
f 597/1249/597 519/1250/519 598/1251/598
vt 0.267013 0.178700
vt 0.272566 0.230827
vt 0.380708 0.176756
f 599/1252/599 600/1253/600 598/1254/598
vt 0.267013 0.178700
vt 0.380708 0.176756
vt 0.383249 0.150362
f 601/1255/601 598/1256/598 602/1257/602
vt 0.267013 0.178700
vt 0.383249 0.150362
vt 0.386261 0.119077
f 603/1258/603 602/1259/602 604/1260/604
vt 0.387956 0.113108
vt 0.267013 0.178700
vt 0.386261 0.119077
f 594/1261/594 605/1262/605 604/1263/604
vt 0.226527 0.114827
vt 0.394556 0.089882
vt 0.402250 0.062801
f 606/1264/606 607/1265/607 608/1266/608
vt 0.196476 0.110785
vt 0.226527 0.114827
vt 0.402250 0.062801
f 609/1267/609 610/1268/610 608/1269/608
vt 0.000000 0.000000
vt 0.196476 0.110785
vt 0.402250 0.062801
f 611/1270/611 612/1271/612 608/1272/608
vt 0.000000 0.000000
vt 0.402250 0.062801
vt 0.426747 0.014717
f 613/1273/613 608/1274/608 614/1275/614
vt 0.439719 0.000000
vt 0.000000 0.000000
vt 0.426747 0.014717
f 615/1276/615 616/1277/616 614/1278/614
vt 0.456676 0.551060
vt 0.453606 0.546394
vt 0.000000 1.000000
f 617/1279/617 618/1280/618 619/1281/619
vt 0.456676 0.551060
vt 0.000000 1.000000
vt 1.000000 1.000000
f 617/1282/617 620/1283/620 621/1284/621
vt 0.481173 0.550150
vt 0.456676 0.551060
vt 1.000000 1.000000
f 622/1285/622 617/1286/617 623/1287/623
vt 0.511224 0.524142
vt 0.481173 0.550150
vt 1.000000 1.000000
f 624/1288/624 622/1289/622 625/1290/625
vt 0.511224 0.524142
vt 1.000000 1.000000
vt 1.000000 0.000000
f 624/1291/624 626/1292/626 627/1293/627
vt 1.000000 0.000000
vt 0.560281 0.439719
vt 0.543202 0.476174
f 628/1294/628 629/1295/629 630/1296/630
vt 0.511224 0.524142
vt 1.000000 0.000000
vt 0.543202 0.476174
f 624/1297/624 631/1298/631 630/1299/630
vt 0.394556 0.089882
vt 0.226527 0.114827
vt 0.251024 0.138414
f 607/1300/607 632/1301/632 633/1302/633
vt 0.251024 0.138414
vt 0.387956 0.113108
vt 0.394556 0.089882
f 634/1303/634 594/1304/594 607/1305/607
vt 1.735742 1.000000
vt 1.631064 0.406341
vt 1.329655 -0.115713
f 635/1306/635 636/1307/636 637/1308/637
vt 1.329655 -0.115713
vt 0.867871 -0.503197
vt 0.301408 -0.709372
f 637/1309/637 638/1310/638 639/1311/639
vt 0.301408 -0.709372
vt -0.301409 -0.709372
vt -0.867871 -0.503197
f 639/1312/639 640/1313/640 641/1314/641
vt 1.329655 -0.115713
vt 0.301408 -0.709372
vt -0.867871 -0.503197
f 637/1315/637 639/1316/639 641/1317/641
vt -0.867871 -0.503197
vt -1.329656 -0.115713
vt -1.631064 0.406342
f 641/1318/641 642/1319/642 643/1320/643
vt -1.631064 0.406342
vt -1.735742 1.000000
vt -1.631064 1.593659
f 643/1321/643 644/1322/644 645/1323/645
vt -0.867871 -0.503197
vt -1.631064 0.406342
vt -1.631064 1.593659
f 641/1324/641 643/1325/643 645/1326/645
vt 1.329655 -0.115713
vt -0.867871 -0.503197
vt -1.631064 1.593659
f 637/1327/637 641/1328/641 645/1329/645
vt -1.631064 1.593659
vt -1.329655 2.115714
vt -0.867871 2.503197
f 645/1330/645 646/1331/646 647/1332/647
vt -0.867871 2.503197
vt -0.301408 2.709372
vt 0.301409 2.709372
f 647/1333/647 648/1334/648 649/1335/649
vt -1.631064 1.593659
vt -0.867871 2.503197
vt 0.301409 2.709372
f 645/1336/645 647/1337/647 649/1338/649
vt 1.329655 -0.115713
vt -1.631064 1.593659
vt 0.301409 2.709372
f 637/1339/637 645/1340/645 649/1341/649
vt 1.735742 1.000000
vt 1.329655 -0.115713
vt 0.301409 2.709372
f 635/1342/635 637/1343/637 649/1344/649
vt 0.301409 2.709372
vt 0.867871 2.503196
vt 1.329656 2.115713
f 649/1345/649 650/1346/650 651/1347/651
vt 1.735742 1.000000
vt 0.301409 2.709372
vt 1.329656 2.115713
f 635/1348/635 649/1349/649 651/1350/651
vt 1.631064 1.593658
vt 1.735742 1.000000
vt 1.329656 2.115713
f 652/1351/652 635/1352/635 651/1353/651
vt -1.387535 2.015464
vt -1.329655 2.115714
vt -1.329655 2.115714
f 653/1354/653 654/1355/654 646/1356/646
vt -1.387535 2.015464
vt -1.329655 2.115714
vt -1.631064 1.593659
f 655/1357/655 646/1358/646 645/1359/645
vt -1.387535 2.015464
vt -1.631064 1.593659
vt -1.631064 1.593659
f 656/1360/656 645/1361/645 657/1362/657
vt -0.867871 2.503197
vt -1.329655 2.115714
vt -1.329655 2.115714
f 647/1363/647 646/1364/646 658/1365/658
vt -1.329655 2.115714
vt -0.867871 2.503197
vt -0.867871 2.503197
f 659/1366/659 660/1367/660 647/1368/647
vt -0.301408 2.709372
vt -0.867871 2.503197
vt -0.867871 2.503197
f 648/1369/648 647/1370/647 661/1371/661
vt -0.867871 2.503197
vt -0.301408 2.709372
vt -0.301408 2.709372
f 662/1372/662 663/1373/663 648/1374/648
vt 0.301409 2.709372
vt -0.301408 2.709372
vt -0.301408 2.709372
f 649/1375/649 648/1376/648 664/1377/664
vt -0.301408 2.709372
vt 0.301409 2.709372
vt 0.301409 2.709372
f 665/1378/665 666/1379/666 649/1380/649
vt 0.623349 2.592195
vt 0.867871 2.503196
vt 0.867871 2.503196
f 667/1381/667 668/1382/668 650/1383/650
vt 0.301409 2.709372
vt 0.623349 2.592195
vt 0.867871 2.503196
f 669/1384/669 670/1385/670 650/1386/650
vt 0.301409 2.709372
vt 0.867871 2.503196
vt 0.301409 2.709372
f 671/1387/671 650/1388/650 649/1389/649
vt 1.697367 0.782365
vt 1.631064 0.406341
vt 1.631064 0.406341
f 672/1390/672 673/1391/673 636/1392/636
vt 1.697367 0.782365
vt 1.631064 0.406341
vt 1.735742 1.000000
f 674/1393/674 636/1394/636 635/1395/635
vt 1.735742 1.000000
vt 1.697367 0.782365
vt 1.735742 1.000000
f 675/1396/675 676/1397/676 635/1398/635
vt -1.800371 0.699589
vt -1.908082 0.886151
vt -1.914293 0.896908
f 677/1399/677 678/1400/678 679/1401/679
vt -1.800371 0.699589
vt -1.914293 0.896908
vt -1.631064 0.406342
f 680/1402/680 681/1403/681 643/1404/643
vt -1.631064 0.406342
vt -1.800371 0.699589
vt -1.631064 0.406342
f 682/1405/682 683/1406/683 643/1407/643
vt -1.631064 0.406342
vt -1.631064 0.406342
vt -1.329656 -0.115713
f 684/1408/684 643/1409/643 642/1410/642
vt -1.329656 -0.115713
vt -1.329656 -0.115713
vt -1.443524 0.081513
f 642/1411/642 685/1412/685 686/1413/686
vt -1.631064 0.406342
vt -1.329656 -0.115713
vt -1.443524 0.081513
f 687/1414/687 642/1415/642 688/1416/688
vt 1.687842 1.271655
vt 1.735742 1.000000
vt 1.735742 1.000000
f 689/1417/689 690/1418/690 635/1419/635
vt 1.687842 1.271655
vt 1.735742 1.000000
vt 1.631064 1.593658
f 691/1420/691 635/1421/635 652/1422/652
vt 1.687842 1.271655
vt 1.631064 1.593658
vt 1.631064 1.593658
f 692/1423/692 652/1424/652 693/1425/693
vt -1.696049 1.225110
vt -1.631064 1.593659
vt -1.631064 1.593659
f 694/1426/694 695/1427/695 645/1428/645
vt -1.696049 1.225110
vt -1.631064 1.593659
vt -1.735742 1.000000
f 696/1429/696 645/1430/645 644/1431/644
vt -1.735742 1.000000
vt -1.735742 1.000000
vt -1.727348 1.047605
f 644/1432/644 697/1433/697 698/1434/698
vt -1.696049 1.225110
vt -1.735742 1.000000
vt -1.727348 1.047605
f 699/1435/699 644/1436/644 700/1437/700
vt 0.867871 2.503196
vt 1.329656 2.115713
vt 1.329656 2.115713
f 701/1438/701 702/1439/702 651/1440/651
vt 1.329656 2.115713
vt 0.867871 2.503196
vt 0.867871 2.503196
f 651/1441/651 650/1442/650 703/1443/703
vt 1.599098 1.649025
vt 1.631064 1.593658
vt 1.631064 1.593658
f 704/1444/704 705/1445/705 652/1446/652
vt 1.474701 1.864487
vt 1.599098 1.649025
vt 1.631064 1.593658
f 706/1447/706 707/1448/707 652/1449/652
vt 1.329656 2.115713
vt 1.474701 1.864487
vt 1.631064 1.593658
f 708/1450/708 709/1451/709 652/1452/652
vt 1.329656 2.115713
vt 1.631064 1.593658
vt 1.329656 2.115713
f 710/1453/710 652/1454/652 651/1455/651
vt 1.548966 0.264143
vt 1.329655 -0.115713
vt 1.329655 -0.115713
f 711/1456/711 712/1457/712 637/1458/637
vt 1.548966 0.264143
vt 1.329655 -0.115713
vt 1.631064 0.406341
f 713/1459/713 637/1460/637 636/1461/636
vt 1.631064 0.406341
vt 1.548966 0.264143
vt 1.631064 0.406341
f 714/1462/714 715/1463/715 636/1464/636
vt 1.250211 -0.182375
vt 0.867871 -0.503197
vt 0.867871 -0.503197
f 716/1465/716 717/1466/717 638/1467/638
vt 1.250211 -0.182375
vt 0.867871 -0.503197
vt 1.329655 -0.115713
f 718/1468/718 638/1469/638 637/1470/637
vt 1.329655 -0.115713
vt 1.250211 -0.182375
vt 1.329655 -0.115713
f 719/1471/719 720/1472/720 637/1473/637
vt -1.329656 -0.115713
vt -1.329656 -0.115713
vt -0.867871 -0.503197
f 721/1474/721 642/1475/642 641/1476/641
vt -1.184208 -0.237759
vt -1.329656 -0.115713
vt -0.867871 -0.503197
f 722/1477/722 723/1478/723 641/1479/641
vt -1.184208 -0.237759
vt -0.867871 -0.503197
vt -0.867871 -0.503197
f 724/1480/724 641/1481/641 725/1482/725
vt 0.867871 -0.503197
vt 0.867871 -0.503197
vt 0.301408 -0.709372
f 638/1483/638 726/1484/726 727/1485/727
vt 0.301408 -0.709372
vt 0.301408 -0.709372
vt 0.867871 -0.503197
f 728/1486/728 639/1487/639 638/1488/638
vt -0.301409 -0.709372
vt 0.301408 -0.709372
vt 0.301408 -0.709372
f 640/1489/640 639/1490/639 729/1491/729
vt 0.301408 -0.709372
vt -0.301409 -0.709372
vt -0.301409 -0.709372
f 730/1492/730 731/1493/731 640/1494/640
vt -0.867871 -0.503197
vt -0.301409 -0.709372
vt -0.301409 -0.709372
f 641/1495/641 640/1496/640 732/1497/732
vt -0.301409 -0.709372
vt -0.867871 -0.503197
vt -0.867871 -0.503197
f 733/1498/733 734/1499/734 641/1500/641
