mtllib agesipolis.mtl
usemtl tex0_0
v 3.421052 2.500000 -19.000000
vn 0.000000 1.000000 0.000000
v 3.421052 2.500000 -27.500000
vn 0.000000 1.000000 0.000000
v 4.578948 2.500000 -27.500000
vn 0.000000 1.000000 0.000000
v 4.578948 2.500000 -19.000000
vn 0.000000 1.000000 0.000000
v 4.578948 2.500000 -19.000000
vn -0.985601 -0.169088 0.000000
v 4.578948 2.500000 -27.500000
vn -0.985601 -0.169088 0.000000
v 4.000000 5.874646 -20.711290
vn -0.985601 -0.169088 0.000000
v 4.000000 6.500000 -27.500000
vn -0.985601 -0.169088 0.000000
v 3.421052 2.500000 -27.500000
vn 0.989687 -0.143244 0.000000
v 3.421052 2.500000 -19.000000
vn 0.989687 -0.143244 0.000000
v 4.000000 6.500000 -27.500000
vn 0.989687 -0.143244 0.000000
v 4.000000 5.874646 -20.711290
vn 0.989687 -0.143244 0.000000
v 4.578948 2.500000 -27.500000
vn 0.000000 0.000000 1.000000
v 3.421052 2.500000 -27.500000
vn 0.000000 0.000000 1.000000
v 4.000000 6.500000 -27.500000
vn 0.000000 0.000000 1.000000
v 3.421052 2.500000 -19.000000
vn 0.000000 -0.452274 -0.891879
v 4.578948 2.500000 -19.000000
vn 0.000000 -0.452274 -0.891879
v 4.000000 5.874646 -20.711290
vn 0.000000 -0.452274 -0.891879
v -3.421052 2.500000 -19.000000
vn 0.000000 1.000000 0.000000
v -4.578948 2.500000 -27.500000
vn 0.000000 1.000000 0.000000
v -3.421052 2.500000 -27.500000
vn 0.000000 1.000000 0.000000
v -4.578948 2.500000 -19.000000
vn 0.000000 1.000000 0.000000
v -4.578948 2.500000 -19.000000
vn 0.985601 -0.169088 0.000000
v -4.000000 5.874646 -20.711290
vn 0.985601 -0.169088 0.000000
v -4.578948 2.500000 -27.500000
vn 0.985601 -0.169088 0.000000
v -4.000000 6.500000 -27.500000
vn 0.985601 -0.169088 0.000000
v -3.421052 2.500000 -27.500000
vn -0.989687 -0.143244 0.000000
v -4.000000 6.500000 -27.500000
vn -0.989687 -0.143244 0.000000
v -3.421052 2.500000 -19.000000
vn -0.989687 -0.143244 0.000000
v -4.000000 5.874646 -20.711290
vn -0.989687 -0.143244 0.000000
v -4.578948 2.500000 -27.500000
vn 0.000000 0.000000 1.000000
v -4.000000 6.500000 -27.500000
vn 0.000000 0.000000 1.000000
v -3.421052 2.500000 -27.500000
vn 0.000000 0.000000 1.000000
v -3.421052 2.500000 -19.000000
vn 0.000000 -0.452274 -0.891879
v -4.000000 5.874646 -20.711290
vn 0.000000 -0.452274 -0.891879
v -4.578948 2.500000 -19.000000
vn 0.000000 -0.452274 -0.891879
v -6.363888 -6.317738 -33.211094
vn 0.905692 -0.418796 -0.065822
v -3.051702 -0.225806 -26.396608
vn 0.905692 -0.418796 -0.065822
v -3.051702 0.616008 -31.752699
vn 0.905692 -0.418796 -0.065822
v -1.849547 -0.037862 -31.890230
vn -0.787155 0.597782 -0.151800
v -3.051702 -0.225806 -26.396608
vn -0.787155 0.597782 -0.151800
v -6.363888 -6.317738 -33.211094
vn -0.787155 0.597782 -0.151800
v -3.051702 -0.225806 -26.396608
vn -0.485326 -0.863730 -0.135752
v -1.849547 -0.037862 -31.890230
vn -0.485326 -0.863730 -0.135752
v -3.051702 0.616008 -31.752699
vn -0.485326 -0.863730 -0.135752
v -3.051702 0.616008 -31.752699
vn 0.000001 -0.205830 0.978588
v -1.849547 -0.037862 -31.890230
vn 0.000001 -0.205830 0.978588
v -6.363888 -6.317738 -33.211094
vn 0.000001 -0.205830 0.978588
v 6.363888 -6.317738 -33.211094
vn -0.905692 -0.418796 -0.065822
v 3.051702 0.616008 -31.752699
vn -0.905692 -0.418796 -0.065822
v 3.051702 -0.225806 -26.396608
vn -0.905692 -0.418796 -0.065822
v 1.849547 -0.037862 -31.890230
vn 0.787155 0.597782 -0.151800
v 6.363888 -6.317738 -33.211094
vn 0.787155 0.597782 -0.151800
v 3.051702 -0.225806 -26.396608
vn 0.787155 0.597782 -0.151800
v 3.051702 -0.225806 -26.396608
vn 0.485326 -0.863730 -0.135752
v 3.051702 0.616008 -31.752699
vn 0.485326 -0.863730 -0.135752
v 1.849547 -0.037862 -31.890230
vn 0.485326 -0.863730 -0.135752
v 3.051702 0.616008 -31.752699
vn -0.000001 -0.205830 0.978588
v 6.363888 -6.317738 -33.211094
vn -0.000001 -0.205830 0.978588
v 1.849547 -0.037862 -31.890230
vn -0.000001 -0.205830 0.978588
v 6.363888 6.317738 -33.211094
vn -0.905692 0.418796 -0.065822
v 3.051702 0.225806 -26.396608
vn -0.905692 0.418796 -0.065822
v 3.051702 -0.616008 -31.752699
vn -0.905692 0.418796 -0.065822
v 6.363888 6.317738 -33.211094
vn 0.787155 -0.597782 -0.151800
v 1.849547 0.037862 -31.890230
vn 0.787155 -0.597782 -0.151800
v 3.051702 0.225806 -26.396608
vn 0.787155 -0.597782 -0.151800
v 3.051702 0.225806 -26.396608
vn 0.485326 0.863730 -0.135752
v 1.849547 0.037862 -31.890230
vn 0.485326 0.863730 -0.135752
v 3.051702 -0.616008 -31.752699
vn 0.485326 0.863730 -0.135752
v 3.051702 -0.616008 -31.752699
vn -0.000001 0.205830 0.978588
v 1.849547 0.037862 -31.890230
vn -0.000001 0.205830 0.978588
v 6.363888 6.317738 -33.211094
vn -0.000001 0.205830 0.978588
v -6.363888 6.317738 -33.211094
vn 0.905692 0.418796 -0.065822
v -3.051702 -0.616008 -31.752699
vn 0.905692 0.418796 -0.065822
v -3.051702 0.225806 -26.396608
vn 0.905692 0.418796 -0.065822
v -6.363888 6.317738 -33.211094
vn -0.787155 -0.597782 -0.151800
v -3.051702 0.225806 -26.396608
vn -0.787155 -0.597782 -0.151800
v -1.849547 0.037862 -31.890230
vn -0.787155 -0.597782 -0.151800
v -3.051702 0.225806 -26.396608
vn -0.485326 0.863730 -0.135752
v -3.051702 -0.616008 -31.752699
vn -0.485326 0.863730 -0.135752
v -1.849547 0.037862 -31.890230
vn -0.485326 0.863730 -0.135752
v -3.051702 -0.616008 -31.752699
vn 0.000001 0.205830 0.978588
v -6.363888 6.317738 -33.211094
vn 0.000001 0.205830 0.978588
v -1.849547 0.037862 -31.890230
vn 0.000001 0.205830 0.978588
v 0.000000 0.882353 -31.246021
vn -0.176694 0.000000 0.984266
v 0.798029 -0.882353 -31.102760
vn -0.176694 0.000000 0.984266
v 0.000000 -0.882353 -31.246021
vn -0.176694 0.000000 0.984266
v 0.798029 0.882353 -31.102760
vn -0.176694 0.000000 0.984266
v 0.798029 0.882353 -31.102760
vn 0.694368 0.000000 0.719620
v 7.182266 -0.882353 -37.262966
vn 0.694368 0.000000 0.719620
v 0.798029 -0.882353 -31.102760
vn 0.694368 0.000000 0.719620
v 7.182266 0.882353 -37.262966
vn 0.694368 0.000000 0.719620
v 7.182266 0.882353 -37.262966
vn -0.890938 0.000000 0.454126
v 10.906404 -0.882353 -29.956675
vn -0.890938 0.000000 0.454126
v 7.182266 -0.882353 -37.262966
vn -0.890938 0.000000 0.454126
v 10.906404 0.882353 -29.956675
vn -0.890938 0.000000 0.454126
v 10.906404 0.882353 -29.956675
vn -0.374518 0.000000 -0.927220
v 5.586207 -0.882353 -27.807766
vn -0.374518 0.000000 -0.927220
v 10.906404 -0.882353 -29.956675
vn -0.374518 0.000000 -0.927220
v 5.586207 0.882353 -27.807766
vn -0.374518 0.000000 -0.927220
v 5.586207 0.882353 -27.807766
vn -0.881222 0.000000 0.472702
v 9.044335 0.882353 -21.361040
vn -0.881222 0.000000 0.472702
v 5.586207 -0.882353 -27.807766
vn -0.881222 0.000000 0.472702
v 9.044335 -0.882353 -21.361040
vn -0.881222 0.000000 0.472702
v 9.044335 0.882353 -21.361040
vn 0.474163 0.000000 -0.880437
v 6.384236 -0.882353 -22.793646
vn 0.474163 0.000000 -0.880437
v 9.044335 -0.882353 -21.361040
vn 0.474163 0.000000 -0.880437
v 6.384236 0.882353 -22.793646
vn 0.474163 0.000000 -0.880437
v 6.384236 0.882353 -22.793646
vn -0.474163 0.000000 -0.880437
v 0.000000 0.882353 -19.355392
vn -0.474163 0.000000 -0.880437
v 6.384236 -0.882353 -22.793646
vn -0.474163 0.000000 -0.880437
v 0.000000 -0.882353 -19.355392
vn -0.474163 0.000000 -0.880437
v 0.000000 0.882353 -19.355392
vn 0.474163 0.000000 -0.880437
v -6.384236 0.882353 -22.793646
vn 0.474163 0.000000 -0.880437
v 0.000000 -0.882353 -19.355392
vn 0.474163 0.000000 -0.880437
v -6.384236 -0.882353 -22.793646
vn 0.474163 0.000000 -0.880437
v -6.384236 0.882353 -22.793646
vn -0.474163 0.000000 -0.880437
v -9.044335 -0.882353 -21.361040
vn -0.474163 0.000000 -0.880437
v -6.384236 -0.882353 -22.793646
vn -0.474163 0.000000 -0.880437
v -9.044335 0.882353 -21.361040
vn -0.474163 0.000000 -0.880437
v -9.044335 0.882353 -21.361040
vn 0.881222 0.000000 0.472702
v -5.586207 0.882353 -27.807766
vn 0.881222 0.000000 0.472702
v -9.044335 -0.882353 -21.361040
vn 0.881222 0.000000 0.472702
v -5.586207 -0.882353 -27.807766
vn 0.881222 0.000000 0.472702
v -5.586207 0.882353 -27.807766
vn 0.374518 0.000000 -0.927220
v -10.906404 -0.882353 -29.956675
vn 0.374518 0.000000 -0.927220
v -5.586207 -0.882353 -27.807766
vn 0.374518 0.000000 -0.927220
v -10.906404 0.882353 -29.956675
vn 0.374518 0.000000 -0.927220
v -10.906404 0.882353 -29.956675
vn 0.890938 0.000000 0.454126
v -7.182266 -0.882353 -37.262966
vn 0.890938 0.000000 0.454126
v -10.906404 -0.882353 -29.956675
vn 0.890938 0.000000 0.454126
v -7.182266 0.882353 -37.262966
vn 0.890938 0.000000 0.454126
v -7.182266 0.882353 -37.262966
vn -0.694368 0.000000 0.719620
v -0.798029 -0.882353 -31.102760
vn -0.694368 0.000000 0.719620
v -7.182266 -0.882353 -37.262966
vn -0.694368 0.000000 0.719620
v -0.798029 0.882353 -31.102760
vn -0.694368 0.000000 0.719620
v 0.000000 -0.882353 -31.246021
vn 0.176694 0.000000 0.984266
v -0.798029 0.882353 -31.102760
vn 0.176694 0.000000 0.984266
v 0.000000 0.882353 -31.246021
vn 0.176694 0.000000 0.984266
v -0.798029 -0.882353 -31.102760
vn 0.176694 0.000000 0.984266
v 0.798029 -0.882353 -31.102760
vn 0.000000 1.000000 0.000000
v -0.798029 -0.882353 -31.102760
vn 0.000000 1.000000 0.000000
v 0.000000 -0.882353 -31.246021
vn 0.000000 1.000000 0.000000
v 7.182266 -0.882353 -37.262966
vn 0.000000 1.000000 0.000000
v 10.906404 -0.882353 -29.956675
vn 0.000000 1.000000 0.000000
v 5.586207 -0.882353 -27.807766
vn 0.000000 1.000000 0.000000
v 9.044335 -0.882353 -21.361040
vn 0.000000 1.000000 0.000000
v 6.384236 -0.882353 -22.793646
vn 0.000000 1.000000 0.000000
v 0.000000 -0.882353 -19.355392
vn 0.000000 1.000000 0.000000
v -6.384236 -0.882353 -22.793646
vn 0.000000 1.000000 0.000000
v -9.044335 -0.882353 -21.361040
vn 0.000000 1.000000 0.000000
v -5.586207 -0.882353 -27.807766
vn 0.000000 1.000000 0.000000
v -10.906404 -0.882353 -29.956675
vn 0.000000 1.000000 0.000000
v -7.182266 -0.882353 -37.262966
vn 0.000000 1.000000 0.000000
v 0.798029 0.882353 -31.102760
vn 0.000000 -1.000000 0.000000
v 0.000000 0.882353 -31.246021
vn 0.000000 -1.000000 0.000000
v -0.798029 0.882353 -31.102760
vn 0.000000 -1.000000 0.000000
v 7.182266 0.882353 -37.262966
vn 0.000000 -1.000000 0.000000
v 10.906404 0.882353 -29.956675
vn 0.000000 -1.000000 0.000000
v 5.586207 0.882353 -27.807766
vn 0.000000 -1.000000 0.000000
v 9.044335 0.882353 -21.361040
vn 0.000000 -1.000000 0.000000
v 6.384236 0.882353 -22.793646
vn 0.000000 -1.000000 0.000000
v 0.000000 0.882353 -19.355392
vn 0.000000 -1.000000 0.000000
v -6.384236 0.882353 -22.793646
vn 0.000000 -1.000000 0.000000
v -9.044335 0.882353 -21.361040
vn 0.000000 -1.000000 0.000000
v -5.586207 0.882353 -27.807766
vn 0.000000 -1.000000 0.000000
v -10.906404 0.882353 -29.956675
vn 0.000000 -1.000000 0.000000
v -7.182266 0.882353 -37.262966
vn 0.000000 -1.000000 0.000000
v -6.474246 0.160732 -26.152262
vn 0.321568 -0.001823 -0.946885
v -10.568929 -0.424836 -27.541712
vn 0.321568 -0.001823 -0.946885
v -6.474758 -0.424836 -26.151308
vn 0.321568 -0.001823 -0.946885
v -10.562657 0.052151 -27.541712
vn 0.321568 -0.001823 -0.946885
v -10.562657 0.052151 -27.541712
vn 0.733134 -0.009639 -0.680016
v -12.391294 -0.424836 -29.506428
vn 0.733134 -0.009639 -0.680016
v -10.568929 -0.424836 -27.541712
vn 0.733134 -0.009639 -0.680016
v -12.383711 0.003787 -29.506428
vn 0.733134 -0.009639 -0.680016
v -12.383711 0.003787 -29.506428
vn 0.999844 -0.017690 0.000000
v -12.391294 -0.424836 -33.927040
vn 0.999844 -0.017690 0.000000
v -12.391294 -0.424836 -29.506428
vn 0.999844 -0.017690 0.000000
v -12.383711 0.003787 -33.927040
vn 0.999844 -0.017690 0.000000
v -12.383711 0.003787 -33.927040
vn 0.664549 -0.011758 -0.747152
v -15.428572 -0.424836 -36.628525
vn 0.664549 -0.011758 -0.747152
v -12.391294 -0.424836 -33.927040
vn 0.664549 -0.011758 -0.747152
v -15.418800 -0.076821 -36.628525
vn 0.664549 -0.011758 -0.747152
v -15.418800 -0.076821 -36.628525
vn 0.290163 -0.008147 0.956942
v -10.568929 -0.424836 -38.102062
vn 0.290163 -0.008147 0.956942
v -15.428572 -0.424836 -36.628525
vn 0.290163 -0.008147 0.956942
v -10.562657 0.052151 -38.102062
vn 0.290163 -0.008147 0.956942
v -8.093589 -0.424836 -35.475063
vn -0.727790 0.006024 0.685774
v -10.568929 -0.424836 -38.102062
vn -0.727790 0.006024 0.685774
v -8.092012 0.117767 -35.478157
vn -0.727790 0.006024 0.685774
v -10.562657 0.052151 -38.102062
vn -0.727790 0.006024 0.685774
v -6.474758 -0.424836 -26.151308
vn 0.000000 1.000000 0.000000
v -10.568929 -0.424836 -27.541712
vn 0.000000 1.000000 0.000000
v -5.586207 -0.424836 -27.807766
vn 0.000000 1.000000 0.000000
v -12.391294 -0.424836 -29.506428
vn 0.000000 1.000000 0.000000
v -10.906404 -0.424836 -29.956675
vn 0.000000 1.000000 0.000000
v -12.391294 -0.424836 -33.927040
vn 0.000000 1.000000 0.000000
v -15.428572 -0.424836 -36.628525
vn 0.000000 1.000000 0.000000
v -10.568929 -0.424836 -38.102062
vn 0.000000 1.000000 0.000000
v -8.093589 -0.424836 -35.475063
vn 0.000000 1.000000 0.000000
v -10.562657 0.052151 -27.541712
vn 0.026549 -0.999647 -0.000000
v -6.474246 0.160732 -26.152262
vn 0.026549 -0.999647 -0.000000
v -5.586207 0.184317 -27.807766
vn 0.026549 -0.999647 -0.000000
v -12.383711 0.003787 -29.506428
vn 0.026549 -0.999647 0.000000
v -10.906404 0.043022 -29.956675
vn 0.026549 -0.999647 0.000000
v -12.383711 0.003787 -33.927040
vn 0.026549 -0.999647 0.000000
v -15.418800 -0.076821 -36.628525
vn 0.026549 -0.999647 -0.000000
v -10.562657 0.052151 -38.102062
vn 0.026549 -0.999647 -0.000000
v -8.092012 0.117767 -35.478157
vn 0.026549 -0.999647 -0.000000
v -5.017651 0.199417 -35.174309
vn 0.955440 -0.003480 0.295164
v -3.885462 0.229486 -38.838833
vn 0.955440 -0.003480 0.295164
v -5.019403 -0.424836 -35.175999
vn 0.955440 -0.003480 0.295164
v -3.886920 -0.424836 -38.838833
vn 0.955440 -0.003480 0.295164
v -3.885462 0.229486 -38.838833
vn 0.000000 0.000000 1.000000
v -1.862069 -0.424836 -38.838833
vn 0.000000 0.000000 1.000000
v -3.886920 -0.424836 -38.838833
vn 0.000000 0.000000 1.000000
v -1.862069 0.283224 -38.838833
vn 0.000000 0.000000 1.000000
v -1.862069 -0.424836 -32.129459
vn -1.000000 0.000000 0.000000
v -1.862069 -0.424836 -38.838833
vn -1.000000 0.000000 0.000000
v -1.862069 0.283224 -32.129459
vn -1.000000 0.000000 0.000000
v -1.862069 0.283224 -38.838833
vn -1.000000 0.000000 0.000000
v -5.019403 -0.424836 -35.175999
vn 0.000000 1.000000 0.000000
v -3.886920 -0.424836 -38.838833
vn 0.000000 1.000000 0.000000
v -1.862069 -0.424836 -38.838833
vn 0.000000 1.000000 0.000000
v -1.862069 -0.424836 -32.129459
vn 0.000000 1.000000 0.000000
v -3.885462 0.229486 -38.838833
vn 0.026549 -0.999647 -0.000000
v -5.017651 0.199417 -35.174309
vn 0.026549 -0.999647 -0.000000
v -1.862069 0.283224 -38.838833
vn 0.026549 -0.999647 -0.000000
v -1.862069 0.283224 -32.129459
vn 0.026549 -0.999647 -0.000000
v 6.474246 0.160732 -26.152262
vn -0.321568 -0.001823 -0.946885
v 6.474758 -0.424836 -26.151308
vn -0.321568 -0.001823 -0.946885
v 10.568929 -0.424836 -27.541712
vn -0.321568 -0.001823 -0.946885
v 10.562657 0.052151 -27.541712
vn -0.321568 -0.001823 -0.946885
v 10.562657 0.052151 -27.541712
vn -0.733134 -0.009639 -0.680016
v 10.568929 -0.424836 -27.541712
vn -0.733134 -0.009639 -0.680016
v 12.391294 -0.424836 -29.506428
vn -0.733134 -0.009639 -0.680016
v 12.383711 0.003787 -29.506428
vn -0.733134 -0.009639 -0.680016
v 12.383711 0.003787 -29.506428
vn -0.999844 -0.017690 0.000000
v 12.391294 -0.424836 -29.506428
vn -0.999844 -0.017690 0.000000
v 12.391294 -0.424836 -33.927040
vn -0.999844 -0.017690 0.000000
v 12.383711 0.003787 -33.927040
vn -0.999844 -0.017690 0.000000
v 12.383711 0.003787 -33.927040
vn -0.664549 -0.011758 -0.747152
v 12.391294 -0.424836 -33.927040
vn -0.664549 -0.011758 -0.747152
v 15.428572 -0.424836 -36.628525
vn -0.664549 -0.011758 -0.747152
v 15.418800 -0.076821 -36.628525
vn -0.664549 -0.011758 -0.747152
v 15.418800 -0.076821 -36.628525
vn -0.290163 -0.008147 0.956942
v 15.428572 -0.424836 -36.628525
vn -0.290163 -0.008147 0.956942
v 10.568929 -0.424836 -38.102062
vn -0.290163 -0.008147 0.956942
v 10.562657 0.052151 -38.102062
vn -0.290163 -0.008147 0.956942
v 8.093589 -0.424836 -35.475063
vn 0.727790 0.006024 0.685774
v 8.092012 0.117767 -35.478157
vn 0.727790 0.006024 0.685774
v 10.568929 -0.424836 -38.102062
vn 0.727790 0.006024 0.685774
v 10.562657 0.052151 -38.102062
vn 0.727790 0.006024 0.685774
v 6.474758 -0.424836 -26.151308
vn 0.000000 1.000000 0.000000
v 5.586207 -0.424836 -27.807766
vn 0.000000 1.000000 0.000000
v 10.568929 -0.424836 -27.541712
vn 0.000000 1.000000 0.000000
v 10.906404 -0.424836 -29.956675
vn 0.000000 1.000000 0.000000
v 12.391294 -0.424836 -29.506428
vn 0.000000 1.000000 0.000000
v 12.391294 -0.424836 -33.927040
vn 0.000000 1.000000 0.000000
v 10.568929 -0.424836 -38.102062
vn 0.000000 1.000000 0.000000
v 15.428572 -0.424836 -36.628525
vn 0.000000 1.000000 0.000000
v 8.093589 -0.424836 -35.475063
vn 0.000000 1.000000 0.000000
v 10.562657 0.052151 -27.541712
vn -0.026549 -0.999647 -0.000000
v 5.586207 0.184317 -27.807766
vn -0.026549 -0.999647 -0.000000
v 6.474246 0.160732 -26.152262
vn -0.026549 -0.999647 -0.000000
v 12.383711 0.003787 -29.506428
vn -0.026549 -0.999647 0.000000
v 10.906404 0.043022 -29.956675
vn -0.026549 -0.999647 0.000000
v 12.383711 0.003787 -33.927040
vn -0.026549 -0.999647 0.000000
v 15.418800 -0.076821 -36.628525
vn -0.026549 -0.999647 -0.000000
v 10.562657 0.052151 -38.102062
vn -0.026549 -0.999647 -0.000000
v 8.092012 0.117767 -35.478157
vn -0.026549 -0.999647 -0.000000
v 5.017651 0.199417 -35.174309
vn -0.955440 -0.003480 0.295164
v 5.019403 -0.424836 -35.175999
vn -0.955440 -0.003480 0.295164
v 3.885462 0.229486 -38.838833
vn -0.955440 -0.003480 0.295164
v 3.886920 -0.424836 -38.838833
vn -0.955440 -0.003480 0.295164
v 3.885462 0.229486 -38.838833
vn 0.000000 0.000000 1.000000
v 3.886920 -0.424836 -38.838833
vn 0.000000 0.000000 1.000000
v 1.862069 -0.424836 -38.838833
vn 0.000000 0.000000 1.000000
v 1.862069 0.283224 -38.838833
vn 0.000000 0.000000 1.000000
v 1.862069 -0.424836 -32.129459
vn 1.000000 0.000000 0.000000
v 1.862069 0.283224 -32.129459
vn 1.000000 0.000000 0.000000
v 1.862069 -0.424836 -38.838833
vn 1.000000 0.000000 0.000000
v 1.862069 0.283224 -38.838833
vn 1.000000 0.000000 0.000000
v 5.019403 -0.424836 -35.175999
vn 0.000000 1.000000 0.000000
v 1.862069 -0.424836 -38.838833
vn 0.000000 1.000000 0.000000
v 3.886920 -0.424836 -38.838833
vn 0.000000 1.000000 0.000000
v 1.862069 -0.424836 -32.129459
vn 0.000000 1.000000 0.000000
v 3.885462 0.229486 -38.838833
vn -0.026549 -0.999647 -0.000000
v 1.862069 0.283224 -38.838833
vn -0.026549 -0.999647 -0.000000
v 5.017651 0.199417 -35.174309
vn -0.026549 -0.999647 -0.000000
v 1.862069 0.283224 -32.129459
vn -0.026549 -0.999647 -0.000000
v -11.989017 0.014269 -37.348293
vn 0.948293 0.315821 -0.031587
v -11.848827 0.017992 -33.102409
vn 0.948293 0.315821 -0.031587
v -13.014072 2.993641 -38.333042
vn 0.948293 0.315821 -0.031587
v -11.848827 0.017992 -33.102409
vn -0.874712 -0.478436 -0.077314
v -11.478525 0.027827 -37.352776
vn -0.874712 -0.478436 -0.077314
v -13.014072 2.993641 -38.333042
vn -0.874712 -0.478436 -0.077314
v -11.989017 0.014269 -37.348293
vn 0.000002 0.313825 0.949481
v -13.014072 2.993641 -38.333042
vn 0.000002 0.313825 0.949481
v -11.478525 0.027827 -37.352776
vn 0.000002 0.313825 0.949481
v 11.989017 0.014269 -37.348293
vn -0.948293 0.315821 -0.031587
v 13.014072 2.993641 -38.333042
vn -0.948293 0.315821 -0.031587
v 11.848827 0.017992 -33.102409
vn -0.948293 0.315821 -0.031587
v 11.848827 0.017992 -33.102409
vn 0.874712 -0.478436 -0.077314
v 13.014072 2.993641 -38.333042
vn 0.874712 -0.478436 -0.077314
v 11.478525 0.027827 -37.352776
vn 0.874712 -0.478436 -0.077314
v 11.989017 0.014269 -37.348293
vn -0.000002 0.313825 0.949481
v 11.478525 0.027827 -37.352776
vn -0.000002 0.313825 0.949481
v 13.014072 2.993641 -38.333042
vn -0.000002 0.313825 0.949481
v -1.353214 1.858269 66.599030
vn -0.928966 -0.370140 -0.004390
v -1.153196 1.357708 66.477898
vn -0.928966 -0.370140 -0.004390
v -1.098444 1.673753 28.242037
vn -0.928966 -0.370140 -0.004390
v -1.407966 2.448359 28.429483
vn -0.928966 -0.370140 -0.004390
v -1.407966 2.448359 28.429483
vn -0.901258 -0.400272 0.165882
v -1.098444 1.673753 28.242037
vn -0.901258 -0.400272 0.165882
v -3.253376 2.287176 18.014219
vn -0.901258 -0.400272 0.165882
v -2.914196 1.438349 17.808811
vn -0.901258 -0.400272 0.165882
v -3.253376 2.287176 18.014219
vn -0.928965 -0.370140 -0.004390
v -2.914196 1.438349 17.808811
vn -0.928965 -0.370140 -0.004390
v -2.889102 1.583203 0.284041
vn -0.928965 -0.370140 -0.004390
v -3.278471 2.557635 0.519844
vn -0.928965 -0.370140 -0.004390
v 0.000000 2.089818 0.406637
vn -0.000000 0.235201 -0.971947
v 0.000000 3.132528 0.658961
vn -0.000000 0.235201 -0.971947
v -3.278471 2.557635 0.519844
vn -0.000000 0.235201 -0.971947
v -2.889102 1.583203 0.284041
vn -0.000000 0.235201 -0.971947
v 0.000000 3.831793 -43.845573
vn 0.831965 0.207969 0.514376
v 0.000000 2.439950 -43.282833
vn 0.831965 0.207969 0.514376
v -5.007835 2.816595 -35.335312
vn 0.831965 0.207969 0.514376
v -4.515804 1.585245 -35.633286
vn 0.831965 0.207969 0.514376
v -5.007835 2.816595 -35.335312
vn 0.928966 0.370140 0.004390
v -4.515804 1.585245 -35.633286
vn 0.928966 0.370140 0.004390
v -4.531773 1.493065 -24.481159
vn 0.928966 0.370140 0.004390
v -4.991865 2.644485 -24.202528
vn 0.928966 0.370140 0.004390
v -4.991865 2.644485 -24.202528
vn 0.915892 0.301976 0.264484
v -4.531773 1.493065 -24.481159
vn 0.915892 0.301976 0.264484
v -8.785045 1.754451 -10.050778
vn 0.915892 0.301976 0.264484
v -8.366017 0.705799 -10.304542
vn 0.915892 0.301976 0.264484
v -8.785045 1.754451 -10.050778
vn 0.928966 0.370140 0.004390
v -8.366017 0.705799 -10.304542
vn 0.928966 0.370140 0.004390
v -8.411644 0.442427 21.558678
vn 0.928966 0.370140 0.004390
v -8.739418 1.262709 21.757177
vn 0.928966 0.370140 0.004390
v -8.739418 1.262709 21.757177
vn 0.902258 0.399687 -0.161808
v -8.411644 0.442427 21.558678
vn 0.902258 0.399687 -0.161808
v -7.355075 1.380523 29.767426
vn 0.902258 0.399687 -0.161808
v -7.050115 0.617334 29.582741
vn 0.902258 0.399687 -0.161808
v -7.355075 1.380523 29.767426
vn 0.928965 0.370140 0.004390
v -7.050115 0.617334 29.582741
vn 0.928965 0.370140 0.004390
v -7.075210 0.472481 47.107513
vn 0.928965 0.370140 0.004390
v -7.329980 1.110065 47.261799
vn 0.928965 0.370140 0.004390
v -7.329980 1.110065 47.261799
vn 0.930260 0.336128 0.147084
v -7.075210 0.472481 47.107513
vn 0.930260 0.336128 0.147084
v -7.999626 0.259306 53.441315
vn 0.930260 0.336128 0.147084
v -8.236145 0.851216 53.584553
vn 0.930260 0.336128 0.147084
v -8.236145 0.851216 53.584553
vn 0.742627 0.422489 -0.519624
v -7.999626 0.259306 53.441315
vn 0.742627 0.422489 -0.519624
v -3.280890 1.029297 60.811211
vn 0.742627 0.422489 -0.519624
v -3.496877 1.569824 60.942013
vn 0.742627 0.422489 -0.519624
v -3.496877 1.569824 60.942013
vn 0.919901 0.385275 -0.073119
v -3.280890 1.029297 60.811211
vn 0.919901 0.385275 -0.073119
v -1.183994 1.179932 87.985573
vn -0.114039 0.190395 -0.975061
v -1.322415 1.526343 88.069397
vn -0.114039 0.190395 -0.975061
v -1.153196 1.357708 66.477898
vn -0.173038 0.984883 0.007893
v -3.280890 1.029297 60.811211
vn -0.173038 0.984883 0.007893
v -1.098444 1.673753 28.242037
vn -0.173038 0.984883 0.007893
v -7.050115 0.617334 29.582741
vn -0.173038 0.984883 0.007893
v -2.914196 1.438349 17.808811
vn -0.173038 0.984883 0.007893
v -8.411644 0.442427 21.558678
vn -0.173038 0.984883 0.007893
v -2.889102 1.583203 0.284041
vn -0.173038 0.984883 0.007893
v -4.531773 1.493065 -24.481159
vn -0.173038 0.984883 0.007893
v 0.000000 2.089818 0.406637
vn -0.173038 0.984883 0.007893
v 0.000000 2.439950 -43.282833
vn -0.173038 0.984883 0.007893
v -4.515804 1.585245 -35.633286
vn -0.173038 0.984883 0.007893
v -8.366017 0.705799 -10.304542
vn -0.173038 0.984883 0.007893
v -7.075210 0.472481 47.107513
vn -0.173038 0.984883 0.007893
v -7.999626 0.259306 53.441315
vn -0.173038 0.984883 0.007893
v -1.183994 1.179932 87.985573
vn -0.173038 0.984883 0.007893
v -1.353214 1.858269 66.599030
vn 0.173335 -0.984741 -0.015472
v -1.407966 2.448359 28.429483
vn 0.173335 -0.984741 -0.015472
v -3.496877 1.569824 60.942013
vn 0.173335 -0.984741 -0.015472
v -3.253376 2.287176 18.014219
vn 0.173335 -0.984741 -0.015472
v -7.355075 1.380523 29.767426
vn 0.173335 -0.984741 -0.015472
v -3.278471 2.557635 0.519844
vn 0.173335 -0.984741 -0.015472
v -8.739418 1.262709 21.757177
vn 0.173335 -0.984741 -0.015472
v 0.000000 3.132528 0.658961
vn 0.173335 -0.984741 -0.015472
v -4.991865 2.644485 -24.202528
vn 0.173335 -0.984741 -0.015472
v 0.000000 3.831793 -43.845573
vn 0.173335 -0.984741 -0.015472
v -5.007835 2.816595 -35.335312
vn 0.173335 -0.984741 -0.015472
v -8.785045 1.754451 -10.050778
vn 0.173335 -0.984741 -0.015472
v -7.329980 1.110065 47.261799
vn 0.173335 -0.984741 -0.015472
v -8.236145 0.851216 53.584553
vn 0.173335 -0.984741 -0.015472
v -1.322415 1.526343 88.069397
vn 0.173335 -0.984741 -0.015472
v 1.353214 1.858269 66.599030
vn 0.928966 -0.370140 -0.004390
v 1.098444 1.673753 28.242037
vn 0.928966 -0.370140 -0.004390
v 1.153196 1.357708 66.477898
vn 0.928966 -0.370140 -0.004390
v 1.407966 2.448359 28.429483
vn 0.928966 -0.370140 -0.004390
v 1.407966 2.448359 28.429483
vn 0.901258 -0.400272 0.165882
v 3.253376 2.287176 18.014219
vn 0.901258 -0.400272 0.165882
v 1.098444 1.673753 28.242037
vn 0.901258 -0.400272 0.165882
v 2.914196 1.438349 17.808811
vn 0.901258 -0.400272 0.165882
v 3.253376 2.287176 18.014219
vn 0.928965 -0.370140 -0.004390
v 2.889102 1.583203 0.284041
vn 0.928965 -0.370140 -0.004390
v 2.914196 1.438349 17.808811
vn 0.928965 -0.370140 -0.004390
v 3.278471 2.557635 0.519844
vn 0.928965 -0.370140 -0.004390
v 0.000000 2.089818 0.406637
vn 0.000000 0.235201 -0.971947
v 3.278471 2.557635 0.519844
vn 0.000000 0.235201 -0.971947
v 0.000000 3.132528 0.658961
vn 0.000000 0.235201 -0.971947
v 2.889102 1.583203 0.284041
vn 0.000000 0.235201 -0.971947
v 0.000000 3.831793 -43.845573
vn -0.831965 0.207969 0.514376
v 5.007835 2.816595 -35.335312
vn -0.831965 0.207969 0.514376
v 0.000000 2.439950 -43.282833
vn -0.831965 0.207969 0.514376
v 4.515804 1.585245 -35.633286
vn -0.831965 0.207969 0.514376
v 5.007835 2.816595 -35.335312
vn -0.928966 0.370140 0.004390
v 4.531773 1.493065 -24.481159
vn -0.928966 0.370140 0.004390
v 4.515804 1.585245 -35.633286
vn -0.928966 0.370140 0.004390
v 4.991865 2.644485 -24.202528
vn -0.928966 0.370140 0.004390
v 4.991865 2.644485 -24.202528
vn -0.915892 0.301976 0.264484
v 8.785045 1.754451 -10.050778
vn -0.915892 0.301976 0.264484
v 4.531773 1.493065 -24.481159
vn -0.915892 0.301976 0.264484
v 8.366017 0.705799 -10.304542
vn -0.915892 0.301976 0.264484
v 8.785045 1.754451 -10.050778
vn -0.928966 0.370140 0.004390
v 8.411644 0.442427 21.558678
vn -0.928966 0.370140 0.004390
v 8.366017 0.705799 -10.304542
vn -0.928966 0.370140 0.004390
v 8.739418 1.262709 21.757177
vn -0.928966 0.370140 0.004390
v 8.739418 1.262709 21.757177
vn -0.902258 0.399687 -0.161808
v 7.355075 1.380523 29.767426
vn -0.902258 0.399687 -0.161808
v 8.411644 0.442427 21.558678
vn -0.902258 0.399687 -0.161808
v 7.050115 0.617334 29.582741
vn -0.902258 0.399687 -0.161808
v 7.355075 1.380523 29.767426
vn -0.928965 0.370140 0.004390
v 7.075210 0.472481 47.107513
vn -0.928965 0.370140 0.004390
v 7.050115 0.617334 29.582741
vn -0.928965 0.370140 0.004390
v 7.329980 1.110065 47.261799
vn -0.928965 0.370140 0.004390
v 7.329980 1.110065 47.261799
vn -0.930260 0.336128 0.147084
v 7.999626 0.259306 53.441315
vn -0.930260 0.336128 0.147084
v 7.075210 0.472481 47.107513
vn -0.930260 0.336128 0.147084
v 8.236145 0.851216 53.584553
vn -0.930260 0.336128 0.147084
v 8.236145 0.851216 53.584553
vn -0.742627 0.422489 -0.519624
v 3.280890 1.029297 60.811211
vn -0.742627 0.422489 -0.519624
v 7.999626 0.259306 53.441315
vn -0.742627 0.422489 -0.519624
v 3.496877 1.569824 60.942013
vn -0.742627 0.422489 -0.519624
v 3.496877 1.569824 60.942013
vn -0.919901 0.385275 -0.073119
v 1.183994 1.179932 87.985573
vn 0.114039 0.190395 -0.975061
v 3.280890 1.029297 60.811211
vn -0.919901 0.385275 -0.073119
v 1.322415 1.526343 88.069397
vn 0.114039 0.190395 -0.975061
v 1.153196 1.357708 66.477898
vn 0.173038 0.984883 0.007893
v 1.098444 1.673753 28.242037
vn 0.173038 0.984883 0.007893
v 3.280890 1.029297 60.811211
vn 0.173038 0.984883 0.007893
v 2.914196 1.438349 17.808811
vn 0.173038 0.984883 0.007893
v 7.050115 0.617334 29.582741
vn 0.173038 0.984883 0.007893
v 2.889102 1.583203 0.284041
vn 0.173038 0.984883 0.007893
v 8.411644 0.442427 21.558678
vn 0.173038 0.984883 0.007893
v 0.000000 2.089818 0.406637
vn 0.173038 0.984883 0.007893
v 4.531773 1.493065 -24.481159
vn 0.173038 0.984883 0.007893
v 0.000000 2.439950 -43.282833
vn 0.173038 0.984883 0.007893
v 4.515804 1.585245 -35.633286
vn 0.173038 0.984883 0.007893
v 8.366017 0.705799 -10.304542
vn 0.173038 0.984883 0.007893
v 7.075210 0.472481 47.107513
vn 0.173038 0.984883 0.007893
v 7.999626 0.259306 53.441315
vn 0.173038 0.984883 0.007893
v 1.183994 1.179932 87.985573
vn 0.173038 0.984883 0.007893
v 1.353214 1.858269 66.599030
vn -0.173335 -0.984741 -0.015472
v 3.496877 1.569824 60.942013
vn -0.173335 -0.984741 -0.015472
v 1.407966 2.448359 28.429483
vn -0.173335 -0.984741 -0.015472
v 7.355075 1.380523 29.767426
vn -0.173335 -0.984741 -0.015472
v 3.253376 2.287176 18.014219
vn -0.173335 -0.984741 -0.015472
v 8.739418 1.262709 21.757177
vn -0.173335 -0.984741 -0.015472
v 3.278471 2.557635 0.519844
vn -0.173335 -0.984741 -0.015472
v 4.991865 2.644485 -24.202528
vn -0.173335 -0.984741 -0.015472
v 0.000000 3.132528 0.658961
vn -0.173335 -0.984741 -0.015472
v 0.000000 3.831793 -43.845573
vn -0.173335 -0.984741 -0.015472
v 5.007835 2.816595 -35.335312
vn -0.173335 -0.984741 -0.015472
v 8.785045 1.754451 -10.050778
vn -0.173335 -0.984741 -0.015472
v 7.329980 1.110065 47.261799
vn -0.173335 -0.984741 -0.015472
v 8.236145 0.851216 53.584553
vn -0.173335 -0.984741 -0.015472
v 1.322415 1.526343 88.069397
vn -0.173335 -0.984741 -0.015472
v 1.606390 1.578179 65.729828
vn 0.384925 -0.919216 -0.082917
v 2.809176 4.027040 44.165611
vn 0.384925 -0.919216 -0.082917
v 1.594959 1.902587 35.173866
vn 0.877885 -0.478842 -0.005412
v 2.497597 2.878887 53.707794
vn -0.278536 -0.952427 -0.123695
v 2.497597 2.878887 53.707794
vn -0.999881 0.013000 -0.008359
v 2.638335 1.764350 35.140411
vn -0.999881 0.013000 -0.008359
v 2.809176 4.027040 44.165611
vn -0.990351 0.137682 -0.015771
v 2.649767 1.439943 65.696373
vn -0.993721 -0.111886 -0.000816
v 1.594959 1.902587 35.173866
vn 0.131665 0.991239 0.010475
v 2.649767 1.439943 65.696373
vn 0.131665 0.991239 0.010475
v 1.606390 1.578179 65.729828
vn 0.131665 0.991239 0.010475
v 2.638335 1.764350 35.140411
vn 0.131665 0.991239 0.010475
v 2.809176 4.027040 44.165611
vn -0.119708 -0.962469 0.243565
v 2.638335 1.764350 35.140411
vn -0.119708 -0.962469 0.243565
v 1.594959 1.902587 35.173866
vn -0.119708 -0.962469 0.243565
v 1.606390 1.578179 65.729828
vn -0.134116 -0.984104 -0.116416
v 2.649767 1.439943 65.696373
vn -0.134116 -0.984104 -0.116416
v 2.497597 2.878887 53.707794
vn -0.134116 -0.984104 -0.116416
v -1.606390 1.578179 65.729828
vn -0.384925 -0.919216 -0.082917
v -1.594959 1.902587 35.173866
vn -0.877885 -0.478842 -0.005412
v -2.809176 4.027040 44.165611
vn -0.384925 -0.919216 -0.082917
v -2.497597 2.878887 53.707794
vn 0.278536 -0.952427 -0.123695
v -2.497597 2.878887 53.707794
vn 0.999881 0.013000 -0.008359
v -2.809176 4.027040 44.165611
vn 0.990351 0.137682 -0.015771
v -2.638335 1.764350 35.140411
vn 0.999881 0.013000 -0.008359
v -2.649767 1.439943 65.696373
vn 0.993721 -0.111886 -0.000816
v -1.594959 1.902587 35.173866
vn -0.131665 0.991239 0.010475
v -1.606390 1.578179 65.729828
vn -0.131665 0.991239 0.010475
v -2.649767 1.439943 65.696373
vn -0.131665 0.991239 0.010475
v -2.638335 1.764350 35.140411
vn -0.131665 0.991239 0.010475
v -2.809176 4.027040 44.165611
vn 0.119708 -0.962469 0.243565
v -1.594959 1.902587 35.173866
vn 0.119708 -0.962469 0.243565
v -2.638335 1.764350 35.140411
vn 0.119708 -0.962469 0.243565
v -1.606390 1.578179 65.729828
vn 0.134116 -0.984104 -0.116416
v -2.497597 2.878887 53.707794
vn 0.134116 -0.984104 -0.116416
v -2.649767 1.439943 65.696373
vn 0.134116 -0.984104 -0.116416
v -1.606390 -1.401709 65.729828
vn -0.384925 0.919216 -0.082917
v -2.809176 -3.850569 44.165611
vn -0.384925 0.919216 -0.082917
v -1.594959 -1.726117 35.173866
vn -0.877885 0.478842 -0.005412
v -2.497597 -2.702417 53.707794
vn 0.278534 0.952428 -0.123695
v -2.497597 -2.702417 53.707794
vn 0.999881 -0.013000 -0.008359
v -2.638335 -1.587880 35.140411
vn 0.999881 -0.013000 -0.008359
v -2.809176 -3.850569 44.165611
vn 0.990351 -0.137682 -0.015771
v -2.649767 -1.263473 65.696373
vn 0.993721 0.111886 -0.000816
v -1.594959 -1.726117 35.173866
vn -0.131665 -0.991239 0.010475
v -2.649767 -1.263473 65.696373
vn -0.131665 -0.991239 0.010475
v -1.606390 -1.401709 65.729828
vn -0.131665 -0.991239 0.010475
v -2.638335 -1.587880 35.140411
vn -0.131665 -0.991239 0.010475
v -2.809176 -3.850569 44.165611
vn 0.119708 0.962469 0.243565
v -2.638335 -1.587880 35.140411
vn 0.119708 0.962469 0.243565
v -1.594959 -1.726117 35.173866
vn 0.119708 0.962469 0.243565
v -1.606390 -1.401709 65.729828
vn 0.134116 0.984104 -0.116416
v -2.649767 -1.263473 65.696373
vn 0.134116 0.984104 -0.116416
v -2.497597 -2.702417 53.707794
vn 0.134116 0.984104 -0.116416
v 1.606390 -1.401709 65.729828
vn 0.384925 0.919216 -0.082917
v 1.594959 -1.726117 35.173866
vn 0.877885 0.478842 -0.005412
v 2.809176 -3.850569 44.165611
vn 0.384925 0.919216 -0.082917
v 2.497597 -2.702417 53.707794
vn -0.278534 0.952428 -0.123695
v 2.497597 -2.702417 53.707794
vn -0.999881 -0.013000 -0.008359
v 2.809176 -3.850569 44.165611
vn -0.990351 -0.137682 -0.015771
v 2.638335 -1.587880 35.140411
vn -0.999881 -0.013000 -0.008359
v 2.649767 -1.263473 65.696373
vn -0.993721 0.111886 -0.000816
v 1.594959 -1.726117 35.173866
vn 0.131665 -0.991239 0.010475
v 1.606390 -1.401709 65.729828
vn 0.131665 -0.991239 0.010475
v 2.649767 -1.263473 65.696373
vn 0.131665 -0.991239 0.010475
v 2.638335 -1.587880 35.140411
vn 0.131665 -0.991239 0.010475
v 2.809176 -3.850569 44.165611
vn -0.119708 0.962469 0.243565
v 1.594959 -1.726117 35.173866
vn -0.119708 0.962469 0.243565
v 2.638335 -1.587880 35.140411
vn -0.119708 0.962469 0.243565
v 1.606390 -1.401709 65.729828
vn -0.134116 0.984104 -0.116416
v 2.497597 -2.702417 53.707794
vn -0.134116 0.984104 -0.116416
v 2.649767 -1.263473 65.696373
vn -0.134116 0.984104 -0.116416
v 1.353214 -1.681798 66.599030
vn 0.928966 0.370140 -0.004390
v 1.153196 -1.181237 66.477898
vn 0.928966 0.370140 -0.004390
v 1.098444 -1.497283 28.242037
vn 0.928966 0.370140 -0.004390
v 1.407966 -2.271889 28.429483
vn 0.928966 0.370140 -0.004390
v 1.407966 -2.271889 28.429483
vn 0.901258 0.400272 0.165882
v 1.098444 -1.497283 28.242037
vn 0.901258 0.400272 0.165882
v 3.253376 -2.110706 18.014219
vn 0.901258 0.400272 0.165882
v 2.914196 -1.261878 17.808811
vn 0.901258 0.400272 0.165882
v 3.253376 -2.110706 18.014219
vn 0.928966 0.370140 -0.004390
v 2.914196 -1.261878 17.808811
vn 0.928966 0.370140 -0.004390
v 2.889102 -1.406732 0.284041
vn 0.928966 0.370140 -0.004390
v 3.278471 -2.381164 0.519844
vn 0.928966 0.370140 -0.004390
v 0.000000 -1.913348 0.406637
vn 0.000000 -0.235201 -0.971947
v 0.000000 -2.956058 0.658961
vn 0.000000 -0.235201 -0.971947
v 3.278471 -2.381164 0.519844
vn 0.000000 -0.235201 -0.971947
v 2.889102 -1.406732 0.284041
vn 0.000000 -0.235201 -0.971947
v 0.000000 -3.655323 -43.845573
vn -0.831965 -0.207969 0.514376
v 0.000000 -2.263479 -43.282833
vn -0.831965 -0.207969 0.514376
v 5.007835 -2.640124 -35.335312
vn -0.831965 -0.207969 0.514376
v 4.515804 -1.408775 -35.633286
vn -0.831965 -0.207969 0.514376
v 5.007835 -2.640124 -35.335312
vn -0.928966 -0.370140 0.004390
v 4.515804 -1.408775 -35.633286
vn -0.928966 -0.370140 0.004390
v 4.531773 -1.316595 -24.481159
vn -0.928966 -0.370140 0.004390
v 4.991865 -2.468014 -24.202528
vn -0.928966 -0.370140 0.004390
v 4.991865 -2.468014 -24.202528
vn -0.915892 -0.301976 0.264484
v 4.531773 -1.316595 -24.481159
vn -0.915892 -0.301976 0.264484
v 8.785045 -1.577980 -10.050778
vn -0.915892 -0.301976 0.264484
v 8.366017 -0.529328 -10.304542
vn -0.915892 -0.301976 0.264484
v 8.785045 -1.577980 -10.050778
vn -0.928966 -0.370140 0.004390
v 8.366017 -0.529328 -10.304542
vn -0.928966 -0.370140 0.004390
v 8.411644 -0.265957 21.558678
vn -0.928966 -0.370140 0.004390
v 8.739418 -1.086238 21.757177
vn -0.928966 -0.370140 0.004390
v 8.739418 -1.086238 21.757177
vn -0.902258 -0.399687 -0.161808
v 8.411644 -0.265957 21.558678
vn -0.902258 -0.399687 -0.161808
v 7.355075 -1.204052 29.767426
vn -0.902258 -0.399687 -0.161808
v 7.050115 -0.440864 29.582741
vn -0.902258 -0.399687 -0.161808
v 7.355075 -1.204052 29.767426
vn -0.928965 -0.370141 0.004390
v 7.050115 -0.440864 29.582741
vn -0.928965 -0.370141 0.004390
v 7.075210 -0.296010 47.107513
vn -0.928965 -0.370141 0.004390
v 7.329980 -0.933594 47.261799
vn -0.928965 -0.370141 0.004390
v 7.329980 -0.933594 47.261799
vn -0.930260 -0.336128 0.147084
v 7.075210 -0.296010 47.107513
vn -0.930260 -0.336128 0.147084
v 7.999626 -0.082836 53.441315
vn -0.930260 -0.336128 0.147084
v 8.236145 -0.674746 53.584553
vn -0.930260 -0.336128 0.147084
v 8.236145 -0.674746 53.584553
vn -0.742627 -0.422489 -0.519624
v 7.999626 -0.082836 53.441315
vn -0.742627 -0.422489 -0.519624
v 3.280890 -0.852827 60.811211
vn -0.742627 -0.422489 -0.519624
v 3.496877 -1.393353 60.942013
vn -0.742627 -0.422489 -0.519624
v 3.496877 -1.393353 60.942013
vn -0.919901 -0.385275 -0.073119
v 3.280890 -0.852827 60.811211
vn -0.919901 -0.385275 -0.073119
v 1.183994 -1.003461 87.985573
vn 0.114039 -0.190396 -0.975061
v 1.322415 -1.349872 88.069397
vn 0.114039 -0.190396 -0.975061
v 1.153196 -1.181237 66.477898
vn 0.173038 -0.984883 0.007893
v 3.280890 -0.852827 60.811211
vn 0.173038 -0.984883 0.007893
v 1.098444 -1.497283 28.242037
vn 0.173038 -0.984883 0.007893
v 7.050115 -0.440864 29.582741
vn 0.173038 -0.984883 0.007893
v 2.914196 -1.261878 17.808811
vn 0.173038 -0.984883 0.007893
v 8.411644 -0.265957 21.558678
vn 0.173038 -0.984883 0.007893
v 2.889102 -1.406732 0.284041
vn 0.173038 -0.984883 0.007893
v 4.531773 -1.316595 -24.481159
vn 0.173038 -0.984883 0.007893
v 0.000000 -1.913348 0.406637
vn 0.173038 -0.984883 0.007893
v 0.000000 -2.263479 -43.282833
vn 0.173038 -0.984883 0.007893
v 4.515804 -1.408775 -35.633286
vn 0.173038 -0.984883 0.007893
v 8.366017 -0.529328 -10.304542
vn 0.173038 -0.984883 0.007893
v 7.075210 -0.296010 47.107513
vn 0.173038 -0.984883 0.007893
v 7.999626 -0.082836 53.441315
vn 0.173038 -0.984883 0.007893
v 1.183994 -1.003461 87.985573
vn 0.173038 -0.984883 0.007893
v 1.353214 -1.681798 66.599030
vn -0.173335 0.984741 -0.015472
v 1.407966 -2.271889 28.429483
vn -0.173335 0.984741 -0.015472
v 3.496877 -1.393353 60.942013
vn -0.173335 0.984741 -0.015472
v 3.253376 -2.110706 18.014219
vn -0.173335 0.984741 -0.015472
v 7.355075 -1.204052 29.767426
vn -0.173335 0.984741 -0.015472
v 3.278471 -2.381164 0.519844
vn -0.173335 0.984741 -0.015472
v 8.739418 -1.086238 21.757177
vn -0.173335 0.984741 -0.015472
v 0.000000 -2.956058 0.658961
vn -0.173335 0.984741 -0.015472
v 4.991865 -2.468014 -24.202528
vn -0.173335 0.984741 -0.015472
v 0.000000 -3.655323 -43.845573
vn -0.173335 0.984741 -0.015473
v 5.007835 -2.640124 -35.335312
vn -0.173335 0.984741 -0.015473
v 8.785045 -1.577980 -10.050778
vn -0.173335 0.984741 -0.015472
v 7.329980 -0.933594 47.261799
vn -0.173335 0.984741 -0.015472
v 8.236145 -0.674746 53.584553
vn -0.173335 0.984741 -0.015472
v 1.322415 -1.349872 88.069397
vn -0.173335 0.984741 -0.015472
v -1.353214 -1.681798 66.599030
vn -0.928966 0.370140 -0.004390
v -1.098444 -1.497283 28.242037
vn -0.928966 0.370140 -0.004390
v -1.153196 -1.181237 66.477898
vn -0.928966 0.370140 -0.004390
v -1.407966 -2.271889 28.429483
vn -0.928966 0.370140 -0.004390
v -1.407966 -2.271889 28.429483
vn -0.901258 0.400272 0.165882
v -3.253376 -2.110706 18.014219
vn -0.901258 0.400272 0.165882
v -1.098444 -1.497283 28.242037
vn -0.901258 0.400272 0.165882
v -2.914196 -1.261878 17.808811
vn -0.901258 0.400272 0.165882
v -3.253376 -2.110706 18.014219
vn -0.928966 0.370140 -0.004390
v -2.889102 -1.406732 0.284041
vn -0.928966 0.370140 -0.004390
v -2.914196 -1.261878 17.808811
vn -0.928966 0.370140 -0.004390
v -3.278471 -2.381164 0.519844
vn -0.928966 0.370140 -0.004390
v 0.000000 -1.913348 0.406637
vn -0.000000 -0.235201 -0.971947
v -3.278471 -2.381164 0.519844
vn -0.000000 -0.235201 -0.971947
v 0.000000 -2.956058 0.658961
vn -0.000000 -0.235201 -0.971947
v -2.889102 -1.406732 0.284041
vn -0.000000 -0.235201 -0.971947
v 0.000000 -3.655323 -43.845573
vn 0.831965 -0.207969 0.514376
v -5.007835 -2.640124 -35.335312
vn 0.831965 -0.207969 0.514376
v 0.000000 -2.263479 -43.282833
vn 0.831965 -0.207969 0.514376
v -4.515804 -1.408775 -35.633286
vn 0.831965 -0.207969 0.514376
v -5.007835 -2.640124 -35.335312
vn 0.928966 -0.370140 0.004390
v -4.531773 -1.316595 -24.481159
vn 0.928966 -0.370140 0.004390
v -4.515804 -1.408775 -35.633286
vn 0.928966 -0.370140 0.004390
v -4.991865 -2.468014 -24.202528
vn 0.928966 -0.370140 0.004390
v -4.991865 -2.468014 -24.202528
vn 0.915892 -0.301976 0.264484
v -8.785045 -1.577980 -10.050778
vn 0.915892 -0.301976 0.264484
v -4.531773 -1.316595 -24.481159
vn 0.915892 -0.301976 0.264484
v -8.366017 -0.529328 -10.304542
vn 0.915892 -0.301976 0.264484
v -8.785045 -1.577980 -10.050778
vn 0.928966 -0.370140 0.004390
v -8.411644 -0.265957 21.558678
vn 0.928966 -0.370140 0.004390
v -8.366017 -0.529328 -10.304542
vn 0.928966 -0.370140 0.004390
v -8.739418 -1.086238 21.757177
vn 0.928966 -0.370140 0.004390
v -8.739418 -1.086238 21.757177
vn 0.902258 -0.399687 -0.161808
v -7.355075 -1.204052 29.767426
vn 0.902258 -0.399687 -0.161808
v -8.411644 -0.265957 21.558678
vn 0.902258 -0.399687 -0.161808
v -7.050115 -0.440864 29.582741
vn 0.902258 -0.399687 -0.161808
v -7.355075 -1.204052 29.767426
vn 0.928965 -0.370141 0.004390
v -7.075210 -0.296010 47.107513
vn 0.928965 -0.370141 0.004390
v -7.050115 -0.440864 29.582741
vn 0.928965 -0.370141 0.004390
v -7.329980 -0.933594 47.261799
vn 0.928965 -0.370141 0.004390
v -7.329980 -0.933594 47.261799
vn 0.930260 -0.336128 0.147084
v -7.999626 -0.082836 53.441315
vn 0.930260 -0.336128 0.147084
v -7.075210 -0.296010 47.107513
vn 0.930260 -0.336128 0.147084
v -8.236145 -0.674746 53.584553
vn 0.930260 -0.336128 0.147084
v -8.236145 -0.674746 53.584553
vn 0.742627 -0.422489 -0.519624
v -3.280890 -0.852827 60.811211
vn 0.742627 -0.422489 -0.519624
v -7.999626 -0.082836 53.441315
vn 0.742627 -0.422489 -0.519624
v -3.496877 -1.393353 60.942013
vn 0.742627 -0.422489 -0.519624
v -3.496877 -1.393353 60.942013
vn 0.919901 -0.385275 -0.073119
v -1.183994 -1.003461 87.985573
vn -0.114039 -0.190396 -0.975061
v -3.280890 -0.852827 60.811211
vn 0.919901 -0.385275 -0.073119
v -1.322415 -1.349872 88.069397
vn -0.114039 -0.190396 -0.975061
v -1.153196 -1.181237 66.477898
vn -0.173038 -0.984883 0.007893
v -1.098444 -1.497283 28.242037
vn -0.173038 -0.984883 0.007893
v -3.280890 -0.852827 60.811211
vn -0.173038 -0.984883 0.007893
v -2.914196 -1.261878 17.808811
vn -0.173038 -0.984883 0.007893
v -7.050115 -0.440864 29.582741
vn -0.173038 -0.984883 0.007893
v -2.889102 -1.406732 0.284041
vn -0.173038 -0.984883 0.007893
v -8.411644 -0.265957 21.558678
vn -0.173038 -0.984883 0.007893
v 0.000000 -1.913348 0.406637
vn -0.173038 -0.984883 0.007893
v -4.531773 -1.316595 -24.481159
vn -0.173038 -0.984883 0.007893
v 0.000000 -2.263479 -43.282833
vn -0.173038 -0.984883 0.007893
v -4.515804 -1.408775 -35.633286
vn -0.173038 -0.984883 0.007893
v -8.366017 -0.529328 -10.304542
vn -0.173038 -0.984883 0.007893
v -7.075210 -0.296010 47.107513
vn -0.173038 -0.984883 0.007893
v -7.999626 -0.082836 53.441315
vn -0.173038 -0.984883 0.007893
v -1.183994 -1.003461 87.985573
vn -0.173038 -0.984883 0.007893
v -1.353214 -1.681798 66.599030
vn 0.173335 0.984741 -0.015472
v -3.496877 -1.393353 60.942013
vn 0.173335 0.984741 -0.015472
v -1.407966 -2.271889 28.429483
vn 0.173335 0.984741 -0.015472
v -7.355075 -1.204052 29.767426
vn 0.173335 0.984741 -0.015472
v -3.253376 -2.110706 18.014219
vn 0.173335 0.984741 -0.015472
v -8.739418 -1.086238 21.757177
vn 0.173335 0.984741 -0.015472
v -3.278471 -2.381164 0.519844
vn 0.173335 0.984741 -0.015472
v -4.991865 -2.468014 -24.202528
vn 0.173335 0.984741 -0.015472
v 0.000000 -2.956058 0.658961
vn 0.173335 0.984741 -0.015472
v 0.000000 -3.655323 -43.845573
vn 0.173335 0.984741 -0.015473
v -5.007835 -2.640124 -35.335312
vn 0.173335 0.984741 -0.015473
v -8.785045 -1.577980 -10.050778
vn 0.173335 0.984741 -0.015472
v -7.329980 -0.933594 47.261799
vn 0.173335 0.984741 -0.015472
v -8.236145 -0.674746 53.584553
vn 0.173335 0.984741 -0.015472
v -1.322415 -1.349872 88.069397
vn 0.173335 0.984741 -0.015472
v -2.469087 0.267103 1.812675
vn 0.925068 -0.000585 -0.379802
v -6.721712 -0.424836 -8.544189
vn 0.925068 -0.000585 -0.379802
v -2.469524 -0.424836 1.812675
vn 0.925068 -0.000585 -0.379802
v -6.718212 0.154253 -8.544189
vn 0.925068 -0.000585 -0.379802
v -6.721712 -0.424836 -13.105017
vn 0.999982 -0.006044 0.000000
v -6.718212 0.154253 -8.544189
vn 0.999982 -0.006044 0.000000
v -6.718212 0.154253 -13.109432
vn 0.999982 -0.006044 0.000000
v -6.721712 -0.424836 -8.544189
vn 0.999982 -0.006044 0.000000
v -1.862069 0.283224 -7.824963
vn -1.000000 0.000000 0.000000
v -1.862069 -0.424836 1.812675
vn -1.000000 0.000000 0.000000
v -1.862069 -0.424836 -7.824963
vn -1.000000 0.000000 0.000000
v -1.862069 0.283224 1.812675
vn -1.000000 0.000000 0.000000
v -2.469524 -0.424836 1.812675
vn 0.000000 0.000000 -1.000000
v -1.862069 -0.424836 1.812675
vn 0.000000 0.000000 -1.000000
v -2.469087 0.267103 1.812675
vn 0.000000 0.000000 -1.000000
v -1.862069 0.283224 1.812675
vn 0.000000 0.000000 -1.000000
v -2.469524 -0.424836 1.812675
vn 0.000000 1.000000 0.000000
v -6.721712 -0.424836 -8.544189
vn 0.000000 1.000000 0.000000
v -1.862069 -0.424836 -7.824963
vn 0.000000 1.000000 0.000000
v -6.721712 -0.424836 -13.105017
vn 0.000000 1.000000 0.000000
v -6.384236 -0.424836 -13.530828
vn 0.000000 1.000000 0.000000
v -1.862069 -0.424836 1.812675
vn 0.000000 1.000000 0.000000
v -6.718212 0.154253 -8.544189
vn 0.026549 -0.999647 -0.000000
v -2.469087 0.267103 1.812675
vn 0.026549 -0.999647 -0.000000
v -1.862069 0.283224 -7.824963
vn 0.026549 -0.999647 -0.000000
v -6.718212 0.154253 -13.109432
vn 0.026549 -0.999647 0.000000
v -6.384236 0.163123 -13.530828
vn 0.026549 -0.999647 0.000000
v -1.862069 0.283224 1.812675
vn 0.026549 -0.999647 -0.000000
v 2.469087 0.267103 1.812675
vn -0.925068 -0.000585 -0.379802
v 2.469524 -0.424836 1.812675
vn -0.925068 -0.000585 -0.379802
v 6.721712 -0.424836 -8.544189
vn -0.925068 -0.000585 -0.379802
v 6.718212 0.154253 -8.544189
vn -0.925068 -0.000585 -0.379802
v 6.721712 -0.424836 -13.105017
vn -0.999982 -0.006044 0.000000
v 6.718212 0.154253 -13.109432
vn -0.999982 -0.006044 0.000000
v 6.718212 0.154253 -8.544189
vn -0.999982 -0.006044 0.000000
v 6.721712 -0.424836 -8.544189
vn -0.999982 -0.006044 0.000000
v 1.862069 0.283224 -7.824963
vn 1.000000 0.000000 0.000000
v 1.862069 -0.424836 -7.824963
vn 1.000000 0.000000 0.000000
v 1.862069 -0.424836 1.812675
vn 1.000000 0.000000 0.000000
v 1.862069 0.283224 1.812675
vn 1.000000 0.000000 0.000000
v 2.469524 -0.424836 1.812675
vn 0.000000 0.000000 -1.000000
v 2.469087 0.267103 1.812675
vn 0.000000 0.000000 -1.000000
v 1.862069 -0.424836 1.812675
vn 0.000000 0.000000 -1.000000
v 1.862069 0.283224 1.812675
vn 0.000000 0.000000 -1.000000
v 2.469524 -0.424836 1.812675
vn 0.000000 1.000000 0.000000
v 1.862069 -0.424836 -7.824963
vn 0.000000 1.000000 0.000000
v 6.721712 -0.424836 -8.544189
vn 0.000000 1.000000 0.000000
v 6.384236 -0.424836 -13.530828
vn 0.000000 1.000000 0.000000
v 6.721712 -0.424836 -13.105017
vn 0.000000 1.000000 0.000000
v 1.862069 -0.424836 1.812675
vn 0.000000 1.000000 0.000000
v 6.718212 0.154253 -8.544189
vn -0.026549 -0.999647 -0.000000
v 1.862069 0.283224 -7.824963
vn -0.026549 -0.999647 -0.000000
v 2.469087 0.267103 1.812675
vn -0.026549 -0.999647 -0.000000
v 6.718212 0.154253 -13.109432
vn -0.026549 -0.999647 0.000000
v 6.384236 0.163123 -13.530828
vn -0.026549 -0.999647 0.000000
v 1.862069 0.283224 1.812675
vn -0.026549 -0.999647 -0.000000
v 0.000000 -1.500000 8.000000
vn 0.756666 0.653755 0.007775
v -1.285715 0.000000 7.000000
vn 0.756666 0.653755 0.007775
v 0.000000 0.000000 -23.000000
vn 0.748203 0.662694 0.032066
v 0.000000 0.000000 66.500000
vn 0.764569 0.644331 -0.016521
v 0.000000 -1.500000 8.000000
vn -0.756666 0.653755 0.007775
v 1.285715 0.000000 7.000000
vn -0.756666 0.653755 0.007775
v 0.000000 0.000000 66.500000
vn -0.764569 0.644331 -0.016521
v 0.000000 0.000000 -23.000000
vn -0.748203 0.662694 0.032066
v -1.285715 0.000000 7.000000
vn 0.866475 -0.499140 0.009026
v 0.000000 2.250000 8.000000
vn 0.866475 -0.499140 0.009026
v 0.000000 0.000000 -23.000000
vn 0.860504 -0.508107 0.036879
v 0.000000 0.000000 66.500000
vn 0.871672 -0.489727 -0.018836
v 1.285715 0.000000 7.000000
vn -0.866475 -0.499140 0.009026
v 0.000000 2.250000 8.000000
vn -0.866475 -0.499140 0.009026
v 0.000000 0.000000 66.500000
vn -0.871672 -0.489727 -0.018836
v 0.000000 0.000000 -23.000000
vn -0.860504 -0.508107 0.036879
vt 0.550095 0.000000
vt 0.648819 0.000000
vt 0.599457 0.341049
f 13/1/13 14/2/14 15/3/15
vt 0.449905 0.000000
vt 0.548630 0.000000
vt 0.499268 0.322611
f 16/4/16 17/5/17 18/6/18
vt 0.550095 0.000000
vt 0.599457 0.341049
vt 0.648819 0.000000
f 31/7/31 32/8/32 33/9/33
vt 0.449905 0.000000
vt 0.499268 0.322611
vt 0.548630 0.000000
f 34/10/34 35/11/35 36/12/36
vt 0.227635 0.497748
vt 0.846343 0.000000
vt 0.227635 0.000000
f 37/13/37 38/14/38 39/15/39
vt 0.227635 0.998535
vt 0.846349 0.499213
vt 0.227635 0.499213
f 40/16/40 41/17/41 42/18/42
vt 0.107800 0.441020
vt 0.107800 0.000000
vt 0.000000 0.000000
f 43/19/43 44/20/44 45/21/45
vt 0.217178 0.000000
vt 0.109265 0.000000
vt 0.226170 0.614370
f 46/22/46 47/23/47 48/24/48
vt 0.227635 0.497748
vt 0.227635 0.000000
vt 0.846343 0.000000
f 49/25/49 50/26/50 51/27/51
vt 0.227635 0.998535
vt 0.227635 0.499213
vt 0.846349 0.499213
f 52/28/52 53/29/53 54/30/54
vt 0.107800 0.441020
vt 0.000000 0.000000
vt 0.107800 0.000000
f 55/31/55 56/32/56 57/33/57
vt 0.217178 0.000000
vt 0.226170 0.614370
vt 0.109265 0.000000
f 58/34/58 59/35/59 60/36/60
vt 0.227635 0.497748
vt 0.846343 0.000000
vt 0.227635 0.000000
f 61/37/61 62/38/62 63/39/63
vt 0.227635 0.499213
vt 0.227635 0.998535
vt 0.846349 0.499213
f 64/40/64 65/41/65 66/42/66
vt 0.107800 0.441020
vt 0.107800 0.000000
vt 0.000000 0.000000
f 67/43/67 68/44/68 69/45/69
vt 0.217178 0.000000
vt 0.109265 0.000000
vt 0.226170 0.614370
f 70/46/70 71/47/71 72/48/72
vt 0.227635 0.497748
vt 0.227635 0.000000
vt 0.846343 0.000000
f 73/49/73 74/50/74 75/51/75
vt 0.227635 0.499213
vt 0.846349 0.499213
vt 0.227635 0.998535
f 76/52/76 77/53/77 78/54/78
vt 0.107800 0.441020
vt 0.000000 0.000000
vt 0.107800 0.000000
f 79/55/79 80/56/80 81/57/81
vt 0.217178 0.000000
vt 0.226170 0.614370
vt 0.109265 0.000000
f 82/58/82 83/59/83 84/60/84
vt 0.809801 0.017570
vt 0.764122 0.065556
vt 0.805726 0.200433
f 147/61/147 148/62/148 146/63/146
vt 0.381655 0.087851
vt 0.541284 0.243842
vt 0.461902 0.115166
f 151/64/151 152/65/152 150/66/150
vt 0.381655 0.910684
vt 0.541284 0.754694
vt 0.461902 0.883369
f 161/67/161 160/68/160 162/69/162
vt 0.809801 0.980965
vt 0.764122 0.932979
vt 0.805726 0.798102
f 165/70/165 164/71/164 166/72/166
vt 0.669845 0.871491
vt 0.390238 0.728970
vt 0.591409 0.653733
f 201/73/201 197/74/197 198/75/198
vt 0.610138 0.228715
vt 0.330375 0.371366
vt 0.408967 0.153837
f 206/76/206 210/77/210 207/78/207
vt 0.669845 0.871491
vt 0.591409 0.653733
vt 0.390238 0.728970
f 263/79/263 260/80/260 258/81/258
vt 0.610138 0.228715
vt 0.408967 0.153837
vt 0.330375 0.371366
f 268/82/268 269/83/269 272/84/272
vt 0.998535 0.000000
vt 0.550736 0.831493
vt 0.550736 0.000000
f 293/85/293 294/86/294 295/87/295
vt 0.472237 0.831633
vt 0.000000 0.000000
vt 0.472237 0.000000
f 296/88/296 297/89/297 298/90/298
vt 0.543982 0.043860
vt 0.549271 0.486453
vt 0.473702 0.000000
f 299/91/299 300/92/300 301/93/301
vt 0.998535 0.000000
vt 0.550736 0.000000
vt 0.550736 0.831493
f 302/94/302 303/95/303 304/96/304
vt 0.472237 0.831633
vt 0.472237 0.000000
vt 0.000000 0.000000
f 305/97/305 306/98/306 307/99/307
vt 0.543982 0.043860
vt 0.473702 0.000000
vt 0.549271 0.486453
f 308/100/308 309/101/309 310/102/310
vt 0.487562 0.556338
vt 0.441912 0.544223
vt 0.487562 0.689603
f 366/103/366 365/104/365 375/105/375
vt 0.487562 0.689603
vt 0.458299 0.792580
vt 0.494585 0.738063
f 375/106/375 364/107/364 376/108/376
vt 0.458299 0.792580
vt 0.441912 0.834983
vt 0.441912 0.998535
f 364/109/364 363/110/363 377/111/377
vt 0.766655 0.559341
vt 0.766655 0.691701
vt 0.720859 0.547308
f 382/112/382 390/113/390 379/114/379
vt 0.766655 0.691701
vt 0.773701 0.739832
vt 0.737298 0.793979
f 390/115/390 391/116/391 380/117/380
vt 0.737298 0.793979
vt 0.720859 0.998535
vt 0.720859 0.836093
f 380/118/380 392/119/392 378/120/378
vt 0.487562 0.556338
vt 0.487562 0.689603
vt 0.441912 0.544223
f 449/121/449 457/122/457 446/123/446
vt 0.487562 0.689603
vt 0.494585 0.738063
vt 0.458299 0.792580
f 457/124/457 458/125/458 447/126/447
vt 0.458299 0.792580
vt 0.441912 0.998535
vt 0.441912 0.834983
f 447/127/447 459/128/459 445/129/445
vt 0.766655 0.559341
vt 0.720859 0.547308
vt 0.766655 0.691701
f 463/130/463 462/131/462 472/132/472
vt 0.766655 0.691701
vt 0.737298 0.793979
vt 0.773701 0.739832
f 472/133/472 461/134/461 473/135/473
vt 0.737298 0.793979
vt 0.720859 0.836093
vt 0.720859 0.998535
f 461/136/461 460/137/460 474/138/474
vt 0.981095 0.000000
vt 0.584886 0.998535
vt 0.981095 0.998535
f 475/139/475 476/140/476 477/141/477
vt 0.584886 0.000000
vt 0.584886 0.998535
vt 0.981095 0.000000
f 478/142/478 476/143/476 475/144/475
vt 0.430646 0.000000
vt 0.036052 0.998535
vt 0.430646 0.998535
f 479/145/479 480/146/480 481/147/481
vt 0.036052 0.000000
vt 0.036052 0.998535
vt 0.430646 0.000000
f 482/148/482 480/149/480 479/150/479
vt 0.508256 0.000000
vt 0.449475 0.261715
vt 0.508256 0.311282
f 487/151/487 488/152/488 489/153/489
vt 0.509721 0.340817
vt 0.583421 0.405366
vt 0.583421 0.000000
f 490/154/490 491/155/491 492/156/492
vt 0.981095 0.000000
vt 0.981095 0.998535
vt 0.584886 0.998535
f 493/157/493 494/158/494 495/159/495
vt 0.584886 0.000000
vt 0.981095 0.000000
vt 0.584886 0.998535
f 496/160/496 493/161/493 495/162/495
vt 0.430646 0.000000
vt 0.430646 0.998535
vt 0.036052 0.998535
f 497/163/497 498/164/498 499/165/499
vt 0.036052 0.000000
vt 0.430646 0.000000
vt 0.036052 0.998535
f 500/166/500 497/167/497 499/168/499
vt 0.508256 0.000000
vt 0.508256 0.311282
vt 0.449475 0.261715
f 505/169/505 506/170/506 507/171/507
vt 0.509721 0.340817
vt 0.583421 0.000000
vt 0.583421 0.405366
f 508/172/508 509/173/509 510/174/510
vt 0.981095 0.000000
vt 0.584886 0.998535
vt 0.981095 0.998535
f 511/175/511 512/176/512 513/177/513
vt 0.584886 0.000000
vt 0.584886 0.998535
vt 0.981095 0.000000
f 514/178/514 512/179/512 511/180/511
vt 0.430646 0.000000
vt 0.036052 0.998535
vt 0.430646 0.998535
f 515/181/515 516/182/516 517/183/517
vt 0.036052 0.000000
vt 0.036052 0.998535
vt 0.430646 0.000000
f 518/184/518 516/185/516 515/186/515
vt 0.508256 0.000000
vt 0.449475 0.261715
vt 0.508256 0.311282
f 523/187/523 524/188/524 525/189/525
vt 0.509721 0.340817
vt 0.583421 0.405366
vt 0.583421 0.000000
f 526/190/526 527/191/527 528/192/528
vt 0.981095 0.000000
vt 0.981095 0.998535
vt 0.584886 0.998535
f 529/193/529 530/194/530 531/195/531
vt 0.584886 0.000000
vt 0.981095 0.000000
vt 0.584886 0.998535
f 532/196/532 529/197/529 531/198/531
vt 0.430646 0.000000
vt 0.430646 0.998535
vt 0.036052 0.998535
f 533/199/533 534/200/534 535/201/535
vt 0.036052 0.000000
vt 0.430646 0.000000
vt 0.036052 0.998535
f 536/202/536 533/203/533 535/204/535
vt 0.508256 0.000000
vt 0.508256 0.311282
vt 0.449475 0.261715
f 541/205/541 542/206/542 543/207/543
vt 0.509721 0.340817
vt 0.583421 0.000000
vt 0.583421 0.405366
f 544/208/544 545/209/545 546/210/546
vt 0.487562 0.556338
vt 0.441912 0.544223
vt 0.487562 0.689603
f 602/211/602 601/212/601 611/213/611
vt 0.487562 0.689603
vt 0.458299 0.792580
vt 0.494585 0.738063
f 611/214/611 600/215/600 612/216/612
vt 0.458299 0.792580
vt 0.441912 0.834983
vt 0.441912 0.998535
f 600/217/600 599/218/599 613/219/613
vt 0.766655 0.691701
vt 0.773701 0.739832
vt 0.737298 0.793979
f 626/220/626 627/221/627 616/222/616
vt 0.487562 0.556338
vt 0.487562 0.689603
vt 0.441912 0.544223
f 685/223/685 693/224/693 682/225/682
vt 0.487562 0.689603
vt 0.494585 0.738063
vt 0.458299 0.792580
f 693/226/693 694/227/694 683/228/683
vt 0.458299 0.792580
vt 0.441912 0.998535
vt 0.441912 0.834983
f 683/229/683 695/230/695 681/231/681
vt 0.766655 0.691701
vt 0.737298 0.793979
vt 0.773701 0.739832
f 708/232/708 697/233/697 709/234/709
vt 0.337558 0.000000
vt 0.169512 0.173692
vt 0.337558 0.173692
f 767/235/767 768/236/768 769/237/769
vt 0.337558 0.000000
vt 0.998535 0.334616
vt 0.169512 0.173692
f 767/238/767 770/239/770 768/240/768
vt 0.339023 0.000000
vt 0.668047 0.334616
vt 0.668047 0.000000
f 771/241/771 772/242/772 773/243/773
vt 0.339023 0.000000
vt 0.000000 0.173692
vt 0.668047 0.334616
f 771/244/771 774/245/774 772/246/772
vt 0.169512 0.499636
vt 0.337558 0.673581
vt 0.337558 0.499636
f 775/247/775 776/248/776 777/249/777
vt 0.669511 0.834479
vt 0.337558 0.673581
vt 0.169512 0.499636
f 778/250/778 776/251/776 775/252/775
vt 0.339023 0.834479
vt 0.668047 0.500000
vt 0.339023 0.500000
f 779/253/779 780/254/780 781/255/781
vt 0.000000 0.499636
vt 0.668047 0.500000
vt 0.339023 0.834479
f 782/256/782 780/257/780 779/258/779
vt 0.098725 0.000000
vt 0.098725 0.724729
vt 0.000000 0.724729
vt 0.000000 0.000000
f 1/259/1 2/260/2 3/261/3 4/262/4
vt 0.650284 0.000000
vt 0.998535 0.000000
vt 0.998535 0.732401
vt 0.650284 0.732401
f 7/263/7 5/264/5 6/265/6 8/266/8
vt 0.448440 0.732401
vt 0.100190 0.732401
vt 0.100190 0.000000
vt 0.448440 0.000000
f 11/267/11 9/268/9 10/269/10 12/270/12
vt 0.000000 0.724729
vt 0.098725 0.724729
vt 0.098725 0.000000
vt 0.000000 0.000000
f 20/271/20 21/272/21 19/273/19 22/274/22
vt 0.998535 0.732401
vt 0.998535 0.000000
vt 0.650284 0.000000
vt 0.650284 0.732401
f 25/275/25 23/276/23 24/277/24 26/278/26
vt 0.100190 0.000000
vt 0.100190 0.732401
vt 0.448440 0.732401
vt 0.448440 0.000000
f 29/279/29 27/280/27 28/281/28 30/282/30
vt 0.066648 0.141874
vt 0.131831 0.141874
vt 0.131831 0.000000
vt 0.066648 0.000000
f 86/283/86 87/284/87 85/285/85 88/286/88
vt 0.000000 0.422565
vt 0.380190 0.422565
vt 0.380190 0.346939
vt 0.000000 0.346939
f 90/287/90 91/288/91 89/289/89 92/290/92
vt 0.380190 0.677475
vt 0.380190 0.462586
vt 0.333948 0.462586
vt 0.333948 0.677475
f 94/291/94 95/292/95 93/293/93 96/294/96
vt 0.093949 0.612938
vt 0.093949 0.462586
vt 0.047707 0.462586
vt 0.047707 0.612938
f 98/295/98 99/296/99 97/297/97 100/298/100
vt 0.284777 0.462586
vt 0.238534 0.462586
vt 0.238534 0.654284
vt 0.284777 0.654284
f 103/299/103 101/300/101 102/301/102 104/302/104
vt 0.133296 0.229828
vt 0.328785 0.229828
vt 0.328785 0.115646
vt 0.133296 0.115646
f 106/303/106 107/304/107 105/305/105 108/306/108
vt 0.189363 0.462586
vt 0.143121 0.462586
vt 0.143121 0.652595
vt 0.189363 0.652595
f 111/307/111 109/308/109 110/309/110 112/310/112
vt 0.141656 0.462586
vt 0.095414 0.462586
vt 0.095414 0.652595
vt 0.141656 0.652595
f 115/311/115 113/312/113 114/313/114 116/314/116
vt 0.133296 0.114182
vt 0.328785 0.114182
vt 0.328785 0.000000
vt 0.133296 0.000000
f 118/315/118 119/316/119 117/317/117 120/318/120
vt 0.237070 0.462586
vt 0.190828 0.462586
vt 0.190828 0.654284
vt 0.237070 0.654284
f 123/319/123 121/320/121 122/321/122 124/322/124
vt 0.046242 0.612938
vt 0.046242 0.462586
vt 0.000000 0.462586
vt 0.000000 0.612938
f 126/323/126 127/324/127 125/325/125 128/326/128
vt 0.332483 0.677475
vt 0.332483 0.462586
vt 0.286241 0.462586
vt 0.286241 0.677475
f 130/327/130 131/328/131 129/329/129 132/330/132
vt 0.000000 0.306918
vt 0.380190 0.306918
vt 0.380190 0.231293
vt 0.000000 0.231293
f 134/331/134 135/332/135 133/333/133 136/334/136
vt 0.065183 0.000000
vt 0.000000 0.000000
vt 0.000000 0.141874
vt 0.065183 0.141874
f 138/335/138 139/336/139 137/337/137 140/338/140
vt 0.732147 0.305632
vt 0.957577 0.442724
vt 0.957577 0.236238
vt 0.805726 0.200433
f 141/339/141 144/340/144 145/341/145 146/342/146
vt 0.694369 0.311834
vt 0.541284 0.243842
vt 0.441284 0.320988
vt 0.617580 0.498535
f 142/343/142 152/344/152 153/345/153 154/346/154
vt 0.694369 0.311834
vt 0.714986 0.312498
vt 0.732147 0.305632
vt 0.805726 0.200433
f 142/347/142 143/348/143 141/349/141 146/350/146
vt 0.764122 0.065556
vt 0.571530 0.000000
vt 0.461902 0.115166
vt 0.805726 0.200433
f 148/351/148 149/352/149 150/353/150 146/354/146
vt 0.805726 0.200433
vt 0.461902 0.115166
vt 0.541284 0.243842
vt 0.694369 0.311834
f 146/355/146 150/356/150 152/357/152 142/358/142
vt 0.441284 0.677547
vt 0.617580 0.500000
vt 0.694369 0.686702
vt 0.541284 0.754694
f 159/359/159 158/360/158 155/361/155 160/362/160
vt 0.957577 0.762298
vt 0.805726 0.798102
vt 0.732147 0.692903
vt 0.957577 0.555811
f 167/363/167 166/364/166 157/365/157 168/366/168
vt 0.694369 0.686702
vt 0.714986 0.686037
vt 0.732147 0.692903
vt 0.805726 0.798102
f 155/367/155 156/368/156 157/369/157 166/370/166
vt 0.764122 0.932979
vt 0.571530 0.998535
vt 0.461902 0.883369
vt 0.541284 0.754694
f 164/371/164 163/372/163 162/373/162 160/374/160
vt 0.541284 0.754694
vt 0.694369 0.686702
vt 0.805726 0.798102
vt 0.764122 0.932979
f 160/375/160 155/376/155 166/377/166 164/378/164
vt 0.195962 0.279559
vt 0.195962 0.000000
vt 0.158096 0.000192
vt 0.158096 0.279559
f 170/379/170 171/380/171 169/381/169 172/382/172
vt 0.032036 0.179964
vt 0.032036 0.000000
vt 0.000000 0.000000
vt 0.000000 0.179964
f 174/383/174 175/384/175 173/385/173 176/386/176
vt 0.089615 0.296874
vt 0.089615 0.000000
vt 0.060825 0.000000
vt 0.060825 0.296874
f 178/387/178 179/388/179 177/389/177 180/390/180
vt 0.060825 0.272982
vt 0.060825 0.000000
vt 0.032036 0.000000
vt 0.032036 0.272982
f 182/391/182 183/392/183 181/393/181 184/394/184
vt 0.158096 0.341031
vt 0.158096 0.000000
vt 0.126060 0.000000
vt 0.126060 0.341031
f 186/395/186 187/396/187 185/397/185 188/398/188
vt 0.089615 0.242116
vt 0.126060 0.242402
vt 0.126060 0.000000
vt 0.089615 0.000000
f 191/399/191 189/400/189 190/401/190 192/402/192
vt 0.390238 0.728970
vt 0.267876 0.746069
vt 0.367425 0.653733
vt 0.591409 0.653733
f 197/403/197 194/404/194 196/405/196 198/406/198
vt 0.591409 0.653733
vt 0.728289 0.499840
vt 0.802950 0.746069
vt 0.669845 0.871491
f 198/407/198 199/408/199 200/409/200 201/410/201
vt 0.281356 0.998535
vt 0.197427 0.953514
vt 0.267876 0.746069
vt 0.390238 0.728970
f 195/411/195 193/412/193 194/413/194 197/414/197
vt 0.632952 0.153837
vt 0.732500 0.246139
vt 0.610138 0.228715
vt 0.408967 0.153837
f 205/415/205 202/416/202 206/417/206 207/418/207
vt 0.197427 0.246139
vt 0.272088 0.000000
vt 0.408967 0.153837
vt 0.330375 0.371366
f 209/419/209 208/420/208 207/421/207 210/422/210
vt 0.732500 0.246139
vt 0.802901 0.453364
vt 0.719020 0.498375
vt 0.610138 0.228715
f 202/423/202 203/424/203 204/425/204 206/426/206
vt 0.621966 0.000207
vt 0.545391 0.000000
vt 0.545391 0.448887
vt 0.621966 0.448887
f 213/427/213 211/428/211 212/429/212 214/430/214
vt 0.543926 0.237311
vt 0.543926 0.000000
vt 0.460942 0.000000
vt 0.460942 0.237311
f 216/431/216 217/432/217 215/433/215 218/434/218
vt 0.000000 0.786333
vt 0.082984 0.786333
vt 0.082984 0.000000
vt 0.000000 0.000000
f 221/435/221 219/436/219 220/437/220 222/438/222
vt 0.623431 0.435160
vt 0.757975 0.000000
vt 0.998535 0.000000
vt 0.998535 0.797101
f 223/439/223 224/440/224 225/441/225 226/442/226
vt 0.084449 0.000000
vt 0.324921 0.000000
vt 0.459477 0.435360
vt 0.084449 0.797100
f 229/443/229 227/444/227 228/445/228 230/446/230
vt 0.158096 0.000192
vt 0.195962 0.000000
vt 0.195962 0.279559
vt 0.158096 0.279559
f 231/447/231 232/448/232 233/449/233 234/450/234
vt 0.000000 0.000000
vt 0.032036 0.000000
vt 0.032036 0.179964
vt 0.000000 0.179964
f 235/451/235 236/452/236 237/453/237 238/454/238
vt 0.060825 0.000000
vt 0.089615 0.000000
vt 0.089615 0.296874
vt 0.060825 0.296874
f 239/455/239 240/456/240 241/457/241 242/458/242
vt 0.032036 0.000000
vt 0.060825 0.000000
vt 0.060825 0.272982
vt 0.032036 0.272982
f 243/459/243 244/460/244 245/461/245 246/462/246
vt 0.126060 0.000000
vt 0.158096 0.000000
vt 0.158096 0.341031
vt 0.126060 0.341031
f 247/463/247 248/464/248 249/465/249 250/466/250
vt 0.126060 0.000000
vt 0.126060 0.242402
vt 0.089615 0.242116
vt 0.089615 0.000000
f 253/467/253 251/468/251 252/469/252 254/470/254
vt 0.367425 0.653733
vt 0.267876 0.746069
vt 0.390238 0.728970
vt 0.591409 0.653733
f 259/471/259 257/472/257 258/473/258 260/474/260
vt 0.802950 0.746069
vt 0.728289 0.499840
vt 0.591409 0.653733
vt 0.669845 0.871491
f 261/475/261 262/476/262 260/477/260 263/478/263
vt 0.267876 0.746069
vt 0.197427 0.953514
vt 0.281356 0.998535
vt 0.390238 0.728970
f 257/479/257 255/480/255 256/481/256 258/482/258
vt 0.610138 0.228715
vt 0.732500 0.246139
vt 0.632952 0.153837
vt 0.408967 0.153837
f 268/483/268 264/484/264 267/485/267 269/486/269
vt 0.408967 0.153837
vt 0.272088 0.000000
vt 0.197427 0.246139
vt 0.330375 0.371366
f 269/487/269 270/488/270 271/489/271 272/490/272
vt 0.719020 0.498375
vt 0.802901 0.453364
vt 0.732500 0.246139
vt 0.610138 0.228715
f 265/491/265 266/492/266 264/493/264 268/494/268
vt 0.545391 0.448887
vt 0.545391 0.000000
vt 0.621966 0.000207
vt 0.621966 0.448887
f 275/495/275 273/496/273 274/497/274 276/498/276
vt 0.460942 0.000000
vt 0.543926 0.000000
vt 0.543926 0.237311
vt 0.460942 0.237311
f 277/499/277 278/500/278 279/501/279 280/502/280
vt 0.082984 0.000000
vt 0.082984 0.786333
vt 0.000000 0.786333
vt 0.000000 0.000000
f 283/503/283 281/504/281 282/505/282 284/506/284
vt 0.998535 0.000000
vt 0.757975 0.000000
vt 0.623431 0.435160
vt 0.998535 0.797101
f 286/507/286 287/508/287 285/509/285 288/510/288
vt 0.459477 0.435360
vt 0.324921 0.000000
vt 0.084449 0.000000
vt 0.084449 0.797100
f 291/511/291 289/512/289 290/513/290 292/514/292
vt 0.156125 0.000000
vt 0.178452 0.000000
vt 0.178452 0.998535
vt 0.156125 0.998535
f 311/515/311 312/516/312 313/517/313 314/518/314
vt 0.107956 0.342591
vt 0.107956 0.000000
vt 0.138257 0.000000
vt 0.138257 0.342591
f 317/519/317 315/520/315 316/521/316 318/522/318
vt 0.335755 0.000000
vt 0.370539 0.000000
vt 0.370539 0.566811
vt 0.335755 0.566811
f 319/523/319 320/524/320 321/525/321 322/526/322
vt 0.034785 0.094949
vt 0.000000 0.107745
vt 0.000000 0.000000
vt 0.034785 0.000000
f 323/527/323 324/528/324 325/529/325 326/530/326
vt 0.221211 0.312325
vt 0.221211 0.000000
vt 0.265944 0.032087
vt 0.265944 0.312325
f 329/531/329 327/532/327 328/533/328 330/534/330
vt 0.370539 0.000000
vt 0.413030 0.000000
vt 0.413030 0.348677
vt 0.370539 0.348677
f 331/535/331 332/536/332 333/537/333 334/538/334
vt 0.294652 0.458708
vt 0.294652 0.000000
vt 0.334290 0.000000
vt 0.334290 0.458708
f 337/539/337 335/540/335 336/541/336 338/542/338
vt 0.183777 0.000000
vt 0.219746 0.000000
vt 0.219746 0.990238
vt 0.183777 0.990238
f 339/543/339 340/544/340 341/545/341 342/546/342
vt 0.078674 0.263287
vt 0.078674 0.000000
vt 0.107956 0.000000
vt 0.107956 0.263287
f 345/547/345 343/548/343 344/549/344 346/550/346
vt 0.267408 0.000000
vt 0.294652 0.000000
vt 0.294652 0.566811
vt 0.267408 0.566811
f 347/551/347 348/552/348 349/553/349 350/554/350
vt 0.034785 0.000000
vt 0.057545 0.000000
vt 0.057545 0.207135
vt 0.034785 0.207135
f 351/555/351 352/556/352 353/557/353 354/558/354
vt 0.057545 0.000000
vt 0.078674 0.000000
vt 0.078674 0.284124
vt 0.057545 0.284124
f 355/559/355 356/560/356 357/561/357 358/562/358
vt 0.414495 0.000000
vt 0.433790 0.000000
vt 0.433790 0.881507
vt 0.414495 0.881507
f 359/563/359 360/564/360 361/565/361 362/566/362
vt 0.178452 0.000000
vt 0.156125 0.000000
vt 0.414495 0.881507
vt 0.433790 0.881507
f 312/567/312 311/568/311 362/569/362 361/570/361
vt 0.468834 0.144428
vt 0.433790 0.332211
vt 0.455958 0.332211
vt 0.498097 0.253463
f 370/571/370 371/572/371 369/573/369 374/574/374
vt 0.455958 0.332211
vt 0.455958 0.465476
vt 0.498097 0.495763
vt 0.498097 0.253463
f 369/575/369 367/576/367 368/577/368 374/578/374
vt 0.455958 0.465476
vt 0.441912 0.544223
vt 0.487562 0.556338
vt 0.498097 0.495763
f 367/579/367 365/580/365 366/581/366 368/582/368
vt 0.468834 0.144428
vt 0.468834 0.059624
vt 0.434270 0.000000
vt 0.433790 0.332211
f 370/583/370 373/584/373 372/585/372 371/586/371
vt 0.441912 0.544223
vt 0.441912 0.834983
vt 0.458299 0.792580
vt 0.487562 0.689603
f 365/587/365 363/588/363 364/589/364 375/590/375
vt 0.734950 0.336735
vt 0.709713 0.336735
vt 0.747867 0.150228
vt 0.777223 0.258523
f 383/591/383 385/592/385 386/593/386 389/594/389
vt 0.777223 0.499177
vt 0.734950 0.469095
vt 0.734950 0.336735
vt 0.777223 0.258523
f 384/595/384 381/596/381 383/597/383 389/598/389
vt 0.766655 0.559341
vt 0.720859 0.547308
vt 0.734950 0.469095
vt 0.777223 0.499177
f 382/599/382 379/600/379 381/601/381 384/602/384
vt 0.709222 0.000000
vt 0.747867 0.065999
vt 0.747867 0.150228
vt 0.709713 0.336735
f 387/603/387 388/604/388 386/605/386 385/606/385
vt 0.737298 0.793979
vt 0.720859 0.836093
vt 0.720859 0.547308
vt 0.766655 0.691701
f 380/607/380 378/608/378 379/609/379 390/610/390
vt 0.178452 0.998535
vt 0.178452 0.000000
vt 0.156125 0.000000
vt 0.156125 0.998535
f 394/611/394 395/612/395 393/613/393 396/614/396
vt 0.138257 0.000000
vt 0.107956 0.000000
vt 0.107956 0.342591
vt 0.138257 0.342591
f 399/615/399 397/616/397 398/617/398 400/618/400
vt 0.370539 0.566811
vt 0.370539 0.000000
vt 0.335755 0.000000
vt 0.335755 0.566811
f 402/619/402 403/620/403 401/621/401 404/622/404
vt 0.000000 0.000000
vt 0.000000 0.107745
vt 0.034785 0.094949
vt 0.034785 0.000000
f 406/623/406 407/624/407 405/625/405 408/626/408
vt 0.265944 0.032087
vt 0.221211 0.000000
vt 0.221211 0.312325
vt 0.265944 0.312325
f 411/627/411 409/628/409 410/629/410 412/630/412
vt 0.413030 0.348677
vt 0.413030 0.000000
vt 0.370539 0.000000
vt 0.370539 0.348677
f 414/631/414 415/632/415 413/633/413 416/634/416
vt 0.334290 0.000000
vt 0.294652 0.000000
vt 0.294652 0.458708
vt 0.334290 0.458708
f 419/635/419 417/636/417 418/637/418 420/638/420
vt 0.219746 0.990238
vt 0.219746 0.000000
vt 0.183777 0.000000
vt 0.183777 0.990238
f 422/639/422 423/640/423 421/641/421 424/642/424
vt 0.107956 0.000000
vt 0.078674 0.000000
vt 0.078674 0.263287
vt 0.107956 0.263287
f 427/643/427 425/644/425 426/645/426 428/646/428
vt 0.294652 0.566811
vt 0.294652 0.000000
vt 0.267408 0.000000
vt 0.267408 0.566811
f 430/647/430 431/648/431 429/649/429 432/650/432
vt 0.057545 0.207135
vt 0.057545 0.000000
vt 0.034785 0.000000
vt 0.034785 0.207135
f 434/651/434 435/652/435 433/653/433 436/654/436
vt 0.078674 0.284124
vt 0.078674 0.000000
vt 0.057545 0.000000
vt 0.057545 0.284124
f 438/655/438 439/656/439 437/657/437 440/658/440
vt 0.433790 0.881507
vt 0.433790 0.000000
vt 0.414495 0.000000
vt 0.414495 0.881507
f 442/659/442 443/660/443 441/661/441 444/662/444
vt 0.414495 0.881507
vt 0.156125 0.000000
vt 0.178452 0.000000
vt 0.433790 0.881507
f 444/663/444 393/664/393 395/665/395 442/666/442
vt 0.455958 0.332211
vt 0.433790 0.332211
vt 0.468834 0.144428
vt 0.498097 0.253463
f 450/667/450 452/668/452 453/669/453 456/670/456
vt 0.498097 0.495763
vt 0.455958 0.465476
vt 0.455958 0.332211
vt 0.498097 0.253463
f 451/671/451 448/672/448 450/673/450 456/674/456
vt 0.487562 0.556338
vt 0.441912 0.544223
vt 0.455958 0.465476
vt 0.498097 0.495763
f 449/675/449 446/676/446 448/677/448 451/678/451
vt 0.434270 0.000000
vt 0.468834 0.059624
vt 0.468834 0.144428
vt 0.433790 0.332211
f 454/679/454 455/680/455 453/681/453 452/682/452
vt 0.458299 0.792580
vt 0.441912 0.834983
vt 0.441912 0.544223
vt 0.487562 0.689603
f 447/683/447 445/684/445 446/685/446 457/686/457
vt 0.747867 0.150228
vt 0.709713 0.336735
vt 0.734950 0.336735
vt 0.777223 0.258523
f 467/687/467 468/688/468 466/689/466 471/690/471
vt 0.734950 0.336735
vt 0.734950 0.469095
vt 0.777223 0.499177
vt 0.777223 0.258523
f 466/691/466 464/692/464 465/693/465 471/694/471
vt 0.734950 0.469095
vt 0.720859 0.547308
vt 0.766655 0.559341
vt 0.777223 0.499177
f 464/695/464 462/696/462 463/697/463 465/698/465
vt 0.747867 0.150228
vt 0.747867 0.065999
vt 0.709222 0.000000
vt 0.709713 0.336735
f 467/699/467 470/700/470 469/701/469 468/702/468
vt 0.720859 0.547308
vt 0.720859 0.836093
vt 0.737298 0.793979
vt 0.766655 0.691701
f 462/703/462 460/704/460 461/705/461 472/706/472
vt 0.034410 0.000000
vt 0.000000 0.000000
vt 0.000000 0.998535
vt 0.034410 0.998535
f 484/707/484 485/708/485 483/709/483 486/710/486
vt 0.000000 0.998535
vt 0.000000 0.000000
vt 0.034410 0.000000
vt 0.034410 0.998535
f 501/711/501 502/712/502 503/713/503 504/714/504
vt 0.034410 0.000000
vt 0.000000 0.000000
vt 0.000000 0.998535
vt 0.034410 0.998535
f 520/715/520 521/716/521 519/717/519 522/718/522
vt 0.000000 0.998535
vt 0.000000 0.000000
vt 0.034410 0.000000
vt 0.034410 0.998535
f 537/719/537 538/720/538 539/721/539 540/722/540
vt 0.156125 0.000000
vt 0.178452 0.000000
vt 0.178452 0.998535
vt 0.156125 0.998535
f 547/723/547 548/724/548 549/725/549 550/726/550
vt 0.107956 0.342591
vt 0.107956 0.000000
vt 0.138257 0.000000
vt 0.138257 0.342591
f 553/727/553 551/728/551 552/729/552 554/730/554
vt 0.335755 0.000000
vt 0.370539 0.000000
vt 0.370539 0.566811
vt 0.335755 0.566811
f 555/731/555 556/732/556 557/733/557 558/734/558
vt 0.034785 0.094949
vt 0.000000 0.107745
vt 0.000000 0.000000
vt 0.034785 0.000000
f 559/735/559 560/736/560 561/737/561 562/738/562
vt 0.221211 0.312325
vt 0.221211 0.000000
vt 0.265944 0.032087
vt 0.265944 0.312325
f 565/739/565 563/740/563 564/741/564 566/742/566
vt 0.370539 0.000000
vt 0.413030 0.000000
vt 0.413030 0.348677
vt 0.370539 0.348677
f 567/743/567 568/744/568 569/745/569 570/746/570
vt 0.294652 0.458708
vt 0.294652 0.000000
vt 0.334290 0.000000
vt 0.334290 0.458708
f 573/747/573 571/748/571 572/749/572 574/750/574
vt 0.183777 0.000000
vt 0.219746 0.000000
vt 0.219746 0.990238
vt 0.183777 0.990238
f 575/751/575 576/752/576 577/753/577 578/754/578
vt 0.078674 0.263287
vt 0.078674 0.000000
vt 0.107956 0.000000
vt 0.107956 0.263287
f 581/755/581 579/756/579 580/757/580 582/758/582
vt 0.267408 0.000000
vt 0.294652 0.000000
vt 0.294652 0.566811
vt 0.267408 0.566811
f 583/759/583 584/760/584 585/761/585 586/762/586
vt 0.034785 0.000000
vt 0.057545 0.000000
vt 0.057545 0.207135
vt 0.034785 0.207135
f 587/763/587 588/764/588 589/765/589 590/766/590
vt 0.057545 0.000000
vt 0.078674 0.000000
vt 0.078674 0.284124
vt 0.057545 0.284124
f 591/767/591 592/768/592 593/769/593 594/770/594
vt 0.414495 0.000000
vt 0.433790 0.000000
vt 0.433790 0.881507
vt 0.414495 0.881507
f 595/771/595 596/772/596 597/773/597 598/774/598
vt 0.178452 0.000000
vt 0.156125 0.000000
vt 0.414495 0.881507
vt 0.433790 0.881507
f 548/775/548 547/776/547 598/777/598 597/778/597
vt 0.468834 0.144428
vt 0.433790 0.332211
vt 0.455958 0.332211
vt 0.498097 0.253463
f 606/779/606 607/780/607 605/781/605 610/782/610
vt 0.455958 0.332211
vt 0.455958 0.465476
vt 0.498097 0.495763
vt 0.498097 0.253463
f 605/783/605 603/784/603 604/785/604 610/786/610
vt 0.455958 0.465476
vt 0.441912 0.544223
vt 0.487562 0.556338
vt 0.498097 0.495763
f 603/787/603 601/788/601 602/789/602 604/790/604
vt 0.468834 0.144428
vt 0.468834 0.059624
vt 0.434270 0.000000
vt 0.433790 0.332211
f 606/791/606 609/792/609 608/793/608 607/794/607
vt 0.441912 0.544223
vt 0.441912 0.834983
vt 0.458299 0.792580
vt 0.487562 0.689603
f 601/795/601 599/796/599 600/797/600 611/798/611
vt 0.734950 0.336735
vt 0.709713 0.336735
vt 0.747867 0.150228
vt 0.777223 0.258523
f 619/799/619 621/800/621 622/801/622 625/802/625
vt 0.777223 0.499177
vt 0.734950 0.469095
vt 0.734950 0.336735
vt 0.777223 0.258523
f 620/803/620 617/804/617 619/805/619 625/806/625
vt 0.766655 0.559341
vt 0.720859 0.547308
vt 0.734950 0.469095
vt 0.777223 0.499177
f 618/807/618 615/808/615 617/809/617 620/810/620
vt 0.720859 0.836093
vt 0.720859 0.547308
vt 0.737298 0.793979
vt 0.720859 0.998535
f 614/811/614 615/812/615 616/813/616 628/814/628
vt 0.709222 0.000000
vt 0.747867 0.065999
vt 0.747867 0.150228
vt 0.709713 0.336735
f 623/815/623 624/816/624 622/817/622 621/818/621
vt 0.720859 0.547308
vt 0.766655 0.559341
vt 0.766655 0.691701
vt 0.737298 0.793979
f 615/819/615 618/820/618 626/821/626 616/822/616
vt 0.178452 0.998535
vt 0.178452 0.000000
vt 0.156125 0.000000
vt 0.156125 0.998535
f 630/823/630 631/824/631 629/825/629 632/826/632
vt 0.138257 0.000000
vt 0.107956 0.000000
vt 0.107956 0.342591
vt 0.138257 0.342591
f 635/827/635 633/828/633 634/829/634 636/830/636
vt 0.370539 0.566811
vt 0.370539 0.000000
vt 0.335755 0.000000
vt 0.335755 0.566811
f 638/831/638 639/832/639 637/833/637 640/834/640
vt 0.000000 0.000000
vt 0.000000 0.107745
vt 0.034785 0.094949
vt 0.034785 0.000000
f 642/835/642 643/836/643 641/837/641 644/838/644
vt 0.265944 0.032087
vt 0.221211 0.000000
vt 0.221211 0.312325
vt 0.265944 0.312325
f 647/839/647 645/840/645 646/841/646 648/842/648
vt 0.413030 0.348677
vt 0.413030 0.000000
vt 0.370539 0.000000
vt 0.370539 0.348677
f 650/843/650 651/844/651 649/845/649 652/846/652
vt 0.334290 0.000000
vt 0.294652 0.000000
vt 0.294652 0.458708
vt 0.334290 0.458708
f 655/847/655 653/848/653 654/849/654 656/850/656
vt 0.219746 0.990238
vt 0.219746 0.000000
vt 0.183777 0.000000
vt 0.183777 0.990238
f 658/851/658 659/852/659 657/853/657 660/854/660
vt 0.107956 0.000000
vt 0.078674 0.000000
vt 0.078674 0.263287
vt 0.107956 0.263287
f 663/855/663 661/856/661 662/857/662 664/858/664
vt 0.294652 0.566811
vt 0.294652 0.000000
vt 0.267408 0.000000
vt 0.267408 0.566811
f 666/859/666 667/860/667 665/861/665 668/862/668
vt 0.057545 0.207135
vt 0.057545 0.000000
vt 0.034785 0.000000
vt 0.034785 0.207135
f 670/863/670 671/864/671 669/865/669 672/866/672
vt 0.078674 0.284124
vt 0.078674 0.000000
vt 0.057545 0.000000
vt 0.057545 0.284124
f 674/867/674 675/868/675 673/869/673 676/870/676
vt 0.433790 0.881507
vt 0.433790 0.000000
vt 0.414495 0.000000
vt 0.414495 0.881507
f 678/871/678 679/872/679 677/873/677 680/874/680
vt 0.414495 0.881507
vt 0.156125 0.000000
vt 0.178452 0.000000
vt 0.433790 0.881507
f 680/875/680 629/876/629 631/877/631 678/878/678
vt 0.455958 0.332211
vt 0.433790 0.332211
vt 0.468834 0.144428
vt 0.498097 0.253463
f 686/879/686 688/880/688 689/881/689 692/882/692
vt 0.498097 0.495763
vt 0.455958 0.465476
vt 0.455958 0.332211
vt 0.498097 0.253463
f 687/883/687 684/884/684 686/885/686 692/886/692
vt 0.487562 0.556338
vt 0.441912 0.544223
vt 0.455958 0.465476
vt 0.498097 0.495763
f 685/887/685 682/888/682 684/889/684 687/890/687
vt 0.434270 0.000000
vt 0.468834 0.059624
vt 0.468834 0.144428
vt 0.433790 0.332211
f 690/891/690 691/892/691 689/893/689 688/894/688
vt 0.458299 0.792580
vt 0.441912 0.834983
vt 0.441912 0.544223
vt 0.487562 0.689603
f 683/895/683 681/896/681 682/897/682 693/898/693
vt 0.747867 0.150228
vt 0.709713 0.336735
vt 0.734950 0.336735
vt 0.777223 0.258523
f 703/899/703 704/900/704 702/901/702 707/902/707
vt 0.734950 0.336735
vt 0.734950 0.469095
vt 0.777223 0.499177
vt 0.777223 0.258523
f 702/903/702 700/904/700 701/905/701 707/906/707
vt 0.734950 0.469095
vt 0.720859 0.547308
vt 0.766655 0.559341
vt 0.777223 0.499177
f 700/907/700 698/908/698 699/909/699 701/910/701
vt 0.737298 0.793979
vt 0.720859 0.547308
vt 0.720859 0.836093
vt 0.720859 0.998535
f 697/911/697 698/912/698 696/913/696 710/914/710
vt 0.747867 0.150228
vt 0.747867 0.065999
vt 0.709222 0.000000
vt 0.709713 0.336735
f 703/915/703 706/916/706 705/917/705 704/918/704
vt 0.766655 0.691701
vt 0.766655 0.559341
vt 0.720859 0.547308
vt 0.737298 0.793979
f 708/919/708 699/920/699 698/921/698 697/922/697
vt 0.208755 0.886225
vt 0.208755 0.000000
vt 0.153983 0.000000
vt 0.153983 0.886225
f 712/923/712 713/924/713 711/925/711 714/926/714
vt 0.049370 0.000000
vt 0.049370 0.359488
vt 0.094971 0.359140
vt 0.094971 0.000000
f 716/927/716 717/928/717 715/929/715 718/930/718
vt 0.152518 0.763351
vt 0.152518 0.000000
vt 0.096436 0.000000
vt 0.096436 0.763351
f 720/931/720 721/932/721 719/933/719 722/934/722
vt 0.000000 0.000000
vt 0.000000 0.055840
vt 0.047905 0.055840
vt 0.047905 0.000000
f 725/935/725 723/936/723 724/937/724 726/938/726
vt 0.881764 0.998535
vt 0.605037 0.324524
vt 0.921296 0.371330
vt 0.921296 0.998535
f 727/939/727 728/940/728 729/941/729 732/942/732
vt 0.605037 0.324524
vt 0.605037 0.027711
vt 0.627000 0.000000
vt 0.921296 0.371330
f 728/943/728 730/944/730 731/945/731 729/946/729
vt 0.210220 0.371330
vt 0.526363 0.324524
vt 0.249738 0.998535
vt 0.210220 0.998535
f 735/947/735 733/948/733 734/949/734 738/950/738
vt 0.504620 0.000000
vt 0.526363 0.027424
vt 0.526363 0.324524
vt 0.210220 0.371330
f 737/951/737 736/952/736 733/953/733 735/954/735
vt 0.153983 0.000000
vt 0.208755 0.000000
vt 0.208755 0.886225
vt 0.153983 0.886225
f 739/955/739 740/956/740 741/957/741 742/958/742
vt 0.094971 0.359140
vt 0.049370 0.359488
vt 0.049370 0.000000
vt 0.094971 0.000000
f 743/959/743 744/960/744 745/961/745 746/962/746
vt 0.096436 0.000000
vt 0.152518 0.000000
vt 0.152518 0.763351
vt 0.096436 0.763351
f 747/963/747 748/964/748 749/965/749 750/966/750
vt 0.047905 0.055840
vt 0.000000 0.055840
vt 0.000000 0.000000
vt 0.047905 0.000000
f 753/967/753 751/968/751 752/969/752 754/970/754
vt 0.921296 0.371330
vt 0.605037 0.324524
vt 0.881764 0.998535
vt 0.921296 0.998535
f 756/971/756 757/972/757 755/973/755 760/974/760
vt 0.627000 0.000000
vt 0.605037 0.027711
vt 0.605037 0.324524
vt 0.921296 0.371330
f 758/975/758 759/976/759 757/977/757 756/978/756
vt 0.249738 0.998535
vt 0.526363 0.324524
vt 0.210220 0.371330
vt 0.210220 0.998535
f 763/979/763 761/980/761 762/981/762 766/982/766
vt 0.526363 0.324524
vt 0.526363 0.027424
vt 0.504620 0.000000
vt 0.210220 0.371330
f 761/983/761 764/984/764 765/985/765 762/986/762
