mtllib midwife.mtl
usemtl tex0_0
v 1.653864 1.218849 1.682052
vn -0.303036 -0.951069 0.060304
v 1.576650 0.443085 7.404921
vn -0.637800 -0.732584 -0.237762
v 3.436173 0.488106 1.682052
vn -0.649636 -0.752081 -0.111114
v 1.509764 1.296672 -7.501988
vn -0.414435 -0.421360 -0.806659
v 1.576650 1.218849 -7.560262
vn -0.478984 -0.800466 0.360318
v 1.426075 1.354442 -7.525666
vn -0.643442 -0.756187 -0.119013
v 0.770989 1.296672 -7.501988
vn 0.211000 0.372590 -0.903690
v 0.559985 1.145090 -7.740173
vn 0.898330 0.175461 -0.402762
v 1.509764 1.296672 -7.501988
vn -0.414435 -0.421360 -0.806659
v 1.653864 1.218849 -7.483057
vn -0.296012 -0.953918 0.049172
v 1.576650 0.488106 -9.342570
vn -0.751353 -0.587164 0.301177
v 3.364541 0.488106 -7.554689
vn -0.647292 -0.713942 0.267021
v 1.426075 0.520774 -9.877861
vn -0.759041 0.156706 0.631902
v 1.576650 0.416834 -9.619160
vn -0.838653 0.116647 0.532028
v 1.576650 0.228967 -9.516397
vn -0.921267 -0.117995 0.370599
v 1.388792 0.416834 -9.516397
vn -0.107623 0.398093 0.911010
v 1.230527 1.752991 -8.264014
vn -0.278323 -0.960374 -0.014779
v 0.572441 1.684758 -8.430444
vn 0.401436 -0.915854 0.007838
v 0.752324 1.752991 -8.264014
vn 0.224554 -0.960281 -0.165637
v 1.426075 -1.403470 -7.513200
vn -0.569120 0.821618 -0.032356
v 1.426075 -0.558371 -9.917603
vn -0.811220 -0.314278 0.493104
v 1.576650 -1.250502 -7.483057
vn -0.706245 0.688374 0.165407
v 1.576650 -1.250502 1.682052
vn -0.484275 0.873959 -0.040908
v 3.436173 -0.488106 1.682052
vn -0.649636 0.752082 -0.111114
v 1.576650 -0.443085 7.404921
vn -0.561628 0.796623 -0.223530
v 3.436173 -0.488106 -2.799201
vn -0.712969 0.701165 0.006583
v 1.388792 -0.416834 7.590947
vn -0.030653 0.986912 -0.158322
v 1.426075 -0.568301 7.193177
vn -0.227223 0.939257 -0.257226
v 1.495523 -0.416834 7.760386
vn -0.617940 0.739824 -0.266102
v 1.576650 -0.228967 7.590947
vn -0.928568 0.128266 -0.348294
v 3.342439 -0.526528 -7.483057
vn -0.517926 0.849947 0.096662
v 1.444863 -0.540712 -9.567189
vn -0.746794 -0.028527 0.664443
v 0.559985 -0.416834 -9.516397
vn 0.917674 0.021874 0.396732
v 0.559985 -0.416834 8.618682
vn 0.379600 0.921209 -0.085313
v 0.559985 -0.416834 7.590947
vn 0.984215 0.173241 -0.036159
v 0.559985 -0.416834 7.590947
vn 0.984215 0.173241 -0.036159
v 0.559985 -0.270978 0.294827
vn 0.979348 0.059743 -0.193151
v 0.559985 -0.416834 -9.516397
vn 0.917674 0.021874 0.396732
v 0.559985 0.294760 8.740755
vn 0.977654 -0.197413 -0.072258
v 0.559985 0.416834 7.590947
vn 0.985485 -0.152499 -0.074584
v 1.576650 -0.488106 -9.342570
vn -0.688076 0.583998 0.430694
v 0.409410 -0.558371 -9.917603
vn 0.719395 -0.512128 0.469251
v 1.388792 -0.416834 -9.516397
vn -0.220956 0.358096 0.907164
v 0.559985 -1.250502 1.682052
vn 0.915145 -0.401953 0.030713
v 0.559985 0.416834 -9.516397
vn 0.757429 -0.582612 0.294730
v 0.559985 0.708556 -7.483057
vn 0.708004 -0.704416 0.050274
v 0.559985 1.145090 -7.740173
vn 0.898330 0.175461 -0.402762
v 0.559985 1.238844 1.764678
vn 0.800723 -0.476997 0.362375
v 0.559985 0.708556 -1.092399
vn 0.844024 -0.511164 -0.162280
v 1.653864 1.218849 -7.483057
vn -0.296012 -0.953918 0.049172
v 0.572441 1.746678 -9.877861
vn 0.538075 -0.645180 0.542418
v 1.230527 1.746678 -9.877861
vn -0.338700 -0.856144 0.390257
v 0.559985 0.416834 7.590947
vn 0.985485 -0.152499 -0.074584
v 0.559985 0.416834 8.618682
vn 0.379600 -0.921209 -0.085313
v 1.388792 0.416834 7.590947
vn -0.044921 -0.969992 -0.238952
v 0.559985 0.416834 8.618682
vn 0.379600 -0.921209 -0.085313
v 0.559985 -1.250502 -7.483057
vn 0.895697 -0.438788 -0.072059
v 0.558741 0.255104 -10.148791
vn -0.000000 -0.613283 0.789863
v 0.216036 0.000000 -10.148791
vn 0.377224 -0.000000 0.926122
v 0.216036 0.255104 -10.148791
vn 0.456229 -0.467083 0.757423
v 1.495523 0.416834 7.760386
vn -0.648525 -0.694957 -0.310564
v 1.078832 0.416834 8.630653
vn -0.571560 -0.743811 -0.346504
v 1.078832 0.416834 8.630653
vn -0.571560 -0.743811 -0.346504
v 1.026111 0.294760 8.740755
vn -0.927791 -0.160831 -0.336657
v 1.495523 0.416834 7.760386
vn -0.648525 -0.694957 -0.310564
v 1.576650 0.228967 7.590947
vn -0.925634 -0.106737 -0.363054
v 3.364541 -0.488106 -7.554689
vn -0.720812 0.636653 0.274049
v 3.538366 -0.228967 -7.554689
vn -0.677140 0.537510 0.502558
v 3.609998 -0.228967 -2.799201
vn -0.525456 0.850813 0.003697
v 0.558741 -0.255104 -10.148791
vn -0.000000 0.968819 0.247768
v 0.216036 -0.255104 -10.148791
vn 0.456229 0.467083 0.757423
v 1.065977 -0.255104 -10.148791
vn -0.296314 0.322314 0.899062
v 1.065977 0.255104 -10.148791
vn -0.296314 -0.322314 0.899062
v 0.559985 -0.416834 8.618682
vn 0.379600 0.921209 -0.085313
v 0.559985 -0.294760 8.740755
vn 0.967216 0.238480 -0.087290
v 0.682058 -0.416834 8.862829
vn 0.789842 0.588502 0.172672
v 0.559985 -0.294760 8.740755
vn 0.967216 0.238480 -0.087290
v 0.559985 0.294760 8.740755
vn 0.977654 -0.197413 -0.072258
v 0.682058 0.416834 8.862829
vn 0.789842 -0.588502 0.172672
v 1.078832 -0.416834 8.630653
vn -0.571560 0.743811 -0.346504
v 1.495523 -0.416834 7.760386
vn -0.617940 0.739824 -0.266102
v 1.026111 -0.294760 8.740755
vn -0.925996 0.136780 -0.351885
v 1.078832 -0.416834 8.630653
vn -0.571560 0.743811 -0.346504
v 1.576650 -0.228967 7.590947
vn -0.928568 0.128266 -0.348294
v 0.904028 0.416834 8.862829
vn -0.824994 -0.551710 0.122480
v 1.026111 0.294760 8.740755
vn -0.927791 -0.160831 -0.336657
v 1.026111 -0.294760 8.740755
vn -0.925996 0.136780 -0.351885
v 0.904028 -0.416834 8.862829
vn -0.824994 0.551710 0.122480
v 1.576650 0.228967 7.590947
vn -0.925634 -0.106737 -0.363054
v 3.436173 0.488106 -2.799201
vn -0.685286 -0.728255 0.005315
v 3.609998 0.228967 1.682052
vn -0.866770 -0.458806 -0.195466
v 4.685279 0.089880 -2.900502
vn -0.744364 -0.663428 -0.076070
v 3.609998 0.228967 -2.799201
vn -0.600331 -0.799732 0.005682
v 3.342439 0.526528 -7.483057
vn -0.517928 -0.849948 0.096638
v 3.609998 -0.228967 1.682052
vn -0.866770 0.458806 -0.195466
v 4.685279 -0.089880 -2.900502
vn -0.744364 0.663428 -0.076070
v 1.576650 -0.416834 -9.619160
vn -0.747147 0.262181 0.610764
v 1.576650 -0.228967 -9.516397
vn -0.921267 0.117995 0.370599
v 3.538366 0.228967 -7.554689
vn -0.609028 -0.509772 0.607632
v -0.559985 0.416834 -9.516397
vn -0.757429 -0.582612 0.294730
v -0.559985 1.145090 -7.740173
vn -0.958110 -0.017625 -0.285857
v -0.559985 0.708556 -7.483057
vn -0.708004 -0.704416 0.050274
v -0.559985 0.708556 -1.092399
vn -0.844024 -0.511164 -0.162280
v -0.216036 0.255104 -10.148791
vn -0.325648 -0.333395 0.884760
v -1.065977 -0.255104 -10.148791
vn 0.182398 0.198402 0.962999
v -0.558741 0.255104 -10.148791
vn -0.000000 -0.613283 0.789863
v -1.065977 0.255104 -10.148791
vn 0.413922 -0.450242 0.791171
v -0.216036 -0.255104 -10.148791
vn -0.456229 0.467083 0.757423
v -0.216036 0.000000 -10.148791
vn -0.581690 -0.000000 0.813410
v -0.559985 -0.270978 0.294827
vn -0.979348 0.059743 -0.193151
v -0.559985 -0.416834 7.590947
vn -0.949946 0.310458 -0.034900
v -0.559985 -0.416834 -9.516397
vn -0.888697 0.262556 0.375875
v -0.559985 0.416834 7.590947
vn -0.953885 -0.291362 -0.072192
v -0.559985 -0.416834 -9.516397
vn -0.888697 0.262556 0.375875
v -0.409410 -0.558371 -9.917603
vn -0.546857 -0.731696 0.406902
v -1.444863 -0.540712 -9.567189
vn 0.651749 -0.304419 0.694659
v -0.559985 -1.250502 1.682052
vn -0.915145 -0.401953 0.030713
v -0.559985 -1.250502 -7.483057
vn -0.895697 -0.438788 -0.072059
v -1.653864 1.218849 1.682052
vn 0.289144 -0.954652 0.070962
v -3.436173 0.488106 1.682052
vn 0.649636 -0.752081 -0.111114
v -1.576650 0.443085 7.404921
vn 0.637800 -0.732584 -0.237762
v -3.436173 0.488106 -2.799201
vn 0.638435 -0.769663 0.004438
v -1.653864 1.218849 -7.483057
vn 0.235104 -0.965879 0.108648
v -1.576650 0.228967 7.590947
vn 0.925634 -0.106737 -0.363054
v -1.495523 0.416834 7.760386
vn 0.556740 -0.786740 -0.266610
v -1.426075 1.354442 -7.525666
vn 0.535642 -0.759017 -0.370110
v -1.426075 0.520774 -9.877861
vn 0.802996 -0.211275 0.557279
v -1.509764 1.296672 -7.501988
vn 0.574284 -0.595971 -0.561263
v -1.576650 1.218849 -7.560262
vn 0.626843 -0.774691 -0.083199
v -0.770989 1.296672 -7.501988
vn -0.161815 0.436051 -0.885254
v -0.559985 1.145090 -7.740173
vn -0.958110 -0.017625 -0.285857
v -1.230527 1.752991 -8.264014
vn 0.210020 -0.977458 -0.021641
v -0.572441 1.746678 -9.877861
vn -0.417161 -0.826246 0.378543
v -1.230527 1.746678 -9.877861
vn 0.519505 -0.646521 0.558681
v -0.572441 1.684758 -8.430444
vn -0.512976 -0.858357 0.008850
v -0.752324 1.752991 -8.264014
vn -0.224554 -0.960281 -0.165637
v -1.576650 -1.250502 1.682052
vn 0.504718 0.861884 -0.049155
v -3.436173 -0.488106 -2.799201
vn 0.670475 0.741911 0.005667
v -1.576650 -1.250502 -7.483057
vn 0.664127 0.734074 0.141668
v -1.426075 -0.558371 -9.917603
vn 0.888735 -0.053452 0.455295
v -1.426075 -1.403470 -7.513200
vn 0.569120 0.821618 -0.032356
v -1.576650 -0.488106 -9.342570
vn 0.688076 0.583998 0.430694
v -1.576650 -0.228967 -9.516397
vn 0.921267 0.117995 0.370599
v -1.576650 -0.416834 -9.619160
vn 0.747147 0.262181 0.610764
v -1.388792 -0.416834 -9.516397
vn 0.220956 0.358096 0.907164
v -1.388792 -0.416834 7.590947
vn 0.038363 0.979422 -0.198143
v -1.576650 -0.443085 7.404921
vn 0.561628 0.796623 -0.223530
v -1.426075 -0.568301 7.193177
vn 0.227223 0.939257 -0.257226
v -1.495523 -0.416834 7.760386
vn 0.522995 0.822042 -0.225216
v -3.436173 -0.488106 1.682052
vn 0.649636 0.752082 -0.111114
v -0.559985 -0.416834 7.590947
vn -0.949946 0.310458 -0.034900
v -1.388792 0.416834 -9.516397
vn 0.107623 0.398093 0.911010
v -1.576650 0.416834 -9.619160
vn 0.838653 0.116647 0.532028
v -0.559985 0.294760 8.740755
vn -0.977654 -0.197413 -0.072258
v -0.559985 1.238844 1.764678
vn -0.800723 -0.476997 0.362375
v -0.559985 0.416834 7.590947
vn -0.953885 -0.291362 -0.072192
v -0.559985 0.416834 8.618682
vn -0.467733 -0.877596 -0.105121
v -1.388792 0.416834 7.590947
vn 0.059875 -0.946029 -0.318503
v -0.559985 0.416834 8.618682
vn -0.467733 -0.877596 -0.105121
v -0.682058 0.416834 8.862829
vn -0.789842 -0.588502 0.172672
v -0.559985 0.294760 8.740755
vn -0.977654 -0.197413 -0.072258
v -1.078832 0.416834 8.630653
vn 0.571560 -0.743811 -0.346504
v -0.559985 -0.294760 8.740755
vn -0.967216 0.238480 -0.087290
v -0.559985 -0.416834 8.618682
vn -0.467733 0.877596 -0.105121
v -0.559985 -0.294760 8.740755
vn -0.967216 0.238480 -0.087290
v -0.682058 -0.416834 8.862829
vn -0.789842 0.588502 0.172672
v -0.559985 -0.416834 8.618682
vn -0.467733 0.877596 -0.105121
v -3.342439 -0.526528 -7.483057
vn 0.562728 0.816344 0.130077
v -3.364541 -0.488106 -7.554689
vn 0.720812 0.636653 0.274049
v -3.538366 -0.228967 -7.554689
vn 0.677140 0.537510 0.502558
v -0.558741 -0.255104 -10.148791
vn -0.000000 0.968819 0.247768
v -1.078832 -0.416834 8.630653
vn 0.571560 0.743811 -0.346504
v -1.078832 -0.416834 8.630653
vn 0.571560 0.743811 -0.346504
v -1.026111 -0.294760 8.740755
vn 0.925996 0.136780 -0.351885
v -1.495523 -0.416834 7.760386
vn 0.522995 0.822042 -0.225216
v -1.576650 -0.228967 7.590947
vn 0.928568 0.128266 -0.348294
v -0.904028 -0.416834 8.862829
vn 0.824994 0.551710 0.122480
v -1.026111 -0.294760 8.740755
vn 0.925996 0.136780 -0.351885
v -1.576650 -0.228967 7.590947
vn 0.928568 0.128266 -0.348294
v -1.026111 0.294760 8.740755
vn 0.927791 -0.160831 -0.336657
v -0.904028 0.416834 8.862829
vn 0.824994 -0.551710 0.122480
v -1.026111 0.294760 8.740755
vn 0.927791 -0.160831 -0.336657
v -1.576650 0.228967 7.590947
vn 0.925634 -0.106737 -0.363054
v -1.078832 0.416834 8.630653
vn 0.571560 -0.743811 -0.346504
v -1.495523 0.416834 7.760386
vn 0.556740 -0.786740 -0.266610
v -3.364541 0.488106 -7.554689
vn 0.647292 -0.713942 0.267021
v -3.609998 0.228967 -2.799201
vn 0.600331 -0.799732 0.005682
v -3.342439 0.526528 -7.483057
vn 0.562731 -0.816347 0.130044
v -4.685279 0.089880 -2.900502
vn 0.744364 -0.663428 -0.076070
v -3.609998 0.228967 1.682052
vn 0.866770 -0.458806 -0.195466
v -3.538366 0.228967 -7.554689
vn 0.609028 -0.509772 0.607632
v -4.685279 -0.089880 -2.900502
vn 0.744364 0.663428 -0.076070
v -3.609998 -0.228967 -2.799201
vn 0.525456 0.850813 0.003697
v -3.609998 -0.228967 1.682052
vn 0.866770 0.458806 -0.195466
v -1.576650 0.488106 -9.342570
vn 0.786689 -0.538954 0.301079
v -1.576650 0.228967 -9.516397
vn 0.921267 -0.117995 0.370599
v 1.411843 1.350066 1.872369
vn -0.193138 -0.970823 0.142130
v 0.559985 1.238844 1.764678
vn 0.800723 -0.476997 0.362375
v 0.423641 1.350066 1.872369
vn 0.490235 -0.741876 0.457481
v 0.423641 0.539743 7.432017
vn 0.466679 -0.746275 -0.474641
v 1.411843 0.539743 7.432017
vn -0.185286 -0.932324 -0.310550
v 0.423641 1.350066 1.872369
vn 0.490235 -0.741876 0.457481
v 0.423641 0.539743 7.432017
vn 0.466679 -0.746275 -0.474641
v 0.687299 1.354442 -7.525666
vn 0.354096 -0.495266 -0.793301
v 1.426075 0.520774 -9.877861
vn -0.759041 0.156706 0.631902
v 1.230527 1.746678 -9.877861
vn -0.338700 -0.856144 0.390257
v 1.230527 1.752991 -8.264014
vn -0.278323 -0.960374 -0.014779
v 1.426075 1.354442 -7.525666
vn -0.643442 -0.756187 -0.119013
v 0.559985 0.416834 -9.516397
vn 0.757429 -0.582612 0.294730
v 0.409410 0.520774 -9.877861
vn 0.698807 0.568025 0.434760
v 0.752324 1.752991 -8.264014
vn 0.224554 -0.960281 -0.165637
v 0.572441 1.684758 -8.430444
vn 0.401436 -0.915854 0.007838
v 0.409410 1.249021 -7.782792
vn 0.910446 0.050260 -0.410562
v 0.687299 1.354442 -7.525666
vn 0.354096 -0.495266 -0.793301
v 1.426075 -1.403470 1.692790
vn -0.361869 0.929557 -0.070529
v 0.409410 -0.568301 7.193177
vn 0.459300 0.840837 -0.286420
v 0.409410 -1.403470 1.692790
vn 0.932342 0.360622 -0.026281
v 0.409410 -1.403470 -7.513200
vn 0.923138 0.321748 -0.210462
v 0.409410 -1.403470 1.692790
vn 0.932342 0.360622 -0.026281
v 0.409410 -1.403470 -7.513200
vn 0.923138 0.321748 -0.210462
v 0.588704 -1.762694 -8.310041
vn 0.414800 0.896331 -0.156627
v 1.246781 -1.762694 -8.310041
vn -0.414800 0.896331 -0.156627
v 0.409410 -0.558371 -9.917603
vn 0.719395 -0.512128 0.469251
v 1.246781 -1.762694 -8.310041
vn -0.414800 0.896331 -0.156627
v 1.246781 -1.764327 -9.917603
vn -0.523858 0.643857 0.557692
v 1.426075 -0.558371 -9.917603
vn -0.811220 -0.314278 0.493104
v 1.426075 -1.403470 -7.513200
vn -0.569120 0.821618 -0.032356
v 0.588704 -1.764327 -9.917603
vn 0.523858 0.643857 0.557692
v 1.246781 -1.764327 -9.917603
vn -0.523858 0.643857 0.557692
v 1.246781 -1.764327 -9.917603
vn -0.523858 0.643857 0.557692
v 0.588704 -1.764327 -9.917603
vn 0.523858 0.643857 0.557692
v 0.409410 -0.558371 -9.917603
vn 0.719395 -0.512128 0.469251
v 1.426075 -0.558371 -9.917603
vn -0.811220 -0.314278 0.493104
v 0.409410 -0.568301 7.193177
vn 0.459300 0.840837 -0.286420
v 0.588704 -1.764327 -9.917603
vn 0.523858 0.643857 0.557692
v 0.588704 -1.762694 -8.310041
vn 0.414800 0.896331 -0.156627
v 0.558741 -0.255104 -10.148791
vn -0.000000 0.968819 0.247768
v 1.065977 -0.255104 -10.148791
vn -0.296314 0.322314 0.899062
v 1.388792 -0.416834 -9.516397
vn -0.220956 0.358096 0.907164
v 1.388792 0.416834 -9.516397
vn -0.107623 0.398093 0.911010
v 1.576650 0.416834 -9.619160
vn -0.838653 0.116647 0.532028
v 1.576650 -0.416834 -9.619160
vn -0.747147 0.262181 0.610764
v 0.409410 0.520774 -9.877861
vn 0.698807 0.568025 0.434760
v 0.572441 1.746678 -9.877861
vn 0.538075 -0.645180 0.542418
v 1.230527 1.746678 -9.877861
vn -0.338700 -0.856144 0.390257
v 1.426075 0.520774 -9.877861
vn -0.759041 0.156706 0.631902
v 0.409410 0.520774 -9.877861
vn 0.698807 0.568025 0.434760
v 1.065977 0.255104 -10.148791
vn -0.296314 -0.322314 0.899062
v 0.558741 0.255104 -10.148791
vn -0.000000 -0.613283 0.789863
v 0.770989 1.296672 -7.501988
vn 0.211000 0.372590 -0.903690
v 0.572441 1.746678 -9.877861
vn 0.538075 -0.645180 0.542418
v 0.216036 0.255104 -10.148791
vn 0.456229 -0.467083 0.757423
v 0.000000 0.416834 -9.516397
vn -0.000000 -0.939669 0.342085
v 0.216036 0.255104 -10.148791
vn 0.456229 -0.467083 0.757423
v 0.216036 0.000000 -10.148791
vn 0.377224 -0.000000 0.926122
v 0.000000 0.000000 -9.516397
vn -0.000000 -0.000000 1.000000
v 0.000000 0.416834 -9.516397
vn -0.000000 -0.939669 0.342085
v 0.000000 0.708556 -7.483057
vn 0.000000 -0.997463 0.071188
v 0.559985 0.708556 -7.483057
vn 0.708004 -0.704416 0.050274
v -0.559985 0.416834 -9.516397
vn -0.757429 -0.582612 0.294730
v -0.559985 0.708556 -7.483057
vn -0.708004 -0.704416 0.050274
v -0.216036 0.255104 -10.148791
vn -0.325648 -0.333395 0.884760
v -0.558741 0.255104 -10.148791
vn -0.000000 -0.613283 0.789863
v 0.000000 0.708556 -1.092399
vn 0.000000 -0.953121 -0.302589
v 0.559985 0.708556 -1.092399
vn 0.844024 -0.511164 -0.162280
v 0.000000 -0.270978 0.294827
vn -0.000000 0.295496 -0.955344
v 0.559985 -0.270978 0.294827
vn 0.979348 0.059743 -0.193151
v 0.559985 -0.270978 0.294827
vn 0.979348 0.059743 -0.193151
v 0.000000 -0.270978 0.294827
vn -0.000000 0.295496 -0.955344
v 0.000000 -0.416834 -9.516397
vn -0.000000 0.962335 0.271867
v -0.559985 0.708556 -1.092399
vn -0.844024 -0.511164 -0.162280
v -0.559985 -0.270978 0.294827
vn -0.979348 0.059743 -0.193151
v -0.559985 -0.270978 0.294827
vn -0.979348 0.059743 -0.193151
v 0.216036 -0.255104 -10.148791
vn 0.456229 0.467083 0.757423
v 0.000000 -0.416834 -9.516397
vn -0.000000 0.962335 0.271867
v -0.216036 -0.255104 -10.148791
vn -0.456229 0.467083 0.757423
v -0.216036 0.000000 -10.148791
vn -0.581690 -0.000000 0.813410
v -0.558741 -0.255104 -10.148791
vn -0.000000 0.968819 0.247768
v -0.216036 -0.255104 -10.148791
vn -0.456229 0.467083 0.757423
v 1.065977 -0.255104 -10.148791
vn -0.296314 0.322314 0.899062
v 1.065977 0.255104 -10.148791
vn -0.296314 -0.322314 0.899062
v 0.559985 -0.294760 10.148791
vn 0.610132 0.505449 -0.610132
v 0.559985 0.294760 10.148791
vn 0.610132 -0.505449 -0.610132
v 0.559985 0.294760 10.148791
vn 0.610132 -0.505449 -0.610132
v 0.682058 0.416834 10.026718
vn 0.555332 -0.673029 -0.488507
v 0.682058 0.416834 8.862829
vn 0.789842 -0.588502 0.172672
v 0.743105 1.768077 8.467280
vn 0.631429 -0.483025 0.606617
v 0.842991 1.768077 8.467280
vn -0.631431 -0.483022 0.606618
v 0.904028 0.416834 8.862829
vn -0.824994 -0.551710 0.122480
v 0.904028 0.416834 10.026718
vn -0.555323 -0.673036 -0.488507
v 1.026111 0.294760 10.148791
vn -0.610122 -0.505460 -0.610132
v 0.904028 0.416834 8.862829
vn -0.824994 -0.551710 0.122480
v 0.842991 1.768077 8.467280
vn -0.631431 -0.483022 0.606618
v 0.842991 1.768077 8.991036
vn -0.478326 -0.791697 -0.380026
v 0.904028 0.416834 10.026718
vn -0.555323 -0.673036 -0.488507
v 0.682058 -0.416834 10.026718
vn 0.555332 0.673029 -0.488507
v 0.559985 -0.294760 10.148791
vn 0.610132 0.505449 -0.610132
v 0.682058 -0.416834 8.862829
vn 0.789842 0.588502 0.172672
v 0.743105 -1.768077 8.467280
vn 0.631429 0.483025 0.606617
v 0.743105 -1.768077 8.991036
vn 0.478324 0.791699 -0.380025
v 0.682058 -0.416834 10.026718
vn 0.555332 0.673029 -0.488507
v 0.559985 -0.294760 10.148791
vn 0.610132 0.505449 -0.610132
v 1.026111 -0.294760 10.148791
vn -0.610122 0.505460 -0.610132
v 1.026111 0.294760 10.148791
vn -0.610122 -0.505460 -0.610132
v 0.559985 0.294760 10.148791
vn 0.610132 -0.505449 -0.610132
v 0.904028 -0.416834 10.026718
vn -0.555323 0.673036 -0.488507
v 1.026111 -0.294760 10.148791
vn -0.610122 0.505460 -0.610132
v 0.682058 -0.416834 10.026718
vn 0.555332 0.673029 -0.488507
v 0.743105 -1.768077 8.991036
vn 0.478324 0.791699 -0.380025
v 0.842991 -1.768077 8.991036
vn -0.478326 0.791697 -0.380026
v 0.904028 -0.416834 10.026718
vn -0.555323 0.673036 -0.488507
v 3.609998 -0.228967 1.682052
vn -0.866770 0.458806 -0.195466
v 3.609998 0.228967 1.682052
vn -0.866770 -0.458806 -0.195466
v 1.026111 0.294760 10.148791
vn -0.610122 -0.505460 -0.610132
v 1.026111 -0.294760 10.148791
vn -0.610122 0.505460 -0.610132
v 0.904028 -0.416834 8.862829
vn -0.824994 0.551710 0.122480
v 0.842991 -1.768077 8.467280
vn -0.631431 0.483022 0.606618
v 0.743105 -1.768077 8.467280
vn 0.631429 0.483025 0.606617
v 0.682058 -0.416834 8.862829
vn 0.789842 0.588502 0.172672
v 0.904028 0.416834 10.026718
vn -0.555323 -0.673036 -0.488507
v 0.842991 1.768077 8.991036
vn -0.478326 -0.791697 -0.380026
v 0.743105 1.768077 8.991036
vn 0.478324 -0.791699 -0.380025
v 0.682058 0.416834 10.026718
vn 0.555332 -0.673029 -0.488507
v 0.682058 0.416834 10.026718
vn 0.555332 -0.673029 -0.488507
v 0.743105 1.768077 8.991036
vn 0.478324 -0.791699 -0.380025
v 0.743105 1.768077 8.467280
vn 0.631429 -0.483025 0.606617
v 0.682058 0.416834 8.862829
vn 0.789842 -0.588502 0.172672
v 0.904028 -0.416834 10.026718
vn -0.555323 0.673036 -0.488507
v 0.842991 -1.768077 8.991036
vn -0.478326 0.791697 -0.380026
v 0.842991 -1.768077 8.467280
vn -0.631431 0.483022 0.606618
v 0.904028 -0.416834 8.862829
vn -0.824994 0.551710 0.122480
v 0.743105 -1.768077 8.991036
vn 0.478324 0.791699 -0.380025
v 0.842991 -1.768077 8.991036
vn -0.478326 0.791697 -0.380026
v 0.743105 1.768077 8.991036
vn 0.478324 -0.791699 -0.380025
v 0.842991 1.768077 8.991036
vn -0.478326 -0.791697 -0.380026
v 4.685279 -0.089880 -2.900502
vn -0.744364 0.663428 -0.076070
v 4.685279 0.089880 -2.900502
vn -0.744364 -0.663428 -0.076070
v 4.685279 0.089880 -7.483057
vn -0.644393 -0.538884 0.542551
v 4.685279 -0.089880 -7.483057
vn -0.644393 0.538884 0.542551
v 4.685279 0.089880 -7.483057
vn -0.644393 -0.538884 0.542551
v 4.685279 -0.089880 -7.483057
vn -0.644393 0.538884 0.542551
v 1.576650 0.228967 -9.516397
vn -0.921267 -0.117995 0.370599
v 1.576650 -0.228967 -9.516397
vn -0.921267 0.117995 0.370599
v 3.538366 0.228967 -7.554689
vn -0.609028 -0.509772 0.607632
v 3.538366 -0.228967 -7.554689
vn -0.677140 0.537510 0.502558
v 0.216036 -0.255104 -10.148791
vn 0.456229 0.467083 0.757423
v -0.216036 0.255104 -10.148791
vn -0.325648 -0.333395 0.884760
v -0.409410 0.520774 -9.877861
vn -0.698807 0.568025 0.434760
v -1.065977 0.255104 -10.148791
vn 0.413922 -0.450242 0.791171
v -0.409410 -1.403470 -7.513200
vn -0.923138 0.321748 -0.210462
v -0.409410 -0.558371 -9.917603
vn -0.546857 -0.731696 0.406902
v -1.411843 1.350066 1.872369
vn 0.193138 -0.970823 0.142130
v -0.423641 1.350066 1.872369
vn -0.490235 -0.741876 0.457481
v -0.559985 1.238844 1.764678
vn -0.800723 -0.476997 0.362375
v -1.411843 0.539743 7.432017
vn 0.185286 -0.932324 -0.310550
v -0.423641 0.539743 7.432017
vn -0.466679 -0.746275 -0.474641
v -0.687299 1.354442 -7.525666
vn -0.354096 -0.495266 -0.793301
v -0.770989 1.296672 -7.501988
vn -0.161815 0.436051 -0.885254
v -0.409410 1.249021 -7.782792
vn -0.910446 0.050260 -0.410562
v -0.687299 1.354442 -7.525666
vn -0.354096 -0.495266 -0.793301
v -1.230527 1.752991 -8.264014
vn 0.210020 -0.977458 -0.021641
v -1.230527 1.746678 -9.877861
vn 0.519505 -0.646521 0.558681
v -1.426075 0.520774 -9.877861
vn 0.802996 -0.211275 0.557279
v -1.426075 1.354442 -7.525666
vn 0.535642 -0.759017 -0.370110
v -1.230527 1.746678 -9.877861
vn 0.519505 -0.646521 0.558681
v -0.572441 1.746678 -9.877861
vn -0.417161 -0.826246 0.378543
v -0.409410 0.520774 -9.877861
vn -0.698807 0.568025 0.434760
v -1.426075 0.520774 -9.877861
vn 0.802996 -0.211275 0.557279
v -1.426075 -1.403470 1.692790
vn 0.361869 0.929557 -0.070529
v -0.409410 -1.403470 -7.513200
vn -0.923138 0.321748 -0.210462
v -0.409410 -1.403470 1.692790
vn -0.932342 0.360622 -0.026281
v -0.409410 -0.568301 7.193177
vn -0.459300 0.840837 -0.286420
v -0.409410 -1.403470 1.692790
vn -0.932342 0.360622 -0.026281
v -0.409410 -0.568301 7.193177
vn -0.459300 0.840837 -0.286420
v -1.246781 -1.762694 -8.310041
vn 0.414800 0.896331 -0.156627
v -0.588704 -1.762694 -8.310041
vn -0.414800 0.896331 -0.156627
v -1.426075 -0.558371 -9.917603
vn 0.888735 -0.053452 0.455295
v -1.246781 -1.764327 -9.917603
vn 0.523858 0.643857 0.557692
v -1.246781 -1.762694 -8.310041
vn 0.414800 0.896331 -0.156627
v -1.426075 -1.403470 -7.513200
vn 0.569120 0.821618 -0.032356
v -1.246781 -1.764327 -9.917603
vn 0.523858 0.643857 0.557692
v -0.588704 -1.764327 -9.917603
vn -0.523858 0.643857 0.557692
v -0.588704 -1.762694 -8.310041
vn -0.414800 0.896331 -0.156627
v -0.588704 -1.764327 -9.917603
vn -0.523858 0.643857 0.557692
v -1.388792 -0.416834 -9.516397
vn 0.220956 0.358096 0.907164
v -1.576650 -0.416834 -9.619160
vn 0.747147 0.262181 0.610764
v -1.576650 0.416834 -9.619160
vn 0.838653 0.116647 0.532028
v -1.388792 0.416834 -9.516397
vn 0.107623 0.398093 0.911010
v -1.065977 -0.255104 -10.148791
vn 0.182398 0.198402 0.962999
v -0.409410 -0.558371 -9.917603
vn -0.546857 -0.731696 0.406902
v -0.588704 -1.764327 -9.917603
vn -0.523858 0.643857 0.557692
v -1.246781 -1.764327 -9.917603
vn 0.523858 0.643857 0.557692
v -1.426075 -0.558371 -9.917603
vn 0.888735 -0.053452 0.455295
v -0.409410 0.520774 -9.877861
vn -0.698807 0.568025 0.434760
v -1.065977 0.255104 -10.148791
vn 0.413922 -0.450242 0.791171
v -1.065977 -0.255104 -10.148791
vn 0.182398 0.198402 0.962999
v -0.572441 1.746678 -9.877861
vn -0.417161 -0.826246 0.378543
v -0.572441 1.684758 -8.430444
vn -0.512976 -0.858357 0.008850
v -0.752324 1.752991 -8.264014
vn -0.224554 -0.960281 -0.165637
v -0.423641 1.350066 1.872369
vn -0.490235 -0.741876 0.457481
v -0.423641 0.539743 7.432017
vn -0.466679 -0.746275 -0.474641
v -0.559985 0.294760 10.148791
vn -0.610132 -0.505449 -0.610132
v -0.559985 -0.294760 10.148791
vn -0.610132 0.505449 -0.610132
v -0.682058 0.416834 10.026718
vn -0.555332 -0.673029 -0.488507
v -0.559985 0.294760 10.148791
vn -0.610132 -0.505449 -0.610132
v -0.559985 0.294760 10.148791
vn -0.610132 -0.505449 -0.610132
v -1.026111 0.294760 10.148791
vn 0.610122 -0.505460 -0.610132
v -1.026111 -0.294760 10.148791
vn 0.610122 0.505460 -0.610132
v -0.559985 -0.294760 10.148791
vn -0.610132 0.505449 -0.610132
v -0.559985 -0.294760 10.148791
vn -0.610132 0.505449 -0.610132
v -0.682058 -0.416834 10.026718
vn -0.555332 0.673029 -0.488507
v -0.682058 0.416834 8.862829
vn -0.789842 -0.588502 0.172672
v -0.743105 1.768077 8.467280
vn -0.631429 -0.483025 0.606617
v -0.743105 1.768077 8.991036
vn -0.478324 -0.791699 -0.380025
v -0.682058 0.416834 10.026718
vn -0.555332 -0.673029 -0.488507
v -0.904028 0.416834 10.026718
vn 0.555323 -0.673036 -0.488507
v -1.026111 0.294760 10.148791
vn 0.610122 -0.505460 -0.610132
v -0.682058 0.416834 10.026718
vn -0.555332 -0.673029 -0.488507
v -0.743105 1.768077 8.991036
vn -0.478324 -0.791699 -0.380025
v -0.842991 1.768077 8.991036
vn 0.478326 -0.791697 -0.380026
v -0.904028 0.416834 10.026718
vn 0.555323 -0.673036 -0.488507
v -0.682058 -0.416834 8.862829
vn -0.789842 0.588502 0.172672
v -0.743105 -1.768077 8.467280
vn -0.631429 0.483025 0.606617
v -0.842991 -1.768077 8.467280
vn 0.631431 0.483022 0.606618
v -0.904028 -0.416834 8.862829
vn 0.824994 0.551710 0.122480
v -0.904028 -0.416834 10.026718
vn 0.555323 0.673036 -0.488507
v -1.026111 -0.294760 10.148791
vn 0.610122 0.505460 -0.610132
v -0.904028 -0.416834 8.862829
vn 0.824994 0.551710 0.122480
v -0.842991 -1.768077 8.467280
vn 0.631431 0.483022 0.606618
v -0.842991 -1.768077 8.991036
vn 0.478326 0.791697 -0.380026
v -0.904028 -0.416834 10.026718
vn 0.555323 0.673036 -0.488507
v -1.026111 -0.294760 10.148791
vn 0.610122 0.505460 -0.610132
v -1.026111 0.294760 10.148791
vn 0.610122 -0.505460 -0.610132
v -0.904028 -0.416834 10.026718
vn 0.555323 0.673036 -0.488507
v -0.842991 -1.768077 8.991036
vn 0.478326 0.791697 -0.380026
v -0.743105 -1.768077 8.991036
vn -0.478324 0.791699 -0.380025
v -0.682058 -0.416834 10.026718
vn -0.555332 0.673029 -0.488507
v -0.904028 0.416834 8.862829
vn 0.824994 -0.551710 0.122480
v -0.842991 1.768077 8.467280
vn 0.631431 -0.483022 0.606618
v -0.743105 1.768077 8.467280
vn -0.631429 -0.483025 0.606617
v -0.682058 0.416834 8.862829
vn -0.789842 -0.588502 0.172672
v -3.609998 0.228967 1.682052
vn 0.866770 -0.458806 -0.195466
v -3.609998 -0.228967 1.682052
vn 0.866770 0.458806 -0.195466
v -0.904028 0.416834 10.026718
vn 0.555323 -0.673036 -0.488507
v -0.842991 1.768077 8.991036
vn 0.478326 -0.791697 -0.380026
v -0.842991 1.768077 8.467280
vn 0.631431 -0.483022 0.606618
v -0.904028 0.416834 8.862829
vn 0.824994 -0.551710 0.122480
v -0.682058 -0.416834 10.026718
vn -0.555332 0.673029 -0.488507
v -0.743105 -1.768077 8.991036
vn -0.478324 0.791699 -0.380025
v -0.743105 -1.768077 8.467280
vn -0.631429 0.483025 0.606617
v -0.682058 -0.416834 8.862829
vn -0.789842 0.588502 0.172672
v -0.743105 -1.768077 8.991036
vn -0.478324 0.791699 -0.380025
v -0.842991 -1.768077 8.991036
vn 0.478326 0.791697 -0.380026
v -0.842991 1.768077 8.991036
vn 0.478326 -0.791697 -0.380026
v -0.743105 1.768077 8.991036
vn -0.478324 -0.791699 -0.380025
v -4.685279 0.089880 -7.483057
vn 0.644393 -0.538884 0.542551
v -4.685279 0.089880 -2.900502
vn 0.744364 -0.663428 -0.076070
v -4.685279 -0.089880 -2.900502
vn 0.744364 0.663428 -0.076070
v -4.685279 0.089880 -7.483057
vn 0.644393 -0.538884 0.542551
v -4.685279 -0.089880 -7.483057
vn 0.644393 0.538884 0.542551
v -4.685279 -0.089880 -7.483057
vn 0.644393 0.538884 0.542551
v -1.576650 -0.228967 -9.516397
vn 0.921267 0.117995 0.370599
v -1.576650 0.228967 -9.516397
vn 0.921267 -0.117995 0.370599
v -3.538366 -0.228967 -7.554689
vn 0.677140 0.537510 0.502558
v -3.538366 0.228967 -7.554689
vn 0.609028 -0.509772 0.607632
vt 0.594103 0.534650
vt 0.865496 0.532937
vt 0.596861 0.629285
f 1/1/1 2/2/2 3/3/3
vt 0.156140 0.528111
vt 0.157248 0.543227
vt 0.152027 0.538143
f 4/4/4 5/5/5 6/6/6
vt 0.156140 0.528111
vt 0.155394 0.494335
vt 0.160308 0.485473
f 4/7/4 7/8/7 8/9/8
vt 0.160974 0.546656
vt 0.156140 0.528111
vt 0.157248 0.543227
f 9/10/9 10/11/10 5/12/5
vt 0.157248 0.543227
vt 0.076923 0.543474
vt 0.152027 0.538143
f 5/13/5 11/14/11 6/15/6
vt 0.157248 0.543227
vt 0.158367 0.632441
vt 0.076923 0.543474
f 5/16/5 12/17/12 11/18/11
vt 0.076923 0.543474
vt 0.053924 0.536591
vt 0.152027 0.538143
f 11/19/11 13/20/13 6/21/6
vt 0.076923 0.543474
vt 0.052814 0.543274
vt 0.053924 0.536591
f 11/22/11 14/23/14 13/24/13
vt 0.076923 0.543474
vt 0.064195 0.556381
vt 0.052814 0.543274
f 11/25/11 15/26/15 14/27/14
vt 0.053924 0.536591
vt 0.052814 0.543274
vt 0.038363 0.517567
f 13/28/13 14/29/14 16/30/16
vt 0.132232 0.531153
vt 0.123792 0.491761
vt 0.131749 0.501506
f 17/31/17 18/32/18 19/33/19
vt 0.860128 0.821116
vt 0.955313 0.820095
vt 0.859931 0.829891
f 20/34/20 21/35/21 22/36/22
vt 0.421178 0.829891
vt 0.419408 0.923583
vt 0.145264 0.829891
f 23/37/23 24/38/24 25/39/25
vt 0.421178 0.829891
vt 0.634802 0.923583
vt 0.419408 0.923583
f 23/40/23 26/41/26 24/42/24
vt 0.145264 0.829891
vt 0.136395 0.823348
vt 0.155652 0.821116
f 25/43/25 27/44/27 28/45/28
vt 0.145264 0.829891
vt 0.128194 0.828139
vt 0.136395 0.823348
f 25/46/25 29/47/29 27/48/27
vt 0.145264 0.829891
vt 0.136100 0.834547
vt 0.128194 0.828139
f 25/49/25 30/50/30 29/51/29
vt 0.859931 0.829891
vt 0.860024 0.923583
vt 0.421178 0.829891
f 22/52/22 31/53/31 23/54/23
vt 0.955313 0.820095
vt 0.951422 0.823691
vt 0.859931 0.829891
f 21/55/21 32/56/32 22/57/22
vt 0.955313 0.820095
vt 0.964413 0.764704
vt 0.951422 0.823691
f 21/58/21 33/59/33 32/60/32
vt 0.136395 0.823348
vt 0.087431 0.784281
vt 0.136830 0.785099
f 27/61/27 34/62/34 35/63/35
vt 0.136395 0.823348
vt 0.128194 0.828139
vt 0.087431 0.784281
f 27/64/27 29/65/29 34/66/34
vt 0.862012 0.171333
vt 0.510578 0.185362
vt 0.037670 0.187765
f 36/67/36 37/68/37 38/69/38
vt 0.862012 0.171333
vt 0.918100 0.204483
vt 0.862812 0.211463
f 36/70/36 39/71/39 40/72/40
vt 0.951422 0.823691
vt 0.950581 0.839957
vt 0.859931 0.829891
f 32/73/32 41/74/41 22/75/22
vt 0.955846 0.773176
vt 0.964413 0.764704
vt 0.955313 0.820095
f 42/76/42 33/77/33 21/78/21
vt 0.964413 0.764704
vt 0.963764 0.823659
vt 0.951422 0.823691
f 33/79/33 43/80/43 32/81/32
vt 0.037670 0.187765
vt 0.576483 0.136879
vt 0.862012 0.171333
f 38/82/38 44/83/44 36/84/36
vt 0.038470 0.227895
vt 0.136730 0.239985
vt 0.124759 0.261245
f 45/85/45 46/86/46 47/87/47
vt 0.124759 0.261245
vt 0.862812 0.211463
vt 0.582855 0.256628
f 47/88/47 40/89/40 48/90/48
vt 0.124759 0.261245
vt 0.444673 0.233846
vt 0.862812 0.211463
f 47/91/47 49/92/49 40/93/40
vt 0.160308 0.485473
vt 0.160974 0.546656
vt 0.156140 0.528111
f 8/94/8 50/95/50 4/96/4
vt 0.055308 0.493324
vt 0.123792 0.491761
vt 0.055973 0.534122
f 51/97/51 18/98/18 52/99/52
vt 0.055973 0.534122
vt 0.123792 0.491761
vt 0.132232 0.531153
f 52/100/52 18/101/18 17/102/17
vt 0.873295 0.485473
vt 0.921865 0.485473
vt 0.874132 0.524419
f 53/103/53 54/104/54 55/105/55
vt 0.862812 0.211463
vt 0.510578 0.185362
vt 0.862012 0.171333
f 40/106/40 37/107/37 36/108/36
vt 0.862812 0.211463
vt 0.918100 0.204483
vt 0.912335 0.210476
f 40/109/40 39/110/39 56/111/56
vt 0.134849 0.145682
vt 0.576483 0.136879
vt 0.037670 0.187765
f 57/112/57 44/113/44 38/114/38
vt 0.940895 0.531899
vt 0.914680 0.551413
vt 0.914680 0.531899
f 58/115/58 59/116/59 60/117/60
vt 0.921865 0.485473
vt 0.882247 0.529077
vt 0.874132 0.524419
f 54/118/54 61/119/61 55/120/55
vt 0.922954 0.508886
vt 0.882247 0.529077
vt 0.921865 0.485473
f 62/121/62 61/122/61 54/123/54
vt 0.071446 0.734268
vt 0.061556 0.728392
vt 0.114508 0.734268
f 63/124/63 64/125/64 65/126/65
vt 0.114508 0.734268
vt 0.061556 0.728392
vt 0.122893 0.725013
f 65/127/65 64/128/64 66/129/66
vt 0.136730 0.239985
vt 0.444673 0.233846
vt 0.124759 0.261245
f 46/130/46 49/131/49 47/132/47
vt 0.444673 0.233846
vt 0.510578 0.185362
vt 0.862812 0.211463
f 49/133/49 37/134/37 40/135/40
vt 0.860024 0.923583
vt 0.634802 0.923583
vt 0.421178 0.829891
f 31/136/31 26/137/26 23/138/23
vt 0.860024 0.923583
vt 0.863415 0.925622
vt 0.634802 0.923583
f 31/139/31 67/140/67 26/141/26
vt 0.634802 0.923583
vt 0.863054 0.935624
vt 0.634441 0.935624
f 26/142/26 68/143/68 69/144/69
vt 0.940895 0.570927
vt 0.914680 0.570927
vt 0.979695 0.570927
f 70/145/70 71/146/71 72/147/72
vt 0.979695 0.570927
vt 0.914680 0.551413
vt 0.979695 0.531899
f 72/148/72 59/149/59 73/150/73
vt 0.979695 0.570927
vt 0.914680 0.570927
vt 0.914680 0.551413
f 72/151/72 71/152/71 59/153/59
vt 0.911535 0.170346
vt 0.917534 0.176105
vt 0.862012 0.171333
f 74/154/74 75/155/75 36/156/36
vt 0.087431 0.784281
vt 0.075632 0.789720
vt 0.081436 0.785827
f 34/157/34 76/158/76 77/159/77
vt 0.917534 0.176105
vt 0.918100 0.204483
vt 0.862012 0.171333
f 75/160/75 39/161/39 36/162/36
vt 0.927794 0.486486
vt 0.937623 0.492212
vt 0.921865 0.485473
f 78/163/78 79/164/79 54/165/54
vt 0.128194 0.828139
vt 0.086583 0.808216
vt 0.087431 0.784281
f 29/166/29 80/167/80 34/168/34
vt 0.114508 0.693195
vt 0.061556 0.699348
vt 0.071446 0.693195
f 81/169/81 82/170/82 83/171/83
vt 0.114508 0.693195
vt 0.122893 0.702451
vt 0.061556 0.699348
f 81/172/81 84/173/84 82/174/82
vt 0.937815 0.500940
vt 0.928264 0.507797
vt 0.922954 0.508886
f 85/175/85 86/176/86 62/177/62
vt 0.081192 0.807339
vt 0.075515 0.799964
vt 0.086583 0.808216
f 87/178/87 88/179/88 80/180/80
vt 0.122893 0.702451
vt 0.122893 0.725013
vt 0.061556 0.699348
f 84/181/84 66/182/66 82/183/82
vt 0.122893 0.725013
vt 0.061556 0.728392
vt 0.061556 0.699348
f 66/184/66 64/185/64 82/186/82
vt 0.874568 0.535264
vt 0.865496 0.532937
vt 0.882247 0.529077
f 89/187/89 2/188/2 61/189/61
vt 0.596861 0.629285
vt 0.385084 0.629285
vt 0.594103 0.534650
f 3/190/3 90/191/90 1/192/1
vt 0.597376 0.640434
vt 0.382080 0.695802
vt 0.385600 0.640434
f 91/193/91 92/194/92 93/195/93
vt 0.385084 0.629285
vt 0.163587 0.629285
vt 0.594103 0.534650
f 90/196/90 94/197/94 1/198/1
vt 0.385084 0.629285
vt 0.158367 0.632441
vt 0.163587 0.629285
f 90/199/90 12/200/12 94/201/94
vt 0.163587 0.629285
vt 0.160974 0.546656
vt 0.594103 0.534650
f 94/202/94 50/203/50 1/204/1
vt 0.163587 0.629285
vt 0.158367 0.632441
vt 0.160974 0.546656
f 94/205/94 12/206/12 50/207/50
vt 0.160974 0.546656
vt 0.158367 0.632441
vt 0.157248 0.543227
f 50/208/50 12/209/12 5/210/5
vt 0.419047 0.935624
vt 0.634441 0.935624
vt 0.638601 0.990054
f 95/211/95 69/212/69 96/213/96
vt 0.385600 0.640434
vt 0.158367 0.632441
vt 0.385084 0.629285
f 93/214/93 12/215/12 90/216/90
vt 0.863415 0.925622
vt 0.863054 0.935624
vt 0.634802 0.923583
f 67/217/67 68/218/68 26/219/26
vt 0.963801 0.841137
vt 0.958666 0.843584
vt 0.950581 0.839957
f 97/220/97 98/221/98 41/222/41
vt 0.979695 0.531899
vt 0.914680 0.551413
vt 0.940895 0.531899
f 73/223/73 59/224/59 58/225/58
vt 0.158882 0.640434
vt 0.158367 0.632441
vt 0.385600 0.640434
f 99/226/99 12/227/12 93/228/93
vt 0.038470 0.227895
vt 0.124759 0.261245
vt 0.136730 0.239985
f 100/229/100 101/230/101 102/231/102
vt 0.136730 0.239985
vt 0.124759 0.261245
vt 0.444673 0.233846
f 102/232/102 101/233/101 103/234/103
vt 0.914680 0.531899
vt 0.979695 0.570927
vt 0.940895 0.531899
f 104/235/104 105/236/105 106/237/106
vt 0.940895 0.531899
vt 0.979695 0.570927
vt 0.979695 0.531899
f 106/238/106 105/239/105 107/240/107
vt 0.914680 0.570927
vt 0.979695 0.570927
vt 0.914680 0.551413
f 108/241/108 105/242/105 109/243/109
vt 0.914680 0.551413
vt 0.979695 0.570927
vt 0.914680 0.531899
f 109/244/109 105/245/105 104/246/104
vt 0.510578 0.185362
vt 0.862012 0.171333
vt 0.037670 0.187765
f 110/247/110 111/248/111 112/249/112
vt 0.510578 0.185362
vt 0.862812 0.211463
vt 0.862012 0.171333
f 110/250/110 113/251/113 111/252/111
vt 0.964413 0.764704
vt 0.955846 0.773176
vt 0.951422 0.823691
f 114/253/114 115/254/115 116/255/116
vt 0.037670 0.187765
vt 0.576483 0.136879
vt 0.134849 0.145682
f 112/256/112 117/257/117 118/258/118
vt 0.037670 0.187765
vt 0.862012 0.171333
vt 0.576483 0.136879
f 112/259/112 111/260/111 117/261/117
vt 0.444673 0.233846
vt 0.862812 0.211463
vt 0.510578 0.185362
f 103/262/103 113/263/113 110/264/110
vt 0.444673 0.233846
vt 0.124759 0.261245
vt 0.862812 0.211463
f 103/265/103 101/266/101 113/267/113
vt 0.594103 0.534650
vt 0.596861 0.629285
vt 0.865496 0.532937
f 119/268/119 120/269/120 121/270/121
vt 0.594103 0.534650
vt 0.385084 0.629285
vt 0.596861 0.629285
f 119/271/119 122/272/122 120/273/120
vt 0.594103 0.534650
vt 0.160974 0.546656
vt 0.385084 0.629285
f 119/274/119 123/275/123 122/276/122
vt 0.865496 0.532937
vt 0.874568 0.535264
vt 0.882247 0.529077
f 121/277/121 124/278/124 125/279/125
vt 0.152027 0.538143
vt 0.053924 0.536591
vt 0.156140 0.528111
f 126/280/126 127/281/127 128/282/128
vt 0.156140 0.528111
vt 0.157248 0.543227
vt 0.155394 0.494335
f 128/283/128 129/284/129 130/285/130
vt 0.155394 0.494335
vt 0.157248 0.543227
vt 0.160308 0.485473
f 130/286/130 129/287/129 131/288/131
vt 0.132232 0.531153
vt 0.055308 0.493324
vt 0.055973 0.534122
f 132/289/132 133/290/133 134/291/134
vt 0.132232 0.531153
vt 0.123792 0.491761
vt 0.055308 0.493324
f 132/292/132 135/293/135 133/294/133
vt 0.132232 0.531153
vt 0.131749 0.501506
vt 0.123792 0.491761
f 132/295/132 136/296/136 135/297/135
vt 0.053924 0.536591
vt 0.157248 0.543227
vt 0.156140 0.528111
f 127/298/127 129/299/129 128/300/128
vt 0.421178 0.829891
vt 0.634802 0.923583
vt 0.859931 0.829891
f 137/301/137 138/302/138 139/303/139
vt 0.859931 0.829891
vt 0.955313 0.820095
vt 0.860128 0.821116
f 139/304/139 140/305/140 141/306/141
vt 0.950581 0.839957
vt 0.951422 0.823691
vt 0.859931 0.829891
f 142/307/142 116/308/116 139/309/139
vt 0.950581 0.839957
vt 0.958666 0.843584
vt 0.963801 0.841137
f 142/310/142 143/311/143 144/312/144
vt 0.951422 0.823691
vt 0.955313 0.820095
vt 0.859931 0.829891
f 116/313/116 140/314/140 139/315/139
vt 0.951422 0.823691
vt 0.963764 0.823659
vt 0.964413 0.764704
f 116/316/116 145/317/145 114/318/114
vt 0.951422 0.823691
vt 0.955846 0.773176
vt 0.955313 0.820095
f 116/319/116 115/320/115 140/321/140
vt 0.136395 0.823348
vt 0.145264 0.829891
vt 0.155652 0.821116
f 146/322/146 147/323/147 148/324/148
vt 0.136395 0.823348
vt 0.128194 0.828139
vt 0.145264 0.829891
f 146/325/146 149/326/149 147/327/147
vt 0.145264 0.829891
vt 0.419408 0.923583
vt 0.421178 0.829891
f 147/328/147 150/329/150 137/330/137
vt 0.136830 0.785099
vt 0.128194 0.828139
vt 0.136395 0.823348
f 151/331/151 149/332/149 146/333/146
vt 0.038363 0.517567
vt 0.052814 0.543274
vt 0.053924 0.536591
f 152/334/152 153/335/153 127/336/127
vt 0.862812 0.211463
vt 0.918100 0.204483
vt 0.862012 0.171333
f 113/337/113 154/338/154 111/339/111
vt 0.862812 0.211463
vt 0.124759 0.261245
vt 0.582855 0.256628
f 113/340/113 101/341/101 155/342/155
vt 0.873295 0.485473
vt 0.882247 0.529077
vt 0.921865 0.485473
f 156/343/156 125/344/125 157/345/157
vt 0.873295 0.485473
vt 0.874132 0.524419
vt 0.882247 0.529077
f 156/346/156 158/347/158 125/348/125
vt 0.912335 0.210476
vt 0.918100 0.204483
vt 0.862812 0.211463
f 159/349/159 154/350/154 113/351/113
vt 0.921865 0.485473
vt 0.937623 0.492212
vt 0.927794 0.486486
f 157/352/157 160/353/160 161/354/161
vt 0.921865 0.485473
vt 0.882247 0.529077
vt 0.922954 0.508886
f 157/355/157 125/356/125 162/357/162
vt 0.918100 0.204483
vt 0.917534 0.176105
vt 0.862012 0.171333
f 154/358/154 163/359/163 111/360/111
vt 0.917534 0.176105
vt 0.911535 0.170346
vt 0.862012 0.171333
f 163/361/163 164/362/164 111/363/111
vt 0.081436 0.785827
vt 0.075632 0.789720
vt 0.087431 0.784281
f 165/364/165 166/365/166 167/366/167
vt 0.087431 0.784281
vt 0.128194 0.828139
vt 0.136830 0.785099
f 167/367/167 149/368/149 151/369/151
vt 0.419408 0.923583
vt 0.634802 0.923583
vt 0.421178 0.829891
f 150/370/150 138/371/138 137/372/137
vt 0.634802 0.923583
vt 0.860024 0.923583
vt 0.859931 0.829891
f 138/373/138 168/374/168 139/375/139
vt 0.634802 0.923583
vt 0.863415 0.925622
vt 0.860024 0.923583
f 138/376/138 169/377/169 168/378/168
vt 0.634802 0.923583
vt 0.863054 0.935624
vt 0.863415 0.925622
f 138/379/138 170/380/170 169/381/169
vt 0.940895 0.570927
vt 0.979695 0.570927
vt 0.914680 0.570927
f 171/382/171 105/383/105 108/384/108
vt 0.086583 0.808216
vt 0.128194 0.828139
vt 0.087431 0.784281
f 172/385/172 149/386/149 167/387/167
vt 0.071446 0.693195
vt 0.061556 0.699348
vt 0.114508 0.693195
f 173/388/173 174/389/174 175/390/175
vt 0.128194 0.828139
vt 0.136100 0.834547
vt 0.145264 0.829891
f 149/391/149 176/392/176 147/393/147
vt 0.075515 0.799964
vt 0.081192 0.807339
vt 0.086583 0.808216
f 177/394/177 178/395/178 172/396/172
vt 0.061556 0.699348
vt 0.122893 0.702451
vt 0.114508 0.693195
f 174/397/174 179/398/179 175/399/175
vt 0.928264 0.507797
vt 0.937815 0.500940
vt 0.922954 0.508886
f 180/400/180 181/401/181 162/402/162
vt 0.061556 0.728392
vt 0.122893 0.725013
vt 0.061556 0.699348
f 182/403/182 183/404/183 174/405/174
vt 0.071446 0.734268
vt 0.114508 0.734268
vt 0.061556 0.728392
f 184/406/184 185/407/185 182/408/182
vt 0.114508 0.734268
vt 0.122893 0.725013
vt 0.061556 0.728392
f 185/409/185 183/410/183 182/411/182
vt 0.122893 0.725013
vt 0.122893 0.702451
vt 0.061556 0.699348
f 183/412/183 179/413/179 174/414/174
vt 0.385084 0.629285
vt 0.158367 0.632441
vt 0.385600 0.640434
f 122/415/122 186/416/186 187/417/187
vt 0.385084 0.629285
vt 0.163587 0.629285
vt 0.158367 0.632441
f 122/418/122 188/419/188 186/420/186
vt 0.385084 0.629285
vt 0.160974 0.546656
vt 0.163587 0.629285
f 122/421/122 123/422/123 188/423/188
vt 0.385600 0.640434
vt 0.382080 0.695802
vt 0.597376 0.640434
f 187/424/187 189/425/189 190/426/190
vt 0.385600 0.640434
vt 0.158367 0.632441
vt 0.158882 0.640434
f 187/427/187 186/428/186 191/429/191
vt 0.638601 0.990054
vt 0.634441 0.935624
vt 0.419047 0.935624
f 192/430/192 193/431/193 194/432/194
vt 0.634441 0.935624
vt 0.863054 0.935624
vt 0.634802 0.923583
f 193/433/193 170/434/170 138/435/138
vt 0.052814 0.543274
vt 0.076923 0.543474
vt 0.053924 0.536591
f 153/436/153 195/437/195 127/438/127
vt 0.064195 0.556381
vt 0.076923 0.543474
vt 0.052814 0.543274
f 196/439/196 195/440/195 153/441/153
vt 0.076923 0.543474
vt 0.157248 0.543227
vt 0.053924 0.536591
f 195/442/195 129/443/129 127/444/127
vt 0.076923 0.543474
vt 0.158367 0.632441
vt 0.157248 0.543227
f 195/445/195 186/446/186 129/447/129
vt 0.157248 0.543227
vt 0.160974 0.546656
vt 0.160308 0.485473
f 129/448/129 123/449/123 131/450/131
vt 0.158367 0.632441
vt 0.160974 0.546656
vt 0.157248 0.543227
f 186/451/186 123/452/123 129/453/129
vt 0.163587 0.629285
vt 0.160974 0.546656
vt 0.158367 0.632441
f 188/454/188 123/455/123 186/456/186
vt 0.602680 0.522983
vt 0.594103 0.534650
vt 0.596877 0.485473
vt 0.601683 0.477803
f 197/457/197 1/458/1 198/459/198 199/460/199
vt 0.601683 0.477803
vt 0.865486 0.477803
vt 0.866484 0.522983
vt 0.602680 0.522983
f 199/461/199 200/462/200 201/463/201 197/464/197
vt 0.589681 0.266429
vt 0.582855 0.256628
vt 0.862812 0.211463
vt 0.856803 0.222082
f 202/465/202 48/466/48 40/467/40 203/468/203
vt 0.865486 0.477803
vt 0.873295 0.485473
vt 0.874132 0.524419
vt 0.866484 0.522983
f 200/469/200 53/470/53 55/471/55 201/472/201
vt 0.866484 0.522983
vt 0.865496 0.532937
vt 0.594103 0.534650
vt 0.602680 0.522983
f 201/473/201 2/474/2 1/475/1 197/476/197
vt 0.594103 0.534650
vt 0.160974 0.546656
vt 0.160308 0.485473
vt 0.596877 0.485473
f 1/477/1 50/478/50 8/479/8 198/480/198
vt 0.152027 0.538143
vt 0.151591 0.494154
vt 0.155394 0.494335
vt 0.156140 0.528111
f 6/481/6 204/482/204 7/483/7 4/484/4
vt 0.076923 0.543474
vt 0.158367 0.632441
vt 0.158882 0.640434
vt 0.064195 0.556381
f 11/485/11 12/486/12 99/487/99 15/488/15
vt 0.681462 0.623144
vt 0.679705 0.693810
vt 0.587762 0.692117
vt 0.545976 0.666586
f 205/489/205 206/490/206 207/491/207 208/492/208
vt 0.053924 0.536591
vt 0.038363 0.517567
vt 0.037526 0.480528
vt 0.048044 0.499678
f 13/493/13 16/494/16 209/495/209 210/496/210
vt 0.132232 0.531153
vt 0.131749 0.501506
vt 0.151591 0.494154
vt 0.152027 0.538143
f 17/497/17 19/498/19 204/499/204 6/500/6
vt 0.105292 0.312478
vt 0.086671 0.314006
vt 0.122801 0.265959
vt 0.135300 0.271395
f 211/501/211 212/502/212 213/503/213 214/504/214
vt 0.420900 0.821116
vt 0.155652 0.821116
vt 0.156186 0.774197
vt 0.421434 0.774197
f 215/505/215 28/506/28 216/507/216 217/508/217
vt 0.421434 0.774197
vt 0.860662 0.774197
vt 0.860128 0.821116
vt 0.420900 0.821116
f 217/509/217 218/510/218 20/511/20 215/512/215
vt 0.578524 0.124777
vt 0.576483 0.136879
vt 0.134849 0.145682
vt 0.134920 0.133620
f 219/513/219 44/514/44 57/515/57 220/516/220
vt 0.860662 0.774197
vt 0.886967 0.781953
vt 0.886621 0.812323
vt 0.860128 0.821116
f 218/517/218 221/518/221 222/519/222 20/520/20
vt 0.134920 0.133620
vt 0.134849 0.145682
vt 0.037670 0.187765
vt 0.018196 0.181008
f 220/521/220 57/522/57 38/523/38 223/524/223
vt 0.860128 0.821116
vt 0.859931 0.829891
vt 0.421178 0.829891
vt 0.420900 0.821116
f 20/525/20 22/526/22 23/527/23 215/528/215
vt 0.421178 0.829891
vt 0.145264 0.829891
vt 0.155652 0.821116
vt 0.420900 0.821116
f 23/529/23 25/530/25 28/531/28 215/532/215
vt 0.155652 0.821116
vt 0.136395 0.823348
vt 0.136830 0.785099
vt 0.156186 0.774197
f 28/533/28 27/534/27 35/535/35 216/536/216
vt 0.761216 0.599771
vt 0.858928 0.601191
vt 0.857956 0.675249
vt 0.712149 0.622626
f 224/537/224 225/538/225 226/539/226 227/540/227
vt 0.886621 0.812323
vt 0.886967 0.781953
vt 0.951891 0.781578
vt 0.951545 0.811948
f 222/541/222 221/542/221 228/543/228 229/544/229
vt 0.969487 0.664493
vt 0.922408 0.664487
vt 0.908625 0.577292
vt 0.981475 0.577396
f 230/545/230 231/546/231 232/547/232 233/548/233
vt 0.844370 0.159696
vt 0.862012 0.171333
vt 0.576483 0.136879
vt 0.578524 0.124777
f 234/549/234 36/550/36 44/551/44 219/552/219
vt 0.951422 0.823691
vt 0.963764 0.823659
vt 0.963801 0.841137
vt 0.950581 0.839957
f 32/553/32 43/554/43 97/555/97 41/556/41
vt 0.950581 0.839957
vt 0.863415 0.925622
vt 0.860024 0.923583
vt 0.859931 0.829891
f 41/557/41 67/558/67 31/559/31 22/560/22
vt 0.950581 0.839957
vt 0.958666 0.843584
vt 0.863054 0.935624
vt 0.863415 0.925622
f 41/561/41 98/562/98 68/563/68 67/564/67
vt 0.018196 0.181008
vt 0.019333 0.104887
vt 0.096798 0.103422
vt 0.134920 0.133620
f 223/565/223 235/566/235 236/567/236 220/568/220
vt 0.964413 0.764704
vt 0.995155 0.776738
vt 0.994888 0.809184
vt 0.963764 0.823659
f 33/569/33 237/570/237 238/571/238 43/572/43
vt 0.965619 0.693195
vt 0.965619 0.734268
vt 0.960107 0.734268
vt 0.960107 0.693195
f 239/573/239 240/574/240 241/575/241 242/576/242
vt 0.981542 0.577339
vt 0.969409 0.664794
vt 0.922331 0.664757
vt 0.908409 0.577047
f 243/577/243 244/578/244 245/579/245 246/580/246
vt 0.038470 0.227895
vt 0.124759 0.261245
vt 0.122801 0.265959
vt 0.021148 0.232916
f 45/581/45 47/582/47 213/583/213 247/584/247
vt 0.037526 0.480528
vt 0.038363 0.517567
vt 0.007778 0.507178
vt 0.007266 0.483988
f 209/585/209 16/586/16 248/587/248 249/588/249
vt 0.122801 0.265959
vt 0.124759 0.261245
vt 0.136388 0.268775
vt 0.135300 0.271395
f 213/589/213 47/590/47 250/591/250 214/592/214
vt 0.122801 0.265959
vt 0.086671 0.314006
vt 0.017066 0.312954
vt 0.021148 0.232916
f 213/593/213 212/594/212 251/595/251 247/596/247
vt 0.874132 0.524419
vt 0.882247 0.529077
vt 0.865496 0.532937
vt 0.866484 0.522983
f 55/597/55 61/598/61 2/599/2 201/600/201
vt 0.007266 0.483988
vt 0.006920 0.468320
vt 0.036376 0.455326
vt 0.037526 0.480528
f 249/601/249 252/602/252 253/603/253 209/604/209
vt 0.024879 0.219245
vt 0.024879 0.208232
vt 0.053727 0.208232
vt 0.053727 0.226226
f 254/605/254 255/606/255 256/607/256 257/608/257
vt 0.036376 0.455326
vt 0.132240 0.455326
vt 0.132805 0.480528
vt 0.037526 0.480528
f 253/609/253 258/610/258 259/611/259 209/612/209
vt 0.036376 0.455326
vt 0.037526 0.480528
vt 0.132805 0.480528
vt 0.132240 0.455326
f 253/613/253 260/614/260 261/615/261 258/616/258
vt 0.036376 0.455326
vt 0.006920 0.468320
vt 0.007266 0.483988
vt 0.037526 0.480528
f 253/617/253 262/618/262 263/619/263 260/620/260
vt 0.921865 0.485473
vt 0.937623 0.492212
vt 0.937815 0.500940
vt 0.922954 0.508886
f 54/621/54 79/622/79 85/623/85 62/624/62
vt 0.132805 0.480528
vt 0.132240 0.455326
vt 0.434252 0.455326
vt 0.434817 0.480528
f 259/625/259 258/626/258 264/627/264 265/628/265
vt 0.434817 0.480528
vt 0.434252 0.455326
vt 0.501095 0.455326
vt 0.501660 0.480528
f 265/629/265 264/630/264 266/631/266 267/632/267
vt 0.487441 0.765552
vt 0.487735 0.739709
vt 0.964416 0.737401
vt 0.964413 0.764704
f 268/633/268 269/634/269 270/635/270 33/636/33
vt 0.132240 0.455326
vt 0.132805 0.480528
vt 0.434817 0.480528
vt 0.434252 0.455326
f 258/637/258 261/638/261 271/639/271 264/640/264
vt 0.434252 0.455326
vt 0.434817 0.480528
vt 0.501660 0.480528
vt 0.501095 0.455326
f 264/641/264 271/642/271 272/643/272 266/644/266
vt 0.487735 0.739709
vt 0.487441 0.765552
vt 0.964413 0.764704
vt 0.964416 0.737401
f 269/645/269 273/646/273 114/647/114 270/648/270
vt 0.419408 0.923583
vt 0.419047 0.935624
vt 0.136100 0.834547
vt 0.145264 0.829891
f 24/649/24 95/650/95 30/651/30 25/652/25
vt 0.634802 0.923583
vt 0.634441 0.935624
vt 0.419047 0.935624
vt 0.419408 0.923583
f 26/653/26 69/654/69 95/655/95 24/656/24
vt 0.964416 0.737401
vt 0.995044 0.761160
vt 0.995155 0.776738
vt 0.964413 0.764704
f 270/657/270 274/658/274 237/659/237 33/660/33
vt 0.053727 0.190239
vt 0.024879 0.197220
vt 0.024879 0.208232
vt 0.053727 0.208232
f 275/661/275 276/662/276 277/663/277 256/664/256
vt 0.964416 0.737401
vt 0.964413 0.764704
vt 0.995155 0.776738
vt 0.995044 0.761160
f 270/665/270 114/666/114 278/667/278 279/668/279
vt 0.996629 0.701163
vt 0.996629 0.726300
vt 0.965619 0.734268
vt 0.965619 0.693195
f 280/669/280 281/670/281 240/671/240 239/672/239
vt 0.917534 0.176105
vt 0.985383 0.174753
vt 0.985949 0.203130
vt 0.918100 0.204483
f 75/673/75 282/674/282 283/675/283 39/676/39
vt 0.927794 0.486486
vt 0.994335 0.484642
vt 0.984926 0.490901
vt 0.937623 0.492212
f 78/677/78 284/678/284 285/679/285 79/680/79
vt 0.086583 0.808216
vt 0.075515 0.799964
vt 0.075632 0.789720
vt 0.087431 0.784281
f 80/681/80 88/682/88 76/683/76 34/684/34
vt 0.727928 0.051607
vt 0.727702 0.050300
vt 0.727712 0.050300
vt 0.727947 0.051607
f 286/685/286 287/686/287 288/687/288 289/688/289
vt 0.937815 0.500940
vt 0.985118 0.499629
vt 0.994806 0.505953
vt 0.928264 0.507797
f 85/689/85 290/690/290 291/691/291 86/692/86
vt 0.854715 0.309563
vt 0.821961 0.427460
vt 0.868240 0.426996
vt 0.956334 0.308932
f 292/693/292 293/694/293 294/695/294 295/696/295
vt 0.075632 0.789720
vt 0.019689 0.788794
vt 0.013758 0.784706
vt 0.081436 0.785827
f 76/697/76 296/698/296 297/699/297 77/700/77
vt 0.855249 0.309690
vt 0.822263 0.427498
vt 0.867726 0.426976
vt 0.956280 0.308530
f 298/701/298 299/702/299 300/703/300 301/704/301
vt 0.731760 0.383832
vt 0.778196 0.383205
vt 0.778196 0.325186
vt 0.731760 0.325814
f 302/705/302 303/706/303 304/707/304 305/708/305
vt 0.019689 0.788794
vt 0.019572 0.799038
vt 0.013513 0.806218
vt 0.013758 0.784706
f 296/709/296 306/710/306 307/711/307 297/712/297
vt 0.898867 0.608126
vt 0.896943 0.665979
vt 0.893555 0.666101
vt 0.891334 0.608164
f 308/713/308 309/714/309 310/715/310 311/716/311
vt 0.081192 0.807339
vt 0.013513 0.806218
vt 0.019572 0.799038
vt 0.075515 0.799964
f 87/717/87 307/718/307 306/719/306 88/720/88
vt 0.122893 0.702451
vt 0.414917 0.702451
vt 0.414917 0.725013
vt 0.122893 0.725013
f 84/721/84 312/722/312 313/723/313 66/724/66
vt 0.874568 0.535264
vt 0.597376 0.640434
vt 0.596861 0.629285
vt 0.865496 0.532937
f 89/725/89 91/726/91 3/727/3 2/728/2
vt 0.061556 0.728392
vt 0.009669 0.728392
vt 0.009669 0.699348
vt 0.061556 0.699348
f 64/729/64 314/730/314 315/731/315 82/732/82
vt 0.727695 0.042911
vt 0.727702 0.042771
vt 0.727712 0.042771
vt 0.727718 0.042911
f 316/733/316 317/734/317 318/735/318 319/736/319
vt 0.994806 0.505953
vt 0.985118 0.499629
vt 0.984926 0.490901
vt 0.994335 0.484642
f 291/737/291 290/738/290 285/739/285 284/740/284
vt 0.898674 0.609390
vt 0.896899 0.666001
vt 0.893509 0.666001
vt 0.892195 0.609390
f 320/741/320 321/742/321 322/743/322 323/744/323
vt 0.956513 0.308866
vt 0.868328 0.427392
vt 0.822134 0.427392
vt 0.855131 0.309552
f 324/745/324 325/746/325 326/747/326 327/748/327
vt 0.956596 0.308684
vt 0.868171 0.427121
vt 0.822704 0.427121
vt 0.855614 0.309755
f 328/749/328 329/750/329 330/751/330 331/752/331
vt 0.727712 0.042774
vt 0.727712 0.042771
vt 0.727702 0.042771
vt 0.727702 0.042774
f 332/753/332 318/754/318 317/755/317 333/756/333
vt 0.727712 0.050300
vt 0.727702 0.050300
vt 0.727702 0.050303
vt 0.727712 0.050303
f 288/757/288 287/758/287 334/759/334 335/760/335
vt 0.597376 0.640434
vt 0.385600 0.640434
vt 0.385084 0.629285
vt 0.596861 0.629285
f 91/761/91 93/762/93 90/763/90 3/764/3
vt 0.414917 0.702451
vt 0.641166 0.709303
vt 0.641166 0.718160
vt 0.414917 0.725013
f 312/765/312 336/766/336 337/767/337 313/768/313
vt 0.382080 0.695802
vt 0.165516 0.695802
vt 0.158882 0.640434
vt 0.385600 0.640434
f 92/769/92 338/770/338 99/771/99 93/772/93
vt 0.641166 0.709303
vt 0.809382 0.709581
vt 0.809382 0.718437
vt 0.641166 0.718160
f 336/773/336 339/774/339 340/775/340 337/776/337
vt 0.634441 0.935624
vt 0.863054 0.935624
vt 0.858864 0.990054
vt 0.638601 0.990054
f 69/777/69 68/778/68 341/779/341 96/780/96
vt 0.960107 0.734268
vt 0.955679 0.725013
vt 0.955679 0.702451
vt 0.960107 0.693195
f 241/781/241 342/782/342 343/783/343 242/784/242
vt 0.955679 0.725013
vt 0.890627 0.725013
vt 0.890627 0.702451
vt 0.955679 0.702451
f 342/785/342 344/786/344 345/787/345 343/788/343
vt 0.890627 0.725013
vt 0.809382 0.718437
vt 0.809382 0.709581
vt 0.890627 0.702451
f 344/789/344 340/790/340 339/791/339 345/792/345
vt 0.053727 0.208232
vt 0.024879 0.208232
vt 0.024879 0.197220
vt 0.053727 0.190239
f 256/793/256 255/794/255 346/795/346 275/796/275
vt 0.053727 0.208232
vt 0.024879 0.208232
vt 0.024879 0.219245
vt 0.053727 0.226226
f 256/797/256 277/798/277 347/799/347 257/800/257
vt 0.037526 0.480528
vt 0.038363 0.517567
vt 0.053924 0.536591
vt 0.048044 0.499678
f 260/801/260 152/802/152 127/803/127 348/804/348
vt 0.007266 0.483988
vt 0.007778 0.507178
vt 0.038363 0.517567
vt 0.037526 0.480528
f 263/805/263 349/806/349 152/807/152 260/808/260
vt 0.037670 0.187765
vt 0.134849 0.145682
vt 0.134920 0.133620
vt 0.018196 0.181008
f 112/809/112 118/810/118 350/811/350 351/812/351
vt 0.602680 0.522983
vt 0.601683 0.477803
vt 0.596877 0.485473
vt 0.594103 0.534650
f 352/813/352 353/814/353 354/815/354 119/816/119
vt 0.594103 0.534650
vt 0.865496 0.532937
vt 0.866484 0.522983
vt 0.602680 0.522983
f 119/817/119 121/818/121 355/819/355 352/820/352
vt 0.865496 0.532937
vt 0.882247 0.529077
vt 0.874132 0.524419
vt 0.866484 0.522983
f 121/821/121 125/822/125 158/823/158 355/824/355
vt 0.865496 0.532937
vt 0.596861 0.629285
vt 0.597376 0.640434
vt 0.874568 0.535264
f 121/825/121 120/826/120 190/827/190 124/828/124
vt 0.866484 0.522983
vt 0.865486 0.477803
vt 0.601683 0.477803
vt 0.602680 0.522983
f 355/829/355 356/830/356 353/831/353 352/832/352
vt 0.866484 0.522983
vt 0.874132 0.524419
vt 0.873295 0.485473
vt 0.865486 0.477803
f 355/833/355 158/834/158 156/835/156 356/836/356
vt 0.156140 0.528111
vt 0.155394 0.494335
vt 0.151591 0.494154
vt 0.152027 0.538143
f 128/837/128 130/838/130 357/839/357 126/840/126
vt 0.136388 0.268775
vt 0.124759 0.261245
vt 0.122801 0.265959
vt 0.135300 0.271395
f 358/841/358 101/842/101 359/843/359 360/844/360
vt 0.151591 0.494154
vt 0.131749 0.501506
vt 0.132232 0.531153
vt 0.152027 0.538143
f 357/845/357 136/846/136 132/847/132 126/848/126
vt 0.587762 0.692117
vt 0.679705 0.693810
vt 0.681462 0.623144
vt 0.545976 0.666586
f 361/849/361 362/850/362 363/851/363 364/852/364
vt 0.922331 0.664757
vt 0.969409 0.664794
vt 0.981542 0.577339
vt 0.908409 0.577047
f 365/853/365 366/854/366 367/855/367 368/856/368
vt 0.420900 0.821116
vt 0.860128 0.821116
vt 0.860662 0.774197
vt 0.421434 0.774197
f 369/857/369 141/858/141 370/859/370 371/860/371
vt 0.421434 0.774197
vt 0.156186 0.774197
vt 0.155652 0.821116
vt 0.420900 0.821116
f 371/861/371 372/862/372 148/863/148 369/864/369
vt 0.578524 0.124777
vt 0.576483 0.136879
vt 0.862012 0.171333
vt 0.844370 0.159696
f 373/865/373 117/866/117 111/867/111 374/868/374
vt 0.156186 0.774197
vt 0.136830 0.785099
vt 0.136395 0.823348
vt 0.155652 0.821116
f 372/869/372 151/870/151 146/871/146 148/872/148
vt 0.155652 0.821116
vt 0.145264 0.829891
vt 0.421178 0.829891
vt 0.420900 0.821116
f 148/873/148 147/874/147 137/875/137 369/876/369
vt 0.421178 0.829891
vt 0.859931 0.829891
vt 0.860128 0.821116
vt 0.420900 0.821116
f 137/877/137 139/878/139 141/879/141 369/880/369
vt 0.859931 0.829891
vt 0.860024 0.923583
vt 0.863415 0.925622
vt 0.950581 0.839957
f 139/881/139 168/882/168 169/883/169 142/884/142
vt 0.860128 0.821116
vt 0.886621 0.812323
vt 0.886967 0.781953
vt 0.860662 0.774197
f 141/885/141 375/886/375 376/887/376 370/888/370
vt 0.134920 0.133620
vt 0.134849 0.145682
vt 0.576483 0.136879
vt 0.578524 0.124777
f 350/889/350 118/890/118 117/891/117 373/892/373
vt 0.950581 0.839957
vt 0.963801 0.841137
vt 0.963764 0.823659
vt 0.951422 0.823691
f 142/893/142 144/894/144 145/895/145 116/896/116
vt 0.857956 0.675249
vt 0.858928 0.601191
vt 0.761216 0.599771
vt 0.712149 0.622626
f 377/897/377 378/898/378 379/899/379 380/900/380
vt 0.886621 0.812323
vt 0.951545 0.811948
vt 0.951891 0.781578
vt 0.886967 0.781953
f 375/901/375 381/902/381 382/903/382 376/904/376
vt 0.096798 0.103422
vt 0.019333 0.104887
vt 0.018196 0.181008
vt 0.134920 0.133620
f 383/905/383 384/906/384 351/907/351 350/908/350
vt 0.145264 0.829891
vt 0.136100 0.834547
vt 0.419047 0.935624
vt 0.419408 0.923583
f 147/909/147 176/910/176 194/911/194 150/912/150
vt 0.965619 0.693195
vt 0.960107 0.693195
vt 0.960107 0.734268
vt 0.965619 0.734268
f 385/913/385 386/914/386 387/915/387 388/916/388
vt 0.963764 0.823659
vt 0.994888 0.809184
vt 0.995155 0.776738
vt 0.964413 0.764704
f 145/917/145 389/918/389 278/919/278 114/920/114
vt 0.908625 0.577292
vt 0.922408 0.664487
vt 0.969487 0.664493
vt 0.981475 0.577396
f 390/921/390 391/922/391 392/923/392 393/924/393
vt 0.021148 0.232916
vt 0.122801 0.265959
vt 0.124759 0.261245
vt 0.038470 0.227895
f 394/925/394 359/926/359 101/927/101 100/928/100
vt 0.965619 0.734268
vt 0.996629 0.726300
vt 0.996629 0.701163
vt 0.965619 0.693195
f 388/929/388 395/930/395 396/931/396 385/932/385
vt 0.017066 0.312954
vt 0.086671 0.314006
vt 0.122801 0.265959
vt 0.021148 0.232916
f 397/933/397 398/934/398 359/935/359 394/936/394
vt 0.122801 0.265959
vt 0.086671 0.314006
vt 0.105292 0.312478
vt 0.135300 0.271395
f 359/937/359 398/938/398 399/939/399 360/940/360
vt 0.862812 0.211463
vt 0.582855 0.256628
vt 0.589681 0.266429
vt 0.856803 0.222082
f 113/941/113 155/942/155 400/943/400 401/944/401
vt 0.596877 0.485473
vt 0.160308 0.485473
vt 0.160974 0.546656
vt 0.594103 0.534650
f 354/945/354 131/946/131 123/947/123 119/948/119
vt 0.921865 0.485473
vt 0.922954 0.508886
vt 0.937815 0.500940
vt 0.937623 0.492212
f 157/949/157 162/950/162 181/951/181 160/952/160
vt 0.918100 0.204483
vt 0.985949 0.203130
vt 0.985383 0.174753
vt 0.917534 0.176105
f 154/953/154 402/954/402 403/955/403 163/956/163
vt 0.927794 0.486486
vt 0.937623 0.492212
vt 0.984926 0.490901
vt 0.994335 0.484642
f 161/957/161 160/958/160 404/959/404 405/960/405
vt 0.087431 0.784281
vt 0.075632 0.789720
vt 0.075515 0.799964
vt 0.086583 0.808216
f 167/961/167 166/962/166 177/963/177 172/964/172
vt 0.419408 0.923583
vt 0.419047 0.935624
vt 0.634441 0.935624
vt 0.634802 0.923583
f 150/965/150 194/966/194 193/967/193 138/968/138
vt 0.863415 0.925622
vt 0.863054 0.935624
vt 0.958666 0.843584
vt 0.950581 0.839957
f 169/969/169 170/970/170 143/971/143 142/972/142
vt 0.731760 0.325814
vt 0.778196 0.325186
vt 0.778196 0.383205
vt 0.731760 0.383832
f 406/973/406 407/974/407 408/975/408 409/976/409
vt 0.013758 0.784706
vt 0.019689 0.788794
vt 0.075632 0.789720
vt 0.081436 0.785827
f 410/977/410 411/978/411 166/979/166 165/980/165
vt 0.855131 0.309552
vt 0.822134 0.427392
vt 0.868328 0.427392
vt 0.956513 0.308866
f 412/981/412 413/982/413 414/983/414 415/984/415
vt 0.984926 0.490901
vt 0.985118 0.499629
vt 0.994806 0.505953
vt 0.994335 0.484642
f 404/985/404 416/986/416 417/987/417 405/988/405
vt 0.892195 0.609390
vt 0.893509 0.666001
vt 0.896899 0.666001
vt 0.898674 0.609390
f 418/989/418 419/990/419 420/991/420 421/992/421
vt 0.727718 0.042911
vt 0.727712 0.042771
vt 0.727702 0.042771
vt 0.727695 0.042911
f 422/993/422 423/994/423 424/995/424 425/996/425
vt 0.075515 0.799964
vt 0.019572 0.799038
vt 0.013513 0.806218
vt 0.081192 0.807339
f 177/997/177 426/998/426 427/999/427 178/1000/178
vt 0.855614 0.309755
vt 0.822704 0.427121
vt 0.868171 0.427121
vt 0.956596 0.308684
f 428/1001/428 429/1002/429 430/1003/430 431/1004/431
vt 0.009669 0.699348
vt 0.009669 0.728392
vt 0.061556 0.728392
vt 0.061556 0.699348
f 432/1005/432 433/1006/433 182/1007/182 174/1008/174
vt 0.013513 0.806218
vt 0.019572 0.799038
vt 0.019689 0.788794
vt 0.013758 0.784706
f 427/1009/427 426/1010/426 411/1011/411 410/1012/410
vt 0.994806 0.505953
vt 0.985118 0.499629
vt 0.937815 0.500940
vt 0.928264 0.507797
f 417/1013/417 416/1014/416 181/1015/181 180/1016/180
vt 0.891334 0.608164
vt 0.893555 0.666101
vt 0.896943 0.665979
vt 0.898867 0.608126
f 434/1017/434 435/1018/435 436/1019/436 437/1020/437
vt 0.727947 0.051607
vt 0.727712 0.050300
vt 0.727702 0.050300
vt 0.727928 0.051607
f 438/1021/438 439/1022/439 440/1023/440 441/1024/441
vt 0.122893 0.725013
vt 0.414917 0.725013
vt 0.414917 0.702451
vt 0.122893 0.702451
f 183/1025/183 442/1026/442 443/1027/443 179/1028/179
vt 0.956334 0.308932
vt 0.868240 0.426996
vt 0.821961 0.427460
vt 0.854715 0.309563
f 444/1029/444 445/1030/445 446/1031/446 447/1032/447
vt 0.956280 0.308530
vt 0.867726 0.426976
vt 0.822263 0.427498
vt 0.855249 0.309690
f 448/1033/448 449/1034/449 450/1035/450 451/1036/451
vt 0.727712 0.042774
vt 0.727702 0.042774
vt 0.727702 0.042771
vt 0.727712 0.042771
f 452/1037/452 453/1038/453 424/1039/424 423/1040/423
vt 0.727712 0.050300
vt 0.727712 0.050303
vt 0.727702 0.050303
vt 0.727702 0.050300
f 439/1041/439 454/1042/454 455/1043/455 440/1044/440
vt 0.385084 0.629285
vt 0.385600 0.640434
vt 0.597376 0.640434
vt 0.596861 0.629285
f 122/1045/122 187/1046/187 190/1047/190 120/1048/120
vt 0.385600 0.640434
vt 0.158882 0.640434
vt 0.165516 0.695802
vt 0.382080 0.695802
f 187/1049/187 191/1050/191 456/1051/456 189/1052/189
vt 0.641166 0.718160
vt 0.641166 0.709303
vt 0.414917 0.702451
vt 0.414917 0.725013
f 457/1053/457 458/1054/458 443/1055/443 442/1056/442
vt 0.641166 0.718160
vt 0.809382 0.718437
vt 0.809382 0.709581
vt 0.641166 0.709303
f 457/1057/457 459/1058/459 460/1059/460 458/1060/458
vt 0.638601 0.990054
vt 0.858864 0.990054
vt 0.863054 0.935624
vt 0.634441 0.935624
f 192/1061/192 461/1062/461 170/1063/170 193/1064/193
vt 0.955679 0.702451
vt 0.955679 0.725013
vt 0.960107 0.734268
vt 0.960107 0.693195
f 462/1065/462 463/1066/463 387/1067/387 386/1068/386
vt 0.890627 0.702451
vt 0.890627 0.725013
vt 0.955679 0.725013
vt 0.955679 0.702451
f 464/1069/464 465/1070/465 463/1071/463 462/1072/462
vt 0.890627 0.702451
vt 0.809382 0.709581
vt 0.809382 0.718437
vt 0.890627 0.725013
f 464/1073/464 460/1074/460 459/1075/459 465/1076/465
vt 0.158882 0.640434
vt 0.158367 0.632441
vt 0.076923 0.543474
vt 0.064195 0.556381
f 191/1077/191 186/1078/186 195/1079/195 196/1080/196
