mtllib midwife-shield.mtl
usemtl tex0_0
v 1.429201 -1.699124 1.488053
vn -0.507861 -0.860920 -0.029903
v 1.721670 -1.534777 0.933617
vn -0.446596 0.893829 -0.040274
v 1.767738 -1.302822 3.708870
vn -0.664483 0.745676 -0.049286
v 1.755778 -1.294479 4.487660
vn -0.865447 0.500940 -0.007802
v 0.005688 -1.675144 1.064069
vn 0.000265 -0.998354 -0.057357
v -1.410607 -1.695176 1.406198
vn 0.996460 -0.068269 -0.049058
v -1.223869 -1.679312 -3.126379
vn 0.996786 -0.076702 0.023102
v -1.431429 -1.679312 -7.390333
vn 0.849556 0.475968 -0.227394
v 0.005795 -1.679312 -6.717898
vn -0.224475 -0.156256 -0.961871
v 1.443020 -1.679312 -7.390318
vn -0.709497 0.692899 -0.128474
v 1.739036 -1.428659 5.360677
vn -0.963181 0.268712 0.008700
v 1.660580 -1.844925 4.026946
vn -0.943896 0.330042 0.011493
v 1.786437 -1.491049 -7.192745
vn -0.554658 0.831153 0.039229
v 1.712124 -1.608983 -3.236888
vn -0.403639 0.914918 0.000200
v 1.235419 -1.679312 -3.126366
vn -0.324231 0.945978 -0.000203
v 1.443020 -1.679312 -7.390318
vn -0.991713 -0.044658 -0.120466
v 1.556902 -2.119968 -8.164475
vn -0.991713 -0.044658 -0.120466
v 1.711698 -1.620498 -9.623961
vn -0.941237 0.337111 -0.020718
v 1.896096 -1.290113 -9.418386
vn -0.971629 0.228911 -0.059478
v 0.005807 -2.132503 -8.214253
vn -0.218562 -0.151325 -0.964018
v 1.556902 -2.119968 -8.164475
vn -0.926080 0.299749 -0.229188
v 2.237369 -0.652621 -11.069815
vn -0.874823 0.484403 0.006207
v 1.848035 -1.379532 -11.069815
vn -0.875516 0.483185 0.001954
v 2.237369 -0.652621 -11.069815
vn -0.623234 -0.707054 0.334145
v 2.066071 -0.501630 -11.069815
vn -0.647334 -0.700654 0.300070
v 2.192016 -0.516411 -10.866184
vn -0.655110 -0.698249 0.288581
v 2.314570 -0.618861 -10.824209
vn -0.647324 -0.700665 0.300066
v 2.029484 -1.347292 1.028097
vn -0.463448 0.885202 -0.040430
v 1.977520 -1.122055 4.217340
vn -0.562145 0.824598 -0.063491
v 2.771070 -1.028767 0.889683
vn -0.405986 0.912094 -0.057101
v 2.482808 -0.957601 3.707571
vn -0.407371 0.907906 -0.098772
v 2.092353 -1.330893 -7.310293
vn -0.388185 0.920077 0.052633
v 2.078279 -1.409162 -3.344017
vn -0.438219 0.898867 -0.001060
v 2.848943 -1.018120 -7.259092
vn -0.335933 0.940938 0.042243
v 2.989609 -0.999161 -3.364534
vn -0.386524 0.922269 -0.004357
v 1.597578 -0.757449 9.202644
vn -0.952479 0.142670 -0.269127
v 1.655573 0.005683 9.424304
vn -0.963957 0.029898 -0.264373
v 1.454099 -0.001254 10.132662
vn -0.963944 0.040042 -0.263075
v 1.392518 -0.633856 10.010795
vn -0.952276 0.147217 -0.267391
v 1.597578 -0.757449 9.202644
vn -0.912788 0.349697 -0.211022
v 1.336924 -1.440041 9.023906
vn -0.894700 0.393935 -0.210540
v 1.443826 -1.599655 8.268823
vn -0.867416 0.458814 -0.192559
v 1.637789 -1.305621 8.079975
vn -0.901360 0.399381 -0.167467
v 1.613508 0.812863 9.258588
vn -0.951146 -0.175894 -0.253737
v 1.425530 0.568051 10.089868
vn -0.964390 -0.067616 -0.255695
v 1.613508 0.812863 9.258588
vn -0.888053 -0.414250 -0.199396
v 1.317413 1.384696 9.546876
vn -0.881611 -0.416789 -0.221470
v 1.318602 1.090274 9.950806
vn -0.885599 -0.343914 -0.312151
v 1.425530 0.568051 10.089868
vn -0.894748 -0.314089 -0.317449
v 1.200768 -0.563275 10.737031
vn -0.000006 0.426290 -0.904586
v 1.234555 -0.004394 10.906257
vn 0.000005 0.002700 -0.999996
v 0.005661 -0.004424 10.906250
vn 0.000005 0.002700 -0.999996
v 0.005676 -0.563304 10.737025
vn -0.000006 0.426290 -0.904586
v 1.200768 -0.563275 10.737031
vn -0.953249 0.143977 -0.265682
v 1.234555 -0.004394 10.906257
vn -0.961920 0.037878 -0.270693
v 1.211474 0.554814 10.740222
vn 0.000015 -0.424064 -0.905632
v 0.005648 0.554784 10.740216
vn 0.000015 -0.424064 -0.905632
v 1.123116 1.282329 10.256014
vn 0.000019 -0.624957 -0.780659
v 0.005633 1.282302 10.256008
vn 0.000019 -0.624956 -0.780660
v 1.044587 -1.910088 9.662874
vn -0.000020 0.906637 -0.421912
v 0.005715 -1.910113 9.662869
vn -0.000126 0.906637 -0.421912
v 0.005727 -2.140690 9.167387
vn 0.000010 0.670718 -0.741713
v 1.019810 -2.140422 9.167406
vn 0.000420 -0.897179 -0.441667
v 1.044587 -1.910088 9.662874
vn -0.000014 0.689983 -0.723826
v 1.123155 -1.290396 10.253591
vn -0.000012 0.624203 -0.781262
v 0.005697 -1.290424 10.253585
vn -0.000012 0.624204 -0.781262
v 0.005715 -1.910113 9.662869
vn -0.000014 0.689983 -0.723826
v 0.889606 2.025322 8.617568
vn -0.000586 0.996713 -0.081013
v 1.045387 1.954461 7.744622
vn 0.000583 -0.996713 0.081012
v 1.414320 1.864290 6.632565
vn -0.829317 -0.557457 0.038414
v 1.666020 1.649017 3.982198
vn -0.000587 0.996713 -0.081013
v 1.765404 1.455265 1.597718
vn -0.962609 -0.242986 -0.119761
v 0.005584 1.418271 1.155288
vn 0.008265 0.998913 -0.045875
v -1.754168 1.453089 1.596395
vn 0.720916 0.686362 -0.095855
v -1.655703 1.645810 3.966764
vn -0.000586 0.996713 -0.081013
v -1.404515 1.861083 6.613488
vn 0.979237 0.083136 -0.184886
v -1.035098 1.952381 7.734076
vn 0.878238 0.387641 -0.280056
v -0.878620 2.024062 8.614850
vn 0.901504 0.336194 -0.272514
v -1.000591 2.069374 9.173211
vn -0.000997 0.908344 -0.418224
v 0.005621 2.069475 9.167171
vn 0.002071 -0.777380 -0.629028
v 0.889606 2.025322 8.617568
vn -0.771871 -0.614060 -0.164761
v 1.348315 1.532531 8.900708
vn -0.828650 -0.533174 -0.170487
v 1.460975 1.620855 8.235733
vn -0.766312 -0.636558 -0.086952
v 1.045387 1.954461 7.744622
vn -0.702872 -0.710919 -0.023760
v 1.040729 1.902177 9.663429
vn 0.001528 -0.842206 -0.539154
v 1.012159 2.070554 9.173167
vn 0.002950 -0.945719 -0.324972
v 0.005620 1.902151 9.663424
vn 0.001487 -0.946657 -0.322239
v 1.040729 1.902177 9.663429
vn -0.860834 -0.444654 -0.247484
v 1.123116 1.282329 10.256014
vn -0.874037 -0.343330 -0.343778
v 3.632552 0.736585 1.619919
vn -0.551571 -0.831098 -0.071034
v 3.647821 0.691475 -1.192212
vn -0.485558 -0.874196 -0.003819
v 3.028240 0.993911 -3.072136
vn -0.390570 -0.920573 0.000956
v 2.825162 1.043407 0.958129
vn -0.467421 -0.883466 -0.031705
v 4.194365 0.333676 1.387281
vn -0.963964 -0.051151 -0.261069
v 3.034959 0.272405 4.820600
vn -0.948357 -0.076506 -0.307840
v 3.030776 0.012433 4.898096
vn -0.944688 0.089451 -0.315536
v 4.185975 0.000024 1.824980
vn -0.957709 0.087912 -0.273978
v 4.194365 0.333676 1.387281
vn -0.600127 -0.790052 -0.125164
v 4.014923 0.471621 -0.843939
vn -0.388768 -0.921111 -0.020357
v 3.896338 0.522939 -0.022176
vn -0.514100 -0.857651 -0.011648
v 3.921417 0.502477 2.021924
vn -0.661192 -0.736998 -0.140212
v 4.192221 -0.337543 1.388924
vn -0.932151 0.227568 -0.281614
v 3.023748 -0.258689 4.828075
vn -0.914388 0.254982 -0.314449
v 4.192221 -0.337543 1.388924
vn -0.578394 0.806644 -0.121593
v 3.023748 -0.258689 4.828075
vn -0.892625 0.342193 -0.293470
v 2.923902 -0.487601 4.864852
vn -0.779801 0.573410 -0.251221
v 3.913421 -0.511233 2.028062
vn -0.640847 0.754916 -0.139346
v 4.768606 -0.276349 -1.047263
vn -0.972426 0.044353 -0.228955
v 4.731837 -0.003986 -0.838333
vn -0.966367 0.022540 -0.256176
v 3.607862 -0.744188 1.608203
vn -0.485762 0.869263 -0.091740
v 2.776706 -0.701523 4.482020
vn -0.515714 0.842586 -0.155200
v 2.220005 -0.315004 7.374317
vn -0.938713 0.204724 -0.277320
v 2.247957 0.020558 7.420264
vn -0.955437 0.015196 -0.294805
v 1.830243 -0.482500 8.560779
vn -0.905157 0.355664 -0.232794
v 1.799234 -0.925303 8.004832
vn -0.894817 0.409432 -0.177955
v 2.152420 -0.607697 7.209575
vn -0.866581 0.458335 -0.197397
v 1.578844 -1.969862 6.201234
vn -0.924664 0.370902 -0.086183
v 1.331943 -2.054639 7.675715
vn -0.852666 0.489238 -0.183322
v 1.770177 -1.247970 6.992947
vn -0.940536 0.333169 -0.066261
v 1.983767 -0.878825 6.504211
vn -0.782693 0.615555 -0.092106
v 2.490570 -0.609246 -10.354711
vn -0.562668 0.732040 0.384086
v 2.194588 -0.500124 -10.817171
vn -0.805306 0.190006 0.561586
v 2.258326 -0.458615 -10.739816
vn -0.790319 0.242025 0.562868
v 2.538595 -0.459622 -10.362463
vn -0.677528 0.515352 0.524755
v 3.030365 -0.647637 -9.380482
vn -0.418609 0.843533 0.336481
v 2.898419 -0.869052 -8.918005
vn -0.360049 0.913698 0.188467
v 2.264875 -1.038775 -9.282038
vn -0.392778 0.903128 0.173449
v 2.490570 -0.609246 -10.354711
vn -0.670260 -0.693028 0.265452
v 2.194588 -0.500124 -10.817171
vn -0.670270 -0.693016 0.265456
v 2.098940 -0.492662 -11.039201
vn -0.670280 -0.693005 0.265459
v 2.098940 -0.492662 -11.039201
vn -0.752804 -0.044880 0.656713
v 2.034352 -0.008447 -11.080148
vn -0.752806 -0.044846 0.656713
v 2.192383 -0.003942 -10.898685
vn -0.753292 -0.023285 0.657274
v 2.211941 -0.312157 -10.855238
vn -0.757261 -0.000873 0.653112
v 2.098940 -0.492662 -11.039201
vn -0.741176 -0.008208 0.671261
v 2.066071 -0.501630 -11.069815
vn -0.889084 -0.285102 -0.358114
v 1.909452 -0.013217 -11.069815
vn -0.298527 -0.165415 0.939957
v 2.034352 -0.008447 -11.080148
vn -0.298527 -0.165415 0.939957
v 2.535348 -0.278095 -10.478220
vn -0.724365 0.073072 0.685534
v 2.519689 -0.003942 -10.532230
vn -0.727178 -0.021406 0.686116
v 3.141627 -0.004759 -9.939940
vn -0.680639 -0.040722 0.731486
v 3.179314 -0.275240 -9.829576
vn -0.673577 0.153296 0.723045
v 2.535348 -0.278095 -10.478220
vn -0.686255 0.483767 0.543160
v 2.211941 -0.312157 -10.855238
vn -0.781901 0.266979 0.563340
v 2.149062 0.835806 6.384061
vn -0.738795 -0.662233 -0.125018
v 2.828307 0.676904 4.449701
vn -0.587576 -0.796054 -0.145097
v 2.555924 0.952728 3.688002
vn -0.519889 -0.850237 -0.082540
v 2.082010 1.143198 4.563386
vn -0.679245 -0.731829 -0.055241
v 1.847491 1.233853 6.897069
vn -0.864568 -0.498579 -0.062772
v 1.850540 0.927638 7.941988
vn -0.902426 -0.402754 -0.153024
v 2.202505 0.600067 7.163956
vn -0.845270 -0.490233 -0.212580
v 1.874515 1.385898 5.312454
vn -0.824911 -0.563803 -0.040594
v 1.666020 1.649017 3.982198
vn -0.812294 -0.582556 -0.028408
v 1.681804 1.321831 7.990597
vn -0.918533 -0.379532 -0.110694
v 2.244977 0.345290 7.343752
vn -0.951235 -0.090651 -0.294847
v 1.858270 0.507033 8.532347
vn -0.953169 -0.104261 -0.283899
v 1.851792 0.016215 8.734347
vn -0.959074 0.016787 -0.282657
v 2.535348 0.270210 -10.478220
vn -0.723487 -0.115782 0.680559
v 3.173352 0.267249 -9.835446
vn -0.661976 -0.233336 0.712279
v 2.098794 0.473522 -11.036582
vn -0.373911 -0.081787 0.923852
v 2.060806 0.469665 -11.069815
vn 0.028676 -0.033757 0.999019
v 2.098794 0.473522 -11.036582
vn -0.144807 0.988153 0.050842
v 2.060806 0.469665 -11.069815
vn -0.144807 0.988153 0.050842
v 2.186489 0.488083 -11.069815
vn -0.164593 0.673912 0.720244
v 2.187174 0.484572 -10.833868
vn -0.237132 0.970914 0.033077
v 2.432053 0.563183 -10.442485
vn -0.749741 -0.550604 0.367048
v 2.315659 0.561792 -11.069815
vn -0.916410 -0.394407 0.068081
v 2.061659 1.327597 -10.052334
vn -0.854688 -0.508124 0.106386
v 2.374990 1.077327 -9.388135
vn -0.708014 -0.688849 0.155575
v 2.432053 0.563183 -10.442485
vn -0.327290 0.944805 0.015009
v 2.315659 0.561792 -11.069815
vn -0.327290 0.944805 0.015009
v 2.789570 0.958537 -8.546009
vn -0.506953 -0.849055 0.148674
v 2.996723 0.667453 -9.287138
vn -0.444179 -0.850603 0.281388
v 5.069229 0.233257 -7.869704
vn -0.321628 -0.942698 0.088748
v 4.590208 0.257229 -8.798812
vn -0.324825 -0.916598 0.233102
v 4.288457 0.394987 -8.677609
vn -0.314056 -0.930743 0.187314
v 4.376750 0.438162 -7.972644
vn -0.313477 -0.946866 0.071949
v 3.854082 0.266341 -9.226890
vn -0.623249 -0.281300 0.729678
v 3.914522 -0.004523 -9.279687
vn -0.661156 -0.040139 0.749174
v 3.854082 0.266341 -9.226890
vn -0.509111 -0.577235 0.638440
v 4.590208 0.257229 -8.798812
vn 0.998895 -0.022611 -0.041196
v 4.583760 -0.004840 -8.811318
vn -0.151032 -0.001272 0.988528
v 3.914522 -0.004523 -9.279687
vn -0.538644 -0.000789 0.842533
v 3.413467 0.796074 -6.864617
vn -0.333274 -0.942672 0.017289
v 3.640159 0.687097 -7.944540
vn -0.329730 -0.940868 0.077758
v 2.854531 1.017087 -6.726475
vn -0.399911 -0.916322 0.020611
v 3.729158 0.574882 -8.583361
vn -0.311214 -0.937957 0.152913
v 3.774721 0.454000 -8.993258
vn -0.367464 -0.878040 0.306619
v 3.079781 0.468555 -9.706923
vn -0.470332 -0.775741 0.420730
v 5.069229 -0.240751 -7.869704
vn -0.996863 0.000000 0.079151
v 5.069229 0.233257 -7.869704
vn -0.274078 0.000000 -0.961708
v 5.226849 0.222532 -5.884574
vn -0.999563 0.000000 0.029553
v 5.226849 -0.230159 -5.884574
vn -0.999563 0.000000 0.029553
v 3.845257 -0.280459 -9.221355
vn -0.550354 0.415854 0.724000
v 3.845257 -0.280459 -9.221355
vn -0.464916 0.778016 0.422545
v 3.728154 -0.474787 -8.992393
vn -0.440405 0.803509 0.400520
v 3.091208 -0.472100 -9.698157
vn -0.481865 0.766362 0.424847
v 3.179314 -0.275240 -9.829576
vn -0.537346 0.699714 0.470807
v 4.590790 -0.266449 -8.797684
vn -0.315462 0.914579 0.253041
v 4.114568 -0.483720 -8.606087
vn -0.325686 0.915783 0.235097
v 3.728154 -0.474787 -8.992393
vn -0.282387 0.884877 0.370473
v 3.670925 -0.706743 -7.641650
vn -0.332565 0.941976 0.045625
v 3.748858 -0.693210 -5.217629
vn -0.350846 0.936433 -0.000679
v 4.373946 -0.464526 -7.803947
vn -0.332985 0.941488 0.052162
v 4.468376 -0.453496 -5.854864
vn -0.303228 0.952918 -0.000277
v 3.483753 -0.595398 -8.961657
vn -0.373504 0.861150 0.344840
v 3.621099 -0.666712 -8.596591
vn -0.340153 0.917301 0.207014
v 5.176105 -0.243204 -3.362793
vn 0.947737 0.000001 0.319053
v 5.176105 0.235470 -3.362793
vn -0.097008 0.000000 0.995284
v 4.768716 0.268468 -1.047892
vn 0.989081 -0.021771 0.145758
v 3.937521 -0.586719 -2.854723
vn -0.396542 0.917804 -0.019729
v 3.635803 -0.700027 -1.265078
vn -0.462932 0.886302 -0.012749
v 4.015165 -0.479434 -0.843815
vn -0.390761 0.920261 -0.020612
v 3.894836 -0.531755 -0.022069
vn -0.499131 0.866456 -0.011104
v 4.445982 -0.436817 -3.548714
vn -0.295286 0.955175 -0.021149
v 4.329638 -0.408471 -1.684023
vn -0.279588 0.959726 -0.027514
v 3.931766 0.580887 -2.868207
vn -0.378250 -0.925575 -0.015428
v 3.723370 0.694713 -5.274790
vn -0.347409 -0.937710 0.002637
v 4.409564 0.438232 -3.679789
vn -0.278583 -0.960246 -0.017842
v 4.321734 0.482922 -6.376557
vn -0.297345 -0.954749 0.006366
v 1.699385 1.470621 -2.760274
vn -0.211991 0.977256 0.005457
v 1.745449 1.470621 -6.536896
vn -0.488715 -0.863127 -0.127163
v 2.212961 1.383489 -8.021666
vn -0.556113 -0.830772 0.023577
v 1.809508 1.667700 -8.127341
vn 0.663278 -0.745801 -0.061991
v 1.647116 2.029461 -7.716771
vn 0.500886 -0.483992 0.717541
v 1.452415 -2.098765 -11.069815
vn -0.000112 -0.999930 -0.011871
v -1.545290 -2.120045 -8.164491
vn 0.995380 -0.084617 0.045361
v 1.708080 1.938979 -11.069815
vn 0.874370 0.485040 0.014577
v 1.896544 1.558380 -9.014709
vn 0.647688 -0.735280 0.199661
v 2.167902 1.371594 -8.777194
vn -0.598651 -0.797511 0.074794
v -1.744332 -1.294567 4.487625
vn 0.850447 0.526058 0.001351
v -1.756277 -1.302909 3.708852
vn 0.630421 0.775594 -0.031982
v -1.710169 -1.534863 0.933599
vn 0.485141 0.873985 -0.028082
v -2.225789 -0.652732 -11.069815
vn 0.881576 0.472020 -0.004567
v -1.836558 -1.379685 -11.069815
vn 0.878832 0.477119 -0.003458
v -1.700085 -1.620583 -9.623979
vn 0.892327 0.450813 0.022829
v -1.884501 -1.290207 -9.418406
vn 0.885035 0.464631 0.028816
v -2.225789 -0.652732 -11.069815
vn 0.670191 -0.677175 0.303775
v -2.302994 -0.618975 -10.824233
vn 0.670389 -0.685228 0.284679
v -2.180445 -0.516519 -10.866207
vn 0.851907 -0.292735 0.434236
v -2.054498 -0.501732 -11.069815
vn 0.868104 0.025037 0.495750
v -2.017993 -1.347393 1.028076
vn 0.456119 0.889020 -0.039978
v -1.966074 -1.122153 4.217319
vn 0.513203 0.855809 -0.064909
v -2.471364 -0.957724 3.707546
vn 0.377262 0.922805 -0.078130
v -2.759594 -1.028905 0.889655
vn 0.374808 0.926540 -0.032297
v -2.978091 -0.999309 -3.364564
vn 0.399657 0.916663 0.002041
v -2.066741 -1.409265 -3.344038
vn 0.441417 0.897301 0.001348
v -2.080778 -1.330997 -7.310315
vn 0.415878 0.907851 0.053412
v -2.837384 -1.018261 -7.259121
vn 0.359966 0.932198 0.037826
v -2.887753 -0.869002 -8.916602
vn 0.368208 0.911723 0.182167
v -2.253295 -1.038887 -9.282061
vn 0.402342 0.898787 0.174078
v -1.586137 -0.757293 9.203327
vn 0.948639 0.199420 -0.245594
v -1.381155 -0.633925 10.010780
vn 0.952891 0.144212 -0.266835
v -1.443094 -0.001615 10.131325
vn 0.959028 0.028101 -0.281914
v -1.644437 0.004955 9.423259
vn 0.962119 0.018144 -0.272026
v -1.818798 -0.482988 8.560461
vn 0.911218 0.345508 -0.224290
v -1.787879 -0.925393 8.004571
vn 0.916467 0.365356 -0.163107
v -1.626402 -1.305701 8.079960
vn 0.926405 0.344597 -0.151745
v -1.586137 -0.757293 9.203327
vn 0.883874 0.416774 -0.212287
v -1.325787 -1.441051 9.020742
vn 0.879512 0.425166 -0.213758
v -1.225967 -1.336872 9.647126
vn 0.916252 0.345304 -0.203095
v -1.381155 -0.633925 10.010780
vn 0.913315 0.352581 -0.203820
v -1.602294 0.812481 9.257204
vn 0.956327 -0.103577 -0.273331
v -1.414223 0.567979 10.089865
vn 0.951976 -0.088439 -0.293121
v -1.602294 0.812481 9.257204
vn 0.912672 -0.367661 -0.178480
v -1.671355 1.318833 7.977957
vn 0.888587 -0.435998 -0.142545
v -1.839648 0.925874 7.934309
vn 0.888911 -0.426167 -0.167982
v -1.846944 0.506945 8.530349
vn 0.904742 -0.365202 -0.219247
v -1.337244 1.531783 8.898161
vn 0.769790 -0.622605 -0.140661
v -1.450354 1.618401 8.225666
vn 0.752839 -0.639217 -0.156955
v -1.189415 -0.563334 10.737019
vn -0.000006 0.426290 -0.904587
v -1.223232 -0.004455 10.906244
vn 0.000005 0.002699 -0.999996
v -1.200177 0.554754 10.740210
vn 0.947063 -0.070797 -0.313144
v -1.223232 -0.004455 10.906244
vn 0.955347 0.037154 -0.293142
v -1.200177 0.554754 10.740210
vn 0.000015 -0.424064 -0.905632
v -1.111851 1.282274 10.256002
vn 0.000020 -0.624956 -0.780660
v -1.095115 -2.104419 8.530953
vn 0.000264 -0.998354 -0.057356
v -1.320559 -2.055343 7.675704
vn 0.000251 -0.998354 -0.057354
v -1.567505 -1.970719 6.201583
vn 0.000259 -0.998354 -0.057355
v -1.649138 -1.845800 4.026869
vn 0.000265 -0.998354 -0.057357
v 1.660580 -1.844925 4.026946
vn 0.000266 -0.998354 -0.057357
v 1.578844 -1.969862 6.201234
vn 0.000266 -0.998354 -0.057357
v 1.331943 -2.054639 7.675715
vn 0.000265 -0.998354 -0.057357
v 1.106415 -2.103746 8.529427
vn 0.000265 -0.998354 -0.057357
v -1.033156 -1.910139 9.662864
vn 0.930548 0.307521 -0.198776
v -1.111762 -1.290452 10.253579
vn 0.930431 0.307871 -0.198781
v -1.008355 -2.140959 9.167368
vn 0.919131 0.338009 -0.202358
v -1.234572 1.636366 9.231131
vn 0.833799 -0.539731 -0.116062
v -1.000591 2.069374 9.173211
vn 0.799260 -0.592058 -0.103204
v -1.029488 1.902126 9.663419
vn 0.000024 -0.947586 -0.319502
v -1.029488 1.902126 9.663419
vn 0.000021 -0.691030 -0.722826
v 0.005620 1.902151 9.663424
vn 0.000021 -0.691031 -0.722825
v -1.029488 1.902126 9.663419
vn 0.862646 -0.444055 -0.242194
v -1.306247 1.384842 9.546279
vn 0.897885 -0.391915 -0.200512
v -1.307332 1.090201 9.950779
vn 0.907181 -0.310067 -0.284395
v -1.111851 1.282274 10.256002
vn 0.876759 -0.342148 -0.337978
v -3.621171 0.736405 1.619882
vn 0.504101 -0.858976 -0.089675
v -2.813767 1.043275 0.958103
vn 0.412591 -0.909046 -0.058343
v -3.016824 0.993761 -3.072167
vn 0.360593 -0.932722 0.001342
v -3.636409 0.691294 -1.192249
vn 0.467011 -0.884230 -0.006220
v -2.816916 0.676770 4.449749
vn 0.564166 -0.809500 -0.162561
v -2.544548 0.952612 3.687984
vn 0.502368 -0.856876 -0.115716
v -3.884929 0.522746 -0.022216
vn 0.505063 -0.863073 -0.003971
v -3.913360 0.502224 2.012267
vn 0.657210 -0.741537 -0.134899
v -4.182961 0.333468 1.387238
vn 0.933061 -0.225948 -0.279900
v -4.174788 -0.000187 1.824301
vn 0.958404 -0.080234 -0.273907
v -3.019393 0.012282 4.898063
vn 0.946475 -0.067510 -0.315639
v -3.026955 0.273281 4.809456
vn 0.918922 -0.239777 -0.313192
v -4.757285 0.268232 -1.047941
vn 0.972624 -0.043837 -0.228214
v -4.720394 -0.004221 -0.838381
vn 0.966566 -0.022060 -0.255466
v -4.182961 0.333468 1.387238
vn 0.592274 -0.795648 -0.127105
v -4.003504 0.471421 -0.843980
vn 0.390861 -0.920191 -0.021811
v -4.318293 0.400361 -1.684186
vn 0.297055 -0.954350 -0.031226
v -4.757285 0.268232 -1.047941
vn 0.278304 -0.959984 -0.031252
v -4.180784 -0.337751 1.388881
vn 0.962843 0.064896 -0.262150
v -3.012351 -0.258839 4.828045
vn 0.945443 0.104267 -0.308652
v -4.180784 -0.337751 1.388881
vn 0.598501 0.791117 -0.126217
v -4.003698 -0.479633 -0.843856
vn 0.389680 0.920710 -0.021031
v -3.883375 -0.531949 -0.022109
vn 0.504811 0.863148 -0.011903
v -3.903786 -0.511381 2.022902
vn 0.661782 0.737159 -0.136530
v -3.596407 -0.744367 1.608166
vn 0.475485 0.877682 -0.059897
v -2.765282 -0.701660 4.481992
vn 0.510669 0.849418 -0.133068
v -2.912493 -0.487746 4.864821
vn 0.785787 0.567516 -0.245896
v -3.624321 -0.700208 -1.265115
vn 0.466471 0.884523 -0.004947
v -2.208896 -0.315550 7.373281
vn 0.948309 0.121770 -0.293057
v -1.818798 -0.482988 8.560461
vn 0.949870 0.139005 -0.280045
v -1.840654 0.015625 8.733823
vn 0.959146 0.017658 -0.282359
v -2.236464 0.019703 7.420346
vn 0.955663 0.016045 -0.294025
v -1.567505 -1.970719 6.201583
vn 0.934094 0.343335 -0.097922
v -1.758783 -1.248055 6.992929
vn 0.943711 0.327995 -0.042771
v -1.972362 -0.878923 6.504186
vn 0.750521 0.656448 -0.076125
v -2.141052 -0.607733 7.209813
vn 0.854971 0.476930 -0.203866
v -1.727611 -1.428742 5.360657
vn 0.971896 0.235052 0.012993
v -2.384908 -0.573792 -10.499443
vn 0.555966 0.728349 0.400512
v -3.018803 -0.647787 -9.380512
vn 0.398008 0.856444 0.328775
v -2.384908 -0.573792 -10.499443
vn 0.670299 -0.692986 0.265462
v -2.183018 -0.500232 -10.817193
vn 0.879750 0.014173 0.475225
v -2.087368 -0.492766 -11.039223
vn 0.571958 0.712999 0.405582
v -2.504920 -0.281548 -10.496075
vn 0.723283 0.116127 0.680717
v -3.167766 -0.275397 -9.829609
vn 0.659645 0.247341 0.709712
v -3.130090 -0.004915 -9.939973
vn 0.678779 0.047896 0.732779
v -2.508147 -0.004067 -10.532256
vn 0.728060 0.022138 0.685156
v -2.137822 0.835094 6.380898
vn 0.723131 -0.680102 -0.120592
v -2.191204 0.599578 7.162162
vn 0.859827 -0.476390 -0.183715
v -1.837533 1.230320 6.883609
vn 0.789558 -0.605580 -0.099350
v -2.070825 1.142517 4.560986
vn 0.678642 -0.731275 -0.068415
v -2.233650 0.345194 7.343259
vn 0.943077 -0.182317 -0.278149
v -2.504947 0.273414 -10.496075
vn 0.726378 -0.071968 0.683517
v -3.161831 0.267092 -9.835479
vn 0.670334 -0.153225 0.726068
v -2.200104 0.304269 -10.855602
vn 0.759634 -0.000103 0.650351
v -2.182319 -0.005843 -10.896831
vn 0.754770 0.022677 0.655597
v -2.504947 0.273414 -10.496075
vn 0.690262 -0.475606 0.545287
v -2.529283 0.455908 -10.356315
vn 0.674582 -0.529390 0.514475
v -2.246576 0.450667 -10.740108
vn 0.797847 -0.238304 0.553762
v -2.200104 0.304269 -10.855602
vn 0.788911 -0.254359 0.559393
v -2.087270 0.473418 -11.036604
vn 0.708659 0.124259 0.694523
v -2.022804 -0.008548 -11.080169
vn 0.754037 0.043040 0.655421
v -2.049282 0.469563 -11.069815
vn 0.453167 0.142065 -0.880033
v -1.897904 -0.013311 -11.069815
vn 0.846327 0.341571 -0.408729
v -2.022804 -0.008548 -11.080169
vn 0.313706 0.126609 0.941041
v -2.332545 0.533729 -10.579274
vn 0.697880 -0.630082 0.340530
v -2.175653 0.484464 -10.833890
vn 0.814809 -0.191585 0.547158
v -2.363514 1.077209 -9.388159
vn 0.639683 -0.752685 0.155793
v -2.042772 1.323099 -10.053415
vn 0.819356 -0.548821 0.165685
v -2.304143 0.561677 -10.756173
vn 0.912600 -0.393900 0.109564
v -5.057725 0.233006 -7.869756
vn -0.681964 -0.000036 -0.731385
v -5.057702 -0.241003 -7.869756
vn 0.996862 0.000048 0.079161
v -5.215343 -0.230419 -5.884628
vn 0.999563 0.000049 0.029564
v -5.215365 0.222273 -5.884628
vn 0.999563 0.000049 0.029564
v -4.580007 0.266103 -8.796320
vn -0.657391 -0.060513 0.751116
v -4.572236 -0.005068 -8.811365
vn -0.658647 0.001981 0.752450
v -4.580431 -0.274113 -8.795445
vn -0.657329 0.064450 0.750843
v -3.842567 0.266149 -9.226929
vn 0.652592 -0.204164 0.729686
v -3.902992 -0.004718 -9.279727
vn 0.657313 0.053752 0.751699
v -3.842567 0.266149 -9.226929
vn 0.499363 -0.641240 0.582622
v -3.763218 0.453812 -8.993297
vn 0.326642 -0.898741 0.292523
v -3.068271 0.468402 -9.706955
vn 0.462482 -0.784445 0.413228
v -3.161831 0.267092 -9.835479
vn 0.542847 -0.687027 0.483023
v -3.402292 0.795780 -6.865486
vn 0.345359 -0.938206 0.022284
v -2.843078 1.016945 -6.726504
vn 0.443811 -0.895687 -0.027856
v -2.775786 0.959134 -8.548708
vn 0.505480 -0.861082 0.055032
v -3.629256 0.686936 -7.943354
vn 0.341418 -0.938809 0.045511
v -3.711916 0.694528 -5.274827
vn 0.358381 -0.933572 0.002371
v -3.711088 0.577029 -8.580929
vn 0.308681 -0.941130 0.137807
v -2.990202 0.668317 -9.277952
vn 0.423264 -0.874300 0.237585
v -5.057702 -0.241003 -7.869756
vn 0.327964 0.941444 0.078247
v -4.363276 -0.464468 -7.803766
vn 0.327466 0.942705 0.063824
v -4.456859 -0.453718 -5.854909
vn 0.305206 0.952286 -0.000171
v -5.215343 -0.230419 -5.884628
vn 0.294162 0.955755 -0.000131
v -4.580431 -0.274113 -8.795445
vn 0.316036 0.921778 0.224602
v -4.103022 -0.483924 -8.606129
vn 0.325873 0.919304 0.220652
v -3.833715 -0.280650 -9.221395
vn 0.551422 0.468316 0.690372
v -3.659377 -0.706925 -7.641688
vn 0.324274 0.945093 0.040564
v -3.737385 -0.693384 -5.218450
vn 0.344642 0.938734 -0.000554
v -3.609543 -0.666892 -8.596628
vn 0.338511 0.919502 0.199814
v -3.472198 -0.595571 -8.961692
vn 0.361228 0.871704 0.331130
v -3.719442 -0.476228 -8.987778
vn 0.489562 0.749815 0.445092
v -3.079651 -0.472253 -9.698189
vn 0.505895 0.738003 0.446567
v -5.164625 -0.243461 -3.362846
vn 0.096997 0.000005 0.995285
v -5.164649 0.235213 -3.362846
vn -0.947740 -0.000048 0.319045
v -5.164625 -0.243461 -3.362846
vn 0.265906 0.963792 -0.019968
v -4.434489 -0.437037 -3.548760
vn 0.290096 0.956770 -0.020851
v -4.318166 -0.408686 -1.684067
vn 0.272655 0.961730 -0.027113
v -4.757147 -0.276586 -1.047311
vn 0.256787 0.966172 -0.023933
v -3.926028 -0.586914 -2.854764
vn 0.379125 0.925182 -0.017418
v -4.757147 -0.276586 -1.047311
vn -0.989088 0.021686 0.145720
v -5.164649 0.235213 -3.362846
vn 0.251538 -0.967680 -0.018036
v -4.398114 0.438013 -3.679834
vn 0.294879 -0.955366 -0.017944
v -4.310771 0.482560 -6.375366
vn 0.302586 -0.953099 0.006576
v -5.215365 0.222273 -5.884628
vn 0.268957 -0.963141 0.004668
v -3.920331 0.580692 -2.868247
vn 0.398627 -0.916973 -0.016023
v -1.687988 1.470621 -2.760290
vn 0.985046 0.170823 0.022457
v -1.734019 1.470621 -6.536914
vn 0.889773 -0.396016 -0.226880
v -1.617893 2.081622 -7.716771
vn 0.175959 0.098290 0.979478
v -1.789784 1.658357 -8.127027
vn -0.718518 -0.687550 0.104915
v -2.202292 1.382486 -8.019820
vn 0.707110 -0.706879 -0.017826
v 0.005709 1.470621 -5.954214
vn 0.179804 0.153728 -0.971616
v 0.006734 2.011389 -7.716771
vn 0.055389 -0.975656 0.212198
v -1.440761 -2.098765 -11.069815
vn 0.876058 0.482201 -0.002349
v -2.156447 1.371487 -8.777216
vn 0.552365 -0.829121 0.086327
v -1.876802 1.548959 -9.014386
vn -0.686318 -0.697652 0.205547
v 2.953838 0.478757 4.839386
vn -0.786208 -0.565242 -0.249756
v 3.034959 0.272405 4.820600
vn -0.898789 -0.326722 -0.292285
v 1.896096 -1.290113 -9.418386
vn -0.813776 0.580709 0.023356
v 2.006812 -1.135958 -9.393602
vn -0.634937 0.766246 0.098598
v 1.211474 0.554814 10.740222
vn -0.959667 -0.068652 -0.272629
v 1.211474 0.554814 10.740222
vn -0.878624 -0.282433 -0.385035
v 1.392518 -0.633856 10.010795
vn -0.930171 0.308364 -0.199232
v 1.237370 -1.336811 9.647139
vn -0.919544 0.337710 -0.200976
v 1.019810 -2.140422 9.167406
vn -0.908017 0.366727 -0.202524
v 1.123155 -1.290396 10.253591
vn -0.920284 0.336804 -0.199097
v 1.044587 -1.910088 9.662874
vn -0.909395 0.365124 -0.199214
v 1.012159 2.070554 9.173167
vn -0.861050 -0.484197 -0.155389
v 1.245921 1.636275 9.231057
vn -0.871590 -0.466497 -0.150700
v 2.314570 -0.618861 -10.824209
vn -0.643110 0.753929 0.134162
v 1.830243 -0.482500 8.560779
vn -0.950892 0.137584 -0.277264
v 2.211634 0.304378 -10.855579
vn -0.748924 -0.045664 0.661080
v 2.244977 0.345290 7.343752
vn -0.899592 -0.348996 -0.262559
v 2.211634 0.304378 -10.855579
vn -0.800550 -0.193389 0.567204
v 2.258098 0.450779 -10.740085
vn -0.803855 -0.143375 0.577288
v 2.540801 0.456034 -10.356289
vn -0.696201 -0.465673 0.546309
v 2.535348 0.270210 -10.478220
vn -0.713026 -0.419676 0.561664
v 2.152420 -0.607697 7.209575
vn -0.792139 0.564645 -0.231716
v 2.220005 -0.315004 7.374317
vn -0.896220 0.346384 -0.277141
v 1.858270 0.507033 8.532347
vn -0.899027 -0.362113 -0.246218
v 3.173352 0.267249 -9.835446
vn -0.588436 -0.611349 0.529145
v 2.187174 0.484572 -10.833868
vn -0.811425 -0.109963 0.574018
v 2.098794 0.473522 -11.036582
vn -0.814644 -0.177121 0.552253
v 5.226849 0.222532 -5.884574
vn -0.278979 -0.960284 0.005000
v 5.176105 0.235470 -3.362793
vn -0.261623 -0.965008 -0.017665
v 5.226849 -0.230159 -5.884574
vn -0.282491 0.959270 -0.000721
v 5.069229 -0.240751 -7.869704
vn -0.331483 0.941883 0.054555
v 4.768716 0.268468 -1.047892
vn -0.257451 -0.966019 -0.022947
v 4.329724 0.400576 -1.684142
vn -0.270060 -0.962512 -0.025245
v 4.768606 -0.276349 -1.047263
vn -0.256184 0.966333 -0.023898
v 5.176105 -0.243204 -3.362793
vn -0.265304 0.963959 -0.019933
v 4.590790 -0.266449 -8.797684
vn 0.996484 0.022571 -0.080689
v 1.848035 -1.379532 -11.069815
vn 0.000000 0.000000 -1.000000
v 1.452415 -2.098765 -11.069815
vn 0.000000 0.000000 -1.000000
v -1.440761 -2.098765 -11.069815
vn 0.000000 0.000000 -1.000000
v -1.836558 -1.379685 -11.069815
vn 0.000000 0.000000 -1.000000
v -2.225789 -0.652732 -11.069815
vn 0.000000 0.000000 -1.000000
v -2.054498 -0.501732 -11.069815
vn -0.081002 0.025970 -0.996376
v -2.219573 0.582429 -11.069815
vn 0.000000 0.000000 -1.000000
v -2.068325 1.310638 -11.069815
vn 0.000000 0.000000 -1.000000
v -1.651637 1.946385 -11.069815
vn 0.000000 0.000000 -1.000000
v 1.708080 1.938979 -11.069815
vn 0.000000 0.000000 -1.000000
v 2.091837 1.315052 -11.069815
vn 0.000000 0.000000 -1.000000
v 1.452415 -2.098765 -11.069815
vn -0.899450 0.436698 0.016844
v 2.091837 1.315052 -11.069815
vn -0.958281 -0.284742 -0.024911
v 2.237369 -0.652621 -11.069815
vn -0.814346 0.579370 0.034230
v -2.941733 0.477085 4.848698
vn 0.787888 -0.562602 -0.250422
v -1.700577 -1.609068 -3.236906
vn 0.316635 0.948542 0.003169
v -1.774855 -1.491137 -7.192763
vn 0.474955 0.878955 0.043090
v -1.431429 -1.679312 -7.390333
vn 0.887450 0.456693 0.062164
v -1.884501 -1.290207 -9.418406
vn 0.813744 0.580754 0.023366
v -1.995226 -1.136058 -9.393622
vn 0.634896 0.766279 0.098605
v -2.302994 -0.618975 -10.824233
vn 0.643070 0.753962 0.134170
v -2.225789 -0.652732 -11.069815
vn 0.814313 0.579415 0.034241
v -1.189415 -0.563334 10.737019
vn 0.952049 0.144654 -0.269587
v -1.414223 0.567979 10.089865
vn 0.922739 -0.263729 -0.281069
v -1.189415 -0.563334 10.737019
vn 0.930314 0.308221 -0.198786
v -1.008355 -2.140959 9.167368
vn -0.000233 0.906637 -0.421912
v -1.033156 -1.910139 9.662864
vn -0.000125 0.812457 -0.583021
v -1.095115 -2.104419 8.530953
vn 0.875059 0.433539 -0.215214
v -3.012351 -0.258839 4.828045
vn 0.892282 0.341872 -0.294885
v -1.846944 0.506945 8.530349
vn 0.954212 -0.103945 -0.280490
v -2.200380 -0.312267 -10.855261
vn 0.749481 0.045424 0.660465
v -3.026955 0.273281 4.809456
vn 0.900832 -0.320239 -0.293171
v -2.087270 0.473418 -11.036604
vn 0.814647 -0.177085 0.552261
v -2.191204 0.599578 7.162162
vn 0.801108 -0.552292 -0.230651
v -2.304143 0.561677 -10.756173
vn 0.610067 0.749982 0.255625
v -2.174968 0.487975 -10.848223
vn 0.580988 0.775741 0.246330
v -2.175653 0.484464 -10.833890
vn 0.558707 0.798983 0.222423
v -2.332545 0.533729 -10.579274
vn 0.596122 0.772790 0.217795
v -2.068325 1.310638 -11.069815
vn -0.826309 0.562499 0.028435
v -2.219573 0.582429 -11.069815
vn 0.951197 -0.307927 -0.020139
v -3.167766 -0.275397 -9.829609
vn 0.593334 0.613491 0.521136
v -3.833715 -0.280650 -9.221395
vn 0.584202 0.615033 0.529569
v -2.208896 -0.315550 7.373281
vn 0.895185 0.360195 -0.262493
v -2.200380 -0.312267 -10.855261
vn 0.794907 0.199771 0.572900
v -2.246759 -0.458727 -10.739839
vn 0.796141 0.173337 0.579753
v -2.527032 -0.459748 -10.362489
vn 0.693579 0.468804 0.546966
v -2.504920 -0.281548 -10.496075
vn 0.711276 0.422142 0.562035
v -2.087368 -0.492766 -11.039223
vn 0.754000 0.044466 0.655368
v -2.183018 -0.500232 -10.817193
vn 0.801539 0.154289 0.577693
v -2.233650 0.345194 7.343259
vn 0.904469 -0.325024 -0.276216
v -2.049282 0.469563 -11.069815
vn 0.573168 0.776914 0.260545
v -2.087270 0.473418 -11.036604
vn 0.520115 0.823493 0.226583
v -2.087368 -0.492766 -11.039223
vn 0.417792 0.123821 0.900066
v -2.219573 0.582429 -11.069815
vn 0.622703 0.725566 0.292907
v -4.366433 0.437427 -7.973768
vn 0.281559 -0.958035 0.053791
v -5.057725 0.233006 -7.869756
vn 0.320483 -0.945391 0.059378
v -4.276954 0.394774 -8.677653
vn 0.267474 -0.950865 0.155925
v -3.719442 -0.476228 -8.987778
vn 0.301266 0.897922 0.320897
v -1.863781 1.383523 5.302340
vn 0.719901 -0.691846 -0.055595
v -1.655703 1.645810 3.966764
vn 0.643295 -0.763996 -0.049814
v -3.902992 -0.004718 -9.279727
vn 0.573372 0.000994 0.819294
v -1.545290 -2.120045 -8.164491
vn -0.001612 0.957068 -0.289861
v -1.649138 -1.845800 4.026869
vn 0.983848 0.178998 0.001914
v 1.708080 1.938979 -11.069815
vn 0.015968 0.999516 -0.026682
v -4.580007 0.266103 -8.796320
vn 0.318511 -0.928083 0.192908
v -1.320559 -2.055343 7.675704
vn 0.855155 0.476238 -0.204712
v -1.433304 -1.597760 8.269240
vn 0.861305 0.463317 -0.208545
v -1.626402 -1.305701 8.079960
vn 0.872018 0.446345 -0.200898
v 1.106415 -2.103746 8.529427
vn -0.874637 0.434278 -0.215435
v 1.681804 1.321831 7.990597
vn -0.813489 -0.581085 -0.024002
v -1.111762 -1.290452 10.253579
vn -0.000012 0.624204 -0.781262
v 1.200768 -0.563275 10.737031
vn -0.930327 0.308174 -0.198798
v -1.200177 0.554754 10.740210
vn 0.878642 -0.282390 -0.385024
v -1.440761 -2.098765 -11.069815
vn 0.920022 0.390213 0.035959
vt 0.420900 0.821116
vt 0.420900 0.821116
vt 0.420900 0.821116
f 1/1/1 5/2/5 1/3/1
vt 0.420900 0.821116
vt 0.420900 0.821116
vt 0.420900 0.821116
f 1/4/1 6/5/6 5/6/5
vt 0.420900 0.821116
vt 0.640514 0.821116
vt 0.420900 0.821116
f 1/7/1 7/8/7 6/9/6
vt 0.420900 0.821116
vt 0.860128 0.821116
vt 0.640514 0.821116
f 1/10/1 8/11/8 7/12/7
vt 0.420900 0.821116
vt 0.860128 0.821116
vt 0.860128 0.821116
f 1/13/1 9/14/9 8/15/8
vt 0.420900 0.821116
vt 0.860128 0.821116
vt 0.860128 0.821116
f 1/16/1 10/17/10 9/18/9
vt 0.727712 0.050300
vt 0.800922 0.287360
vt 0.727712 0.050300
f 68/19/68 69/20/69 68/21/68
vt 0.727712 0.050300
vt 0.874132 0.524419
vt 0.800922 0.287360
f 68/22/68 70/23/70 69/24/69
vt 0.727712 0.050300
vt 0.734117 0.529535
vt 0.874132 0.524419
f 68/25/68 71/26/71 70/27/70
vt 0.727712 0.050300
vt 0.594103 0.534650
vt 0.734117 0.529535
f 68/28/68 72/29/72 71/30/71
vt 0.727712 0.050300
vt 0.594103 0.534650
vt 0.594103 0.534650
f 68/31/68 73/32/73 72/33/72
vt 0.727712 0.050300
vt 0.594103 0.534650
vt 0.594103 0.534650
f 68/34/68 74/35/74 73/36/73
vt 0.727712 0.050300
vt 0.734117 0.529535
vt 0.594103 0.534650
f 68/37/68 75/38/75 74/39/74
vt 0.727712 0.050300
vt 0.874132 0.524419
vt 0.734117 0.529535
f 68/40/68 76/41/76 75/42/75
vt 0.727712 0.050300
vt 0.800922 0.287360
vt 0.874132 0.524419
f 68/43/68 77/44/77 76/45/76
vt 0.727712 0.050300
vt 0.727712 0.050300
vt 0.800922 0.287360
f 68/46/68 78/47/78 77/48/77
vt 0.727712 0.050300
vt 0.812305 0.358151
vt 0.727712 0.050300
f 68/49/68 79/50/79 78/51/78
vt 0.727712 0.050300
vt 0.770009 0.204226
vt 0.812305 0.358151
f 68/52/68 80/53/80 79/54/79
vt 0.641166 0.709303
vt 0.641166 0.718160
vt 0.641166 0.709303
f 208/55/208 209/56/209 208/57/208
vt 0.641166 0.709303
vt 0.528041 0.721586
vt 0.641166 0.718160
f 208/58/208 210/59/210 209/60/209
vt 0.641166 0.709303
vt 0.528041 0.713732
vt 0.528041 0.721586
f 208/61/208 109/62/109 210/63/210
vt 0.951545 0.811948
vt 0.873375 0.816719
vt 0.951545 0.811948
f 226/64/226 21/65/21 226/66/226
vt 0.951545 0.811948
vt 0.873375 0.816719
vt 0.873375 0.816719
f 226/67/226 20/68/20 21/69/21
vt 0.951545 0.811948
vt 0.736683 0.611199
vt 0.873375 0.816719
f 226/70/226 227/71/227 20/72/20
vt 0.055973 0.534122
vt 0.146603 0.538904
vt 0.055973 0.534122
f 228/73/228 225/74/225 228/75/228
vt 0.055973 0.534122
vt 0.204531 0.558839
vt 0.146603 0.538904
f 228/76/228 224/77/224 225/78/225
vt 0.055973 0.534122
vt 0.262459 0.578773
vt 0.204531 0.558839
f 228/79/228 229/80/229 224/81/224
vt 0.055973 0.534122
vt 0.392601 0.603595
vt 0.262459 0.578773
f 228/82/228 168/83/168 229/84/229
vt 0.727702 0.042771
vt 0.432048 0.433059
vt 0.727702 0.042771
f 277/85/277 278/86/278 277/87/277
vt 0.727702 0.042771
vt 0.136395 0.823348
vt 0.432048 0.433059
f 277/88/277 279/89/279 278/90/278
vt 0.727702 0.042771
vt 0.278648 0.822232
vt 0.136395 0.823348
f 277/91/277 280/92/280 279/93/279
vt 0.727702 0.042771
vt 0.420900 0.821116
vt 0.278648 0.822232
f 277/94/277 6/95/6 280/96/280
vt 0.727702 0.042771
vt 0.420900 0.821116
vt 0.420900 0.821116
f 277/97/277 5/98/5 6/99/6
vt 0.727702 0.042771
vt 0.420900 0.821116
vt 0.420900 0.821116
f 277/100/277 1/101/1 5/102/5
vt 0.727702 0.042771
vt 0.278648 0.822232
vt 0.420900 0.821116
f 277/103/277 281/104/281 1/105/1
vt 0.727702 0.042771
vt 0.136395 0.823348
vt 0.278648 0.822232
f 277/106/277 282/107/282 281/108/281
vt 0.727702 0.042771
vt 0.432048 0.433059
vt 0.136395 0.823348
f 277/109/277 283/110/283 282/111/282
vt 0.727702 0.042771
vt 0.727702 0.042771
vt 0.432048 0.433059
f 277/112/277 284/113/284 283/114/283
vt 0.727702 0.042771
vt 0.810629 0.354436
vt 0.727702 0.042771
f 277/115/277 63/116/63 284/117/284
vt 0.727702 0.042771
vt 0.769165 0.198604
vt 0.810629 0.354436
f 277/118/277 62/119/62 63/120/63
vt 0.809382 0.718437
vt 0.484132 0.679436
vt 0.809382 0.718437
f 366/121/366 370/122/370 366/123/366
vt 0.809382 0.718437
vt 0.679439 0.762844
vt 0.484132 0.679436
f 366/124/366 371/125/371 370/126/370
vt 0.809382 0.718437
vt 0.874745 0.846252
vt 0.679439 0.762844
f 366/127/366 372/128/372 371/129/371
vt 0.641166 0.718160
vt 0.641166 0.709303
vt 0.641166 0.718160
f 400/130/400 399/131/399 400/132/400
vt 0.641166 0.718160
vt 0.528041 0.705877
vt 0.641166 0.709303
f 400/133/400 406/134/406 399/135/399
vt 0.641166 0.718160
vt 0.528041 0.713732
vt 0.528041 0.705877
f 400/136/400 310/137/310 406/138/406
vt 0.858928 0.601191
vt 0.797562 0.624709
vt 0.858442 0.638220
f 419/139/419 236/140/236 235/141/235
vt 0.377539 0.540653
vt 0.160974 0.546656
vt 0.377539 0.540653
f 221/142/221 222/143/222 221/144/221
vt 0.377539 0.540653
vt 0.160974 0.546656
vt 0.160974 0.546656
f 221/145/221 417/146/417 222/147/222
vt 0.377539 0.540653
vt 0.160974 0.546656
vt 0.160974 0.546656
f 221/148/221 413/149/413 417/150/417
vt 0.377539 0.540653
vt 0.377539 0.540653
vt 0.160974 0.546656
f 221/151/221 412/152/412 413/153/413
vt 0.377539 0.540653
vt 0.594103 0.534650
vt 0.377539 0.540653
f 221/154/221 74/155/74 412/156/412
vt 0.377539 0.540653
vt 0.594103 0.534650
vt 0.594103 0.534650
f 221/157/221 73/158/73 74/159/74
vt 0.975481 0.620945
vt 0.951545 0.811948
vt 0.975481 0.620945
f 458/160/458 459/161/459 458/162/458
vt 0.975481 0.620945
vt 0.969487 0.664493
vt 0.951545 0.811948
f 458/163/458 460/164/460 459/165/459
vt 0.975481 0.620945
vt 0.975481 0.620945
vt 0.969487 0.664493
f 458/166/458 461/167/461 460/168/460
vt 0.975481 0.620945
vt 0.981475 0.577396
vt 0.975481 0.620945
f 458/169/458 462/170/462 461/171/461
vt 0.975481 0.620945
vt 0.972638 0.709266
vt 0.981475 0.577396
f 458/172/458 463/173/463 462/174/462
vt 0.975481 0.620945
vt 0.808521 0.669774
vt 0.972638 0.709266
f 458/175/458 359/176/359 463/177/463
vt 0.975481 0.620945
vt 0.507016 0.635430
vt 0.808521 0.669774
f 458/178/458 358/179/358 359/180/359
vt 0.975481 0.620945
vt 0.053924 0.536591
vt 0.507016 0.635430
f 458/181/458 464/182/464 358/183/358
vt 0.975481 0.620945
vt 0.488127 0.600674
vt 0.053924 0.536591
f 458/184/458 465/185/465 464/186/464
vt 0.975481 0.620945
vt 0.055973 0.534122
vt 0.488127 0.600674
f 458/187/458 466/188/466 465/189/465
vt 0.975481 0.620945
vt 0.922331 0.664757
vt 0.055973 0.534122
f 458/190/458 467/191/467 466/192/466
vt 0.975481 0.620945
vt 0.488127 0.600674
vt 0.922331 0.664757
f 458/193/458 468/194/468 467/195/467
vt 0.975481 0.620945
vt 0.065423 0.540032
vt 0.488127 0.600674
f 458/196/458 171/197/171 468/198/468
vt 0.975481 0.620945
vt 0.061220 0.541113
vt 0.065423 0.540032
f 458/199/458 164/200/164 171/201/171
vt 0.975481 0.620945
vt 0.507016 0.635430
vt 0.061220 0.541113
f 458/202/458 161/203/161 164/204/164
vt 0.975481 0.620945
vt 0.808521 0.669774
vt 0.507016 0.635430
f 458/205/458 137/206/137 161/207/161
vt 0.975481 0.620945
vt 0.972638 0.709266
vt 0.808521 0.669774
f 458/208/458 136/209/136 137/210/137
vt 0.858442 0.638220
vt 0.797562 0.624709
vt 0.858928 0.601191
f 23/211/23 18/212/18 469/213/469
vt 0.873375 0.816719
vt 0.858928 0.601191
vt 0.797562 0.624709
f 21/214/21 469/215/469 18/216/18
vt 0.680584 0.658477
vt 0.392601 0.603595
vt 0.379193 0.583309
f 470/217/470 168/218/168 167/219/167
vt 0.874745 0.846252
vt 0.679439 0.762844
vt 0.874745 0.846252
f 457/220/457 182/221/182 457/222/457
vt 0.874745 0.846252
vt 0.484132 0.679436
vt 0.679439 0.762844
f 457/223/457 181/224/181 182/225/182
vt 0.874745 0.846252
vt 0.809382 0.718437
vt 0.484132 0.679436
f 457/226/457 191/227/191 181/228/181
vt 0.680584 0.658477
vt 0.392601 0.603595
vt 0.680584 0.658477
f 496/229/496 364/230/364 496/231/496
vt 0.680584 0.658477
vt 0.262459 0.578773
vt 0.392601 0.603595
f 496/232/496 421/233/421 364/234/364
vt 0.680584 0.658477
vt 0.204531 0.558839
vt 0.262459 0.578773
f 496/235/496 415/236/415 421/237/421
vt 0.680584 0.658477
vt 0.146603 0.538904
vt 0.204531 0.558839
f 496/238/496 414/239/414 415/240/415
vt 0.146603 0.538904
vt 0.146603 0.538904
vt 0.146603 0.538904
f 414/241/414 418/242/418 414/243/414
vt 0.146603 0.538904
vt 0.146603 0.538904
vt 0.146603 0.538904
f 414/244/414 225/245/225 418/246/418
vt 0.146603 0.538904
vt 0.922331 0.664757
vt 0.146603 0.538904
f 414/247/414 521/248/521 225/249/225
vt 0.797562 0.624709
vt 0.969487 0.664493
vt 0.736683 0.611199
f 236/250/236 531/251/531 227/252/227
vt 0.420900 0.821116
vt 0.421039 0.825504
vt 0.329114 0.826966
vt 0.283082 0.825504
f 1/253/1 2/254/2 3/255/3 4/256/4
vt 0.420900 0.821116
vt 0.283082 0.825504
vt 0.234187 0.824785
vt 0.278648 0.822232
f 1/257/1 4/258/4 11/259/11 12/260/12
vt 0.860128 0.821116
vt 0.860030 0.825504
vt 0.640534 0.825504
vt 0.640514 0.821116
f 10/261/10 13/262/13 14/263/14 15/264/15
vt 0.712149 0.622626
vt 0.736683 0.611199
vt 0.797562 0.624709
vt 0.785053 0.648937
f 16/265/16 17/266/17 18/267/18 19/268/19
vt 0.860128 0.821116
vt 0.860128 0.821116
vt 0.873375 0.816719
vt 0.873375 0.816719
f 10/269/10 9/270/9 20/271/20 21/272/21
vt 0.857956 0.675249
vt 0.785053 0.648937
vt 0.797562 0.624709
vt 0.858442 0.638220
f 22/273/22 19/274/19 18/275/18 23/276/23
vt 0.955313 0.820095
vt 0.959557 0.830616
vt 0.956565 0.833729
vt 0.952947 0.830026
f 24/277/24 25/278/25 26/279/26 27/280/27
vt 0.421178 0.829891
vt 0.283221 0.829891
vt 0.329114 0.826966
vt 0.421039 0.825504
f 28/281/28 29/282/29 3/283/3 2/284/2
vt 0.421178 0.829891
vt 0.420293 0.876737
vt 0.328617 0.861122
vt 0.283221 0.829891
f 28/285/28 30/286/30 31/287/31 29/288/29
vt 0.859931 0.829891
vt 0.640555 0.829891
vt 0.640534 0.825504
vt 0.860030 0.825504
f 32/289/32 33/290/33 14/291/14 13/292/13
vt 0.859931 0.829891
vt 0.859977 0.876737
vt 0.639069 0.886106
vt 0.640555 0.829891
f 32/293/32 34/294/34 35/295/35 33/296/33
vt 0.061556 0.699348
vt 0.061556 0.713870
vt 0.035612 0.713870
vt 0.035612 0.699348
f 36/297/36 37/298/37 38/299/38 39/300/39
vt 0.081192 0.807339
vt 0.404447 0.425055
vt 0.315096 0.557819
vt 0.108793 0.815343
f 40/301/40 41/302/41 42/303/42 43/304/43
vt 0.061556 0.728392
vt 0.035612 0.728392
vt 0.035612 0.713870
vt 0.061556 0.713870
f 44/305/44 45/306/45 38/307/38 37/308/37
vt 0.928264 0.507797
vt 0.827988 0.279050
vt 0.883594 0.354684
vt 0.961535 0.506875
f 46/309/46 47/310/47 48/311/48 49/312/49
vt 0.778196 0.383205
vt 0.886501 0.444579
vt 0.641178 0.505140
vt 0.395855 0.594711
f 50/313/50 51/314/51 52/315/52 53/316/53
vt 0.009669 0.699348
vt 0.035612 0.699348
vt 0.035612 0.713870
vt 0.009669 0.713870
f 54/317/54 39/318/39 38/319/38 55/320/55
vt 0.994806 0.505953
vt 0.886501 0.415569
vt 0.641178 0.505140
vt 0.886501 0.444579
f 56/321/56 57/322/57 52/323/52 51/324/51
vt 0.994806 0.505953
vt 0.861259 0.278128
vt 0.842238 0.327110
vt 0.886501 0.415569
f 56/325/56 58/326/58 59/327/59 57/328/57
vt 0.893555 0.666101
vt 0.810629 0.354437
vt 0.769165 0.198604
vt 0.810629 0.354436
f 60/329/60 61/330/61 62/331/62 63/332/63
vt 0.868171 0.427121
vt 0.823184 0.405163
vt 0.596896 0.414829
vt 0.797936 0.234948
f 64/333/64 65/334/65 66/335/66 67/336/67
vt 0.821961 0.427460
vt 0.875113 0.467629
vt 0.874786 0.486559
vt 0.848047 0.475940
f 81/337/81 82/338/82 83/339/83 84/340/84
vt 0.727712 0.050303
vt 0.727712 0.050302
vt 0.770009 0.204226
vt 0.812305 0.358152
f 85/341/85 86/342/86 80/343/80 87/344/87
vt 0.727712 0.050303
vt 0.861259 0.278128
vt 0.883594 0.354684
vt 0.827988 0.279050
f 88/345/88 89/346/89 48/347/48 47/348/47
vt 0.596861 0.629285
vt 0.490972 0.629285
vt 0.380122 0.593832
vt 0.595482 0.581968
f 90/349/90 91/350/91 92/351/92 93/352/93
vt 0.414917 0.725013
vt 0.268905 0.725013
vt 0.268905 0.713732
vt 0.414917 0.713732
f 94/353/94 95/354/95 96/355/96 97/356/97
vt 0.597376 0.640434
vt 0.491230 0.634860
vt 0.526440 0.633002
vt 0.597119 0.634860
f 98/357/98 99/358/99 100/359/100 101/360/101
vt 0.414917 0.702451
vt 0.414917 0.713732
vt 0.268905 0.713732
vt 0.268905 0.702451
f 102/361/102 97/362/97 96/363/96 103/364/103
vt 0.419047 0.935624
vt 0.277574 0.885086
vt 0.279955 0.880911
vt 0.419228 0.929603
f 104/365/104 105/366/105 106/367/106 107/368/107
vt 0.414917 0.702451
vt 0.528041 0.705877
vt 0.528041 0.713732
vt 0.414917 0.713732
f 102/369/102 108/370/108 109/371/109 97/372/97
vt 0.419408 0.923583
vt 0.282336 0.876737
vt 0.328617 0.861122
vt 0.420293 0.876737
f 110/373/110 111/374/111 31/375/31 30/376/30
vt 0.122893 0.702451
vt 0.268905 0.702451
vt 0.268905 0.713732
vt 0.122893 0.713732
f 112/377/112 103/378/103 96/379/96 113/380/113
vt 0.122893 0.702451
vt 0.102042 0.754895
vt 0.121436 0.790757
vt 0.134079 0.766171
f 112/381/112 114/382/114 115/383/115 116/384/116
vt 0.136395 0.823348
vt 0.108793 0.815343
vt 0.315096 0.557819
vt 0.432048 0.433059
f 117/385/117 43/386/43 42/387/42 118/388/118
vt 0.136395 0.823348
vt 0.278648 0.822232
vt 0.234187 0.824785
vt 0.140830 0.826620
f 117/389/117 12/390/12 11/391/11 119/392/119
vt 0.145264 0.829891
vt 0.283221 0.829891
vt 0.328617 0.861122
vt 0.282336 0.876737
f 120/393/120 29/394/29 31/395/31 111/396/111
vt 0.145264 0.829891
vt 0.283082 0.825504
vt 0.329114 0.826966
vt 0.283221 0.829891
f 120/397/120 4/398/4 3/399/3 29/400/29
vt 0.950581 0.839957
vt 0.957191 0.840547
vt 0.957683 0.841559
vt 0.954623 0.841770
f 121/401/121 122/402/122 123/403/123 124/404/124
vt 0.950581 0.839957
vt 0.906998 0.882789
vt 0.883488 0.879763
vt 0.905256 0.834924
f 121/405/121 125/406/125 126/407/126 127/408/127
vt 0.950581 0.839957
vt 0.952947 0.830026
vt 0.956565 0.833729
vt 0.957191 0.840547
f 128/409/128 27/410/27 26/411/26 129/412/129
vt 0.963801 0.841137
vt 0.957191 0.840547
vt 0.956565 0.833729
vt 0.959557 0.830616
f 130/413/130 129/414/129 26/415/26 25/416/25
vt 0.960107 0.693195
vt 0.960107 0.713732
vt 0.957893 0.713732
vt 0.957893 0.697823
f 131/417/131 132/418/132 133/419/133 134/420/134
vt 0.963801 0.841137
vt 0.972638 0.709266
vt 0.808521 0.669774
vt 0.961954 0.787702
f 135/421/135 136/422/136 137/423/137 138/424/138
vt 0.955679 0.702451
vt 0.955679 0.713732
vt 0.923153 0.713732
vt 0.923153 0.702451
f 139/425/139 140/426/140 141/427/141 142/428/142
vt 0.955679 0.702451
vt 0.957893 0.697823
vt 0.957893 0.713732
vt 0.955679 0.713732
f 139/429/139 134/430/134 133/431/133 140/432/140
vt 0.958666 0.843584
vt 0.954623 0.841770
vt 0.957683 0.841559
vt 0.961233 0.842360
f 143/433/143 124/434/124 123/435/123 144/436/144
vt 0.865496 0.532937
vt 0.731179 0.581111
vt 0.685487 0.565624
vt 0.729800 0.533794
f 145/437/145 146/438/146 147/439/147 148/440/148
vt 0.865496 0.532937
vt 0.869814 0.528678
vt 0.668938 0.580253
vt 0.870032 0.534100
f 145/441/145 149/442/149 150/443/150 151/444/151
vt 0.874132 0.524419
vt 0.869814 0.528678
vt 0.777910 0.530669
vt 0.734117 0.529535
f 70/445/70 149/446/149 152/447/152 153/448/153
vt 0.874132 0.524419
vt 0.467844 0.626406
vt 0.668938 0.580253
vt 0.869814 0.528678
f 70/449/70 154/450/154 150/451/150 149/452/149
vt 0.122893 0.725013
vt 0.092224 0.726703
vt 0.092224 0.713801
vt 0.122893 0.713732
f 155/453/155 156/454/156 157/455/157 113/456/113
vt 0.955679 0.725013
vt 0.923153 0.725013
vt 0.923153 0.713732
vt 0.955679 0.713732
f 158/457/158 159/458/159 141/459/141 140/460/140
vt 0.960107 0.734268
vt 0.961954 0.787702
vt 0.808521 0.669774
vt 0.507016 0.635430
f 160/461/160 138/462/138 137/463/137 161/464/161
vt 0.052814 0.543274
vt 0.053369 0.539932
vt 0.061220 0.541113
vt 0.064869 0.543374
f 162/465/162 163/466/163 164/467/164 165/468/165
vt 0.076923 0.543474
vt 0.379193 0.583309
vt 0.392601 0.603595
vt 0.097936 0.544269
f 166/469/166 167/470/167 168/471/168 169/472/169
vt 0.076923 0.543474
vt 0.064869 0.543374
vt 0.061220 0.541113
vt 0.065423 0.540032
f 170/473/170 165/474/165 164/475/164 171/476/171
vt 0.076923 0.543474
vt 0.097936 0.544269
vt 0.135760 0.579384
vt 0.117645 0.587957
f 166/477/166 169/478/169 172/479/172 173/480/173
vt 0.809382 0.718437
vt 0.484132 0.679436
vt 0.375544 0.663771
vt 0.483875 0.675439
f 174/481/174 175/482/175 176/483/176 177/484/177
vt 0.890627 0.725013
vt 0.890627 0.713732
vt 0.923153 0.713732
vt 0.923153 0.725013
f 178/485/178 179/486/179 141/487/141 159/488/159
vt 0.158882 0.640434
vt 0.484132 0.679436
vt 0.679439 0.762844
vt 0.524755 0.671442
f 180/489/180 181/490/181 182/491/182 183/492/183
vt 0.163587 0.629285
vt 0.160977 0.630863
vt 0.135760 0.579384
vt 0.162281 0.587971
f 184/493/184 185/494/185 172/495/172 186/496/186
vt 0.158367 0.632441
vt 0.117645 0.587957
vt 0.135760 0.579384
vt 0.160977 0.630863
f 187/497/187 173/498/173 172/499/172 185/500/185
vt 0.158367 0.632441
vt 0.158625 0.636438
vt 0.114592 0.593183
vt 0.117645 0.587957
f 187/501/187 188/502/188 189/503/189 173/504/173
vt 0.158367 0.632441
vt 0.483875 0.675439
vt 0.375544 0.663771
vt 0.158625 0.636438
f 187/505/187 177/506/177 176/507/176 188/508/188
vt 0.809382 0.709581
vt 0.809382 0.718437
vt 0.725274 0.718298
vt 0.725274 0.709442
f 190/509/190 191/510/191 192/511/192 193/512/193
vt 0.890627 0.702451
vt 0.923153 0.702451
vt 0.923153 0.713732
vt 0.890627 0.713732
f 194/513/194 142/514/142 141/515/141 179/516/179
vt 0.863054 0.935624
vt 0.863235 0.930623
vt 0.908929 0.886197
vt 0.910860 0.889604
f 195/517/195 196/518/196 197/519/197 198/520/198
vt 0.890627 0.702451
vt 0.874745 0.846252
vt 0.868233 0.885427
vt 0.877021 0.814036
f 194/521/194 199/522/199 200/523/200 201/524/201
vt 0.860024 0.923583
vt 0.747413 0.923583
vt 0.639069 0.886106
vt 0.859977 0.876737
f 202/525/202 203/526/203 35/527/35 34/528/34
vt 0.860024 0.923583
vt 0.859444 0.956818
vt 0.748073 0.956818
vt 0.747413 0.923583
f 202/529/202 204/530/204 205/531/205 203/532/203
vt 0.863415 0.925622
vt 0.861720 0.924602
vt 0.883488 0.879763
vt 0.906998 0.882789
f 206/533/206 207/534/207 126/535/126 125/536/125
vt 0.634802 0.923583
vt 0.527105 0.923583
vt 0.639069 0.886106
vt 0.747413 0.923583
f 211/537/211 212/538/212 35/539/35 203/540/203
vt 0.634802 0.923583
vt 0.526924 0.929603
vt 0.491086 0.927596
vt 0.527105 0.923583
f 211/541/211 213/542/213 214/543/214 212/544/212
vt 0.634802 0.923583
vt 0.636701 0.956818
vt 0.564150 0.949754
vt 0.526924 0.929603
f 211/545/211 215/546/215 216/547/216 213/548/213
vt 0.641166 0.718160
vt 0.641166 0.709303
vt 0.725274 0.709442
vt 0.725274 0.718298
f 209/549/209 208/550/208 193/551/193 192/552/192
vt 0.385084 0.629285
vt 0.274336 0.629285
vt 0.380122 0.593832
vt 0.490972 0.629285
f 217/553/217 218/554/218 92/555/92 91/556/91
vt 0.385084 0.629285
vt 0.383582 0.662544
vt 0.379700 0.661050
vt 0.274336 0.629285
f 217/557/217 219/558/219 220/559/220 218/560/218
vt 0.594103 0.534650
vt 0.595482 0.581968
vt 0.380122 0.593832
vt 0.377539 0.540653
f 72/561/72 93/562/93 92/563/92 221/564/221
vt 0.594103 0.534650
vt 0.729800 0.533794
vt 0.685487 0.565624
vt 0.595482 0.581968
f 72/565/72 148/566/148 147/567/147 93/568/93
vt 0.594103 0.534650
vt 0.734117 0.529535
vt 0.777910 0.530669
vt 0.729800 0.533794
f 72/569/72 153/570/153 152/571/152 148/572/148
vt 0.160974 0.546656
vt 0.377539 0.540653
vt 0.380122 0.593832
vt 0.162281 0.587971
f 222/573/222 221/574/221 92/575/92 186/576/186
vt 0.160974 0.546656
vt 0.139962 0.545860
vt 0.204531 0.558839
vt 0.146603 0.538904
f 222/577/222 223/578/223 224/579/224 225/580/225
vt 0.118949 0.545065
vt 0.262459 0.578773
vt 0.204531 0.558839
vt 0.139962 0.545860
f 230/581/230 229/582/229 224/583/224 223/584/223
vt 0.420900 0.821116
vt 0.283082 0.825504
vt 0.329114 0.826966
vt 0.421039 0.825504
f 6/585/6 231/586/231 232/587/232 233/588/233
vt 0.857956 0.675249
vt 0.858442 0.638220
vt 0.797562 0.624709
vt 0.785053 0.648937
f 234/589/234 235/590/235 236/591/236 237/592/237
vt 0.955313 0.820095
vt 0.952947 0.830026
vt 0.956565 0.833729
vt 0.959557 0.830616
f 238/593/238 239/594/239 240/595/240 241/596/241
vt 0.421178 0.829891
vt 0.283221 0.829891
vt 0.328617 0.861122
vt 0.420293 0.876737
f 242/597/242 243/598/243 244/599/244 245/600/245
vt 0.421178 0.829891
vt 0.420293 0.876737
vt 0.639069 0.886106
vt 0.640555 0.829891
f 242/601/242 245/602/245 246/603/246 247/604/247
vt 0.859931 0.829891
vt 0.640555 0.829891
vt 0.639069 0.886106
vt 0.859977 0.876737
f 248/605/248 247/606/247 246/607/246 249/608/249
vt 0.859931 0.829891
vt 0.859977 0.876737
vt 0.883488 0.879763
vt 0.905256 0.834924
f 248/609/248 249/610/249 250/611/250 251/612/251
vt 0.061556 0.699348
vt 0.035612 0.699348
vt 0.035612 0.713870
vt 0.061556 0.713870
f 252/613/252 253/614/253 254/615/254 255/616/255
vt 0.061556 0.699348
vt 0.098828 0.766947
vt 0.119829 0.796783
vt 0.098975 0.761348
f 252/617/252 256/618/256 257/619/257 258/620/258
vt 0.081192 0.807339
vt 0.451948 0.617230
vt 0.411278 0.520863
vt 0.047352 0.806778
f 259/621/259 260/622/260 261/623/261 262/624/262
vt 0.061556 0.728392
vt 0.061556 0.713870
vt 0.035612 0.713870
vt 0.035612 0.728392
f 263/625/263 255/626/255 254/627/254 264/628/264
vt 0.928264 0.507797
vt 0.901198 0.516108
vt 0.697696 0.572541
vt 0.525579 0.616405
f 265/629/265 266/630/266 267/631/267 268/632/268
vt 0.928264 0.507797
vt 0.827988 0.279049
vt 0.843369 0.360839
vt 0.901198 0.516108
f 265/633/265 269/634/269 270/635/270 266/636/266
vt 0.013513 0.806218
vt 0.395855 0.594711
vt 0.641178 0.505140
vt 0.395855 0.565702
f 271/637/271 53/638/53 52/639/52 272/640/272
vt 0.009669 0.728392
vt 0.035612 0.728392
vt 0.035612 0.713870
vt 0.009669 0.713870
f 273/641/273 264/642/264 254/643/254 274/644/274
vt 0.778196 0.325186
vt 0.886501 0.415569
vt 0.842238 0.327110
vt 0.823218 0.376091
f 275/645/275 57/646/57 59/647/59 276/648/276
vt 0.727702 0.042774
vt 0.370608 0.424496
vt 0.411278 0.520863
vt 0.775203 0.234948
f 285/649/285 286/650/286 261/651/261 287/652/287
vt 0.727712 0.050300
vt 0.827988 0.279049
vt 0.841405 0.328365
vt 0.797976 0.238648
f 78/653/78 269/654/269 288/655/288 289/656/289
vt 0.896899 0.666001
vt 0.812305 0.358152
vt 0.770009 0.204226
vt 0.812305 0.358151
f 290/657/290 87/658/87 80/659/80 79/660/79
vt 0.868240 0.426996
vt 0.823218 0.376091
vt 0.842238 0.327110
vt 0.797976 0.238650
f 291/661/291 276/662/276 59/663/59 292/664/292
vt 0.868240 0.426996
vt 0.898252 0.467397
vt 0.858233 0.419993
vt 0.823218 0.376091
f 293/665/293 294/666/294 295/667/295 296/668/296
vt 0.596861 0.629285
vt 0.595482 0.581968
vt 0.380122 0.593832
vt 0.490972 0.629285
f 297/669/297 298/670/298 299/671/299 300/672/300
vt 0.596861 0.629285
vt 0.731179 0.581111
vt 0.685487 0.565624
vt 0.595482 0.581968
f 297/673/297 301/674/301 302/675/302 298/676/298
vt 0.596861 0.629285
vt 0.490972 0.629285
vt 0.526440 0.633002
vt 0.597119 0.634860
f 297/677/297 300/678/300 303/679/303 304/680/304
vt 0.414917 0.725013
vt 0.414917 0.713732
vt 0.268905 0.713732
vt 0.268905 0.725013
f 305/681/305 306/682/306 307/683/307 308/684/308
vt 0.414917 0.725013
vt 0.528041 0.721586
vt 0.528041 0.713732
vt 0.414917 0.713732
f 305/685/305 309/686/309 310/687/310 306/688/306
vt 0.597376 0.640434
vt 0.491230 0.634860
vt 0.454847 0.655174
vt 0.489728 0.668118
f 311/689/311 312/690/312 313/691/313 314/692/314
vt 0.414917 0.702451
vt 0.268905 0.702451
vt 0.268905 0.713732
vt 0.414917 0.713732
f 315/693/315 316/694/316 307/695/307 306/696/306
vt 0.419047 0.935624
vt 0.526924 0.929603
vt 0.491086 0.927596
vt 0.419228 0.929603
f 317/697/317 318/698/318 319/699/319 320/700/320
vt 0.419408 0.923583
vt 0.420293 0.876737
vt 0.328617 0.861122
vt 0.282336 0.876737
f 321/701/321 245/702/245 244/703/244 322/704/322
vt 0.419408 0.923583
vt 0.282336 0.876737
vt 0.279955 0.880911
vt 0.419228 0.929603
f 321/705/321 322/706/322 323/707/323 320/708/320
vt 0.419408 0.923583
vt 0.527105 0.923583
vt 0.639069 0.886106
vt 0.420293 0.876737
f 321/709/321 324/710/324 246/711/246 245/712/245
vt 0.122893 0.702451
vt 0.092224 0.700899
vt 0.092224 0.713801
vt 0.122893 0.713732
f 325/713/325 326/714/326 327/715/327 328/716/328
vt 0.136395 0.823348
vt 0.098975 0.761348
vt 0.119829 0.796783
vt 0.140830 0.826620
f 329/717/329 258/718/258 257/719/257 330/720/330
vt 0.145264 0.829891
vt 0.282336 0.876737
vt 0.328617 0.861122
vt 0.283221 0.829891
f 331/721/331 322/722/322 244/723/244 243/724/243
vt 0.145264 0.829891
vt 0.140830 0.826620
vt 0.119829 0.796783
vt 0.140682 0.832219
f 331/725/331 330/726/330 257/727/257 332/728/332
vt 0.145264 0.829891
vt 0.283082 0.825504
vt 0.234187 0.824785
vt 0.140830 0.826620
f 331/729/331 231/730/231 333/731/333 330/732/330
vt 0.950581 0.839957
vt 0.905256 0.834924
vt 0.883488 0.879763
vt 0.906998 0.882789
f 334/733/334 251/734/251 250/735/250 335/736/335
vt 0.950581 0.839957
vt 0.957191 0.840547
vt 0.956565 0.833729
vt 0.952947 0.830026
f 336/737/336 337/738/337 240/739/240 239/740/239
vt 0.963801 0.841137
vt 0.959557 0.830616
vt 0.956565 0.833729
vt 0.957191 0.840547
f 338/741/338 241/742/241 240/743/240 337/744/337
vt 0.955679 0.702451
vt 0.923153 0.702451
vt 0.923153 0.713732
vt 0.955679 0.713732
f 339/745/339 340/746/340 341/747/341 342/748/342
vt 0.865496 0.532937
vt 0.494194 0.628975
vt 0.697696 0.572541
vt 0.869814 0.528678
f 343/749/343 344/750/344 267/751/267 345/752/345
vt 0.865496 0.532937
vt 0.729800 0.533794
vt 0.685487 0.565624
vt 0.731179 0.581111
f 343/753/343 346/754/346 302/755/302 301/756/301
vt 0.874132 0.524419
vt 0.901198 0.516108
vt 0.843369 0.360839
vt 0.800922 0.287360
f 76/757/76 266/758/266 270/759/270 77/760/77
vt 0.122893 0.725013
vt 0.268905 0.725013
vt 0.268905 0.713732
vt 0.122893 0.713732
f 347/761/347 308/762/308 307/763/307 328/764/328
vt 0.122893 0.725013
vt 0.525579 0.616405
vt 0.697696 0.572541
vt 0.494194 0.628975
f 347/765/347 268/766/268 267/767/267 344/768/344
vt 0.955679 0.725013
vt 0.955679 0.713732
vt 0.923153 0.713732
vt 0.923153 0.725013
f 348/769/348 342/770/342 341/771/341 349/772/349
vt 0.955679 0.725013
vt 0.957893 0.729640
vt 0.957893 0.713732
vt 0.955679 0.713732
f 348/773/348 350/774/350 351/775/351 342/776/342
vt 0.064195 0.556381
vt 0.070559 0.549927
vt 0.064644 0.547710
vt 0.058505 0.549828
f 352/777/352 353/778/353 354/779/354 355/780/355
vt 0.960107 0.734268
vt 0.960107 0.713732
vt 0.957893 0.713732
vt 0.957893 0.729640
f 356/781/356 357/782/357 351/783/351 350/784/350
vt 0.960107 0.734268
vt 0.507016 0.635430
vt 0.808521 0.669774
vt 0.961954 0.787702
f 356/785/356 358/786/358 359/787/359 360/788/360
vt 0.076923 0.543474
vt 0.064869 0.543374
vt 0.064644 0.547710
vt 0.070559 0.549927
f 361/789/361 362/790/362 354/791/354 353/792/353
vt 0.076923 0.543474
vt 0.097936 0.544269
vt 0.392601 0.603595
vt 0.379193 0.583309
f 361/793/361 363/794/363 364/795/364 365/796/365
vt 0.809382 0.718437
vt 0.809382 0.709581
vt 0.725274 0.709442
vt 0.725274 0.718298
f 366/797/366 367/798/367 368/799/368 369/800/369
vt 0.890627 0.725013
vt 0.923153 0.725013
vt 0.923153 0.713732
vt 0.890627 0.713732
f 373/801/373 349/802/349 341/803/341 374/804/374
vt 0.158882 0.640434
vt 0.158625 0.636438
vt 0.114592 0.593183
vt 0.111539 0.598408
f 375/805/375 376/806/376 377/807/377 378/808/378
vt 0.163587 0.629285
vt 0.162281 0.587971
vt 0.135760 0.579384
vt 0.160977 0.630863
f 379/809/379 380/810/380 381/811/381 382/812/382
vt 0.163587 0.629285
vt 0.274336 0.629285
vt 0.380122 0.593832
vt 0.162281 0.587971
f 379/813/379 383/814/383 299/815/299 380/816/380
vt 0.158367 0.632441
vt 0.160977 0.630863
vt 0.135760 0.579384
vt 0.117645 0.587957
f 384/817/384 382/818/382 381/819/381 385/820/385
vt 0.858864 0.990054
vt 0.859444 0.956818
vt 0.748073 0.956818
vt 0.748732 0.990054
f 386/821/386 387/822/387 388/823/388 389/824/389
vt 0.858864 0.990054
vt 0.874745 0.846252
vt 0.868233 0.885427
vt 0.859444 0.956818
f 386/825/386 390/826/390 391/827/391 387/828/387
vt 0.890627 0.702451
vt 0.890627 0.713732
vt 0.923153 0.713732
vt 0.923153 0.702451
f 392/829/392 374/830/374 341/831/341 340/832/340
vt 0.860024 0.923583
vt 0.859977 0.876737
vt 0.639069 0.886106
vt 0.747413 0.923583
f 393/833/393 249/834/249 246/835/246 394/836/394
vt 0.860024 0.923583
vt 0.861720 0.924602
vt 0.883488 0.879763
vt 0.859977 0.876737
f 393/837/393 395/838/395 250/839/250 249/840/249
vt 0.863415 0.925622
vt 0.906998 0.882789
vt 0.883488 0.879763
vt 0.861720 0.924602
f 396/841/396 335/842/335 250/843/250 395/844/395
vt 0.863415 0.925622
vt 0.863235 0.930623
vt 0.908929 0.886197
vt 0.906998 0.882789
f 396/845/396 397/846/397 398/847/398 335/848/335
vt 0.641166 0.709303
vt 0.641166 0.718160
vt 0.725274 0.718298
vt 0.725274 0.709442
f 399/849/399 400/850/400 369/851/369 368/852/368
vt 0.638601 0.990054
vt 0.636701 0.956818
vt 0.564150 0.949754
vt 0.528824 0.962839
f 401/853/401 402/854/402 403/855/403 404/856/404
vt 0.634802 0.923583
vt 0.747413 0.923583
vt 0.639069 0.886106
vt 0.527105 0.923583
f 405/857/405 394/858/394 246/859/246 324/860/324
vt 0.382080 0.695802
vt 0.383582 0.662544
vt 0.379700 0.661050
vt 0.595731 0.707120
f 407/861/407 408/862/408 409/863/409 410/864/410
vt 0.385084 0.629285
vt 0.490972 0.629285
vt 0.380122 0.593832
vt 0.274336 0.629285
f 411/865/411 300/866/300 299/867/299 383/868/383
vt 0.385084 0.629285
vt 0.383582 0.662544
vt 0.454847 0.655174
vt 0.491230 0.634860
f 411/869/411 408/870/408 313/871/313 312/872/312
vt 0.594103 0.534650
vt 0.377539 0.540653
vt 0.380122 0.593832
vt 0.595482 0.581968
f 74/873/74 412/874/412 299/875/299 298/876/298
vt 0.160974 0.546656
vt 0.146603 0.538904
vt 0.204531 0.558839
vt 0.139962 0.545860
f 413/877/413 414/878/414 415/879/415 416/880/416
vt 0.160974 0.546656
vt 0.139962 0.545860
vt 0.135760 0.579384
vt 0.162281 0.587971
f 413/881/413 416/882/416 381/883/381 380/884/380
vt 0.160974 0.546656
vt 0.160974 0.546656
vt 0.146603 0.538904
vt 0.146603 0.538904
f 413/885/413 417/886/417 418/887/418 414/888/414
vt 0.118949 0.545065
vt 0.139962 0.545860
vt 0.204531 0.558839
vt 0.262459 0.578773
f 420/889/420 416/890/416 415/891/415 421/892/421
vt 0.118949 0.545065
vt 0.262459 0.578773
vt 0.392601 0.603595
vt 0.097936 0.544269
f 420/893/420 421/894/421 364/895/364 363/896/363
vt 0.597119 0.634860
vt 0.733575 0.584480
vt 0.735972 0.587849
vt 0.597376 0.640434
f 101/897/101 422/898/422 423/899/423 98/900/98
vt 0.597119 0.634860
vt 0.526440 0.633002
vt 0.490972 0.629285
vt 0.596861 0.629285
f 101/901/101 100/902/100 91/903/91 90/904/90
vt 0.640514 0.821116
vt 0.640534 0.825504
vt 0.421039 0.825504
vt 0.420900 0.821116
f 15/905/15 14/906/14 2/907/2 1/908/1
vt 0.907720 0.820605
vt 0.906488 0.827765
vt 0.860030 0.825504
vt 0.860128 0.821116
f 424/909/424 425/910/425 13/911/13 10/912/10
vt 0.421039 0.825504
vt 0.640534 0.825504
vt 0.640555 0.829891
vt 0.421178 0.829891
f 2/913/2 14/914/14 33/915/33 28/916/28
vt 0.860030 0.825504
vt 0.906488 0.827765
vt 0.905256 0.834924
vt 0.859931 0.829891
f 13/917/13 425/918/425 127/919/127 32/920/32
vt 0.640555 0.829891
vt 0.639069 0.886106
vt 0.420293 0.876737
vt 0.421178 0.829891
f 33/921/33 35/922/35 30/923/30 28/924/28
vt 0.061556 0.713870
vt 0.092224 0.713801
vt 0.092224 0.726703
vt 0.061556 0.728392
f 37/925/37 157/926/157 156/927/156 44/928/44
vt 0.009669 0.713870
vt 0.035612 0.713870
vt 0.035612 0.728392
vt 0.009669 0.728392
f 55/929/55 38/930/38 45/931/45 426/932/426
vt 0.961535 0.506875
vt 0.883594 0.354684
vt 0.861259 0.278128
vt 0.994806 0.505953
f 49/933/49 48/934/48 89/935/89 427/936/427
vt 0.429694 0.595272
vt 0.613815 0.415109
vt 0.404447 0.425055
vt 0.081192 0.807339
f 428/937/428 429/938/429 41/939/41 40/940/40
vt 0.797936 0.234946
vt 0.613815 0.415109
vt 0.823184 0.405163
vt 0.868171 0.427121
f 430/941/430 429/942/429 431/943/431 432/944/432
vt 0.774837 0.238882
vt 0.825979 0.328520
vt 0.875113 0.467629
vt 0.821961 0.427460
f 433/945/433 434/946/434 82/947/82 81/948/81
vt 0.595482 0.581968
vt 0.685487 0.565624
vt 0.731179 0.581111
vt 0.596861 0.629285
f 93/949/93 147/950/147 146/951/146 90/952/90
vt 0.414917 0.713732
vt 0.528041 0.713732
vt 0.528041 0.721586
vt 0.414917 0.725013
f 97/953/97 109/954/109 210/955/210 94/956/94
vt 0.419228 0.929603
vt 0.491086 0.927596
vt 0.526924 0.929603
vt 0.419047 0.935624
f 107/957/107 214/958/214 213/959/213 104/960/104
vt 0.419228 0.929603
vt 0.279955 0.880911
vt 0.282336 0.876737
vt 0.419408 0.923583
f 107/961/107 106/962/106 111/963/111 110/964/110
vt 0.420293 0.876737
vt 0.639069 0.886106
vt 0.527105 0.923583
vt 0.419408 0.923583
f 30/965/30 35/966/35 212/967/212 110/968/110
vt 0.905256 0.834924
vt 0.883488 0.879763
vt 0.859977 0.876737
vt 0.859931 0.829891
f 127/969/127 126/970/126 34/971/34 32/972/32
vt 0.905256 0.834924
vt 0.906488 0.827765
vt 0.952947 0.830026
vt 0.950581 0.839957
f 127/973/127 425/974/425 435/975/435 121/976/121
vt 0.122893 0.713732
vt 0.268905 0.713732
vt 0.268905 0.725013
vt 0.122893 0.725013
f 113/977/113 96/978/96 95/979/95 155/980/155
vt 0.122893 0.713732
vt 0.092224 0.713801
vt 0.092224 0.700899
vt 0.122893 0.702451
f 113/981/113 157/982/157 436/983/436 112/984/112
vt 0.955679 0.713732
vt 0.957893 0.713732
vt 0.957893 0.729640
vt 0.955679 0.725013
f 140/985/140 133/986/133 437/987/437 158/988/158
vt 0.735972 0.587849
vt 0.733575 0.584480
vt 0.870032 0.534100
vt 0.874568 0.535264
f 423/989/423 422/990/422 151/991/151 438/992/438
vt 0.058505 0.549828
vt 0.064644 0.547710
vt 0.070559 0.549927
vt 0.064195 0.556381
f 439/993/439 440/994/440 441/995/441 442/996/442
vt 0.957893 0.729640
vt 0.957893 0.713732
vt 0.960107 0.713732
vt 0.960107 0.734268
f 437/997/437 133/998/133 132/999/132 160/1000/160
vt 0.117645 0.587957
vt 0.114592 0.593183
vt 0.070559 0.549927
vt 0.076923 0.543474
f 173/1001/173 189/1002/189 441/1003/441 166/1004/166
vt 0.731179 0.581111
vt 0.733575 0.584480
vt 0.597119 0.634860
vt 0.596861 0.629285
f 146/1005/146 422/1006/422 101/1007/101 90/1008/90
vt 0.282336 0.876737
vt 0.279955 0.880911
vt 0.140682 0.832219
vt 0.145264 0.829891
f 111/1009/111 106/1010/106 443/1011/443 120/1012/120
vt 0.910860 0.889604
vt 0.908929 0.886197
vt 0.954623 0.841770
vt 0.958666 0.843584
f 198/1013/198 197/1014/197 124/1015/124 143/1016/143
vt 0.527105 0.923583
vt 0.491086 0.927596
vt 0.419228 0.929603
vt 0.419408 0.923583
f 212/1017/212 214/1018/214 107/1019/107 110/1020/110
vt 0.961233 0.842360
vt 0.957683 0.841559
vt 0.957191 0.840547
vt 0.963801 0.841137
f 144/1021/144 123/1022/123 122/1023/122 135/1024/135
vt 0.140682 0.832219
vt 0.279955 0.880911
vt 0.277574 0.885086
vt 0.136100 0.834547
f 443/1025/443 106/1026/106 105/1027/105 444/1028/444
vt 0.134079 0.766171
vt 0.121436 0.790757
vt 0.140830 0.826620
vt 0.145264 0.829891
f 116/1029/116 115/1030/115 119/1031/119 120/1032/120
vt 0.954623 0.841770
vt 0.908929 0.886197
vt 0.906998 0.882789
vt 0.950581 0.839957
f 124/1033/124 197/1034/197 125/1035/125 121/1036/121
vt 0.870032 0.534100
vt 0.733575 0.584480
vt 0.731179 0.581111
vt 0.865496 0.532937
f 151/1037/151 422/1038/422 146/1039/146 145/1040/145
vt 0.870032 0.534100
vt 0.668938 0.580253
vt 0.468062 0.631828
vt 0.874568 0.535264
f 151/1041/151 150/1042/150 445/1043/445 438/1044/438
vt 0.070559 0.549927
vt 0.114592 0.593183
vt 0.111539 0.598408
vt 0.064195 0.556381
f 441/1045/441 189/1046/189 446/1047/446 442/1048/442
vt 0.070559 0.549927
vt 0.064644 0.547710
vt 0.064869 0.543374
vt 0.076923 0.543474
f 441/1049/441 440/1050/440 447/1051/447 166/1052/166
vt 0.064869 0.543374
vt 0.064644 0.547710
vt 0.058505 0.549828
vt 0.052814 0.543274
f 447/1053/447 440/1054/440 439/1055/439 448/1056/448
vt 0.111539 0.598408
vt 0.114592 0.593183
vt 0.158625 0.636438
vt 0.158882 0.640434
f 446/1057/446 189/1058/189 188/1059/188 180/1060/180
vt 0.162281 0.587971
vt 0.380122 0.593832
vt 0.274336 0.629285
vt 0.163587 0.629285
f 186/1061/186 92/1062/92 218/1063/218 184/1064/184
vt 0.162281 0.587971
vt 0.135760 0.579384
vt 0.139962 0.545860
vt 0.160974 0.546656
f 186/1065/186 172/1066/172 223/1067/223 222/1068/222
vt 0.859977 0.876737
vt 0.883488 0.879763
vt 0.861720 0.924602
vt 0.860024 0.923583
f 34/1069/34 126/1070/126 207/1071/207 202/1072/202
vt 0.906998 0.882789
vt 0.908929 0.886197
vt 0.863235 0.930623
vt 0.863415 0.925622
f 125/1073/125 197/1074/197 196/1075/196 206/1076/206
vt 0.490972 0.629285
vt 0.526440 0.633002
vt 0.491230 0.634860
vt 0.385084 0.629285
f 91/1077/91 100/1078/100 99/1079/99 217/1080/217
vt 0.595731 0.707120
vt 0.379700 0.661050
vt 0.383582 0.662544
vt 0.382080 0.695802
f 449/1081/449 220/1082/220 219/1083/219 450/1084/450
vt 0.747413 0.923583
vt 0.748073 0.956818
vt 0.636701 0.956818
vt 0.634802 0.923583
f 203/1085/203 205/1086/205 215/1087/215 211/1088/211
vt 0.274336 0.629285
vt 0.379700 0.661050
vt 0.160977 0.630863
vt 0.163587 0.629285
f 218/1089/218 220/1090/220 185/1091/185 184/1092/184
vt 0.158625 0.636438
vt 0.375544 0.663771
vt 0.484132 0.679436
vt 0.158882 0.640434
f 188/1093/188 176/1094/176 175/1095/175 180/1096/180
vt 0.160977 0.630863
vt 0.379700 0.661050
vt 0.483875 0.675439
vt 0.158367 0.632441
f 185/1097/185 220/1098/220 177/1099/177 187/1100/187
vt 0.748732 0.990054
vt 0.748073 0.956818
vt 0.859444 0.956818
vt 0.858864 0.990054
f 451/1101/451 205/1102/205 204/1103/204 452/1104/452
vt 0.861720 0.924602
vt 0.868233 0.885427
vt 0.859444 0.956818
vt 0.860024 0.923583
f 207/1105/207 200/1106/200 204/1107/204 202/1108/202
vt 0.877021 0.814036
vt 0.868233 0.885427
vt 0.861720 0.924602
vt 0.863415 0.925622
f 201/1109/201 200/1110/200 207/1111/207 206/1112/206
vt 0.729800 0.533794
vt 0.777910 0.530669
vt 0.869814 0.528678
vt 0.865496 0.532937
f 148/1113/148 152/1114/152 149/1115/149 145/1116/145
vt 0.489728 0.668118
vt 0.454847 0.655174
vt 0.491230 0.634860
vt 0.597376 0.640434
f 453/1117/453 454/1118/454 99/1119/99 98/1120/98
vt 0.528824 0.962839
vt 0.564150 0.949754
vt 0.636701 0.956818
vt 0.638601 0.990054
f 455/1121/455 216/1122/216 215/1123/215 456/1124/456
vt 0.524755 0.671442
vt 0.679439 0.762844
vt 0.874745 0.846252
vt 0.890627 0.702451
f 183/1125/183 182/1126/182 457/1127/457 194/1128/194
vt 0.140830 0.826620
vt 0.121436 0.790757
vt 0.108793 0.815343
vt 0.136395 0.823348
f 119/1129/119 115/1130/115 43/1131/43 117/1132/117
vt 0.140830 0.826620
vt 0.234187 0.824785
vt 0.283082 0.825504
vt 0.145264 0.829891
f 119/1133/119 11/1134/11 4/1135/4 120/1136/120
vt 0.952947 0.830026
vt 0.906488 0.827765
vt 0.907720 0.820605
vt 0.955313 0.820095
f 435/1137/435 425/1138/425 424/1139/424 471/1140/471
vt 0.097936 0.544269
vt 0.392601 0.603595
vt 0.262459 0.578773
vt 0.118949 0.545065
f 169/1141/169 168/1142/168 229/1143/229 230/1144/230
vt 0.146603 0.538904
vt 0.146603 0.538904
vt 0.160974 0.546656
vt 0.160974 0.546656
f 225/1145/225 418/1146/418 417/1147/417 222/1148/222
vt 0.139962 0.545860
vt 0.135760 0.579384
vt 0.097936 0.544269
vt 0.118949 0.545065
f 223/1149/223 172/1150/172 169/1151/169 230/1152/230
vt 0.859444 0.956818
vt 0.868233 0.885427
vt 0.874745 0.846252
vt 0.858864 0.990054
f 204/1153/204 200/1154/200 199/1155/199 452/1156/452
vt 0.483875 0.675439
vt 0.379700 0.661050
vt 0.595731 0.707120
vt 0.809382 0.718437
f 177/1157/177 220/1158/220 449/1159/449 174/1160/174
vt 0.526924 0.929603
vt 0.564150 0.949754
vt 0.528824 0.962839
vt 0.419047 0.935624
f 213/1161/213 216/1162/216 455/1163/455 104/1164/104
vt 0.636701 0.956818
vt 0.748073 0.956818
vt 0.748732 0.990054
vt 0.638601 0.990054
f 215/1165/215 205/1166/205 451/1167/451 456/1168/456
vt 0.491230 0.634860
vt 0.454847 0.655174
vt 0.383582 0.662544
vt 0.385084 0.629285
f 99/1169/99 454/1170/454 219/1171/219 217/1172/217
vt 0.383582 0.662544
vt 0.454847 0.655174
vt 0.489728 0.668118
vt 0.382080 0.695802
f 219/1173/219 454/1174/454 453/1175/453 450/1176/450
vt 0.597119 0.634860
vt 0.733575 0.584480
vt 0.731179 0.581111
vt 0.596861 0.629285
f 304/1177/304 472/1178/472 301/1179/301 297/1180/297
vt 0.597119 0.634860
vt 0.526440 0.633002
vt 0.491230 0.634860
vt 0.597376 0.640434
f 304/1181/304 303/1182/303 312/1183/312 311/1184/311
vt 0.640514 0.821116
vt 0.640534 0.825504
vt 0.860030 0.825504
vt 0.860128 0.821116
f 7/1185/7 473/1186/473 474/1187/474 8/1188/8
vt 0.785053 0.648937
vt 0.797562 0.624709
vt 0.736683 0.611199
vt 0.712149 0.622626
f 237/1189/237 236/1190/236 227/1191/227 475/1192/475
vt 0.907720 0.820605
vt 0.906488 0.827765
vt 0.952947 0.830026
vt 0.955313 0.820095
f 476/1193/476 477/1194/477 478/1195/478 479/1196/479
vt 0.421039 0.825504
vt 0.640534 0.825504
vt 0.640514 0.821116
vt 0.420900 0.821116
f 233/1197/233 473/1198/473 7/1199/7 6/1200/6
vt 0.421039 0.825504
vt 0.329114 0.826966
vt 0.283221 0.829891
vt 0.421178 0.829891
f 233/1201/233 232/1202/232 243/1203/243 242/1204/242
vt 0.860030 0.825504
vt 0.640534 0.825504
vt 0.640555 0.829891
vt 0.859931 0.829891
f 474/1205/474 473/1206/473 247/1207/247 248/1208/248
vt 0.860030 0.825504
vt 0.906488 0.827765
vt 0.907720 0.820605
vt 0.860128 0.821116
f 474/1209/474 477/1210/477 476/1211/476 8/1212/8
vt 0.640555 0.829891
vt 0.640534 0.825504
vt 0.421039 0.825504
vt 0.421178 0.829891
f 247/1213/247 473/1214/473 233/1215/233 242/1216/242
vt 0.283221 0.829891
vt 0.329114 0.826966
vt 0.283082 0.825504
vt 0.145264 0.829891
f 243/1217/243 232/1218/232 231/1219/231 331/1220/331
vt 0.061556 0.713870
vt 0.092224 0.713801
vt 0.092224 0.700899
vt 0.061556 0.699348
f 255/1221/255 327/1222/327 326/1223/326 252/1224/252
vt 0.395855 0.565702
vt 0.641178 0.505140
vt 0.886501 0.415569
vt 0.778196 0.325186
f 272/1225/272 52/1226/52 57/1227/57 275/1228/275
vt 0.009669 0.713870
vt 0.035612 0.713870
vt 0.035612 0.699348
vt 0.009669 0.699348
f 274/1229/274 254/1230/254 253/1231/253 480/1232/480
vt 0.853230 0.416492
vt 0.858233 0.419993
vt 0.898252 0.467397
vt 0.928264 0.507797
f 481/1233/481 295/1234/295 294/1235/294 265/1236/265
vt 0.047352 0.806778
vt 0.411278 0.520863
vt 0.370608 0.424496
vt 0.013513 0.806218
f 262/1237/262 261/1238/261 286/1239/286 482/1240/482
vt 0.727702 0.042773
vt 0.769165 0.198604
vt 0.810629 0.354437
vt 0.727702 0.042774
f 483/1241/483 62/1242/62 61/1243/61 484/1244/484
vt 0.775203 0.234948
vt 0.411278 0.520863
vt 0.451948 0.617230
vt 0.822704 0.427121
f 287/1245/287 261/1246/261 260/1247/260 485/1248/485
vt 0.797976 0.238648
vt 0.841405 0.328365
vt 0.898252 0.467397
vt 0.868240 0.426996
f 289/1249/289 288/1250/288 294/1251/294 293/1252/293
vt 0.595482 0.581968
vt 0.685487 0.565624
vt 0.729800 0.533794
vt 0.594103 0.534650
f 298/1253/298 302/1254/302 346/1255/346 74/1256/74
vt 0.414917 0.713732
vt 0.528041 0.713732
vt 0.528041 0.705877
vt 0.414917 0.702451
f 306/1257/306 310/1258/310 406/1259/406 315/1260/315
vt 0.419228 0.929603
vt 0.491086 0.927596
vt 0.527105 0.923583
vt 0.419408 0.923583
f 320/1261/320 319/1262/319 324/1263/324 321/1264/321
vt 0.419228 0.929603
vt 0.279955 0.880911
vt 0.277574 0.885086
vt 0.419047 0.935624
f 320/1265/320 323/1266/323 486/1267/486 317/1268/317
vt 0.905256 0.834924
vt 0.906488 0.827765
vt 0.860030 0.825504
vt 0.859931 0.829891
f 251/1269/251 477/1270/477 474/1271/474 248/1272/248
vt 0.122893 0.713732
vt 0.268905 0.713732
vt 0.268905 0.702451
vt 0.122893 0.702451
f 328/1273/328 307/1274/307 316/1275/316 325/1276/325
vt 0.122893 0.713732
vt 0.092224 0.713801
vt 0.092224 0.726703
vt 0.122893 0.725013
f 328/1277/328 327/1278/327 487/1279/487 347/1280/347
vt 0.955679 0.713732
vt 0.957893 0.713732
vt 0.957893 0.697823
vt 0.955679 0.702451
f 342/1281/342 351/1282/351 488/1283/488 339/1284/339
vt 0.735972 0.587849
vt 0.733575 0.584480
vt 0.597119 0.634860
vt 0.597376 0.640434
f 489/1285/489 472/1286/472 304/1287/304 311/1288/311
vt 0.058505 0.549828
vt 0.064644 0.547710
vt 0.064869 0.543374
vt 0.052814 0.543274
f 355/1289/355 354/1290/354 362/1291/362 490/1292/490
vt 0.117645 0.587957
vt 0.114592 0.593183
vt 0.158625 0.636438
vt 0.158367 0.632441
f 385/1293/385 377/1294/377 376/1295/376 384/1296/384
vt 0.117645 0.587957
vt 0.135760 0.579384
vt 0.097936 0.544269
vt 0.076923 0.543474
f 385/1297/385 381/1298/381 363/1299/363 361/1300/361
vt 0.731179 0.581111
vt 0.733575 0.584480
vt 0.870032 0.534100
vt 0.865496 0.532937
f 301/1301/301 472/1302/472 491/1303/491 343/1304/343
vt 0.065423 0.540032
vt 0.061220 0.541113
vt 0.064869 0.543374
vt 0.076923 0.543474
f 492/1305/492 493/1306/493 494/1307/494 495/1308/495
vt 0.379193 0.583309
vt 0.392601 0.603595
vt 0.680584 0.658477
vt 0.681462 0.623144
f 365/1309/365 364/1310/364 496/1311/496 497/1312/497
vt 0.910860 0.889604
vt 0.908929 0.886197
vt 0.863235 0.930623
vt 0.863054 0.935624
f 498/1313/498 398/1314/398 397/1315/397 499/1316/499
vt 0.277574 0.885086
vt 0.279955 0.880911
vt 0.140682 0.832219
vt 0.136100 0.834547
f 486/1317/486 323/1318/323 332/1319/332 500/1320/500
vt 0.527105 0.923583
vt 0.491086 0.927596
vt 0.526924 0.929603
vt 0.634802 0.923583
f 324/1321/324 319/1322/319 318/1323/318 405/1324/405
vt 0.961233 0.842360
vt 0.957683 0.841559
vt 0.954623 0.841770
vt 0.958666 0.843584
f 501/1325/501 502/1326/502 503/1327/503 504/1328/504
vt 0.957893 0.697823
vt 0.957893 0.713732
vt 0.960107 0.713732
vt 0.960107 0.693195
f 488/1329/488 351/1330/351 357/1331/357 505/1332/505
vt 0.140682 0.832219
vt 0.279955 0.880911
vt 0.282336 0.876737
vt 0.145264 0.829891
f 332/1333/332 323/1334/323 322/1335/322 331/1336/331
vt 0.140682 0.832219
vt 0.119829 0.796783
vt 0.098828 0.766947
vt 0.136100 0.834547
f 332/1337/332 257/1338/257 256/1339/256 500/1340/500
vt 0.954623 0.841770
vt 0.908929 0.886197
vt 0.910860 0.889604
vt 0.958666 0.843584
f 503/1341/503 398/1342/398 498/1343/498 504/1344/504
vt 0.954623 0.841770
vt 0.957683 0.841559
vt 0.957191 0.840547
vt 0.950581 0.839957
f 503/1345/503 502/1346/502 506/1347/506 334/1348/334
vt 0.870032 0.534100
vt 0.733575 0.584480
vt 0.735972 0.587849
vt 0.874568 0.535264
f 491/1349/491 472/1350/472 489/1351/489 507/1352/507
vt 0.070559 0.549927
vt 0.114592 0.593183
vt 0.117645 0.587957
vt 0.076923 0.543474
f 353/1353/353 377/1354/377 385/1355/385 361/1356/361
vt 0.064869 0.543374
vt 0.061220 0.541113
vt 0.053369 0.539932
vt 0.052814 0.543274
f 494/1357/494 493/1358/493 508/1359/508 509/1360/509
vt 0.957191 0.840547
vt 0.957683 0.841559
vt 0.961233 0.842360
vt 0.963801 0.841137
f 506/1361/506 502/1362/502 501/1363/501 510/1364/510
vt 0.961954 0.787702
vt 0.808521 0.669774
vt 0.972638 0.709266
vt 0.963801 0.841137
f 360/1365/360 359/1366/359 463/1367/463 510/1368/510
vt 0.053369 0.539932
vt 0.061220 0.541113
vt 0.065423 0.540032
vt 0.053924 0.536591
f 508/1369/508 493/1370/493 492/1371/492 511/1372/511
vt 0.111539 0.598408
vt 0.114592 0.593183
vt 0.070559 0.549927
vt 0.064195 0.556381
f 378/1373/378 377/1374/377 353/1375/353 352/1376/352
vt 0.162281 0.587971
vt 0.380122 0.593832
vt 0.377539 0.540653
vt 0.160974 0.546656
f 380/1377/380 299/1378/299 412/1379/412 413/1380/413
vt 0.906998 0.882789
vt 0.908929 0.886197
vt 0.954623 0.841770
vt 0.950581 0.839957
f 335/1381/335 398/1382/398 503/1383/503 334/1384/334
vt 0.595731 0.707120
vt 0.379700 0.661050
vt 0.483875 0.675439
vt 0.809382 0.718437
f 410/1385/410 409/1386/409 512/1387/512 513/1388/513
vt 0.747413 0.923583
vt 0.748073 0.956818
vt 0.859444 0.956818
vt 0.860024 0.923583
f 394/1389/394 388/1390/388 387/1391/387 393/1392/393
vt 0.274336 0.629285
vt 0.379700 0.661050
vt 0.383582 0.662544
vt 0.385084 0.629285
f 383/1393/383 409/1394/409 408/1395/408 411/1396/411
vt 0.158625 0.636438
vt 0.375544 0.663771
vt 0.483875 0.675439
vt 0.158367 0.632441
f 376/1397/376 514/1398/514 512/1399/512 384/1400/384
vt 0.160977 0.630863
vt 0.379700 0.661050
vt 0.274336 0.629285
vt 0.163587 0.629285
f 382/1401/382 409/1402/409 383/1403/383 379/1404/379
vt 0.748732 0.990054
vt 0.748073 0.956818
vt 0.636701 0.956818
vt 0.638601 0.990054
f 389/1405/389 388/1406/388 402/1407/402 401/1408/401
vt 0.861720 0.924602
vt 0.868233 0.885427
vt 0.877021 0.814036
vt 0.863415 0.925622
f 395/1409/395 391/1410/391 515/1411/515 396/1412/396
vt 0.877021 0.814036
vt 0.868233 0.885427
vt 0.874745 0.846252
vt 0.890627 0.702451
f 515/1413/515 391/1414/391 390/1415/390 392/1416/392
vt 0.729800 0.533794
vt 0.777910 0.530669
vt 0.734117 0.529535
vt 0.594103 0.534650
f 346/1417/346 516/1418/516 517/1419/517 74/1420/74
vt 0.489728 0.668118
vt 0.454847 0.655174
vt 0.383582 0.662544
vt 0.382080 0.695802
f 314/1421/314 313/1422/313 408/1423/408 407/1424/407
vt 0.528824 0.962839
vt 0.564150 0.949754
vt 0.526924 0.929603
vt 0.419047 0.935624
f 404/1425/404 403/1426/403 318/1427/318 317/1428/317
vt 0.524755 0.671442
vt 0.679439 0.762844
vt 0.484132 0.679436
vt 0.158882 0.640434
f 518/1429/518 371/1430/371 370/1431/370 375/1432/375
vt 0.873375 0.816719
vt 0.873375 0.816719
vt 0.860128 0.821116
vt 0.860128 0.821116
f 519/1433/519 20/1434/20 9/1435/9 8/1436/8
vt 0.140830 0.826620
vt 0.234187 0.824785
vt 0.278648 0.822232
vt 0.136395 0.823348
f 330/1437/330 333/1438/333 520/1439/520 329/1440/329
vt 0.952947 0.830026
vt 0.906488 0.827765
vt 0.905256 0.834924
vt 0.950581 0.839957
f 478/1441/478 477/1442/477 251/1443/251 334/1444/334
vt 0.097936 0.544269
vt 0.135760 0.579384
vt 0.139962 0.545860
vt 0.118949 0.545065
f 363/1445/363 381/1446/381 416/1447/416 420/1448/420
vt 0.859444 0.956818
vt 0.868233 0.885427
vt 0.861720 0.924602
vt 0.860024 0.923583
f 387/1449/387 391/1450/391 395/1451/395 393/1452/393
vt 0.483875 0.675439
vt 0.379700 0.661050
vt 0.160977 0.630863
vt 0.158367 0.632441
f 512/1453/512 409/1454/409 382/1455/382 384/1456/384
vt 0.483875 0.675439
vt 0.375544 0.663771
vt 0.484132 0.679436
vt 0.809382 0.718437
f 512/1457/512 514/1458/514 522/1459/522 513/1460/513
vt 0.874745 0.846252
vt 0.679439 0.762844
vt 0.524755 0.671442
vt 0.890627 0.702451
f 372/1461/372 371/1462/371 518/1463/518 392/1464/392
vt 0.484132 0.679436
vt 0.375544 0.663771
vt 0.158625 0.636438
vt 0.158882 0.640434
f 522/1465/522 514/1466/514 376/1467/376 375/1468/375
vt 0.526924 0.929603
vt 0.564150 0.949754
vt 0.636701 0.956818
vt 0.634802 0.923583
f 318/1469/318 403/1470/403 402/1471/402 405/1472/405
vt 0.636701 0.956818
vt 0.748073 0.956818
vt 0.747413 0.923583
vt 0.634802 0.923583
f 402/1473/402 388/1474/388 394/1475/394 405/1476/405
vt 0.491230 0.634860
vt 0.526440 0.633002
vt 0.490972 0.629285
vt 0.385084 0.629285
f 312/1477/312 303/1478/303 300/1479/300 411/1480/411
vt 0.479549 0.625234
vt 0.346763 0.685936
vt 0.108793 0.815343
vt 0.136395 0.823348
f 523/1481/523 524/1482/524 525/1483/525 329/1484/329
vt 0.432048 0.433059
vt 0.315096 0.557819
vt 0.404447 0.425055
vt 0.727702 0.042771
f 118/1485/118 42/1486/42 41/1487/41 526/1488/526
vt 0.800922 0.287360
vt 0.843369 0.360839
vt 0.827988 0.279049
vt 0.727712 0.050300
f 77/1489/77 270/1490/270 269/1491/269 78/1492/78
vt 0.848047 0.475940
vt 0.874786 0.486559
vt 0.901198 0.516108
vt 0.874132 0.524419
f 84/1493/84 83/1494/83 527/1495/527 70/1496/70
vt 0.395855 0.594711
vt 0.596896 0.414829
vt 0.823184 0.405163
vt 0.778196 0.383205
f 53/1497/53 66/1498/66 65/1499/65 50/1500/50
vt 0.797936 0.234948
vt 0.596896 0.414829
vt 0.370608 0.424496
vt 0.727702 0.042774
f 67/1501/67 66/1502/66 528/1503/528 484/1504/484
vt 0.869814 0.528678
vt 0.697696 0.572541
vt 0.901198 0.516108
vt 0.874132 0.524419
f 345/1505/345 267/1506/267 266/1507/266 76/1508/76
vt 0.869814 0.528678
vt 0.777910 0.530669
vt 0.729800 0.533794
vt 0.865496 0.532937
f 345/1509/345 516/1510/516 346/1511/346 343/1512/343
vt 0.734117 0.529535
vt 0.777910 0.530669
vt 0.869814 0.528678
vt 0.874132 0.524419
f 517/1513/517 516/1514/516 345/1515/345 76/1516/76
vt 0.108793 0.815343
vt 0.121436 0.790757
vt 0.102042 0.754895
vt 0.081192 0.807339
f 43/1517/43 115/1518/115 114/1519/114 40/1520/40
vt 0.092224 0.700899
vt 0.092224 0.713801
vt 0.061556 0.713870
vt 0.061556 0.699348
f 436/1521/436 157/1522/157 37/1523/37 36/1524/36
vt 0.468062 0.631828
vt 0.668938 0.580253
vt 0.467844 0.626406
vt 0.061556 0.728392
f 445/1525/445 150/1526/150 154/1527/154 44/1528/44
vt 0.901198 0.516108
vt 0.874786 0.486559
vt 0.875113 0.467629
vt 0.928264 0.507797
f 527/1529/527 83/1530/83 82/1531/82 46/1532/46
vt 0.108793 0.815343
vt 0.346763 0.685936
vt 0.451948 0.617230
vt 0.081192 0.807339
f 525/1533/525 524/1534/524 260/1535/260 259/1536/259
vt 0.092224 0.726703
vt 0.092224 0.713801
vt 0.061556 0.713870
vt 0.061556 0.728392
f 487/1537/487 327/1538/327 255/1539/255 263/1540/263
vt 0.278648 0.822232
vt 0.234187 0.824785
vt 0.283082 0.825504
vt 0.420900 0.821116
f 520/1541/520 333/1542/333 231/1543/231 6/1544/6
vt 0.404447 0.425055
vt 0.613815 0.415109
vt 0.797936 0.234946
vt 0.727702 0.042771
f 41/1545/41 429/1546/429 430/1547/430 526/1548/526
vt 0.451948 0.617230
vt 0.346763 0.685936
vt 0.479549 0.625234
vt 0.822704 0.427121
f 260/1549/260 524/1550/524 523/1551/523 485/1552/485
vt 0.823184 0.405163
vt 0.613815 0.415109
vt 0.429694 0.595272
vt 0.778196 0.383205
f 431/1553/431 429/1554/429 428/1555/428 529/1556/529
vt 0.370608 0.424496
vt 0.596896 0.414829
vt 0.395855 0.594711
vt 0.013513 0.806218
f 528/1557/528 66/1558/66 53/1559/53 271/1560/271
vt 0.797976 0.238650
vt 0.842238 0.327110
vt 0.861259 0.278128
vt 0.727712 0.050303
f 292/1561/292 59/1562/59 58/1563/58 85/1564/85
vt 0.823218 0.376091
vt 0.858233 0.419993
vt 0.853230 0.416492
vt 0.778196 0.325186
f 296/1565/296 295/1566/295 481/1567/481 530/1568/530
vt 0.827988 0.279050
vt 0.825979 0.328520
vt 0.774837 0.238882
vt 0.727712 0.050303
f 47/1569/47 434/1570/434 433/1571/433 88/1572/88
vt 0.898252 0.467397
vt 0.841405 0.328365
vt 0.827988 0.279049
vt 0.928264 0.507797
f 294/1573/294 288/1574/288 269/1575/269 265/1576/265
vt 0.875113 0.467629
vt 0.825979 0.328520
vt 0.827988 0.279050
vt 0.928264 0.507797
f 82/1577/82 434/1578/434 47/1579/47 46/1580/46
