mtllib agasicles.mtl
usemtl tex0_0
v 1.000000 -0.449405 -1.844535
vn 0.000000 -0.691198 -0.722665
v 2.000000 -0.508452 -1.788059
vn 0.000000 -0.691198 -0.722665
v 2.000000 0.804732 -3.044063
vn 0.000000 -0.691198 -0.722665
v 1.000000 0.804732 -3.044063
vn 0.000000 -0.691198 -0.722665
v 2.000000 0.850829 -5.918476
vn 0.000000 -0.999871 -0.016035
v 1.215024 0.840932 -5.301330
vn 0.000000 -0.999871 -0.016035
v 2.000000 0.804732 -3.044063
vn 0.000000 -0.999871 -0.016035
v 1.000000 0.858663 -6.407028
vn 0.000000 -0.999871 -0.016035
v 1.000000 0.804732 -3.044063
vn 0.000000 -0.999871 -0.016035
v 1.000000 0.802442 -8.859050
vn 0.000000 0.974823 0.222981
v 2.000000 0.691331 -8.373298
vn -0.000000 0.974823 0.222981
v 1.000000 -0.358510 -3.783630
vn 0.000000 0.974823 0.222981
v 2.000000 -0.623525 -2.625045
vn -0.000001 0.974823 0.222981
v 1.742678 -0.411193 -3.553312
vn -0.000000 0.974823 0.222981
v 2.000000 -0.508452 -1.788059
vn -1.000000 0.000000 0.000000
v 2.000000 -0.469304 -2.623218
vn -1.000000 0.000000 0.000000
v 2.000000 0.804732 -3.044063
vn -1.000000 0.000000 0.000000
v 2.000000 0.691331 -6.005344
vn -1.000000 0.000000 0.000000
v 2.000000 0.850829 -5.918476
vn -1.000000 0.000000 0.000000
v 2.000000 0.691331 -8.373298
vn -1.000000 0.000000 0.000000
v 2.000000 -0.623525 -2.625045
vn -1.000000 0.000000 0.000000
v 1.000000 -0.449405 -1.844535
vn 1.000000 0.000000 0.000000
v 1.000000 0.804732 -3.044063
vn 1.000000 0.000000 0.000000
v 1.000000 -0.358510 -3.783630
vn 1.000000 0.000000 0.000000
v 1.000000 0.858663 -6.407028
vn 1.000000 0.000000 0.000000
v 1.000000 0.802442 -6.212150
vn 1.000000 0.000000 0.000000
v 1.000000 0.802442 -8.859050
vn 1.000000 0.000000 0.000000
v -1.000000 -0.449405 -1.844535
vn -0.000000 -0.691198 -0.722665
v -2.000000 0.804732 -3.044063
vn -0.000000 -0.691198 -0.722665
v -2.000000 -0.508452 -1.788059
vn -0.000000 -0.691198 -0.722665
v -1.000000 0.804732 -3.044063
vn -0.000000 -0.691198 -0.722665
v -2.000000 0.850829 -5.918476
vn -0.000000 -0.999871 -0.016035
v -2.000000 0.804732 -3.044063
vn -0.000000 -0.999871 -0.016035
v -1.215024 0.840932 -5.301330
vn -0.000000 -0.999871 -0.016035
v -1.000000 0.804732 -3.044063
vn -0.000000 -0.999871 -0.016035
v -1.000000 0.858663 -6.407028
vn -0.000000 -0.999871 -0.016035
v -1.000000 0.802442 -8.859050
vn -0.000000 0.974823 0.222981
v -1.000000 -0.358510 -3.783630
vn -0.000000 0.974823 0.222981
v -2.000000 0.691331 -8.373298
vn 0.000000 0.974823 0.222981
v -1.742678 -0.411193 -3.553312
vn 0.000000 0.974823 0.222981
v -2.000000 -0.623525 -2.625045
vn 0.000001 0.974823 0.222981
v -2.000000 -0.508452 -1.788059
vn 1.000000 0.000000 0.000000
v -2.000000 0.804732 -3.044063
vn 1.000000 0.000000 0.000000
v -2.000000 -0.469304 -2.623218
vn 1.000000 0.000000 0.000000
v -2.000000 0.850829 -5.918476
vn 1.000000 0.000000 0.000000
v -2.000000 0.691331 -6.005344
vn 1.000000 0.000000 0.000000
v -2.000000 0.691331 -8.373298
vn 1.000000 0.000000 0.000000
v -2.000000 -0.623525 -2.625045
vn 1.000000 0.000000 0.000000
v -1.000000 -0.449405 -1.844535
vn -1.000000 0.000000 0.000000
v -1.000000 -0.358510 -3.783630
vn -1.000000 0.000000 0.000000
v -1.000000 0.804732 -3.044063
vn -1.000000 0.000000 0.000000
v -1.000000 0.802442 -6.212150
vn -1.000000 0.000000 0.000000
v -1.000000 0.858663 -6.407028
vn -1.000000 0.000000 0.000000
v -1.000000 0.802442 -8.859050
vn -1.000000 0.000000 0.000000
v -1.378474 -1.482609 11.984499
vn 0.000000 -1.000000 0.000000
v -0.649903 -1.482609 11.984499
vn 0.000000 -1.000000 0.000000
v -1.540525 -1.482609 7.515835
vn 0.000000 -1.000000 0.000000
v -0.811953 -1.482609 7.515835
vn 0.000000 -1.000000 0.000000
v -1.540525 -1.482609 7.515835
vn 0.000000 0.000000 -1.000000
v -0.811953 -1.482609 7.515835
vn 0.000000 0.000000 -1.000000
v -1.540525 -0.973913 7.515835
vn 0.000000 0.000000 -1.000000
v -0.811953 -0.973913 7.515835
vn 0.000000 0.000000 -1.000000
v -1.540525 -0.973913 7.515835
vn 0.000000 1.000000 0.000000
v -0.811953 -0.973913 7.515835
vn 0.000000 1.000000 0.000000
v -1.378474 -0.973913 11.984499
vn 0.000000 1.000000 0.000000
v -0.649903 -0.973913 11.984499
vn 0.000000 1.000000 0.000000
v -1.378474 -0.973913 11.984499
vn 0.000000 0.000000 -1.000000
v -0.649903 -0.973913 11.984499
vn 0.000000 0.000000 -1.000000
v -0.649903 -0.634783 11.984499
vn 0.000000 0.000000 -1.000000
v -1.378474 -0.634783 11.984499
vn 0.000000 0.000000 -1.000000
v -1.378474 -0.634783 11.984499
vn 0.000000 -0.987811 -0.155658
v -0.649903 -0.634783 11.984499
vn 0.000000 -0.987811 -0.155658
v -0.818999 0.100000 7.321546
vn 0.000000 -0.987811 -0.155658
v -1.547570 0.100000 7.321546
vn 0.000000 -0.987811 -0.155658
v -1.547570 0.100000 7.321546
vn 0.000000 -0.950395 0.311045
v -0.818999 0.100000 7.321546
vn 0.000000 -0.950395 0.311045
v -0.931730 -0.917391 4.212910
vn 0.000000 -0.950395 0.311045
v -1.660301 -0.917391 4.212910
vn 0.000000 -0.950395 0.311045
v -1.660301 -0.917391 4.212910
vn 0.000000 0.000000 1.000000
v -0.931730 -0.917391 4.212910
vn 0.000000 0.000000 1.000000
v -0.931730 -1.482609 4.212910
vn 0.000000 0.000000 1.000000
v -1.660301 -1.482609 4.212910
vn 0.000000 0.000000 1.000000
v -1.660301 -1.482609 4.212910
vn 0.000000 0.950395 0.311044
v -0.931730 -1.482609 4.212910
vn 0.000000 0.950395 0.311044
v -0.818999 -2.500000 7.321546
vn 0.000000 0.950395 0.311044
v -1.547570 -2.500000 7.321546
vn 0.000000 0.950395 0.311044
v -1.547570 -2.500000 7.321546
vn 0.000000 0.989586 -0.143943
v -0.818999 -2.500000 7.321546
vn 0.000000 0.989586 -0.143943
v -0.649903 -1.821739 11.984499
vn 0.000000 0.989586 -0.143943
v -1.378474 -1.821739 11.984499
vn 0.000000 0.989586 -0.143943
v -0.649903 -1.482609 11.984499
vn 0.000000 0.000000 -1.000000
v -1.378474 -1.482609 11.984499
vn 0.000000 0.000000 -1.000000
v -1.378474 -1.821739 11.984499
vn 0.000000 0.000000 -1.000000
v -0.649903 -1.821739 11.984499
vn 0.000000 0.000000 -1.000000
v -0.649903 -1.482609 11.984499
vn -0.999343 0.000000 0.036240
v -0.649903 -1.821739 11.984499
vn -0.999343 0.000000 0.036240
v -0.811953 -1.482609 7.515835
vn -0.999343 -0.000000 0.036240
v -0.931730 -1.482609 4.212910
vn -0.999343 -0.000000 0.036240
v -0.811953 -0.973913 7.515835
vn -0.999343 0.000000 0.036240
v -0.649903 -0.634783 11.984499
vn -0.999343 0.000000 0.036240
v -0.649903 -0.973913 11.984499
vn -0.999343 0.000000 0.036240
v -0.818999 0.100000 7.321546
vn -0.999343 0.000000 0.036240
v -0.931730 -0.917391 4.212910
vn -0.999343 0.000000 0.036240
v -0.818999 -2.500000 7.321546
vn -0.999343 -0.000000 0.036240
v -1.378474 -1.482609 11.984499
vn 0.999343 0.000000 -0.036240
v -1.540525 -1.482609 7.515835
vn 0.999343 0.000000 -0.036240
v -1.378474 -1.821739 11.984499
vn 0.999343 0.000000 -0.036240
v -1.540525 -0.973913 7.515835
vn 0.999343 -0.000000 -0.036240
v -1.660301 -1.482609 4.212910
vn 0.999343 0.000000 -0.036240
v -1.378474 -0.973913 11.984499
vn 0.999343 0.000000 -0.036240
v -1.378474 -0.634783 11.984499
vn 0.999343 0.000000 -0.036240
v -1.547570 0.100000 7.321546
vn 0.999343 -0.000000 -0.036240
v -1.660301 -0.917391 4.212910
vn 0.999343 -0.000000 -0.036240
v -1.547570 -2.500000 7.321546
vn 0.999343 0.000000 -0.036240
v 1.378474 -1.482609 11.984499
vn 0.000000 -1.000000 0.000000
v 1.540525 -1.482609 7.515835
vn 0.000000 -1.000000 0.000000
v 0.649903 -1.482609 11.984499
vn 0.000000 -1.000000 0.000000
v 0.811953 -1.482609 7.515835
vn 0.000000 -1.000000 0.000000
v 1.540525 -1.482609 7.515835
vn 0.000000 0.000000 -1.000000
v 1.540525 -0.973913 7.515835
vn 0.000000 0.000000 -1.000000
v 0.811953 -1.482609 7.515835
vn 0.000000 0.000000 -1.000000
v 0.811953 -0.973913 7.515835
vn 0.000000 0.000000 -1.000000
v 1.540525 -0.973913 7.515835
vn 0.000000 1.000000 0.000000
v 1.378474 -0.973913 11.984499
vn 0.000000 1.000000 0.000000
v 0.811953 -0.973913 7.515835
vn 0.000000 1.000000 0.000000
v 0.649903 -0.973913 11.984499
vn 0.000000 1.000000 0.000000
v 1.378474 -0.973913 11.984499
vn 0.000000 0.000000 -1.000000
v 0.649903 -0.634783 11.984499
vn 0.000000 0.000000 -1.000000
v 0.649903 -0.973913 11.984499
vn 0.000000 0.000000 -1.000000
v 1.378474 -0.634783 11.984499
vn 0.000000 0.000000 -1.000000
v 1.378474 -0.634783 11.984499
vn 0.000000 -0.987811 -0.155658
v 0.818999 0.100000 7.321546
vn 0.000000 -0.987811 -0.155658
v 0.649903 -0.634783 11.984499
vn 0.000000 -0.987811 -0.155658
v 1.547570 0.100000 7.321546
vn 0.000000 -0.987811 -0.155658
v 1.547570 0.100000 7.321546
vn 0.000000 -0.950395 0.311045
v 0.931730 -0.917391 4.212910
vn 0.000000 -0.950395 0.311045
v 0.818999 0.100000 7.321546
vn 0.000000 -0.950395 0.311045
v 1.660301 -0.917391 4.212910
vn 0.000000 -0.950395 0.311045
v 1.660301 -0.917391 4.212910
vn 0.000000 0.000000 1.000000
v 0.931730 -1.482609 4.212910
vn 0.000000 0.000000 1.000000
v 0.931730 -0.917391 4.212910
vn 0.000000 0.000000 1.000000
v 1.660301 -1.482609 4.212910
vn 0.000000 0.000000 1.000000
v 1.660301 -1.482609 4.212910
vn 0.000000 0.950395 0.311044
v 0.818999 -2.500000 7.321546
vn 0.000000 0.950395 0.311044
v 0.931730 -1.482609 4.212910
vn 0.000000 0.950395 0.311044
v 1.547570 -2.500000 7.321546
vn 0.000000 0.950395 0.311044
v 1.547570 -2.500000 7.321546
vn 0.000000 0.989586 -0.143943
v 0.649903 -1.821739 11.984499
vn 0.000000 0.989586 -0.143943
v 0.818999 -2.500000 7.321546
vn 0.000000 0.989586 -0.143943
v 1.378474 -1.821739 11.984499
vn 0.000000 0.989586 -0.143943
v 0.649903 -1.482609 11.984499
vn 0.000000 0.000000 -1.000000
v 1.378474 -1.821739 11.984499
vn 0.000000 0.000000 -1.000000
v 1.378474 -1.482609 11.984499
vn 0.000000 0.000000 -1.000000
v 0.649903 -1.821739 11.984499
vn 0.000000 0.000000 -1.000000
v 0.649903 -1.482609 11.984499
vn 0.999343 0.000000 0.036240
v 0.811953 -1.482609 7.515835
vn 0.999343 -0.000000 0.036240
v 0.649903 -1.821739 11.984499
vn 0.999343 0.000000 0.036240
v 0.811953 -0.973913 7.515835
vn 0.999343 0.000000 0.036240
v 0.931730 -1.482609 4.212910
vn 0.999343 -0.000000 0.036240
v 0.649903 -0.973913 11.984499
vn 0.999343 0.000000 0.036240
v 0.649903 -0.634783 11.984499
vn 0.999343 0.000000 0.036240
v 0.818999 0.100000 7.321546
vn 0.999343 0.000000 0.036240
v 0.931730 -0.917391 4.212910
vn 0.999343 0.000000 0.036240
v 0.818999 -2.500000 7.321546
vn 0.999343 -0.000000 0.036240
v 1.378474 -1.482609 11.984499
vn -0.999343 0.000000 -0.036240
v 1.378474 -1.821739 11.984499
vn -0.999343 0.000000 -0.036240
v 1.540525 -1.482609 7.515835
vn -0.999343 0.000000 -0.036240
v 1.660301 -1.482609 4.212910
vn -0.999343 0.000000 -0.036240
v 1.540525 -0.973913 7.515835
vn -0.999343 -0.000000 -0.036240
v 1.378474 -0.634783 11.984499
vn -0.999343 0.000000 -0.036240
v 1.378474 -0.973913 11.984499
vn -0.999343 0.000000 -0.036240
v 1.547570 0.100000 7.321546
vn -0.999343 -0.000000 -0.036240
v 1.660301 -0.917391 4.212910
vn -0.999343 -0.000000 -0.036240
v 1.547570 -2.500000 7.321546
vn -0.999343 0.000000 -0.036240
v 4.855834 -1.141439 1.431837
vn -0.993970 -0.000000 -0.109649
v 4.856187 -1.658529 1.428635
vn -0.993970 -0.000000 -0.109649
v 5.079055 -1.161732 -0.591667
vn -0.993970 -0.000000 -0.109649
v 5.079055 -1.638268 -0.591667
vn -0.993970 -0.000000 -0.109649
v 5.079055 -1.161732 -0.591667
vn -0.600485 0.000000 0.799636
v 5.079055 -1.638268 -0.591667
vn -0.600485 0.000000 0.799636
v 2.489733 -1.873661 -2.536111
vn -0.600485 0.000000 0.799636
v 2.489733 -0.926339 -2.536111
vn -0.600485 0.000000 0.799636
v 2.174486 -1.902319 -2.008533
vn 0.858425 -0.000000 0.512940
v 2.172307 -0.897483 -2.004885
vn 0.858425 -0.000000 0.512940
v 2.489733 -0.926339 -2.536111
vn 0.858425 -0.000000 0.512940
v 2.489733 -1.873661 -2.536111
vn 0.858425 -0.000000 0.512940
v 4.856187 -1.658529 1.428635
vn -0.090536 0.995893 0.000000
v 2.895409 -1.836781 0.601941
vn -0.090536 0.995893 0.000000
v 5.079055 -1.638268 -0.591667
vn -0.090536 0.995893 -0.000000
v 2.174486 -1.902319 -2.008533
vn -0.090536 0.995893 -0.000000
v 2.489733 -1.873661 -2.536111
vn -0.090536 0.995893 -0.000000
v 5.079055 -1.161732 -0.591667
vn -0.090536 -0.995893 -0.000000
v 2.895409 -0.963219 0.610414
vn -0.090536 -0.995893 -0.000000
v 4.855834 -1.141439 1.431837
vn -0.090536 -0.995893 -0.000000
v 2.489733 -0.926339 -2.536111
vn -0.090536 -0.995893 -0.000000
v 2.172307 -0.897483 -2.004885
vn -0.090536 -0.995893 -0.000000
v -4.855834 -1.141439 1.431837
vn 0.993970 -0.000000 -0.109649
v -5.079055 -1.161732 -0.591667
vn 0.993970 -0.000000 -0.109649
v -4.856187 -1.658529 1.428635
vn 0.993970 -0.000000 -0.109649
v -5.079055 -1.638268 -0.591667
vn 0.993970 -0.000000 -0.109649
v -5.079055 -1.161732 -0.591667
vn 0.600485 0.000000 0.799636
v -2.489733 -1.873661 -2.536111
vn 0.600485 0.000000 0.799636
v -5.079055 -1.638268 -0.591667
vn 0.600485 0.000000 0.799636
v -2.489733 -0.926339 -2.536111
vn 0.600485 0.000000 0.799636
v -2.174486 -1.902319 -2.008533
vn -0.858425 -0.000000 0.512940
v -2.489733 -0.926339 -2.536111
vn -0.858425 -0.000000 0.512940
v -2.172307 -0.897483 -2.004885
vn -0.858425 -0.000000 0.512940
v -2.489733 -1.873661 -2.536111
vn -0.858425 -0.000000 0.512940
v -4.856187 -1.658529 1.428635
vn 0.090536 0.995893 0.000000
v -5.079055 -1.638268 -0.591667
vn 0.090536 0.995893 -0.000000
v -2.895409 -1.836781 0.601941
vn 0.090536 0.995893 0.000000
v -2.489733 -1.873661 -2.536111
vn 0.090536 0.995893 -0.000000
v -2.174486 -1.902319 -2.008533
vn 0.090536 0.995893 -0.000000
v -5.079055 -1.161732 -0.591667
vn 0.090536 -0.995893 -0.000000
v -4.855834 -1.141439 1.431837
vn 0.090536 -0.995893 -0.000000
v -2.895409 -0.963219 0.610414
vn 0.090536 -0.995893 -0.000000
v -2.489733 -0.926339 -2.536111
vn 0.090536 -0.995893 -0.000000
v -2.172307 -0.897483 -2.004885
vn 0.090536 -0.995893 -0.000000
v 0.000000 -0.667772 4.017152
vn -0.984314 0.001975 -0.176412
v -0.698892 -2.160626 7.900000
vn -0.984314 0.001975 -0.176412
v 0.000000 -2.200000 4.000000
vn -0.984314 0.001975 -0.176412
v -0.698892 -0.889715 7.911031
vn -0.984314 0.001975 -0.176412
v -0.698892 -0.889715 7.911031
vn 0.000489 0.008679 -0.999962
v -2.396200 -2.065003 7.900000
vn 0.000489 0.008679 -0.999962
v -0.698892 -2.160626 7.900000
vn 0.000489 0.008679 -0.999962
v -2.396200 -0.985233 7.906554
vn 0.000489 0.008679 -0.999962
v -2.396200 -0.985233 7.906554
vn -1.000000 0.000000 0.000000
v -2.396200 -2.065003 11.100000
vn -1.000000 0.000000 0.000000
v -2.396200 -2.065003 7.900000
vn -1.000000 0.000000 0.000000
v -2.396200 -1.135069 11.103045
vn -1.000000 0.000000 0.000000
v -2.396200 -1.135069 11.103045
vn 0.904726 0.001394 -0.425992
v -4.892242 -1.027371 5.802272
vn 0.904726 0.001394 -0.425992
v -2.396200 -2.065003 11.100000
vn 0.904726 0.001394 -0.425992
v -4.892242 -1.924381 5.800000
vn 0.904726 0.001394 -0.425992
v -4.892242 -1.027371 5.802272
vn 0.593733 -0.002038 0.804660
v -2.995250 -2.031254 4.400000
vn 0.593733 -0.002038 0.804660
v -4.892242 -1.924381 5.800000
vn 0.593733 -0.002038 0.804660
v -2.995250 -0.855063 4.408812
vn 0.593733 -0.002038 0.804660
v -2.995250 -0.855063 4.408812
vn 0.311538 0.007119 -0.950207
v -8.187018 -1.738760 2.700000
vn 0.311538 0.007119 -0.950207
v -2.995250 -2.031254 4.400000
vn 0.311538 0.007119 -0.950207
v -8.187018 -1.067636 2.696981
vn 0.311538 0.007119 -0.950207
v -8.187018 -1.067636 2.696981
vn 1.000000 0.000000 0.000000
v -8.187018 -1.738760 -1.000000
vn 1.000000 0.000000 0.000000
v -8.187018 -1.738760 2.700000
vn 1.000000 0.000000 0.000000
v -8.187018 -0.894389 -0.998961
vn 1.000000 0.000000 0.000000
v -8.187018 -0.894389 -0.998961
vn -0.905722 -0.000522 0.423872
v -6.689392 -1.823133 2.200000
vn -0.905722 -0.000522 0.423872
v -8.187018 -1.738760 -1.000000
vn -0.905722 -0.000522 0.423872
v -6.689392 -0.959943 2.201480
vn -0.905722 -0.000522 0.423872
v -6.689392 -0.959943 2.201480
vn 0.386252 -0.001582 0.922392
v -2.895409 -0.671514 0.613244
vn 0.386252 -0.001582 0.922392
v -6.689392 -1.823133 2.200000
vn 0.386252 -0.001582 0.922392
v -2.895409 -2.036878 0.600000
vn 0.386252 -0.001582 0.922392
v -2.895409 -0.671514 0.613244
vn 0.963906 -0.002582 0.266230
v -1.597467 -2.110002 -4.100000
vn 0.963906 -0.002582 0.266230
v -2.895409 -2.036878 0.600000
vn 0.963906 -0.002582 0.266230
v -1.597467 -0.378400 -4.078178
vn 0.963906 -0.002582 0.266230
v -1.597467 -0.378400 -4.078178
vn -0.000710 -0.012601 0.999920
v 0.000000 -2.200000 -4.100000
vn -0.000710 -0.012601 0.999920
v -1.597467 -2.110002 -4.100000
vn -0.000710 -0.012601 0.999920
v 0.000000 -0.288501 -4.073964
vn -0.000710 -0.012601 0.999920
v 0.000000 -2.200000 4.000000
vn -1.000000 0.000000 0.000000
v 0.000000 -0.288501 -4.073964
vn -1.000000 0.000000 0.000000
v 0.000000 -0.667772 4.017152
vn -1.000000 0.000000 0.000000
v 0.000000 -2.200000 -4.100000
vn -1.000000 0.000000 0.000000
v -4.093509 -1.969380 3.500000
vn 0.056249 0.998417 -0.000000
v -4.093509 -1.969380 1.600000
vn 0.056249 0.998417 0.000000
v -3.070132 -2.027035 1.600000
vn 0.056249 0.998417 0.000000
v -3.070132 -2.027035 3.500000
vn 0.056249 0.998417 0.000000
v -2.046755 -2.084690 1.600000
vn 0.056249 0.998417 0.000000
v -2.046755 -2.084690 3.500000
vn 0.056249 0.998417 0.000000
v -1.023377 -2.142345 1.600000
vn 0.056249 0.998417 0.000000
v -1.023377 -2.142345 3.500000
vn 0.056249 0.998417 0.000000
v -2.046755 -2.084690 -0.300000
vn 0.056249 0.998417 -0.000000
v -1.023377 -2.142345 -0.300000
vn 0.056249 0.998417 0.000000
v -3.070132 -2.027035 7.300000
vn 0.056249 0.998417 0.000000
v -3.070132 -2.027035 5.400000
vn 0.056249 0.998417 -0.000000
v -2.046755 -2.084690 5.400000
vn 0.056249 0.998417 -0.000000
v -2.046755 -2.084690 7.300000
vn 0.056249 0.998417 0.000000
v -1.023377 -2.142345 5.400000
vn 0.056249 0.998417 -0.000000
v -1.023377 -2.142345 7.300000
vn 0.056249 0.998417 -0.000000
v 0.000000 -2.200000 4.000000
vn 0.056249 0.998417 0.000000
v -0.698892 -2.160626 7.900000
vn 0.056249 0.998417 0.000000
v -2.396200 -2.065003 7.900000
vn 0.056249 0.998417 0.000000
v -2.396200 -2.065003 11.100000
vn 0.056249 0.998417 0.000000
v -4.892242 -1.924381 5.800000
vn 0.056249 0.998417 -0.000000
v -2.995250 -2.031254 4.400000
vn 0.056249 0.998417 -0.000000
v -8.187018 -1.738760 2.700000
vn 0.056249 0.998417 -0.000000
v -8.187018 -1.738760 -1.000000
vn 0.056249 0.998417 0.000000
v -6.689392 -1.823133 2.200000
vn 0.056249 0.998417 0.000000
v -2.895409 -2.036878 0.600000
vn 0.056249 0.998417 0.000000
v -1.597467 -2.110002 -4.100000
vn 0.056249 0.998417 0.000000
v 0.000000 -2.200000 -4.100000
vn 0.056249 0.998417 0.000000
v -2.021220 -0.936015 7.307739
vn 0.056249 -0.997322 -0.046749
v -0.995613 -0.878171 7.307739
vn 0.056249 -0.997322 -0.046749
v -1.005615 -0.700830 3.512433
vn 0.056249 -0.997322 -0.046749
v -2.031223 -0.758674 3.512433
vn 0.056249 -0.997322 -0.046749
v -1.015617 -0.523489 -0.282872
vn 0.056249 -0.997322 -0.046749
v -2.041224 -0.581333 -0.282872
vn 0.056249 -0.997322 -0.046749
v -0.698892 -0.889715 7.911031
vn 0.056249 -0.997322 -0.046749
v 0.000000 -0.667772 4.017152
vn 0.056249 -0.997322 -0.046749
v -2.396200 -0.985233 7.906554
vn 0.056249 -0.997322 -0.046749
v -2.396200 -1.135069 11.103045
vn 0.056249 -0.997322 -0.046749
v -2.995250 -0.855063 4.408812
vn 0.056249 -0.997322 -0.046749
v -4.892242 -1.027371 5.802272
vn 0.056249 -0.997322 -0.046749
v -8.187018 -1.067636 2.696981
vn 0.056249 -0.997322 -0.046749
v -6.689392 -0.959943 2.201480
vn 0.056249 -0.997322 -0.046749
v -8.187018 -0.894389 -0.998961
vn 0.056249 -0.997322 -0.046749
v -2.895409 -0.671514 0.613244
vn 0.056249 -0.997322 -0.046749
v -1.597467 -0.378400 -4.078178
vn 0.056249 -0.997322 -0.046750
v 0.000000 -0.288501 -4.073964
vn 0.056249 -0.997322 -0.046749
v 0.000000 -0.667772 4.017152
vn 0.984314 0.001975 -0.176412
v 0.000000 -2.200000 4.000000
vn 0.984314 0.001975 -0.176412
v 0.698892 -2.160626 7.900000
vn 0.984314 0.001975 -0.176412
v 0.698892 -0.889715 7.911031
vn 0.984314 0.001975 -0.176412
v 0.698892 -0.889715 7.911031
vn -0.000489 0.008679 -0.999962
v 0.698892 -2.160626 7.900000
vn -0.000489 0.008679 -0.999962
v 2.396200 -2.065003 7.900000
vn -0.000489 0.008679 -0.999962
v 2.396200 -0.985233 7.906554
vn -0.000489 0.008679 -0.999962
v 2.396200 -0.985233 7.906554
vn 1.000000 0.000000 0.000000
v 2.396200 -2.065003 7.900000
vn 1.000000 0.000000 0.000000
v 2.396200 -2.065003 11.100000
vn 1.000000 0.000000 0.000000
v 2.396200 -1.135069 11.103045
vn 1.000000 0.000000 0.000000
v 2.396200 -1.135069 11.103045
vn -0.904726 0.001394 -0.425992
v 2.396200 -2.065003 11.100000
vn -0.904726 0.001394 -0.425992
v 4.892242 -1.027371 5.802272
vn -0.904726 0.001394 -0.425992
v 4.892242 -1.924381 5.800000
vn -0.904726 0.001394 -0.425992
v 4.892242 -1.027371 5.802272
vn -0.593733 -0.002038 0.804660
v 4.892242 -1.924381 5.800000
vn -0.593733 -0.002038 0.804660
v 2.995250 -2.031254 4.400000
vn -0.593733 -0.002038 0.804660
v 2.995250 -0.855063 4.408812
vn -0.593733 -0.002038 0.804660
v 2.995250 -0.855063 4.408812
vn -0.311538 0.007119 -0.950207
v 2.995250 -2.031254 4.400000
vn -0.311538 0.007119 -0.950207
v 8.187018 -1.738760 2.700000
vn -0.311538 0.007119 -0.950207
v 8.187018 -1.067636 2.696981
vn -0.311538 0.007119 -0.950207
v 8.187018 -1.067636 2.696981
vn -1.000000 0.000000 0.000000
v 8.187018 -1.738760 2.700000
vn -1.000000 0.000000 0.000000
v 8.187018 -1.738760 -1.000000
vn -1.000000 0.000000 0.000000
v 8.187018 -0.894389 -0.998961
vn -1.000000 0.000000 0.000000
v 8.187018 -0.894389 -0.998961
vn 0.905722 -0.000522 0.423872
v 8.187018 -1.738760 -1.000000
vn 0.905722 -0.000522 0.423872
v 6.689392 -1.823133 2.200000
vn 0.905722 -0.000522 0.423872
v 6.689392 -0.959943 2.201480
vn 0.905722 -0.000522 0.423872
v 6.689392 -0.959943 2.201480
vn -0.386252 -0.001582 0.922392
v 6.689392 -1.823133 2.200000
vn -0.386252 -0.001582 0.922392
v 2.895409 -0.671514 0.613244
vn -0.386252 -0.001582 0.922392
v 2.895409 -2.036878 0.600000
vn -0.386252 -0.001582 0.922392
v 2.895409 -0.671514 0.613244
vn -0.963906 -0.002582 0.266230
v 2.895409 -2.036878 0.600000
vn -0.963906 -0.002582 0.266230
v 1.597467 -2.110002 -4.100000
vn -0.963906 -0.002582 0.266230
v 1.597467 -0.378400 -4.078178
vn -0.963906 -0.002582 0.266230
v 1.597467 -0.378400 -4.078178
vn 0.000710 -0.012601 0.999920
v 1.597467 -2.110002 -4.100000
vn 0.000710 -0.012601 0.999920
v 0.000000 -2.200000 -4.100000
vn 0.000710 -0.012601 0.999920
v 0.000000 -0.288501 -4.073964
vn 0.000710 -0.012601 0.999920
v 0.000000 -2.200000 4.000000
vn 1.000000 0.000000 0.000000
v 0.000000 -0.667772 4.017152
vn 1.000000 0.000000 0.000000
v 0.000000 -0.288501 -4.073964
vn 1.000000 0.000000 0.000000
v 0.000000 -2.200000 -4.100000
vn 1.000000 0.000000 0.000000
v 4.093509 -1.969380 3.500000
vn -0.056249 0.998417 -0.000000
v 3.070132 -2.027035 3.500000
vn -0.056249 0.998417 0.000000
v 3.070132 -2.027035 1.600000
vn -0.056249 0.998417 0.000000
v 4.093509 -1.969380 1.600000
vn -0.056249 0.998417 0.000000
v 2.046755 -2.084690 3.500000
vn -0.056249 0.998417 0.000000
v 2.046755 -2.084690 1.600000
vn -0.056249 0.998417 0.000000
v 1.023377 -2.142345 3.500000
vn -0.056249 0.998417 0.000000
v 1.023377 -2.142345 1.600000
vn -0.056249 0.998417 0.000000
v 1.023377 -2.142345 -0.300000
vn -0.056249 0.998417 0.000000
v 2.046755 -2.084690 -0.300000
vn -0.056249 0.998417 -0.000000
v 3.070132 -2.027035 7.300000
vn -0.056249 0.998417 0.000000
v 2.046755 -2.084690 7.300000
vn -0.056249 0.998417 0.000000
v 2.046755 -2.084690 5.400000
vn -0.056249 0.998417 -0.000000
v 3.070132 -2.027035 5.400000
vn -0.056249 0.998417 -0.000000
v 1.023377 -2.142345 7.300000
vn -0.056249 0.998417 -0.000000
v 1.023377 -2.142345 5.400000
vn -0.056249 0.998417 -0.000000
v 0.000000 -2.200000 4.000000
vn -0.056249 0.998417 0.000000
v 0.698892 -2.160626 7.900000
vn -0.056249 0.998417 0.000000
v 2.396200 -2.065003 7.900000
vn -0.056249 0.998417 0.000000
v 2.396200 -2.065003 11.100000
vn -0.056249 0.998417 0.000000
v 4.892242 -1.924381 5.800000
vn -0.056249 0.998417 -0.000000
v 2.995250 -2.031254 4.400000
vn -0.056249 0.998417 -0.000000
v 8.187018 -1.738760 2.700000
vn -0.056249 0.998417 -0.000000
v 6.689392 -1.823133 2.200000
vn -0.056249 0.998417 0.000000
v 8.187018 -1.738760 -1.000000
vn -0.056249 0.998417 0.000000
v 2.895409 -2.036878 0.600000
vn -0.056249 0.998417 0.000000
v 1.597467 -2.110002 -4.100000
vn -0.056249 0.998417 0.000000
v 0.000000 -2.200000 -4.100000
vn -0.056249 0.998417 0.000000
v 2.021220 -0.936015 7.307739
vn -0.056249 -0.997322 -0.046749
v 2.031223 -0.758674 3.512433
vn -0.056249 -0.997322 -0.046749
v 1.005615 -0.700830 3.512433
vn -0.056249 -0.997322 -0.046749
v 0.995613 -0.878171 7.307739
vn -0.056249 -0.997322 -0.046749
v 2.041224 -0.581333 -0.282872
vn -0.056249 -0.997322 -0.046749
v 1.015617 -0.523489 -0.282872
vn -0.056249 -0.997322 -0.046749
v 0.698892 -0.889715 7.911031
vn -0.056249 -0.997322 -0.046749
v 0.000000 -0.667772 4.017152
vn -0.056249 -0.997322 -0.046749
v 2.396200 -0.985233 7.906554
vn -0.056249 -0.997322 -0.046749
v 2.396200 -1.135069 11.103045
vn -0.056249 -0.997322 -0.046749
v 2.995250 -0.855063 4.408812
vn -0.056249 -0.997322 -0.046749
v 4.892242 -1.027371 5.802272
vn -0.056249 -0.997322 -0.046749
v 8.187018 -1.067636 2.696981
vn -0.056249 -0.997322 -0.046749
v 6.689392 -0.959943 2.201480
vn -0.056249 -0.997322 -0.046749
v 8.187018 -0.894389 -0.998961
vn -0.056249 -0.997322 -0.046749
v 2.895409 -0.671514 0.613244
vn -0.056249 -0.997322 -0.046749
v 1.597467 -0.378400 -4.078178
vn -0.056249 -0.997322 -0.046750
v 0.000000 -0.288501 -4.073964
vn -0.056249 -0.997322 -0.046749
v -4.700000 3.000000 -9.800000
vn 0.000000 0.000000 1.000000
v -5.000000 -0.700000 -9.800000
vn 0.000000 0.000000 1.000000
v -5.000000 3.000000 -9.800000
vn 0.000000 0.000000 1.000000
v -4.700000 -0.700000 -9.800000
vn 0.000000 0.000000 1.000000
v -4.700000 -0.700000 -9.800000
vn 0.000000 0.986016 -0.166651
v -5.000000 0.500000 -2.700000
vn 0.000000 0.986016 -0.166651
v -5.000000 -0.700000 -9.800000
vn 0.000000 0.986016 -0.166651
v -4.700000 0.500000 -2.700000
vn 0.000000 0.986016 -0.166651
v -5.000000 3.000000 -9.800000
vn 0.000000 -0.943235 -0.332125
v -4.700000 0.500000 -2.700000
vn 0.000000 -0.943235 -0.332125
v -4.700000 3.000000 -9.800000
vn 0.000000 -0.943235 -0.332125
v -5.000000 0.500000 -2.700000
vn 0.000000 -0.943235 -0.332125
v -5.000000 3.000000 -9.800000
vn 1.000000 0.000000 0.000000
v -5.000000 -0.700000 -9.800000
vn 1.000000 0.000000 0.000000
v -5.000000 0.500000 -2.700000
vn 1.000000 0.000000 0.000000
v -4.700000 3.000000 -9.800000
vn -1.000000 0.000000 0.000000
v -4.700000 0.500000 -2.700000
vn -1.000000 0.000000 0.000000
v -4.700000 -0.700000 -9.800000
vn -1.000000 0.000000 0.000000
v 4.700000 3.000000 -9.800000
vn 0.000000 0.000000 1.000000
v 5.000000 3.000000 -9.800000
vn 0.000000 0.000000 1.000000
v 5.000000 -0.700000 -9.800000
vn 0.000000 0.000000 1.000000
v 4.700000 -0.700000 -9.800000
vn 0.000000 0.000000 1.000000
v 4.700000 -0.700000 -9.800000
vn 0.000000 0.986016 -0.166651
v 5.000000 -0.700000 -9.800000
vn 0.000000 0.986016 -0.166651
v 5.000000 0.500000 -2.700000
vn 0.000000 0.986016 -0.166651
v 4.700000 0.500000 -2.700000
vn 0.000000 0.986016 -0.166651
v 5.000000 3.000000 -9.800000
vn 0.000000 -0.943235 -0.332125
v 4.700000 3.000000 -9.800000
vn 0.000000 -0.943235 -0.332125
v 4.700000 0.500000 -2.700000
vn 0.000000 -0.943235 -0.332125
v 5.000000 0.500000 -2.700000
vn 0.000000 -0.943235 -0.332125
v 5.000000 3.000000 -9.800000
vn -1.000000 0.000000 0.000000
v 5.000000 0.500000 -2.700000
vn -1.000000 0.000000 0.000000
v 5.000000 -0.700000 -9.800000
vn -1.000000 0.000000 0.000000
v 4.700000 3.000000 -9.800000
vn 1.000000 0.000000 0.000000
v 4.700000 -0.700000 -9.800000
vn 1.000000 0.000000 0.000000
v 4.700000 0.500000 -2.700000
vn 1.000000 0.000000 0.000000
v -1.490024 1.225932 -5.310185
vn 0.571775 0.391831 -0.720792
v -2.345167 0.652979 -6.300000
vn 0.571775 0.391831 -0.720792
v -1.173742 0.783138 -5.300000
vn 0.571775 0.391831 -0.720792
v -2.666851 1.103338 -6.309555
vn 0.571775 0.391831 -0.720792
v -2.666851 1.103338 -6.309555
vn 0.199840 0.122116 -0.972189
v -3.711829 0.501128 -6.600000
vn 0.199840 0.122116 -0.972189
v -2.345167 0.652979 -6.300000
vn 0.199840 0.122116 -0.972189
v -3.948893 0.833018 -6.619425
vn 0.199840 0.122116 -0.972189
v -3.948893 0.833018 -6.619425
vn -0.260563 -0.240837 -0.934936
v -4.688016 0.392663 -6.300000
vn -0.260563 -0.240837 -0.934936
v -3.711829 0.501128 -6.600000
vn -0.260563 -0.240837 -0.934936
v -4.810682 0.564395 -6.332769
vn -0.260563 -0.240837 -0.934936
v -4.810682 0.564395 -6.332769
vn 0.809285 0.529549 -0.254235
v -5.273728 0.327584 -8.300000
vn 0.809285 0.529549 -0.254235
v -4.688016 0.392663 -6.300000
vn 0.809285 0.529549 -0.254235
v -5.556463 0.723413 -8.314098
vn 0.809285 0.529549 -0.254235
v -5.556463 0.723413 -8.314098
vn 0.197821 0.175649 0.964373
v -0.392793 0.869910 -9.400001
vn 0.197821 0.175649 0.964373
v -5.273728 0.327584 -8.300000
vn 0.197821 0.175649 0.964373
v -1.205552 2.007773 -9.352276
vn 0.197821 0.175649 0.964373
v -1.173742 0.783138 -5.300000
vn -0.800822 -0.575805 -0.164723
v -0.392793 0.869910 -9.400001
vn -0.800822 -0.575805 -0.164723
v -1.490024 1.225932 -5.310185
vn -0.800822 -0.575805 -0.164723
v -1.205552 2.007773 -9.352276
vn -0.800822 -0.575805 -0.164723
v -1.173742 0.783138 -5.300000
vn -0.110431 0.993884 0.000000
v -2.345167 0.652979 -6.300000
vn -0.110432 0.993884 -0.000000
v -0.392793 0.869910 -9.400001
vn -0.110432 0.993884 -0.000000
v -3.711829 0.501128 -6.600000
vn -0.110432 0.993884 -0.000000
v -4.688016 0.392663 -6.300000
vn -0.110431 0.993884 0.000000
v -5.273728 0.327584 -8.300000
vn -0.110432 0.993884 -0.000000
v -1.490024 1.225932 -5.310185
vn 0.242057 -0.955640 -0.167809
v -1.205552 2.007773 -9.352276
vn 0.242058 -0.955640 -0.167809
v -2.666851 1.103338 -6.309555
vn 0.242058 -0.955640 -0.167809
v -3.948893 0.833018 -6.619425
vn 0.242058 -0.955640 -0.167809
v -5.556463 0.723413 -8.314098
vn 0.242058 -0.955640 -0.167809
v -4.810682 0.564395 -6.332769
vn 0.242057 -0.955640 -0.167809
v 1.490024 1.225932 -5.310185
vn -0.571775 0.391831 -0.720792
v 1.173742 0.783138 -5.300000
vn -0.571775 0.391831 -0.720792
v 2.345167 0.652979 -6.300000
vn -0.571775 0.391831 -0.720792
v 2.666851 1.103338 -6.309555
vn -0.571775 0.391831 -0.720792
v 2.666851 1.103338 -6.309555
vn -0.199840 0.122116 -0.972189
v 2.345167 0.652979 -6.300000
vn -0.199840 0.122116 -0.972189
v 3.711829 0.501128 -6.600000
vn -0.199840 0.122116 -0.972189
v 3.948893 0.833018 -6.619425
vn -0.199840 0.122116 -0.972189
v 3.948893 0.833018 -6.619425
vn 0.260563 -0.240837 -0.934936
v 3.711829 0.501128 -6.600000
vn 0.260563 -0.240837 -0.934936
v 4.688016 0.392663 -6.300000
vn 0.260563 -0.240837 -0.934936
v 4.810682 0.564395 -6.332769
vn 0.260563 -0.240837 -0.934936
v 4.810682 0.564395 -6.332769
vn -0.809285 0.529549 -0.254235
v 4.688016 0.392663 -6.300000
vn -0.809285 0.529549 -0.254235
v 5.273728 0.327584 -8.300000
vn -0.809285 0.529549 -0.254235
v 5.556463 0.723413 -8.314098
vn -0.809285 0.529549 -0.254235
v 5.556463 0.723413 -8.314098
vn -0.197821 0.175649 0.964373
v 5.273728 0.327584 -8.300000
vn -0.197821 0.175649 0.964373
v 0.392793 0.869910 -9.400001
vn -0.197821 0.175649 0.964373
v 1.205552 2.007773 -9.352276
vn -0.197821 0.175649 0.964373
v 1.173742 0.783138 -5.300000
vn 0.800822 -0.575805 -0.164723
v 1.490024 1.225932 -5.310185
vn 0.800822 -0.575805 -0.164723
v 0.392793 0.869910 -9.400001
vn 0.800822 -0.575805 -0.164723
v 1.205552 2.007773 -9.352276
vn 0.800822 -0.575805 -0.164723
v 1.173742 0.783138 -5.300000
vn 0.110431 0.993884 0.000000
v 0.392793 0.869910 -9.400001
vn 0.110432 0.993884 -0.000000
v 2.345167 0.652979 -6.300000
vn 0.110432 0.993884 -0.000000
v 3.711829 0.501128 -6.600000
vn 0.110432 0.993884 -0.000000
v 5.273728 0.327584 -8.300000
vn 0.110432 0.993884 -0.000000
v 4.688016 0.392663 -6.300000
vn 0.110431 0.993884 0.000000
v 1.490024 1.225932 -5.310185
vn -0.242057 -0.955640 -0.167809
v 2.666851 1.103338 -6.309555
vn -0.242058 -0.955640 -0.167809
v 1.205552 2.007773 -9.352276
vn -0.242058 -0.955640 -0.167809
v 3.948893 0.833018 -6.619425
vn -0.242058 -0.955640 -0.167809
v 4.810682 0.564395 -6.332769
vn -0.242057 -0.955640 -0.167809
v 5.556463 0.723413 -8.314098
vn -0.242058 -0.955640 -0.167809
vt 0.627420 0.399992
vt 0.589322 0.595923
vt 0.589322 0.000000
f 6/1/6 8/2/8 9/3/9
vt 0.156143 0.077806
vt 0.156143 0.998535
vt 0.115964 0.849849
f 11/4/11 13/5/13 14/6/14
vt 0.178644 0.771979
vt 0.293752 0.344693
vt 0.267642 0.352027
f 17/7/17 18/8/18 19/9/19
vt 0.950199 0.203294
vt 0.852366 0.664932
vt 0.850773 0.636520
f 23/10/23 25/11/25 26/12/26
vt 0.767966 0.998535
vt 0.767966 0.268053
vt 0.850773 0.636520
f 27/13/27 24/14/24 26/15/26
vt 0.627420 0.399992
vt 0.589322 0.000000
vt 0.589322 0.595923
f 34/16/34 35/17/35 36/18/36
vt 0.156143 0.077806
vt 0.115964 0.849849
vt 0.156143 0.998535
f 39/19/39 40/20/40 41/21/41
vt 0.178644 0.771979
vt 0.267642 0.352027
vt 0.293752 0.344693
f 43/22/43 45/23/45 46/24/46
vt 0.950199 0.203294
vt 0.850773 0.636520
vt 0.852366 0.664932
f 51/25/51 52/26/52 53/27/53
vt 0.767966 0.998535
vt 0.850773 0.636520
vt 0.767966 0.268053
f 54/28/54 52/29/52 50/30/50
vt 0.754297 0.435687
vt 0.654021 0.417533
vt 0.659299 0.726144
f 102/31/102 99/32/99 103/33/103
vt 0.606522 0.726144
vt 0.606522 0.417533
vt 0.511523 0.435687
f 98/34/98 97/35/97 104/36/104
vt 0.998535 0.435687
vt 0.903537 0.726144
vt 0.898259 0.417533
f 112/37/112 113/38/113 108/39/108
vt 0.850760 0.726144
vt 0.755762 0.435687
vt 0.850760 0.417533
f 109/40/109 114/41/114 106/42/106
vt 0.754297 0.435687
vt 0.659299 0.726144
vt 0.654021 0.417533
f 162/43/162 163/44/163 158/45/158
vt 0.606522 0.726144
vt 0.511523 0.435687
vt 0.606522 0.417533
f 159/46/159 164/47/164 156/48/156
vt 0.998535 0.435687
vt 0.898259 0.417533
vt 0.903537 0.726144
f 172/49/172 169/50/169 173/51/173
vt 0.850760 0.726144
vt 0.850760 0.417533
vt 0.755762 0.435687
f 168/52/168 167/53/167 174/54/174
vt 0.263881 0.236411
vt 0.427626 0.633632
vt 0.498325 0.600274
f 189/55/189 190/56/190 191/57/191
vt 0.499790 0.634608
vt 0.570979 0.668197
vt 0.734235 0.270744
f 195/58/195 196/59/196 192/60/192
vt 0.263881 0.236411
vt 0.498325 0.600274
vt 0.427626 0.633632
f 210/61/210 212/62/212 213/63/213
vt 0.499790 0.634608
vt 0.734235 0.270744
vt 0.570979 0.668197
f 217/64/217 214/65/214 218/66/218
vt 0.410581 0.737345
vt 0.495528 0.674753
vt 0.492175 0.719462
f 287/67/287 288/68/288 278/69/278
vt 0.263042 0.598748
vt 0.263042 0.433325
vt 0.330105 0.576393
f 289/70/289 290/71/290 291/72/291
vt 0.330105 0.576393
vt 0.499999 0.504859
vt 0.446348 0.549568
f 291/73/291 292/74/292 268/75/268
vt 0.499999 0.504859
vt 0.558120 0.294728
vt 0.538001 0.464621
f 292/76/292 293/77/293 275/78/275
vt 0.446348 0.549568
vt 0.446348 0.634515
vt 0.330105 0.576393
f 268/79/268 267/80/267 291/81/291
vt 0.538001 0.464621
vt 0.538001 0.549568
vt 0.499999 0.504859
f 275/82/275 271/83/271 292/84/292
vt 0.583828 0.464621
vt 0.538001 0.464621
vt 0.558120 0.294728
f 276/85/276 275/86/275 293/87/293
vt 0.492175 0.719462
vt 0.492175 0.804408
vt 0.410581 0.737345
f 278/88/278 277/89/277 287/90/287
vt 0.538001 0.804408
vt 0.583828 0.804408
vt 0.598358 0.831234
f 280/91/280 282/92/282 284/93/284
vt 0.583828 0.719462
vt 0.583828 0.634515
vt 0.629654 0.656869
f 281/94/281 274/95/274 283/96/283
vt 0.998535 0.597971
vt 0.766248 0.674590
vt 0.931413 0.575794
f 307/97/307 305/98/305 308/99/308
vt 0.998099 0.432548
vt 0.998535 0.597971
vt 0.931413 0.575794
f 309/100/309 307/101/307 308/102/308
vt 0.702654 0.294728
vt 0.761330 0.504707
vt 0.722973 0.464599
f 311/103/311 310/104/310 300/105/300
vt 0.677046 0.464599
vt 0.677046 0.634470
vt 0.632074 0.657060
f 299/106/299 297/107/297 302/108/302
vt 0.722973 0.464599
vt 0.677046 0.464599
vt 0.702654 0.294728
f 300/109/300 299/110/299 311/111/311
vt 0.722973 0.634470
vt 0.722973 0.464599
vt 0.761330 0.504707
f 298/112/298 300/113/300 310/114/310
vt 0.410581 0.737345
vt 0.492175 0.719462
vt 0.495528 0.674753
f 381/115/381 374/116/374 382/117/382
vt 0.263042 0.598748
vt 0.330105 0.576393
vt 0.263042 0.433325
f 383/118/383 384/119/384 385/120/385
vt 0.330105 0.576393
vt 0.446348 0.549568
vt 0.499999 0.504859
f 384/121/384 364/122/364 386/123/386
vt 0.499999 0.504859
vt 0.538001 0.464621
vt 0.558120 0.294728
f 386/124/386 370/125/370 387/126/387
vt 0.446348 0.549568
vt 0.330105 0.576393
vt 0.446348 0.634515
f 364/127/364 384/128/384 361/129/361
vt 0.538001 0.464621
vt 0.499999 0.504859
vt 0.538001 0.549568
f 370/130/370 386/131/386 366/132/366
vt 0.583828 0.464621
vt 0.558120 0.294728
vt 0.538001 0.464621
f 369/133/369 387/134/387 370/135/370
vt 0.492175 0.719462
vt 0.410581 0.737345
vt 0.492175 0.804408
f 374/136/374 381/137/381 371/138/371
vt 0.538001 0.804408
vt 0.598358 0.831234
vt 0.583828 0.804408
f 372/139/372 378/140/378 375/141/375
vt 0.583828 0.719462
vt 0.629654 0.656869
vt 0.583828 0.634515
f 376/142/376 377/143/377 367/144/367
vt 0.998535 0.597971
vt 0.931413 0.575794
vt 0.766248 0.674590
f 401/145/401 402/146/402 399/147/399
vt 0.998099 0.432548
vt 0.931413 0.575794
vt 0.998535 0.597971
f 403/148/403 402/149/402 401/150/401
vt 0.702654 0.294728
vt 0.722973 0.464599
vt 0.761330 0.504707
f 405/151/405 393/152/393 404/153/404
vt 0.677046 0.464599
vt 0.632074 0.657060
vt 0.677046 0.634470
f 394/154/394 396/155/396 391/156/391
vt 0.722973 0.464599
vt 0.702654 0.294728
vt 0.677046 0.464599
f 393/157/393 405/158/405 394/159/394
vt 0.722973 0.634470
vt 0.761330 0.504707
vt 0.722973 0.464599
f 390/160/390 404/161/404 393/162/393
vt 0.998535 0.852611
vt 0.554217 0.852611
vt 0.698320 0.000000
f 419/163/419 420/164/420 421/165/421
vt 0.480463 0.852611
vt 0.180248 0.000000
vt 0.036145 0.852611
f 422/166/422 423/167/423 424/168/424
vt 0.998535 0.852611
vt 0.698320 0.000000
vt 0.554217 0.852611
f 437/169/437 438/170/438 439/171/439
vt 0.480463 0.852611
vt 0.036145 0.852611
vt 0.180248 0.000000
f 440/172/440 441/173/441 442/174/442
vt 0.998535 0.937013
vt 0.855330 0.836955
vt 0.998535 0.497122
f 467/175/467 468/176/468 469/177/469
vt 0.705615 0.812330
vt 0.608976 0.849398
vt 0.507330 0.639950
f 470/178/470 471/179/471 472/180/472
vt 0.507330 0.000000
vt 0.507330 0.461755
vt 0.650536 0.105031
f 473/181/473 474/182/474 475/183/475
vt 0.800251 0.130880
vt 0.998535 0.311827
vt 0.896889 0.091970
f 476/184/476 477/185/477 478/186/478
vt 0.998535 0.937013
vt 0.998535 0.497122
vt 0.855330 0.836955
f 503/187/503 504/188/504 505/189/505
vt 0.705615 0.812330
vt 0.507330 0.639950
vt 0.608976 0.849398
f 506/190/506 507/191/507 508/192/508
vt 0.507330 0.000000
vt 0.650536 0.105031
vt 0.507330 0.461755
f 509/193/509 510/194/510 511/195/511
vt 0.800251 0.130880
vt 0.896889 0.091970
vt 0.998535 0.311827
f 512/196/512 513/197/513 514/198/514
vt 0.410678 0.014477
vt 0.587857 0.000000
vt 0.587857 0.321959
vt 0.410678 0.321959
f 1/199/1 2/200/2 3/201/3 4/202/4
vt 0.766501 0.000000
vt 0.766501 0.509351
vt 0.627420 0.399992
vt 0.589322 0.000000
f 7/203/7 5/204/5 6/205/6 9/206/9
vt 0.000000 0.812958
vt 0.000000 0.000000
vt 0.156143 0.077806
vt 0.115964 0.849849
f 12/207/12 10/208/10 11/209/11 14/210/14
vt 0.372597 0.880530
vt 0.372597 0.000000
vt 0.293752 0.344693
vt 0.350087 0.875661
f 21/211/21 20/212/20 18/213/18 16/214/16
vt 0.178644 0.771979
vt 0.327978 0.998535
vt 0.350087 0.875661
vt 0.293752 0.344693
f 17/215/17 15/216/15 16/217/16 18/218/18
vt 0.767966 0.268053
vt 0.816198 0.000000
vt 0.950199 0.203294
vt 0.850773 0.636520
f 24/219/24 22/220/22 23/221/23 26/222/26
vt 0.587857 0.321959
vt 0.587857 0.000000
vt 0.410678 0.014477
vt 0.410678 0.321959
f 29/223/29 30/224/30 28/225/28 31/226/31
vt 0.627420 0.399992
vt 0.766501 0.509351
vt 0.766501 0.000000
vt 0.589322 0.000000
f 34/227/34 32/228/32 33/229/33 35/230/35
vt 0.156143 0.077806
vt 0.000000 0.000000
vt 0.000000 0.812958
vt 0.115964 0.849849
f 39/231/39 37/232/37 38/233/38 40/234/40
vt 0.293752 0.344693
vt 0.372597 0.000000
vt 0.372597 0.880530
vt 0.350087 0.875661
f 46/235/46 47/236/47 48/237/48 44/238/44
vt 0.350087 0.875661
vt 0.327978 0.998535
vt 0.178644 0.771979
vt 0.293752 0.344693
f 44/239/44 42/240/42 43/241/43 46/242/46
vt 0.950199 0.203294
vt 0.816198 0.000000
vt 0.767966 0.268053
vt 0.850773 0.636520
f 51/243/51 49/244/49 50/245/50 52/246/52
vt 0.306202 0.411062
vt 0.306202 0.000000
vt 0.373178 0.000000
vt 0.373178 0.411062
f 57/247/57 55/248/55 56/249/56 58/250/58
vt 0.000000 0.482119
vt 0.046321 0.482119
vt 0.046321 0.548462
vt 0.000000 0.548462
f 61/251/61 59/252/59 60/253/60 62/254/62
vt 0.237762 0.411062
vt 0.237762 0.000000
vt 0.304737 0.000000
vt 0.304737 0.411062
f 65/255/65 63/256/63 64/257/64 66/258/66
vt 0.000000 0.000000
vt 0.099416 0.000000
vt 0.099416 0.046276
vt 0.000000 0.046276
f 67/259/67 68/260/68 69/261/69 70/262/70
vt 0.443083 0.000000
vt 0.510059 0.000000
vt 0.510059 0.434220
vt 0.443083 0.434220
f 71/263/71 72/264/72 73/265/73 74/266/74
vt 0.169321 0.000000
vt 0.236297 0.000000
vt 0.236297 0.300862
vt 0.169321 0.300862
f 75/267/75 76/268/76 77/269/77 78/270/78
vt 0.099416 0.482119
vt 0.099416 0.548671
vt 0.047786 0.548671
vt 0.047786 0.482119
f 79/271/79 80/272/80 81/273/81 82/274/82
vt 0.100881 0.000000
vt 0.167857 0.000000
vt 0.167857 0.300862
vt 0.100881 0.300862
f 83/275/83 84/276/84 85/277/85 86/278/86
vt 0.374643 0.000000
vt 0.441618 0.000000
vt 0.441618 0.433442
vt 0.374643 0.433442
f 87/279/87 88/280/88 89/281/89 90/282/90
vt 0.099416 0.287335
vt 0.000000 0.287335
vt 0.000000 0.241060
vt 0.099416 0.241060
f 91/283/91 92/284/92 93/285/93 94/286/94
vt 0.685687 0.000000
vt 0.654021 0.000000
vt 0.654021 0.417533
vt 0.754297 0.435687
f 100/287/100 101/288/101 99/289/99 102/290/102
vt 0.654021 0.417533
vt 0.606522 0.417533
vt 0.606522 0.726144
vt 0.659299 0.726144
f 99/291/99 97/292/97 98/293/98 103/294/103
vt 0.606522 0.417533
vt 0.606522 0.000000
vt 0.574856 0.000000
vt 0.511523 0.435687
f 97/295/97 95/296/95 96/297/96 104/298/104
vt 0.898259 0.417533
vt 0.898259 0.000000
vt 0.929925 0.000000
vt 0.998535 0.435687
f 108/299/108 110/300/110 111/301/111 112/302/112
vt 0.850760 0.726144
vt 0.850760 0.417533
vt 0.898259 0.417533
vt 0.903537 0.726144
f 109/303/109 106/304/106 108/305/108 113/306/113
vt 0.819094 0.000000
vt 0.850760 0.000000
vt 0.850760 0.417533
vt 0.755762 0.435687
f 107/307/107 105/308/105 106/309/106 114/310/114
vt 0.373178 0.000000
vt 0.306202 0.000000
vt 0.306202 0.411062
vt 0.373178 0.411062
f 117/311/117 115/312/115 116/313/116 118/314/118
vt 0.046321 0.548462
vt 0.046321 0.482119
vt 0.000000 0.482119
vt 0.000000 0.548462
f 121/315/121 119/316/119 120/317/120 122/318/122
vt 0.304737 0.000000
vt 0.237762 0.000000
vt 0.237762 0.411062
vt 0.304737 0.411062
f 125/319/125 123/320/123 124/321/124 126/322/126
vt 0.099416 0.046276
vt 0.099416 0.000000
vt 0.000000 0.000000
vt 0.000000 0.046276
f 128/323/128 129/324/129 127/325/127 130/326/130
vt 0.510059 0.434220
vt 0.510059 0.000000
vt 0.443083 0.000000
vt 0.443083 0.434220
f 132/327/132 133/328/133 131/329/131 134/330/134
vt 0.236297 0.300862
vt 0.236297 0.000000
vt 0.169321 0.000000
vt 0.169321 0.300862
f 136/331/136 137/332/137 135/333/135 138/334/138
vt 0.047786 0.548671
vt 0.099416 0.548671
vt 0.099416 0.482119
vt 0.047786 0.482119
f 140/335/140 141/336/141 139/337/139 142/338/142
vt 0.167857 0.300862
vt 0.167857 0.000000
vt 0.100881 0.000000
vt 0.100881 0.300862
f 144/339/144 145/340/145 143/341/143 146/342/146
vt 0.441618 0.433442
vt 0.441618 0.000000
vt 0.374643 0.000000
vt 0.374643 0.433442
f 148/343/148 149/344/149 147/345/147 150/346/150
vt 0.000000 0.241060
vt 0.000000 0.287335
vt 0.099416 0.287335
vt 0.099416 0.241060
f 152/347/152 153/348/153 151/349/151 154/350/154
vt 0.654021 0.417533
vt 0.654021 0.000000
vt 0.685687 0.000000
vt 0.754297 0.435687
f 158/351/158 160/352/160 161/353/161 162/354/162
vt 0.606522 0.726144
vt 0.606522 0.417533
vt 0.654021 0.417533
vt 0.659299 0.726144
f 159/355/159 156/356/156 158/357/158 163/358/163
vt 0.574856 0.000000
vt 0.606522 0.000000
vt 0.606522 0.417533
vt 0.511523 0.435687
f 157/359/157 155/360/155 156/361/156 164/362/164
vt 0.929925 0.000000
vt 0.898259 0.000000
vt 0.898259 0.417533
vt 0.998535 0.435687
f 170/363/170 171/364/171 169/365/169 172/366/172
vt 0.898259 0.417533
vt 0.850760 0.417533
vt 0.850760 0.726144
vt 0.903537 0.726144
f 169/367/169 167/368/167 168/369/168 173/370/173
vt 0.850760 0.417533
vt 0.850760 0.000000
vt 0.819094 0.000000
vt 0.755762 0.435687
f 167/371/167 165/372/165 166/373/166 174/374/174
vt 0.499790 0.147567
vt 0.978967 0.147567
vt 0.978209 0.269279
vt 0.499790 0.269279
f 177/375/177 175/376/175 176/377/176 178/378/178
vt 0.498325 0.000000
vt 0.498325 0.145403
vt 0.000000 0.145403
vt 0.000000 0.000000
f 179/379/179 180/380/180 181/381/181 182/382/182
vt 0.736812 0.145098
vt 0.499790 0.146102
vt 0.499790 0.000000
vt 0.736812 0.000000
f 183/383/183 184/384/184 185/385/185 186/386/186
vt 0.263881 0.236411
vt 0.000000 0.236411
vt 0.093687 0.502704
vt 0.427626 0.633632
f 189/387/189 187/388/187 188/389/188 190/390/190
vt 0.905530 0.536916
vt 0.998535 0.270744
vt 0.734235 0.270744
vt 0.570979 0.668197
f 193/391/193 194/392/194 192/393/192 196/394/196
vt 0.978209 0.269279
vt 0.978967 0.147567
vt 0.499790 0.147567
vt 0.499790 0.269279
f 199/395/199 197/396/197 198/397/198 200/398/200
vt 0.000000 0.145403
vt 0.498325 0.145403
vt 0.498325 0.000000
vt 0.000000 0.000000
f 202/399/202 203/400/203 201/401/201 204/402/204
vt 0.499790 0.000000
vt 0.499790 0.146102
vt 0.736812 0.145098
vt 0.736812 0.000000
f 206/403/206 207/404/207 205/405/205 208/406/208
vt 0.093687 0.502704
vt 0.000000 0.236411
vt 0.263881 0.236411
vt 0.427626 0.633632
f 211/407/211 209/408/209 210/409/210 213/410/213
vt 0.734235 0.270744
vt 0.998535 0.270744
vt 0.905530 0.536916
vt 0.570979 0.668197
f 214/411/214 215/412/215 216/413/216 218/414/218
vt 0.263042 0.069634
vt 0.443104 0.069634
vt 0.443104 0.000000
vt 0.263042 0.000000
f 220/415/220 221/416/221 219/417/219 222/418/222
vt 0.000000 0.107238
vt 0.143439 0.107238
vt 0.143439 0.000000
vt 0.000000 0.000000
f 224/419/224 225/420/225 223/421/223 226/422/226
vt 0.261577 0.192131
vt 0.261577 0.000000
vt 0.196746 0.000000
vt 0.196746 0.192131
f 228/423/228 229/424/229 227/425/227 230/426/230
vt 0.261577 0.770144
vt 0.261577 0.728634
vt 0.000000 0.728634
vt 0.000000 0.770144
f 233/427/233 231/428/231 232/429/232 234/430/234
vt 0.000000 0.298667
vt 0.143439 0.298667
vt 0.143439 0.227180
vt 0.000000 0.227180
f 236/431/236 237/432/237 235/433/235 238/434/238
vt 0.263042 0.124210
vt 0.510073 0.124210
vt 0.510073 0.071099
vt 0.263042 0.071099
f 240/435/240 241/436/241 239/437/239 242/438/242
vt 0.195281 0.220752
vt 0.195281 0.000000
vt 0.144903 0.000000
vt 0.144903 0.220752
f 244/439/244 245/440/245 243/441/243 246/442/246
vt 0.000000 0.501316
vt 0.261577 0.501316
vt 0.261577 0.437427
vt 0.000000 0.437427
f 248/443/248 249/444/249 247/445/247 250/446/250
vt 0.261577 0.925200
vt 0.261577 0.838574
vt 0.000000 0.838574
vt 0.000000 0.925200
f 253/447/253 251/448/251 252/449/252 254/450/254
vt 0.263042 0.204562
vt 0.485183 0.204562
vt 0.485183 0.125675
vt 0.263042 0.125675
f 256/451/256 257/452/257 255/453/255 258/454/258
vt 0.224255 0.727169
vt 0.224255 0.539476
vt 0.000000 0.539476
vt 0.000000 0.727169
f 260/455/260 261/456/261 259/457/259 262/458/262
vt 0.632671 0.206027
vt 0.263042 0.206027
vt 0.263042 0.293263
vt 0.632671 0.293263
f 264/459/264 265/460/265 263/461/263 266/462/266
vt 0.446348 0.634515
vt 0.446348 0.549568
vt 0.492175 0.549568
vt 0.492175 0.634515
f 267/463/267 268/464/268 269/465/269 270/466/270
vt 0.492175 0.634515
vt 0.492175 0.549568
vt 0.538001 0.549568
vt 0.538001 0.634515
f 270/467/270 269/468/269 271/469/271 272/470/272
vt 0.538001 0.634515
vt 0.538001 0.549568
vt 0.583828 0.549568
vt 0.583828 0.634515
f 272/471/272 271/472/271 273/473/273 274/474/274
vt 0.538001 0.549568
vt 0.538001 0.464621
vt 0.583828 0.464621
vt 0.583828 0.549568
f 271/475/271 275/476/275 276/477/276 273/478/273
vt 0.492175 0.804408
vt 0.492175 0.719462
vt 0.538001 0.719462
vt 0.538001 0.804408
f 277/479/277 278/480/278 279/481/279 280/482/280
vt 0.538001 0.804408
vt 0.538001 0.719462
vt 0.583828 0.719462
vt 0.583828 0.804408
f 280/483/280 279/484/279 281/485/281 282/486/282
vt 0.538001 0.719462
vt 0.538001 0.634515
vt 0.583828 0.634515
vt 0.583828 0.719462
f 279/487/279 272/488/272 274/489/274 281/490/281
vt 0.492175 0.804408
vt 0.522353 0.831234
vt 0.522353 0.974302
vt 0.410581 0.737345
f 277/491/277 285/492/285 286/493/286 287/494/287
vt 0.583828 0.464621
vt 0.558120 0.294728
vt 0.629654 0.294728
vt 0.629654 0.656869
f 276/495/276 293/496/293 294/497/294 283/498/283
vt 0.492175 0.549568
vt 0.446348 0.549568
vt 0.499999 0.504859
vt 0.538001 0.549568
f 269/499/269 268/500/268 292/501/292 271/502/271
vt 0.495528 0.674753
vt 0.446348 0.634515
vt 0.492175 0.634515
vt 0.538001 0.634515
f 288/503/288 267/504/267 270/505/270 272/506/272
vt 0.629654 0.656869
vt 0.583828 0.634515
vt 0.583828 0.549568
vt 0.583828 0.464621
f 283/507/283 274/508/274 273/509/273 276/510/276
vt 0.538001 0.804408
vt 0.598358 0.831234
vt 0.522353 0.831234
vt 0.492175 0.804408
f 280/511/280 284/512/284 285/513/285 277/514/277
vt 0.583828 0.719462
vt 0.629654 0.656869
vt 0.598358 0.831234
vt 0.583828 0.804408
f 281/515/281 283/516/283 284/517/284 282/518/282
vt 0.538001 0.719462
vt 0.492175 0.719462
vt 0.495528 0.674753
vt 0.538001 0.634515
f 279/519/279 278/520/278 288/521/288 272/522/272
vt 0.446348 0.634515
vt 0.495528 0.674753
vt 0.263042 0.598748
vt 0.330105 0.576393
f 267/523/267 288/524/288 289/525/289 291/526/291
vt 0.722973 0.804340
vt 0.677046 0.804340
vt 0.677046 0.634470
vt 0.722973 0.634470
f 295/527/295 296/528/296 297/529/297 298/530/298
vt 0.722973 0.634470
vt 0.677046 0.634470
vt 0.677046 0.464599
vt 0.722973 0.464599
f 298/531/298 297/532/297 299/533/299 300/534/300
vt 0.740213 0.974211
vt 0.739836 0.831142
vt 0.766248 0.674590
vt 0.851361 0.736959
f 304/535/304 303/536/303 305/537/305 306/538/306
vt 0.631119 0.294916
vt 0.702654 0.294728
vt 0.677046 0.464599
vt 0.632074 0.657060
f 312/539/312 311/540/311 299/541/299 302/542/302
vt 0.722973 0.804340
vt 0.739836 0.831142
vt 0.663830 0.831343
vt 0.677046 0.804340
f 295/543/295 303/544/303 301/545/301 296/546/296
vt 0.677046 0.804340
vt 0.663830 0.831343
vt 0.632074 0.657060
vt 0.677046 0.634470
f 296/547/296 301/548/301 302/549/302 297/550/297
vt 0.722973 0.804340
vt 0.722973 0.634470
vt 0.766248 0.674590
vt 0.739836 0.831142
f 295/551/295 298/552/298 305/553/305 303/554/303
vt 0.761330 0.504707
vt 0.931413 0.575794
vt 0.766248 0.674590
vt 0.722973 0.634470
f 310/555/310 308/556/308 305/557/305 298/558/298
vt 0.443104 0.000000
vt 0.443104 0.069634
vt 0.263042 0.069634
vt 0.263042 0.000000
f 313/559/313 314/560/314 315/561/315 316/562/316
vt 0.143439 0.000000
vt 0.143439 0.107238
vt 0.000000 0.107238
vt 0.000000 0.000000
f 317/563/317 318/564/318 319/565/319 320/566/320
vt 0.196746 0.000000
vt 0.261577 0.000000
vt 0.261577 0.192131
vt 0.196746 0.192131
f 321/567/321 322/568/322 323/569/323 324/570/324
vt 0.000000 0.728634
vt 0.261577 0.728634
vt 0.261577 0.770144
vt 0.000000 0.770144
f 327/571/327 325/572/325 326/573/326 328/574/328
vt 0.143439 0.227180
vt 0.143439 0.298667
vt 0.000000 0.298667
vt 0.000000 0.227180
f 329/575/329 330/576/330 331/577/331 332/578/332
vt 0.510073 0.071099
vt 0.510073 0.124210
vt 0.263042 0.124210
vt 0.263042 0.071099
f 333/579/333 334/580/334 335/581/335 336/582/336
vt 0.144903 0.000000
vt 0.195281 0.000000
vt 0.195281 0.220752
vt 0.144903 0.220752
f 337/583/337 338/584/338 339/585/339 340/586/340
vt 0.261577 0.437427
vt 0.261577 0.501316
vt 0.000000 0.501316
vt 0.000000 0.437427
f 341/587/341 342/588/342 343/589/343 344/590/344
vt 0.000000 0.838574
vt 0.261577 0.838574
vt 0.261577 0.925200
vt 0.000000 0.925200
f 347/591/347 345/592/345 346/593/346 348/594/348
vt 0.485183 0.125675
vt 0.485183 0.204562
vt 0.263042 0.204562
vt 0.263042 0.125675
f 349/595/349 350/596/350 351/597/351 352/598/352
vt 0.000000 0.539476
vt 0.224255 0.539476
vt 0.224255 0.727169
vt 0.000000 0.727169
f 353/599/353 354/600/354 355/601/355 356/602/356
vt 0.263042 0.293263
vt 0.263042 0.206027
vt 0.632671 0.206027
vt 0.632671 0.293263
f 357/603/357 358/604/358 359/605/359 360/606/360
vt 0.446348 0.634515
vt 0.492175 0.634515
vt 0.492175 0.549568
vt 0.446348 0.549568
f 361/607/361 362/608/362 363/609/363 364/610/364
vt 0.492175 0.634515
vt 0.538001 0.634515
vt 0.538001 0.549568
vt 0.492175 0.549568
f 362/611/362 365/612/365 366/613/366 363/614/363
vt 0.538001 0.634515
vt 0.583828 0.634515
vt 0.583828 0.549568
vt 0.538001 0.549568
f 365/615/365 367/616/367 368/617/368 366/618/366
vt 0.538001 0.549568
vt 0.583828 0.549568
vt 0.583828 0.464621
vt 0.538001 0.464621
f 366/619/366 368/620/368 369/621/369 370/622/370
vt 0.492175 0.804408
vt 0.538001 0.804408
vt 0.538001 0.719462
vt 0.492175 0.719462
f 371/623/371 372/624/372 373/625/373 374/626/374
vt 0.538001 0.804408
vt 0.583828 0.804408
vt 0.583828 0.719462
vt 0.538001 0.719462
f 372/627/372 375/628/375 376/629/376 373/630/373
vt 0.538001 0.719462
vt 0.583828 0.719462
vt 0.583828 0.634515
vt 0.538001 0.634515
f 373/631/373 376/632/376 367/633/367 365/634/365
vt 0.522353 0.974302
vt 0.522353 0.831234
vt 0.492175 0.804408
vt 0.410581 0.737345
f 380/635/380 379/636/379 371/637/371 381/638/381
vt 0.629654 0.294728
vt 0.558120 0.294728
vt 0.583828 0.464621
vt 0.629654 0.656869
f 388/639/388 387/640/387 369/641/369 377/642/377
vt 0.499999 0.504859
vt 0.446348 0.549568
vt 0.492175 0.549568
vt 0.538001 0.549568
f 386/643/386 364/644/364 363/645/363 366/646/366
vt 0.492175 0.634515
vt 0.446348 0.634515
vt 0.495528 0.674753
vt 0.538001 0.634515
f 362/647/362 361/648/361 382/649/382 365/650/365
vt 0.583828 0.549568
vt 0.583828 0.634515
vt 0.629654 0.656869
vt 0.583828 0.464621
f 368/651/368 367/652/367 377/653/377 369/654/369
vt 0.522353 0.831234
vt 0.598358 0.831234
vt 0.538001 0.804408
vt 0.492175 0.804408
f 379/655/379 378/656/378 372/657/372 371/658/371
vt 0.598358 0.831234
vt 0.629654 0.656869
vt 0.583828 0.719462
vt 0.583828 0.804408
f 378/659/378 377/660/377 376/661/376 375/662/375
vt 0.495528 0.674753
vt 0.492175 0.719462
vt 0.538001 0.719462
vt 0.538001 0.634515
f 382/663/382 374/664/374 373/665/373 365/666/365
vt 0.263042 0.598748
vt 0.495528 0.674753
vt 0.446348 0.634515
vt 0.330105 0.576393
f 383/667/383 382/668/382 361/669/361 384/670/384
vt 0.722973 0.804340
vt 0.722973 0.634470
vt 0.677046 0.634470
vt 0.677046 0.804340
f 389/671/389 390/672/390 391/673/391 392/674/392
vt 0.722973 0.634470
vt 0.722973 0.464599
vt 0.677046 0.464599
vt 0.677046 0.634470
f 390/675/390 393/676/393 394/677/394 391/678/391
vt 0.766248 0.674590
vt 0.739836 0.831142
vt 0.740213 0.974211
vt 0.851361 0.736959
f 399/679/399 397/680/397 398/681/398 400/682/400
vt 0.677046 0.464599
vt 0.702654 0.294728
vt 0.631119 0.294916
vt 0.632074 0.657060
f 394/683/394 405/684/405 406/685/406 396/686/396
vt 0.663830 0.831343
vt 0.739836 0.831142
vt 0.722973 0.804340
vt 0.677046 0.804340
f 395/687/395 397/688/397 389/689/389 392/690/392
vt 0.632074 0.657060
vt 0.663830 0.831343
vt 0.677046 0.804340
vt 0.677046 0.634470
f 396/691/396 395/692/395 392/693/392 391/694/391
vt 0.766248 0.674590
vt 0.722973 0.634470
vt 0.722973 0.804340
vt 0.739836 0.831142
f 399/695/399 390/696/390 389/697/389 397/698/397
vt 0.766248 0.674590
vt 0.931413 0.575794
vt 0.761330 0.504707
vt 0.722973 0.634470
f 399/699/399 402/700/402 404/701/404 390/702/390
vt 0.518072 0.445783
vt 0.518072 0.000000
vt 0.481928 0.000000
vt 0.481928 0.445783
f 408/703/408 409/704/409 407/705/407 410/706/410
vt 0.554217 0.867554
vt 0.554217 0.000000
vt 0.518072 0.000000
vt 0.518072 0.867554
f 412/707/412 413/708/413 411/709/411 414/710/414
vt 0.000000 0.000000
vt 0.000000 0.906902
vt 0.036145 0.906902
vt 0.036145 0.000000
f 416/711/416 417/712/417 415/713/415 418/714/418
vt 0.481928 0.000000
vt 0.518072 0.000000
vt 0.518072 0.445783
vt 0.481928 0.445783
f 425/715/425 426/716/426 427/717/427 428/718/428
vt 0.518072 0.000000
vt 0.554217 0.000000
vt 0.554217 0.867554
vt 0.518072 0.867554
f 429/719/429 430/720/430 431/721/431 432/722/432
vt 0.036145 0.906902
vt 0.000000 0.906902
vt 0.000000 0.000000
vt 0.036145 0.000000
f 433/723/433 434/724/434 435/725/435 436/726/436
vt 0.158692 0.159587
vt 0.158692 0.000000
vt 0.101655 0.000000
vt 0.101655 0.159587
f 444/727/444 445/728/445 443/729/443 446/730/446
vt 0.100191 0.145021
vt 0.100191 0.000000
vt 0.043154 0.000000
vt 0.043154 0.145021
f 448/731/448 449/732/449 447/733/447 450/734/450
vt 0.041690 0.104855
vt 0.041690 0.000000
vt 0.000000 0.000000
vt 0.000000 0.104855
f 452/735/452 453/736/453 451/737/451 454/738/454
vt 0.210123 0.217984
vt 0.210123 0.000000
vt 0.160156 0.000000
vt 0.160156 0.217984
f 456/739/456 457/740/457 455/741/455 458/742/458
vt 0.505865 0.526619
vt 0.505865 0.000000
vt 0.359459 0.000000
vt 0.359459 0.526619
f 460/743/460 461/744/461 459/745/459 462/746/462
vt 0.211588 0.436833
vt 0.357994 0.436833
vt 0.357994 0.000000
vt 0.211588 0.000000
f 465/747/465 463/748/463 464/749/464 466/750/466
vt 0.998535 0.497122
vt 0.855330 0.836955
vt 0.705615 0.812330
vt 0.507330 0.639950
f 469/751/469 468/752/468 470/753/470 472/754/472
vt 0.800251 0.130880
vt 0.650536 0.105031
vt 0.507330 0.461755
vt 0.998535 0.311827
f 476/755/476 475/756/475 474/757/474 477/758/477
vt 0.101655 0.000000
vt 0.158692 0.000000
vt 0.158692 0.159587
vt 0.101655 0.159587
f 479/759/479 480/760/480 481/761/481 482/762/482
vt 0.043154 0.000000
vt 0.100191 0.000000
vt 0.100191 0.145021
vt 0.043154 0.145021
f 483/763/483 484/764/484 485/765/485 486/766/486
vt 0.000000 0.000000
vt 0.041690 0.000000
vt 0.041690 0.104855
vt 0.000000 0.104855
f 487/767/487 488/768/488 489/769/489 490/770/490
vt 0.160156 0.000000
vt 0.210123 0.000000
vt 0.210123 0.217984
vt 0.160156 0.217984
f 491/771/491 492/772/492 493/773/493 494/774/494
vt 0.359459 0.000000
vt 0.505865 0.000000
vt 0.505865 0.526619
vt 0.359459 0.526619
f 495/775/495 496/776/496 497/777/497 498/778/498
vt 0.357994 0.000000
vt 0.357994 0.436833
vt 0.211588 0.436833
vt 0.211588 0.000000
f 501/779/501 499/780/499 500/781/500 502/782/502
vt 0.705615 0.812330
vt 0.855330 0.836955
vt 0.998535 0.497122
vt 0.507330 0.639950
f 506/783/506 505/784/505 504/785/504 507/786/507
vt 0.507330 0.461755
vt 0.650536 0.105031
vt 0.800251 0.130880
vt 0.998535 0.311827
f 511/787/511 510/788/510 512/789/512 514/790/514
