# Exported from Wings 3D 0.98.32a
mtllib entourage-shield.mtl
o octotoad3
#110 vertices, 108 faces
v 3.51548559 0.51376255 2.84920350
v 5.11838968 0.60088554 -5.91103206
v 3.51548559 -0.60685144 2.43602258
v 5.11838968 -0.57297849 -6.30330741
v -3.51548559 0.51376255 2.84920350
v -5.11838968 0.60088554 -5.91103206
v -3.51548559 -0.60685144 2.43602258
v -5.11838968 -0.57297849 -6.30330741
v 1.29952735 1.28773103 2.69463072
v 1.55717514 1.54140834 -2.95689104
v 1.29952735 -1.41986996 -0.10267319
v 1.55717514 -1.39058243 -5.72544979
v 0.88241335 0.18225432 6.93848993
v 1.56103956 0.61298805 -7.23222349
v 0.88241335 -0.80840578 6.38508387
v 1.56103956 -0.57928266 -7.64713011
v -1.29952735 1.28773103 2.69463072
v -1.55717514 1.54140834 -2.95689104
v -1.29952735 -1.41986996 -0.10267319
v -1.55717514 -1.39058243 -5.72544979
v -0.88241335 0.18225432 6.93848993
v -1.56103956 0.61298805 -7.23222349
v -0.88241335 -0.80840578 6.38508387
v -1.56103956 -0.57928266 -7.64713011
v -5.38048657 -0.38746186 -1.48094767
v -5.38048657 0.39688917 -1.32001419
v 5.38048657 -0.38746186 -1.48094767
v 5.38048657 0.39688917 -1.32001419
v 4.61761574 0.57755025 0.48473908
v 3.77230066 -4.6998058e-2 3.01672825
v 2.74504039 0.98739450 2.31527092
v 2.18867754 0.31196281 5.26990695
v 5.62775867 3.2936543e-3 -6.49486627
v 3.59028271 1.14832798 -4.15952944
v 3.60574040 0.57407138 -7.14598333
v 4.61761574 -0.56457294 0.12263876
v 2.74504039 -1.07776173 0.72526393
v 2.18867754 -0.68325362 4.88453438
v 3.59028271 -1.05646171 -5.72863085
v 3.60574040 -0.54776183 -7.44773360
v -4.61761574 0.57755025 0.48473908
v -3.77230066 -4.6998058e-2 3.01672825
v -2.74504039 0.98739450 2.31527092
v -2.18867754 0.31196281 5.26990695
v -5.62775867 3.2936543e-3 -6.49486627
v -3.59028271 1.14832798 -4.15952944
v -3.60574040 0.57407138 -7.14598333
v -4.61761574 -0.56457294 0.12263876
v -2.74504039 -1.07776173 0.72526393
v -2.18867754 -0.68325362 4.88453438
v -3.59028271 -1.05646171 -5.72863085
v -3.60574040 -0.54776183 -7.44773360
v 1.59754849 1.53764171 -0.14923122
v 0.96214304 0.78671262 5.28558613
v 1.6544846e-17 1.38784321 2.82108399
v 1.40513969 1.19673799 -5.40696274
v 1.6956133e-18 1.67243513 -2.55601158
v 1.59754849 -1.47673935 -3.22708400
v 0.96214304 -1.19882847 3.51097897
v 9.1202298e-18 -1.53390604 -0.37865223
v 1.40513969 -1.08167837 -7.06658923
v 1.6956133e-18 -1.50195601 -5.72438944
v 0.85583679 -0.34874833 7.41628835
v 1.6544846e-17 0.13901816 7.49468426
v 1.61300619 3.2936543e-3 -7.84064374
v 1.6956133e-18 0.62596027 -7.26097021
v 9.1202298e-18 -0.85012317 6.88526704
v 1.6956133e-18 -0.58978960 -7.71359561
v -1.59754849 1.53764171 -0.14923122
v -0.96214304 0.78671262 5.28558613
v -1.40513969 1.19673799 -5.40696274
v -1.59754849 -1.47673935 -3.22708400
v -0.96214304 -1.19882847 3.51097897
v -1.40513969 -1.08167837 -7.06658923
v -0.85583679 -0.34874833 7.41628835
v -1.61300619 3.2936543e-3 -7.84064374
v -5.49900753 -0.56457294 -3.63279267
v -5.49900753 0.57755025 -3.27069234
v 5.49900753 -0.56457294 -3.63279267
v 5.49900753 0.57755025 -3.27069234
v 5.67432729 3.2936543e-3 -1.19560755
v -5.67432729 3.2936543e-3 -1.19560755
v 4.90622894 3.2936543e-3 0.97782995
v -6.08141800 3.2936543e-3 -4.02941196
v 3.75177612 1.05498683 -0.99453350
v 3.75177612 -1.02283950 -2.44293481
v 1.95154973 0.74287107 4.61344918
v 2.26772014 -0.19787319 5.44691505
v 2.98214091 1.04107134 -5.89417285
v 1.95154973 -1.04079515 3.32282580
v 2.98214091 -0.95559507 -7.10117394
v 3.81360690 3.2936543e-3 -7.56325348
v -3.75177612 1.05498683 -0.99453350
v 6.1092545e-17 0.80132647 5.50963178
v 1.6956133e-18 1.69852667 0.13253621
v 1.6956133e-18 -1.62803930 -3.48846706
v -3.75177612 -1.02283950 -2.44293481
v 1.6956133e-18 -1.12370613 -7.05506100
v -1.95154973 0.74287107 4.61344918
v 1.6956133e-18 -0.39904004 8.07274612
v -2.98214091 1.04107134 -5.89417285
v 1.6956133e-18 1.24862688 -5.24455937
v -3.81360690 3.2936543e-3 -7.56325348
v -1.95154973 -1.04079515 3.32282580
v 3.1394079e-17 -1.25150624 3.57369670
v -2.26772014 -0.19787319 5.44691505
v -2.98214091 -0.95559507 -7.10117394
v 1.6956133e-18 3.2936543e-3 -7.93310715
v 6.08141800 3.2936543e-3 -4.02941196
v -4.90622894 3.2936543e-3 0.97782995
vn 0.60218957 0.72214529 0.34040256
vn 0.40315399 0.88658858 -0.22677642
vn 0.50397658 -0.83105079 0.23529173
vn 0.45818067 -0.83588371 -0.30227289
vn -0.60218957 0.72214529 0.34040256
vn -0.40315399 0.88658858 -0.22677642
vn -0.50397658 -0.83105079 0.23529173
vn -0.45818067 -0.83588371 -0.30227289
vn 0.16303372 0.97467181 0.15308449
vn 0.10675403 0.99200270 -6.7336583e-2
vn 0.13346055 -0.98962155 5.3267945e-2
vn 0.11212654 -0.98589910 -0.12421994
vn 0.42541080 0.74958871 0.50709212
vn 3.1512666e-2 0.84718249 -0.53036664
vn 0.30784288 -0.91229546 0.27009211
vn 6.3708268e-2 -0.55124457 -0.83190786
vn -0.16303372 0.97467181 0.15308449
vn -0.10675403 0.99200270 -6.7336583e-2
vn -0.13346055 -0.98962155 5.3267945e-2
vn -0.11212654 -0.98589910 -0.12421994
vn -0.42541080 0.74958871 0.50709212
vn -3.1512666e-2 0.84718249 -0.53036664
vn -0.30784288 -0.91229546 0.27009211
vn -6.3708268e-2 -0.55124457 -0.83190786
vn -0.59593734 -0.79011317 0.14345684
vn -0.65365062 0.74025959 0.15734234
vn 0.59593734 -0.79011317 0.14345684
vn 0.65365062 0.74025959 0.15734234
vn 0.57396775 0.78595531 0.22985925
vn 0.87172462 -0.11062872 0.47734420
vn 0.31556225 0.93105095 0.18320645
vn 0.60055500 0.66295208 0.44702152
vn 0.82365894 9.2593114e-2 -0.55947516
vn 0.19815328 0.97713397 -7.7100441e-2
vn 0.17521032 0.86228239 -0.47515305
vn 0.49564100 -0.84830802 0.18631560
vn 0.25218759 -0.96383401 8.6170879e-2
vn 0.47572916 -0.83587102 0.27386386
vn 0.21289790 -0.96936820 -0.12247357
vn 0.24751165 -0.66166640 -0.70776801
vn -0.57396775 0.78595531 0.22985925
vn -0.87172462 -0.11062872 0.47734420
vn -0.31556225 0.93105095 0.18320645
vn -0.60055500 0.66295208 0.44702152
vn -0.82365894 9.2593114e-2 -0.55947516
vn -0.19815328 0.97713397 -7.7100441e-2
vn -0.17521032 0.86228239 -0.47515305
vn -0.49564100 -0.84830802 0.18631560
vn -0.25218759 -0.96383401 8.6170879e-2
vn -0.47572916 -0.83587102 0.27386386
vn -0.21289790 -0.96936820 -0.12247357
vn -0.24751165 -0.66166640 -0.70776801
vn 0.16264835 0.98525627 5.3062203e-2
vn 0.19313945 0.94139464 0.27653805
vn -5.9316152e-17 0.98762574 0.15682917
vn 3.7173553e-2 0.97392228 -0.22381580
vn -1.3946927e-17 0.99702136 -7.7125935e-2
vn 0.13986832 -0.99016768 2.1973133e-3
vn 0.14290729 -0.98399761 0.10642467
vn -2.0883090e-17 -0.99880478 4.8877467e-2
vn 6.7022001e-2 -0.89034269 -0.45033093
vn 2.4479890e-17 -0.98875286 -0.14955864
vn 0.69825739 -0.19558119 0.68861064
vn -1.5008397e-17 0.84818570 0.52969899
vn 7.4855019e-2 0.22348463 -0.97182887
vn -1.3367512e-17 0.86045652 -0.50952388
vn -1.4337945e-17 -0.96690061 0.25515332
vn 1.4403980e-17 -0.57156475 -0.82055696
vn -0.16264835 0.98525627 5.3062203e-2
vn -0.19313945 0.94139464 0.27653805
vn -3.7173553e-2 0.97392228 -0.22381580
vn -0.13986832 -0.99016768 2.1973133e-3
vn -0.14290729 -0.98399761 0.10642467
vn -6.7022001e-2 -0.89034269 -0.45033093
vn -0.69825739 -0.19558119 0.68861064
vn -7.4855019e-2 0.22348463 -0.97182887
vn -0.52370751 -0.85180332 1.2710232e-2
vn -0.54627741 0.83730550 2.2371714e-2
vn 0.52370751 -0.85180332 1.2710232e-2
vn 0.54627741 0.83730550 2.2371714e-2
vn 0.97112875 -3.9942485e-2 0.23518833
vn -0.97112875 -3.9942485e-2 0.23518833
vn 0.91648454 -7.1345815e-2 0.39365704
vn -0.99998728 -4.5796796e-3 -2.1136081e-3
vn 0.29771599 0.95212925 6.9390807e-2
vn 0.25425007 -0.96646882 3.5985080e-2
vn 0.33541503 0.89885828 0.28204706
vn 0.82455858 -0.16017098 0.54263101
vn 0.10226680 0.97225236 -0.21039688
vn 0.25002971 -0.96069590 0.12061728
vn 0.15570435 -0.90868334 -0.38736384
vn 0.32384231 0.18723020 -0.92740013
vn -0.29771599 0.95212925 6.9390807e-2
vn -3.4961286e-18 0.96301400 0.26945138
vn -6.6339623e-17 0.99870528 5.0870048e-2
vn -1.3939257e-17 -0.99996303 -8.5989781e-3
vn -0.25425007 -0.96646882 3.5985080e-2
vn 2.3125049e-17 -0.88959116 -0.45675768
vn -0.33541503 0.89885828 0.28204706
vn -2.6488033e-17 -0.24007262 0.97075493
vn -0.10226680 0.97225236 -0.21039688
vn -2.3495515e-17 0.97440850 -0.22478452
vn -0.32384231 0.18723020 -0.92740013
vn -0.25002971 -0.96069590 0.12061728
vn 3.4818376e-18 -0.99511175 9.8755250e-2
vn -0.82455858 -0.16017098 0.54263101
vn -0.15570435 -0.90868334 -0.38736384
vn 0.0000000e+0 0.23092112 -0.97297248
vn 0.99998728 -4.5796796e-3 -2.1136081e-3
vn -0.91648454 -7.1345815e-2 0.39365704
g octotoad3_default
usemtl default
f 1//1 30//30 83//83 29//29
f 1//1 32//32 88//88 30//30
f 2//2 35//35 89//89 34//34
f 2//2 80//80 109//109 33//33
f 3//3 30//30 88//88 38//38
f 3//3 37//37 86//86 36//36
f 3//3 38//38 90//90 37//37
f 4//4 79//79 86//86 39//39
f 5//5 43//43 93//93 41//41
f 5//5 44//44 99//99 43//43
f 6//6 47//47 103//103 45//45
f 6//6 78//78 93//93 46//46
f 7//7 42//42 110//110 48//48
f 8//8 45//45 103//103 52//52
f 8//8 52//52 107//107 51//51
f 8//8 77//77 84//84 45//45
f 9//9 31//31 85//85 53//53
f 9//9 55//55 94//94 54//54
f 10//10 34//34 89//89 56//56
f 10//10 53//53 85//85 34//34
f 11//11 37//37 90//90 59//59
f 11//11 60//60 96//96 58//58
f 12//12 58//58 96//96 62//62
f 12//12 62//62 98//98 61//61
f 13//13 54//54 94//94 64//64
f 13//13 64//64 100//100 63//63
f 14//14 35//35 92//92 65//65
f 14//14 56//56 89//89 35//35
f 15//15 59//59 90//90 38//38
f 15//15 63//63 100//100 67//67
f 16//16 61//61 98//98 68//68
f 16//16 65//65 92//92 40//40
f 17//17 43//43 99//99 70//70
f 17//17 55//55 95//95 69//69
f 18//18 57//57 102//102 71//71
f 18//18 69//69 95//95 57//57
f 19//19 49//49 97//97 72//72
f 19//19 60//60 105//105 73//73
f 20//20 51//51 107//107 74//74
f 20//20 72//72 97//97 51//51
f 21//21 44//44 106//106 75//75
f 21//21 70//70 99//99 44//44
f 22//22 66//66 108//108 76//76
f 22//22 71//71 102//102 66//66
f 23//23 73//73 105//105 67//67
f 23//23 75//75 106//106 50//50
f 24//24 74//74 107//107 52//52
f 24//24 76//76 108//108 68//68
f 25//25 82//82 84//84 77//77
f 26//26 41//41 93//93 78//78
f 27//27 36//36 86//86 79//79
f 27//27 81//81 83//83 36//36
f 28//28 29//29 83//83 81//81
f 28//28 81//81 109//109 80//80
f 29//29 85//85 31//31 1//1
f 31//31 87//87 32//32 1//1
f 32//32 87//87 54//54 13//13
f 33//33 92//92 35//35 2//2
f 33//33 109//109 79//79 4//4
f 34//34 85//85 80//80 2//2
f 36//36 83//83 30//30 3//3
f 38//38 88//88 63//63 15//15
f 39//39 86//86 58//58 12//12
f 39//39 91//91 40//40 4//4
f 40//40 91//91 61//61 16//16
f 40//40 92//92 33//33 4//4
f 41//41 110//110 42//42 5//5
f 42//42 106//106 44//44 5//5
f 45//45 84//84 78//78 6//6
f 46//46 93//93 69//69 18//18
f 46//46 101//101 47//47 6//6
f 47//47 101//101 71//71 22//22
f 48//48 97//97 49//49 7//7
f 48//48 110//110 82//82 25//25
f 49//49 104//104 50//50 7//7
f 50//50 104//104 73//73 23//23
f 50//50 106//106 42//42 7//7
f 51//51 97//97 77//77 8//8
f 52//52 103//103 76//76 24//24
f 53//53 95//95 55//55 9//9
f 54//54 87//87 31//31 9//9
f 56//56 102//102 57//57 10//10
f 57//57 95//95 53//53 10//10
f 58//58 86//86 37//37 11//11
f 59//59 105//105 60//60 11//11
f 61//61 91//91 39//39 12//12
f 62//62 96//96 72//72 20//20
f 63//63 88//88 32//32 13//13
f 64//64 94//94 70//70 21//21
f 65//65 108//108 66//66 14//14
f 66//66 102//102 56//56 14//14
f 67//67 100//100 75//75 23//23
f 67//67 105//105 59//59 15//15
f 68//68 98//98 74//74 24//24
f 68//68 108//108 65//65 16//16
f 69//69 93//93 43//43 17//17
f 70//70 94//94 55//55 17//17
f 71//71 101//101 46//46 18//18
f 72//72 96//96 60//60 19//19
f 73//73 104//104 49//49 19//19
f 74//74 98//98 62//62 20//20
f 75//75 100//100 64//64 21//21
f 76//76 103//103 47//47 22//22
f 77//77 97//97 48//48 25//25
f 78//78 84//84 82//82 26//26
f 79//79 109//109 81//81 27//27
f 80//80 85//85 29//29 28//28
f 82//82 110//110 41//41 26//26
